<?xml version="1.0" encoding="utf-8" standalone="no"?>
<!DOCTYPE svg PUBLIC "-//W3C//DTD SVG 1.1//EN"
  "http://www.w3.org/Graphics/SVG/1.1/DTD/svg11.dtd">
<svg xmlns:xlink="http://www.w3.org/1999/xlink" width="330.374687pt" height="221.894375pt" viewBox="0 0 330.374687 221.894375" xmlns="http://www.w3.org/2000/svg" version="1.1">
 <metadata>
  <rdf:RDF xmlns:dc="http://purl.org/dc/elements/1.1/" xmlns:cc="http://creativecommons.org/ns#" xmlns:rdf="http://www.w3.org/1999/02/22-rdf-syntax-ns#">
   <cc:Work>
    <dc:type rdf:resource="http://purl.org/dc/dcmitype/StillImage"/>
    <dc:date>2023-08-03T17:50:08.682131</dc:date>
    <dc:format>image/svg+xml</dc:format>
    <dc:creator>
     <cc:Agent>
      <dc:title>Matplotlib v3.5.0, https://matplotlib.org/</dc:title>
     </cc:Agent>
    </dc:creator>
   </cc:Work>
  </rdf:RDF>
 </metadata>
 <defs>
  <style type="text/css">*{stroke-linejoin: round; stroke-linecap: butt}</style>
 </defs>
 <g id="figure_1">
  <g id="patch_1">
   <path d="M 0 221.894375 
L 330.374687 221.894375 
L 330.374687 0 
L 0 0 
L 0 221.894375 
z
" style="fill: none"/>
  </g>
  <g id="axes_1">
   <g id="patch_2">
    <path d="M 34.01125 185.015625 
L 313.01125 185.015625 
L 313.01125 21.935625 
L 34.01125 21.935625 
L 34.01125 185.015625 
z
" style="fill: none"/>
   </g>
   <g id="PolyCollection_1">
    <path d="M 82.436589 184.432846 
L 82.436589 185.015625 
L 85.148857 185.015625 
L 87.861125 185.015625 
L 90.573393 185.015625 
L 93.285661 185.015625 
L 95.997929 185.015625 
L 98.710197 185.015625 
L 101.422464 185.015625 
L 104.134732 185.015625 
L 106.847 185.015625 
L 109.559268 185.015625 
L 112.271536 185.015625 
L 114.983804 185.015625 
L 117.696072 185.015625 
L 120.40834 185.015625 
L 123.120607 185.015625 
L 125.832875 185.015625 
L 128.545143 185.015625 
L 131.257411 185.015625 
L 133.969679 185.015625 
L 136.681947 185.015625 
L 139.394215 185.015625 
L 142.106483 185.015625 
L 144.81875 185.015625 
L 147.531018 185.015625 
L 150.243286 185.015625 
L 152.955554 185.015625 
L 155.667822 185.015625 
L 158.38009 185.015625 
L 161.092358 185.015625 
L 163.804626 185.015625 
L 166.516894 185.015625 
L 169.229161 185.015625 
L 171.941429 185.015625 
L 174.653697 185.015625 
L 177.365965 185.015625 
L 180.078233 185.015625 
L 182.790501 185.015625 
L 185.502769 185.015625 
L 188.215037 185.015625 
L 190.927304 185.015625 
L 193.639572 185.015625 
L 196.35184 185.015625 
L 199.064108 185.015625 
L 201.776376 185.015625 
L 204.488644 185.015625 
L 207.200912 185.015625 
L 209.91318 185.015625 
L 212.625447 185.015625 
L 215.337715 185.015625 
L 218.049983 185.015625 
L 220.762251 185.015625 
L 223.474519 185.015625 
L 226.186787 185.015625 
L 228.899055 185.015625 
L 231.611323 185.015625 
L 234.323591 185.015625 
L 237.035858 185.015625 
L 239.748126 185.015625 
L 242.460394 185.015625 
L 245.172662 185.015625 
L 247.88493 185.015625 
L 250.597198 185.015625 
L 253.309466 185.015625 
L 256.021734 185.015625 
L 258.734001 185.015625 
L 261.446269 185.015625 
L 264.158537 185.015625 
L 266.870805 185.015625 
L 269.583073 185.015625 
L 272.295341 185.015625 
L 275.007609 185.015625 
L 277.719877 185.015625 
L 280.432144 185.015625 
L 283.144412 185.015625 
L 285.85668 185.015625 
L 288.568948 185.015625 
L 291.281216 185.015625 
L 293.993484 185.015625 
L 296.705752 185.015625 
L 299.41802 185.015625 
L 302.130288 185.015625 
L 304.842555 185.015625 
L 307.554823 185.015625 
L 310.267091 185.015625 
L 312.979359 185.015625 
L 315.691627 185.015625 
L 318.403895 185.015625 
L 321.116163 185.015625 
L 323.828431 185.015625 
L 326.540698 185.015625 
L 329.252966 185.015625 
L 331.965234 185.015625 
L 334.677502 185.015625 
L 337.38977 185.015625 
L 340.102038 185.015625 
L 342.814306 185.015625 
L 345.526574 185.015625 
L 348.238842 185.015625 
L 350.951109 185.015625 
L 353.663377 185.015625 
L 356.375645 185.015625 
L 359.087913 185.015625 
L 361.800181 185.015625 
L 364.512449 185.015625 
L 367.224717 185.015625 
L 369.936985 185.015625 
L 372.649252 185.015625 
L 375.36152 185.015625 
L 378.073788 185.015625 
L 380.786056 185.015625 
L 383.498324 185.015625 
L 386.210592 185.015625 
L 388.92286 185.015625 
L 391.635128 185.015625 
L 394.347395 185.015625 
L 397.059663 185.015625 
L 399.771931 185.015625 
L 402.484199 185.015625 
L 405.196467 185.015625 
L 407.908735 185.015625 
L 410.621003 185.015625 
L 413.333271 185.015625 
L 416.045539 185.015625 
L 418.757806 185.015625 
L 421.470074 185.015625 
L 424.182342 185.015625 
L 426.89461 185.015625 
L 429.606878 185.015625 
L 432.319146 185.015625 
L 435.031414 185.015625 
L 437.743682 185.015625 
L 440.455949 185.015625 
L 443.168217 185.015625 
L 445.880485 185.015625 
L 448.592753 185.015625 
L 451.305021 185.015625 
L 454.017289 185.015625 
L 456.729557 185.015625 
L 459.441825 185.015625 
L 462.154092 185.015625 
L 464.86636 185.015625 
L 467.578628 185.015625 
L 470.290896 185.015625 
L 473.003164 185.015625 
L 475.715432 185.015625 
L 478.4277 185.015625 
L 481.139968 185.015625 
L 483.852236 185.015625 
L 486.564503 185.015625 
L 489.276771 185.015625 
L 491.989039 185.015625 
L 494.701307 185.015625 
L 497.413575 185.015625 
L 500.125843 185.015625 
L 502.838111 185.015625 
L 505.550379 185.015625 
L 508.262646 185.015625 
L 510.974914 185.015625 
L 513.687182 185.015625 
L 516.39945 185.015625 
L 519.111718 185.015625 
L 521.823986 185.015625 
L 524.536254 185.015625 
L 527.248522 185.015625 
L 529.960789 185.015625 
L 532.673057 185.015625 
L 535.385325 185.015625 
L 538.097593 185.015625 
L 540.809861 185.015625 
L 543.522129 185.015625 
L 546.234397 185.015625 
L 548.946665 185.015625 
L 551.658933 185.015625 
L 554.3712 185.015625 
L 557.083468 185.015625 
L 559.795736 185.015625 
L 562.508004 185.015625 
L 565.220272 185.015625 
L 567.93254 185.015625 
L 570.644808 185.015625 
L 573.357076 185.015625 
L 576.069343 185.015625 
L 578.781611 185.015625 
L 581.493879 185.015625 
L 584.206147 185.015625 
L 586.918415 185.015625 
L 589.630683 185.015625 
L 592.342951 185.015625 
L 595.055219 185.015625 
L 597.767486 185.015625 
L 600.479754 185.015625 
L 603.192022 185.015625 
L 605.90429 185.015625 
L 608.616558 185.015625 
L 611.328826 185.015625 
L 614.041094 185.015625 
L 616.753362 185.015625 
L 619.46563 185.015625 
L 622.177897 185.015625 
L 622.177897 185.014956 
L 622.177897 185.014956 
L 619.46563 185.005659 
L 616.753362 184.971669 
L 614.041094 184.958239 
L 611.328826 184.993448 
L 608.616558 185.013088 
L 605.90429 185.015539 
L 603.192022 185.015624 
L 600.479754 185.015625 
L 597.767486 185.015625 
L 595.055219 185.015625 
L 592.342951 185.015625 
L 589.630683 185.015625 
L 586.918415 185.015625 
L 584.206147 185.015625 
L 581.493879 185.015625 
L 578.781611 185.015625 
L 576.069343 185.015625 
L 573.357076 185.015625 
L 570.644808 185.015625 
L 567.93254 185.015625 
L 565.220272 185.015625 
L 562.508004 185.015625 
L 559.795736 185.015625 
L 557.083468 185.015625 
L 554.3712 185.015625 
L 551.658933 185.015625 
L 548.946665 185.015625 
L 546.234397 185.015625 
L 543.522129 185.015625 
L 540.809861 185.015625 
L 538.097593 185.015625 
L 535.385325 185.015625 
L 532.673057 185.015625 
L 529.960789 185.015625 
L 527.248522 185.015625 
L 524.536254 185.015625 
L 521.823986 185.015625 
L 519.111718 185.015625 
L 516.39945 185.015625 
L 513.687182 185.015625 
L 510.974914 185.015625 
L 508.262646 185.015625 
L 505.550379 185.015625 
L 502.838111 185.015625 
L 500.125843 185.015625 
L 497.413575 185.015625 
L 494.701307 185.015625 
L 491.989039 185.015625 
L 489.276771 185.015625 
L 486.564503 185.015625 
L 483.852236 185.015625 
L 481.139968 185.015625 
L 478.4277 185.015625 
L 475.715432 185.015625 
L 473.003164 185.015625 
L 470.290896 185.015625 
L 467.578628 185.015625 
L 464.86636 185.015625 
L 462.154092 185.015625 
L 459.441825 185.015625 
L 456.729557 185.015625 
L 454.017289 185.015625 
L 451.305021 185.015625 
L 448.592753 185.015625 
L 445.880485 185.015625 
L 443.168217 185.015625 
L 440.455949 185.015625 
L 437.743682 185.015625 
L 435.031414 185.015625 
L 432.319146 185.015625 
L 429.606878 185.015625 
L 426.89461 185.015625 
L 424.182342 185.015625 
L 421.470074 185.015625 
L 418.757806 185.015625 
L 416.045539 185.015625 
L 413.333271 185.015625 
L 410.621003 185.015625 
L 407.908735 185.015625 
L 405.196467 185.015625 
L 402.484199 185.015625 
L 399.771931 185.015625 
L 397.059663 185.015625 
L 394.347395 185.015625 
L 391.635128 185.015625 
L 388.92286 185.015625 
L 386.210592 185.015625 
L 383.498324 185.015625 
L 380.786056 185.015625 
L 378.073788 185.015625 
L 375.36152 185.015625 
L 372.649252 185.015625 
L 369.936985 185.015625 
L 367.224717 185.015625 
L 364.512449 185.015625 
L 361.800181 185.015625 
L 359.087913 185.015625 
L 356.375645 185.015625 
L 353.663377 185.015625 
L 350.951109 185.015625 
L 348.238842 185.015625 
L 345.526574 185.015625 
L 342.814306 185.015625 
L 340.102038 185.015625 
L 337.38977 185.015625 
L 334.677502 185.015625 
L 331.965234 185.015625 
L 329.252966 185.015625 
L 326.540698 185.015625 
L 323.828431 185.015625 
L 321.116163 185.015625 
L 318.403895 185.015625 
L 315.691627 185.015625 
L 312.979359 185.015625 
L 310.267091 185.015625 
L 307.554823 185.015625 
L 304.842555 185.015625 
L 302.130288 185.015625 
L 299.41802 185.015625 
L 296.705752 185.015625 
L 293.993484 185.015625 
L 291.281216 185.015625 
L 288.568948 185.015625 
L 285.85668 185.015625 
L 283.144412 185.015625 
L 280.432144 185.015625 
L 277.719877 185.015625 
L 275.007609 185.015625 
L 272.295341 185.015625 
L 269.583073 185.015625 
L 266.870805 185.015625 
L 264.158537 185.015625 
L 261.446269 185.015625 
L 258.734001 185.015625 
L 256.021734 185.015625 
L 253.309466 185.015625 
L 250.597198 185.015625 
L 247.88493 185.015625 
L 245.172662 185.015625 
L 242.460394 185.015625 
L 239.748126 185.015625 
L 237.035858 185.015625 
L 234.323591 185.015625 
L 231.611323 185.015625 
L 228.899055 185.015625 
L 226.186787 185.015625 
L 223.474519 185.015625 
L 220.762251 185.015625 
L 218.049983 185.015625 
L 215.337715 185.015622 
L 212.625447 185.01538 
L 209.91318 185.010445 
L 207.200912 184.983164 
L 204.488644 184.955416 
L 201.776376 184.982568 
L 199.064108 185.010253 
L 196.35184 185.015367 
L 193.639572 185.015621 
L 190.927304 185.015625 
L 188.215037 185.015625 
L 185.502769 185.015625 
L 182.790501 185.015625 
L 180.078233 185.015625 
L 177.365965 185.015625 
L 174.653697 185.015625 
L 171.941429 185.015625 
L 169.229161 185.015625 
L 166.516894 185.015625 
L 163.804626 185.015625 
L 161.092358 185.01562 
L 158.38009 185.015145 
L 155.667822 184.999545 
L 152.955554 184.815827 
L 150.243286 184.028461 
L 147.531018 183.031931 
L 144.81875 183.421655 
L 142.106483 184.520951 
L 139.394215 184.958955 
L 136.681947 185.01334 
L 133.969679 185.015594 
L 131.257411 185.015625 
L 128.545143 185.015625 
L 125.832875 185.015625 
L 123.120607 185.0156 
L 120.40834 185.014555 
L 117.696072 185.002272 
L 114.983804 184.966321 
L 112.271536 184.961738 
L 109.559268 184.998191 
L 106.847 185.013931 
L 104.134732 185.013373 
L 101.422464 184.911818 
L 98.710197 182.504249 
L 95.997929 158.447464 
L 93.285661 77.087668 
L 90.573393 29.701339 
L 87.861125 109.929886 
L 85.148857 173.252227 
L 82.436589 184.432846 
z
" clip-path="url(#p2c36a86f29)" style="fill: #1b9e77; fill-opacity: 0.25; stroke: #1b9e77; stroke-width: 1.5"/>
   </g>
   <g id="PolyCollection_2">
    <defs>
     <path id="m85e836e788" d="M 81.858328 -37.497964 
L 81.858328 -36.87875 
L 82.802894 -36.87875 
L 83.747461 -36.87875 
L 84.692027 -36.87875 
L 85.636593 -36.87875 
L 86.58116 -36.87875 
L 87.525726 -36.87875 
L 88.470293 -36.87875 
L 89.414859 -36.87875 
L 90.359425 -36.87875 
L 91.303992 -36.87875 
L 92.248558 -36.87875 
L 93.193124 -36.87875 
L 94.137691 -36.87875 
L 95.082257 -36.87875 
L 96.026824 -36.87875 
L 96.97139 -36.87875 
L 97.915956 -36.87875 
L 98.860523 -36.87875 
L 99.805089 -36.87875 
L 100.749656 -36.87875 
L 101.694222 -36.87875 
L 102.638788 -36.87875 
L 103.583355 -36.87875 
L 104.527921 -36.87875 
L 105.472487 -36.87875 
L 106.417054 -36.87875 
L 107.36162 -36.87875 
L 108.306187 -36.87875 
L 109.250753 -36.87875 
L 110.195319 -36.87875 
L 111.139886 -36.87875 
L 112.084452 -36.87875 
L 113.029019 -36.87875 
L 113.973585 -36.87875 
L 114.918151 -36.87875 
L 115.862718 -36.87875 
L 116.807284 -36.87875 
L 117.751851 -36.87875 
L 118.696417 -36.87875 
L 119.640983 -36.87875 
L 120.58555 -36.87875 
L 121.530116 -36.87875 
L 122.474682 -36.87875 
L 123.419249 -36.87875 
L 124.363815 -36.87875 
L 125.308382 -36.87875 
L 126.252948 -36.87875 
L 127.197514 -36.87875 
L 128.142081 -36.87875 
L 129.086647 -36.87875 
L 130.031214 -36.87875 
L 130.97578 -36.87875 
L 131.920346 -36.87875 
L 132.864913 -36.87875 
L 133.809479 -36.87875 
L 134.754045 -36.87875 
L 135.698612 -36.87875 
L 136.643178 -36.87875 
L 137.587745 -36.87875 
L 138.532311 -36.87875 
L 139.476877 -36.87875 
L 140.421444 -36.87875 
L 141.36601 -36.87875 
L 142.310577 -36.87875 
L 143.255143 -36.87875 
L 144.199709 -36.87875 
L 145.144276 -36.87875 
L 146.088842 -36.87875 
L 147.033409 -36.87875 
L 147.977975 -36.87875 
L 148.922541 -36.87875 
L 149.867108 -36.87875 
L 150.811674 -36.87875 
L 151.75624 -36.87875 
L 152.700807 -36.87875 
L 153.645373 -36.87875 
L 154.58994 -36.87875 
L 155.534506 -36.87875 
L 156.479072 -36.87875 
L 157.423639 -36.87875 
L 158.368205 -36.87875 
L 159.312772 -36.87875 
L 160.257338 -36.87875 
L 161.201904 -36.87875 
L 162.146471 -36.87875 
L 163.091037 -36.87875 
L 164.035603 -36.87875 
L 164.98017 -36.87875 
L 165.924736 -36.87875 
L 166.869303 -36.87875 
L 167.813869 -36.87875 
L 168.758435 -36.87875 
L 169.703002 -36.87875 
L 170.647568 -36.87875 
L 171.592135 -36.87875 
L 172.536701 -36.87875 
L 173.481267 -36.87875 
L 174.425834 -36.87875 
L 175.3704 -36.87875 
L 176.314967 -36.87875 
L 177.259533 -36.87875 
L 178.204099 -36.87875 
L 179.148666 -36.87875 
L 180.093232 -36.87875 
L 181.037798 -36.87875 
L 181.982365 -36.87875 
L 182.926931 -36.87875 
L 183.871498 -36.87875 
L 184.816064 -36.87875 
L 185.76063 -36.87875 
L 186.705197 -36.87875 
L 187.649763 -36.87875 
L 188.59433 -36.87875 
L 189.538896 -36.87875 
L 190.483462 -36.87875 
L 191.428029 -36.87875 
L 192.372595 -36.87875 
L 193.317161 -36.87875 
L 194.261728 -36.87875 
L 195.206294 -36.87875 
L 196.150861 -36.87875 
L 197.095427 -36.87875 
L 198.039993 -36.87875 
L 198.98456 -36.87875 
L 199.929126 -36.87875 
L 200.873693 -36.87875 
L 201.818259 -36.87875 
L 202.762825 -36.87875 
L 203.707392 -36.87875 
L 204.651958 -36.87875 
L 205.596524 -36.87875 
L 206.541091 -36.87875 
L 207.485657 -36.87875 
L 208.430224 -36.87875 
L 209.37479 -36.87875 
L 210.319356 -36.87875 
L 211.263923 -36.87875 
L 212.208489 -36.87875 
L 213.153056 -36.87875 
L 214.097622 -36.87875 
L 215.042188 -36.87875 
L 215.986755 -36.87875 
L 216.931321 -36.87875 
L 217.875888 -36.87875 
L 218.820454 -36.87875 
L 219.76502 -36.87875 
L 220.709587 -36.87875 
L 221.654153 -36.87875 
L 222.598719 -36.87875 
L 223.543286 -36.87875 
L 224.487852 -36.87875 
L 225.432419 -36.87875 
L 226.376985 -36.87875 
L 227.321551 -36.87875 
L 228.266118 -36.87875 
L 229.210684 -36.87875 
L 230.155251 -36.87875 
L 231.099817 -36.87875 
L 232.044383 -36.87875 
L 232.98895 -36.87875 
L 233.933516 -36.87875 
L 234.878082 -36.87875 
L 235.822649 -36.87875 
L 236.767215 -36.87875 
L 237.711782 -36.87875 
L 238.656348 -36.87875 
L 239.600914 -36.87875 
L 240.545481 -36.87875 
L 241.490047 -36.87875 
L 242.434614 -36.87875 
L 243.37918 -36.87875 
L 244.323746 -36.87875 
L 245.268313 -36.87875 
L 246.212879 -36.87875 
L 247.157446 -36.87875 
L 248.102012 -36.87875 
L 249.046578 -36.87875 
L 249.991145 -36.87875 
L 250.935711 -36.87875 
L 251.880277 -36.87875 
L 252.824844 -36.87875 
L 253.76941 -36.87875 
L 254.713977 -36.87875 
L 255.658543 -36.87875 
L 256.603109 -36.87875 
L 257.547676 -36.87875 
L 258.492242 -36.87875 
L 259.436809 -36.87875 
L 260.381375 -36.87875 
L 261.325941 -36.87875 
L 262.270508 -36.87875 
L 263.215074 -36.87875 
L 264.15964 -36.87875 
L 265.104207 -36.87875 
L 266.048773 -36.87875 
L 266.99334 -36.87875 
L 267.937906 -36.87875 
L 268.882472 -36.87875 
L 269.827039 -36.87875 
L 269.827039 -36.879648 
L 269.827039 -36.879648 
L 268.882472 -36.881204 
L 267.937906 -36.884659 
L 266.99334 -36.891278 
L 266.048773 -36.902145 
L 265.104207 -36.91723 
L 264.15964 -36.934497 
L 263.215074 -36.949882 
L 262.270508 -36.958691 
L 261.325941 -36.95788 
L 260.381375 -36.947738 
L 259.436809 -36.931725 
L 258.492242 -36.914579 
L 257.547676 -36.900093 
L 256.603109 -36.889948 
L 255.658543 -36.883925 
L 254.713977 -36.880856 
L 253.76941 -36.879505 
L 252.824844 -36.878988 
L 251.880277 -36.878816 
L 250.935711 -36.878766 
L 249.991145 -36.878754 
L 249.046578 -36.878751 
L 248.102012 -36.87875 
L 247.157446 -36.87875 
L 246.212879 -36.87875 
L 245.268313 -36.87875 
L 244.323746 -36.87875 
L 243.37918 -36.87875 
L 242.434614 -36.87875 
L 241.490047 -36.87875 
L 240.545481 -36.87875 
L 239.600914 -36.87875 
L 238.656348 -36.87875 
L 237.711782 -36.87875 
L 236.767215 -36.87875 
L 235.822649 -36.87875 
L 234.878082 -36.87875 
L 233.933516 -36.87875 
L 232.98895 -36.87875 
L 232.044383 -36.87875 
L 231.099817 -36.87875 
L 230.155251 -36.87875 
L 229.210684 -36.87875 
L 228.266118 -36.87875 
L 227.321551 -36.87875 
L 226.376985 -36.87875 
L 225.432419 -36.87875 
L 224.487852 -36.87875 
L 223.543286 -36.87875 
L 222.598719 -36.87875 
L 221.654153 -36.87875 
L 220.709587 -36.87875 
L 219.76502 -36.87875 
L 218.820454 -36.87875 
L 217.875888 -36.878752 
L 216.931321 -36.87876 
L 215.986755 -36.878794 
L 215.042188 -36.878919 
L 214.097622 -36.879319 
L 213.153056 -36.880445 
L 212.208489 -36.883224 
L 211.263923 -36.889222 
L 210.319356 -36.900506 
L 209.37479 -36.91892 
L 208.430224 -36.944757 
L 207.485657 -36.975415 
L 206.541091 -37.005124 
L 205.596524 -37.026584 
L 204.651958 -37.034171 
L 203.707392 -37.026982 
L 202.762825 -37.009691 
L 201.818259 -36.99035 
L 200.873693 -36.976308 
L 199.929126 -36.970714 
L 198.98456 -36.97176 
L 198.039993 -36.974967 
L 197.095427 -36.976719 
L 196.150861 -36.976377 
L 195.206294 -36.975519 
L 194.261728 -36.975306 
L 193.317161 -36.974565 
L 192.372595 -36.970348 
L 191.428029 -36.960387 
L 190.483462 -36.945207 
L 189.538896 -36.92821 
L 188.59433 -36.914004 
L 187.649763 -36.906437 
L 186.705197 -36.907444 
L 185.76063 -36.916649 
L 184.816064 -36.931313 
L 183.871498 -36.9467 
L 182.926931 -36.957339 
L 181.982365 -36.959138 
L 181.037798 -36.951253 
L 180.093232 -36.936361 
L 179.148666 -36.919072 
L 178.204099 -36.903608 
L 177.259533 -36.892247 
L 176.314967 -36.885205 
L 175.3704 -36.881469 
L 174.425834 -36.879759 
L 173.481267 -36.87908 
L 172.536701 -36.878845 
L 171.592135 -36.878774 
L 170.647568 -36.878755 
L 169.703002 -36.878751 
L 168.758435 -36.87875 
L 167.813869 -36.87875 
L 166.869303 -36.87875 
L 165.924736 -36.87875 
L 164.98017 -36.87875 
L 164.035603 -36.878751 
L 163.091037 -36.878756 
L 162.146471 -36.87878 
L 161.201904 -36.878884 
L 160.257338 -36.879292 
L 159.312772 -36.880712 
L 158.368205 -36.88516 
L 157.423639 -36.897659 
L 156.479072 -36.929204 
L 155.534506 -37.00067 
L 154.58994 -37.145836 
L 153.645373 -37.409638 
L 152.700807 -37.836933 
L 151.75624 -38.450064 
L 150.811674 -39.221242 
L 149.867108 -40.054622 
L 148.922541 -40.795258 
L 147.977975 -41.271747 
L 147.033409 -41.359043 
L 146.088842 -41.031004 
L 145.144276 -40.373023 
L 144.199709 -39.54649 
L 143.255143 -38.725031 
L 142.310577 -38.036842 
L 141.36601 -37.538776 
L 140.421444 -37.225041 
L 139.476877 -37.054717 
L 138.532311 -36.97872 
L 137.587745 -36.955502 
L 136.643178 -36.955554 
L 135.698612 -36.960204 
L 134.754045 -36.959475 
L 133.809479 -36.950382 
L 132.864913 -36.934988 
L 131.920346 -36.917701 
L 130.97578 -36.902582 
L 130.031214 -36.891817 
L 129.086647 -36.885743 
L 128.142081 -36.883859 
L 127.197514 -36.88587 
L 126.252948 -36.892089 
L 125.308382 -36.903007 
L 124.363815 -36.918235 
L 123.419249 -36.935502 
L 122.474682 -36.950622 
L 121.530116 -36.958924 
L 120.58555 -36.957521 
L 119.640983 -36.946916 
L 118.696417 -36.930706 
L 117.751851 -36.913629 
L 116.807284 -36.899373 
L 115.862718 -36.88949 
L 114.918151 -36.883676 
L 113.973585 -36.88074 
L 113.029019 -36.879458 
L 112.084452 -36.878972 
L 111.139886 -36.878811 
L 110.195319 -36.878766 
L 109.250753 -36.878761 
L 108.306187 -36.878789 
L 107.36162 -36.878924 
L 106.417054 -36.879455 
L 105.472487 -36.88132 
L 104.527921 -36.887268 
L 103.583355 -36.90482 
L 102.638788 -36.95372 
L 101.694222 -37.084586 
L 100.749656 -37.422704 
L 99.805089 -38.258043 
L 98.860523 -40.194334 
L 97.915956 -44.319761 
L 96.97139 -52.256559 
L 96.026824 -65.842028 
L 95.082257 -86.241691 
L 94.137691 -112.64801 
L 93.193124 -141.28354 
L 92.248558 -165.725011 
L 91.303992 -179.034266 
L 90.359425 -176.885146 
L 89.414859 -159.810096 
L 88.470293 -132.997582 
L 87.525726 -103.734079 
L 86.58116 -78.206313 
L 85.636593 -59.564562 
L 84.692027 -47.928466 
L 83.747461 -41.651136 
L 82.802894 -38.705352 
L 81.858328 -37.497964 
z
" style="stroke: #d95f02; stroke-width: 1.5"/>
    </defs>
    <g clip-path="url(#p2c36a86f29)">
     <use xlink:href="#m85e836e788" x="0" y="221.894375" style="fill: #d95f02; fill-opacity: 0.25; stroke: #d95f02; stroke-width: 1.5"/>
    </g>
   </g>
   <g id="PolyCollection_3">
    <path d="M 74.181868 184.396485 
L 74.181868 185.015625 
L 78.451603 185.015625 
L 82.721338 185.015625 
L 86.991072 185.015625 
L 91.260807 185.015625 
L 95.530542 185.015625 
L 99.800277 185.015625 
L 104.070012 185.015625 
L 108.339747 185.015625 
L 112.609482 185.015625 
L 116.879217 185.015625 
L 121.148952 185.015625 
L 125.418687 185.015625 
L 129.688422 185.015625 
L 133.958157 185.015625 
L 138.227892 185.015625 
L 142.497627 185.015625 
L 146.767362 185.015625 
L 151.037097 185.015625 
L 155.306832 185.015625 
L 159.576566 185.015625 
L 163.846301 185.015625 
L 168.116036 185.015625 
L 172.385771 185.015625 
L 176.655506 185.015625 
L 180.925241 185.015625 
L 185.194976 185.015625 
L 189.464711 185.015625 
L 193.734446 185.015625 
L 198.004181 185.015625 
L 202.273916 185.015625 
L 206.543651 185.015625 
L 210.813386 185.015625 
L 215.083121 185.015625 
L 219.352856 185.015625 
L 223.622591 185.015625 
L 227.892326 185.015625 
L 232.162061 185.015625 
L 236.431795 185.015625 
L 240.70153 185.015625 
L 244.971265 185.015625 
L 249.241 185.015625 
L 253.510735 185.015625 
L 257.78047 185.015625 
L 262.050205 185.015625 
L 266.31994 185.015625 
L 270.589675 185.015625 
L 274.85941 185.015625 
L 279.129145 185.015625 
L 283.39888 185.015625 
L 287.668615 185.015625 
L 291.93835 185.015625 
L 296.208085 185.015625 
L 300.47782 185.015625 
L 304.747555 185.015625 
L 309.01729 185.015625 
L 313.287024 185.015625 
L 317.556759 185.015625 
L 321.826494 185.015625 
L 326.096229 185.015625 
L 330.365964 185.015625 
L 334.635699 185.015625 
L 338.905434 185.015625 
L 343.175169 185.015625 
L 347.444904 185.015625 
L 351.714639 185.015625 
L 355.984374 185.015625 
L 360.254109 185.015625 
L 364.523844 185.015625 
L 368.793579 185.015625 
L 373.063314 185.015625 
L 377.333049 185.015625 
L 381.602784 185.015625 
L 385.872519 185.015625 
L 390.142253 185.015625 
L 394.411988 185.015625 
L 398.681723 185.015625 
L 402.951458 185.015625 
L 407.221193 185.015625 
L 411.490928 185.015625 
L 415.760663 185.015625 
L 420.030398 185.015625 
L 424.300133 185.015625 
L 428.569868 185.015625 
L 432.839603 185.015625 
L 437.109338 185.015625 
L 441.379073 185.015625 
L 445.648808 185.015625 
L 449.918543 185.015625 
L 454.188278 185.015625 
L 458.458013 185.015625 
L 462.727748 185.015625 
L 466.997482 185.015625 
L 471.267217 185.015625 
L 475.536952 185.015625 
L 479.806687 185.015625 
L 484.076422 185.015625 
L 488.346157 185.015625 
L 492.615892 185.015625 
L 496.885627 185.015625 
L 501.155362 185.015625 
L 505.425097 185.015625 
L 509.694832 185.015625 
L 513.964567 185.015625 
L 518.234302 185.015625 
L 522.504037 185.015625 
L 526.773772 185.015625 
L 531.043507 185.015625 
L 535.313242 185.015625 
L 539.582976 185.015625 
L 543.852711 185.015625 
L 548.122446 185.015625 
L 552.392181 185.015625 
L 556.661916 185.015625 
L 560.931651 185.015625 
L 565.201386 185.015625 
L 569.471121 185.015625 
L 573.740856 185.015625 
L 578.010591 185.015625 
L 582.280326 185.015625 
L 586.550061 185.015625 
L 590.819796 185.015625 
L 595.089531 185.015625 
L 599.359266 185.015625 
L 603.629001 185.015625 
L 607.898736 185.015625 
L 612.168471 185.015625 
L 616.438205 185.015625 
L 620.70794 185.015625 
L 624.977675 185.015625 
L 629.24741 185.015625 
L 633.517145 185.015625 
L 637.78688 185.015625 
L 642.056615 185.015625 
L 646.32635 185.015625 
L 650.596085 185.015625 
L 654.86582 185.015625 
L 659.135555 185.015625 
L 663.40529 185.015625 
L 667.675025 185.015625 
L 671.94476 185.015625 
L 676.214495 185.015625 
L 680.48423 185.015625 
L 684.753965 185.015625 
L 689.0237 185.015625 
L 693.293434 185.015625 
L 697.563169 185.015625 
L 701.832904 185.015625 
L 706.102639 185.015625 
L 710.372374 185.015625 
L 714.642109 185.015625 
L 718.911844 185.015625 
L 723.181579 185.015625 
L 727.451314 185.015625 
L 731.721049 185.015625 
L 735.990784 185.015625 
L 740.260519 185.015625 
L 744.530254 185.015625 
L 748.799989 185.015625 
L 753.069724 185.015625 
L 757.339459 185.015625 
L 761.609194 185.015625 
L 765.878929 185.015625 
L 770.148663 185.015625 
L 774.418398 185.015625 
L 778.688133 185.015625 
L 782.957868 185.015625 
L 787.227603 185.015625 
L 791.497338 185.015625 
L 795.767073 185.015625 
L 800.036808 185.015625 
L 804.306543 185.015625 
L 808.576278 185.015625 
L 812.846013 185.015625 
L 817.115748 185.015625 
L 821.385483 185.015625 
L 825.655218 185.015625 
L 829.924953 185.015625 
L 834.194688 185.015625 
L 838.464423 185.015625 
L 842.734158 185.015625 
L 847.003892 185.015625 
L 851.273627 185.015625 
L 855.543362 185.015625 
L 859.813097 185.015625 
L 864.082832 185.015625 
L 868.352567 185.015625 
L 872.622302 185.015625 
L 876.892037 185.015625 
L 881.161772 185.015625 
L 885.431507 185.015625 
L 889.701242 185.015625 
L 893.970977 185.015625 
L 898.240712 185.015625 
L 902.510447 185.015625 
L 906.780182 185.015625 
L 911.049917 185.015625 
L 915.319652 185.015625 
L 919.589387 185.015625 
L 923.859121 185.015625 
L 923.859121 185.015301 
L 923.859121 185.015301 
L 919.589387 185.01292 
L 915.319652 185.00408 
L 911.049917 184.990452 
L 906.780182 184.987587 
L 902.510447 184.999671 
L 898.240712 185.010988 
L 893.970977 185.014936 
L 889.701242 185.015573 
L 885.431507 185.015623 
L 881.161772 185.015625 
L 876.892037 185.015625 
L 872.622302 185.015625 
L 868.352567 185.015625 
L 864.082832 185.015625 
L 859.813097 185.015625 
L 855.543362 185.015625 
L 851.273627 185.015625 
L 847.003892 185.015625 
L 842.734158 185.015625 
L 838.464423 185.015625 
L 834.194688 185.015625 
L 829.924953 185.015625 
L 825.655218 185.015625 
L 821.385483 185.015625 
L 817.115748 185.015625 
L 812.846013 185.015625 
L 808.576278 185.015625 
L 804.306543 185.015625 
L 800.036808 185.015625 
L 795.767073 185.015625 
L 791.497338 185.015625 
L 787.227603 185.015625 
L 782.957868 185.015625 
L 778.688133 185.015625 
L 774.418398 185.015625 
L 770.148663 185.015625 
L 765.878929 185.015625 
L 761.609194 185.015625 
L 757.339459 185.015625 
L 753.069724 185.015625 
L 748.799989 185.015625 
L 744.530254 185.015625 
L 740.260519 185.015625 
L 735.990784 185.015625 
L 731.721049 185.015625 
L 727.451314 185.015625 
L 723.181579 185.015625 
L 718.911844 185.015625 
L 714.642109 185.015625 
L 710.372374 185.015625 
L 706.102639 185.015625 
L 701.832904 185.015625 
L 697.563169 185.015625 
L 693.293434 185.015625 
L 689.0237 185.015625 
L 684.753965 185.015625 
L 680.48423 185.015625 
L 676.214495 185.015625 
L 671.94476 185.015625 
L 667.675025 185.015625 
L 663.40529 185.015625 
L 659.135555 185.015625 
L 654.86582 185.015625 
L 650.596085 185.015625 
L 646.32635 185.015625 
L 642.056615 185.015625 
L 637.78688 185.015625 
L 633.517145 185.015625 
L 629.24741 185.015625 
L 624.977675 185.015625 
L 620.70794 185.015625 
L 616.438205 185.015625 
L 612.168471 185.015625 
L 607.898736 185.015625 
L 603.629001 185.015625 
L 599.359266 185.015625 
L 595.089531 185.015625 
L 590.819796 185.015625 
L 586.550061 185.015624 
L 582.280326 185.015604 
L 578.010591 185.01528 
L 573.740856 185.012793 
L 569.471121 185.003746 
L 565.201386 184.990169 
L 560.931651 184.987757 
L 556.661916 185.00004 
L 552.392181 185.011173 
L 548.122446 185.014975 
L 543.852711 185.015577 
L 539.582976 185.015623 
L 535.313242 185.015625 
L 531.043507 185.015625 
L 526.773772 185.015625 
L 522.504037 185.015625 
L 518.234302 185.015625 
L 513.964567 185.015625 
L 509.694832 185.015625 
L 505.425097 185.015625 
L 501.155362 185.015625 
L 496.885627 185.015623 
L 492.615892 185.01558 
L 488.346157 185.015009 
L 484.076422 185.011335 
L 479.806687 185.000371 
L 475.536952 184.987921 
L 471.267217 184.98992 
L 466.997482 185.003441 
L 462.727748 185.012675 
L 458.458013 185.01526 
L 454.188278 185.015602 
L 449.918543 185.015624 
L 445.648808 185.015625 
L 441.379073 185.015625 
L 437.109338 185.015625 
L 432.839603 185.015625 
L 428.569868 185.015625 
L 424.300133 185.015625 
L 420.030398 185.015625 
L 415.760663 185.015625 
L 411.490928 185.015625 
L 407.221193 185.015625 
L 402.951458 185.015625 
L 398.681723 185.015625 
L 394.411988 185.015625 
L 390.142253 185.015625 
L 385.872519 185.015625 
L 381.602784 185.015625 
L 377.333049 185.015625 
L 373.063314 185.015624 
L 368.793579 185.015591 
L 364.523844 185.015131 
L 360.254109 185.011956 
L 355.984374 185.001716 
L 351.714639 184.988686 
L 347.444904 184.988952 
L 343.175169 185.001829 
L 338.905434 185.009436 
L 334.635699 185.003606 
L 330.365964 184.990409 
L 326.096229 184.987593 
L 321.826494 184.999688 
L 317.556759 185.010996 
L 313.287024 185.014938 
L 309.01729 185.015572 
L 304.747555 185.015596 
L 300.47782 185.015216 
L 296.208085 185.012423 
L 291.93835 185.002812 
L 287.668615 184.989436 
L 283.39888 184.988281 
L 279.129145 185.001039 
L 274.85941 185.011646 
L 270.589675 185.014968 
L 266.31994 185.014357 
L 262.050205 185.007903 
L 257.78047 184.989446 
L 253.510735 184.966608 
L 249.241 184.964069 
L 244.971265 184.985068 
L 240.70153 185.004951 
L 236.431795 185.008973 
L 232.162061 184.995566 
L 227.892326 184.965714 
L 223.622591 184.930927 
L 219.352856 184.918767 
L 215.083121 184.9452 
L 210.813386 184.969989 
L 206.543651 184.942383 
L 202.273916 184.869184 
L 198.004181 184.801483 
L 193.734446 184.780194 
L 189.464711 184.788734 
L 185.194976 184.773147 
L 180.925241 184.747743 
L 176.655506 184.745274 
L 172.385771 184.74653 
L 168.116036 184.722133 
L 163.846301 184.660312 
L 159.576566 184.591688 
L 155.306832 184.517408 
L 151.037097 184.341308 
L 146.767362 184.075904 
L 142.497627 183.93771 
L 138.227892 183.9439 
L 133.958157 183.944758 
L 129.688422 183.965326 
L 125.418687 184.041979 
L 121.148952 184.048329 
L 116.879217 183.923603 
L 112.609482 183.686269 
L 108.339747 182.983554 
L 104.070012 179.785144 
L 99.800277 166.985823 
L 95.530542 138.262663 
L 91.260807 114.578835 
L 86.991072 127.839261 
L 82.721338 160.631835 
L 78.451603 179.610948 
L 74.181868 184.396485 
z
" clip-path="url(#p2c36a86f29)" style="fill: #7570b3; fill-opacity: 0.25; stroke: #7570b3; stroke-width: 1.5"/>
   </g>
   <g id="matplotlib.axis_1">
    <g id="xtick_1">
     <g id="line2d_1">
      <defs>
       <path id="mab2fc43f2a" d="M 0 0 
L 0 3.5 
" style="stroke: #000000; stroke-width: 0.8"/>
      </defs>
      <g>
       <use xlink:href="#mab2fc43f2a" x="34.01125" y="185.015625" style="stroke: #000000; stroke-width: 0.8"/>
      </g>
     </g>
     <g id="text_1">
      <!-- 0 -->
      <g transform="translate(31.786875 199.841875)scale(0.08 -0.08)">
       <defs>
        <path id="ArialMT-30" d="M 266 2259 
Q 266 3072 433 3567 
Q 600 4063 929 4331 
Q 1259 4600 1759 4600 
Q 2128 4600 2406 4451 
Q 2684 4303 2865 4023 
Q 3047 3744 3150 3342 
Q 3253 2941 3253 2259 
Q 3253 1453 3087 958 
Q 2922 463 2592 192 
Q 2263 -78 1759 -78 
Q 1097 -78 719 397 
Q 266 969 266 2259 
z
M 844 2259 
Q 844 1131 1108 757 
Q 1372 384 1759 384 
Q 2147 384 2411 759 
Q 2675 1134 2675 2259 
Q 2675 3391 2411 3762 
Q 2147 4134 1753 4134 
Q 1366 4134 1134 3806 
Q 844 3388 844 2259 
z
" transform="scale(0.015625)"/>
       </defs>
       <use xlink:href="#ArialMT-30"/>
      </g>
     </g>
    </g>
    <g id="xtick_2">
     <g id="line2d_2">
      <g>
       <use xlink:href="#mab2fc43f2a" x="89.81125" y="185.015625" style="stroke: #000000; stroke-width: 0.8"/>
      </g>
     </g>
     <g id="text_2">
      <!-- 1 -->
      <g transform="translate(87.586875 199.841875)scale(0.08 -0.08)">
       <defs>
        <path id="ArialMT-31" d="M 2384 0 
L 1822 0 
L 1822 3584 
Q 1619 3391 1289 3197 
Q 959 3003 697 2906 
L 697 3450 
Q 1169 3672 1522 3987 
Q 1875 4303 2022 4600 
L 2384 4600 
L 2384 0 
z
" transform="scale(0.015625)"/>
       </defs>
       <use xlink:href="#ArialMT-31"/>
      </g>
     </g>
    </g>
    <g id="xtick_3">
     <g id="line2d_3">
      <g>
       <use xlink:href="#mab2fc43f2a" x="145.61125" y="185.015625" style="stroke: #000000; stroke-width: 0.8"/>
      </g>
     </g>
     <g id="text_3">
      <!-- 2 -->
      <g transform="translate(143.386875 199.841875)scale(0.08 -0.08)">
       <defs>
        <path id="ArialMT-32" d="M 3222 541 
L 3222 0 
L 194 0 
Q 188 203 259 391 
Q 375 700 629 1000 
Q 884 1300 1366 1694 
Q 2113 2306 2375 2664 
Q 2638 3022 2638 3341 
Q 2638 3675 2398 3904 
Q 2159 4134 1775 4134 
Q 1369 4134 1125 3890 
Q 881 3647 878 3216 
L 300 3275 
Q 359 3922 746 4261 
Q 1134 4600 1788 4600 
Q 2447 4600 2831 4234 
Q 3216 3869 3216 3328 
Q 3216 3053 3103 2787 
Q 2991 2522 2730 2228 
Q 2469 1934 1863 1422 
Q 1356 997 1212 845 
Q 1069 694 975 541 
L 3222 541 
z
" transform="scale(0.015625)"/>
       </defs>
       <use xlink:href="#ArialMT-32"/>
      </g>
     </g>
    </g>
    <g id="xtick_4">
     <g id="line2d_4">
      <g>
       <use xlink:href="#mab2fc43f2a" x="201.41125" y="185.015625" style="stroke: #000000; stroke-width: 0.8"/>
      </g>
     </g>
     <g id="text_4">
      <!-- 3 -->
      <g transform="translate(199.186875 199.841875)scale(0.08 -0.08)">
       <defs>
        <path id="ArialMT-33" d="M 269 1209 
L 831 1284 
Q 928 806 1161 595 
Q 1394 384 1728 384 
Q 2125 384 2398 659 
Q 2672 934 2672 1341 
Q 2672 1728 2419 1979 
Q 2166 2231 1775 2231 
Q 1616 2231 1378 2169 
L 1441 2663 
Q 1497 2656 1531 2656 
Q 1891 2656 2178 2843 
Q 2466 3031 2466 3422 
Q 2466 3731 2256 3934 
Q 2047 4138 1716 4138 
Q 1388 4138 1169 3931 
Q 950 3725 888 3313 
L 325 3413 
Q 428 3978 793 4289 
Q 1159 4600 1703 4600 
Q 2078 4600 2393 4439 
Q 2709 4278 2876 4000 
Q 3044 3722 3044 3409 
Q 3044 3113 2884 2869 
Q 2725 2625 2413 2481 
Q 2819 2388 3044 2092 
Q 3269 1797 3269 1353 
Q 3269 753 2831 336 
Q 2394 -81 1725 -81 
Q 1122 -81 723 278 
Q 325 638 269 1209 
z
" transform="scale(0.015625)"/>
       </defs>
       <use xlink:href="#ArialMT-33"/>
      </g>
     </g>
    </g>
    <g id="xtick_5">
     <g id="line2d_5">
      <g>
       <use xlink:href="#mab2fc43f2a" x="257.21125" y="185.015625" style="stroke: #000000; stroke-width: 0.8"/>
      </g>
     </g>
     <g id="text_5">
      <!-- 4 -->
      <g transform="translate(254.986875 199.841875)scale(0.08 -0.08)">
       <defs>
        <path id="ArialMT-34" d="M 2069 0 
L 2069 1097 
L 81 1097 
L 81 1613 
L 2172 4581 
L 2631 4581 
L 2631 1613 
L 3250 1613 
L 3250 1097 
L 2631 1097 
L 2631 0 
L 2069 0 
z
M 2069 1613 
L 2069 3678 
L 634 1613 
L 2069 1613 
z
" transform="scale(0.015625)"/>
       </defs>
       <use xlink:href="#ArialMT-34"/>
      </g>
     </g>
    </g>
    <g id="xtick_6">
     <g id="line2d_6">
      <g>
       <use xlink:href="#mab2fc43f2a" x="313.01125" y="185.015625" style="stroke: #000000; stroke-width: 0.8"/>
      </g>
     </g>
     <g id="text_6">
      <!-- 5 -->
      <g transform="translate(310.786875 199.841875)scale(0.08 -0.08)">
       <defs>
        <path id="ArialMT-35" d="M 266 1200 
L 856 1250 
Q 922 819 1161 601 
Q 1400 384 1738 384 
Q 2144 384 2425 690 
Q 2706 997 2706 1503 
Q 2706 1984 2436 2262 
Q 2166 2541 1728 2541 
Q 1456 2541 1237 2417 
Q 1019 2294 894 2097 
L 366 2166 
L 809 4519 
L 3088 4519 
L 3088 3981 
L 1259 3981 
L 1013 2750 
Q 1425 3038 1878 3038 
Q 2478 3038 2890 2622 
Q 3303 2206 3303 1553 
Q 3303 931 2941 478 
Q 2500 -78 1738 -78 
Q 1113 -78 717 272 
Q 322 622 266 1200 
z
" transform="scale(0.015625)"/>
       </defs>
       <use xlink:href="#ArialMT-35"/>
      </g>
     </g>
    </g>
    <g id="text_7">
     <!-- Mean gene copy number -->
     <g transform="translate(114.8925 212.589687)scale(0.1 -0.1)">
      <defs>
       <path id="Arial-BoldMT-4d" d="M 453 0 
L 453 4581 
L 1838 4581 
L 2669 1456 
L 3491 4581 
L 4878 4581 
L 4878 0 
L 4019 0 
L 4019 3606 
L 3109 0 
L 2219 0 
L 1313 3606 
L 1313 0 
L 453 0 
z
" transform="scale(0.015625)"/>
       <path id="Arial-BoldMT-65" d="M 2381 1056 
L 3256 909 
Q 3088 428 2723 176 
Q 2359 -75 1813 -75 
Q 947 -75 531 491 
Q 203 944 203 1634 
Q 203 2459 634 2926 
Q 1066 3394 1725 3394 
Q 2466 3394 2894 2905 
Q 3322 2416 3303 1406 
L 1103 1406 
Q 1113 1016 1316 798 
Q 1519 581 1822 581 
Q 2028 581 2168 693 
Q 2309 806 2381 1056 
z
M 2431 1944 
Q 2422 2325 2234 2523 
Q 2047 2722 1778 2722 
Q 1491 2722 1303 2513 
Q 1116 2303 1119 1944 
L 2431 1944 
z
" transform="scale(0.015625)"/>
       <path id="Arial-BoldMT-61" d="M 1116 2306 
L 319 2450 
Q 453 2931 781 3162 
Q 1109 3394 1756 3394 
Q 2344 3394 2631 3255 
Q 2919 3116 3036 2902 
Q 3153 2688 3153 2116 
L 3144 1091 
Q 3144 653 3186 445 
Q 3228 238 3344 0 
L 2475 0 
Q 2441 88 2391 259 
Q 2369 338 2359 363 
Q 2134 144 1878 34 
Q 1622 -75 1331 -75 
Q 819 -75 523 203 
Q 228 481 228 906 
Q 228 1188 362 1408 
Q 497 1628 739 1745 
Q 981 1863 1438 1950 
Q 2053 2066 2291 2166 
L 2291 2253 
Q 2291 2506 2166 2614 
Q 2041 2722 1694 2722 
Q 1459 2722 1328 2630 
Q 1197 2538 1116 2306 
z
M 2291 1594 
Q 2122 1538 1756 1459 
Q 1391 1381 1278 1306 
Q 1106 1184 1106 997 
Q 1106 813 1243 678 
Q 1381 544 1594 544 
Q 1831 544 2047 700 
Q 2206 819 2256 991 
Q 2291 1103 2291 1419 
L 2291 1594 
z
" transform="scale(0.015625)"/>
       <path id="Arial-BoldMT-6e" d="M 3478 0 
L 2600 0 
L 2600 1694 
Q 2600 2231 2544 2389 
Q 2488 2547 2361 2634 
Q 2234 2722 2056 2722 
Q 1828 2722 1647 2597 
Q 1466 2472 1398 2265 
Q 1331 2059 1331 1503 
L 1331 0 
L 453 0 
L 453 3319 
L 1269 3319 
L 1269 2831 
Q 1703 3394 2363 3394 
Q 2653 3394 2893 3289 
Q 3134 3184 3257 3021 
Q 3381 2859 3429 2653 
Q 3478 2447 3478 2063 
L 3478 0 
z
" transform="scale(0.015625)"/>
       <path id="Arial-BoldMT-20" transform="scale(0.015625)"/>
       <path id="Arial-BoldMT-67" d="M 378 -219 
L 1381 -341 
Q 1406 -516 1497 -581 
Q 1622 -675 1891 -675 
Q 2234 -675 2406 -572 
Q 2522 -503 2581 -350 
Q 2622 -241 2622 53 
L 2622 538 
Q 2228 0 1628 0 
Q 959 0 569 566 
Q 263 1013 263 1678 
Q 263 2513 664 2953 
Q 1066 3394 1663 3394 
Q 2278 3394 2678 2853 
L 2678 3319 
L 3500 3319 
L 3500 341 
Q 3500 -247 3403 -537 
Q 3306 -828 3131 -993 
Q 2956 -1159 2664 -1253 
Q 2372 -1347 1925 -1347 
Q 1081 -1347 728 -1058 
Q 375 -769 375 -325 
Q 375 -281 378 -219 
z
M 1163 1728 
Q 1163 1200 1367 954 
Q 1572 709 1872 709 
Q 2194 709 2416 961 
Q 2638 1213 2638 1706 
Q 2638 2222 2425 2472 
Q 2213 2722 1888 2722 
Q 1572 2722 1367 2476 
Q 1163 2231 1163 1728 
z
" transform="scale(0.015625)"/>
       <path id="Arial-BoldMT-63" d="M 3353 2338 
L 2488 2181 
Q 2444 2441 2289 2572 
Q 2134 2703 1888 2703 
Q 1559 2703 1364 2476 
Q 1169 2250 1169 1719 
Q 1169 1128 1367 884 
Q 1566 641 1900 641 
Q 2150 641 2309 783 
Q 2469 925 2534 1272 
L 3397 1125 
Q 3263 531 2881 228 
Q 2500 -75 1859 -75 
Q 1131 -75 698 384 
Q 266 844 266 1656 
Q 266 2478 700 2936 
Q 1134 3394 1875 3394 
Q 2481 3394 2839 3133 
Q 3197 2872 3353 2338 
z
" transform="scale(0.015625)"/>
       <path id="Arial-BoldMT-6f" d="M 256 1706 
Q 256 2144 472 2553 
Q 688 2963 1083 3178 
Q 1478 3394 1966 3394 
Q 2719 3394 3200 2905 
Q 3681 2416 3681 1669 
Q 3681 916 3195 420 
Q 2709 -75 1972 -75 
Q 1516 -75 1102 131 
Q 688 338 472 736 
Q 256 1134 256 1706 
z
M 1156 1659 
Q 1156 1166 1390 903 
Q 1625 641 1969 641 
Q 2313 641 2545 903 
Q 2778 1166 2778 1666 
Q 2778 2153 2545 2415 
Q 2313 2678 1969 2678 
Q 1625 2678 1390 2415 
Q 1156 2153 1156 1659 
z
" transform="scale(0.015625)"/>
       <path id="Arial-BoldMT-70" d="M 434 3319 
L 1253 3319 
L 1253 2831 
Q 1413 3081 1684 3237 
Q 1956 3394 2288 3394 
Q 2866 3394 3269 2941 
Q 3672 2488 3672 1678 
Q 3672 847 3265 386 
Q 2859 -75 2281 -75 
Q 2006 -75 1782 34 
Q 1559 144 1313 409 
L 1313 -1263 
L 434 -1263 
L 434 3319 
z
M 1303 1716 
Q 1303 1156 1525 889 
Q 1747 622 2066 622 
Q 2372 622 2575 867 
Q 2778 1113 2778 1672 
Q 2778 2194 2568 2447 
Q 2359 2700 2050 2700 
Q 1728 2700 1515 2451 
Q 1303 2203 1303 1716 
z
" transform="scale(0.015625)"/>
       <path id="Arial-BoldMT-79" d="M 44 3319 
L 978 3319 
L 1772 963 
L 2547 3319 
L 3456 3319 
L 2284 125 
L 2075 -453 
Q 1959 -744 1854 -897 
Q 1750 -1050 1614 -1145 
Q 1478 -1241 1279 -1294 
Q 1081 -1347 831 -1347 
Q 578 -1347 334 -1294 
L 256 -606 
Q 463 -647 628 -647 
Q 934 -647 1081 -467 
Q 1228 -288 1306 -9 
L 44 3319 
z
" transform="scale(0.015625)"/>
       <path id="Arial-BoldMT-75" d="M 2644 0 
L 2644 497 
Q 2463 231 2167 78 
Q 1872 -75 1544 -75 
Q 1209 -75 943 72 
Q 678 219 559 484 
Q 441 750 441 1219 
L 441 3319 
L 1319 3319 
L 1319 1794 
Q 1319 1094 1367 936 
Q 1416 778 1544 686 
Q 1672 594 1869 594 
Q 2094 594 2272 717 
Q 2450 841 2515 1023 
Q 2581 1206 2581 1919 
L 2581 3319 
L 3459 3319 
L 3459 0 
L 2644 0 
z
" transform="scale(0.015625)"/>
       <path id="Arial-BoldMT-6d" d="M 394 3319 
L 1203 3319 
L 1203 2866 
Q 1638 3394 2238 3394 
Q 2556 3394 2790 3262 
Q 3025 3131 3175 2866 
Q 3394 3131 3647 3262 
Q 3900 3394 4188 3394 
Q 4553 3394 4806 3245 
Q 5059 3097 5184 2809 
Q 5275 2597 5275 2122 
L 5275 0 
L 4397 0 
L 4397 1897 
Q 4397 2391 4306 2534 
Q 4184 2722 3931 2722 
Q 3747 2722 3584 2609 
Q 3422 2497 3350 2280 
Q 3278 2063 3278 1594 
L 3278 0 
L 2400 0 
L 2400 1819 
Q 2400 2303 2353 2443 
Q 2306 2584 2207 2653 
Q 2109 2722 1941 2722 
Q 1738 2722 1575 2612 
Q 1413 2503 1342 2297 
Q 1272 2091 1272 1613 
L 1272 0 
L 394 0 
L 394 3319 
z
" transform="scale(0.015625)"/>
       <path id="Arial-BoldMT-62" d="M 422 0 
L 422 4581 
L 1300 4581 
L 1300 2931 
Q 1706 3394 2263 3394 
Q 2869 3394 3266 2955 
Q 3663 2516 3663 1694 
Q 3663 844 3258 384 
Q 2853 -75 2275 -75 
Q 1991 -75 1714 67 
Q 1438 209 1238 488 
L 1238 0 
L 422 0 
z
M 1294 1731 
Q 1294 1216 1456 969 
Q 1684 619 2063 619 
Q 2353 619 2558 867 
Q 2763 1116 2763 1650 
Q 2763 2219 2556 2470 
Q 2350 2722 2028 2722 
Q 1713 2722 1503 2476 
Q 1294 2231 1294 1731 
z
" transform="scale(0.015625)"/>
       <path id="Arial-BoldMT-72" d="M 1300 0 
L 422 0 
L 422 3319 
L 1238 3319 
L 1238 2847 
Q 1447 3181 1614 3287 
Q 1781 3394 1994 3394 
Q 2294 3394 2572 3228 
L 2300 2463 
Q 2078 2606 1888 2606 
Q 1703 2606 1575 2504 
Q 1447 2403 1373 2137 
Q 1300 1872 1300 1025 
L 1300 0 
z
" transform="scale(0.015625)"/>
      </defs>
      <use xlink:href="#Arial-BoldMT-4d"/>
      <use xlink:href="#Arial-BoldMT-65" x="83.300781"/>
      <use xlink:href="#Arial-BoldMT-61" x="138.916016"/>
      <use xlink:href="#Arial-BoldMT-6e" x="194.53125"/>
      <use xlink:href="#Arial-BoldMT-20" x="255.615234"/>
      <use xlink:href="#Arial-BoldMT-67" x="283.398438"/>
      <use xlink:href="#Arial-BoldMT-65" x="344.482422"/>
      <use xlink:href="#Arial-BoldMT-6e" x="400.097656"/>
      <use xlink:href="#Arial-BoldMT-65" x="461.181641"/>
      <use xlink:href="#Arial-BoldMT-20" x="516.796875"/>
      <use xlink:href="#Arial-BoldMT-63" x="544.580078"/>
      <use xlink:href="#Arial-BoldMT-6f" x="600.195312"/>
      <use xlink:href="#Arial-BoldMT-70" x="661.279297"/>
      <use xlink:href="#Arial-BoldMT-79" x="722.363281"/>
      <use xlink:href="#Arial-BoldMT-20" x="777.978516"/>
      <use xlink:href="#Arial-BoldMT-6e" x="805.761719"/>
      <use xlink:href="#Arial-BoldMT-75" x="866.845703"/>
      <use xlink:href="#Arial-BoldMT-6d" x="927.929688"/>
      <use xlink:href="#Arial-BoldMT-62" x="1016.845703"/>
      <use xlink:href="#Arial-BoldMT-65" x="1077.929688"/>
      <use xlink:href="#Arial-BoldMT-72" x="1133.544922"/>
     </g>
    </g>
   </g>
   <g id="matplotlib.axis_2">
    <g id="ytick_1">
     <g id="line2d_7">
      <defs>
       <path id="ma5be95984e" d="M 0 0 
L -3.5 0 
" style="stroke: #000000; stroke-width: 0.8"/>
      </defs>
      <g>
       <use xlink:href="#ma5be95984e" x="34.01125" y="185.015625" style="stroke: #000000; stroke-width: 0.8"/>
      </g>
     </g>
     <g id="text_8">
      <!-- 0 -->
      <g transform="translate(20.4625 187.87875)scale(0.08 -0.08)">
       <use xlink:href="#ArialMT-30"/>
      </g>
     </g>
    </g>
    <g id="ytick_2">
     <g id="line2d_8">
      <g>
       <use xlink:href="#ma5be95984e" x="34.01125" y="166.272106" style="stroke: #000000; stroke-width: 0.8"/>
      </g>
     </g>
     <g id="text_9">
      <!-- 1 -->
      <g transform="translate(20.4625 169.135231)scale(0.08 -0.08)">
       <use xlink:href="#ArialMT-31"/>
      </g>
     </g>
    </g>
    <g id="ytick_3">
     <g id="line2d_9">
      <g>
       <use xlink:href="#ma5be95984e" x="34.01125" y="147.528587" style="stroke: #000000; stroke-width: 0.8"/>
      </g>
     </g>
     <g id="text_10">
      <!-- 2 -->
      <g transform="translate(20.4625 150.391712)scale(0.08 -0.08)">
       <use xlink:href="#ArialMT-32"/>
      </g>
     </g>
    </g>
    <g id="ytick_4">
     <g id="line2d_10">
      <g>
       <use xlink:href="#ma5be95984e" x="34.01125" y="128.785068" style="stroke: #000000; stroke-width: 0.8"/>
      </g>
     </g>
     <g id="text_11">
      <!-- 3 -->
      <g transform="translate(20.4625 131.648193)scale(0.08 -0.08)">
       <use xlink:href="#ArialMT-33"/>
      </g>
     </g>
    </g>
    <g id="ytick_5">
     <g id="line2d_11">
      <g>
       <use xlink:href="#ma5be95984e" x="34.01125" y="110.041549" style="stroke: #000000; stroke-width: 0.8"/>
      </g>
     </g>
     <g id="text_12">
      <!-- 4 -->
      <g transform="translate(20.4625 112.904674)scale(0.08 -0.08)">
       <use xlink:href="#ArialMT-34"/>
      </g>
     </g>
    </g>
    <g id="ytick_6">
     <g id="line2d_12">
      <g>
       <use xlink:href="#ma5be95984e" x="34.01125" y="91.298031" style="stroke: #000000; stroke-width: 0.8"/>
      </g>
     </g>
     <g id="text_13">
      <!-- 5 -->
      <g transform="translate(20.4625 94.161156)scale(0.08 -0.08)">
       <use xlink:href="#ArialMT-35"/>
      </g>
     </g>
    </g>
    <g id="ytick_7">
     <g id="line2d_13">
      <g>
       <use xlink:href="#ma5be95984e" x="34.01125" y="72.554512" style="stroke: #000000; stroke-width: 0.8"/>
      </g>
     </g>
     <g id="text_14">
      <!-- 6 -->
      <g transform="translate(20.4625 75.417637)scale(0.08 -0.08)">
       <defs>
        <path id="ArialMT-36" d="M 3184 3459 
L 2625 3416 
Q 2550 3747 2413 3897 
Q 2184 4138 1850 4138 
Q 1581 4138 1378 3988 
Q 1113 3794 959 3422 
Q 806 3050 800 2363 
Q 1003 2672 1297 2822 
Q 1591 2972 1913 2972 
Q 2475 2972 2870 2558 
Q 3266 2144 3266 1488 
Q 3266 1056 3080 686 
Q 2894 316 2569 119 
Q 2244 -78 1831 -78 
Q 1128 -78 684 439 
Q 241 956 241 2144 
Q 241 3472 731 4075 
Q 1159 4600 1884 4600 
Q 2425 4600 2770 4297 
Q 3116 3994 3184 3459 
z
M 888 1484 
Q 888 1194 1011 928 
Q 1134 663 1356 523 
Q 1578 384 1822 384 
Q 2178 384 2434 671 
Q 2691 959 2691 1453 
Q 2691 1928 2437 2201 
Q 2184 2475 1800 2475 
Q 1419 2475 1153 2201 
Q 888 1928 888 1484 
z
" transform="scale(0.015625)"/>
       </defs>
       <use xlink:href="#ArialMT-36"/>
      </g>
     </g>
    </g>
    <g id="ytick_8">
     <g id="line2d_14">
      <g>
       <use xlink:href="#ma5be95984e" x="34.01125" y="53.810993" style="stroke: #000000; stroke-width: 0.8"/>
      </g>
     </g>
     <g id="text_15">
      <!-- 7 -->
      <g transform="translate(20.4625 56.674118)scale(0.08 -0.08)">
       <defs>
        <path id="ArialMT-37" d="M 303 3981 
L 303 4522 
L 3269 4522 
L 3269 4084 
Q 2831 3619 2401 2847 
Q 1972 2075 1738 1259 
Q 1569 684 1522 0 
L 944 0 
Q 953 541 1156 1306 
Q 1359 2072 1739 2783 
Q 2119 3494 2547 3981 
L 303 3981 
z
" transform="scale(0.015625)"/>
       </defs>
       <use xlink:href="#ArialMT-37"/>
      </g>
     </g>
    </g>
    <g id="ytick_9">
     <g id="line2d_15">
      <g>
       <use xlink:href="#ma5be95984e" x="34.01125" y="35.067474" style="stroke: #000000; stroke-width: 0.8"/>
      </g>
     </g>
     <g id="text_16">
      <!-- 8 -->
      <g transform="translate(20.4625 37.930599)scale(0.08 -0.08)">
       <defs>
        <path id="ArialMT-38" d="M 1131 2484 
Q 781 2613 612 2850 
Q 444 3088 444 3419 
Q 444 3919 803 4259 
Q 1163 4600 1759 4600 
Q 2359 4600 2725 4251 
Q 3091 3903 3091 3403 
Q 3091 3084 2923 2848 
Q 2756 2613 2416 2484 
Q 2838 2347 3058 2040 
Q 3278 1734 3278 1309 
Q 3278 722 2862 322 
Q 2447 -78 1769 -78 
Q 1091 -78 675 323 
Q 259 725 259 1325 
Q 259 1772 486 2073 
Q 713 2375 1131 2484 
z
M 1019 3438 
Q 1019 3113 1228 2906 
Q 1438 2700 1772 2700 
Q 2097 2700 2305 2904 
Q 2513 3109 2513 3406 
Q 2513 3716 2298 3927 
Q 2084 4138 1766 4138 
Q 1444 4138 1231 3931 
Q 1019 3725 1019 3438 
z
M 838 1322 
Q 838 1081 952 856 
Q 1066 631 1291 507 
Q 1516 384 1775 384 
Q 2178 384 2440 643 
Q 2703 903 2703 1303 
Q 2703 1709 2433 1975 
Q 2163 2241 1756 2241 
Q 1359 2241 1098 1978 
Q 838 1716 838 1322 
z
" transform="scale(0.015625)"/>
       </defs>
       <use xlink:href="#ArialMT-38"/>
      </g>
     </g>
    </g>
    <g id="text_17">
     <!-- Density -->
     <g transform="translate(14.357812 121.535781)rotate(-90)scale(0.1 -0.1)">
      <defs>
       <path id="Arial-BoldMT-44" d="M 463 4581 
L 2153 4581 
Q 2725 4581 3025 4494 
Q 3428 4375 3715 4072 
Q 4003 3769 4153 3330 
Q 4303 2891 4303 2247 
Q 4303 1681 4163 1272 
Q 3991 772 3672 463 
Q 3431 228 3022 97 
Q 2716 0 2203 0 
L 463 0 
L 463 4581 
z
M 1388 3806 
L 1388 772 
L 2078 772 
Q 2466 772 2638 816 
Q 2863 872 3011 1006 
Q 3159 1141 3253 1448 
Q 3347 1756 3347 2288 
Q 3347 2819 3253 3103 
Q 3159 3388 2990 3547 
Q 2822 3706 2563 3763 
Q 2369 3806 1803 3806 
L 1388 3806 
z
" transform="scale(0.015625)"/>
       <path id="Arial-BoldMT-73" d="M 150 947 
L 1031 1081 
Q 1088 825 1259 692 
Q 1431 559 1741 559 
Q 2081 559 2253 684 
Q 2369 772 2369 919 
Q 2369 1019 2306 1084 
Q 2241 1147 2013 1200 
Q 950 1434 666 1628 
Q 272 1897 272 2375 
Q 272 2806 612 3100 
Q 953 3394 1669 3394 
Q 2350 3394 2681 3172 
Q 3013 2950 3138 2516 
L 2309 2363 
Q 2256 2556 2107 2659 
Q 1959 2763 1684 2763 
Q 1338 2763 1188 2666 
Q 1088 2597 1088 2488 
Q 1088 2394 1175 2328 
Q 1294 2241 1995 2081 
Q 2697 1922 2975 1691 
Q 3250 1456 3250 1038 
Q 3250 581 2869 253 
Q 2488 -75 1741 -75 
Q 1063 -75 667 200 
Q 272 475 150 947 
z
" transform="scale(0.015625)"/>
       <path id="Arial-BoldMT-69" d="M 459 3769 
L 459 4581 
L 1338 4581 
L 1338 3769 
L 459 3769 
z
M 459 0 
L 459 3319 
L 1338 3319 
L 1338 0 
L 459 0 
z
" transform="scale(0.015625)"/>
       <path id="Arial-BoldMT-74" d="M 1981 3319 
L 1981 2619 
L 1381 2619 
L 1381 1281 
Q 1381 875 1398 808 
Q 1416 741 1477 697 
Q 1538 653 1625 653 
Q 1747 653 1978 738 
L 2053 56 
Q 1747 -75 1359 -75 
Q 1122 -75 931 4 
Q 741 84 652 211 
Q 563 338 528 553 
Q 500 706 500 1172 
L 500 2619 
L 97 2619 
L 97 3319 
L 500 3319 
L 500 3978 
L 1381 4491 
L 1381 3319 
L 1981 3319 
z
" transform="scale(0.015625)"/>
      </defs>
      <use xlink:href="#Arial-BoldMT-44"/>
      <use xlink:href="#Arial-BoldMT-65" x="72.216797"/>
      <use xlink:href="#Arial-BoldMT-6e" x="127.832031"/>
      <use xlink:href="#Arial-BoldMT-73" x="188.916016"/>
      <use xlink:href="#Arial-BoldMT-69" x="244.53125"/>
      <use xlink:href="#Arial-BoldMT-74" x="272.314453"/>
      <use xlink:href="#Arial-BoldMT-79" x="305.615234"/>
     </g>
    </g>
   </g>
   <g id="patch_3">
    <path d="M 34.01125 185.015625 
L 34.01125 21.935625 
" style="fill: none; stroke: #000000; stroke-linejoin: miter; stroke-linecap: square"/>
   </g>
   <g id="patch_4">
    <path d="M 313.01125 185.015625 
L 313.01125 21.935625 
" style="fill: none; stroke: #000000; stroke-linejoin: miter; stroke-linecap: square"/>
   </g>
   <g id="patch_5">
    <path d="M 34.01125 185.015625 
L 313.01125 185.015625 
" style="fill: none; stroke: #000000; stroke-linejoin: miter; stroke-linecap: square"/>
   </g>
   <g id="patch_6">
    <path d="M 34.01125 21.935625 
L 313.01125 21.935625 
" style="fill: none; stroke: #000000; stroke-linejoin: miter; stroke-linecap: square"/>
   </g>
   <g id="text_18">
    <!-- P_value(yeast core vs non yeast core):0.0008 -->
    <g style="fill: #ff0000" transform="translate(145.61125 87.167625)scale(0.08 -0.08)">
     <defs>
      <path id="ArialMT-50" d="M 494 0 
L 494 4581 
L 2222 4581 
Q 2678 4581 2919 4538 
Q 3256 4481 3484 4323 
Q 3713 4166 3852 3881 
Q 3991 3597 3991 3256 
Q 3991 2672 3619 2267 
Q 3247 1863 2275 1863 
L 1100 1863 
L 1100 0 
L 494 0 
z
M 1100 2403 
L 2284 2403 
Q 2872 2403 3119 2622 
Q 3366 2841 3366 3238 
Q 3366 3525 3220 3729 
Q 3075 3934 2838 4000 
Q 2684 4041 2272 4041 
L 1100 4041 
L 1100 2403 
z
" transform="scale(0.015625)"/>
      <path id="ArialMT-5f" d="M -97 -1272 
L -97 -866 
L 3631 -866 
L 3631 -1272 
L -97 -1272 
z
" transform="scale(0.015625)"/>
      <path id="ArialMT-76" d="M 1344 0 
L 81 3319 
L 675 3319 
L 1388 1331 
Q 1503 1009 1600 663 
Q 1675 925 1809 1294 
L 2547 3319 
L 3125 3319 
L 1869 0 
L 1344 0 
z
" transform="scale(0.015625)"/>
      <path id="ArialMT-61" d="M 2588 409 
Q 2275 144 1986 34 
Q 1697 -75 1366 -75 
Q 819 -75 525 192 
Q 231 459 231 875 
Q 231 1119 342 1320 
Q 453 1522 633 1644 
Q 813 1766 1038 1828 
Q 1203 1872 1538 1913 
Q 2219 1994 2541 2106 
Q 2544 2222 2544 2253 
Q 2544 2597 2384 2738 
Q 2169 2928 1744 2928 
Q 1347 2928 1158 2789 
Q 969 2650 878 2297 
L 328 2372 
Q 403 2725 575 2942 
Q 747 3159 1072 3276 
Q 1397 3394 1825 3394 
Q 2250 3394 2515 3294 
Q 2781 3194 2906 3042 
Q 3031 2891 3081 2659 
Q 3109 2516 3109 2141 
L 3109 1391 
Q 3109 606 3145 398 
Q 3181 191 3288 0 
L 2700 0 
Q 2613 175 2588 409 
z
M 2541 1666 
Q 2234 1541 1622 1453 
Q 1275 1403 1131 1340 
Q 988 1278 909 1158 
Q 831 1038 831 891 
Q 831 666 1001 516 
Q 1172 366 1500 366 
Q 1825 366 2078 508 
Q 2331 650 2450 897 
Q 2541 1088 2541 1459 
L 2541 1666 
z
" transform="scale(0.015625)"/>
      <path id="ArialMT-6c" d="M 409 0 
L 409 4581 
L 972 4581 
L 972 0 
L 409 0 
z
" transform="scale(0.015625)"/>
      <path id="ArialMT-75" d="M 2597 0 
L 2597 488 
Q 2209 -75 1544 -75 
Q 1250 -75 995 37 
Q 741 150 617 320 
Q 494 491 444 738 
Q 409 903 409 1263 
L 409 3319 
L 972 3319 
L 972 1478 
Q 972 1038 1006 884 
Q 1059 663 1231 536 
Q 1403 409 1656 409 
Q 1909 409 2131 539 
Q 2353 669 2445 892 
Q 2538 1116 2538 1541 
L 2538 3319 
L 3100 3319 
L 3100 0 
L 2597 0 
z
" transform="scale(0.015625)"/>
      <path id="ArialMT-65" d="M 2694 1069 
L 3275 997 
Q 3138 488 2766 206 
Q 2394 -75 1816 -75 
Q 1088 -75 661 373 
Q 234 822 234 1631 
Q 234 2469 665 2931 
Q 1097 3394 1784 3394 
Q 2450 3394 2872 2941 
Q 3294 2488 3294 1666 
Q 3294 1616 3291 1516 
L 816 1516 
Q 847 969 1125 678 
Q 1403 388 1819 388 
Q 2128 388 2347 550 
Q 2566 713 2694 1069 
z
M 847 1978 
L 2700 1978 
Q 2663 2397 2488 2606 
Q 2219 2931 1791 2931 
Q 1403 2931 1139 2672 
Q 875 2413 847 1978 
z
" transform="scale(0.015625)"/>
      <path id="ArialMT-28" d="M 1497 -1347 
Q 1031 -759 709 28 
Q 388 816 388 1659 
Q 388 2403 628 3084 
Q 909 3875 1497 4659 
L 1900 4659 
Q 1522 4009 1400 3731 
Q 1209 3300 1100 2831 
Q 966 2247 966 1656 
Q 966 153 1900 -1347 
L 1497 -1347 
z
" transform="scale(0.015625)"/>
      <path id="ArialMT-79" d="M 397 -1278 
L 334 -750 
Q 519 -800 656 -800 
Q 844 -800 956 -737 
Q 1069 -675 1141 -563 
Q 1194 -478 1313 -144 
Q 1328 -97 1363 -6 
L 103 3319 
L 709 3319 
L 1400 1397 
Q 1534 1031 1641 628 
Q 1738 1016 1872 1384 
L 2581 3319 
L 3144 3319 
L 1881 -56 
Q 1678 -603 1566 -809 
Q 1416 -1088 1222 -1217 
Q 1028 -1347 759 -1347 
Q 597 -1347 397 -1278 
z
" transform="scale(0.015625)"/>
      <path id="ArialMT-73" d="M 197 991 
L 753 1078 
Q 800 744 1014 566 
Q 1228 388 1613 388 
Q 2000 388 2187 545 
Q 2375 703 2375 916 
Q 2375 1106 2209 1216 
Q 2094 1291 1634 1406 
Q 1016 1563 777 1677 
Q 538 1791 414 1992 
Q 291 2194 291 2438 
Q 291 2659 392 2848 
Q 494 3038 669 3163 
Q 800 3259 1026 3326 
Q 1253 3394 1513 3394 
Q 1903 3394 2198 3281 
Q 2494 3169 2634 2976 
Q 2775 2784 2828 2463 
L 2278 2388 
Q 2241 2644 2061 2787 
Q 1881 2931 1553 2931 
Q 1166 2931 1000 2803 
Q 834 2675 834 2503 
Q 834 2394 903 2306 
Q 972 2216 1119 2156 
Q 1203 2125 1616 2013 
Q 2213 1853 2448 1751 
Q 2684 1650 2818 1456 
Q 2953 1263 2953 975 
Q 2953 694 2789 445 
Q 2625 197 2315 61 
Q 2006 -75 1616 -75 
Q 969 -75 630 194 
Q 291 463 197 991 
z
" transform="scale(0.015625)"/>
      <path id="ArialMT-74" d="M 1650 503 
L 1731 6 
Q 1494 -44 1306 -44 
Q 1000 -44 831 53 
Q 663 150 594 308 
Q 525 466 525 972 
L 525 2881 
L 113 2881 
L 113 3319 
L 525 3319 
L 525 4141 
L 1084 4478 
L 1084 3319 
L 1650 3319 
L 1650 2881 
L 1084 2881 
L 1084 941 
Q 1084 700 1114 631 
Q 1144 563 1211 522 
Q 1278 481 1403 481 
Q 1497 481 1650 503 
z
" transform="scale(0.015625)"/>
      <path id="ArialMT-20" transform="scale(0.015625)"/>
      <path id="ArialMT-63" d="M 2588 1216 
L 3141 1144 
Q 3050 572 2676 248 
Q 2303 -75 1759 -75 
Q 1078 -75 664 370 
Q 250 816 250 1647 
Q 250 2184 428 2587 
Q 606 2991 970 3192 
Q 1334 3394 1763 3394 
Q 2303 3394 2647 3120 
Q 2991 2847 3088 2344 
L 2541 2259 
Q 2463 2594 2264 2762 
Q 2066 2931 1784 2931 
Q 1359 2931 1093 2626 
Q 828 2322 828 1663 
Q 828 994 1084 691 
Q 1341 388 1753 388 
Q 2084 388 2306 591 
Q 2528 794 2588 1216 
z
" transform="scale(0.015625)"/>
      <path id="ArialMT-6f" d="M 213 1659 
Q 213 2581 725 3025 
Q 1153 3394 1769 3394 
Q 2453 3394 2887 2945 
Q 3322 2497 3322 1706 
Q 3322 1066 3130 698 
Q 2938 331 2570 128 
Q 2203 -75 1769 -75 
Q 1072 -75 642 372 
Q 213 819 213 1659 
z
M 791 1659 
Q 791 1022 1069 705 
Q 1347 388 1769 388 
Q 2188 388 2466 706 
Q 2744 1025 2744 1678 
Q 2744 2294 2464 2611 
Q 2184 2928 1769 2928 
Q 1347 2928 1069 2612 
Q 791 2297 791 1659 
z
" transform="scale(0.015625)"/>
      <path id="ArialMT-72" d="M 416 0 
L 416 3319 
L 922 3319 
L 922 2816 
Q 1116 3169 1280 3281 
Q 1444 3394 1641 3394 
Q 1925 3394 2219 3213 
L 2025 2691 
Q 1819 2813 1613 2813 
Q 1428 2813 1281 2702 
Q 1134 2591 1072 2394 
Q 978 2094 978 1738 
L 978 0 
L 416 0 
z
" transform="scale(0.015625)"/>
      <path id="ArialMT-6e" d="M 422 0 
L 422 3319 
L 928 3319 
L 928 2847 
Q 1294 3394 1984 3394 
Q 2284 3394 2536 3286 
Q 2788 3178 2913 3003 
Q 3038 2828 3088 2588 
Q 3119 2431 3119 2041 
L 3119 0 
L 2556 0 
L 2556 2019 
Q 2556 2363 2490 2533 
Q 2425 2703 2258 2804 
Q 2091 2906 1866 2906 
Q 1506 2906 1245 2678 
Q 984 2450 984 1813 
L 984 0 
L 422 0 
z
" transform="scale(0.015625)"/>
      <path id="ArialMT-29" d="M 791 -1347 
L 388 -1347 
Q 1322 153 1322 1656 
Q 1322 2244 1188 2822 
Q 1081 3291 891 3722 
Q 769 4003 388 4659 
L 791 4659 
Q 1378 3875 1659 3084 
Q 1900 2403 1900 1659 
Q 1900 816 1576 28 
Q 1253 -759 791 -1347 
z
" transform="scale(0.015625)"/>
      <path id="ArialMT-3a" d="M 578 2678 
L 578 3319 
L 1219 3319 
L 1219 2678 
L 578 2678 
z
M 578 0 
L 578 641 
L 1219 641 
L 1219 0 
L 578 0 
z
" transform="scale(0.015625)"/>
      <path id="ArialMT-2e" d="M 581 0 
L 581 641 
L 1222 641 
L 1222 0 
L 581 0 
z
" transform="scale(0.015625)"/>
     </defs>
     <use xlink:href="#ArialMT-50"/>
     <use xlink:href="#ArialMT-5f" x="66.699219"/>
     <use xlink:href="#ArialMT-76" x="122.314453"/>
     <use xlink:href="#ArialMT-61" x="172.314453"/>
     <use xlink:href="#ArialMT-6c" x="227.929688"/>
     <use xlink:href="#ArialMT-75" x="250.146484"/>
     <use xlink:href="#ArialMT-65" x="305.761719"/>
     <use xlink:href="#ArialMT-28" x="361.376953"/>
     <use xlink:href="#ArialMT-79" x="394.677734"/>
     <use xlink:href="#ArialMT-65" x="444.677734"/>
     <use xlink:href="#ArialMT-61" x="500.292969"/>
     <use xlink:href="#ArialMT-73" x="555.908203"/>
     <use xlink:href="#ArialMT-74" x="605.908203"/>
     <use xlink:href="#ArialMT-20" x="633.691406"/>
     <use xlink:href="#ArialMT-63" x="661.474609"/>
     <use xlink:href="#ArialMT-6f" x="711.474609"/>
     <use xlink:href="#ArialMT-72" x="767.089844"/>
     <use xlink:href="#ArialMT-65" x="800.390625"/>
     <use xlink:href="#ArialMT-20" x="856.005859"/>
     <use xlink:href="#ArialMT-76" x="883.789062"/>
     <use xlink:href="#ArialMT-73" x="933.789062"/>
     <use xlink:href="#ArialMT-20" x="983.789062"/>
     <use xlink:href="#ArialMT-6e" x="1011.572266"/>
     <use xlink:href="#ArialMT-6f" x="1067.1875"/>
     <use xlink:href="#ArialMT-6e" x="1122.802734"/>
     <use xlink:href="#ArialMT-20" x="1178.417969"/>
     <use xlink:href="#ArialMT-79" x="1206.201172"/>
     <use xlink:href="#ArialMT-65" x="1256.201172"/>
     <use xlink:href="#ArialMT-61" x="1311.816406"/>
     <use xlink:href="#ArialMT-73" x="1367.431641"/>
     <use xlink:href="#ArialMT-74" x="1417.431641"/>
     <use xlink:href="#ArialMT-20" x="1445.214844"/>
     <use xlink:href="#ArialMT-63" x="1472.998047"/>
     <use xlink:href="#ArialMT-6f" x="1522.998047"/>
     <use xlink:href="#ArialMT-72" x="1578.613281"/>
     <use xlink:href="#ArialMT-65" x="1611.914062"/>
     <use xlink:href="#ArialMT-29" x="1667.529297"/>
     <use xlink:href="#ArialMT-3a" x="1700.830078"/>
     <use xlink:href="#ArialMT-30" x="1728.613281"/>
     <use xlink:href="#ArialMT-2e" x="1784.228516"/>
     <use xlink:href="#ArialMT-30" x="1812.011719"/>
     <use xlink:href="#ArialMT-30" x="1867.626953"/>
     <use xlink:href="#ArialMT-30" x="1923.242188"/>
     <use xlink:href="#ArialMT-38" x="1978.857422"/>
    </g>
   </g>
   <g id="text_19">
    <!-- P_value(core vs accessory):3.1e-06 -->
    <g style="fill: #ff0000" transform="translate(145.61125 98.583225)scale(0.08 -0.08)">
     <defs>
      <path id="ArialMT-2d" d="M 203 1375 
L 203 1941 
L 1931 1941 
L 1931 1375 
L 203 1375 
z
" transform="scale(0.015625)"/>
     </defs>
     <use xlink:href="#ArialMT-50"/>
     <use xlink:href="#ArialMT-5f" x="66.699219"/>
     <use xlink:href="#ArialMT-76" x="122.314453"/>
     <use xlink:href="#ArialMT-61" x="172.314453"/>
     <use xlink:href="#ArialMT-6c" x="227.929688"/>
     <use xlink:href="#ArialMT-75" x="250.146484"/>
     <use xlink:href="#ArialMT-65" x="305.761719"/>
     <use xlink:href="#ArialMT-28" x="361.376953"/>
     <use xlink:href="#ArialMT-63" x="394.677734"/>
     <use xlink:href="#ArialMT-6f" x="444.677734"/>
     <use xlink:href="#ArialMT-72" x="500.292969"/>
     <use xlink:href="#ArialMT-65" x="533.59375"/>
     <use xlink:href="#ArialMT-20" x="589.208984"/>
     <use xlink:href="#ArialMT-76" x="616.992188"/>
     <use xlink:href="#ArialMT-73" x="666.992188"/>
     <use xlink:href="#ArialMT-20" x="716.992188"/>
     <use xlink:href="#ArialMT-61" x="744.775391"/>
     <use xlink:href="#ArialMT-63" x="800.390625"/>
     <use xlink:href="#ArialMT-63" x="850.390625"/>
     <use xlink:href="#ArialMT-65" x="900.390625"/>
     <use xlink:href="#ArialMT-73" x="956.005859"/>
     <use xlink:href="#ArialMT-73" x="1006.005859"/>
     <use xlink:href="#ArialMT-6f" x="1056.005859"/>
     <use xlink:href="#ArialMT-72" x="1111.621094"/>
     <use xlink:href="#ArialMT-79" x="1144.921875"/>
     <use xlink:href="#ArialMT-29" x="1194.921875"/>
     <use xlink:href="#ArialMT-3a" x="1228.222656"/>
     <use xlink:href="#ArialMT-33" x="1256.005859"/>
     <use xlink:href="#ArialMT-2e" x="1311.621094"/>
     <use xlink:href="#ArialMT-31" x="1339.404297"/>
     <use xlink:href="#ArialMT-65" x="1395.019531"/>
     <use xlink:href="#ArialMT-2d" x="1450.634766"/>
     <use xlink:href="#ArialMT-30" x="1483.935547"/>
     <use xlink:href="#ArialMT-36" x="1539.550781"/>
    </g>
   </g>
   <g id="text_20">
    <!-- Mean gene copy number distribution of pan-genome -->
    <g transform="translate(23.847813 15.935625)scale(0.12 -0.12)">
     <defs>
      <path id="Arial-BoldMT-64" d="M 3503 0 
L 2688 0 
L 2688 488 
Q 2484 203 2207 64 
Q 1931 -75 1650 -75 
Q 1078 -75 670 386 
Q 263 847 263 1672 
Q 263 2516 659 2955 
Q 1056 3394 1663 3394 
Q 2219 3394 2625 2931 
L 2625 4581 
L 3503 4581 
L 3503 0 
z
M 1159 1731 
Q 1159 1200 1306 963 
Q 1519 619 1900 619 
Q 2203 619 2415 876 
Q 2628 1134 2628 1647 
Q 2628 2219 2422 2470 
Q 2216 2722 1894 2722 
Q 1581 2722 1370 2473 
Q 1159 2225 1159 1731 
z
" transform="scale(0.015625)"/>
      <path id="Arial-BoldMT-66" d="M 75 3319 
L 563 3319 
L 563 3569 
Q 563 3988 652 4194 
Q 741 4400 980 4529 
Q 1219 4659 1584 4659 
Q 1959 4659 2319 4547 
L 2200 3934 
Q 1991 3984 1797 3984 
Q 1606 3984 1523 3895 
Q 1441 3806 1441 3553 
L 1441 3319 
L 2097 3319 
L 2097 2628 
L 1441 2628 
L 1441 0 
L 563 0 
L 563 2628 
L 75 2628 
L 75 3319 
z
" transform="scale(0.015625)"/>
      <path id="Arial-BoldMT-2d" d="M 359 1222 
L 359 2100 
L 2084 2100 
L 2084 1222 
L 359 1222 
z
" transform="scale(0.015625)"/>
     </defs>
     <use xlink:href="#Arial-BoldMT-4d"/>
     <use xlink:href="#Arial-BoldMT-65" x="83.300781"/>
     <use xlink:href="#Arial-BoldMT-61" x="138.916016"/>
     <use xlink:href="#Arial-BoldMT-6e" x="194.53125"/>
     <use xlink:href="#Arial-BoldMT-20" x="255.615234"/>
     <use xlink:href="#Arial-BoldMT-67" x="283.398438"/>
     <use xlink:href="#Arial-BoldMT-65" x="344.482422"/>
     <use xlink:href="#Arial-BoldMT-6e" x="400.097656"/>
     <use xlink:href="#Arial-BoldMT-65" x="461.181641"/>
     <use xlink:href="#Arial-BoldMT-20" x="516.796875"/>
     <use xlink:href="#Arial-BoldMT-63" x="544.580078"/>
     <use xlink:href="#Arial-BoldMT-6f" x="600.195312"/>
     <use xlink:href="#Arial-BoldMT-70" x="661.279297"/>
     <use xlink:href="#Arial-BoldMT-79" x="722.363281"/>
     <use xlink:href="#Arial-BoldMT-20" x="777.978516"/>
     <use xlink:href="#Arial-BoldMT-6e" x="805.761719"/>
     <use xlink:href="#Arial-BoldMT-75" x="866.845703"/>
     <use xlink:href="#Arial-BoldMT-6d" x="927.929688"/>
     <use xlink:href="#Arial-BoldMT-62" x="1016.845703"/>
     <use xlink:href="#Arial-BoldMT-65" x="1077.929688"/>
     <use xlink:href="#Arial-BoldMT-72" x="1133.544922"/>
     <use xlink:href="#Arial-BoldMT-20" x="1172.460938"/>
     <use xlink:href="#Arial-BoldMT-64" x="1200.244141"/>
     <use xlink:href="#Arial-BoldMT-69" x="1261.328125"/>
     <use xlink:href="#Arial-BoldMT-73" x="1289.111328"/>
     <use xlink:href="#Arial-BoldMT-74" x="1344.726562"/>
     <use xlink:href="#Arial-BoldMT-72" x="1378.027344"/>
     <use xlink:href="#Arial-BoldMT-69" x="1416.943359"/>
     <use xlink:href="#Arial-BoldMT-62" x="1444.726562"/>
     <use xlink:href="#Arial-BoldMT-75" x="1505.810547"/>
     <use xlink:href="#Arial-BoldMT-74" x="1566.894531"/>
     <use xlink:href="#Arial-BoldMT-69" x="1600.195312"/>
     <use xlink:href="#Arial-BoldMT-6f" x="1627.978516"/>
     <use xlink:href="#Arial-BoldMT-6e" x="1689.0625"/>
     <use xlink:href="#Arial-BoldMT-20" x="1750.146484"/>
     <use xlink:href="#Arial-BoldMT-6f" x="1777.929688"/>
     <use xlink:href="#Arial-BoldMT-66" x="1839.013672"/>
     <use xlink:href="#Arial-BoldMT-20" x="1872.314453"/>
     <use xlink:href="#Arial-BoldMT-70" x="1900.097656"/>
     <use xlink:href="#Arial-BoldMT-61" x="1961.181641"/>
     <use xlink:href="#Arial-BoldMT-6e" x="2016.796875"/>
     <use xlink:href="#Arial-BoldMT-2d" x="2077.880859"/>
     <use xlink:href="#Arial-BoldMT-67" x="2111.181641"/>
     <use xlink:href="#Arial-BoldMT-65" x="2172.265625"/>
     <use xlink:href="#Arial-BoldMT-6e" x="2227.880859"/>
     <use xlink:href="#Arial-BoldMT-6f" x="2288.964844"/>
     <use xlink:href="#Arial-BoldMT-6d" x="2350.048828"/>
     <use xlink:href="#Arial-BoldMT-65" x="2438.964844"/>
    </g>
   </g>
   <g id="legend_1">
    <g id="patch_7">
     <path d="M 228.01 62.471875 
L 307.41125 62.471875 
Q 309.01125 62.471875 309.01125 60.871875 
L 309.01125 27.535625 
Q 309.01125 25.935625 307.41125 25.935625 
L 228.01 25.935625 
Q 226.41 25.935625 226.41 27.535625 
L 226.41 60.871875 
Q 226.41 62.471875 228.01 62.471875 
z
" style="fill: #ffffff; opacity: 0.8; stroke: #cccccc; stroke-width: 0.24; stroke-linejoin: miter"/>
    </g>
    <g id="patch_8">
     <path d="M 229.61 34.861875 
L 245.61 34.861875 
L 245.61 29.261875 
L 229.61 29.261875 
z
" style="fill: #1b9e77; fill-opacity: 0.25; stroke: #1b9e77; stroke-width: 1.5; stroke-linejoin: miter"/>
    </g>
    <g id="text_21">
     <!-- Yeast core -->
     <g transform="translate(252.01 34.861875)scale(0.08 -0.08)">
      <defs>
       <path id="ArialMT-59" d="M 1784 0 
L 1784 1941 
L 19 4581 
L 756 4581 
L 1659 3200 
Q 1909 2813 2125 2425 
Q 2331 2784 2625 3234 
L 3513 4581 
L 4219 4581 
L 2391 1941 
L 2391 0 
L 1784 0 
z
" transform="scale(0.015625)"/>
      </defs>
      <use xlink:href="#ArialMT-59"/>
      <use xlink:href="#ArialMT-65" x="57.574219"/>
      <use xlink:href="#ArialMT-61" x="113.189453"/>
      <use xlink:href="#ArialMT-73" x="168.804688"/>
      <use xlink:href="#ArialMT-74" x="218.804688"/>
      <use xlink:href="#ArialMT-20" x="246.587891"/>
      <use xlink:href="#ArialMT-63" x="274.371094"/>
      <use xlink:href="#ArialMT-6f" x="324.371094"/>
      <use xlink:href="#ArialMT-72" x="379.986328"/>
      <use xlink:href="#ArialMT-65" x="413.287109"/>
     </g>
    </g>
    <g id="patch_9">
     <path d="M 229.61 46.178125 
L 245.61 46.178125 
L 245.61 40.578125 
L 229.61 40.578125 
z
" style="fill: #d95f02; fill-opacity: 0.25; stroke: #d95f02; stroke-width: 1.5; stroke-linejoin: miter"/>
    </g>
    <g id="text_22">
     <!-- Non yeast core -->
     <g transform="translate(252.01 46.178125)scale(0.08 -0.08)">
      <defs>
       <path id="ArialMT-4e" d="M 488 0 
L 488 4581 
L 1109 4581 
L 3516 984 
L 3516 4581 
L 4097 4581 
L 4097 0 
L 3475 0 
L 1069 3600 
L 1069 0 
L 488 0 
z
" transform="scale(0.015625)"/>
      </defs>
      <use xlink:href="#ArialMT-4e"/>
      <use xlink:href="#ArialMT-6f" x="72.216797"/>
      <use xlink:href="#ArialMT-6e" x="127.832031"/>
      <use xlink:href="#ArialMT-20" x="183.447266"/>
      <use xlink:href="#ArialMT-79" x="211.230469"/>
      <use xlink:href="#ArialMT-65" x="261.230469"/>
      <use xlink:href="#ArialMT-61" x="316.845703"/>
      <use xlink:href="#ArialMT-73" x="372.460938"/>
      <use xlink:href="#ArialMT-74" x="422.460938"/>
      <use xlink:href="#ArialMT-20" x="450.244141"/>
      <use xlink:href="#ArialMT-63" x="478.027344"/>
      <use xlink:href="#ArialMT-6f" x="528.027344"/>
      <use xlink:href="#ArialMT-72" x="583.642578"/>
      <use xlink:href="#ArialMT-65" x="616.943359"/>
     </g>
    </g>
    <g id="patch_10">
     <path d="M 229.61 57.588125 
L 245.61 57.588125 
L 245.61 51.988125 
L 229.61 51.988125 
z
" style="fill: #7570b3; fill-opacity: 0.25; stroke: #7570b3; stroke-width: 1.5; stroke-linejoin: miter"/>
    </g>
    <g id="text_23">
     <!-- Accessory -->
     <g transform="translate(252.01 57.588125)scale(0.08 -0.08)">
      <defs>
       <path id="ArialMT-41" d="M -9 0 
L 1750 4581 
L 2403 4581 
L 4278 0 
L 3588 0 
L 3053 1388 
L 1138 1388 
L 634 0 
L -9 0 
z
M 1313 1881 
L 2866 1881 
L 2388 3150 
Q 2169 3728 2063 4100 
Q 1975 3659 1816 3225 
L 1313 1881 
z
" transform="scale(0.015625)"/>
      </defs>
      <use xlink:href="#ArialMT-41"/>
      <use xlink:href="#ArialMT-63" x="66.699219"/>
      <use xlink:href="#ArialMT-63" x="116.699219"/>
      <use xlink:href="#ArialMT-65" x="166.699219"/>
      <use xlink:href="#ArialMT-73" x="222.314453"/>
      <use xlink:href="#ArialMT-73" x="272.314453"/>
      <use xlink:href="#ArialMT-6f" x="322.314453"/>
      <use xlink:href="#ArialMT-72" x="377.929688"/>
      <use xlink:href="#ArialMT-79" x="411.230469"/>
     </g>
    </g>
   </g>
  </g>
 </g>
 <defs>
  <clipPath id="p2c36a86f29">
   <rect x="34.01125" y="21.935625" width="279" height="163.08"/>
  </clipPath>
 </defs>
</svg>
