<?xml version="1.0" encoding="utf-8" standalone="no"?>
<!DOCTYPE svg PUBLIC "-//W3C//DTD SVG 1.1//EN"
  "http://www.w3.org/Graphics/SVG/1.1/DTD/svg11.dtd">
<svg xmlns:xlink="http://www.w3.org/1999/xlink" width="324.653125pt" height="141.679063pt" viewBox="0 0 324.653125 141.679063" xmlns="http://www.w3.org/2000/svg" version="1.1">
 <metadata>
  <rdf:RDF xmlns:dc="http://purl.org/dc/elements/1.1/" xmlns:cc="http://creativecommons.org/ns#" xmlns:rdf="http://www.w3.org/1999/02/22-rdf-syntax-ns#">
   <cc:Work>
    <dc:type rdf:resource="http://purl.org/dc/dcmitype/StillImage"/>
    <dc:date>2024-03-27T20:56:01.526380</dc:date>
    <dc:format>image/svg+xml</dc:format>
    <dc:creator>
     <cc:Agent>
      <dc:title>Matplotlib v3.8.0, https://matplotlib.org/</dc:title>
     </cc:Agent>
    </dc:creator>
   </cc:Work>
  </rdf:RDF>
 </metadata>
 <defs>
  <style type="text/css">*{stroke-linejoin: round; stroke-linecap: butt}</style>
 </defs>
 <g id="figure_1">
  <g id="patch_1">
   <path d="M 0 141.679063 
L 324.653125 141.679063 
L 324.653125 0 
L 0 0 
L 0 141.679063 
z
" style="fill: none"/>
  </g>
  <g id="axes_1">
   <g id="patch_2">
    <path d="M 38.453125 104.949375 
L 317.453125 104.949375 
L 317.453125 21.789375 
L 38.453125 21.789375 
L 38.453125 104.949375 
z
" style="fill: none"/>
   </g>
   <g id="patch_3">
    <path d="M 51.134943 104.949375 
L 57.475852 104.949375 
L 57.475852 98.821796 
L 51.134943 98.821796 
z
" clip-path="url(#pf91d60b3b4)" style="fill: #1f77b4; opacity: 0.4"/>
   </g>
   <g id="patch_4">
    <path d="M 57.475852 104.949375 
L 63.816761 104.949375 
L 63.816761 88.317375 
L 57.475852 88.317375 
z
" clip-path="url(#pf91d60b3b4)" style="fill: #1f77b4; opacity: 0.4"/>
   </g>
   <g id="patch_5">
    <path d="M 63.816761 104.949375 
L 70.15767 104.949375 
L 70.15767 90.94348 
L 63.816761 90.94348 
z
" clip-path="url(#pf91d60b3b4)" style="fill: #1f77b4; opacity: 0.4"/>
   </g>
   <g id="patch_6">
    <path d="M 70.15767 104.949375 
L 76.49858 104.949375 
L 76.49858 83.065164 
L 70.15767 83.065164 
z
" clip-path="url(#pf91d60b3b4)" style="fill: #1f77b4; opacity: 0.4"/>
   </g>
   <g id="patch_7">
    <path d="M 76.49858 104.949375 
L 82.839489 104.949375 
L 82.839489 83.940533 
L 76.49858 83.940533 
z
" clip-path="url(#pf91d60b3b4)" style="fill: #1f77b4; opacity: 0.4"/>
   </g>
   <g id="patch_8">
    <path d="M 82.839489 104.949375 
L 89.180398 104.949375 
L 89.180398 65.557796 
L 82.839489 65.557796 
z
" clip-path="url(#pf91d60b3b4)" style="fill: #1f77b4; opacity: 0.4"/>
   </g>
   <g id="patch_9">
    <path d="M 89.180398 104.949375 
L 95.521307 104.949375 
L 95.521307 50.676533 
L 89.180398 50.676533 
z
" clip-path="url(#pf91d60b3b4)" style="fill: #1f77b4; opacity: 0.4"/>
   </g>
   <g id="patch_10">
    <path d="M 95.521307 104.949375 
L 101.862216 104.949375 
L 101.862216 48.925796 
L 95.521307 48.925796 
z
" clip-path="url(#pf91d60b3b4)" style="fill: #1f77b4; opacity: 0.4"/>
   </g>
   <g id="patch_11">
    <path d="M 101.862216 104.949375 
L 108.203125 104.949375 
L 108.203125 32.293796 
L 101.862216 32.293796 
z
" clip-path="url(#pf91d60b3b4)" style="fill: #1f77b4; opacity: 0.4"/>
   </g>
   <g id="patch_12">
    <path d="M 108.203125 104.949375 
L 114.544034 104.949375 
L 114.544034 42.798217 
L 108.203125 42.798217 
z
" clip-path="url(#pf91d60b3b4)" style="fill: #1f77b4; opacity: 0.4"/>
   </g>
   <g id="patch_13">
    <path d="M 114.544034 104.949375 
L 120.884943 104.949375 
L 120.884943 35.79527 
L 114.544034 35.79527 
z
" clip-path="url(#pf91d60b3b4)" style="fill: #1f77b4; opacity: 0.4"/>
   </g>
   <g id="patch_14">
    <path d="M 120.884943 104.949375 
L 127.225852 104.949375 
L 127.225852 53.302638 
L 120.884943 53.302638 
z
" clip-path="url(#pf91d60b3b4)" style="fill: #1f77b4; opacity: 0.4"/>
   </g>
   <g id="patch_15">
    <path d="M 127.225852 104.949375 
L 133.566761 104.949375 
L 133.566761 58.554849 
L 127.225852 58.554849 
z
" clip-path="url(#pf91d60b3b4)" style="fill: #1f77b4; opacity: 0.4"/>
   </g>
   <g id="patch_16">
    <path d="M 133.566761 104.949375 
L 139.90767 104.949375 
L 139.90767 70.810007 
L 133.566761 70.810007 
z
" clip-path="url(#pf91d60b3b4)" style="fill: #1f77b4; opacity: 0.4"/>
   </g>
   <g id="patch_17">
    <path d="M 139.90767 104.949375 
L 146.24858 104.949375 
L 146.24858 69.934638 
L 139.90767 69.934638 
z
" clip-path="url(#pf91d60b3b4)" style="fill: #1f77b4; opacity: 0.4"/>
   </g>
   <g id="patch_18">
    <path d="M 146.24858 104.949375 
L 152.589489 104.949375 
L 152.589489 59.430217 
L 146.24858 59.430217 
z
" clip-path="url(#pf91d60b3b4)" style="fill: #1f77b4; opacity: 0.4"/>
   </g>
   <g id="patch_19">
    <path d="M 152.589489 104.949375 
L 158.930398 104.949375 
L 158.930398 76.937586 
L 152.589489 76.937586 
z
" clip-path="url(#pf91d60b3b4)" style="fill: #1f77b4; opacity: 0.4"/>
   </g>
   <g id="patch_20">
    <path d="M 158.930398 104.949375 
L 165.271307 104.949375 
L 165.271307 83.065164 
L 158.930398 83.065164 
z
" clip-path="url(#pf91d60b3b4)" style="fill: #1f77b4; opacity: 0.4"/>
   </g>
   <g id="patch_21">
    <path d="M 165.271307 104.949375 
L 171.612216 104.949375 
L 171.612216 84.815901 
L 165.271307 84.815901 
z
" clip-path="url(#pf91d60b3b4)" style="fill: #1f77b4; opacity: 0.4"/>
   </g>
   <g id="patch_22">
    <path d="M 171.612216 104.949375 
L 177.953125 104.949375 
L 177.953125 96.195691 
L 171.612216 96.195691 
z
" clip-path="url(#pf91d60b3b4)" style="fill: #1f77b4; opacity: 0.4"/>
   </g>
   <g id="patch_23">
    <path d="M 177.953125 104.949375 
L 184.294034 104.949375 
L 184.294034 85.69127 
L 177.953125 85.69127 
z
" clip-path="url(#pf91d60b3b4)" style="fill: #1f77b4; opacity: 0.4"/>
   </g>
   <g id="patch_24">
    <path d="M 184.294034 104.949375 
L 190.634943 104.949375 
L 190.634943 96.195691 
L 184.294034 96.195691 
z
" clip-path="url(#pf91d60b3b4)" style="fill: #1f77b4; opacity: 0.4"/>
   </g>
   <g id="patch_25">
    <path d="M 190.634943 104.949375 
L 196.975852 104.949375 
L 196.975852 101.447901 
L 190.634943 101.447901 
z
" clip-path="url(#pf91d60b3b4)" style="fill: #1f77b4; opacity: 0.4"/>
   </g>
   <g id="patch_26">
    <path d="M 196.975852 104.949375 
L 203.316761 104.949375 
L 203.316761 94.444954 
L 196.975852 94.444954 
z
" clip-path="url(#pf91d60b3b4)" style="fill: #1f77b4; opacity: 0.4"/>
   </g>
   <g id="patch_27">
    <path d="M 203.316761 104.949375 
L 209.65767 104.949375 
L 209.65767 101.447901 
L 203.316761 101.447901 
z
" clip-path="url(#pf91d60b3b4)" style="fill: #1f77b4; opacity: 0.4"/>
   </g>
   <g id="patch_28">
    <path d="M 209.65767 104.949375 
L 215.99858 104.949375 
L 215.99858 99.697164 
L 209.65767 99.697164 
z
" clip-path="url(#pf91d60b3b4)" style="fill: #1f77b4; opacity: 0.4"/>
   </g>
   <g id="patch_29">
    <path d="M 215.99858 104.949375 
L 222.339489 104.949375 
L 222.339489 98.821796 
L 215.99858 98.821796 
z
" clip-path="url(#pf91d60b3b4)" style="fill: #1f77b4; opacity: 0.4"/>
   </g>
   <g id="patch_30">
    <path d="M 222.339489 104.949375 
L 228.680398 104.949375 
L 228.680398 103.198638 
L 222.339489 103.198638 
z
" clip-path="url(#pf91d60b3b4)" style="fill: #1f77b4; opacity: 0.4"/>
   </g>
   <g id="patch_31">
    <path d="M 228.680398 104.949375 
L 235.021307 104.949375 
L 235.021307 101.447901 
L 228.680398 101.447901 
z
" clip-path="url(#pf91d60b3b4)" style="fill: #1f77b4; opacity: 0.4"/>
   </g>
   <g id="patch_32">
    <path d="M 235.021307 104.949375 
L 241.362216 104.949375 
L 241.362216 102.32327 
L 235.021307 102.32327 
z
" clip-path="url(#pf91d60b3b4)" style="fill: #1f77b4; opacity: 0.4"/>
   </g>
   <g id="patch_33">
    <path d="M 241.362216 104.949375 
L 247.703125 104.949375 
L 247.703125 101.447901 
L 241.362216 101.447901 
z
" clip-path="url(#pf91d60b3b4)" style="fill: #1f77b4; opacity: 0.4"/>
   </g>
   <g id="patch_34">
    <path d="M 247.703125 104.949375 
L 254.044034 104.949375 
L 254.044034 104.074007 
L 247.703125 104.074007 
z
" clip-path="url(#pf91d60b3b4)" style="fill: #1f77b4; opacity: 0.4"/>
   </g>
   <g id="patch_35">
    <path d="M 254.044034 104.949375 
L 260.384943 104.949375 
L 260.384943 104.074007 
L 254.044034 104.074007 
z
" clip-path="url(#pf91d60b3b4)" style="fill: #1f77b4; opacity: 0.4"/>
   </g>
   <g id="patch_36">
    <path d="M 260.384943 104.949375 
L 266.725852 104.949375 
L 266.725852 102.32327 
L 260.384943 102.32327 
z
" clip-path="url(#pf91d60b3b4)" style="fill: #1f77b4; opacity: 0.4"/>
   </g>
   <g id="patch_37">
    <path d="M 266.725852 104.949375 
L 273.066761 104.949375 
L 273.066761 104.949375 
L 266.725852 104.949375 
z
" clip-path="url(#pf91d60b3b4)" style="fill: #1f77b4; opacity: 0.4"/>
   </g>
   <g id="patch_38">
    <path d="M 273.066761 104.949375 
L 279.40767 104.949375 
L 279.40767 103.198638 
L 273.066761 103.198638 
z
" clip-path="url(#pf91d60b3b4)" style="fill: #1f77b4; opacity: 0.4"/>
   </g>
   <g id="patch_39">
    <path d="M 279.40767 104.949375 
L 285.74858 104.949375 
L 285.74858 104.074007 
L 279.40767 104.074007 
z
" clip-path="url(#pf91d60b3b4)" style="fill: #1f77b4; opacity: 0.4"/>
   </g>
   <g id="patch_40">
    <path d="M 285.74858 104.949375 
L 292.089489 104.949375 
L 292.089489 104.949375 
L 285.74858 104.949375 
z
" clip-path="url(#pf91d60b3b4)" style="fill: #1f77b4; opacity: 0.4"/>
   </g>
   <g id="patch_41">
    <path d="M 292.089489 104.949375 
L 298.430398 104.949375 
L 298.430398 104.949375 
L 292.089489 104.949375 
z
" clip-path="url(#pf91d60b3b4)" style="fill: #1f77b4; opacity: 0.4"/>
   </g>
   <g id="patch_42">
    <path d="M 298.430398 104.949375 
L 304.771307 104.949375 
L 304.771307 101.447901 
L 298.430398 101.447901 
z
" clip-path="url(#pf91d60b3b4)" style="fill: #1f77b4; opacity: 0.4"/>
   </g>
   <g id="matplotlib.axis_1">
    <g id="xtick_1">
     <g id="line2d_1">
      <defs>
       <path id="m35ab18aaa2" d="M 0 0 
L 0 3.5 
" style="stroke: #000000; stroke-width: 0.8"/>
      </defs>
      <g>
       <use xlink:href="#m35ab18aaa2" x="63.334588" y="104.949375" style="stroke: #000000; stroke-width: 0.8"/>
      </g>
     </g>
     <g id="text_1">
      <!-- 5 -->
      <g transform="translate(60.554119 119.107188) scale(0.1 -0.1)">
       <defs>
        <path id="ArialMT-35" d="M 266 1200 
L 856 1250 
Q 922 819 1161 601 
Q 1400 384 1738 384 
Q 2144 384 2425 690 
Q 2706 997 2706 1503 
Q 2706 1984 2436 2262 
Q 2166 2541 1728 2541 
Q 1456 2541 1237 2417 
Q 1019 2294 894 2097 
L 366 2166 
L 809 4519 
L 3088 4519 
L 3088 3981 
L 1259 3981 
L 1013 2750 
Q 1425 3038 1878 3038 
Q 2478 3038 2890 2622 
Q 3303 2206 3303 1553 
Q 3303 931 2941 478 
Q 2500 -78 1738 -78 
Q 1113 -78 717 272 
Q 322 622 266 1200 
z
" transform="scale(0.015625)"/>
       </defs>
       <use xlink:href="#ArialMT-35"/>
      </g>
     </g>
    </g>
    <g id="xtick_2">
     <g id="line2d_2">
      <g>
       <use xlink:href="#m35ab18aaa2" x="95.650187" y="104.949375" style="stroke: #000000; stroke-width: 0.8"/>
      </g>
     </g>
     <g id="text_2">
      <!-- 10 -->
      <g transform="translate(90.089249 119.107188) scale(0.1 -0.1)">
       <defs>
        <path id="ArialMT-31" d="M 2384 0 
L 1822 0 
L 1822 3584 
Q 1619 3391 1289 3197 
Q 959 3003 697 2906 
L 697 3450 
Q 1169 3672 1522 3987 
Q 1875 4303 2022 4600 
L 2384 4600 
L 2384 0 
z
" transform="scale(0.015625)"/>
        <path id="ArialMT-30" d="M 266 2259 
Q 266 3072 433 3567 
Q 600 4063 929 4331 
Q 1259 4600 1759 4600 
Q 2128 4600 2406 4451 
Q 2684 4303 2865 4023 
Q 3047 3744 3150 3342 
Q 3253 2941 3253 2259 
Q 3253 1453 3087 958 
Q 2922 463 2592 192 
Q 2263 -78 1759 -78 
Q 1097 -78 719 397 
Q 266 969 266 2259 
z
M 844 2259 
Q 844 1131 1108 757 
Q 1372 384 1759 384 
Q 2147 384 2411 759 
Q 2675 1134 2675 2259 
Q 2675 3391 2411 3762 
Q 2147 4134 1753 4134 
Q 1366 4134 1134 3806 
Q 844 3388 844 2259 
z
" transform="scale(0.015625)"/>
       </defs>
       <use xlink:href="#ArialMT-31"/>
       <use xlink:href="#ArialMT-30" x="55.615234"/>
      </g>
     </g>
    </g>
    <g id="xtick_3">
     <g id="line2d_3">
      <g>
       <use xlink:href="#m35ab18aaa2" x="127.965786" y="104.949375" style="stroke: #000000; stroke-width: 0.8"/>
      </g>
     </g>
     <g id="text_3">
      <!-- 15 -->
      <g transform="translate(122.404848 119.107188) scale(0.1 -0.1)">
       <use xlink:href="#ArialMT-31"/>
       <use xlink:href="#ArialMT-35" x="55.615234"/>
      </g>
     </g>
    </g>
    <g id="xtick_4">
     <g id="line2d_4">
      <g>
       <use xlink:href="#m35ab18aaa2" x="160.281384" y="104.949375" style="stroke: #000000; stroke-width: 0.8"/>
      </g>
     </g>
     <g id="text_4">
      <!-- 20 -->
      <g transform="translate(154.720447 119.107188) scale(0.1 -0.1)">
       <defs>
        <path id="ArialMT-32" d="M 3222 541 
L 3222 0 
L 194 0 
Q 188 203 259 391 
Q 375 700 629 1000 
Q 884 1300 1366 1694 
Q 2113 2306 2375 2664 
Q 2638 3022 2638 3341 
Q 2638 3675 2398 3904 
Q 2159 4134 1775 4134 
Q 1369 4134 1125 3890 
Q 881 3647 878 3216 
L 300 3275 
Q 359 3922 746 4261 
Q 1134 4600 1788 4600 
Q 2447 4600 2831 4234 
Q 3216 3869 3216 3328 
Q 3216 3053 3103 2787 
Q 2991 2522 2730 2228 
Q 2469 1934 1863 1422 
Q 1356 997 1212 845 
Q 1069 694 975 541 
L 3222 541 
z
" transform="scale(0.015625)"/>
       </defs>
       <use xlink:href="#ArialMT-32"/>
       <use xlink:href="#ArialMT-30" x="55.615234"/>
      </g>
     </g>
    </g>
    <g id="xtick_5">
     <g id="line2d_5">
      <g>
       <use xlink:href="#m35ab18aaa2" x="192.596983" y="104.949375" style="stroke: #000000; stroke-width: 0.8"/>
      </g>
     </g>
     <g id="text_5">
      <!-- 25 -->
      <g transform="translate(187.036046 119.107188) scale(0.1 -0.1)">
       <use xlink:href="#ArialMT-32"/>
       <use xlink:href="#ArialMT-35" x="55.615234"/>
      </g>
     </g>
    </g>
    <g id="xtick_6">
     <g id="line2d_6">
      <g>
       <use xlink:href="#m35ab18aaa2" x="224.912582" y="104.949375" style="stroke: #000000; stroke-width: 0.8"/>
      </g>
     </g>
     <g id="text_6">
      <!-- 30 -->
      <g transform="translate(219.351644 119.107188) scale(0.1 -0.1)">
       <defs>
        <path id="ArialMT-33" d="M 269 1209 
L 831 1284 
Q 928 806 1161 595 
Q 1394 384 1728 384 
Q 2125 384 2398 659 
Q 2672 934 2672 1341 
Q 2672 1728 2419 1979 
Q 2166 2231 1775 2231 
Q 1616 2231 1378 2169 
L 1441 2663 
Q 1497 2656 1531 2656 
Q 1891 2656 2178 2843 
Q 2466 3031 2466 3422 
Q 2466 3731 2256 3934 
Q 2047 4138 1716 4138 
Q 1388 4138 1169 3931 
Q 950 3725 888 3313 
L 325 3413 
Q 428 3978 793 4289 
Q 1159 4600 1703 4600 
Q 2078 4600 2393 4439 
Q 2709 4278 2876 4000 
Q 3044 3722 3044 3409 
Q 3044 3113 2884 2869 
Q 2725 2625 2413 2481 
Q 2819 2388 3044 2092 
Q 3269 1797 3269 1353 
Q 3269 753 2831 336 
Q 2394 -81 1725 -81 
Q 1122 -81 723 278 
Q 325 638 269 1209 
z
" transform="scale(0.015625)"/>
       </defs>
       <use xlink:href="#ArialMT-33"/>
       <use xlink:href="#ArialMT-30" x="55.615234"/>
      </g>
     </g>
    </g>
    <g id="xtick_7">
     <g id="line2d_7">
      <g>
       <use xlink:href="#m35ab18aaa2" x="257.228181" y="104.949375" style="stroke: #000000; stroke-width: 0.8"/>
      </g>
     </g>
     <g id="text_7">
      <!-- 35 -->
      <g transform="translate(251.667243 119.107188) scale(0.1 -0.1)">
       <use xlink:href="#ArialMT-33"/>
       <use xlink:href="#ArialMT-35" x="55.615234"/>
      </g>
     </g>
    </g>
    <g id="xtick_8">
     <g id="line2d_8">
      <g>
       <use xlink:href="#m35ab18aaa2" x="289.543779" y="104.949375" style="stroke: #000000; stroke-width: 0.8"/>
      </g>
     </g>
     <g id="text_8">
      <!-- 40 -->
      <g transform="translate(283.982842 119.107188) scale(0.1 -0.1)">
       <defs>
        <path id="ArialMT-34" d="M 2069 0 
L 2069 1097 
L 81 1097 
L 81 1613 
L 2172 4581 
L 2631 4581 
L 2631 1613 
L 3250 1613 
L 3250 1097 
L 2631 1097 
L 2631 0 
L 2069 0 
z
M 2069 1613 
L 2069 3678 
L 634 1613 
L 2069 1613 
z
" transform="scale(0.015625)"/>
       </defs>
       <use xlink:href="#ArialMT-34"/>
       <use xlink:href="#ArialMT-30" x="55.615234"/>
      </g>
     </g>
    </g>
    <g id="text_9">
     <!-- time to mid-log phase (h) -->
     <g transform="translate(118.514062 132.374375) scale(0.1 -0.1)">
      <defs>
       <path id="Arial-BoldMT-74" d="M 1981 3319 
L 1981 2619 
L 1381 2619 
L 1381 1281 
Q 1381 875 1398 808 
Q 1416 741 1477 697 
Q 1538 653 1625 653 
Q 1747 653 1978 738 
L 2053 56 
Q 1747 -75 1359 -75 
Q 1122 -75 931 4 
Q 741 84 652 211 
Q 563 338 528 553 
Q 500 706 500 1172 
L 500 2619 
L 97 2619 
L 97 3319 
L 500 3319 
L 500 3978 
L 1381 4491 
L 1381 3319 
L 1981 3319 
z
" transform="scale(0.015625)"/>
       <path id="Arial-BoldMT-69" d="M 459 3769 
L 459 4581 
L 1338 4581 
L 1338 3769 
L 459 3769 
z
M 459 0 
L 459 3319 
L 1338 3319 
L 1338 0 
L 459 0 
z
" transform="scale(0.015625)"/>
       <path id="Arial-BoldMT-6d" d="M 394 3319 
L 1203 3319 
L 1203 2866 
Q 1638 3394 2238 3394 
Q 2556 3394 2790 3262 
Q 3025 3131 3175 2866 
Q 3394 3131 3647 3262 
Q 3900 3394 4188 3394 
Q 4553 3394 4806 3245 
Q 5059 3097 5184 2809 
Q 5275 2597 5275 2122 
L 5275 0 
L 4397 0 
L 4397 1897 
Q 4397 2391 4306 2534 
Q 4184 2722 3931 2722 
Q 3747 2722 3584 2609 
Q 3422 2497 3350 2280 
Q 3278 2063 3278 1594 
L 3278 0 
L 2400 0 
L 2400 1819 
Q 2400 2303 2353 2443 
Q 2306 2584 2207 2653 
Q 2109 2722 1941 2722 
Q 1738 2722 1575 2612 
Q 1413 2503 1342 2297 
Q 1272 2091 1272 1613 
L 1272 0 
L 394 0 
L 394 3319 
z
" transform="scale(0.015625)"/>
       <path id="Arial-BoldMT-65" d="M 2381 1056 
L 3256 909 
Q 3088 428 2723 176 
Q 2359 -75 1813 -75 
Q 947 -75 531 491 
Q 203 944 203 1634 
Q 203 2459 634 2926 
Q 1066 3394 1725 3394 
Q 2466 3394 2894 2905 
Q 3322 2416 3303 1406 
L 1103 1406 
Q 1113 1016 1316 798 
Q 1519 581 1822 581 
Q 2028 581 2168 693 
Q 2309 806 2381 1056 
z
M 2431 1944 
Q 2422 2325 2234 2523 
Q 2047 2722 1778 2722 
Q 1491 2722 1303 2513 
Q 1116 2303 1119 1944 
L 2431 1944 
z
" transform="scale(0.015625)"/>
       <path id="Arial-BoldMT-20" transform="scale(0.015625)"/>
       <path id="Arial-BoldMT-6f" d="M 256 1706 
Q 256 2144 472 2553 
Q 688 2963 1083 3178 
Q 1478 3394 1966 3394 
Q 2719 3394 3200 2905 
Q 3681 2416 3681 1669 
Q 3681 916 3195 420 
Q 2709 -75 1972 -75 
Q 1516 -75 1102 131 
Q 688 338 472 736 
Q 256 1134 256 1706 
z
M 1156 1659 
Q 1156 1166 1390 903 
Q 1625 641 1969 641 
Q 2313 641 2545 903 
Q 2778 1166 2778 1666 
Q 2778 2153 2545 2415 
Q 2313 2678 1969 2678 
Q 1625 2678 1390 2415 
Q 1156 2153 1156 1659 
z
" transform="scale(0.015625)"/>
       <path id="Arial-BoldMT-64" d="M 3503 0 
L 2688 0 
L 2688 488 
Q 2484 203 2207 64 
Q 1931 -75 1650 -75 
Q 1078 -75 670 386 
Q 263 847 263 1672 
Q 263 2516 659 2955 
Q 1056 3394 1663 3394 
Q 2219 3394 2625 2931 
L 2625 4581 
L 3503 4581 
L 3503 0 
z
M 1159 1731 
Q 1159 1200 1306 963 
Q 1519 619 1900 619 
Q 2203 619 2415 876 
Q 2628 1134 2628 1647 
Q 2628 2219 2422 2470 
Q 2216 2722 1894 2722 
Q 1581 2722 1370 2473 
Q 1159 2225 1159 1731 
z
" transform="scale(0.015625)"/>
       <path id="Arial-BoldMT-2d" d="M 359 1222 
L 359 2100 
L 2084 2100 
L 2084 1222 
L 359 1222 
z
" transform="scale(0.015625)"/>
       <path id="Arial-BoldMT-6c" d="M 459 0 
L 459 4581 
L 1338 4581 
L 1338 0 
L 459 0 
z
" transform="scale(0.015625)"/>
       <path id="Arial-BoldMT-67" d="M 378 -219 
L 1381 -341 
Q 1406 -516 1497 -581 
Q 1622 -675 1891 -675 
Q 2234 -675 2406 -572 
Q 2522 -503 2581 -350 
Q 2622 -241 2622 53 
L 2622 538 
Q 2228 0 1628 0 
Q 959 0 569 566 
Q 263 1013 263 1678 
Q 263 2513 664 2953 
Q 1066 3394 1663 3394 
Q 2278 3394 2678 2853 
L 2678 3319 
L 3500 3319 
L 3500 341 
Q 3500 -247 3403 -537 
Q 3306 -828 3131 -993 
Q 2956 -1159 2664 -1253 
Q 2372 -1347 1925 -1347 
Q 1081 -1347 728 -1058 
Q 375 -769 375 -325 
Q 375 -281 378 -219 
z
M 1163 1728 
Q 1163 1200 1367 954 
Q 1572 709 1872 709 
Q 2194 709 2416 961 
Q 2638 1213 2638 1706 
Q 2638 2222 2425 2472 
Q 2213 2722 1888 2722 
Q 1572 2722 1367 2476 
Q 1163 2231 1163 1728 
z
" transform="scale(0.015625)"/>
       <path id="Arial-BoldMT-70" d="M 434 3319 
L 1253 3319 
L 1253 2831 
Q 1413 3081 1684 3237 
Q 1956 3394 2288 3394 
Q 2866 3394 3269 2941 
Q 3672 2488 3672 1678 
Q 3672 847 3265 386 
Q 2859 -75 2281 -75 
Q 2006 -75 1782 34 
Q 1559 144 1313 409 
L 1313 -1263 
L 434 -1263 
L 434 3319 
z
M 1303 1716 
Q 1303 1156 1525 889 
Q 1747 622 2066 622 
Q 2372 622 2575 867 
Q 2778 1113 2778 1672 
Q 2778 2194 2568 2447 
Q 2359 2700 2050 2700 
Q 1728 2700 1515 2451 
Q 1303 2203 1303 1716 
z
" transform="scale(0.015625)"/>
       <path id="Arial-BoldMT-68" d="M 1334 4581 
L 1334 2897 
Q 1759 3394 2350 3394 
Q 2653 3394 2897 3281 
Q 3141 3169 3264 2994 
Q 3388 2819 3433 2606 
Q 3478 2394 3478 1947 
L 3478 0 
L 2600 0 
L 2600 1753 
Q 2600 2275 2550 2415 
Q 2500 2556 2373 2639 
Q 2247 2722 2056 2722 
Q 1838 2722 1666 2615 
Q 1494 2509 1414 2295 
Q 1334 2081 1334 1663 
L 1334 0 
L 456 0 
L 456 4581 
L 1334 4581 
z
" transform="scale(0.015625)"/>
       <path id="Arial-BoldMT-61" d="M 1116 2306 
L 319 2450 
Q 453 2931 781 3162 
Q 1109 3394 1756 3394 
Q 2344 3394 2631 3255 
Q 2919 3116 3036 2902 
Q 3153 2688 3153 2116 
L 3144 1091 
Q 3144 653 3186 445 
Q 3228 238 3344 0 
L 2475 0 
Q 2441 88 2391 259 
Q 2369 338 2359 363 
Q 2134 144 1878 34 
Q 1622 -75 1331 -75 
Q 819 -75 523 203 
Q 228 481 228 906 
Q 228 1188 362 1408 
Q 497 1628 739 1745 
Q 981 1863 1438 1950 
Q 2053 2066 2291 2166 
L 2291 2253 
Q 2291 2506 2166 2614 
Q 2041 2722 1694 2722 
Q 1459 2722 1328 2630 
Q 1197 2538 1116 2306 
z
M 2291 1594 
Q 2122 1538 1756 1459 
Q 1391 1381 1278 1306 
Q 1106 1184 1106 997 
Q 1106 813 1243 678 
Q 1381 544 1594 544 
Q 1831 544 2047 700 
Q 2206 819 2256 991 
Q 2291 1103 2291 1419 
L 2291 1594 
z
" transform="scale(0.015625)"/>
       <path id="Arial-BoldMT-73" d="M 150 947 
L 1031 1081 
Q 1088 825 1259 692 
Q 1431 559 1741 559 
Q 2081 559 2253 684 
Q 2369 772 2369 919 
Q 2369 1019 2306 1084 
Q 2241 1147 2013 1200 
Q 950 1434 666 1628 
Q 272 1897 272 2375 
Q 272 2806 612 3100 
Q 953 3394 1669 3394 
Q 2350 3394 2681 3172 
Q 3013 2950 3138 2516 
L 2309 2363 
Q 2256 2556 2107 2659 
Q 1959 2763 1684 2763 
Q 1338 2763 1188 2666 
Q 1088 2597 1088 2488 
Q 1088 2394 1175 2328 
Q 1294 2241 1995 2081 
Q 2697 1922 2975 1691 
Q 3250 1456 3250 1038 
Q 3250 581 2869 253 
Q 2488 -75 1741 -75 
Q 1063 -75 667 200 
Q 272 475 150 947 
z
" transform="scale(0.015625)"/>
       <path id="Arial-BoldMT-28" d="M 1916 -1347 
L 1313 -1347 
Q 834 -625 584 153 
Q 334 931 334 1659 
Q 334 2563 644 3369 
Q 913 4069 1325 4659 
L 1925 4659 
Q 1497 3713 1336 3048 
Q 1175 2384 1175 1641 
Q 1175 1128 1270 590 
Q 1366 53 1531 -431 
Q 1641 -750 1916 -1347 
z
" transform="scale(0.015625)"/>
       <path id="Arial-BoldMT-29" d="M 216 -1347 
Q 475 -791 581 -494 
Q 688 -197 778 190 
Q 869 578 912 926 
Q 956 1275 956 1641 
Q 956 2384 797 3048 
Q 638 3713 209 4659 
L 806 4659 
Q 1278 3988 1539 3234 
Q 1800 2481 1800 1706 
Q 1800 1053 1594 306 
Q 1359 -531 822 -1347 
L 216 -1347 
z
" transform="scale(0.015625)"/>
      </defs>
      <use xlink:href="#Arial-BoldMT-74"/>
      <use xlink:href="#Arial-BoldMT-69" x="33.300781"/>
      <use xlink:href="#Arial-BoldMT-6d" x="61.083984"/>
      <use xlink:href="#Arial-BoldMT-65" x="150"/>
      <use xlink:href="#Arial-BoldMT-20" x="205.615234"/>
      <use xlink:href="#Arial-BoldMT-74" x="233.398438"/>
      <use xlink:href="#Arial-BoldMT-6f" x="266.699219"/>
      <use xlink:href="#Arial-BoldMT-20" x="327.783203"/>
      <use xlink:href="#Arial-BoldMT-6d" x="355.566406"/>
      <use xlink:href="#Arial-BoldMT-69" x="444.482422"/>
      <use xlink:href="#Arial-BoldMT-64" x="472.265625"/>
      <use xlink:href="#Arial-BoldMT-2d" x="533.349609"/>
      <use xlink:href="#Arial-BoldMT-6c" x="566.650391"/>
      <use xlink:href="#Arial-BoldMT-6f" x="594.433594"/>
      <use xlink:href="#Arial-BoldMT-67" x="655.517578"/>
      <use xlink:href="#Arial-BoldMT-20" x="716.601562"/>
      <use xlink:href="#Arial-BoldMT-70" x="744.384766"/>
      <use xlink:href="#Arial-BoldMT-68" x="805.46875"/>
      <use xlink:href="#Arial-BoldMT-61" x="866.552734"/>
      <use xlink:href="#Arial-BoldMT-73" x="922.167969"/>
      <use xlink:href="#Arial-BoldMT-65" x="977.783203"/>
      <use xlink:href="#Arial-BoldMT-20" x="1033.398438"/>
      <use xlink:href="#Arial-BoldMT-28" x="1061.181641"/>
      <use xlink:href="#Arial-BoldMT-68" x="1094.482422"/>
      <use xlink:href="#Arial-BoldMT-29" x="1155.566406"/>
     </g>
    </g>
   </g>
   <g id="matplotlib.axis_2">
    <g id="ytick_1">
     <g id="line2d_9">
      <defs>
       <path id="m6ebeabe36b" d="M 0 0 
L -3.5 0 
" style="stroke: #000000; stroke-width: 0.8"/>
      </defs>
      <g>
       <use xlink:href="#m6ebeabe36b" x="38.453125" y="104.949375" style="stroke: #000000; stroke-width: 0.8"/>
      </g>
     </g>
     <g id="text_10">
      <!-- 0 -->
      <g transform="translate(25.892188 108.528281) scale(0.1 -0.1)">
       <use xlink:href="#ArialMT-30"/>
      </g>
     </g>
    </g>
    <g id="ytick_2">
     <g id="line2d_10">
      <g>
       <use xlink:href="#m6ebeabe36b" x="38.453125" y="83.065164" style="stroke: #000000; stroke-width: 0.8"/>
      </g>
     </g>
     <g id="text_11">
      <!-- 25 -->
      <g transform="translate(20.33125 86.644071) scale(0.1 -0.1)">
       <use xlink:href="#ArialMT-32"/>
       <use xlink:href="#ArialMT-35" x="55.615234"/>
      </g>
     </g>
    </g>
    <g id="ytick_3">
     <g id="line2d_11">
      <g>
       <use xlink:href="#m6ebeabe36b" x="38.453125" y="61.180954" style="stroke: #000000; stroke-width: 0.8"/>
      </g>
     </g>
     <g id="text_12">
      <!-- 50 -->
      <g transform="translate(20.33125 64.75986) scale(0.1 -0.1)">
       <use xlink:href="#ArialMT-35"/>
       <use xlink:href="#ArialMT-30" x="55.615234"/>
      </g>
     </g>
    </g>
    <g id="ytick_4">
     <g id="line2d_12">
      <g>
       <use xlink:href="#m6ebeabe36b" x="38.453125" y="39.296743" style="stroke: #000000; stroke-width: 0.8"/>
      </g>
     </g>
     <g id="text_13">
      <!-- 75 -->
      <g transform="translate(20.33125 42.87565) scale(0.1 -0.1)">
       <defs>
        <path id="ArialMT-37" d="M 303 3981 
L 303 4522 
L 3269 4522 
L 3269 4084 
Q 2831 3619 2401 2847 
Q 1972 2075 1738 1259 
Q 1569 684 1522 0 
L 944 0 
Q 953 541 1156 1306 
Q 1359 2072 1739 2783 
Q 2119 3494 2547 3981 
L 303 3981 
z
" transform="scale(0.015625)"/>
       </defs>
       <use xlink:href="#ArialMT-37"/>
       <use xlink:href="#ArialMT-35" x="55.615234"/>
      </g>
     </g>
    </g>
    <g id="text_14">
     <!-- Number of strains -->
     <g transform="translate(14.357813 106.152969) rotate(-90) scale(0.1 -0.1)">
      <defs>
       <path id="Arial-BoldMT-4e" d="M 475 0 
L 475 4581 
L 1375 4581 
L 3250 1522 
L 3250 4581 
L 4109 4581 
L 4109 0 
L 3181 0 
L 1334 2988 
L 1334 0 
L 475 0 
z
" transform="scale(0.015625)"/>
       <path id="Arial-BoldMT-75" d="M 2644 0 
L 2644 497 
Q 2463 231 2167 78 
Q 1872 -75 1544 -75 
Q 1209 -75 943 72 
Q 678 219 559 484 
Q 441 750 441 1219 
L 441 3319 
L 1319 3319 
L 1319 1794 
Q 1319 1094 1367 936 
Q 1416 778 1544 686 
Q 1672 594 1869 594 
Q 2094 594 2272 717 
Q 2450 841 2515 1023 
Q 2581 1206 2581 1919 
L 2581 3319 
L 3459 3319 
L 3459 0 
L 2644 0 
z
" transform="scale(0.015625)"/>
       <path id="Arial-BoldMT-62" d="M 422 0 
L 422 4581 
L 1300 4581 
L 1300 2931 
Q 1706 3394 2263 3394 
Q 2869 3394 3266 2955 
Q 3663 2516 3663 1694 
Q 3663 844 3258 384 
Q 2853 -75 2275 -75 
Q 1991 -75 1714 67 
Q 1438 209 1238 488 
L 1238 0 
L 422 0 
z
M 1294 1731 
Q 1294 1216 1456 969 
Q 1684 619 2063 619 
Q 2353 619 2558 867 
Q 2763 1116 2763 1650 
Q 2763 2219 2556 2470 
Q 2350 2722 2028 2722 
Q 1713 2722 1503 2476 
Q 1294 2231 1294 1731 
z
" transform="scale(0.015625)"/>
       <path id="Arial-BoldMT-72" d="M 1300 0 
L 422 0 
L 422 3319 
L 1238 3319 
L 1238 2847 
Q 1447 3181 1614 3287 
Q 1781 3394 1994 3394 
Q 2294 3394 2572 3228 
L 2300 2463 
Q 2078 2606 1888 2606 
Q 1703 2606 1575 2504 
Q 1447 2403 1373 2137 
Q 1300 1872 1300 1025 
L 1300 0 
z
" transform="scale(0.015625)"/>
       <path id="Arial-BoldMT-66" d="M 75 3319 
L 563 3319 
L 563 3569 
Q 563 3988 652 4194 
Q 741 4400 980 4529 
Q 1219 4659 1584 4659 
Q 1959 4659 2319 4547 
L 2200 3934 
Q 1991 3984 1797 3984 
Q 1606 3984 1523 3895 
Q 1441 3806 1441 3553 
L 1441 3319 
L 2097 3319 
L 2097 2628 
L 1441 2628 
L 1441 0 
L 563 0 
L 563 2628 
L 75 2628 
L 75 3319 
z
" transform="scale(0.015625)"/>
       <path id="Arial-BoldMT-6e" d="M 3478 0 
L 2600 0 
L 2600 1694 
Q 2600 2231 2544 2389 
Q 2488 2547 2361 2634 
Q 2234 2722 2056 2722 
Q 1828 2722 1647 2597 
Q 1466 2472 1398 2265 
Q 1331 2059 1331 1503 
L 1331 0 
L 453 0 
L 453 3319 
L 1269 3319 
L 1269 2831 
Q 1703 3394 2363 3394 
Q 2653 3394 2893 3289 
Q 3134 3184 3257 3021 
Q 3381 2859 3429 2653 
Q 3478 2447 3478 2063 
L 3478 0 
z
" transform="scale(0.015625)"/>
      </defs>
      <use xlink:href="#Arial-BoldMT-4e"/>
      <use xlink:href="#Arial-BoldMT-75" x="72.216797"/>
      <use xlink:href="#Arial-BoldMT-6d" x="133.300781"/>
      <use xlink:href="#Arial-BoldMT-62" x="222.216797"/>
      <use xlink:href="#Arial-BoldMT-65" x="283.300781"/>
      <use xlink:href="#Arial-BoldMT-72" x="338.916016"/>
      <use xlink:href="#Arial-BoldMT-20" x="377.832031"/>
      <use xlink:href="#Arial-BoldMT-6f" x="405.615234"/>
      <use xlink:href="#Arial-BoldMT-66" x="466.699219"/>
      <use xlink:href="#Arial-BoldMT-20" x="500"/>
      <use xlink:href="#Arial-BoldMT-73" x="527.783203"/>
      <use xlink:href="#Arial-BoldMT-74" x="583.398438"/>
      <use xlink:href="#Arial-BoldMT-72" x="616.699219"/>
      <use xlink:href="#Arial-BoldMT-61" x="655.615234"/>
      <use xlink:href="#Arial-BoldMT-69" x="711.230469"/>
      <use xlink:href="#Arial-BoldMT-6e" x="739.013672"/>
      <use xlink:href="#Arial-BoldMT-73" x="800.097656"/>
     </g>
    </g>
   </g>
   <g id="patch_43">
    <path d="M 38.453125 104.949375 
L 38.453125 21.789375 
" style="fill: none; stroke: #000000; stroke-linejoin: miter; stroke-linecap: square"/>
   </g>
   <g id="patch_44">
    <path d="M 317.453125 104.949375 
L 317.453125 21.789375 
" style="fill: none; stroke: #000000; stroke-linejoin: miter; stroke-linecap: square"/>
   </g>
   <g id="patch_45">
    <path d="M 38.453125 104.949375 
L 317.453125 104.949375 
" style="fill: none; stroke: #000000; stroke-linejoin: miter; stroke-linecap: square"/>
   </g>
   <g id="patch_46">
    <path d="M 38.453125 21.789375 
L 317.453125 21.789375 
" style="fill: none; stroke: #000000; stroke-linejoin: miter; stroke-linecap: square"/>
   </g>
   <g id="text_15">
    <!-- RNAseq samples growth condition -->
    <g transform="translate(78.616563 15.789375) scale(0.12 -0.12)">
     <defs>
      <path id="Arial-BoldMT-52" d="M 469 0 
L 469 4581 
L 2416 4581 
Q 3150 4581 3483 4457 
Q 3816 4334 4016 4018 
Q 4216 3703 4216 3297 
Q 4216 2781 3912 2445 
Q 3609 2109 3006 2022 
Q 3306 1847 3501 1637 
Q 3697 1428 4028 894 
L 4588 0 
L 3481 0 
L 2813 997 
Q 2456 1531 2325 1670 
Q 2194 1809 2047 1861 
Q 1900 1913 1581 1913 
L 1394 1913 
L 1394 0 
L 469 0 
z
M 1394 2644 
L 2078 2644 
Q 2744 2644 2909 2700 
Q 3075 2756 3169 2893 
Q 3263 3031 3263 3238 
Q 3263 3469 3139 3611 
Q 3016 3753 2791 3791 
Q 2678 3806 2116 3806 
L 1394 3806 
L 1394 2644 
z
" transform="scale(0.015625)"/>
      <path id="Arial-BoldMT-41" d="M 4597 0 
L 3591 0 
L 3191 1041 
L 1359 1041 
L 981 0 
L 0 0 
L 1784 4581 
L 2763 4581 
L 4597 0 
z
M 2894 1813 
L 2263 3513 
L 1644 1813 
L 2894 1813 
z
" transform="scale(0.015625)"/>
      <path id="Arial-BoldMT-71" d="M 2628 -1263 
L 2628 406 
Q 2456 184 2200 54 
Q 1944 -75 1647 -75 
Q 1081 -75 716 350 
Q 284 847 284 1697 
Q 284 2497 689 2945 
Q 1094 3394 1694 3394 
Q 2025 3394 2267 3253 
Q 2509 3113 2697 2828 
L 2697 3319 
L 3506 3319 
L 3506 -1263 
L 2628 -1263 
z
M 2656 1700 
Q 2656 2209 2448 2457 
Q 2241 2706 1928 2706 
Q 1609 2706 1395 2453 
Q 1181 2200 1181 1650 
Q 1181 1103 1387 861 
Q 1594 619 1897 619 
Q 2200 619 2428 891 
Q 2656 1163 2656 1700 
z
" transform="scale(0.015625)"/>
      <path id="Arial-BoldMT-77" d="M 1078 0 
L 28 3319 
L 881 3319 
L 1503 1144 
L 2075 3319 
L 2922 3319 
L 3475 1144 
L 4109 3319 
L 4975 3319 
L 3909 0 
L 3066 0 
L 2494 2134 
L 1931 0 
L 1078 0 
z
" transform="scale(0.015625)"/>
      <path id="Arial-BoldMT-63" d="M 3353 2338 
L 2488 2181 
Q 2444 2441 2289 2572 
Q 2134 2703 1888 2703 
Q 1559 2703 1364 2476 
Q 1169 2250 1169 1719 
Q 1169 1128 1367 884 
Q 1566 641 1900 641 
Q 2150 641 2309 783 
Q 2469 925 2534 1272 
L 3397 1125 
Q 3263 531 2881 228 
Q 2500 -75 1859 -75 
Q 1131 -75 698 384 
Q 266 844 266 1656 
Q 266 2478 700 2936 
Q 1134 3394 1875 3394 
Q 2481 3394 2839 3133 
Q 3197 2872 3353 2338 
z
" transform="scale(0.015625)"/>
     </defs>
     <use xlink:href="#Arial-BoldMT-52"/>
     <use xlink:href="#Arial-BoldMT-4e" x="72.216797"/>
     <use xlink:href="#Arial-BoldMT-41" x="144.433594"/>
     <use xlink:href="#Arial-BoldMT-73" x="216.650391"/>
     <use xlink:href="#Arial-BoldMT-65" x="272.265625"/>
     <use xlink:href="#Arial-BoldMT-71" x="327.880859"/>
     <use xlink:href="#Arial-BoldMT-20" x="388.964844"/>
     <use xlink:href="#Arial-BoldMT-73" x="416.748047"/>
     <use xlink:href="#Arial-BoldMT-61" x="472.363281"/>
     <use xlink:href="#Arial-BoldMT-6d" x="527.978516"/>
     <use xlink:href="#Arial-BoldMT-70" x="616.894531"/>
     <use xlink:href="#Arial-BoldMT-6c" x="677.978516"/>
     <use xlink:href="#Arial-BoldMT-65" x="705.761719"/>
     <use xlink:href="#Arial-BoldMT-73" x="761.376953"/>
     <use xlink:href="#Arial-BoldMT-20" x="816.992188"/>
     <use xlink:href="#Arial-BoldMT-67" x="844.775391"/>
     <use xlink:href="#Arial-BoldMT-72" x="905.859375"/>
     <use xlink:href="#Arial-BoldMT-6f" x="944.775391"/>
     <use xlink:href="#Arial-BoldMT-77" x="1005.859375"/>
     <use xlink:href="#Arial-BoldMT-74" x="1083.642578"/>
     <use xlink:href="#Arial-BoldMT-68" x="1116.943359"/>
     <use xlink:href="#Arial-BoldMT-20" x="1178.027344"/>
     <use xlink:href="#Arial-BoldMT-63" x="1205.810547"/>
     <use xlink:href="#Arial-BoldMT-6f" x="1261.425781"/>
     <use xlink:href="#Arial-BoldMT-6e" x="1322.509766"/>
     <use xlink:href="#Arial-BoldMT-64" x="1383.59375"/>
     <use xlink:href="#Arial-BoldMT-69" x="1444.677734"/>
     <use xlink:href="#Arial-BoldMT-74" x="1472.460938"/>
     <use xlink:href="#Arial-BoldMT-69" x="1505.761719"/>
     <use xlink:href="#Arial-BoldMT-6f" x="1533.544922"/>
     <use xlink:href="#Arial-BoldMT-6e" x="1594.628906"/>
    </g>
   </g>
  </g>
 </g>
 <defs>
  <clipPath id="pf91d60b3b4">
   <rect x="38.453125" y="21.789375" width="279" height="83.16"/>
  </clipPath>
 </defs>
</svg>
