<?xml version="1.0" encoding="utf-8" standalone="no"?>
<!DOCTYPE svg PUBLIC "-//W3C//DTD SVG 1.1//EN"
  "http://www.w3.org/Graphics/SVG/1.1/DTD/svg11.dtd">
<svg xmlns:xlink="http://www.w3.org/1999/xlink" width="257.180551pt" height="293.813125pt" viewBox="0 0 257.180551 293.813125" xmlns="http://www.w3.org/2000/svg" version="1.1">
 <metadata>
  <rdf:RDF xmlns:dc="http://purl.org/dc/elements/1.1/" xmlns:cc="http://creativecommons.org/ns#" xmlns:rdf="http://www.w3.org/1999/02/22-rdf-syntax-ns#">
   <cc:Work>
    <dc:type rdf:resource="http://purl.org/dc/dcmitype/StillImage"/>
    <dc:date>2024-03-27T20:35:20.315032</dc:date>
    <dc:format>image/svg+xml</dc:format>
    <dc:creator>
     <cc:Agent>
      <dc:title>Matplotlib v3.8.0, https://matplotlib.org/</dc:title>
     </cc:Agent>
    </dc:creator>
   </cc:Work>
  </rdf:RDF>
 </metadata>
 <defs>
  <style type="text/css">*{stroke-linejoin: round; stroke-linecap: butt}</style>
 </defs>
 <g id="figure_1">
  <g id="patch_1">
   <path d="M 0 293.813125 
L 257.180551 293.813125 
L 257.180551 0 
L 0 0 
L 0 293.813125 
z
" style="fill: none"/>
  </g>
  <g id="axes_1">
   <g id="LineCollection_1">
    <path d="M 47.128937 43.510409 
L 47.128937 43.510409 
L 47.128937 52.140323 
L 47.128937 52.140323 
" clip-path="url(#p26d6e83539)" style="fill: none; stroke: #333333; stroke-width: 0.5"/>
    <path d="M 47.128937 34.880496 
L 47.128937 34.880496 
L 47.128937 47.825366 
L 47.128937 47.825366 
" clip-path="url(#p26d6e83539)" style="fill: none; stroke: #333333; stroke-width: 0.5"/>
    <path d="M 47.128937 26.250582 
L 47.128937 26.250582 
L 47.128937 41.352931 
L 47.128937 41.352931 
" clip-path="url(#p26d6e83539)" style="fill: none; stroke: #333333; stroke-width: 0.5"/>
    <path d="M 47.128937 78.030065 
L 47.128937 78.030065 
L 47.128937 86.659978 
L 47.128937 86.659978 
" clip-path="url(#p26d6e83539)" style="fill: none; stroke: #333333; stroke-width: 0.5"/>
    <path d="M 47.128937 69.400151 
L 47.128937 69.400151 
L 47.128937 82.345022 
L 47.128937 82.345022 
" clip-path="url(#p26d6e83539)" style="fill: none; stroke: #333333; stroke-width: 0.5"/>
    <path d="M 47.128937 60.770237 
L 47.128937 60.770237 
L 47.128937 75.872586 
L 47.128937 75.872586 
" clip-path="url(#p26d6e83539)" style="fill: none; stroke: #333333; stroke-width: 0.5"/>
    <path d="M 47.128937 103.919806 
L 47.128937 103.919806 
L 47.128937 112.54972 
L 47.128937 112.54972 
" clip-path="url(#p26d6e83539)" style="fill: none; stroke: #333333; stroke-width: 0.5"/>
    <path d="M 47.128937 95.289892 
L 42.798862 95.289892 
L 42.798862 108.234763 
L 47.128937 108.234763 
" clip-path="url(#p26d6e83539)" style="fill: none; stroke: #333333; stroke-width: 0.5"/>
    <path d="M 47.128937 68.321412 
L 38.783807 68.321412 
L 38.783807 101.762328 
L 42.798862 101.762328 
" clip-path="url(#p26d6e83539)" style="fill: none; stroke: #333333; stroke-width: 0.5"/>
    <path d="M 47.128937 33.801756 
L 37.088555 33.801756 
L 37.088555 85.04187 
L 38.783807 85.04187 
" clip-path="url(#p26d6e83539)" style="fill: none; stroke: #333333; stroke-width: 0.5"/>
    <path d="M 47.128937 147.069375 
L 47.128937 147.069375 
L 47.128937 155.699289 
L 47.128937 155.699289 
" clip-path="url(#p26d6e83539)" style="fill: none; stroke: #333333; stroke-width: 0.5"/>
    <path d="M 47.128937 138.439461 
L 47.128937 138.439461 
L 47.128937 151.384332 
L 47.128937 151.384332 
" clip-path="url(#p26d6e83539)" style="fill: none; stroke: #333333; stroke-width: 0.5"/>
    <path d="M 47.128937 129.809547 
L 47.128937 129.809547 
L 47.128937 144.911897 
L 47.128937 144.911897 
" clip-path="url(#p26d6e83539)" style="fill: none; stroke: #333333; stroke-width: 0.5"/>
    <path d="M 47.128937 121.179634 
L 47.128937 121.179634 
L 47.128937 137.360722 
L 47.128937 137.360722 
" clip-path="url(#p26d6e83539)" style="fill: none; stroke: #333333; stroke-width: 0.5"/>
    <path d="M 47.128937 172.959116 
L 47.128937 172.959116 
L 47.128937 181.58903 
L 47.128937 181.58903 
" clip-path="url(#p26d6e83539)" style="fill: none; stroke: #333333; stroke-width: 0.5"/>
    <path d="M 47.128937 164.329203 
L 42.798862 164.329203 
L 42.798862 177.274073 
L 47.128937 177.274073 
" clip-path="url(#p26d6e83539)" style="fill: none; stroke: #333333; stroke-width: 0.5"/>
    <path d="M 47.128937 129.270178 
L 39.474373 129.270178 
L 39.474373 170.801638 
L 42.798862 170.801638 
" clip-path="url(#p26d6e83539)" style="fill: none; stroke: #333333; stroke-width: 0.5"/>
    <path d="M 47.128937 216.108685 
L 47.128937 216.108685 
L 47.128937 224.738599 
L 47.128937 224.738599 
" clip-path="url(#p26d6e83539)" style="fill: none; stroke: #333333; stroke-width: 0.5"/>
    <path d="M 47.128937 207.478772 
L 47.128937 207.478772 
L 47.128937 220.423642 
L 47.128937 220.423642 
" clip-path="url(#p26d6e83539)" style="fill: none; stroke: #333333; stroke-width: 0.5"/>
    <path d="M 47.128937 198.848858 
L 47.128937 198.848858 
L 47.128937 213.951207 
L 47.128937 213.951207 
" clip-path="url(#p26d6e83539)" style="fill: none; stroke: #333333; stroke-width: 0.5"/>
    <path d="M 47.128937 190.218944 
L 42.385577 190.218944 
L 42.385577 206.400032 
L 47.128937 206.400032 
" clip-path="url(#p26d6e83539)" style="fill: none; stroke: #333333; stroke-width: 0.5"/>
    <path d="M 47.128937 233.368513 
L 47.128937 233.368513 
L 47.128937 241.998427 
L 47.128937 241.998427 
" clip-path="url(#p26d6e83539)" style="fill: none; stroke: #333333; stroke-width: 0.5"/>
    <path d="M 47.128937 259.258254 
L 47.128937 259.258254 
L 47.128937 267.888168 
L 47.128937 267.888168 
" clip-path="url(#p26d6e83539)" style="fill: none; stroke: #333333; stroke-width: 0.5"/>
    <path d="M 47.128937 250.628341 
L 47.128937 250.628341 
L 47.128937 263.573211 
L 47.128937 263.573211 
" clip-path="url(#p26d6e83539)" style="fill: none; stroke: #333333; stroke-width: 0.5"/>
    <path d="M 47.128937 237.68347 
L 41.319532 237.68347 
L 41.319532 257.100776 
L 47.128937 257.100776 
" clip-path="url(#p26d6e83539)" style="fill: none; stroke: #333333; stroke-width: 0.5"/>
    <path d="M 42.385577 198.309488 
L 37.207488 198.309488 
L 37.207488 247.392123 
L 41.319532 247.392123 
" clip-path="url(#p26d6e83539)" style="fill: none; stroke: #333333; stroke-width: 0.5"/>
    <path d="M 39.474373 150.035908 
L 35.775384 150.035908 
L 35.775384 222.850805 
L 37.207488 222.850805 
" clip-path="url(#p26d6e83539)" style="fill: none; stroke: #333333; stroke-width: 0.5"/>
    <path d="M 37.088555 59.421813 
L 31.349522 59.421813 
L 31.349522 186.443357 
L 35.775384 186.443357 
" clip-path="url(#p26d6e83539)" style="fill: none; stroke: #333333; stroke-width: 0.5"/>
   </g>
  </g>
  <g id="axes_2"/>
  <g id="axes_3">
   <g id="patch_2">
    <path d="M 48.235074 272.203125 
L 197.350551 272.203125 
L 197.350551 21.935625 
L 48.235074 21.935625 
L 48.235074 272.203125 
z
" style="fill: none"/>
   </g>
   <g id="QuadMesh_1">
    <path d="M 48.235074 21.935625 
L 85.513943 21.935625 
L 85.513943 30.565539 
L 48.235074 30.565539 
L 48.235074 21.935625 
" clip-path="url(#paec57075bd)" style="fill: #67000d"/>
    <path d="M 85.513943 21.935625 
L 122.792812 21.935625 
L 122.792812 30.565539 
L 85.513943 30.565539 
L 85.513943 21.935625 
" clip-path="url(#paec57075bd)" style="fill: #67000d"/>
    <path d="M 122.792812 21.935625 
L 160.071682 21.935625 
L 160.071682 30.565539 
L 122.792812 30.565539 
L 122.792812 21.935625 
" clip-path="url(#paec57075bd)" style="fill: #fff5f0"/>
    <path d="M 160.071682 21.935625 
L 197.350551 21.935625 
L 197.350551 30.565539 
L 160.071682 30.565539 
L 160.071682 21.935625 
" clip-path="url(#paec57075bd)" style="fill: #67000d"/>
    <path d="M 48.235074 30.565539 
L 85.513943 30.565539 
L 85.513943 39.195453 
L 48.235074 39.195453 
L 48.235074 30.565539 
" clip-path="url(#paec57075bd)" style="fill: #67000d"/>
    <path d="M 85.513943 30.565539 
L 122.792812 30.565539 
L 122.792812 39.195453 
L 85.513943 39.195453 
L 85.513943 30.565539 
" clip-path="url(#paec57075bd)" style="fill: #67000d"/>
    <path d="M 122.792812 30.565539 
L 160.071682 30.565539 
L 160.071682 39.195453 
L 122.792812 39.195453 
L 122.792812 30.565539 
" clip-path="url(#paec57075bd)" style="fill: #fff5f0"/>
    <path d="M 160.071682 30.565539 
L 197.350551 30.565539 
L 197.350551 39.195453 
L 160.071682 39.195453 
L 160.071682 30.565539 
" clip-path="url(#paec57075bd)" style="fill: #67000d"/>
    <path d="M 48.235074 39.195453 
L 85.513943 39.195453 
L 85.513943 47.825366 
L 48.235074 47.825366 
L 48.235074 39.195453 
" clip-path="url(#paec57075bd)" style="fill: #67000d"/>
    <path d="M 85.513943 39.195453 
L 122.792812 39.195453 
L 122.792812 47.825366 
L 85.513943 47.825366 
L 85.513943 39.195453 
" clip-path="url(#paec57075bd)" style="fill: #67000d"/>
    <path d="M 122.792812 39.195453 
L 160.071682 39.195453 
L 160.071682 47.825366 
L 122.792812 47.825366 
L 122.792812 39.195453 
" clip-path="url(#paec57075bd)" style="fill: #fff5f0"/>
    <path d="M 160.071682 39.195453 
L 197.350551 39.195453 
L 197.350551 47.825366 
L 160.071682 47.825366 
L 160.071682 39.195453 
" clip-path="url(#paec57075bd)" style="fill: #67000d"/>
    <path d="M 48.235074 47.825366 
L 85.513943 47.825366 
L 85.513943 56.45528 
L 48.235074 56.45528 
L 48.235074 47.825366 
" clip-path="url(#paec57075bd)" style="fill: #67000d"/>
    <path d="M 85.513943 47.825366 
L 122.792812 47.825366 
L 122.792812 56.45528 
L 85.513943 56.45528 
L 85.513943 47.825366 
" clip-path="url(#paec57075bd)" style="fill: #67000d"/>
    <path d="M 122.792812 47.825366 
L 160.071682 47.825366 
L 160.071682 56.45528 
L 122.792812 56.45528 
L 122.792812 47.825366 
" clip-path="url(#paec57075bd)" style="fill: #fff5f0"/>
    <path d="M 160.071682 47.825366 
L 197.350551 47.825366 
L 197.350551 56.45528 
L 160.071682 56.45528 
L 160.071682 47.825366 
" clip-path="url(#paec57075bd)" style="fill: #67000d"/>
    <path d="M 48.235074 56.45528 
L 85.513943 56.45528 
L 85.513943 65.085194 
L 48.235074 65.085194 
L 48.235074 56.45528 
" clip-path="url(#paec57075bd)" style="fill: #fff5f0"/>
    <path d="M 85.513943 56.45528 
L 122.792812 56.45528 
L 122.792812 65.085194 
L 85.513943 65.085194 
L 85.513943 56.45528 
" clip-path="url(#paec57075bd)" style="fill: #67000d"/>
    <path d="M 122.792812 56.45528 
L 160.071682 56.45528 
L 160.071682 65.085194 
L 122.792812 65.085194 
L 122.792812 56.45528 
" clip-path="url(#paec57075bd)" style="fill: #67000d"/>
    <path d="M 160.071682 56.45528 
L 197.350551 56.45528 
L 197.350551 65.085194 
L 160.071682 65.085194 
L 160.071682 56.45528 
" clip-path="url(#paec57075bd)" style="fill: #67000d"/>
    <path d="M 48.235074 65.085194 
L 85.513943 65.085194 
L 85.513943 73.715108 
L 48.235074 73.715108 
L 48.235074 65.085194 
" clip-path="url(#paec57075bd)" style="fill: #fff5f0"/>
    <path d="M 85.513943 65.085194 
L 122.792812 65.085194 
L 122.792812 73.715108 
L 85.513943 73.715108 
L 85.513943 65.085194 
" clip-path="url(#paec57075bd)" style="fill: #67000d"/>
    <path d="M 122.792812 65.085194 
L 160.071682 65.085194 
L 160.071682 73.715108 
L 122.792812 73.715108 
L 122.792812 65.085194 
" clip-path="url(#paec57075bd)" style="fill: #67000d"/>
    <path d="M 160.071682 65.085194 
L 197.350551 65.085194 
L 197.350551 73.715108 
L 160.071682 73.715108 
L 160.071682 65.085194 
" clip-path="url(#paec57075bd)" style="fill: #67000d"/>
    <path d="M 48.235074 73.715108 
L 85.513943 73.715108 
L 85.513943 82.345022 
L 48.235074 82.345022 
L 48.235074 73.715108 
" clip-path="url(#paec57075bd)" style="fill: #fff5f0"/>
    <path d="M 85.513943 73.715108 
L 122.792812 73.715108 
L 122.792812 82.345022 
L 85.513943 82.345022 
L 85.513943 73.715108 
" clip-path="url(#paec57075bd)" style="fill: #67000d"/>
    <path d="M 122.792812 73.715108 
L 160.071682 73.715108 
L 160.071682 82.345022 
L 122.792812 82.345022 
L 122.792812 73.715108 
" clip-path="url(#paec57075bd)" style="fill: #67000d"/>
    <path d="M 160.071682 73.715108 
L 197.350551 73.715108 
L 197.350551 82.345022 
L 160.071682 82.345022 
L 160.071682 73.715108 
" clip-path="url(#paec57075bd)" style="fill: #67000d"/>
    <path d="M 48.235074 82.345022 
L 85.513943 82.345022 
L 85.513943 90.974935 
L 48.235074 90.974935 
L 48.235074 82.345022 
" clip-path="url(#paec57075bd)" style="fill: #fff5f0"/>
    <path d="M 85.513943 82.345022 
L 122.792812 82.345022 
L 122.792812 90.974935 
L 85.513943 90.974935 
L 85.513943 82.345022 
" clip-path="url(#paec57075bd)" style="fill: #67000d"/>
    <path d="M 122.792812 82.345022 
L 160.071682 82.345022 
L 160.071682 90.974935 
L 122.792812 90.974935 
L 122.792812 82.345022 
" clip-path="url(#paec57075bd)" style="fill: #67000d"/>
    <path d="M 160.071682 82.345022 
L 197.350551 82.345022 
L 197.350551 90.974935 
L 160.071682 90.974935 
L 160.071682 82.345022 
" clip-path="url(#paec57075bd)" style="fill: #67000d"/>
    <path d="M 48.235074 90.974935 
L 85.513943 90.974935 
L 85.513943 99.604849 
L 48.235074 99.604849 
L 48.235074 90.974935 
" clip-path="url(#paec57075bd)" style="fill: #fff5f0"/>
    <path d="M 85.513943 90.974935 
L 122.792812 90.974935 
L 122.792812 99.604849 
L 85.513943 99.604849 
L 85.513943 90.974935 
" clip-path="url(#paec57075bd)" style="fill: #67000d"/>
    <path d="M 122.792812 90.974935 
L 160.071682 90.974935 
L 160.071682 99.604849 
L 122.792812 99.604849 
L 122.792812 90.974935 
" clip-path="url(#paec57075bd)" style="fill: #fff5f0"/>
    <path d="M 160.071682 90.974935 
L 197.350551 90.974935 
L 197.350551 99.604849 
L 160.071682 99.604849 
L 160.071682 90.974935 
" clip-path="url(#paec57075bd)" style="fill: #67000d"/>
    <path d="M 48.235074 99.604849 
L 85.513943 99.604849 
L 85.513943 108.234763 
L 48.235074 108.234763 
L 48.235074 99.604849 
" clip-path="url(#paec57075bd)" style="fill: #fff5f0"/>
    <path d="M 85.513943 99.604849 
L 122.792812 99.604849 
L 122.792812 108.234763 
L 85.513943 108.234763 
L 85.513943 99.604849 
" clip-path="url(#paec57075bd)" style="fill: #67000d"/>
    <path d="M 122.792812 99.604849 
L 160.071682 99.604849 
L 160.071682 108.234763 
L 122.792812 108.234763 
L 122.792812 99.604849 
" clip-path="url(#paec57075bd)" style="fill: #fff5f0"/>
    <path d="M 160.071682 99.604849 
L 197.350551 99.604849 
L 197.350551 108.234763 
L 160.071682 108.234763 
L 160.071682 99.604849 
" clip-path="url(#paec57075bd)" style="fill: #fff5f0"/>
    <path d="M 48.235074 108.234763 
L 85.513943 108.234763 
L 85.513943 116.864677 
L 48.235074 116.864677 
L 48.235074 108.234763 
" clip-path="url(#paec57075bd)" style="fill: #fff5f0"/>
    <path d="M 85.513943 108.234763 
L 122.792812 108.234763 
L 122.792812 116.864677 
L 85.513943 116.864677 
L 85.513943 108.234763 
" clip-path="url(#paec57075bd)" style="fill: #67000d"/>
    <path d="M 122.792812 108.234763 
L 160.071682 108.234763 
L 160.071682 116.864677 
L 122.792812 116.864677 
L 122.792812 108.234763 
" clip-path="url(#paec57075bd)" style="fill: #fff5f0"/>
    <path d="M 160.071682 108.234763 
L 197.350551 108.234763 
L 197.350551 116.864677 
L 160.071682 116.864677 
L 160.071682 108.234763 
" clip-path="url(#paec57075bd)" style="fill: #fff5f0"/>
    <path d="M 48.235074 116.864677 
L 85.513943 116.864677 
L 85.513943 125.494591 
L 48.235074 125.494591 
L 48.235074 116.864677 
" clip-path="url(#paec57075bd)" style="fill: #67000d"/>
    <path d="M 85.513943 116.864677 
L 122.792812 116.864677 
L 122.792812 125.494591 
L 85.513943 125.494591 
L 85.513943 116.864677 
" clip-path="url(#paec57075bd)" style="fill: #fff5f0"/>
    <path d="M 122.792812 116.864677 
L 160.071682 116.864677 
L 160.071682 125.494591 
L 122.792812 125.494591 
L 122.792812 116.864677 
" clip-path="url(#paec57075bd)" style="fill: #fff5f0"/>
    <path d="M 160.071682 116.864677 
L 197.350551 116.864677 
L 197.350551 125.494591 
L 160.071682 125.494591 
L 160.071682 116.864677 
" clip-path="url(#paec57075bd)" style="fill: #fff5f0"/>
    <path d="M 48.235074 125.494591 
L 85.513943 125.494591 
L 85.513943 134.124504 
L 48.235074 134.124504 
L 48.235074 125.494591 
" clip-path="url(#paec57075bd)" style="fill: #67000d"/>
    <path d="M 85.513943 125.494591 
L 122.792812 125.494591 
L 122.792812 134.124504 
L 85.513943 134.124504 
L 85.513943 125.494591 
" clip-path="url(#paec57075bd)" style="fill: #fff5f0"/>
    <path d="M 122.792812 125.494591 
L 160.071682 125.494591 
L 160.071682 134.124504 
L 122.792812 134.124504 
L 122.792812 125.494591 
" clip-path="url(#paec57075bd)" style="fill: #fff5f0"/>
    <path d="M 160.071682 125.494591 
L 197.350551 125.494591 
L 197.350551 134.124504 
L 160.071682 134.124504 
L 160.071682 125.494591 
" clip-path="url(#paec57075bd)" style="fill: #fff5f0"/>
    <path d="M 48.235074 134.124504 
L 85.513943 134.124504 
L 85.513943 142.754418 
L 48.235074 142.754418 
L 48.235074 134.124504 
" clip-path="url(#paec57075bd)" style="fill: #67000d"/>
    <path d="M 85.513943 134.124504 
L 122.792812 134.124504 
L 122.792812 142.754418 
L 85.513943 142.754418 
L 85.513943 134.124504 
" clip-path="url(#paec57075bd)" style="fill: #fff5f0"/>
    <path d="M 122.792812 134.124504 
L 160.071682 134.124504 
L 160.071682 142.754418 
L 122.792812 142.754418 
L 122.792812 134.124504 
" clip-path="url(#paec57075bd)" style="fill: #fff5f0"/>
    <path d="M 160.071682 134.124504 
L 197.350551 134.124504 
L 197.350551 142.754418 
L 160.071682 142.754418 
L 160.071682 134.124504 
" clip-path="url(#paec57075bd)" style="fill: #fff5f0"/>
    <path d="M 48.235074 142.754418 
L 85.513943 142.754418 
L 85.513943 151.384332 
L 48.235074 151.384332 
L 48.235074 142.754418 
" clip-path="url(#paec57075bd)" style="fill: #67000d"/>
    <path d="M 85.513943 142.754418 
L 122.792812 142.754418 
L 122.792812 151.384332 
L 85.513943 151.384332 
L 85.513943 142.754418 
" clip-path="url(#paec57075bd)" style="fill: #fff5f0"/>
    <path d="M 122.792812 142.754418 
L 160.071682 142.754418 
L 160.071682 151.384332 
L 122.792812 151.384332 
L 122.792812 142.754418 
" clip-path="url(#paec57075bd)" style="fill: #fff5f0"/>
    <path d="M 160.071682 142.754418 
L 197.350551 142.754418 
L 197.350551 151.384332 
L 160.071682 151.384332 
L 160.071682 142.754418 
" clip-path="url(#paec57075bd)" style="fill: #fff5f0"/>
    <path d="M 48.235074 151.384332 
L 85.513943 151.384332 
L 85.513943 160.014246 
L 48.235074 160.014246 
L 48.235074 151.384332 
" clip-path="url(#paec57075bd)" style="fill: #67000d"/>
    <path d="M 85.513943 151.384332 
L 122.792812 151.384332 
L 122.792812 160.014246 
L 85.513943 160.014246 
L 85.513943 151.384332 
" clip-path="url(#paec57075bd)" style="fill: #fff5f0"/>
    <path d="M 122.792812 151.384332 
L 160.071682 151.384332 
L 160.071682 160.014246 
L 122.792812 160.014246 
L 122.792812 151.384332 
" clip-path="url(#paec57075bd)" style="fill: #fff5f0"/>
    <path d="M 160.071682 151.384332 
L 197.350551 151.384332 
L 197.350551 160.014246 
L 160.071682 160.014246 
L 160.071682 151.384332 
" clip-path="url(#paec57075bd)" style="fill: #fff5f0"/>
    <path d="M 48.235074 160.014246 
L 85.513943 160.014246 
L 85.513943 168.644159 
L 48.235074 168.644159 
L 48.235074 160.014246 
" clip-path="url(#paec57075bd)" style="fill: #67000d"/>
    <path d="M 85.513943 160.014246 
L 122.792812 160.014246 
L 122.792812 168.644159 
L 85.513943 168.644159 
L 85.513943 160.014246 
" clip-path="url(#paec57075bd)" style="fill: #67000d"/>
    <path d="M 122.792812 160.014246 
L 160.071682 160.014246 
L 160.071682 168.644159 
L 122.792812 168.644159 
L 122.792812 160.014246 
" clip-path="url(#paec57075bd)" style="fill: #67000d"/>
    <path d="M 160.071682 160.014246 
L 197.350551 160.014246 
L 197.350551 168.644159 
L 160.071682 168.644159 
L 160.071682 160.014246 
" clip-path="url(#paec57075bd)" style="fill: #fff5f0"/>
    <path d="M 48.235074 168.644159 
L 85.513943 168.644159 
L 85.513943 177.274073 
L 48.235074 177.274073 
L 48.235074 168.644159 
" clip-path="url(#paec57075bd)" style="fill: #67000d"/>
    <path d="M 85.513943 168.644159 
L 122.792812 168.644159 
L 122.792812 177.274073 
L 85.513943 177.274073 
L 85.513943 168.644159 
" clip-path="url(#paec57075bd)" style="fill: #fff5f0"/>
    <path d="M 122.792812 168.644159 
L 160.071682 168.644159 
L 160.071682 177.274073 
L 122.792812 177.274073 
L 122.792812 168.644159 
" clip-path="url(#paec57075bd)" style="fill: #67000d"/>
    <path d="M 160.071682 168.644159 
L 197.350551 168.644159 
L 197.350551 177.274073 
L 160.071682 177.274073 
L 160.071682 168.644159 
" clip-path="url(#paec57075bd)" style="fill: #fff5f0"/>
    <path d="M 48.235074 177.274073 
L 85.513943 177.274073 
L 85.513943 185.903987 
L 48.235074 185.903987 
L 48.235074 177.274073 
" clip-path="url(#paec57075bd)" style="fill: #67000d"/>
    <path d="M 85.513943 177.274073 
L 122.792812 177.274073 
L 122.792812 185.903987 
L 85.513943 185.903987 
L 85.513943 177.274073 
" clip-path="url(#paec57075bd)" style="fill: #fff5f0"/>
    <path d="M 122.792812 177.274073 
L 160.071682 177.274073 
L 160.071682 185.903987 
L 122.792812 185.903987 
L 122.792812 177.274073 
" clip-path="url(#paec57075bd)" style="fill: #67000d"/>
    <path d="M 160.071682 177.274073 
L 197.350551 177.274073 
L 197.350551 185.903987 
L 160.071682 185.903987 
L 160.071682 177.274073 
" clip-path="url(#paec57075bd)" style="fill: #fff5f0"/>
    <path d="M 48.235074 185.903987 
L 85.513943 185.903987 
L 85.513943 194.533901 
L 48.235074 194.533901 
L 48.235074 185.903987 
" clip-path="url(#paec57075bd)" style="fill: #67000d"/>
    <path d="M 85.513943 185.903987 
L 122.792812 185.903987 
L 122.792812 194.533901 
L 85.513943 194.533901 
L 85.513943 185.903987 
" clip-path="url(#paec57075bd)" style="fill: #fff5f0"/>
    <path d="M 122.792812 185.903987 
L 160.071682 185.903987 
L 160.071682 194.533901 
L 122.792812 194.533901 
L 122.792812 185.903987 
" clip-path="url(#paec57075bd)" style="fill: #fff5f0"/>
    <path d="M 160.071682 185.903987 
L 197.350551 185.903987 
L 197.350551 194.533901 
L 160.071682 194.533901 
L 160.071682 185.903987 
" clip-path="url(#paec57075bd)" style="fill: #67000d"/>
    <path d="M 48.235074 194.533901 
L 85.513943 194.533901 
L 85.513943 203.163815 
L 48.235074 203.163815 
L 48.235074 194.533901 
" clip-path="url(#paec57075bd)" style="fill: #67000d"/>
    <path d="M 85.513943 194.533901 
L 122.792812 194.533901 
L 122.792812 203.163815 
L 85.513943 203.163815 
L 85.513943 194.533901 
" clip-path="url(#paec57075bd)" style="fill: #fff5f0"/>
    <path d="M 122.792812 194.533901 
L 160.071682 194.533901 
L 160.071682 203.163815 
L 122.792812 203.163815 
L 122.792812 194.533901 
" clip-path="url(#paec57075bd)" style="fill: #67000d"/>
    <path d="M 160.071682 194.533901 
L 197.350551 194.533901 
L 197.350551 203.163815 
L 160.071682 203.163815 
L 160.071682 194.533901 
" clip-path="url(#paec57075bd)" style="fill: #67000d"/>
    <path d="M 48.235074 203.163815 
L 85.513943 203.163815 
L 85.513943 211.793728 
L 48.235074 211.793728 
L 48.235074 203.163815 
" clip-path="url(#paec57075bd)" style="fill: #67000d"/>
    <path d="M 85.513943 203.163815 
L 122.792812 203.163815 
L 122.792812 211.793728 
L 85.513943 211.793728 
L 85.513943 203.163815 
" clip-path="url(#paec57075bd)" style="fill: #fff5f0"/>
    <path d="M 122.792812 203.163815 
L 160.071682 203.163815 
L 160.071682 211.793728 
L 122.792812 211.793728 
L 122.792812 203.163815 
" clip-path="url(#paec57075bd)" style="fill: #67000d"/>
    <path d="M 160.071682 203.163815 
L 197.350551 203.163815 
L 197.350551 211.793728 
L 160.071682 211.793728 
L 160.071682 203.163815 
" clip-path="url(#paec57075bd)" style="fill: #67000d"/>
    <path d="M 48.235074 211.793728 
L 85.513943 211.793728 
L 85.513943 220.423642 
L 48.235074 220.423642 
L 48.235074 211.793728 
" clip-path="url(#paec57075bd)" style="fill: #67000d"/>
    <path d="M 85.513943 211.793728 
L 122.792812 211.793728 
L 122.792812 220.423642 
L 85.513943 220.423642 
L 85.513943 211.793728 
" clip-path="url(#paec57075bd)" style="fill: #fff5f0"/>
    <path d="M 122.792812 211.793728 
L 160.071682 211.793728 
L 160.071682 220.423642 
L 122.792812 220.423642 
L 122.792812 211.793728 
" clip-path="url(#paec57075bd)" style="fill: #67000d"/>
    <path d="M 160.071682 211.793728 
L 197.350551 211.793728 
L 197.350551 220.423642 
L 160.071682 220.423642 
L 160.071682 211.793728 
" clip-path="url(#paec57075bd)" style="fill: #67000d"/>
    <path d="M 48.235074 220.423642 
L 85.513943 220.423642 
L 85.513943 229.053556 
L 48.235074 229.053556 
L 48.235074 220.423642 
" clip-path="url(#paec57075bd)" style="fill: #67000d"/>
    <path d="M 85.513943 220.423642 
L 122.792812 220.423642 
L 122.792812 229.053556 
L 85.513943 229.053556 
L 85.513943 220.423642 
" clip-path="url(#paec57075bd)" style="fill: #fff5f0"/>
    <path d="M 122.792812 220.423642 
L 160.071682 220.423642 
L 160.071682 229.053556 
L 122.792812 229.053556 
L 122.792812 220.423642 
" clip-path="url(#paec57075bd)" style="fill: #67000d"/>
    <path d="M 160.071682 220.423642 
L 197.350551 220.423642 
L 197.350551 229.053556 
L 160.071682 229.053556 
L 160.071682 220.423642 
" clip-path="url(#paec57075bd)" style="fill: #67000d"/>
    <path d="M 48.235074 229.053556 
L 85.513943 229.053556 
L 85.513943 237.68347 
L 48.235074 237.68347 
L 48.235074 229.053556 
" clip-path="url(#paec57075bd)" style="fill: #fff5f0"/>
    <path d="M 85.513943 229.053556 
L 122.792812 229.053556 
L 122.792812 237.68347 
L 85.513943 237.68347 
L 85.513943 229.053556 
" clip-path="url(#paec57075bd)" style="fill: #fff5f0"/>
    <path d="M 122.792812 229.053556 
L 160.071682 229.053556 
L 160.071682 237.68347 
L 122.792812 237.68347 
L 122.792812 229.053556 
" clip-path="url(#paec57075bd)" style="fill: #67000d"/>
    <path d="M 160.071682 229.053556 
L 197.350551 229.053556 
L 197.350551 237.68347 
L 160.071682 237.68347 
L 160.071682 229.053556 
" clip-path="url(#paec57075bd)" style="fill: #67000d"/>
    <path d="M 48.235074 237.68347 
L 85.513943 237.68347 
L 85.513943 246.313384 
L 48.235074 246.313384 
L 48.235074 237.68347 
" clip-path="url(#paec57075bd)" style="fill: #fff5f0"/>
    <path d="M 85.513943 237.68347 
L 122.792812 237.68347 
L 122.792812 246.313384 
L 85.513943 246.313384 
L 85.513943 237.68347 
" clip-path="url(#paec57075bd)" style="fill: #fff5f0"/>
    <path d="M 122.792812 237.68347 
L 160.071682 237.68347 
L 160.071682 246.313384 
L 122.792812 246.313384 
L 122.792812 237.68347 
" clip-path="url(#paec57075bd)" style="fill: #67000d"/>
    <path d="M 160.071682 237.68347 
L 197.350551 237.68347 
L 197.350551 246.313384 
L 160.071682 246.313384 
L 160.071682 237.68347 
" clip-path="url(#paec57075bd)" style="fill: #67000d"/>
    <path d="M 48.235074 246.313384 
L 85.513943 246.313384 
L 85.513943 254.943297 
L 48.235074 254.943297 
L 48.235074 246.313384 
" clip-path="url(#paec57075bd)" style="fill: #fff5f0"/>
    <path d="M 85.513943 246.313384 
L 122.792812 246.313384 
L 122.792812 254.943297 
L 85.513943 254.943297 
L 85.513943 246.313384 
" clip-path="url(#paec57075bd)" style="fill: #fff5f0"/>
    <path d="M 122.792812 246.313384 
L 160.071682 246.313384 
L 160.071682 254.943297 
L 122.792812 254.943297 
L 122.792812 246.313384 
" clip-path="url(#paec57075bd)" style="fill: #67000d"/>
    <path d="M 160.071682 246.313384 
L 197.350551 246.313384 
L 197.350551 254.943297 
L 160.071682 254.943297 
L 160.071682 246.313384 
" clip-path="url(#paec57075bd)" style="fill: #fff5f0"/>
    <path d="M 48.235074 254.943297 
L 85.513943 254.943297 
L 85.513943 263.573211 
L 48.235074 263.573211 
L 48.235074 254.943297 
" clip-path="url(#paec57075bd)" style="fill: #fff5f0"/>
    <path d="M 85.513943 254.943297 
L 122.792812 254.943297 
L 122.792812 263.573211 
L 85.513943 263.573211 
L 85.513943 254.943297 
" clip-path="url(#paec57075bd)" style="fill: #fff5f0"/>
    <path d="M 122.792812 254.943297 
L 160.071682 254.943297 
L 160.071682 263.573211 
L 122.792812 263.573211 
L 122.792812 254.943297 
" clip-path="url(#paec57075bd)" style="fill: #67000d"/>
    <path d="M 160.071682 254.943297 
L 197.350551 254.943297 
L 197.350551 263.573211 
L 160.071682 263.573211 
L 160.071682 254.943297 
" clip-path="url(#paec57075bd)" style="fill: #fff5f0"/>
    <path d="M 48.235074 263.573211 
L 85.513943 263.573211 
L 85.513943 272.203125 
L 48.235074 272.203125 
L 48.235074 263.573211 
" clip-path="url(#paec57075bd)" style="fill: #fff5f0"/>
    <path d="M 85.513943 263.573211 
L 122.792812 263.573211 
L 122.792812 272.203125 
L 85.513943 272.203125 
L 85.513943 263.573211 
" clip-path="url(#paec57075bd)" style="fill: #fff5f0"/>
    <path d="M 122.792812 263.573211 
L 160.071682 263.573211 
L 160.071682 272.203125 
L 122.792812 272.203125 
L 122.792812 263.573211 
" clip-path="url(#paec57075bd)" style="fill: #67000d"/>
    <path d="M 160.071682 263.573211 
L 197.350551 263.573211 
L 197.350551 272.203125 
L 160.071682 272.203125 
L 160.071682 263.573211 
" clip-path="url(#paec57075bd)" style="fill: #fff5f0"/>
   </g>
   <g id="matplotlib.axis_1">
    <g id="xtick_1">
     <g id="line2d_1">
      <defs>
       <path id="m962322174e" d="M 0 0 
L 0 3.5 
" style="stroke: #000000; stroke-width: 0.8"/>
      </defs>
      <g>
       <use xlink:href="#m962322174e" x="66.874509" y="272.203125" style="stroke: #000000; stroke-width: 0.8"/>
      </g>
     </g>
     <g id="text_1">
      <!-- Wild-type -->
      <g transform="translate(48.912634 284.929375) scale(0.08 -0.08)">
       <defs>
        <path id="Arial-BoldMT-57" d="M 1116 0 
L 22 4581 
L 969 4581 
L 1659 1434 
L 2497 4581 
L 3597 4581 
L 4400 1381 
L 5103 4581 
L 6034 4581 
L 4922 0 
L 3941 0 
L 3028 3425 
L 2119 0 
L 1116 0 
z
" transform="scale(0.015625)"/>
        <path id="Arial-BoldMT-69" d="M 459 3769 
L 459 4581 
L 1338 4581 
L 1338 3769 
L 459 3769 
z
M 459 0 
L 459 3319 
L 1338 3319 
L 1338 0 
L 459 0 
z
" transform="scale(0.015625)"/>
        <path id="Arial-BoldMT-6c" d="M 459 0 
L 459 4581 
L 1338 4581 
L 1338 0 
L 459 0 
z
" transform="scale(0.015625)"/>
        <path id="Arial-BoldMT-64" d="M 3503 0 
L 2688 0 
L 2688 488 
Q 2484 203 2207 64 
Q 1931 -75 1650 -75 
Q 1078 -75 670 386 
Q 263 847 263 1672 
Q 263 2516 659 2955 
Q 1056 3394 1663 3394 
Q 2219 3394 2625 2931 
L 2625 4581 
L 3503 4581 
L 3503 0 
z
M 1159 1731 
Q 1159 1200 1306 963 
Q 1519 619 1900 619 
Q 2203 619 2415 876 
Q 2628 1134 2628 1647 
Q 2628 2219 2422 2470 
Q 2216 2722 1894 2722 
Q 1581 2722 1370 2473 
Q 1159 2225 1159 1731 
z
" transform="scale(0.015625)"/>
        <path id="Arial-BoldMT-2d" d="M 359 1222 
L 359 2100 
L 2084 2100 
L 2084 1222 
L 359 1222 
z
" transform="scale(0.015625)"/>
        <path id="Arial-BoldMT-74" d="M 1981 3319 
L 1981 2619 
L 1381 2619 
L 1381 1281 
Q 1381 875 1398 808 
Q 1416 741 1477 697 
Q 1538 653 1625 653 
Q 1747 653 1978 738 
L 2053 56 
Q 1747 -75 1359 -75 
Q 1122 -75 931 4 
Q 741 84 652 211 
Q 563 338 528 553 
Q 500 706 500 1172 
L 500 2619 
L 97 2619 
L 97 3319 
L 500 3319 
L 500 3978 
L 1381 4491 
L 1381 3319 
L 1981 3319 
z
" transform="scale(0.015625)"/>
        <path id="Arial-BoldMT-79" d="M 44 3319 
L 978 3319 
L 1772 963 
L 2547 3319 
L 3456 3319 
L 2284 125 
L 2075 -453 
Q 1959 -744 1854 -897 
Q 1750 -1050 1614 -1145 
Q 1478 -1241 1279 -1294 
Q 1081 -1347 831 -1347 
Q 578 -1347 334 -1294 
L 256 -606 
Q 463 -647 628 -647 
Q 934 -647 1081 -467 
Q 1228 -288 1306 -9 
L 44 3319 
z
" transform="scale(0.015625)"/>
        <path id="Arial-BoldMT-70" d="M 434 3319 
L 1253 3319 
L 1253 2831 
Q 1413 3081 1684 3237 
Q 1956 3394 2288 3394 
Q 2866 3394 3269 2941 
Q 3672 2488 3672 1678 
Q 3672 847 3265 386 
Q 2859 -75 2281 -75 
Q 2006 -75 1782 34 
Q 1559 144 1313 409 
L 1313 -1263 
L 434 -1263 
L 434 3319 
z
M 1303 1716 
Q 1303 1156 1525 889 
Q 1747 622 2066 622 
Q 2372 622 2575 867 
Q 2778 1113 2778 1672 
Q 2778 2194 2568 2447 
Q 2359 2700 2050 2700 
Q 1728 2700 1515 2451 
Q 1303 2203 1303 1716 
z
" transform="scale(0.015625)"/>
        <path id="Arial-BoldMT-65" d="M 2381 1056 
L 3256 909 
Q 3088 428 2723 176 
Q 2359 -75 1813 -75 
Q 947 -75 531 491 
Q 203 944 203 1634 
Q 203 2459 634 2926 
Q 1066 3394 1725 3394 
Q 2466 3394 2894 2905 
Q 3322 2416 3303 1406 
L 1103 1406 
Q 1113 1016 1316 798 
Q 1519 581 1822 581 
Q 2028 581 2168 693 
Q 2309 806 2381 1056 
z
M 2431 1944 
Q 2422 2325 2234 2523 
Q 2047 2722 1778 2722 
Q 1491 2722 1303 2513 
Q 1116 2303 1119 1944 
L 2431 1944 
z
" transform="scale(0.015625)"/>
       </defs>
       <use xlink:href="#Arial-BoldMT-57"/>
       <use xlink:href="#Arial-BoldMT-69" x="93.509766"/>
       <use xlink:href="#Arial-BoldMT-6c" x="121.292969"/>
       <use xlink:href="#Arial-BoldMT-64" x="149.076172"/>
       <use xlink:href="#Arial-BoldMT-2d" x="210.160156"/>
       <use xlink:href="#Arial-BoldMT-74" x="243.460938"/>
       <use xlink:href="#Arial-BoldMT-79" x="276.761719"/>
       <use xlink:href="#Arial-BoldMT-70" x="332.376953"/>
       <use xlink:href="#Arial-BoldMT-65" x="393.460938"/>
      </g>
     </g>
    </g>
    <g id="xtick_2">
     <g id="line2d_2">
      <g>
       <use xlink:href="#m962322174e" x="104.153378" y="272.203125" style="stroke: #000000; stroke-width: 0.8"/>
      </g>
     </g>
     <g id="text_2">
      <!-- Human -->
      <g transform="translate(90.597128 284.929375) scale(0.08 -0.08)">
       <defs>
        <path id="Arial-BoldMT-48" d="M 469 0 
L 469 4581 
L 1394 4581 
L 1394 2778 
L 3206 2778 
L 3206 4581 
L 4131 4581 
L 4131 0 
L 3206 0 
L 3206 2003 
L 1394 2003 
L 1394 0 
L 469 0 
z
" transform="scale(0.015625)"/>
        <path id="Arial-BoldMT-75" d="M 2644 0 
L 2644 497 
Q 2463 231 2167 78 
Q 1872 -75 1544 -75 
Q 1209 -75 943 72 
Q 678 219 559 484 
Q 441 750 441 1219 
L 441 3319 
L 1319 3319 
L 1319 1794 
Q 1319 1094 1367 936 
Q 1416 778 1544 686 
Q 1672 594 1869 594 
Q 2094 594 2272 717 
Q 2450 841 2515 1023 
Q 2581 1206 2581 1919 
L 2581 3319 
L 3459 3319 
L 3459 0 
L 2644 0 
z
" transform="scale(0.015625)"/>
        <path id="Arial-BoldMT-6d" d="M 394 3319 
L 1203 3319 
L 1203 2866 
Q 1638 3394 2238 3394 
Q 2556 3394 2790 3262 
Q 3025 3131 3175 2866 
Q 3394 3131 3647 3262 
Q 3900 3394 4188 3394 
Q 4553 3394 4806 3245 
Q 5059 3097 5184 2809 
Q 5275 2597 5275 2122 
L 5275 0 
L 4397 0 
L 4397 1897 
Q 4397 2391 4306 2534 
Q 4184 2722 3931 2722 
Q 3747 2722 3584 2609 
Q 3422 2497 3350 2280 
Q 3278 2063 3278 1594 
L 3278 0 
L 2400 0 
L 2400 1819 
Q 2400 2303 2353 2443 
Q 2306 2584 2207 2653 
Q 2109 2722 1941 2722 
Q 1738 2722 1575 2612 
Q 1413 2503 1342 2297 
Q 1272 2091 1272 1613 
L 1272 0 
L 394 0 
L 394 3319 
z
" transform="scale(0.015625)"/>
        <path id="Arial-BoldMT-61" d="M 1116 2306 
L 319 2450 
Q 453 2931 781 3162 
Q 1109 3394 1756 3394 
Q 2344 3394 2631 3255 
Q 2919 3116 3036 2902 
Q 3153 2688 3153 2116 
L 3144 1091 
Q 3144 653 3186 445 
Q 3228 238 3344 0 
L 2475 0 
Q 2441 88 2391 259 
Q 2369 338 2359 363 
Q 2134 144 1878 34 
Q 1622 -75 1331 -75 
Q 819 -75 523 203 
Q 228 481 228 906 
Q 228 1188 362 1408 
Q 497 1628 739 1745 
Q 981 1863 1438 1950 
Q 2053 2066 2291 2166 
L 2291 2253 
Q 2291 2506 2166 2614 
Q 2041 2722 1694 2722 
Q 1459 2722 1328 2630 
Q 1197 2538 1116 2306 
z
M 2291 1594 
Q 2122 1538 1756 1459 
Q 1391 1381 1278 1306 
Q 1106 1184 1106 997 
Q 1106 813 1243 678 
Q 1381 544 1594 544 
Q 1831 544 2047 700 
Q 2206 819 2256 991 
Q 2291 1103 2291 1419 
L 2291 1594 
z
" transform="scale(0.015625)"/>
        <path id="Arial-BoldMT-6e" d="M 3478 0 
L 2600 0 
L 2600 1694 
Q 2600 2231 2544 2389 
Q 2488 2547 2361 2634 
Q 2234 2722 2056 2722 
Q 1828 2722 1647 2597 
Q 1466 2472 1398 2265 
Q 1331 2059 1331 1503 
L 1331 0 
L 453 0 
L 453 3319 
L 1269 3319 
L 1269 2831 
Q 1703 3394 2363 3394 
Q 2653 3394 2893 3289 
Q 3134 3184 3257 3021 
Q 3381 2859 3429 2653 
Q 3478 2447 3478 2063 
L 3478 0 
z
" transform="scale(0.015625)"/>
       </defs>
       <use xlink:href="#Arial-BoldMT-48"/>
       <use xlink:href="#Arial-BoldMT-75" x="72.216797"/>
       <use xlink:href="#Arial-BoldMT-6d" x="133.300781"/>
       <use xlink:href="#Arial-BoldMT-61" x="222.216797"/>
       <use xlink:href="#Arial-BoldMT-6e" x="277.832031"/>
      </g>
     </g>
    </g>
    <g id="xtick_3">
     <g id="line2d_3">
      <g>
       <use xlink:href="#m962322174e" x="141.432247" y="272.203125" style="stroke: #000000; stroke-width: 0.8"/>
      </g>
     </g>
     <g id="text_3">
      <!-- Dairy -->
      <g transform="translate(131.426622 284.929375) scale(0.08 -0.08)">
       <defs>
        <path id="Arial-BoldMT-44" d="M 463 4581 
L 2153 4581 
Q 2725 4581 3025 4494 
Q 3428 4375 3715 4072 
Q 4003 3769 4153 3330 
Q 4303 2891 4303 2247 
Q 4303 1681 4163 1272 
Q 3991 772 3672 463 
Q 3431 228 3022 97 
Q 2716 0 2203 0 
L 463 0 
L 463 4581 
z
M 1388 3806 
L 1388 772 
L 2078 772 
Q 2466 772 2638 816 
Q 2863 872 3011 1006 
Q 3159 1141 3253 1448 
Q 3347 1756 3347 2288 
Q 3347 2819 3253 3103 
Q 3159 3388 2990 3547 
Q 2822 3706 2563 3763 
Q 2369 3806 1803 3806 
L 1388 3806 
z
" transform="scale(0.015625)"/>
        <path id="Arial-BoldMT-72" d="M 1300 0 
L 422 0 
L 422 3319 
L 1238 3319 
L 1238 2847 
Q 1447 3181 1614 3287 
Q 1781 3394 1994 3394 
Q 2294 3394 2572 3228 
L 2300 2463 
Q 2078 2606 1888 2606 
Q 1703 2606 1575 2504 
Q 1447 2403 1373 2137 
Q 1300 1872 1300 1025 
L 1300 0 
z
" transform="scale(0.015625)"/>
       </defs>
       <use xlink:href="#Arial-BoldMT-44"/>
       <use xlink:href="#Arial-BoldMT-61" x="72.216797"/>
       <use xlink:href="#Arial-BoldMT-69" x="127.832031"/>
       <use xlink:href="#Arial-BoldMT-72" x="155.615234"/>
       <use xlink:href="#Arial-BoldMT-79" x="194.53125"/>
      </g>
     </g>
    </g>
    <g id="xtick_4">
     <g id="line2d_4">
      <g>
       <use xlink:href="#m962322174e" x="178.711116" y="272.203125" style="stroke: #000000; stroke-width: 0.8"/>
      </g>
     </g>
     <g id="text_4">
      <!-- Bioethanol -->
      <g transform="translate(158.046741 284.929375) scale(0.08 -0.08)">
       <defs>
        <path id="Arial-BoldMT-42" d="M 469 4581 
L 2300 4581 
Q 2844 4581 3111 4536 
Q 3378 4491 3589 4347 
Q 3800 4203 3940 3964 
Q 4081 3725 4081 3428 
Q 4081 3106 3907 2837 
Q 3734 2569 3438 2434 
Q 3856 2313 4081 2019 
Q 4306 1725 4306 1328 
Q 4306 1016 4161 720 
Q 4016 425 3764 248 
Q 3513 72 3144 31 
Q 2913 6 2028 0 
L 469 0 
L 469 4581 
z
M 1394 3819 
L 1394 2759 
L 2000 2759 
Q 2541 2759 2672 2775 
Q 2909 2803 3045 2939 
Q 3181 3075 3181 3297 
Q 3181 3509 3064 3642 
Q 2947 3775 2716 3803 
Q 2578 3819 1925 3819 
L 1394 3819 
z
M 1394 1997 
L 1394 772 
L 2250 772 
Q 2750 772 2884 800 
Q 3091 838 3220 983 
Q 3350 1128 3350 1372 
Q 3350 1578 3250 1722 
Q 3150 1866 2961 1931 
Q 2772 1997 2141 1997 
L 1394 1997 
z
" transform="scale(0.015625)"/>
        <path id="Arial-BoldMT-6f" d="M 256 1706 
Q 256 2144 472 2553 
Q 688 2963 1083 3178 
Q 1478 3394 1966 3394 
Q 2719 3394 3200 2905 
Q 3681 2416 3681 1669 
Q 3681 916 3195 420 
Q 2709 -75 1972 -75 
Q 1516 -75 1102 131 
Q 688 338 472 736 
Q 256 1134 256 1706 
z
M 1156 1659 
Q 1156 1166 1390 903 
Q 1625 641 1969 641 
Q 2313 641 2545 903 
Q 2778 1166 2778 1666 
Q 2778 2153 2545 2415 
Q 2313 2678 1969 2678 
Q 1625 2678 1390 2415 
Q 1156 2153 1156 1659 
z
" transform="scale(0.015625)"/>
        <path id="Arial-BoldMT-68" d="M 1334 4581 
L 1334 2897 
Q 1759 3394 2350 3394 
Q 2653 3394 2897 3281 
Q 3141 3169 3264 2994 
Q 3388 2819 3433 2606 
Q 3478 2394 3478 1947 
L 3478 0 
L 2600 0 
L 2600 1753 
Q 2600 2275 2550 2415 
Q 2500 2556 2373 2639 
Q 2247 2722 2056 2722 
Q 1838 2722 1666 2615 
Q 1494 2509 1414 2295 
Q 1334 2081 1334 1663 
L 1334 0 
L 456 0 
L 456 4581 
L 1334 4581 
z
" transform="scale(0.015625)"/>
       </defs>
       <use xlink:href="#Arial-BoldMT-42"/>
       <use xlink:href="#Arial-BoldMT-69" x="72.216797"/>
       <use xlink:href="#Arial-BoldMT-6f" x="100"/>
       <use xlink:href="#Arial-BoldMT-65" x="161.083984"/>
       <use xlink:href="#Arial-BoldMT-74" x="216.699219"/>
       <use xlink:href="#Arial-BoldMT-68" x="250"/>
       <use xlink:href="#Arial-BoldMT-61" x="311.083984"/>
       <use xlink:href="#Arial-BoldMT-6e" x="366.699219"/>
       <use xlink:href="#Arial-BoldMT-6f" x="427.783203"/>
       <use xlink:href="#Arial-BoldMT-6c" x="488.867188"/>
      </g>
     </g>
    </g>
   </g>
   <g id="matplotlib.axis_2">
    <g id="ytick_1">
     <g id="line2d_5">
      <defs>
       <path id="m89cf738050" d="M 0 0 
L 3.5 0 
" style="stroke: #000000; stroke-width: 0.8"/>
      </defs>
      <g>
       <use xlink:href="#m89cf738050" x="197.350551" y="26.250582" style="stroke: #000000; stroke-width: 0.8"/>
      </g>
     </g>
     <g id="text_5">
      <!-- YER056C -->
      <g transform="translate(204.350551 29.113707) scale(0.08 -0.08)">
       <defs>
        <path id="Arial-BoldMT-59" d="M 1669 0 
L 1669 1928 
L -9 4581 
L 1075 4581 
L 2153 2769 
L 3209 4581 
L 4275 4581 
L 2591 1922 
L 2591 0 
L 1669 0 
z
" transform="scale(0.015625)"/>
        <path id="Arial-BoldMT-45" d="M 466 0 
L 466 4581 
L 3863 4581 
L 3863 3806 
L 1391 3806 
L 1391 2791 
L 3691 2791 
L 3691 2019 
L 1391 2019 
L 1391 772 
L 3950 772 
L 3950 0 
L 466 0 
z
" transform="scale(0.015625)"/>
        <path id="Arial-BoldMT-52" d="M 469 0 
L 469 4581 
L 2416 4581 
Q 3150 4581 3483 4457 
Q 3816 4334 4016 4018 
Q 4216 3703 4216 3297 
Q 4216 2781 3912 2445 
Q 3609 2109 3006 2022 
Q 3306 1847 3501 1637 
Q 3697 1428 4028 894 
L 4588 0 
L 3481 0 
L 2813 997 
Q 2456 1531 2325 1670 
Q 2194 1809 2047 1861 
Q 1900 1913 1581 1913 
L 1394 1913 
L 1394 0 
L 469 0 
z
M 1394 2644 
L 2078 2644 
Q 2744 2644 2909 2700 
Q 3075 2756 3169 2893 
Q 3263 3031 3263 3238 
Q 3263 3469 3139 3611 
Q 3016 3753 2791 3791 
Q 2678 3806 2116 3806 
L 1394 3806 
L 1394 2644 
z
" transform="scale(0.015625)"/>
        <path id="Arial-BoldMT-30" d="M 1756 4600 
Q 2422 4600 2797 4125 
Q 3244 3563 3244 2259 
Q 3244 959 2794 391 
Q 2422 -78 1756 -78 
Q 1088 -78 678 436 
Q 269 950 269 2269 
Q 269 3563 719 4131 
Q 1091 4600 1756 4600 
z
M 1756 3872 
Q 1597 3872 1472 3770 
Q 1347 3669 1278 3406 
Q 1188 3066 1188 2259 
Q 1188 1453 1269 1151 
Q 1350 850 1473 750 
Q 1597 650 1756 650 
Q 1916 650 2041 751 
Q 2166 853 2234 1116 
Q 2325 1453 2325 2259 
Q 2325 3066 2244 3367 
Q 2163 3669 2039 3770 
Q 1916 3872 1756 3872 
z
" transform="scale(0.015625)"/>
        <path id="Arial-BoldMT-35" d="M 284 1178 
L 1159 1269 
Q 1197 972 1381 798 
Q 1566 625 1806 625 
Q 2081 625 2272 848 
Q 2463 1072 2463 1522 
Q 2463 1944 2273 2155 
Q 2084 2366 1781 2366 
Q 1403 2366 1103 2031 
L 391 2134 
L 841 4519 
L 3163 4519 
L 3163 3697 
L 1506 3697 
L 1369 2919 
Q 1663 3066 1969 3066 
Q 2553 3066 2959 2641 
Q 3366 2216 3366 1538 
Q 3366 972 3038 528 
Q 2591 -78 1797 -78 
Q 1163 -78 763 262 
Q 363 603 284 1178 
z
" transform="scale(0.015625)"/>
        <path id="Arial-BoldMT-36" d="M 3247 3459 
L 2397 3366 
Q 2366 3628 2234 3753 
Q 2103 3878 1894 3878 
Q 1616 3878 1423 3628 
Q 1231 3378 1181 2588 
Q 1509 2975 1997 2975 
Q 2547 2975 2939 2556 
Q 3331 2138 3331 1475 
Q 3331 772 2918 347 
Q 2506 -78 1859 -78 
Q 1166 -78 719 461 
Q 272 1000 272 2228 
Q 272 3488 737 4044 
Q 1203 4600 1947 4600 
Q 2469 4600 2811 4308 
Q 3153 4016 3247 3459 
z
M 1256 1544 
Q 1256 1116 1453 883 
Q 1650 650 1903 650 
Q 2147 650 2309 840 
Q 2472 1031 2472 1466 
Q 2472 1913 2297 2120 
Q 2122 2328 1859 2328 
Q 1606 2328 1431 2129 
Q 1256 1931 1256 1544 
z
" transform="scale(0.015625)"/>
        <path id="Arial-BoldMT-43" d="M 3397 1684 
L 4294 1400 
Q 4088 650 3608 286 
Q 3128 -78 2391 -78 
Q 1478 -78 890 545 
Q 303 1169 303 2250 
Q 303 3394 893 4026 
Q 1484 4659 2447 4659 
Q 3288 4659 3813 4163 
Q 4125 3869 4281 3319 
L 3366 3100 
Q 3284 3456 3026 3662 
Q 2769 3869 2400 3869 
Q 1891 3869 1573 3503 
Q 1256 3138 1256 2319 
Q 1256 1450 1568 1081 
Q 1881 713 2381 713 
Q 2750 713 3015 947 
Q 3281 1181 3397 1684 
z
" transform="scale(0.015625)"/>
       </defs>
       <use xlink:href="#Arial-BoldMT-59"/>
       <use xlink:href="#Arial-BoldMT-45" x="66.699219"/>
       <use xlink:href="#Arial-BoldMT-52" x="133.398438"/>
       <use xlink:href="#Arial-BoldMT-30" x="205.615234"/>
       <use xlink:href="#Arial-BoldMT-35" x="261.230469"/>
       <use xlink:href="#Arial-BoldMT-36" x="316.845703"/>
       <use xlink:href="#Arial-BoldMT-43" x="372.460938"/>
      </g>
     </g>
    </g>
    <g id="ytick_2">
     <g id="line2d_6">
      <g>
       <use xlink:href="#m89cf738050" x="197.350551" y="34.880496" style="stroke: #000000; stroke-width: 0.8"/>
      </g>
     </g>
     <g id="text_6">
      <!-- YGL102C -->
      <g transform="translate(204.350551 37.743621) scale(0.08 -0.08)">
       <defs>
        <path id="Arial-BoldMT-47" d="M 2597 1684 
L 2597 2456 
L 4591 2456 
L 4591 631 
Q 4300 350 3748 136 
Q 3197 -78 2631 -78 
Q 1913 -78 1378 223 
Q 844 525 575 1086 
Q 306 1647 306 2306 
Q 306 3022 606 3578 
Q 906 4134 1484 4431 
Q 1925 4659 2581 4659 
Q 3434 4659 3914 4301 
Q 4394 3944 4531 3313 
L 3613 3141 
Q 3516 3478 3248 3673 
Q 2981 3869 2581 3869 
Q 1975 3869 1617 3484 
Q 1259 3100 1259 2344 
Q 1259 1528 1621 1120 
Q 1984 713 2572 713 
Q 2863 713 3155 827 
Q 3447 941 3656 1103 
L 3656 1684 
L 2597 1684 
z
" transform="scale(0.015625)"/>
        <path id="Arial-BoldMT-4c" d="M 491 0 
L 491 4544 
L 1416 4544 
L 1416 772 
L 3716 772 
L 3716 0 
L 491 0 
z
" transform="scale(0.015625)"/>
        <path id="Arial-BoldMT-31" d="M 2519 0 
L 1641 0 
L 1641 3309 
Q 1159 2859 506 2644 
L 506 3441 
Q 850 3553 1253 3867 
Q 1656 4181 1806 4600 
L 2519 4600 
L 2519 0 
z
" transform="scale(0.015625)"/>
        <path id="Arial-BoldMT-32" d="M 3238 816 
L 3238 0 
L 159 0 
Q 209 463 459 877 
Q 709 1291 1447 1975 
Q 2041 2528 2175 2725 
Q 2356 2997 2356 3263 
Q 2356 3556 2198 3714 
Q 2041 3872 1763 3872 
Q 1488 3872 1325 3706 
Q 1163 3541 1138 3156 
L 263 3244 
Q 341 3969 753 4284 
Q 1166 4600 1784 4600 
Q 2463 4600 2850 4234 
Q 3238 3869 3238 3325 
Q 3238 3016 3127 2736 
Q 3016 2456 2775 2150 
Q 2616 1947 2200 1565 
Q 1784 1184 1673 1059 
Q 1563 934 1494 816 
L 3238 816 
z
" transform="scale(0.015625)"/>
       </defs>
       <use xlink:href="#Arial-BoldMT-59"/>
       <use xlink:href="#Arial-BoldMT-47" x="66.699219"/>
       <use xlink:href="#Arial-BoldMT-4c" x="144.482422"/>
       <use xlink:href="#Arial-BoldMT-31" x="205.566406"/>
       <use xlink:href="#Arial-BoldMT-30" x="261.181641"/>
       <use xlink:href="#Arial-BoldMT-32" x="316.796875"/>
       <use xlink:href="#Arial-BoldMT-43" x="372.412109"/>
      </g>
     </g>
    </g>
    <g id="ytick_3">
     <g id="line2d_7">
      <g>
       <use xlink:href="#m89cf738050" x="197.350551" y="43.510409" style="stroke: #000000; stroke-width: 0.8"/>
      </g>
     </g>
     <g id="text_7">
      <!-- YJL212C -->
      <g transform="translate(204.350551 46.373534) scale(0.08 -0.08)">
       <defs>
        <path id="Arial-BoldMT-4a" d="M 2119 4581 
L 3041 4581 
L 3041 1681 
Q 3041 1113 2941 806 
Q 2806 406 2453 164 
Q 2100 -78 1522 -78 
Q 844 -78 478 301 
Q 113 681 109 1416 
L 981 1516 
Q 997 1122 1097 959 
Q 1247 713 1553 713 
Q 1863 713 1991 889 
Q 2119 1066 2119 1622 
L 2119 4581 
z
" transform="scale(0.015625)"/>
       </defs>
       <use xlink:href="#Arial-BoldMT-59"/>
       <use xlink:href="#Arial-BoldMT-4a" x="66.699219"/>
       <use xlink:href="#Arial-BoldMT-4c" x="122.314453"/>
       <use xlink:href="#Arial-BoldMT-32" x="183.398438"/>
       <use xlink:href="#Arial-BoldMT-31" x="239.013672"/>
       <use xlink:href="#Arial-BoldMT-32" x="294.628906"/>
       <use xlink:href="#Arial-BoldMT-43" x="350.244141"/>
      </g>
     </g>
    </g>
    <g id="ytick_4">
     <g id="line2d_8">
      <g>
       <use xlink:href="#m89cf738050" x="197.350551" y="52.140323" style="stroke: #000000; stroke-width: 0.8"/>
      </g>
     </g>
     <g id="text_8">
      <!-- YLR080W -->
      <g transform="translate(204.350551 55.003448) scale(0.08 -0.08)">
       <defs>
        <path id="Arial-BoldMT-38" d="M 1025 2472 
Q 684 2616 529 2867 
Q 375 3119 375 3419 
Q 375 3931 733 4265 
Q 1091 4600 1750 4600 
Q 2403 4600 2764 4265 
Q 3125 3931 3125 3419 
Q 3125 3100 2959 2851 
Q 2794 2603 2494 2472 
Q 2875 2319 3073 2025 
Q 3272 1731 3272 1347 
Q 3272 713 2867 316 
Q 2463 -81 1791 -81 
Q 1166 -81 750 247 
Q 259 634 259 1309 
Q 259 1681 443 1992 
Q 628 2303 1025 2472 
z
M 1206 3356 
Q 1206 3094 1354 2947 
Q 1503 2800 1750 2800 
Q 2000 2800 2150 2948 
Q 2300 3097 2300 3359 
Q 2300 3606 2151 3754 
Q 2003 3903 1759 3903 
Q 1506 3903 1356 3753 
Q 1206 3603 1206 3356 
z
M 1125 1394 
Q 1125 1031 1311 828 
Q 1497 625 1775 625 
Q 2047 625 2225 820 
Q 2403 1016 2403 1384 
Q 2403 1706 2222 1901 
Q 2041 2097 1763 2097 
Q 1441 2097 1283 1875 
Q 1125 1653 1125 1394 
z
" transform="scale(0.015625)"/>
       </defs>
       <use xlink:href="#Arial-BoldMT-59"/>
       <use xlink:href="#Arial-BoldMT-4c" x="66.699219"/>
       <use xlink:href="#Arial-BoldMT-52" x="127.783203"/>
       <use xlink:href="#Arial-BoldMT-30" x="200"/>
       <use xlink:href="#Arial-BoldMT-38" x="255.615234"/>
       <use xlink:href="#Arial-BoldMT-30" x="311.230469"/>
       <use xlink:href="#Arial-BoldMT-57" x="366.845703"/>
      </g>
     </g>
    </g>
    <g id="ytick_5">
     <g id="line2d_9">
      <g>
       <use xlink:href="#m89cf738050" x="197.350551" y="60.770237" style="stroke: #000000; stroke-width: 0.8"/>
      </g>
     </g>
     <g id="text_9">
      <!-- YDR118W-A -->
      <g transform="translate(204.350551 63.633362) scale(0.08 -0.08)">
       <defs>
        <path id="Arial-BoldMT-41" d="M 4597 0 
L 3591 0 
L 3191 1041 
L 1359 1041 
L 981 0 
L 0 0 
L 1784 4581 
L 2763 4581 
L 4597 0 
z
M 2894 1813 
L 2263 3513 
L 1644 1813 
L 2894 1813 
z
" transform="scale(0.015625)"/>
       </defs>
       <use xlink:href="#Arial-BoldMT-59"/>
       <use xlink:href="#Arial-BoldMT-44" x="66.699219"/>
       <use xlink:href="#Arial-BoldMT-52" x="138.916016"/>
       <use xlink:href="#Arial-BoldMT-31" x="211.132812"/>
       <use xlink:href="#Arial-BoldMT-31" x="261.248047"/>
       <use xlink:href="#Arial-BoldMT-38" x="316.863281"/>
       <use xlink:href="#Arial-BoldMT-57" x="372.478516"/>
       <use xlink:href="#Arial-BoldMT-2d" x="464.863281"/>
       <use xlink:href="#Arial-BoldMT-41" x="498.164062"/>
      </g>
     </g>
    </g>
    <g id="ytick_6">
     <g id="line2d_10">
      <g>
       <use xlink:href="#m89cf738050" x="197.350551" y="69.400151" style="stroke: #000000; stroke-width: 0.8"/>
      </g>
     </g>
     <g id="text_10">
      <!-- YAL026C-A -->
      <g transform="translate(204.350551 72.263276) scale(0.08 -0.08)">
       <use xlink:href="#Arial-BoldMT-59"/>
       <use xlink:href="#Arial-BoldMT-41" x="57.574219"/>
       <use xlink:href="#Arial-BoldMT-4c" x="129.791016"/>
       <use xlink:href="#Arial-BoldMT-30" x="190.875"/>
       <use xlink:href="#Arial-BoldMT-32" x="246.490234"/>
       <use xlink:href="#Arial-BoldMT-36" x="302.105469"/>
       <use xlink:href="#Arial-BoldMT-43" x="357.720703"/>
       <use xlink:href="#Arial-BoldMT-2d" x="429.9375"/>
       <use xlink:href="#Arial-BoldMT-41" x="463.238281"/>
      </g>
     </g>
    </g>
    <g id="ytick_7">
     <g id="line2d_11">
      <g>
       <use xlink:href="#m89cf738050" x="197.350551" y="78.030065" style="stroke: #000000; stroke-width: 0.8"/>
      </g>
     </g>
     <g id="text_11">
      <!-- YNL067W-A -->
      <g transform="translate(204.350551 80.89319) scale(0.08 -0.08)">
       <defs>
        <path id="Arial-BoldMT-4e" d="M 475 0 
L 475 4581 
L 1375 4581 
L 3250 1522 
L 3250 4581 
L 4109 4581 
L 4109 0 
L 3181 0 
L 1334 2988 
L 1334 0 
L 475 0 
z
" transform="scale(0.015625)"/>
        <path id="Arial-BoldMT-37" d="M 272 3703 
L 272 4519 
L 3275 4519 
L 3275 3881 
Q 2903 3516 2518 2831 
Q 2134 2147 1932 1376 
Q 1731 606 1734 0 
L 888 0 
Q 909 950 1279 1937 
Q 1650 2925 2269 3703 
L 272 3703 
z
" transform="scale(0.015625)"/>
       </defs>
       <use xlink:href="#Arial-BoldMT-59"/>
       <use xlink:href="#Arial-BoldMT-4e" x="66.699219"/>
       <use xlink:href="#Arial-BoldMT-4c" x="138.916016"/>
       <use xlink:href="#Arial-BoldMT-30" x="200"/>
       <use xlink:href="#Arial-BoldMT-36" x="255.615234"/>
       <use xlink:href="#Arial-BoldMT-37" x="311.230469"/>
       <use xlink:href="#Arial-BoldMT-57" x="366.845703"/>
       <use xlink:href="#Arial-BoldMT-2d" x="459.230469"/>
       <use xlink:href="#Arial-BoldMT-41" x="492.53125"/>
      </g>
     </g>
    </g>
    <g id="ytick_8">
     <g id="line2d_12">
      <g>
       <use xlink:href="#m89cf738050" x="197.350551" y="86.659978" style="stroke: #000000; stroke-width: 0.8"/>
      </g>
     </g>
     <g id="text_12">
      <!-- YOL038C-A -->
      <g transform="translate(204.350551 89.523103) scale(0.08 -0.08)">
       <defs>
        <path id="Arial-BoldMT-4f" d="M 278 2263 
Q 278 2963 488 3438 
Q 644 3788 914 4066 
Q 1184 4344 1506 4478 
Q 1934 4659 2494 4659 
Q 3506 4659 4114 4031 
Q 4722 3403 4722 2284 
Q 4722 1175 4119 548 
Q 3516 -78 2506 -78 
Q 1484 -78 881 545 
Q 278 1169 278 2263 
z
M 1231 2294 
Q 1231 1516 1590 1114 
Q 1950 713 2503 713 
Q 3056 713 3411 1111 
Q 3766 1509 3766 2306 
Q 3766 3094 3420 3481 
Q 3075 3869 2503 3869 
Q 1931 3869 1581 3476 
Q 1231 3084 1231 2294 
z
" transform="scale(0.015625)"/>
        <path id="Arial-BoldMT-33" d="M 241 1216 
L 1091 1319 
Q 1131 994 1309 822 
Q 1488 650 1741 650 
Q 2013 650 2198 856 
Q 2384 1063 2384 1413 
Q 2384 1744 2206 1937 
Q 2028 2131 1772 2131 
Q 1603 2131 1369 2066 
L 1466 2781 
Q 1822 2772 2009 2936 
Q 2197 3100 2197 3372 
Q 2197 3603 2059 3740 
Q 1922 3878 1694 3878 
Q 1469 3878 1309 3722 
Q 1150 3566 1116 3266 
L 306 3403 
Q 391 3819 561 4067 
Q 731 4316 1036 4458 
Q 1341 4600 1719 4600 
Q 2366 4600 2756 4188 
Q 3078 3850 3078 3425 
Q 3078 2822 2419 2463 
Q 2813 2378 3048 2084 
Q 3284 1791 3284 1375 
Q 3284 772 2843 347 
Q 2403 -78 1747 -78 
Q 1125 -78 715 280 
Q 306 638 241 1216 
z
" transform="scale(0.015625)"/>
       </defs>
       <use xlink:href="#Arial-BoldMT-59"/>
       <use xlink:href="#Arial-BoldMT-4f" x="66.699219"/>
       <use xlink:href="#Arial-BoldMT-4c" x="144.482422"/>
       <use xlink:href="#Arial-BoldMT-30" x="205.566406"/>
       <use xlink:href="#Arial-BoldMT-33" x="261.181641"/>
       <use xlink:href="#Arial-BoldMT-38" x="316.796875"/>
       <use xlink:href="#Arial-BoldMT-43" x="372.412109"/>
       <use xlink:href="#Arial-BoldMT-2d" x="444.628906"/>
       <use xlink:href="#Arial-BoldMT-41" x="477.929688"/>
      </g>
     </g>
    </g>
    <g id="ytick_9">
     <g id="line2d_13">
      <g>
       <use xlink:href="#m89cf738050" x="197.350551" y="95.289892" style="stroke: #000000; stroke-width: 0.8"/>
      </g>
     </g>
     <g id="text_13">
      <!-- YIL020C-A -->
      <g transform="translate(204.350551 98.153017) scale(0.08 -0.08)">
       <defs>
        <path id="Arial-BoldMT-49" d="M 438 0 
L 438 4581 
L 1363 4581 
L 1363 0 
L 438 0 
z
" transform="scale(0.015625)"/>
       </defs>
       <use xlink:href="#Arial-BoldMT-59"/>
       <use xlink:href="#Arial-BoldMT-49" x="66.699219"/>
       <use xlink:href="#Arial-BoldMT-4c" x="94.482422"/>
       <use xlink:href="#Arial-BoldMT-30" x="155.566406"/>
       <use xlink:href="#Arial-BoldMT-32" x="211.181641"/>
       <use xlink:href="#Arial-BoldMT-30" x="266.796875"/>
       <use xlink:href="#Arial-BoldMT-43" x="322.412109"/>
       <use xlink:href="#Arial-BoldMT-2d" x="394.628906"/>
       <use xlink:href="#Arial-BoldMT-41" x="427.929688"/>
      </g>
     </g>
    </g>
    <g id="ytick_10">
     <g id="line2d_14">
      <g>
       <use xlink:href="#m89cf738050" x="197.350551" y="103.919806" style="stroke: #000000; stroke-width: 0.8"/>
      </g>
     </g>
     <g id="text_14">
      <!-- YER046W-A -->
      <g transform="translate(204.350551 106.782931) scale(0.08 -0.08)">
       <defs>
        <path id="Arial-BoldMT-34" d="M 1994 0 
L 1994 922 
L 119 922 
L 119 1691 
L 2106 4600 
L 2844 4600 
L 2844 1694 
L 3413 1694 
L 3413 922 
L 2844 922 
L 2844 0 
L 1994 0 
z
M 1994 1694 
L 1994 3259 
L 941 1694 
L 1994 1694 
z
" transform="scale(0.015625)"/>
       </defs>
       <use xlink:href="#Arial-BoldMT-59"/>
       <use xlink:href="#Arial-BoldMT-45" x="66.699219"/>
       <use xlink:href="#Arial-BoldMT-52" x="133.398438"/>
       <use xlink:href="#Arial-BoldMT-30" x="205.615234"/>
       <use xlink:href="#Arial-BoldMT-34" x="261.230469"/>
       <use xlink:href="#Arial-BoldMT-36" x="316.845703"/>
       <use xlink:href="#Arial-BoldMT-57" x="372.460938"/>
       <use xlink:href="#Arial-BoldMT-2d" x="464.845703"/>
       <use xlink:href="#Arial-BoldMT-41" x="498.146484"/>
      </g>
     </g>
    </g>
    <g id="ytick_11">
     <g id="line2d_15">
      <g>
       <use xlink:href="#m89cf738050" x="197.350551" y="112.54972" style="stroke: #000000; stroke-width: 0.8"/>
      </g>
     </g>
     <g id="text_15">
      <!-- scepan0265 -->
      <g transform="translate(204.350551 115.42472) scale(0.08 -0.08)">
       <defs>
        <path id="Arial-BoldMT-73" d="M 150 947 
L 1031 1081 
Q 1088 825 1259 692 
Q 1431 559 1741 559 
Q 2081 559 2253 684 
Q 2369 772 2369 919 
Q 2369 1019 2306 1084 
Q 2241 1147 2013 1200 
Q 950 1434 666 1628 
Q 272 1897 272 2375 
Q 272 2806 612 3100 
Q 953 3394 1669 3394 
Q 2350 3394 2681 3172 
Q 3013 2950 3138 2516 
L 2309 2363 
Q 2256 2556 2107 2659 
Q 1959 2763 1684 2763 
Q 1338 2763 1188 2666 
Q 1088 2597 1088 2488 
Q 1088 2394 1175 2328 
Q 1294 2241 1995 2081 
Q 2697 1922 2975 1691 
Q 3250 1456 3250 1038 
Q 3250 581 2869 253 
Q 2488 -75 1741 -75 
Q 1063 -75 667 200 
Q 272 475 150 947 
z
" transform="scale(0.015625)"/>
        <path id="Arial-BoldMT-63" d="M 3353 2338 
L 2488 2181 
Q 2444 2441 2289 2572 
Q 2134 2703 1888 2703 
Q 1559 2703 1364 2476 
Q 1169 2250 1169 1719 
Q 1169 1128 1367 884 
Q 1566 641 1900 641 
Q 2150 641 2309 783 
Q 2469 925 2534 1272 
L 3397 1125 
Q 3263 531 2881 228 
Q 2500 -75 1859 -75 
Q 1131 -75 698 384 
Q 266 844 266 1656 
Q 266 2478 700 2936 
Q 1134 3394 1875 3394 
Q 2481 3394 2839 3133 
Q 3197 2872 3353 2338 
z
" transform="scale(0.015625)"/>
       </defs>
       <use xlink:href="#Arial-BoldMT-73"/>
       <use xlink:href="#Arial-BoldMT-63" x="55.615234"/>
       <use xlink:href="#Arial-BoldMT-65" x="111.230469"/>
       <use xlink:href="#Arial-BoldMT-70" x="166.845703"/>
       <use xlink:href="#Arial-BoldMT-61" x="227.929688"/>
       <use xlink:href="#Arial-BoldMT-6e" x="283.544922"/>
       <use xlink:href="#Arial-BoldMT-30" x="344.628906"/>
       <use xlink:href="#Arial-BoldMT-32" x="400.244141"/>
       <use xlink:href="#Arial-BoldMT-36" x="455.859375"/>
       <use xlink:href="#Arial-BoldMT-35" x="511.474609"/>
      </g>
     </g>
    </g>
    <g id="ytick_12">
     <g id="line2d_16">
      <g>
       <use xlink:href="#m89cf738050" x="197.350551" y="121.179634" style="stroke: #000000; stroke-width: 0.8"/>
      </g>
     </g>
     <g id="text_16">
      <!-- YDR540C -->
      <g transform="translate(204.350551 124.042759) scale(0.08 -0.08)">
       <use xlink:href="#Arial-BoldMT-59"/>
       <use xlink:href="#Arial-BoldMT-44" x="66.699219"/>
       <use xlink:href="#Arial-BoldMT-52" x="138.916016"/>
       <use xlink:href="#Arial-BoldMT-35" x="211.132812"/>
       <use xlink:href="#Arial-BoldMT-34" x="266.748047"/>
       <use xlink:href="#Arial-BoldMT-30" x="322.363281"/>
       <use xlink:href="#Arial-BoldMT-43" x="377.978516"/>
      </g>
     </g>
    </g>
    <g id="ytick_13">
     <g id="line2d_17">
      <g>
       <use xlink:href="#m89cf738050" x="197.350551" y="129.809547" style="stroke: #000000; stroke-width: 0.8"/>
      </g>
     </g>
     <g id="text_17">
      <!-- scepan1021 -->
      <g transform="translate(204.350551 132.684547) scale(0.08 -0.08)">
       <use xlink:href="#Arial-BoldMT-73"/>
       <use xlink:href="#Arial-BoldMT-63" x="55.615234"/>
       <use xlink:href="#Arial-BoldMT-65" x="111.230469"/>
       <use xlink:href="#Arial-BoldMT-70" x="166.845703"/>
       <use xlink:href="#Arial-BoldMT-61" x="227.929688"/>
       <use xlink:href="#Arial-BoldMT-6e" x="283.544922"/>
       <use xlink:href="#Arial-BoldMT-31" x="344.628906"/>
       <use xlink:href="#Arial-BoldMT-30" x="400.244141"/>
       <use xlink:href="#Arial-BoldMT-32" x="455.859375"/>
       <use xlink:href="#Arial-BoldMT-31" x="511.474609"/>
      </g>
     </g>
    </g>
    <g id="ytick_14">
     <g id="line2d_18">
      <g>
       <use xlink:href="#m89cf738050" x="197.350551" y="138.439461" style="stroke: #000000; stroke-width: 0.8"/>
      </g>
     </g>
     <g id="text_18">
      <!-- YJL214W -->
      <g transform="translate(204.350551 141.302586) scale(0.08 -0.08)">
       <use xlink:href="#Arial-BoldMT-59"/>
       <use xlink:href="#Arial-BoldMT-4a" x="66.699219"/>
       <use xlink:href="#Arial-BoldMT-4c" x="122.314453"/>
       <use xlink:href="#Arial-BoldMT-32" x="183.398438"/>
       <use xlink:href="#Arial-BoldMT-31" x="239.013672"/>
       <use xlink:href="#Arial-BoldMT-34" x="294.628906"/>
       <use xlink:href="#Arial-BoldMT-57" x="350.244141"/>
      </g>
     </g>
    </g>
    <g id="ytick_15">
     <g id="line2d_19">
      <g>
       <use xlink:href="#m89cf738050" x="197.350551" y="147.069375" style="stroke: #000000; stroke-width: 0.8"/>
      </g>
     </g>
     <g id="text_19">
      <!-- YGL218W -->
      <g transform="translate(204.350551 149.9325) scale(0.08 -0.08)">
       <use xlink:href="#Arial-BoldMT-59"/>
       <use xlink:href="#Arial-BoldMT-47" x="66.699219"/>
       <use xlink:href="#Arial-BoldMT-4c" x="144.482422"/>
       <use xlink:href="#Arial-BoldMT-32" x="205.566406"/>
       <use xlink:href="#Arial-BoldMT-31" x="261.181641"/>
       <use xlink:href="#Arial-BoldMT-38" x="316.796875"/>
       <use xlink:href="#Arial-BoldMT-57" x="372.412109"/>
      </g>
     </g>
    </g>
    <g id="ytick_16">
     <g id="line2d_20">
      <g>
       <use xlink:href="#m89cf738050" x="197.350551" y="155.699289" style="stroke: #000000; stroke-width: 0.8"/>
      </g>
     </g>
     <g id="text_20">
      <!-- YJL215C -->
      <g transform="translate(204.350551 158.562414) scale(0.08 -0.08)">
       <use xlink:href="#Arial-BoldMT-59"/>
       <use xlink:href="#Arial-BoldMT-4a" x="66.699219"/>
       <use xlink:href="#Arial-BoldMT-4c" x="122.314453"/>
       <use xlink:href="#Arial-BoldMT-32" x="183.398438"/>
       <use xlink:href="#Arial-BoldMT-31" x="239.013672"/>
       <use xlink:href="#Arial-BoldMT-35" x="294.628906"/>
       <use xlink:href="#Arial-BoldMT-43" x="350.244141"/>
      </g>
     </g>
    </g>
    <g id="ytick_17">
     <g id="line2d_21">
      <g>
       <use xlink:href="#m89cf738050" x="197.350551" y="164.329203" style="stroke: #000000; stroke-width: 0.8"/>
      </g>
     </g>
     <g id="text_21">
      <!-- YML009C-A -->
      <g transform="translate(204.350551 167.192328) scale(0.08 -0.08)">
       <defs>
        <path id="Arial-BoldMT-4d" d="M 453 0 
L 453 4581 
L 1838 4581 
L 2669 1456 
L 3491 4581 
L 4878 4581 
L 4878 0 
L 4019 0 
L 4019 3606 
L 3109 0 
L 2219 0 
L 1313 3606 
L 1313 0 
L 453 0 
z
" transform="scale(0.015625)"/>
        <path id="Arial-BoldMT-39" d="M 291 1059 
L 1141 1153 
Q 1172 894 1303 769 
Q 1434 644 1650 644 
Q 1922 644 2112 894 
Q 2303 1144 2356 1931 
Q 2025 1547 1528 1547 
Q 988 1547 595 1964 
Q 203 2381 203 3050 
Q 203 3747 617 4173 
Q 1031 4600 1672 4600 
Q 2369 4600 2816 4061 
Q 3263 3522 3263 2288 
Q 3263 1031 2797 475 
Q 2331 -81 1584 -81 
Q 1047 -81 715 205 
Q 384 491 291 1059 
z
M 2278 2978 
Q 2278 3403 2083 3637 
Q 1888 3872 1631 3872 
Q 1388 3872 1227 3680 
Q 1066 3488 1066 3050 
Q 1066 2606 1241 2398 
Q 1416 2191 1678 2191 
Q 1931 2191 2104 2391 
Q 2278 2591 2278 2978 
z
" transform="scale(0.015625)"/>
       </defs>
       <use xlink:href="#Arial-BoldMT-59"/>
       <use xlink:href="#Arial-BoldMT-4d" x="66.699219"/>
       <use xlink:href="#Arial-BoldMT-4c" x="150"/>
       <use xlink:href="#Arial-BoldMT-30" x="211.083984"/>
       <use xlink:href="#Arial-BoldMT-30" x="266.699219"/>
       <use xlink:href="#Arial-BoldMT-39" x="322.314453"/>
       <use xlink:href="#Arial-BoldMT-43" x="377.929688"/>
       <use xlink:href="#Arial-BoldMT-2d" x="450.146484"/>
       <use xlink:href="#Arial-BoldMT-41" x="483.447266"/>
      </g>
     </g>
    </g>
    <g id="ytick_18">
     <g id="line2d_22">
      <g>
       <use xlink:href="#m89cf738050" x="197.350551" y="172.959116" style="stroke: #000000; stroke-width: 0.8"/>
      </g>
     </g>
     <g id="text_22">
      <!-- YOL155W-A -->
      <g transform="translate(204.350551 175.822241) scale(0.08 -0.08)">
       <use xlink:href="#Arial-BoldMT-59"/>
       <use xlink:href="#Arial-BoldMT-4f" x="66.699219"/>
       <use xlink:href="#Arial-BoldMT-4c" x="144.482422"/>
       <use xlink:href="#Arial-BoldMT-31" x="205.566406"/>
       <use xlink:href="#Arial-BoldMT-35" x="261.181641"/>
       <use xlink:href="#Arial-BoldMT-35" x="316.796875"/>
       <use xlink:href="#Arial-BoldMT-57" x="372.412109"/>
       <use xlink:href="#Arial-BoldMT-2d" x="464.796875"/>
       <use xlink:href="#Arial-BoldMT-41" x="498.097656"/>
      </g>
     </g>
    </g>
    <g id="ytick_19">
     <g id="line2d_23">
      <g>
       <use xlink:href="#m89cf738050" x="197.350551" y="181.58903" style="stroke: #000000; stroke-width: 0.8"/>
      </g>
     </g>
     <g id="text_23">
      <!-- YJL135W -->
      <g transform="translate(204.350551 184.452155) scale(0.08 -0.08)">
       <use xlink:href="#Arial-BoldMT-59"/>
       <use xlink:href="#Arial-BoldMT-4a" x="66.699219"/>
       <use xlink:href="#Arial-BoldMT-4c" x="122.314453"/>
       <use xlink:href="#Arial-BoldMT-31" x="183.398438"/>
       <use xlink:href="#Arial-BoldMT-33" x="239.013672"/>
       <use xlink:href="#Arial-BoldMT-35" x="294.628906"/>
       <use xlink:href="#Arial-BoldMT-57" x="350.244141"/>
      </g>
     </g>
    </g>
    <g id="ytick_20">
     <g id="line2d_24">
      <g>
       <use xlink:href="#m89cf738050" x="197.350551" y="190.218944" style="stroke: #000000; stroke-width: 0.8"/>
      </g>
     </g>
     <g id="text_24">
      <!-- YGR289C -->
      <g transform="translate(204.350551 193.082069) scale(0.08 -0.08)">
       <use xlink:href="#Arial-BoldMT-59"/>
       <use xlink:href="#Arial-BoldMT-47" x="66.699219"/>
       <use xlink:href="#Arial-BoldMT-52" x="144.482422"/>
       <use xlink:href="#Arial-BoldMT-32" x="216.699219"/>
       <use xlink:href="#Arial-BoldMT-38" x="272.314453"/>
       <use xlink:href="#Arial-BoldMT-39" x="327.929688"/>
       <use xlink:href="#Arial-BoldMT-43" x="383.544922"/>
      </g>
     </g>
    </g>
    <g id="ytick_21">
     <g id="line2d_25">
      <g>
       <use xlink:href="#m89cf738050" x="197.350551" y="198.848858" style="stroke: #000000; stroke-width: 0.8"/>
      </g>
     </g>
     <g id="text_25">
      <!-- YNL097C-B -->
      <g transform="translate(204.350551 201.711983) scale(0.08 -0.08)">
       <use xlink:href="#Arial-BoldMT-59"/>
       <use xlink:href="#Arial-BoldMT-4e" x="66.699219"/>
       <use xlink:href="#Arial-BoldMT-4c" x="138.916016"/>
       <use xlink:href="#Arial-BoldMT-30" x="200"/>
       <use xlink:href="#Arial-BoldMT-39" x="255.615234"/>
       <use xlink:href="#Arial-BoldMT-37" x="311.230469"/>
       <use xlink:href="#Arial-BoldMT-43" x="366.845703"/>
       <use xlink:href="#Arial-BoldMT-2d" x="439.0625"/>
       <use xlink:href="#Arial-BoldMT-42" x="472.363281"/>
      </g>
     </g>
    </g>
    <g id="ytick_22">
     <g id="line2d_26">
      <g>
       <use xlink:href="#m89cf738050" x="197.350551" y="207.478772" style="stroke: #000000; stroke-width: 0.8"/>
      </g>
     </g>
     <g id="text_26">
      <!-- YPL261C -->
      <g transform="translate(204.350551 210.341897) scale(0.08 -0.08)">
       <defs>
        <path id="Arial-BoldMT-50" d="M 466 0 
L 466 4581 
L 1950 4581 
Q 2794 4581 3050 4513 
Q 3444 4409 3709 4064 
Q 3975 3719 3975 3172 
Q 3975 2750 3822 2462 
Q 3669 2175 3433 2011 
Q 3197 1847 2953 1794 
Q 2622 1728 1994 1728 
L 1391 1728 
L 1391 0 
L 466 0 
z
M 1391 3806 
L 1391 2506 
L 1897 2506 
Q 2444 2506 2628 2578 
Q 2813 2650 2917 2803 
Q 3022 2956 3022 3159 
Q 3022 3409 2875 3571 
Q 2728 3734 2503 3775 
Q 2338 3806 1838 3806 
L 1391 3806 
z
" transform="scale(0.015625)"/>
       </defs>
       <use xlink:href="#Arial-BoldMT-59"/>
       <use xlink:href="#Arial-BoldMT-50" x="66.699219"/>
       <use xlink:href="#Arial-BoldMT-4c" x="133.398438"/>
       <use xlink:href="#Arial-BoldMT-32" x="194.482422"/>
       <use xlink:href="#Arial-BoldMT-36" x="250.097656"/>
       <use xlink:href="#Arial-BoldMT-31" x="305.712891"/>
       <use xlink:href="#Arial-BoldMT-43" x="361.328125"/>
      </g>
     </g>
    </g>
    <g id="ytick_23">
     <g id="line2d_27">
      <g>
       <use xlink:href="#m89cf738050" x="197.350551" y="216.108685" style="stroke: #000000; stroke-width: 0.8"/>
      </g>
     </g>
     <g id="text_27">
      <!-- YPL223C -->
      <g transform="translate(204.350551 218.97181) scale(0.08 -0.08)">
       <use xlink:href="#Arial-BoldMT-59"/>
       <use xlink:href="#Arial-BoldMT-50" x="66.699219"/>
       <use xlink:href="#Arial-BoldMT-4c" x="133.398438"/>
       <use xlink:href="#Arial-BoldMT-32" x="194.482422"/>
       <use xlink:href="#Arial-BoldMT-32" x="250.097656"/>
       <use xlink:href="#Arial-BoldMT-33" x="305.712891"/>
       <use xlink:href="#Arial-BoldMT-43" x="361.328125"/>
      </g>
     </g>
    </g>
    <g id="ytick_24">
     <g id="line2d_28">
      <g>
       <use xlink:href="#m89cf738050" x="197.350551" y="224.738599" style="stroke: #000000; stroke-width: 0.8"/>
      </g>
     </g>
     <g id="text_28">
      <!-- YLR357W -->
      <g transform="translate(204.350551 227.601724) scale(0.08 -0.08)">
       <use xlink:href="#Arial-BoldMT-59"/>
       <use xlink:href="#Arial-BoldMT-4c" x="66.699219"/>
       <use xlink:href="#Arial-BoldMT-52" x="127.783203"/>
       <use xlink:href="#Arial-BoldMT-33" x="200"/>
       <use xlink:href="#Arial-BoldMT-35" x="255.615234"/>
       <use xlink:href="#Arial-BoldMT-37" x="311.230469"/>
       <use xlink:href="#Arial-BoldMT-57" x="366.845703"/>
      </g>
     </g>
    </g>
    <g id="ytick_25">
     <g id="line2d_29">
      <g>
       <use xlink:href="#m89cf738050" x="197.350551" y="233.368513" style="stroke: #000000; stroke-width: 0.8"/>
      </g>
     </g>
     <g id="text_29">
      <!-- scepan1179 -->
      <g transform="translate(204.350551 236.243513) scale(0.08 -0.08)">
       <use xlink:href="#Arial-BoldMT-73"/>
       <use xlink:href="#Arial-BoldMT-63" x="55.615234"/>
       <use xlink:href="#Arial-BoldMT-65" x="111.230469"/>
       <use xlink:href="#Arial-BoldMT-70" x="166.845703"/>
       <use xlink:href="#Arial-BoldMT-61" x="227.929688"/>
       <use xlink:href="#Arial-BoldMT-6e" x="283.544922"/>
       <use xlink:href="#Arial-BoldMT-31" x="344.628906"/>
       <use xlink:href="#Arial-BoldMT-31" x="394.744141"/>
       <use xlink:href="#Arial-BoldMT-37" x="450.359375"/>
       <use xlink:href="#Arial-BoldMT-39" x="505.974609"/>
      </g>
     </g>
    </g>
    <g id="ytick_26">
     <g id="line2d_30">
      <g>
       <use xlink:href="#m89cf738050" x="197.350551" y="241.998427" style="stroke: #000000; stroke-width: 0.8"/>
      </g>
     </g>
     <g id="text_30">
      <!-- YGR064W -->
      <g transform="translate(204.350551 244.861552) scale(0.08 -0.08)">
       <use xlink:href="#Arial-BoldMT-59"/>
       <use xlink:href="#Arial-BoldMT-47" x="66.699219"/>
       <use xlink:href="#Arial-BoldMT-52" x="144.482422"/>
       <use xlink:href="#Arial-BoldMT-30" x="216.699219"/>
       <use xlink:href="#Arial-BoldMT-36" x="272.314453"/>
       <use xlink:href="#Arial-BoldMT-34" x="327.929688"/>
       <use xlink:href="#Arial-BoldMT-57" x="383.544922"/>
      </g>
     </g>
    </g>
    <g id="ytick_27">
     <g id="line2d_31">
      <g>
       <use xlink:href="#m89cf738050" x="197.350551" y="250.628341" style="stroke: #000000; stroke-width: 0.8"/>
      </g>
     </g>
     <g id="text_31">
      <!-- YER097W -->
      <g transform="translate(204.350551 253.491466) scale(0.08 -0.08)">
       <use xlink:href="#Arial-BoldMT-59"/>
       <use xlink:href="#Arial-BoldMT-45" x="66.699219"/>
       <use xlink:href="#Arial-BoldMT-52" x="133.398438"/>
       <use xlink:href="#Arial-BoldMT-30" x="205.615234"/>
       <use xlink:href="#Arial-BoldMT-39" x="261.230469"/>
       <use xlink:href="#Arial-BoldMT-37" x="316.845703"/>
       <use xlink:href="#Arial-BoldMT-57" x="372.460938"/>
      </g>
     </g>
    </g>
    <g id="ytick_28">
     <g id="line2d_32">
      <g>
       <use xlink:href="#m89cf738050" x="197.350551" y="259.258254" style="stroke: #000000; stroke-width: 0.8"/>
      </g>
     </g>
     <g id="text_32">
      <!-- YDL022C-A -->
      <g transform="translate(204.350551 262.121379) scale(0.08 -0.08)">
       <use xlink:href="#Arial-BoldMT-59"/>
       <use xlink:href="#Arial-BoldMT-44" x="66.699219"/>
       <use xlink:href="#Arial-BoldMT-4c" x="138.916016"/>
       <use xlink:href="#Arial-BoldMT-30" x="200"/>
       <use xlink:href="#Arial-BoldMT-32" x="255.615234"/>
       <use xlink:href="#Arial-BoldMT-32" x="311.230469"/>
       <use xlink:href="#Arial-BoldMT-43" x="366.845703"/>
       <use xlink:href="#Arial-BoldMT-2d" x="439.0625"/>
       <use xlink:href="#Arial-BoldMT-41" x="472.363281"/>
      </g>
     </g>
    </g>
    <g id="ytick_29">
     <g id="line2d_33">
      <g>
       <use xlink:href="#m89cf738050" x="197.350551" y="267.888168" style="stroke: #000000; stroke-width: 0.8"/>
      </g>
     </g>
     <g id="text_33">
      <!-- YJL142C -->
      <g transform="translate(204.350551 270.751293) scale(0.08 -0.08)">
       <use xlink:href="#Arial-BoldMT-59"/>
       <use xlink:href="#Arial-BoldMT-4a" x="66.699219"/>
       <use xlink:href="#Arial-BoldMT-4c" x="122.314453"/>
       <use xlink:href="#Arial-BoldMT-31" x="183.398438"/>
       <use xlink:href="#Arial-BoldMT-34" x="239.013672"/>
       <use xlink:href="#Arial-BoldMT-32" x="294.628906"/>
       <use xlink:href="#Arial-BoldMT-43" x="350.244141"/>
      </g>
     </g>
    </g>
   </g>
   <g id="text_34">
    <!-- Top geneMatrix feature accessory genes -->
    <g transform="translate(7.2 15.935625) scale(0.12 -0.12)">
     <defs>
      <path id="Arial-BoldMT-54" d="M 1497 0 
L 1497 3806 
L 138 3806 
L 138 4581 
L 3778 4581 
L 3778 3806 
L 2422 3806 
L 2422 0 
L 1497 0 
z
" transform="scale(0.015625)"/>
      <path id="Arial-BoldMT-20" transform="scale(0.015625)"/>
      <path id="Arial-BoldMT-67" d="M 378 -219 
L 1381 -341 
Q 1406 -516 1497 -581 
Q 1622 -675 1891 -675 
Q 2234 -675 2406 -572 
Q 2522 -503 2581 -350 
Q 2622 -241 2622 53 
L 2622 538 
Q 2228 0 1628 0 
Q 959 0 569 566 
Q 263 1013 263 1678 
Q 263 2513 664 2953 
Q 1066 3394 1663 3394 
Q 2278 3394 2678 2853 
L 2678 3319 
L 3500 3319 
L 3500 341 
Q 3500 -247 3403 -537 
Q 3306 -828 3131 -993 
Q 2956 -1159 2664 -1253 
Q 2372 -1347 1925 -1347 
Q 1081 -1347 728 -1058 
Q 375 -769 375 -325 
Q 375 -281 378 -219 
z
M 1163 1728 
Q 1163 1200 1367 954 
Q 1572 709 1872 709 
Q 2194 709 2416 961 
Q 2638 1213 2638 1706 
Q 2638 2222 2425 2472 
Q 2213 2722 1888 2722 
Q 1572 2722 1367 2476 
Q 1163 2231 1163 1728 
z
" transform="scale(0.015625)"/>
      <path id="Arial-BoldMT-78" d="M 38 0 
L 1234 1709 
L 88 3319 
L 1159 3319 
L 1747 2406 
L 2366 3319 
L 3397 3319 
L 2272 1747 
L 3500 0 
L 2422 0 
L 1747 1028 
L 1066 0 
L 38 0 
z
" transform="scale(0.015625)"/>
      <path id="Arial-BoldMT-66" d="M 75 3319 
L 563 3319 
L 563 3569 
Q 563 3988 652 4194 
Q 741 4400 980 4529 
Q 1219 4659 1584 4659 
Q 1959 4659 2319 4547 
L 2200 3934 
Q 1991 3984 1797 3984 
Q 1606 3984 1523 3895 
Q 1441 3806 1441 3553 
L 1441 3319 
L 2097 3319 
L 2097 2628 
L 1441 2628 
L 1441 0 
L 563 0 
L 563 2628 
L 75 2628 
L 75 3319 
z
" transform="scale(0.015625)"/>
     </defs>
     <use xlink:href="#Arial-BoldMT-54"/>
     <use xlink:href="#Arial-BoldMT-6f" x="53.708984"/>
     <use xlink:href="#Arial-BoldMT-70" x="114.792969"/>
     <use xlink:href="#Arial-BoldMT-20" x="175.876953"/>
     <use xlink:href="#Arial-BoldMT-67" x="203.660156"/>
     <use xlink:href="#Arial-BoldMT-65" x="264.744141"/>
     <use xlink:href="#Arial-BoldMT-6e" x="320.359375"/>
     <use xlink:href="#Arial-BoldMT-65" x="381.443359"/>
     <use xlink:href="#Arial-BoldMT-4d" x="437.058594"/>
     <use xlink:href="#Arial-BoldMT-61" x="520.359375"/>
     <use xlink:href="#Arial-BoldMT-74" x="575.974609"/>
     <use xlink:href="#Arial-BoldMT-72" x="609.275391"/>
     <use xlink:href="#Arial-BoldMT-69" x="648.191406"/>
     <use xlink:href="#Arial-BoldMT-78" x="675.974609"/>
     <use xlink:href="#Arial-BoldMT-20" x="731.589844"/>
     <use xlink:href="#Arial-BoldMT-66" x="759.373047"/>
     <use xlink:href="#Arial-BoldMT-65" x="792.673828"/>
     <use xlink:href="#Arial-BoldMT-61" x="848.289062"/>
     <use xlink:href="#Arial-BoldMT-74" x="903.904297"/>
     <use xlink:href="#Arial-BoldMT-75" x="937.205078"/>
     <use xlink:href="#Arial-BoldMT-72" x="998.289062"/>
     <use xlink:href="#Arial-BoldMT-65" x="1037.205078"/>
     <use xlink:href="#Arial-BoldMT-20" x="1092.820312"/>
     <use xlink:href="#Arial-BoldMT-61" x="1120.603516"/>
     <use xlink:href="#Arial-BoldMT-63" x="1176.21875"/>
     <use xlink:href="#Arial-BoldMT-63" x="1231.833984"/>
     <use xlink:href="#Arial-BoldMT-65" x="1287.449219"/>
     <use xlink:href="#Arial-BoldMT-73" x="1343.064453"/>
     <use xlink:href="#Arial-BoldMT-73" x="1398.679688"/>
     <use xlink:href="#Arial-BoldMT-6f" x="1454.294922"/>
     <use xlink:href="#Arial-BoldMT-72" x="1515.378906"/>
     <use xlink:href="#Arial-BoldMT-79" x="1554.294922"/>
     <use xlink:href="#Arial-BoldMT-20" x="1609.910156"/>
     <use xlink:href="#Arial-BoldMT-67" x="1637.693359"/>
     <use xlink:href="#Arial-BoldMT-65" x="1698.777344"/>
     <use xlink:href="#Arial-BoldMT-6e" x="1754.392578"/>
     <use xlink:href="#Arial-BoldMT-65" x="1815.476562"/>
     <use xlink:href="#Arial-BoldMT-73" x="1871.091797"/>
    </g>
   </g>
  </g>
 </g>
 <defs>
  <clipPath id="p26d6e83539">
   <rect x="30.560551" y="21.935625" width="16.568386" height="250.2675"/>
  </clipPath>
  <clipPath id="paec57075bd">
   <rect x="48.235074" y="21.935625" width="149.115477" height="250.2675"/>
  </clipPath>
 </defs>
</svg>
