<?xml version="1.0" encoding="utf-8" standalone="no"?>
<!DOCTYPE svg PUBLIC "-//W3C//DTD SVG 1.1//EN"
  "http://www.w3.org/Graphics/SVG/1.1/DTD/svg11.dtd">
<svg xmlns:xlink="http://www.w3.org/1999/xlink" width="303.885625pt" height="281.762813pt" viewBox="0 0 303.885625 281.762813" xmlns="http://www.w3.org/2000/svg" version="1.1">
 <metadata>
  <rdf:RDF xmlns:dc="http://purl.org/dc/elements/1.1/" xmlns:cc="http://creativecommons.org/ns#" xmlns:rdf="http://www.w3.org/1999/02/22-rdf-syntax-ns#">
   <cc:Work>
    <dc:type rdf:resource="http://purl.org/dc/dcmitype/StillImage"/>
    <dc:date>2024-04-02T15:24:14.892445</dc:date>
    <dc:format>image/svg+xml</dc:format>
    <dc:creator>
     <cc:Agent>
      <dc:title>Matplotlib v3.8.0, https://matplotlib.org/</dc:title>
     </cc:Agent>
    </dc:creator>
   </cc:Work>
  </rdf:RDF>
 </metadata>
 <defs>
  <style type="text/css">*{stroke-linejoin: round; stroke-linecap: butt}</style>
 </defs>
 <g id="figure_1">
  <g id="patch_1">
   <path d="M 0 281.762813 
L 303.885625 281.762813 
L 303.885625 0 
L 0 0 
L 0 281.762813 
z
" style="fill: none"/>
  </g>
  <g id="axes_1">
   <g id="patch_2">
    <path d="M 192.4425 245.033125 
L 272.9225 245.033125 
L 272.9225 21.935625 
L 192.4425 21.935625 
L 192.4425 245.033125 
z
" style="fill: none"/>
   </g>
   <g id="patch_3">
    <path d="M 192.4425 234.89233 
L 226.752555 234.89233 
L 226.752555 222.216335 
L 192.4425 222.216335 
z
" clip-path="url(#p49a79ce1d3)" style="fill: #87ceeb"/>
   </g>
   <g id="patch_4">
    <path d="M 192.4425 203.202344 
L 227.092459 203.202344 
L 227.092459 190.526349 
L 192.4425 190.526349 
z
" clip-path="url(#p49a79ce1d3)" style="fill: #87ceeb"/>
   </g>
   <g id="patch_5">
    <path d="M 192.4425 171.512358 
L 244.600967 171.512358 
L 244.600967 158.836364 
L 192.4425 158.836364 
z
" clip-path="url(#p49a79ce1d3)" style="fill: #87ceeb"/>
   </g>
   <g id="patch_6">
    <path d="M 192.4425 139.822372 
L 250.6402 139.822372 
L 250.6402 127.146378 
L 192.4425 127.146378 
z
" clip-path="url(#p49a79ce1d3)" style="fill: #87ceeb"/>
   </g>
   <g id="patch_7">
    <path d="M 192.4425 108.132386 
L 257.660401 108.132386 
L 257.660401 95.456392 
L 192.4425 95.456392 
z
" clip-path="url(#p49a79ce1d3)" style="fill: #87ceeb"/>
   </g>
   <g id="patch_8">
    <path d="M 192.4425 76.442401 
L 261.942193 76.442401 
L 261.942193 63.766406 
L 192.4425 63.766406 
z
" clip-path="url(#p49a79ce1d3)" style="fill: #87ceeb"/>
   </g>
   <g id="patch_9">
    <path d="M 192.4425 44.752415 
L 269.090119 44.752415 
L 269.090119 32.07642 
L 192.4425 32.07642 
z
" clip-path="url(#p49a79ce1d3)" style="fill: #87ceeb"/>
   </g>
   <g id="matplotlib.axis_1">
    <g id="xtick_1">
     <g id="line2d_1">
      <defs>
       <path id="mff334addd7" d="M 0 0 
L 0 3.5 
" style="stroke: #000000; stroke-width: 0.8"/>
      </defs>
      <g>
       <use xlink:href="#mff334addd7" x="192.4425" y="245.033125" style="stroke: #000000; stroke-width: 0.8"/>
      </g>
     </g>
     <g id="text_1">
      <!-- 0 -->
      <g transform="translate(189.662031 259.190938) scale(0.1 -0.1)">
       <defs>
        <path id="ArialMT-30" d="M 266 2259 
Q 266 3072 433 3567 
Q 600 4063 929 4331 
Q 1259 4600 1759 4600 
Q 2128 4600 2406 4451 
Q 2684 4303 2865 4023 
Q 3047 3744 3150 3342 
Q 3253 2941 3253 2259 
Q 3253 1453 3087 958 
Q 2922 463 2592 192 
Q 2263 -78 1759 -78 
Q 1097 -78 719 397 
Q 266 969 266 2259 
z
M 844 2259 
Q 844 1131 1108 757 
Q 1372 384 1759 384 
Q 2147 384 2411 759 
Q 2675 1134 2675 2259 
Q 2675 3391 2411 3762 
Q 2147 4134 1753 4134 
Q 1366 4134 1134 3806 
Q 844 3388 844 2259 
z
" transform="scale(0.015625)"/>
       </defs>
       <use xlink:href="#ArialMT-30"/>
      </g>
     </g>
    </g>
    <g id="xtick_2">
     <g id="line2d_2">
      <g>
       <use xlink:href="#mff334addd7" x="238.856104" y="245.033125" style="stroke: #000000; stroke-width: 0.8"/>
      </g>
     </g>
     <g id="text_2">
      <!-- 2 -->
      <g transform="translate(236.075635 259.190938) scale(0.1 -0.1)">
       <defs>
        <path id="ArialMT-32" d="M 3222 541 
L 3222 0 
L 194 0 
Q 188 203 259 391 
Q 375 700 629 1000 
Q 884 1300 1366 1694 
Q 2113 2306 2375 2664 
Q 2638 3022 2638 3341 
Q 2638 3675 2398 3904 
Q 2159 4134 1775 4134 
Q 1369 4134 1125 3890 
Q 881 3647 878 3216 
L 300 3275 
Q 359 3922 746 4261 
Q 1134 4600 1788 4600 
Q 2447 4600 2831 4234 
Q 3216 3869 3216 3328 
Q 3216 3053 3103 2787 
Q 2991 2522 2730 2228 
Q 2469 1934 1863 1422 
Q 1356 997 1212 845 
Q 1069 694 975 541 
L 3222 541 
z
" transform="scale(0.015625)"/>
       </defs>
       <use xlink:href="#ArialMT-32"/>
      </g>
     </g>
    </g>
    <g id="text_3">
     <!-- -log10(Adjusted P-value) -->
     <g transform="translate(174.069219 272.458125) scale(0.1 -0.1)">
      <defs>
       <path id="Arial-BoldMT-2d" d="M 359 1222 
L 359 2100 
L 2084 2100 
L 2084 1222 
L 359 1222 
z
" transform="scale(0.015625)"/>
       <path id="Arial-BoldMT-6c" d="M 459 0 
L 459 4581 
L 1338 4581 
L 1338 0 
L 459 0 
z
" transform="scale(0.015625)"/>
       <path id="Arial-BoldMT-6f" d="M 256 1706 
Q 256 2144 472 2553 
Q 688 2963 1083 3178 
Q 1478 3394 1966 3394 
Q 2719 3394 3200 2905 
Q 3681 2416 3681 1669 
Q 3681 916 3195 420 
Q 2709 -75 1972 -75 
Q 1516 -75 1102 131 
Q 688 338 472 736 
Q 256 1134 256 1706 
z
M 1156 1659 
Q 1156 1166 1390 903 
Q 1625 641 1969 641 
Q 2313 641 2545 903 
Q 2778 1166 2778 1666 
Q 2778 2153 2545 2415 
Q 2313 2678 1969 2678 
Q 1625 2678 1390 2415 
Q 1156 2153 1156 1659 
z
" transform="scale(0.015625)"/>
       <path id="Arial-BoldMT-67" d="M 378 -219 
L 1381 -341 
Q 1406 -516 1497 -581 
Q 1622 -675 1891 -675 
Q 2234 -675 2406 -572 
Q 2522 -503 2581 -350 
Q 2622 -241 2622 53 
L 2622 538 
Q 2228 0 1628 0 
Q 959 0 569 566 
Q 263 1013 263 1678 
Q 263 2513 664 2953 
Q 1066 3394 1663 3394 
Q 2278 3394 2678 2853 
L 2678 3319 
L 3500 3319 
L 3500 341 
Q 3500 -247 3403 -537 
Q 3306 -828 3131 -993 
Q 2956 -1159 2664 -1253 
Q 2372 -1347 1925 -1347 
Q 1081 -1347 728 -1058 
Q 375 -769 375 -325 
Q 375 -281 378 -219 
z
M 1163 1728 
Q 1163 1200 1367 954 
Q 1572 709 1872 709 
Q 2194 709 2416 961 
Q 2638 1213 2638 1706 
Q 2638 2222 2425 2472 
Q 2213 2722 1888 2722 
Q 1572 2722 1367 2476 
Q 1163 2231 1163 1728 
z
" transform="scale(0.015625)"/>
       <path id="Arial-BoldMT-31" d="M 2519 0 
L 1641 0 
L 1641 3309 
Q 1159 2859 506 2644 
L 506 3441 
Q 850 3553 1253 3867 
Q 1656 4181 1806 4600 
L 2519 4600 
L 2519 0 
z
" transform="scale(0.015625)"/>
       <path id="Arial-BoldMT-30" d="M 1756 4600 
Q 2422 4600 2797 4125 
Q 3244 3563 3244 2259 
Q 3244 959 2794 391 
Q 2422 -78 1756 -78 
Q 1088 -78 678 436 
Q 269 950 269 2269 
Q 269 3563 719 4131 
Q 1091 4600 1756 4600 
z
M 1756 3872 
Q 1597 3872 1472 3770 
Q 1347 3669 1278 3406 
Q 1188 3066 1188 2259 
Q 1188 1453 1269 1151 
Q 1350 850 1473 750 
Q 1597 650 1756 650 
Q 1916 650 2041 751 
Q 2166 853 2234 1116 
Q 2325 1453 2325 2259 
Q 2325 3066 2244 3367 
Q 2163 3669 2039 3770 
Q 1916 3872 1756 3872 
z
" transform="scale(0.015625)"/>
       <path id="Arial-BoldMT-28" d="M 1916 -1347 
L 1313 -1347 
Q 834 -625 584 153 
Q 334 931 334 1659 
Q 334 2563 644 3369 
Q 913 4069 1325 4659 
L 1925 4659 
Q 1497 3713 1336 3048 
Q 1175 2384 1175 1641 
Q 1175 1128 1270 590 
Q 1366 53 1531 -431 
Q 1641 -750 1916 -1347 
z
" transform="scale(0.015625)"/>
       <path id="Arial-BoldMT-41" d="M 4597 0 
L 3591 0 
L 3191 1041 
L 1359 1041 
L 981 0 
L 0 0 
L 1784 4581 
L 2763 4581 
L 4597 0 
z
M 2894 1813 
L 2263 3513 
L 1644 1813 
L 2894 1813 
z
" transform="scale(0.015625)"/>
       <path id="Arial-BoldMT-64" d="M 3503 0 
L 2688 0 
L 2688 488 
Q 2484 203 2207 64 
Q 1931 -75 1650 -75 
Q 1078 -75 670 386 
Q 263 847 263 1672 
Q 263 2516 659 2955 
Q 1056 3394 1663 3394 
Q 2219 3394 2625 2931 
L 2625 4581 
L 3503 4581 
L 3503 0 
z
M 1159 1731 
Q 1159 1200 1306 963 
Q 1519 619 1900 619 
Q 2203 619 2415 876 
Q 2628 1134 2628 1647 
Q 2628 2219 2422 2470 
Q 2216 2722 1894 2722 
Q 1581 2722 1370 2473 
Q 1159 2225 1159 1731 
z
" transform="scale(0.015625)"/>
       <path id="Arial-BoldMT-6a" d="M 441 3769 
L 441 4581 
L 1319 4581 
L 1319 3769 
L 441 3769 
z
M 1319 3319 
L 1319 103 
Q 1319 -531 1236 -792 
Q 1153 -1053 917 -1200 
Q 681 -1347 316 -1347 
Q 184 -1347 32 -1323 
Q -119 -1300 -294 -1253 
L -141 -503 
Q -78 -516 -23 -523 
Q 31 -531 78 -531 
Q 213 -531 298 -473 
Q 384 -416 412 -334 
Q 441 -253 441 153 
L 441 3319 
L 1319 3319 
z
" transform="scale(0.015625)"/>
       <path id="Arial-BoldMT-75" d="M 2644 0 
L 2644 497 
Q 2463 231 2167 78 
Q 1872 -75 1544 -75 
Q 1209 -75 943 72 
Q 678 219 559 484 
Q 441 750 441 1219 
L 441 3319 
L 1319 3319 
L 1319 1794 
Q 1319 1094 1367 936 
Q 1416 778 1544 686 
Q 1672 594 1869 594 
Q 2094 594 2272 717 
Q 2450 841 2515 1023 
Q 2581 1206 2581 1919 
L 2581 3319 
L 3459 3319 
L 3459 0 
L 2644 0 
z
" transform="scale(0.015625)"/>
       <path id="Arial-BoldMT-73" d="M 150 947 
L 1031 1081 
Q 1088 825 1259 692 
Q 1431 559 1741 559 
Q 2081 559 2253 684 
Q 2369 772 2369 919 
Q 2369 1019 2306 1084 
Q 2241 1147 2013 1200 
Q 950 1434 666 1628 
Q 272 1897 272 2375 
Q 272 2806 612 3100 
Q 953 3394 1669 3394 
Q 2350 3394 2681 3172 
Q 3013 2950 3138 2516 
L 2309 2363 
Q 2256 2556 2107 2659 
Q 1959 2763 1684 2763 
Q 1338 2763 1188 2666 
Q 1088 2597 1088 2488 
Q 1088 2394 1175 2328 
Q 1294 2241 1995 2081 
Q 2697 1922 2975 1691 
Q 3250 1456 3250 1038 
Q 3250 581 2869 253 
Q 2488 -75 1741 -75 
Q 1063 -75 667 200 
Q 272 475 150 947 
z
" transform="scale(0.015625)"/>
       <path id="Arial-BoldMT-74" d="M 1981 3319 
L 1981 2619 
L 1381 2619 
L 1381 1281 
Q 1381 875 1398 808 
Q 1416 741 1477 697 
Q 1538 653 1625 653 
Q 1747 653 1978 738 
L 2053 56 
Q 1747 -75 1359 -75 
Q 1122 -75 931 4 
Q 741 84 652 211 
Q 563 338 528 553 
Q 500 706 500 1172 
L 500 2619 
L 97 2619 
L 97 3319 
L 500 3319 
L 500 3978 
L 1381 4491 
L 1381 3319 
L 1981 3319 
z
" transform="scale(0.015625)"/>
       <path id="Arial-BoldMT-65" d="M 2381 1056 
L 3256 909 
Q 3088 428 2723 176 
Q 2359 -75 1813 -75 
Q 947 -75 531 491 
Q 203 944 203 1634 
Q 203 2459 634 2926 
Q 1066 3394 1725 3394 
Q 2466 3394 2894 2905 
Q 3322 2416 3303 1406 
L 1103 1406 
Q 1113 1016 1316 798 
Q 1519 581 1822 581 
Q 2028 581 2168 693 
Q 2309 806 2381 1056 
z
M 2431 1944 
Q 2422 2325 2234 2523 
Q 2047 2722 1778 2722 
Q 1491 2722 1303 2513 
Q 1116 2303 1119 1944 
L 2431 1944 
z
" transform="scale(0.015625)"/>
       <path id="Arial-BoldMT-20" transform="scale(0.015625)"/>
       <path id="Arial-BoldMT-50" d="M 466 0 
L 466 4581 
L 1950 4581 
Q 2794 4581 3050 4513 
Q 3444 4409 3709 4064 
Q 3975 3719 3975 3172 
Q 3975 2750 3822 2462 
Q 3669 2175 3433 2011 
Q 3197 1847 2953 1794 
Q 2622 1728 1994 1728 
L 1391 1728 
L 1391 0 
L 466 0 
z
M 1391 3806 
L 1391 2506 
L 1897 2506 
Q 2444 2506 2628 2578 
Q 2813 2650 2917 2803 
Q 3022 2956 3022 3159 
Q 3022 3409 2875 3571 
Q 2728 3734 2503 3775 
Q 2338 3806 1838 3806 
L 1391 3806 
z
" transform="scale(0.015625)"/>
       <path id="Arial-BoldMT-76" d="M 1372 0 
L 34 3319 
L 956 3319 
L 1581 1625 
L 1763 1059 
Q 1834 1275 1853 1344 
Q 1897 1484 1947 1625 
L 2578 3319 
L 3481 3319 
L 2163 0 
L 1372 0 
z
" transform="scale(0.015625)"/>
       <path id="Arial-BoldMT-61" d="M 1116 2306 
L 319 2450 
Q 453 2931 781 3162 
Q 1109 3394 1756 3394 
Q 2344 3394 2631 3255 
Q 2919 3116 3036 2902 
Q 3153 2688 3153 2116 
L 3144 1091 
Q 3144 653 3186 445 
Q 3228 238 3344 0 
L 2475 0 
Q 2441 88 2391 259 
Q 2369 338 2359 363 
Q 2134 144 1878 34 
Q 1622 -75 1331 -75 
Q 819 -75 523 203 
Q 228 481 228 906 
Q 228 1188 362 1408 
Q 497 1628 739 1745 
Q 981 1863 1438 1950 
Q 2053 2066 2291 2166 
L 2291 2253 
Q 2291 2506 2166 2614 
Q 2041 2722 1694 2722 
Q 1459 2722 1328 2630 
Q 1197 2538 1116 2306 
z
M 2291 1594 
Q 2122 1538 1756 1459 
Q 1391 1381 1278 1306 
Q 1106 1184 1106 997 
Q 1106 813 1243 678 
Q 1381 544 1594 544 
Q 1831 544 2047 700 
Q 2206 819 2256 991 
Q 2291 1103 2291 1419 
L 2291 1594 
z
" transform="scale(0.015625)"/>
       <path id="Arial-BoldMT-29" d="M 216 -1347 
Q 475 -791 581 -494 
Q 688 -197 778 190 
Q 869 578 912 926 
Q 956 1275 956 1641 
Q 956 2384 797 3048 
Q 638 3713 209 4659 
L 806 4659 
Q 1278 3988 1539 3234 
Q 1800 2481 1800 1706 
Q 1800 1053 1594 306 
Q 1359 -531 822 -1347 
L 216 -1347 
z
" transform="scale(0.015625)"/>
      </defs>
      <use xlink:href="#Arial-BoldMT-2d"/>
      <use xlink:href="#Arial-BoldMT-6c" x="33.300781"/>
      <use xlink:href="#Arial-BoldMT-6f" x="61.083984"/>
      <use xlink:href="#Arial-BoldMT-67" x="122.167969"/>
      <use xlink:href="#Arial-BoldMT-31" x="183.251953"/>
      <use xlink:href="#Arial-BoldMT-30" x="238.867188"/>
      <use xlink:href="#Arial-BoldMT-28" x="294.482422"/>
      <use xlink:href="#Arial-BoldMT-41" x="327.783203"/>
      <use xlink:href="#Arial-BoldMT-64" x="400"/>
      <use xlink:href="#Arial-BoldMT-6a" x="461.083984"/>
      <use xlink:href="#Arial-BoldMT-75" x="488.867188"/>
      <use xlink:href="#Arial-BoldMT-73" x="549.951172"/>
      <use xlink:href="#Arial-BoldMT-74" x="605.566406"/>
      <use xlink:href="#Arial-BoldMT-65" x="638.867188"/>
      <use xlink:href="#Arial-BoldMT-64" x="694.482422"/>
      <use xlink:href="#Arial-BoldMT-20" x="755.566406"/>
      <use xlink:href="#Arial-BoldMT-50" x="783.349609"/>
      <use xlink:href="#Arial-BoldMT-2d" x="850.048828"/>
      <use xlink:href="#Arial-BoldMT-76" x="883.349609"/>
      <use xlink:href="#Arial-BoldMT-61" x="938.964844"/>
      <use xlink:href="#Arial-BoldMT-6c" x="994.580078"/>
      <use xlink:href="#Arial-BoldMT-75" x="1022.363281"/>
      <use xlink:href="#Arial-BoldMT-65" x="1083.447266"/>
      <use xlink:href="#Arial-BoldMT-29" x="1139.0625"/>
     </g>
    </g>
   </g>
   <g id="matplotlib.axis_2">
    <g id="ytick_1">
     <g id="line2d_3">
      <defs>
       <path id="mb0cd406ede" d="M 0 0 
L -3.5 0 
" style="stroke: #000000; stroke-width: 0.8"/>
      </defs>
      <g>
       <use xlink:href="#mb0cd406ede" x="192.4425" y="228.554332" style="stroke: #000000; stroke-width: 0.8"/>
      </g>
     </g>
     <g id="text_4">
      <!-- Amino sugar and nucleotide sugar metabolism -->
      <g transform="translate(7.2 231.417457) scale(0.08 -0.08)">
       <defs>
        <path id="Arial-BoldMT-6d" d="M 394 3319 
L 1203 3319 
L 1203 2866 
Q 1638 3394 2238 3394 
Q 2556 3394 2790 3262 
Q 3025 3131 3175 2866 
Q 3394 3131 3647 3262 
Q 3900 3394 4188 3394 
Q 4553 3394 4806 3245 
Q 5059 3097 5184 2809 
Q 5275 2597 5275 2122 
L 5275 0 
L 4397 0 
L 4397 1897 
Q 4397 2391 4306 2534 
Q 4184 2722 3931 2722 
Q 3747 2722 3584 2609 
Q 3422 2497 3350 2280 
Q 3278 2063 3278 1594 
L 3278 0 
L 2400 0 
L 2400 1819 
Q 2400 2303 2353 2443 
Q 2306 2584 2207 2653 
Q 2109 2722 1941 2722 
Q 1738 2722 1575 2612 
Q 1413 2503 1342 2297 
Q 1272 2091 1272 1613 
L 1272 0 
L 394 0 
L 394 3319 
z
" transform="scale(0.015625)"/>
        <path id="Arial-BoldMT-69" d="M 459 3769 
L 459 4581 
L 1338 4581 
L 1338 3769 
L 459 3769 
z
M 459 0 
L 459 3319 
L 1338 3319 
L 1338 0 
L 459 0 
z
" transform="scale(0.015625)"/>
        <path id="Arial-BoldMT-6e" d="M 3478 0 
L 2600 0 
L 2600 1694 
Q 2600 2231 2544 2389 
Q 2488 2547 2361 2634 
Q 2234 2722 2056 2722 
Q 1828 2722 1647 2597 
Q 1466 2472 1398 2265 
Q 1331 2059 1331 1503 
L 1331 0 
L 453 0 
L 453 3319 
L 1269 3319 
L 1269 2831 
Q 1703 3394 2363 3394 
Q 2653 3394 2893 3289 
Q 3134 3184 3257 3021 
Q 3381 2859 3429 2653 
Q 3478 2447 3478 2063 
L 3478 0 
z
" transform="scale(0.015625)"/>
        <path id="Arial-BoldMT-72" d="M 1300 0 
L 422 0 
L 422 3319 
L 1238 3319 
L 1238 2847 
Q 1447 3181 1614 3287 
Q 1781 3394 1994 3394 
Q 2294 3394 2572 3228 
L 2300 2463 
Q 2078 2606 1888 2606 
Q 1703 2606 1575 2504 
Q 1447 2403 1373 2137 
Q 1300 1872 1300 1025 
L 1300 0 
z
" transform="scale(0.015625)"/>
        <path id="Arial-BoldMT-63" d="M 3353 2338 
L 2488 2181 
Q 2444 2441 2289 2572 
Q 2134 2703 1888 2703 
Q 1559 2703 1364 2476 
Q 1169 2250 1169 1719 
Q 1169 1128 1367 884 
Q 1566 641 1900 641 
Q 2150 641 2309 783 
Q 2469 925 2534 1272 
L 3397 1125 
Q 3263 531 2881 228 
Q 2500 -75 1859 -75 
Q 1131 -75 698 384 
Q 266 844 266 1656 
Q 266 2478 700 2936 
Q 1134 3394 1875 3394 
Q 2481 3394 2839 3133 
Q 3197 2872 3353 2338 
z
" transform="scale(0.015625)"/>
        <path id="Arial-BoldMT-62" d="M 422 0 
L 422 4581 
L 1300 4581 
L 1300 2931 
Q 1706 3394 2263 3394 
Q 2869 3394 3266 2955 
Q 3663 2516 3663 1694 
Q 3663 844 3258 384 
Q 2853 -75 2275 -75 
Q 1991 -75 1714 67 
Q 1438 209 1238 488 
L 1238 0 
L 422 0 
z
M 1294 1731 
Q 1294 1216 1456 969 
Q 1684 619 2063 619 
Q 2353 619 2558 867 
Q 2763 1116 2763 1650 
Q 2763 2219 2556 2470 
Q 2350 2722 2028 2722 
Q 1713 2722 1503 2476 
Q 1294 2231 1294 1731 
z
" transform="scale(0.015625)"/>
       </defs>
       <use xlink:href="#Arial-BoldMT-41"/>
       <use xlink:href="#Arial-BoldMT-6d" x="72.216797"/>
       <use xlink:href="#Arial-BoldMT-69" x="161.132812"/>
       <use xlink:href="#Arial-BoldMT-6e" x="188.916016"/>
       <use xlink:href="#Arial-BoldMT-6f" x="250"/>
       <use xlink:href="#Arial-BoldMT-20" x="311.083984"/>
       <use xlink:href="#Arial-BoldMT-73" x="338.867188"/>
       <use xlink:href="#Arial-BoldMT-75" x="394.482422"/>
       <use xlink:href="#Arial-BoldMT-67" x="455.566406"/>
       <use xlink:href="#Arial-BoldMT-61" x="516.650391"/>
       <use xlink:href="#Arial-BoldMT-72" x="572.265625"/>
       <use xlink:href="#Arial-BoldMT-20" x="611.181641"/>
       <use xlink:href="#Arial-BoldMT-61" x="638.964844"/>
       <use xlink:href="#Arial-BoldMT-6e" x="694.580078"/>
       <use xlink:href="#Arial-BoldMT-64" x="755.664062"/>
       <use xlink:href="#Arial-BoldMT-20" x="816.748047"/>
       <use xlink:href="#Arial-BoldMT-6e" x="844.53125"/>
       <use xlink:href="#Arial-BoldMT-75" x="905.615234"/>
       <use xlink:href="#Arial-BoldMT-63" x="966.699219"/>
       <use xlink:href="#Arial-BoldMT-6c" x="1022.314453"/>
       <use xlink:href="#Arial-BoldMT-65" x="1050.097656"/>
       <use xlink:href="#Arial-BoldMT-6f" x="1105.712891"/>
       <use xlink:href="#Arial-BoldMT-74" x="1166.796875"/>
       <use xlink:href="#Arial-BoldMT-69" x="1200.097656"/>
       <use xlink:href="#Arial-BoldMT-64" x="1227.880859"/>
       <use xlink:href="#Arial-BoldMT-65" x="1288.964844"/>
       <use xlink:href="#Arial-BoldMT-20" x="1344.580078"/>
       <use xlink:href="#Arial-BoldMT-73" x="1372.363281"/>
       <use xlink:href="#Arial-BoldMT-75" x="1427.978516"/>
       <use xlink:href="#Arial-BoldMT-67" x="1489.0625"/>
       <use xlink:href="#Arial-BoldMT-61" x="1550.146484"/>
       <use xlink:href="#Arial-BoldMT-72" x="1605.761719"/>
       <use xlink:href="#Arial-BoldMT-20" x="1644.677734"/>
       <use xlink:href="#Arial-BoldMT-6d" x="1672.460938"/>
       <use xlink:href="#Arial-BoldMT-65" x="1761.376953"/>
       <use xlink:href="#Arial-BoldMT-74" x="1816.992188"/>
       <use xlink:href="#Arial-BoldMT-61" x="1850.292969"/>
       <use xlink:href="#Arial-BoldMT-62" x="1905.908203"/>
       <use xlink:href="#Arial-BoldMT-6f" x="1966.992188"/>
       <use xlink:href="#Arial-BoldMT-6c" x="2028.076172"/>
       <use xlink:href="#Arial-BoldMT-69" x="2055.859375"/>
       <use xlink:href="#Arial-BoldMT-73" x="2083.642578"/>
       <use xlink:href="#Arial-BoldMT-6d" x="2139.257812"/>
      </g>
     </g>
    </g>
    <g id="ytick_2">
     <g id="line2d_4">
      <g>
       <use xlink:href="#mb0cd406ede" x="192.4425" y="196.864347" style="stroke: #000000; stroke-width: 0.8"/>
      </g>
     </g>
     <g id="text_5">
      <!-- Meiosis -->
      <g transform="translate(156.10125 199.727472) scale(0.08 -0.08)">
       <defs>
        <path id="Arial-BoldMT-4d" d="M 453 0 
L 453 4581 
L 1838 4581 
L 2669 1456 
L 3491 4581 
L 4878 4581 
L 4878 0 
L 4019 0 
L 4019 3606 
L 3109 0 
L 2219 0 
L 1313 3606 
L 1313 0 
L 453 0 
z
" transform="scale(0.015625)"/>
       </defs>
       <use xlink:href="#Arial-BoldMT-4d"/>
       <use xlink:href="#Arial-BoldMT-65" x="83.300781"/>
       <use xlink:href="#Arial-BoldMT-69" x="138.916016"/>
       <use xlink:href="#Arial-BoldMT-6f" x="166.699219"/>
       <use xlink:href="#Arial-BoldMT-73" x="227.783203"/>
       <use xlink:href="#Arial-BoldMT-69" x="283.398438"/>
       <use xlink:href="#Arial-BoldMT-73" x="311.181641"/>
      </g>
     </g>
    </g>
    <g id="ytick_3">
     <g id="line2d_5">
      <g>
       <use xlink:href="#mb0cd406ede" x="192.4425" y="165.174361" style="stroke: #000000; stroke-width: 0.8"/>
      </g>
     </g>
     <g id="text_6">
      <!-- Riboflavin metabolism -->
      <g transform="translate(100.1 168.037486) scale(0.08 -0.08)">
       <defs>
        <path id="Arial-BoldMT-52" d="M 469 0 
L 469 4581 
L 2416 4581 
Q 3150 4581 3483 4457 
Q 3816 4334 4016 4018 
Q 4216 3703 4216 3297 
Q 4216 2781 3912 2445 
Q 3609 2109 3006 2022 
Q 3306 1847 3501 1637 
Q 3697 1428 4028 894 
L 4588 0 
L 3481 0 
L 2813 997 
Q 2456 1531 2325 1670 
Q 2194 1809 2047 1861 
Q 1900 1913 1581 1913 
L 1394 1913 
L 1394 0 
L 469 0 
z
M 1394 2644 
L 2078 2644 
Q 2744 2644 2909 2700 
Q 3075 2756 3169 2893 
Q 3263 3031 3263 3238 
Q 3263 3469 3139 3611 
Q 3016 3753 2791 3791 
Q 2678 3806 2116 3806 
L 1394 3806 
L 1394 2644 
z
" transform="scale(0.015625)"/>
        <path id="Arial-BoldMT-66" d="M 75 3319 
L 563 3319 
L 563 3569 
Q 563 3988 652 4194 
Q 741 4400 980 4529 
Q 1219 4659 1584 4659 
Q 1959 4659 2319 4547 
L 2200 3934 
Q 1991 3984 1797 3984 
Q 1606 3984 1523 3895 
Q 1441 3806 1441 3553 
L 1441 3319 
L 2097 3319 
L 2097 2628 
L 1441 2628 
L 1441 0 
L 563 0 
L 563 2628 
L 75 2628 
L 75 3319 
z
" transform="scale(0.015625)"/>
       </defs>
       <use xlink:href="#Arial-BoldMT-52"/>
       <use xlink:href="#Arial-BoldMT-69" x="72.216797"/>
       <use xlink:href="#Arial-BoldMT-62" x="100"/>
       <use xlink:href="#Arial-BoldMT-6f" x="161.083984"/>
       <use xlink:href="#Arial-BoldMT-66" x="222.167969"/>
       <use xlink:href="#Arial-BoldMT-6c" x="255.46875"/>
       <use xlink:href="#Arial-BoldMT-61" x="283.251953"/>
       <use xlink:href="#Arial-BoldMT-76" x="338.867188"/>
       <use xlink:href="#Arial-BoldMT-69" x="394.482422"/>
       <use xlink:href="#Arial-BoldMT-6e" x="422.265625"/>
       <use xlink:href="#Arial-BoldMT-20" x="483.349609"/>
       <use xlink:href="#Arial-BoldMT-6d" x="511.132812"/>
       <use xlink:href="#Arial-BoldMT-65" x="600.048828"/>
       <use xlink:href="#Arial-BoldMT-74" x="655.664062"/>
       <use xlink:href="#Arial-BoldMT-61" x="688.964844"/>
       <use xlink:href="#Arial-BoldMT-62" x="744.580078"/>
       <use xlink:href="#Arial-BoldMT-6f" x="805.664062"/>
       <use xlink:href="#Arial-BoldMT-6c" x="866.748047"/>
       <use xlink:href="#Arial-BoldMT-69" x="894.53125"/>
       <use xlink:href="#Arial-BoldMT-73" x="922.314453"/>
       <use xlink:href="#Arial-BoldMT-6d" x="977.929688"/>
      </g>
     </g>
    </g>
    <g id="ytick_4">
     <g id="line2d_6">
      <g>
       <use xlink:href="#mb0cd406ede" x="192.4425" y="133.484375" style="stroke: #000000; stroke-width: 0.8"/>
      </g>
     </g>
     <g id="text_7">
      <!-- Atrazine degradation -->
      <g transform="translate(105.88125 136.3475) scale(0.08 -0.08)">
       <defs>
        <path id="Arial-BoldMT-7a" d="M 106 0 
L 106 684 
L 1350 2113 
Q 1656 2463 1803 2609 
Q 1650 2600 1400 2597 
L 228 2591 
L 228 3319 
L 2972 3319 
L 2972 2697 
L 1703 1234 
L 1256 750 
Q 1622 772 1709 772 
L 3069 772 
L 3069 0 
L 106 0 
z
" transform="scale(0.015625)"/>
       </defs>
       <use xlink:href="#Arial-BoldMT-41"/>
       <use xlink:href="#Arial-BoldMT-74" x="72.216797"/>
       <use xlink:href="#Arial-BoldMT-72" x="105.517578"/>
       <use xlink:href="#Arial-BoldMT-61" x="144.433594"/>
       <use xlink:href="#Arial-BoldMT-7a" x="200.048828"/>
       <use xlink:href="#Arial-BoldMT-69" x="250.048828"/>
       <use xlink:href="#Arial-BoldMT-6e" x="277.832031"/>
       <use xlink:href="#Arial-BoldMT-65" x="338.916016"/>
       <use xlink:href="#Arial-BoldMT-20" x="394.53125"/>
       <use xlink:href="#Arial-BoldMT-64" x="422.314453"/>
       <use xlink:href="#Arial-BoldMT-65" x="483.398438"/>
       <use xlink:href="#Arial-BoldMT-67" x="539.013672"/>
       <use xlink:href="#Arial-BoldMT-72" x="600.097656"/>
       <use xlink:href="#Arial-BoldMT-61" x="639.013672"/>
       <use xlink:href="#Arial-BoldMT-64" x="694.628906"/>
       <use xlink:href="#Arial-BoldMT-61" x="755.712891"/>
       <use xlink:href="#Arial-BoldMT-74" x="811.328125"/>
       <use xlink:href="#Arial-BoldMT-69" x="844.628906"/>
       <use xlink:href="#Arial-BoldMT-6f" x="872.412109"/>
       <use xlink:href="#Arial-BoldMT-6e" x="933.496094"/>
      </g>
     </g>
    </g>
    <g id="ytick_5">
     <g id="line2d_7">
      <g>
       <use xlink:href="#mb0cd406ede" x="192.4425" y="101.794389" style="stroke: #000000; stroke-width: 0.8"/>
      </g>
     </g>
     <g id="text_8">
      <!-- Galactose metabolism -->
      <g transform="translate(100.52625 104.657514) scale(0.08 -0.08)">
       <defs>
        <path id="Arial-BoldMT-47" d="M 2597 1684 
L 2597 2456 
L 4591 2456 
L 4591 631 
Q 4300 350 3748 136 
Q 3197 -78 2631 -78 
Q 1913 -78 1378 223 
Q 844 525 575 1086 
Q 306 1647 306 2306 
Q 306 3022 606 3578 
Q 906 4134 1484 4431 
Q 1925 4659 2581 4659 
Q 3434 4659 3914 4301 
Q 4394 3944 4531 3313 
L 3613 3141 
Q 3516 3478 3248 3673 
Q 2981 3869 2581 3869 
Q 1975 3869 1617 3484 
Q 1259 3100 1259 2344 
Q 1259 1528 1621 1120 
Q 1984 713 2572 713 
Q 2863 713 3155 827 
Q 3447 941 3656 1103 
L 3656 1684 
L 2597 1684 
z
" transform="scale(0.015625)"/>
       </defs>
       <use xlink:href="#Arial-BoldMT-47"/>
       <use xlink:href="#Arial-BoldMT-61" x="77.783203"/>
       <use xlink:href="#Arial-BoldMT-6c" x="133.398438"/>
       <use xlink:href="#Arial-BoldMT-61" x="161.181641"/>
       <use xlink:href="#Arial-BoldMT-63" x="216.796875"/>
       <use xlink:href="#Arial-BoldMT-74" x="272.412109"/>
       <use xlink:href="#Arial-BoldMT-6f" x="305.712891"/>
       <use xlink:href="#Arial-BoldMT-73" x="366.796875"/>
       <use xlink:href="#Arial-BoldMT-65" x="422.412109"/>
       <use xlink:href="#Arial-BoldMT-20" x="478.027344"/>
       <use xlink:href="#Arial-BoldMT-6d" x="505.810547"/>
       <use xlink:href="#Arial-BoldMT-65" x="594.726562"/>
       <use xlink:href="#Arial-BoldMT-74" x="650.341797"/>
       <use xlink:href="#Arial-BoldMT-61" x="683.642578"/>
       <use xlink:href="#Arial-BoldMT-62" x="739.257812"/>
       <use xlink:href="#Arial-BoldMT-6f" x="800.341797"/>
       <use xlink:href="#Arial-BoldMT-6c" x="861.425781"/>
       <use xlink:href="#Arial-BoldMT-69" x="889.208984"/>
       <use xlink:href="#Arial-BoldMT-73" x="916.992188"/>
       <use xlink:href="#Arial-BoldMT-6d" x="972.607422"/>
      </g>
     </g>
    </g>
    <g id="ytick_6">
     <g id="line2d_8">
      <g>
       <use xlink:href="#mb0cd406ede" x="192.4425" y="70.104403" style="stroke: #000000; stroke-width: 0.8"/>
      </g>
     </g>
     <g id="text_9">
      <!-- Thiamine metabolism -->
      <g transform="translate(103.65 72.967528) scale(0.08 -0.08)">
       <defs>
        <path id="Arial-BoldMT-54" d="M 1497 0 
L 1497 3806 
L 138 3806 
L 138 4581 
L 3778 4581 
L 3778 3806 
L 2422 3806 
L 2422 0 
L 1497 0 
z
" transform="scale(0.015625)"/>
        <path id="Arial-BoldMT-68" d="M 1334 4581 
L 1334 2897 
Q 1759 3394 2350 3394 
Q 2653 3394 2897 3281 
Q 3141 3169 3264 2994 
Q 3388 2819 3433 2606 
Q 3478 2394 3478 1947 
L 3478 0 
L 2600 0 
L 2600 1753 
Q 2600 2275 2550 2415 
Q 2500 2556 2373 2639 
Q 2247 2722 2056 2722 
Q 1838 2722 1666 2615 
Q 1494 2509 1414 2295 
Q 1334 2081 1334 1663 
L 1334 0 
L 456 0 
L 456 4581 
L 1334 4581 
z
" transform="scale(0.015625)"/>
       </defs>
       <use xlink:href="#Arial-BoldMT-54"/>
       <use xlink:href="#Arial-BoldMT-68" x="61.083984"/>
       <use xlink:href="#Arial-BoldMT-69" x="122.167969"/>
       <use xlink:href="#Arial-BoldMT-61" x="149.951172"/>
       <use xlink:href="#Arial-BoldMT-6d" x="205.566406"/>
       <use xlink:href="#Arial-BoldMT-69" x="294.482422"/>
       <use xlink:href="#Arial-BoldMT-6e" x="322.265625"/>
       <use xlink:href="#Arial-BoldMT-65" x="383.349609"/>
       <use xlink:href="#Arial-BoldMT-20" x="438.964844"/>
       <use xlink:href="#Arial-BoldMT-6d" x="466.748047"/>
       <use xlink:href="#Arial-BoldMT-65" x="555.664062"/>
       <use xlink:href="#Arial-BoldMT-74" x="611.279297"/>
       <use xlink:href="#Arial-BoldMT-61" x="644.580078"/>
       <use xlink:href="#Arial-BoldMT-62" x="700.195312"/>
       <use xlink:href="#Arial-BoldMT-6f" x="761.279297"/>
       <use xlink:href="#Arial-BoldMT-6c" x="822.363281"/>
       <use xlink:href="#Arial-BoldMT-69" x="850.146484"/>
       <use xlink:href="#Arial-BoldMT-73" x="877.929688"/>
       <use xlink:href="#Arial-BoldMT-6d" x="933.544922"/>
      </g>
     </g>
    </g>
    <g id="ytick_7">
     <g id="line2d_9">
      <g>
       <use xlink:href="#mb0cd406ede" x="192.4425" y="38.414418" style="stroke: #000000; stroke-width: 0.8"/>
      </g>
     </g>
     <g id="text_10">
      <!-- Vitamin B6 metabolism -->
      <g transform="translate(97.5625 41.277543) scale(0.08 -0.08)">
       <defs>
        <path id="Arial-BoldMT-56" d="M 1634 0 
L -3 4581 
L 1000 4581 
L 2159 1191 
L 3281 4581 
L 4263 4581 
L 2622 0 
L 1634 0 
z
" transform="scale(0.015625)"/>
        <path id="Arial-BoldMT-42" d="M 469 4581 
L 2300 4581 
Q 2844 4581 3111 4536 
Q 3378 4491 3589 4347 
Q 3800 4203 3940 3964 
Q 4081 3725 4081 3428 
Q 4081 3106 3907 2837 
Q 3734 2569 3438 2434 
Q 3856 2313 4081 2019 
Q 4306 1725 4306 1328 
Q 4306 1016 4161 720 
Q 4016 425 3764 248 
Q 3513 72 3144 31 
Q 2913 6 2028 0 
L 469 0 
L 469 4581 
z
M 1394 3819 
L 1394 2759 
L 2000 2759 
Q 2541 2759 2672 2775 
Q 2909 2803 3045 2939 
Q 3181 3075 3181 3297 
Q 3181 3509 3064 3642 
Q 2947 3775 2716 3803 
Q 2578 3819 1925 3819 
L 1394 3819 
z
M 1394 1997 
L 1394 772 
L 2250 772 
Q 2750 772 2884 800 
Q 3091 838 3220 983 
Q 3350 1128 3350 1372 
Q 3350 1578 3250 1722 
Q 3150 1866 2961 1931 
Q 2772 1997 2141 1997 
L 1394 1997 
z
" transform="scale(0.015625)"/>
        <path id="Arial-BoldMT-36" d="M 3247 3459 
L 2397 3366 
Q 2366 3628 2234 3753 
Q 2103 3878 1894 3878 
Q 1616 3878 1423 3628 
Q 1231 3378 1181 2588 
Q 1509 2975 1997 2975 
Q 2547 2975 2939 2556 
Q 3331 2138 3331 1475 
Q 3331 772 2918 347 
Q 2506 -78 1859 -78 
Q 1166 -78 719 461 
Q 272 1000 272 2228 
Q 272 3488 737 4044 
Q 1203 4600 1947 4600 
Q 2469 4600 2811 4308 
Q 3153 4016 3247 3459 
z
M 1256 1544 
Q 1256 1116 1453 883 
Q 1650 650 1903 650 
Q 2147 650 2309 840 
Q 2472 1031 2472 1466 
Q 2472 1913 2297 2120 
Q 2122 2328 1859 2328 
Q 1606 2328 1431 2129 
Q 1256 1931 1256 1544 
z
" transform="scale(0.015625)"/>
       </defs>
       <use xlink:href="#Arial-BoldMT-56"/>
       <use xlink:href="#Arial-BoldMT-69" x="64.949219"/>
       <use xlink:href="#Arial-BoldMT-74" x="92.732422"/>
       <use xlink:href="#Arial-BoldMT-61" x="126.033203"/>
       <use xlink:href="#Arial-BoldMT-6d" x="181.648438"/>
       <use xlink:href="#Arial-BoldMT-69" x="270.564453"/>
       <use xlink:href="#Arial-BoldMT-6e" x="298.347656"/>
       <use xlink:href="#Arial-BoldMT-20" x="359.431641"/>
       <use xlink:href="#Arial-BoldMT-42" x="387.214844"/>
       <use xlink:href="#Arial-BoldMT-36" x="459.431641"/>
       <use xlink:href="#Arial-BoldMT-20" x="515.046875"/>
       <use xlink:href="#Arial-BoldMT-6d" x="542.830078"/>
       <use xlink:href="#Arial-BoldMT-65" x="631.746094"/>
       <use xlink:href="#Arial-BoldMT-74" x="687.361328"/>
       <use xlink:href="#Arial-BoldMT-61" x="720.662109"/>
       <use xlink:href="#Arial-BoldMT-62" x="776.277344"/>
       <use xlink:href="#Arial-BoldMT-6f" x="837.361328"/>
       <use xlink:href="#Arial-BoldMT-6c" x="898.445312"/>
       <use xlink:href="#Arial-BoldMT-69" x="926.228516"/>
       <use xlink:href="#Arial-BoldMT-73" x="954.011719"/>
       <use xlink:href="#Arial-BoldMT-6d" x="1009.626953"/>
      </g>
     </g>
    </g>
   </g>
   <g id="patch_10">
    <path d="M 192.4425 245.033125 
L 192.4425 21.935625 
" style="fill: none; stroke: #000000; stroke-linejoin: miter; stroke-linecap: square"/>
   </g>
   <g id="patch_11">
    <path d="M 272.9225 245.033125 
L 272.9225 21.935625 
" style="fill: none; stroke: #000000; stroke-linejoin: miter; stroke-linecap: square"/>
   </g>
   <g id="patch_12">
    <path d="M 192.4425 245.033125 
L 272.9225 245.033125 
" style="fill: none; stroke: #000000; stroke-linejoin: miter; stroke-linecap: square"/>
   </g>
   <g id="patch_13">
    <path d="M 192.4425 21.935625 
L 272.9225 21.935625 
" style="fill: none; stroke: #000000; stroke-linejoin: miter; stroke-linecap: square"/>
   </g>
   <g id="text_11">
    <!-- Dairy significant down -->
    <g transform="translate(168.679375 15.935625) scale(0.12 -0.12)">
     <defs>
      <path id="Arial-BoldMT-44" d="M 463 4581 
L 2153 4581 
Q 2725 4581 3025 4494 
Q 3428 4375 3715 4072 
Q 4003 3769 4153 3330 
Q 4303 2891 4303 2247 
Q 4303 1681 4163 1272 
Q 3991 772 3672 463 
Q 3431 228 3022 97 
Q 2716 0 2203 0 
L 463 0 
L 463 4581 
z
M 1388 3806 
L 1388 772 
L 2078 772 
Q 2466 772 2638 816 
Q 2863 872 3011 1006 
Q 3159 1141 3253 1448 
Q 3347 1756 3347 2288 
Q 3347 2819 3253 3103 
Q 3159 3388 2990 3547 
Q 2822 3706 2563 3763 
Q 2369 3806 1803 3806 
L 1388 3806 
z
" transform="scale(0.015625)"/>
      <path id="Arial-BoldMT-79" d="M 44 3319 
L 978 3319 
L 1772 963 
L 2547 3319 
L 3456 3319 
L 2284 125 
L 2075 -453 
Q 1959 -744 1854 -897 
Q 1750 -1050 1614 -1145 
Q 1478 -1241 1279 -1294 
Q 1081 -1347 831 -1347 
Q 578 -1347 334 -1294 
L 256 -606 
Q 463 -647 628 -647 
Q 934 -647 1081 -467 
Q 1228 -288 1306 -9 
L 44 3319 
z
" transform="scale(0.015625)"/>
      <path id="Arial-BoldMT-77" d="M 1078 0 
L 28 3319 
L 881 3319 
L 1503 1144 
L 2075 3319 
L 2922 3319 
L 3475 1144 
L 4109 3319 
L 4975 3319 
L 3909 0 
L 3066 0 
L 2494 2134 
L 1931 0 
L 1078 0 
z
" transform="scale(0.015625)"/>
     </defs>
     <use xlink:href="#Arial-BoldMT-44"/>
     <use xlink:href="#Arial-BoldMT-61" x="72.216797"/>
     <use xlink:href="#Arial-BoldMT-69" x="127.832031"/>
     <use xlink:href="#Arial-BoldMT-72" x="155.615234"/>
     <use xlink:href="#Arial-BoldMT-79" x="194.53125"/>
     <use xlink:href="#Arial-BoldMT-20" x="250.146484"/>
     <use xlink:href="#Arial-BoldMT-73" x="277.929688"/>
     <use xlink:href="#Arial-BoldMT-69" x="333.544922"/>
     <use xlink:href="#Arial-BoldMT-67" x="361.328125"/>
     <use xlink:href="#Arial-BoldMT-6e" x="422.412109"/>
     <use xlink:href="#Arial-BoldMT-69" x="483.496094"/>
     <use xlink:href="#Arial-BoldMT-66" x="511.279297"/>
     <use xlink:href="#Arial-BoldMT-69" x="544.580078"/>
     <use xlink:href="#Arial-BoldMT-63" x="572.363281"/>
     <use xlink:href="#Arial-BoldMT-61" x="627.978516"/>
     <use xlink:href="#Arial-BoldMT-6e" x="683.59375"/>
     <use xlink:href="#Arial-BoldMT-74" x="744.677734"/>
     <use xlink:href="#Arial-BoldMT-20" x="777.978516"/>
     <use xlink:href="#Arial-BoldMT-64" x="805.761719"/>
     <use xlink:href="#Arial-BoldMT-6f" x="866.845703"/>
     <use xlink:href="#Arial-BoldMT-77" x="927.929688"/>
     <use xlink:href="#Arial-BoldMT-6e" x="1005.712891"/>
    </g>
   </g>
  </g>
 </g>
 <defs>
  <clipPath id="p49a79ce1d3">
   <rect x="192.4425" y="21.935625" width="80.48" height="223.0975"/>
  </clipPath>
 </defs>
</svg>
