<?xml version="1.0" encoding="utf-8" standalone="no"?>
<!DOCTYPE svg PUBLIC "-//W3C//DTD SVG 1.1//EN"
  "http://www.w3.org/Graphics/SVG/1.1/DTD/svg11.dtd">
<svg xmlns:xlink="http://www.w3.org/1999/xlink" width="284.257187pt" height="213.559375pt" viewBox="0 0 284.257187 213.559375" xmlns="http://www.w3.org/2000/svg" version="1.1">
 <metadata>
  <rdf:RDF xmlns:dc="http://purl.org/dc/elements/1.1/" xmlns:cc="http://creativecommons.org/ns#" xmlns:rdf="http://www.w3.org/1999/02/22-rdf-syntax-ns#">
   <cc:Work>
    <dc:type rdf:resource="http://purl.org/dc/dcmitype/StillImage"/>
    <dc:date>2024-10-15T20:55:02.889774</dc:date>
    <dc:format>image/svg+xml</dc:format>
    <dc:creator>
     <cc:Agent>
      <dc:title>Matplotlib v3.8.4, https://matplotlib.org/</dc:title>
     </cc:Agent>
    </dc:creator>
   </cc:Work>
  </rdf:RDF>
 </metadata>
 <defs>
  <style type="text/css">*{stroke-linejoin: round; stroke-linecap: butt}</style>
 </defs>
 <g id="figure_1">
  <g id="patch_1">
   <path d="M 0 213.559375 
L 284.257187 213.559375 
L 284.257187 0 
L 0 0 
L 0 213.559375 
z
" style="fill: none"/>
  </g>
  <g id="axes_1">
   <g id="patch_2">
    <path d="M 48.775938 188.255625 
L 271.975937 188.255625 
L 271.975937 21.935625 
L 48.775938 21.935625 
L 48.775938 188.255625 
z
" style="fill: none"/>
   </g>
   <g id="PolyCollection_1">
    <defs>
     <path id="m20b0145101" d="M 124.377537 -66.88375 
L 84.774338 -66.88375 
L 59.935938 -67.746528 
L 63.376168 -68.609306 
L 76.74072 -69.472084 
L 89.268222 -70.334862 
L 95.75896 -71.19764 
L 100.948921 -72.060419 
L 103.225564 -72.923197 
L 103.890864 -73.785975 
L 104.451101 -74.648753 
L 104.485115 -75.511531 
L 104.568943 -76.374309 
L 104.528936 -77.237087 
L 104.565951 -78.099865 
L 104.575902 -78.962643 
L 104.575937 -79.825421 
L 104.575938 -80.688199 
L 104.575938 -81.550977 
L 104.575938 -82.413756 
L 104.575938 -83.276534 
L 104.575938 -84.139312 
L 104.575938 -85.00209 
L 104.575938 -85.864868 
L 104.575938 -86.727646 
L 104.575938 -87.590424 
L 104.575938 -88.453202 
L 104.575938 -89.31598 
L 104.575938 -90.178758 
L 104.575938 -91.041536 
L 104.575938 -91.904314 
L 104.575938 -92.767093 
L 104.575938 -93.629871 
L 104.575938 -94.492649 
L 104.575938 -95.355427 
L 104.575938 -96.218205 
L 104.575938 -97.080983 
L 104.575938 -97.943761 
L 104.575938 -98.806539 
L 104.575938 -99.669317 
L 104.575938 -100.532095 
L 104.575938 -101.394873 
L 104.575938 -102.257651 
L 104.575938 -103.12043 
L 104.575938 -103.983208 
L 104.575938 -104.845986 
L 104.575938 -105.708764 
L 104.575938 -106.571542 
L 104.575938 -107.43432 
L 104.575938 -108.297098 
L 104.575938 -109.159876 
L 104.575938 -110.022654 
L 104.575938 -110.885432 
L 104.575938 -111.74821 
L 104.575938 -112.610989 
L 104.575938 -113.473767 
L 104.575938 -114.336545 
L 104.575938 -115.199323 
L 104.575938 -116.062101 
L 104.575938 -116.924879 
L 104.575938 -117.787657 
L 104.575938 -118.650435 
L 104.575938 -119.513213 
L 104.575938 -120.375991 
L 104.575938 -121.238769 
L 104.575938 -122.101547 
L 104.575938 -122.964326 
L 104.575938 -123.827104 
L 104.575938 -124.689882 
L 104.575938 -125.55266 
L 104.575938 -126.415438 
L 104.575938 -127.278216 
L 104.575938 -128.140994 
L 104.575938 -129.003772 
L 104.575938 -129.86655 
L 104.575938 -130.729328 
L 104.575938 -131.592106 
L 104.575938 -132.454884 
L 104.575938 -133.317663 
L 104.575938 -134.180441 
L 104.575938 -135.043219 
L 104.575938 -135.905997 
L 104.575938 -136.768775 
L 104.575938 -137.631553 
L 104.575938 -138.494331 
L 104.575938 -139.357109 
L 104.575938 -140.219887 
L 104.575938 -141.082665 
L 104.575938 -141.945443 
L 104.575938 -142.808221 
L 104.575938 -143.671 
L 104.575938 -144.533778 
L 104.575938 -145.396556 
L 104.575938 -146.259334 
L 104.575938 -147.122112 
L 104.575938 -147.98489 
L 104.575938 -148.847668 
L 104.575937 -149.710446 
L 104.575924 -150.573224 
L 104.569683 -151.436002 
L 104.527492 -152.29878 
L 104.624383 -152.29878 
L 104.624383 -152.29878 
L 104.582192 -151.436002 
L 104.575951 -150.573224 
L 104.575938 -149.710446 
L 104.575938 -148.847668 
L 104.575938 -147.98489 
L 104.575938 -147.122112 
L 104.575938 -146.259334 
L 104.575938 -145.396556 
L 104.575938 -144.533778 
L 104.575938 -143.671 
L 104.575938 -142.808221 
L 104.575938 -141.945443 
L 104.575938 -141.082665 
L 104.575938 -140.219887 
L 104.575938 -139.357109 
L 104.575938 -138.494331 
L 104.575938 -137.631553 
L 104.575938 -136.768775 
L 104.575938 -135.905997 
L 104.575938 -135.043219 
L 104.575938 -134.180441 
L 104.575938 -133.317663 
L 104.575938 -132.454884 
L 104.575938 -131.592106 
L 104.575938 -130.729328 
L 104.575938 -129.86655 
L 104.575938 -129.003772 
L 104.575938 -128.140994 
L 104.575938 -127.278216 
L 104.575938 -126.415438 
L 104.575938 -125.55266 
L 104.575938 -124.689882 
L 104.575938 -123.827104 
L 104.575938 -122.964326 
L 104.575938 -122.101547 
L 104.575938 -121.238769 
L 104.575938 -120.375991 
L 104.575938 -119.513213 
L 104.575938 -118.650435 
L 104.575938 -117.787657 
L 104.575938 -116.924879 
L 104.575938 -116.062101 
L 104.575938 -115.199323 
L 104.575938 -114.336545 
L 104.575938 -113.473767 
L 104.575938 -112.610989 
L 104.575938 -111.74821 
L 104.575938 -110.885432 
L 104.575938 -110.022654 
L 104.575938 -109.159876 
L 104.575938 -108.297098 
L 104.575938 -107.43432 
L 104.575938 -106.571542 
L 104.575938 -105.708764 
L 104.575938 -104.845986 
L 104.575938 -103.983208 
L 104.575938 -103.12043 
L 104.575938 -102.257651 
L 104.575938 -101.394873 
L 104.575938 -100.532095 
L 104.575938 -99.669317 
L 104.575938 -98.806539 
L 104.575938 -97.943761 
L 104.575938 -97.080983 
L 104.575938 -96.218205 
L 104.575938 -95.355427 
L 104.575938 -94.492649 
L 104.575938 -93.629871 
L 104.575938 -92.767093 
L 104.575938 -91.904314 
L 104.575938 -91.041536 
L 104.575938 -90.178758 
L 104.575938 -89.31598 
L 104.575938 -88.453202 
L 104.575938 -87.590424 
L 104.575938 -86.727646 
L 104.575938 -85.864868 
L 104.575938 -85.00209 
L 104.575938 -84.139312 
L 104.575938 -83.276534 
L 104.575938 -82.413756 
L 104.575938 -81.550977 
L 104.575938 -80.688199 
L 104.575938 -79.825421 
L 104.575973 -78.962643 
L 104.585924 -78.099865 
L 104.622939 -77.237087 
L 104.582932 -76.374309 
L 104.66676 -75.511531 
L 104.700774 -74.648753 
L 105.261011 -73.785975 
L 105.926311 -72.923197 
L 108.202954 -72.060419 
L 113.392915 -71.19764 
L 119.883653 -70.334862 
L 132.411155 -69.472084 
L 145.775707 -68.609306 
L 149.215937 -67.746528 
L 124.377537 -66.88375 
z
" style="stroke: #3f3f3f; stroke-width: 1.25"/>
    </defs>
    <g clip-path="url(#p2d5a7a60cd)">
     <use xlink:href="#m20b0145101" x="0" y="213.559375" style="fill: #407193; stroke: #3f3f3f; stroke-width: 1.25"/>
    </g>
   </g>
   <g id="PolyCollection_2">
    <path d="M 260.815938 146.675625 
L 171.535937 146.675625 
L 188.161911 138.77252 
L 212.800356 130.869415 
L 216.085576 122.966309 
L 216.153584 115.063204 
L 216.144917 107.160099 
L 216.148025 99.256994 
L 216.164019 91.353889 
L 216.151584 83.450784 
L 215.973604 75.547678 
L 214.742157 67.644573 
L 213.851875 59.741468 
L 215.380167 51.838363 
L 216.118086 43.935258 
L 216.175051 36.032153 
L 216.175807 28.129047 
L 216.171938 20.225942 
L 216.154628 12.322837 
L 216.151683 4.419732 
L 216.145202 -3.483373 
L 216.129783 -11.386479 
L 216.106124 -19.289584 
L 216.106889 -27.192689 
L 216.160035 -35.095794 
L 216.17526 -42.998899 
L 216.175932 -50.902004 
L 216.175937 -58.80511 
L 216.175937 -66.708215 
L 216.175937 -74.61132 
L 216.175937 -82.514425 
L 216.175815 -90.41753 
L 216.172043 -98.320635 
L 216.155001 -106.223741 
L 216.156895 -114.126846 
L 216.173007 -122.029951 
L 216.175861 -129.933056 
L 216.175937 -137.836161 
L 216.175937 -145.739266 
L 216.175937 -153.642372 
L 216.175938 -161.545477 
L 216.175938 -169.448582 
L 216.175938 -177.351687 
L 216.175938 -185.254792 
L 216.175938 -193.157898 
L 216.175938 -201.061003 
L 216.175938 -208.964108 
L 216.175938 -216.867213 
L 216.175938 -224.770318 
L 216.175938 -232.673423 
L 216.175938 -240.576529 
L 216.175938 -248.479634 
L 216.175938 -256.382739 
L 216.175938 -264.285844 
L 216.175938 -272.188949 
L 216.175938 -280.092054 
L 216.175938 -287.99516 
L 216.175938 -295.898265 
L 216.175938 -303.80137 
L 216.175938 -311.704475 
L 216.175938 -319.60758 
L 216.175938 -327.510686 
L 216.175938 -335.413791 
L 216.175938 -343.316896 
L 216.175938 -351.220001 
L 216.175938 -359.123106 
L 216.175938 -367.026211 
L 216.175938 -374.929317 
L 216.175938 -382.832422 
L 216.175938 -390.735527 
L 216.175938 -398.638632 
L 216.175938 -406.541737 
L 216.175938 -414.444842 
L 216.175938 -422.347948 
L 216.175938 -430.251053 
L 216.175938 -438.154158 
L 216.175938 -446.057263 
L 216.175938 -453.960368 
L 216.175938 -461.863473 
L 216.175938 -469.766579 
L 216.175938 -477.669684 
L 216.175938 -485.572789 
L 216.175938 -493.475894 
L 216.175938 -501.378999 
L 216.175938 -509.282105 
L 216.175938 -517.18521 
L 216.175938 -525.088315 
L 216.175938 -532.99142 
L 216.175938 -540.894525 
L 216.175938 -548.79763 
L 216.175938 -556.700736 
L 216.175938 -564.603841 
L 216.175938 -572.506946 
L 216.175938 -580.410051 
L 216.175938 -588.313156 
L 216.175937 -596.216261 
L 216.175937 -604.119367 
L 216.175929 -612.022472 
L 216.175222 -619.925577 
L 216.165656 -627.828682 
L 216.150941 -635.731787 
L 216.200934 -635.731787 
L 216.200934 -635.731787 
L 216.186219 -627.828682 
L 216.176653 -619.925577 
L 216.175946 -612.022472 
L 216.175938 -604.119367 
L 216.175938 -596.216261 
L 216.175938 -588.313156 
L 216.175938 -580.410051 
L 216.175938 -572.506946 
L 216.175938 -564.603841 
L 216.175938 -556.700736 
L 216.175938 -548.79763 
L 216.175938 -540.894525 
L 216.175938 -532.99142 
L 216.175938 -525.088315 
L 216.175938 -517.18521 
L 216.175938 -509.282105 
L 216.175938 -501.378999 
L 216.175938 -493.475894 
L 216.175938 -485.572789 
L 216.175938 -477.669684 
L 216.175938 -469.766579 
L 216.175938 -461.863473 
L 216.175938 -453.960368 
L 216.175938 -446.057263 
L 216.175938 -438.154158 
L 216.175938 -430.251053 
L 216.175938 -422.347948 
L 216.175938 -414.444842 
L 216.175938 -406.541737 
L 216.175938 -398.638632 
L 216.175938 -390.735527 
L 216.175938 -382.832422 
L 216.175938 -374.929317 
L 216.175938 -367.026211 
L 216.175938 -359.123106 
L 216.175938 -351.220001 
L 216.175938 -343.316896 
L 216.175938 -335.413791 
L 216.175938 -327.510686 
L 216.175938 -319.60758 
L 216.175938 -311.704475 
L 216.175938 -303.80137 
L 216.175938 -295.898265 
L 216.175938 -287.99516 
L 216.175938 -280.092054 
L 216.175938 -272.188949 
L 216.175938 -264.285844 
L 216.175938 -256.382739 
L 216.175938 -248.479634 
L 216.175938 -240.576529 
L 216.175938 -232.673423 
L 216.175938 -224.770318 
L 216.175938 -216.867213 
L 216.175938 -208.964108 
L 216.175938 -201.061003 
L 216.175938 -193.157898 
L 216.175938 -185.254792 
L 216.175938 -177.351687 
L 216.175938 -169.448582 
L 216.175938 -161.545477 
L 216.175938 -153.642372 
L 216.175938 -145.739266 
L 216.175938 -137.836161 
L 216.176014 -129.933056 
L 216.178868 -122.029951 
L 216.19498 -114.126846 
L 216.196874 -106.223741 
L 216.179832 -98.320635 
L 216.17606 -90.41753 
L 216.175938 -82.514425 
L 216.175938 -74.61132 
L 216.175938 -66.708215 
L 216.175938 -58.80511 
L 216.175943 -50.902004 
L 216.176615 -42.998899 
L 216.19184 -35.095794 
L 216.244986 -27.192689 
L 216.245751 -19.289584 
L 216.222092 -11.386479 
L 216.206673 -3.483373 
L 216.200192 4.419732 
L 216.197247 12.322837 
L 216.179937 20.225942 
L 216.176068 28.129047 
L 216.176824 36.032153 
L 216.233789 43.935258 
L 216.971708 51.838363 
L 218.5 59.741468 
L 217.609718 67.644573 
L 216.378271 75.547678 
L 216.200291 83.450784 
L 216.187856 91.353889 
L 216.20385 99.256994 
L 216.206958 107.160099 
L 216.198291 115.063204 
L 216.266299 122.966309 
L 219.551519 130.869415 
L 244.189964 138.77252 
L 260.815938 146.675625 
z
" clip-path="url(#p2d5a7a60cd)" style="fill: #df6c20; stroke: #3f3f3f; stroke-width: 1.25"/>
   </g>
   <g id="matplotlib.axis_1">
    <g id="xtick_1">
     <g id="line2d_1">
      <defs>
       <path id="mff5585eff5" d="M 0 0 
L 0 3.5 
" style="stroke: #000000; stroke-width: 0.8"/>
      </defs>
      <g>
       <use xlink:href="#mff5585eff5" x="104.575938" y="188.255625" style="stroke: #000000; stroke-width: 0.8"/>
      </g>
     </g>
     <g id="text_1">
      <!-- Yeast core -->
      <g transform="translate(74.55625 203.845) scale(0.12 -0.12)">
       <defs>
        <path id="Arial-BoldMT-59" d="M 1669 0 
L 1669 1928 
L -9 4581 
L 1075 4581 
L 2153 2769 
L 3209 4581 
L 4275 4581 
L 2591 1922 
L 2591 0 
L 1669 0 
z
" transform="scale(0.015625)"/>
        <path id="Arial-BoldMT-65" d="M 2381 1056 
L 3256 909 
Q 3088 428 2723 176 
Q 2359 -75 1813 -75 
Q 947 -75 531 491 
Q 203 944 203 1634 
Q 203 2459 634 2926 
Q 1066 3394 1725 3394 
Q 2466 3394 2894 2905 
Q 3322 2416 3303 1406 
L 1103 1406 
Q 1113 1016 1316 798 
Q 1519 581 1822 581 
Q 2028 581 2168 693 
Q 2309 806 2381 1056 
z
M 2431 1944 
Q 2422 2325 2234 2523 
Q 2047 2722 1778 2722 
Q 1491 2722 1303 2513 
Q 1116 2303 1119 1944 
L 2431 1944 
z
" transform="scale(0.015625)"/>
        <path id="Arial-BoldMT-61" d="M 1116 2306 
L 319 2450 
Q 453 2931 781 3162 
Q 1109 3394 1756 3394 
Q 2344 3394 2631 3255 
Q 2919 3116 3036 2902 
Q 3153 2688 3153 2116 
L 3144 1091 
Q 3144 653 3186 445 
Q 3228 238 3344 0 
L 2475 0 
Q 2441 88 2391 259 
Q 2369 338 2359 363 
Q 2134 144 1878 34 
Q 1622 -75 1331 -75 
Q 819 -75 523 203 
Q 228 481 228 906 
Q 228 1188 362 1408 
Q 497 1628 739 1745 
Q 981 1863 1438 1950 
Q 2053 2066 2291 2166 
L 2291 2253 
Q 2291 2506 2166 2614 
Q 2041 2722 1694 2722 
Q 1459 2722 1328 2630 
Q 1197 2538 1116 2306 
z
M 2291 1594 
Q 2122 1538 1756 1459 
Q 1391 1381 1278 1306 
Q 1106 1184 1106 997 
Q 1106 813 1243 678 
Q 1381 544 1594 544 
Q 1831 544 2047 700 
Q 2206 819 2256 991 
Q 2291 1103 2291 1419 
L 2291 1594 
z
" transform="scale(0.015625)"/>
        <path id="Arial-BoldMT-73" d="M 150 947 
L 1031 1081 
Q 1088 825 1259 692 
Q 1431 559 1741 559 
Q 2081 559 2253 684 
Q 2369 772 2369 919 
Q 2369 1019 2306 1084 
Q 2241 1147 2013 1200 
Q 950 1434 666 1628 
Q 272 1897 272 2375 
Q 272 2806 612 3100 
Q 953 3394 1669 3394 
Q 2350 3394 2681 3172 
Q 3013 2950 3138 2516 
L 2309 2363 
Q 2256 2556 2107 2659 
Q 1959 2763 1684 2763 
Q 1338 2763 1188 2666 
Q 1088 2597 1088 2488 
Q 1088 2394 1175 2328 
Q 1294 2241 1995 2081 
Q 2697 1922 2975 1691 
Q 3250 1456 3250 1038 
Q 3250 581 2869 253 
Q 2488 -75 1741 -75 
Q 1063 -75 667 200 
Q 272 475 150 947 
z
" transform="scale(0.015625)"/>
        <path id="Arial-BoldMT-74" d="M 1981 3319 
L 1981 2619 
L 1381 2619 
L 1381 1281 
Q 1381 875 1398 808 
Q 1416 741 1477 697 
Q 1538 653 1625 653 
Q 1747 653 1978 738 
L 2053 56 
Q 1747 -75 1359 -75 
Q 1122 -75 931 4 
Q 741 84 652 211 
Q 563 338 528 553 
Q 500 706 500 1172 
L 500 2619 
L 97 2619 
L 97 3319 
L 500 3319 
L 500 3978 
L 1381 4491 
L 1381 3319 
L 1981 3319 
z
" transform="scale(0.015625)"/>
        <path id="Arial-BoldMT-20" transform="scale(0.015625)"/>
        <path id="Arial-BoldMT-63" d="M 3353 2338 
L 2488 2181 
Q 2444 2441 2289 2572 
Q 2134 2703 1888 2703 
Q 1559 2703 1364 2476 
Q 1169 2250 1169 1719 
Q 1169 1128 1367 884 
Q 1566 641 1900 641 
Q 2150 641 2309 783 
Q 2469 925 2534 1272 
L 3397 1125 
Q 3263 531 2881 228 
Q 2500 -75 1859 -75 
Q 1131 -75 698 384 
Q 266 844 266 1656 
Q 266 2478 700 2936 
Q 1134 3394 1875 3394 
Q 2481 3394 2839 3133 
Q 3197 2872 3353 2338 
z
" transform="scale(0.015625)"/>
        <path id="Arial-BoldMT-6f" d="M 256 1706 
Q 256 2144 472 2553 
Q 688 2963 1083 3178 
Q 1478 3394 1966 3394 
Q 2719 3394 3200 2905 
Q 3681 2416 3681 1669 
Q 3681 916 3195 420 
Q 2709 -75 1972 -75 
Q 1516 -75 1102 131 
Q 688 338 472 736 
Q 256 1134 256 1706 
z
M 1156 1659 
Q 1156 1166 1390 903 
Q 1625 641 1969 641 
Q 2313 641 2545 903 
Q 2778 1166 2778 1666 
Q 2778 2153 2545 2415 
Q 2313 2678 1969 2678 
Q 1625 2678 1390 2415 
Q 1156 2153 1156 1659 
z
" transform="scale(0.015625)"/>
        <path id="Arial-BoldMT-72" d="M 1300 0 
L 422 0 
L 422 3319 
L 1238 3319 
L 1238 2847 
Q 1447 3181 1614 3287 
Q 1781 3394 1994 3394 
Q 2294 3394 2572 3228 
L 2300 2463 
Q 2078 2606 1888 2606 
Q 1703 2606 1575 2504 
Q 1447 2403 1373 2137 
Q 1300 1872 1300 1025 
L 1300 0 
z
" transform="scale(0.015625)"/>
       </defs>
       <use xlink:href="#Arial-BoldMT-59"/>
       <use xlink:href="#Arial-BoldMT-65" x="61.199219"/>
       <use xlink:href="#Arial-BoldMT-61" x="116.814453"/>
       <use xlink:href="#Arial-BoldMT-73" x="172.429688"/>
       <use xlink:href="#Arial-BoldMT-74" x="228.044922"/>
       <use xlink:href="#Arial-BoldMT-20" x="261.345703"/>
       <use xlink:href="#Arial-BoldMT-63" x="289.128906"/>
       <use xlink:href="#Arial-BoldMT-6f" x="344.744141"/>
       <use xlink:href="#Arial-BoldMT-72" x="405.828125"/>
       <use xlink:href="#Arial-BoldMT-65" x="444.744141"/>
      </g>
     </g>
    </g>
    <g id="xtick_2">
     <g id="line2d_2">
      <g>
       <use xlink:href="#mff5585eff5" x="216.175938" y="188.255625" style="stroke: #000000; stroke-width: 0.8"/>
      </g>
     </g>
     <g id="text_2">
      <!-- Sce specific core -->
      <g transform="translate(167.15125 203.99125) scale(0.12 -0.12)">
       <defs>
        <path id="Arial-BoldMT-53" d="M 231 1491 
L 1131 1578 
Q 1213 1125 1461 912 
Q 1709 700 2131 700 
Q 2578 700 2804 889 
Q 3031 1078 3031 1331 
Q 3031 1494 2936 1608 
Q 2841 1722 2603 1806 
Q 2441 1863 1863 2006 
Q 1119 2191 819 2459 
Q 397 2838 397 3381 
Q 397 3731 595 4036 
Q 794 4341 1167 4500 
Q 1541 4659 2069 4659 
Q 2931 4659 3367 4281 
Q 3803 3903 3825 3272 
L 2900 3231 
Q 2841 3584 2645 3739 
Q 2450 3894 2059 3894 
Q 1656 3894 1428 3728 
Q 1281 3622 1281 3444 
Q 1281 3281 1419 3166 
Q 1594 3019 2269 2859 
Q 2944 2700 3267 2529 
Q 3591 2359 3773 2064 
Q 3956 1769 3956 1334 
Q 3956 941 3737 597 
Q 3519 253 3119 86 
Q 2719 -81 2122 -81 
Q 1253 -81 787 320 
Q 322 722 231 1491 
z
" transform="scale(0.015625)"/>
        <path id="Arial-BoldMT-70" d="M 434 3319 
L 1253 3319 
L 1253 2831 
Q 1413 3081 1684 3237 
Q 1956 3394 2288 3394 
Q 2866 3394 3269 2941 
Q 3672 2488 3672 1678 
Q 3672 847 3265 386 
Q 2859 -75 2281 -75 
Q 2006 -75 1782 34 
Q 1559 144 1313 409 
L 1313 -1263 
L 434 -1263 
L 434 3319 
z
M 1303 1716 
Q 1303 1156 1525 889 
Q 1747 622 2066 622 
Q 2372 622 2575 867 
Q 2778 1113 2778 1672 
Q 2778 2194 2568 2447 
Q 2359 2700 2050 2700 
Q 1728 2700 1515 2451 
Q 1303 2203 1303 1716 
z
" transform="scale(0.015625)"/>
        <path id="Arial-BoldMT-69" d="M 459 3769 
L 459 4581 
L 1338 4581 
L 1338 3769 
L 459 3769 
z
M 459 0 
L 459 3319 
L 1338 3319 
L 1338 0 
L 459 0 
z
" transform="scale(0.015625)"/>
        <path id="Arial-BoldMT-66" d="M 75 3319 
L 563 3319 
L 563 3569 
Q 563 3988 652 4194 
Q 741 4400 980 4529 
Q 1219 4659 1584 4659 
Q 1959 4659 2319 4547 
L 2200 3934 
Q 1991 3984 1797 3984 
Q 1606 3984 1523 3895 
Q 1441 3806 1441 3553 
L 1441 3319 
L 2097 3319 
L 2097 2628 
L 1441 2628 
L 1441 0 
L 563 0 
L 563 2628 
L 75 2628 
L 75 3319 
z
" transform="scale(0.015625)"/>
       </defs>
       <use xlink:href="#Arial-BoldMT-53"/>
       <use xlink:href="#Arial-BoldMT-63" x="66.699219"/>
       <use xlink:href="#Arial-BoldMT-65" x="122.314453"/>
       <use xlink:href="#Arial-BoldMT-20" x="177.929688"/>
       <use xlink:href="#Arial-BoldMT-73" x="205.712891"/>
       <use xlink:href="#Arial-BoldMT-70" x="261.328125"/>
       <use xlink:href="#Arial-BoldMT-65" x="322.412109"/>
       <use xlink:href="#Arial-BoldMT-63" x="378.027344"/>
       <use xlink:href="#Arial-BoldMT-69" x="433.642578"/>
       <use xlink:href="#Arial-BoldMT-66" x="461.425781"/>
       <use xlink:href="#Arial-BoldMT-69" x="494.726562"/>
       <use xlink:href="#Arial-BoldMT-63" x="522.509766"/>
       <use xlink:href="#Arial-BoldMT-20" x="578.125"/>
       <use xlink:href="#Arial-BoldMT-63" x="605.908203"/>
       <use xlink:href="#Arial-BoldMT-6f" x="661.523438"/>
       <use xlink:href="#Arial-BoldMT-72" x="722.607422"/>
       <use xlink:href="#Arial-BoldMT-65" x="761.523438"/>
      </g>
     </g>
    </g>
   </g>
   <g id="matplotlib.axis_2">
    <g id="ytick_1">
     <g id="line2d_3">
      <defs>
       <path id="m8772337ecb" d="M 0 0 
L -3.5 0 
" style="stroke: #000000; stroke-width: 0.8"/>
      </defs>
      <g>
       <use xlink:href="#m8772337ecb" x="48.775938" y="188.255625" style="stroke: #000000; stroke-width: 0.8"/>
      </g>
     </g>
     <g id="text_3">
      <!-- 0.50 -->
      <g transform="translate(22.315 191.834531) scale(0.1 -0.1)">
       <defs>
        <path id="ArialMT-30" d="M 266 2259 
Q 266 3072 433 3567 
Q 600 4063 929 4331 
Q 1259 4600 1759 4600 
Q 2128 4600 2406 4451 
Q 2684 4303 2865 4023 
Q 3047 3744 3150 3342 
Q 3253 2941 3253 2259 
Q 3253 1453 3087 958 
Q 2922 463 2592 192 
Q 2263 -78 1759 -78 
Q 1097 -78 719 397 
Q 266 969 266 2259 
z
M 844 2259 
Q 844 1131 1108 757 
Q 1372 384 1759 384 
Q 2147 384 2411 759 
Q 2675 1134 2675 2259 
Q 2675 3391 2411 3762 
Q 2147 4134 1753 4134 
Q 1366 4134 1134 3806 
Q 844 3388 844 2259 
z
" transform="scale(0.015625)"/>
        <path id="ArialMT-2e" d="M 581 0 
L 581 641 
L 1222 641 
L 1222 0 
L 581 0 
z
" transform="scale(0.015625)"/>
        <path id="ArialMT-35" d="M 266 1200 
L 856 1250 
Q 922 819 1161 601 
Q 1400 384 1738 384 
Q 2144 384 2425 690 
Q 2706 997 2706 1503 
Q 2706 1984 2436 2262 
Q 2166 2541 1728 2541 
Q 1456 2541 1237 2417 
Q 1019 2294 894 2097 
L 366 2166 
L 809 4519 
L 3088 4519 
L 3088 3981 
L 1259 3981 
L 1013 2750 
Q 1425 3038 1878 3038 
Q 2478 3038 2890 2622 
Q 3303 2206 3303 1553 
Q 3303 931 2941 478 
Q 2500 -78 1738 -78 
Q 1113 -78 717 272 
Q 322 622 266 1200 
z
" transform="scale(0.015625)"/>
       </defs>
       <use xlink:href="#ArialMT-30"/>
       <use xlink:href="#ArialMT-2e" x="55.615234"/>
       <use xlink:href="#ArialMT-35" x="83.398438"/>
       <use xlink:href="#ArialMT-30" x="139.013672"/>
      </g>
     </g>
    </g>
    <g id="ytick_2">
     <g id="line2d_4">
      <g>
       <use xlink:href="#m8772337ecb" x="48.775938" y="167.465625" style="stroke: #000000; stroke-width: 0.8"/>
      </g>
     </g>
     <g id="text_4">
      <!-- 0.75 -->
      <g transform="translate(22.315 171.044531) scale(0.1 -0.1)">
       <defs>
        <path id="ArialMT-37" d="M 303 3981 
L 303 4522 
L 3269 4522 
L 3269 4084 
Q 2831 3619 2401 2847 
Q 1972 2075 1738 1259 
Q 1569 684 1522 0 
L 944 0 
Q 953 541 1156 1306 
Q 1359 2072 1739 2783 
Q 2119 3494 2547 3981 
L 303 3981 
z
" transform="scale(0.015625)"/>
       </defs>
       <use xlink:href="#ArialMT-30"/>
       <use xlink:href="#ArialMT-2e" x="55.615234"/>
       <use xlink:href="#ArialMT-37" x="83.398438"/>
       <use xlink:href="#ArialMT-35" x="139.013672"/>
      </g>
     </g>
    </g>
    <g id="ytick_3">
     <g id="line2d_5">
      <g>
       <use xlink:href="#m8772337ecb" x="48.775938" y="146.675625" style="stroke: #000000; stroke-width: 0.8"/>
      </g>
     </g>
     <g id="text_5">
      <!-- 1.00 -->
      <g transform="translate(22.315 150.254531) scale(0.1 -0.1)">
       <defs>
        <path id="ArialMT-31" d="M 2384 0 
L 1822 0 
L 1822 3584 
Q 1619 3391 1289 3197 
Q 959 3003 697 2906 
L 697 3450 
Q 1169 3672 1522 3987 
Q 1875 4303 2022 4600 
L 2384 4600 
L 2384 0 
z
" transform="scale(0.015625)"/>
       </defs>
       <use xlink:href="#ArialMT-31"/>
       <use xlink:href="#ArialMT-2e" x="55.615234"/>
       <use xlink:href="#ArialMT-30" x="83.398438"/>
       <use xlink:href="#ArialMT-30" x="139.013672"/>
      </g>
     </g>
    </g>
    <g id="ytick_4">
     <g id="line2d_6">
      <g>
       <use xlink:href="#m8772337ecb" x="48.775938" y="125.885625" style="stroke: #000000; stroke-width: 0.8"/>
      </g>
     </g>
     <g id="text_6">
      <!-- 1.25 -->
      <g transform="translate(22.315 129.464531) scale(0.1 -0.1)">
       <defs>
        <path id="ArialMT-32" d="M 3222 541 
L 3222 0 
L 194 0 
Q 188 203 259 391 
Q 375 700 629 1000 
Q 884 1300 1366 1694 
Q 2113 2306 2375 2664 
Q 2638 3022 2638 3341 
Q 2638 3675 2398 3904 
Q 2159 4134 1775 4134 
Q 1369 4134 1125 3890 
Q 881 3647 878 3216 
L 300 3275 
Q 359 3922 746 4261 
Q 1134 4600 1788 4600 
Q 2447 4600 2831 4234 
Q 3216 3869 3216 3328 
Q 3216 3053 3103 2787 
Q 2991 2522 2730 2228 
Q 2469 1934 1863 1422 
Q 1356 997 1212 845 
Q 1069 694 975 541 
L 3222 541 
z
" transform="scale(0.015625)"/>
       </defs>
       <use xlink:href="#ArialMT-31"/>
       <use xlink:href="#ArialMT-2e" x="55.615234"/>
       <use xlink:href="#ArialMT-32" x="83.398438"/>
       <use xlink:href="#ArialMT-35" x="139.013672"/>
      </g>
     </g>
    </g>
    <g id="ytick_5">
     <g id="line2d_7">
      <g>
       <use xlink:href="#m8772337ecb" x="48.775938" y="105.095625" style="stroke: #000000; stroke-width: 0.8"/>
      </g>
     </g>
     <g id="text_7">
      <!-- 1.50 -->
      <g transform="translate(22.315 108.674531) scale(0.1 -0.1)">
       <use xlink:href="#ArialMT-31"/>
       <use xlink:href="#ArialMT-2e" x="55.615234"/>
       <use xlink:href="#ArialMT-35" x="83.398438"/>
       <use xlink:href="#ArialMT-30" x="139.013672"/>
      </g>
     </g>
    </g>
    <g id="ytick_6">
     <g id="line2d_8">
      <g>
       <use xlink:href="#m8772337ecb" x="48.775938" y="84.305625" style="stroke: #000000; stroke-width: 0.8"/>
      </g>
     </g>
     <g id="text_8">
      <!-- 1.75 -->
      <g transform="translate(22.315 87.884531) scale(0.1 -0.1)">
       <use xlink:href="#ArialMT-31"/>
       <use xlink:href="#ArialMT-2e" x="55.615234"/>
       <use xlink:href="#ArialMT-37" x="83.398438"/>
       <use xlink:href="#ArialMT-35" x="139.013672"/>
      </g>
     </g>
    </g>
    <g id="ytick_7">
     <g id="line2d_9">
      <g>
       <use xlink:href="#m8772337ecb" x="48.775938" y="63.515625" style="stroke: #000000; stroke-width: 0.8"/>
      </g>
     </g>
     <g id="text_9">
      <!-- 2.00 -->
      <g transform="translate(22.315 67.094531) scale(0.1 -0.1)">
       <use xlink:href="#ArialMT-32"/>
       <use xlink:href="#ArialMT-2e" x="55.615234"/>
       <use xlink:href="#ArialMT-30" x="83.398438"/>
       <use xlink:href="#ArialMT-30" x="139.013672"/>
      </g>
     </g>
    </g>
    <g id="ytick_8">
     <g id="line2d_10">
      <g>
       <use xlink:href="#m8772337ecb" x="48.775938" y="42.725625" style="stroke: #000000; stroke-width: 0.8"/>
      </g>
     </g>
     <g id="text_10">
      <!-- 2.25 -->
      <g transform="translate(22.315 46.304531) scale(0.1 -0.1)">
       <use xlink:href="#ArialMT-32"/>
       <use xlink:href="#ArialMT-2e" x="55.615234"/>
       <use xlink:href="#ArialMT-32" x="83.398438"/>
       <use xlink:href="#ArialMT-35" x="139.013672"/>
      </g>
     </g>
    </g>
    <g id="ytick_9">
     <g id="line2d_11">
      <g>
       <use xlink:href="#m8772337ecb" x="48.775938" y="21.935625" style="stroke: #000000; stroke-width: 0.8"/>
      </g>
     </g>
     <g id="text_11">
      <!-- 2.50 -->
      <g transform="translate(22.315 25.514531) scale(0.1 -0.1)">
       <use xlink:href="#ArialMT-32"/>
       <use xlink:href="#ArialMT-2e" x="55.615234"/>
       <use xlink:href="#ArialMT-35" x="83.398438"/>
       <use xlink:href="#ArialMT-30" x="139.013672"/>
      </g>
     </g>
    </g>
    <g id="text_12">
     <!-- Mean gene copy numbers -->
     <g transform="translate(15.789375 178.774688) rotate(-90) scale(0.12 -0.12)">
      <defs>
       <path id="Arial-BoldMT-4d" d="M 453 0 
L 453 4581 
L 1838 4581 
L 2669 1456 
L 3491 4581 
L 4878 4581 
L 4878 0 
L 4019 0 
L 4019 3606 
L 3109 0 
L 2219 0 
L 1313 3606 
L 1313 0 
L 453 0 
z
" transform="scale(0.015625)"/>
       <path id="Arial-BoldMT-6e" d="M 3478 0 
L 2600 0 
L 2600 1694 
Q 2600 2231 2544 2389 
Q 2488 2547 2361 2634 
Q 2234 2722 2056 2722 
Q 1828 2722 1647 2597 
Q 1466 2472 1398 2265 
Q 1331 2059 1331 1503 
L 1331 0 
L 453 0 
L 453 3319 
L 1269 3319 
L 1269 2831 
Q 1703 3394 2363 3394 
Q 2653 3394 2893 3289 
Q 3134 3184 3257 3021 
Q 3381 2859 3429 2653 
Q 3478 2447 3478 2063 
L 3478 0 
z
" transform="scale(0.015625)"/>
       <path id="Arial-BoldMT-67" d="M 378 -219 
L 1381 -341 
Q 1406 -516 1497 -581 
Q 1622 -675 1891 -675 
Q 2234 -675 2406 -572 
Q 2522 -503 2581 -350 
Q 2622 -241 2622 53 
L 2622 538 
Q 2228 0 1628 0 
Q 959 0 569 566 
Q 263 1013 263 1678 
Q 263 2513 664 2953 
Q 1066 3394 1663 3394 
Q 2278 3394 2678 2853 
L 2678 3319 
L 3500 3319 
L 3500 341 
Q 3500 -247 3403 -537 
Q 3306 -828 3131 -993 
Q 2956 -1159 2664 -1253 
Q 2372 -1347 1925 -1347 
Q 1081 -1347 728 -1058 
Q 375 -769 375 -325 
Q 375 -281 378 -219 
z
M 1163 1728 
Q 1163 1200 1367 954 
Q 1572 709 1872 709 
Q 2194 709 2416 961 
Q 2638 1213 2638 1706 
Q 2638 2222 2425 2472 
Q 2213 2722 1888 2722 
Q 1572 2722 1367 2476 
Q 1163 2231 1163 1728 
z
" transform="scale(0.015625)"/>
       <path id="Arial-BoldMT-79" d="M 44 3319 
L 978 3319 
L 1772 963 
L 2547 3319 
L 3456 3319 
L 2284 125 
L 2075 -453 
Q 1959 -744 1854 -897 
Q 1750 -1050 1614 -1145 
Q 1478 -1241 1279 -1294 
Q 1081 -1347 831 -1347 
Q 578 -1347 334 -1294 
L 256 -606 
Q 463 -647 628 -647 
Q 934 -647 1081 -467 
Q 1228 -288 1306 -9 
L 44 3319 
z
" transform="scale(0.015625)"/>
       <path id="Arial-BoldMT-75" d="M 2644 0 
L 2644 497 
Q 2463 231 2167 78 
Q 1872 -75 1544 -75 
Q 1209 -75 943 72 
Q 678 219 559 484 
Q 441 750 441 1219 
L 441 3319 
L 1319 3319 
L 1319 1794 
Q 1319 1094 1367 936 
Q 1416 778 1544 686 
Q 1672 594 1869 594 
Q 2094 594 2272 717 
Q 2450 841 2515 1023 
Q 2581 1206 2581 1919 
L 2581 3319 
L 3459 3319 
L 3459 0 
L 2644 0 
z
" transform="scale(0.015625)"/>
       <path id="Arial-BoldMT-6d" d="M 394 3319 
L 1203 3319 
L 1203 2866 
Q 1638 3394 2238 3394 
Q 2556 3394 2790 3262 
Q 3025 3131 3175 2866 
Q 3394 3131 3647 3262 
Q 3900 3394 4188 3394 
Q 4553 3394 4806 3245 
Q 5059 3097 5184 2809 
Q 5275 2597 5275 2122 
L 5275 0 
L 4397 0 
L 4397 1897 
Q 4397 2391 4306 2534 
Q 4184 2722 3931 2722 
Q 3747 2722 3584 2609 
Q 3422 2497 3350 2280 
Q 3278 2063 3278 1594 
L 3278 0 
L 2400 0 
L 2400 1819 
Q 2400 2303 2353 2443 
Q 2306 2584 2207 2653 
Q 2109 2722 1941 2722 
Q 1738 2722 1575 2612 
Q 1413 2503 1342 2297 
Q 1272 2091 1272 1613 
L 1272 0 
L 394 0 
L 394 3319 
z
" transform="scale(0.015625)"/>
       <path id="Arial-BoldMT-62" d="M 422 0 
L 422 4581 
L 1300 4581 
L 1300 2931 
Q 1706 3394 2263 3394 
Q 2869 3394 3266 2955 
Q 3663 2516 3663 1694 
Q 3663 844 3258 384 
Q 2853 -75 2275 -75 
Q 1991 -75 1714 67 
Q 1438 209 1238 488 
L 1238 0 
L 422 0 
z
M 1294 1731 
Q 1294 1216 1456 969 
Q 1684 619 2063 619 
Q 2353 619 2558 867 
Q 2763 1116 2763 1650 
Q 2763 2219 2556 2470 
Q 2350 2722 2028 2722 
Q 1713 2722 1503 2476 
Q 1294 2231 1294 1731 
z
" transform="scale(0.015625)"/>
      </defs>
      <use xlink:href="#Arial-BoldMT-4d"/>
      <use xlink:href="#Arial-BoldMT-65" x="83.300781"/>
      <use xlink:href="#Arial-BoldMT-61" x="138.916016"/>
      <use xlink:href="#Arial-BoldMT-6e" x="194.53125"/>
      <use xlink:href="#Arial-BoldMT-20" x="255.615234"/>
      <use xlink:href="#Arial-BoldMT-67" x="283.398438"/>
      <use xlink:href="#Arial-BoldMT-65" x="344.482422"/>
      <use xlink:href="#Arial-BoldMT-6e" x="400.097656"/>
      <use xlink:href="#Arial-BoldMT-65" x="461.181641"/>
      <use xlink:href="#Arial-BoldMT-20" x="516.796875"/>
      <use xlink:href="#Arial-BoldMT-63" x="544.580078"/>
      <use xlink:href="#Arial-BoldMT-6f" x="600.195312"/>
      <use xlink:href="#Arial-BoldMT-70" x="661.279297"/>
      <use xlink:href="#Arial-BoldMT-79" x="722.363281"/>
      <use xlink:href="#Arial-BoldMT-20" x="777.978516"/>
      <use xlink:href="#Arial-BoldMT-6e" x="805.761719"/>
      <use xlink:href="#Arial-BoldMT-75" x="866.845703"/>
      <use xlink:href="#Arial-BoldMT-6d" x="927.929688"/>
      <use xlink:href="#Arial-BoldMT-62" x="1016.845703"/>
      <use xlink:href="#Arial-BoldMT-65" x="1077.929688"/>
      <use xlink:href="#Arial-BoldMT-72" x="1133.544922"/>
      <use xlink:href="#Arial-BoldMT-73" x="1172.460938"/>
     </g>
    </g>
   </g>
   <g id="line2d_12">
    <path d="M 60.863406 145.845063 
L 148.288469 145.845063 
" clip-path="url(#p2d5a7a60cd)" style="fill: none; stroke-dasharray: 1.5625,0.9375; stroke-dashoffset: 0; stroke: #3f3f3f; stroke-width: 1.25"/>
   </g>
   <g id="line2d_13">
    <path d="M 62.78355 145.098692 
L 146.368325 145.098692 
" clip-path="url(#p2d5a7a60cd)" style="fill: none; stroke-dasharray: 3.125,1.25; stroke-dashoffset: 0; stroke: #3f3f3f; stroke-width: 1.25"/>
   </g>
   <g id="line2d_14">
    <path d="M 76.63429 144.094162 
L 132.517585 144.094162 
" clip-path="url(#p2d5a7a60cd)" style="fill: none; stroke-dasharray: 1.5625,0.9375; stroke-dashoffset: 0; stroke: #3f3f3f; stroke-width: 1.25"/>
   </g>
   <g id="line2d_15">
    <path d="M 173.184541 145.891966 
L 259.167334 145.891966 
" clip-path="url(#p2d5a7a60cd)" style="fill: none; stroke-dasharray: 1.5625,0.9375; stroke-dashoffset: 0; stroke: #3f3f3f; stroke-width: 1.25"/>
   </g>
   <g id="line2d_16">
    <path d="M 174.924486 145.064889 
L 257.427389 145.064889 
" clip-path="url(#p2d5a7a60cd)" style="fill: none; stroke-dasharray: 3.125,1.25; stroke-dashoffset: 0; stroke: #3f3f3f; stroke-width: 1.25"/>
   </g>
   <g id="line2d_17">
    <path d="M 177.471255 143.85429 
L 254.88062 143.85429 
" clip-path="url(#p2d5a7a60cd)" style="fill: none; stroke-dasharray: 1.5625,0.9375; stroke-dashoffset: 0; stroke: #3f3f3f; stroke-width: 1.25"/>
   </g>
   <g id="patch_3">
    <path d="M 48.775938 188.255625 
L 48.775938 21.935625 
" style="fill: none; stroke: #000000; stroke-linejoin: miter; stroke-linecap: square"/>
   </g>
   <g id="patch_4">
    <path d="M 271.975937 188.255625 
L 271.975937 21.935625 
" style="fill: none; stroke: #000000; stroke-linejoin: miter; stroke-linecap: square"/>
   </g>
   <g id="patch_5">
    <path d="M 48.775938 188.255625 
L 271.975937 188.255625 
" style="fill: none; stroke: #000000; stroke-linejoin: miter; stroke-linecap: square"/>
   </g>
   <g id="patch_6">
    <path d="M 48.775938 21.935625 
L 271.975937 21.935625 
" style="fill: none; stroke: #000000; stroke-linejoin: miter; stroke-linecap: square"/>
   </g>
   <g id="text_13">
    <!-- p=0.0 -->
    <g style="fill: #ff0000" transform="translate(126.895938 55.199625) scale(0.12 -0.12)">
     <defs>
      <path id="ArialMT-70" d="M 422 -1272 
L 422 3319 
L 934 3319 
L 934 2888 
Q 1116 3141 1344 3267 
Q 1572 3394 1897 3394 
Q 2322 3394 2647 3175 
Q 2972 2956 3137 2557 
Q 3303 2159 3303 1684 
Q 3303 1175 3120 767 
Q 2938 359 2589 142 
Q 2241 -75 1856 -75 
Q 1575 -75 1351 44 
Q 1128 163 984 344 
L 984 -1272 
L 422 -1272 
z
M 931 1641 
Q 931 1000 1190 694 
Q 1450 388 1819 388 
Q 2194 388 2461 705 
Q 2728 1022 2728 1688 
Q 2728 2322 2467 2637 
Q 2206 2953 1844 2953 
Q 1484 2953 1207 2617 
Q 931 2281 931 1641 
z
" transform="scale(0.015625)"/>
      <path id="ArialMT-3d" d="M 3381 2694 
L 356 2694 
L 356 3219 
L 3381 3219 
L 3381 2694 
z
M 3381 1303 
L 356 1303 
L 356 1828 
L 3381 1828 
L 3381 1303 
z
" transform="scale(0.015625)"/>
     </defs>
     <use xlink:href="#ArialMT-70"/>
     <use xlink:href="#ArialMT-3d" x="55.615234"/>
     <use xlink:href="#ArialMT-30" x="114.013672"/>
     <use xlink:href="#ArialMT-2e" x="169.628906"/>
     <use xlink:href="#ArialMT-30" x="197.412109"/>
    </g>
   </g>
   <g id="text_14">
    <!-- Mean gene copy number of core genome -->
    <g transform="translate(43.694688 15.935625) scale(0.12 -0.12)">
     <use xlink:href="#Arial-BoldMT-4d"/>
     <use xlink:href="#Arial-BoldMT-65" x="83.300781"/>
     <use xlink:href="#Arial-BoldMT-61" x="138.916016"/>
     <use xlink:href="#Arial-BoldMT-6e" x="194.53125"/>
     <use xlink:href="#Arial-BoldMT-20" x="255.615234"/>
     <use xlink:href="#Arial-BoldMT-67" x="283.398438"/>
     <use xlink:href="#Arial-BoldMT-65" x="344.482422"/>
     <use xlink:href="#Arial-BoldMT-6e" x="400.097656"/>
     <use xlink:href="#Arial-BoldMT-65" x="461.181641"/>
     <use xlink:href="#Arial-BoldMT-20" x="516.796875"/>
     <use xlink:href="#Arial-BoldMT-63" x="544.580078"/>
     <use xlink:href="#Arial-BoldMT-6f" x="600.195312"/>
     <use xlink:href="#Arial-BoldMT-70" x="661.279297"/>
     <use xlink:href="#Arial-BoldMT-79" x="722.363281"/>
     <use xlink:href="#Arial-BoldMT-20" x="777.978516"/>
     <use xlink:href="#Arial-BoldMT-6e" x="805.761719"/>
     <use xlink:href="#Arial-BoldMT-75" x="866.845703"/>
     <use xlink:href="#Arial-BoldMT-6d" x="927.929688"/>
     <use xlink:href="#Arial-BoldMT-62" x="1016.845703"/>
     <use xlink:href="#Arial-BoldMT-65" x="1077.929688"/>
     <use xlink:href="#Arial-BoldMT-72" x="1133.544922"/>
     <use xlink:href="#Arial-BoldMT-20" x="1172.460938"/>
     <use xlink:href="#Arial-BoldMT-6f" x="1200.244141"/>
     <use xlink:href="#Arial-BoldMT-66" x="1261.328125"/>
     <use xlink:href="#Arial-BoldMT-20" x="1294.628906"/>
     <use xlink:href="#Arial-BoldMT-63" x="1322.412109"/>
     <use xlink:href="#Arial-BoldMT-6f" x="1378.027344"/>
     <use xlink:href="#Arial-BoldMT-72" x="1439.111328"/>
     <use xlink:href="#Arial-BoldMT-65" x="1478.027344"/>
     <use xlink:href="#Arial-BoldMT-20" x="1533.642578"/>
     <use xlink:href="#Arial-BoldMT-67" x="1561.425781"/>
     <use xlink:href="#Arial-BoldMT-65" x="1622.509766"/>
     <use xlink:href="#Arial-BoldMT-6e" x="1678.125"/>
     <use xlink:href="#Arial-BoldMT-6f" x="1739.208984"/>
     <use xlink:href="#Arial-BoldMT-6d" x="1800.292969"/>
     <use xlink:href="#Arial-BoldMT-65" x="1889.208984"/>
    </g>
   </g>
  </g>
 </g>
 <defs>
  <clipPath id="p2d5a7a60cd">
   <rect x="48.775938" y="21.935625" width="223.2" height="166.32"/>
  </clipPath>
 </defs>
</svg>
