<?xml version="1.0" encoding="utf-8" standalone="no"?>
<!DOCTYPE svg PUBLIC "-//W3C//DTD SVG 1.1//EN"
  "http://www.w3.org/Graphics/SVG/1.1/DTD/svg11.dtd">
<svg xmlns:xlink="http://www.w3.org/1999/xlink" width="277.02pt" height="213.570625pt" viewBox="0 0 277.02 213.570625" xmlns="http://www.w3.org/2000/svg" version="1.1">
 <metadata>
  <rdf:RDF xmlns:dc="http://purl.org/dc/elements/1.1/" xmlns:cc="http://creativecommons.org/ns#" xmlns:rdf="http://www.w3.org/1999/02/22-rdf-syntax-ns#">
   <cc:Work>
    <dc:type rdf:resource="http://purl.org/dc/dcmitype/StillImage"/>
    <dc:date>2024-04-28T10:53:55.863592</dc:date>
    <dc:format>image/svg+xml</dc:format>
    <dc:creator>
     <cc:Agent>
      <dc:title>Matplotlib v3.8.4, https://matplotlib.org/</dc:title>
     </cc:Agent>
    </dc:creator>
   </cc:Work>
  </rdf:RDF>
 </metadata>
 <defs>
  <style type="text/css">*{stroke-linejoin: round; stroke-linecap: butt}</style>
 </defs>
 <g id="figure_1">
  <g id="patch_1">
   <path d="M 0 213.570625 
L 277.02 213.570625 
L 277.02 0 
L 0 0 
L 0 213.570625 
z
" style="fill: none"/>
  </g>
  <g id="axes_1">
   <g id="patch_2">
    <path d="M 43.215 188.255625 
L 266.415 188.255625 
L 266.415 21.935625 
L 43.215 21.935625 
L 43.215 188.255625 
z
" style="fill: none"/>
   </g>
   <g id="PolyCollection_1">
    <path d="M 143.655 132.815625 
L 54.375 132.815625 
L 87.308665 122.278151 
L 98.957721 111.740678 
L 99.014947 101.203204 
L 99.008531 90.665731 
L 99.008982 80.128257 
L 99.003555 69.590784 
L 99.014581 59.05331 
L 99.010017 48.515836 
L 99.007503 37.978363 
L 98.74472 27.440889 
L 98.088677 16.903416 
L 98.95215 6.365942 
L 99.014925 -4.171531 
L 99.015 -14.709005 
L 99.015 -25.246479 
L 99.014968 -35.783952 
L 99.008238 -46.321426 
L 99.010226 -56.858899 
L 99.006355 -67.396373 
L 99.003483 -77.933846 
L 99.000791 -88.47132 
L 98.990365 -99.008793 
L 99.014665 -109.546267 
L 99.015 -120.083741 
L 99.015 -130.621214 
L 99.015 -141.158688 
L 99.015 -151.696161 
L 99.015 -162.233635 
L 99.015 -172.771108 
L 99.015 -183.308582 
L 99.014971 -193.846056 
L 99.008411 -204.383529 
L 99.010145 -214.921003 
L 99.014988 -225.458476 
L 99.015 -235.99595 
L 99.015 -246.533423 
L 99.015 -257.070897 
L 99.015 -267.608371 
L 99.015 -278.145844 
L 99.015 -288.683318 
L 99.015 -299.220791 
L 99.015 -309.758265 
L 99.015 -320.295738 
L 99.015 -330.833212 
L 99.015 -341.370686 
L 99.015 -351.908159 
L 99.015 -362.445633 
L 99.015 -372.983106 
L 99.015 -383.52058 
L 99.015 -394.058053 
L 99.015 -404.595527 
L 99.015 -415.133 
L 99.015 -425.670474 
L 99.015 -436.207948 
L 99.015 -446.745421 
L 99.015 -457.282895 
L 99.015 -467.820368 
L 99.015 -478.357842 
L 99.015 -488.895315 
L 99.015 -499.432789 
L 99.015 -509.970263 
L 99.015 -520.507736 
L 99.015 -531.04521 
L 99.015 -541.582683 
L 99.015 -552.120157 
L 99.015 -562.65763 
L 99.015 -573.195104 
L 99.015 -583.732578 
L 99.015 -594.270051 
L 99.015 -604.807525 
L 99.015 -615.344998 
L 99.015 -625.882472 
L 99.015 -636.419945 
L 99.015 -646.957419 
L 99.015 -657.494893 
L 99.015 -668.032366 
L 99.015 -678.56984 
L 99.015 -689.107313 
L 99.015 -699.644787 
L 99.015 -710.18226 
L 99.015 -720.719734 
L 99.015 -731.257207 
L 99.015 -741.794681 
L 99.015 -752.332155 
L 99.015 -762.869628 
L 99.015 -773.407102 
L 99.015 -783.944575 
L 99.015 -794.482049 
L 99.015 -805.019522 
L 99.015 -815.556996 
L 99.015 -826.09447 
L 99.015 -836.631943 
L 99.015 -847.169417 
L 99.015 -857.70689 
L 99.015 -868.244364 
L 99.015 -878.781837 
L 99.015 -889.319311 
L 99.014333 -899.856785 
L 99.00334 -910.394258 
L 99.02666 -910.394258 
L 99.02666 -910.394258 
L 99.015667 -899.856785 
L 99.015 -889.319311 
L 99.015 -878.781837 
L 99.015 -868.244364 
L 99.015 -857.70689 
L 99.015 -847.169417 
L 99.015 -836.631943 
L 99.015 -826.09447 
L 99.015 -815.556996 
L 99.015 -805.019522 
L 99.015 -794.482049 
L 99.015 -783.944575 
L 99.015 -773.407102 
L 99.015 -762.869628 
L 99.015 -752.332155 
L 99.015 -741.794681 
L 99.015 -731.257207 
L 99.015 -720.719734 
L 99.015 -710.18226 
L 99.015 -699.644787 
L 99.015 -689.107313 
L 99.015 -678.56984 
L 99.015 -668.032366 
L 99.015 -657.494893 
L 99.015 -646.957419 
L 99.015 -636.419945 
L 99.015 -625.882472 
L 99.015 -615.344998 
L 99.015 -604.807525 
L 99.015 -594.270051 
L 99.015 -583.732578 
L 99.015 -573.195104 
L 99.015 -562.65763 
L 99.015 -552.120157 
L 99.015 -541.582683 
L 99.015 -531.04521 
L 99.015 -520.507736 
L 99.015 -509.970263 
L 99.015 -499.432789 
L 99.015 -488.895315 
L 99.015 -478.357842 
L 99.015 -467.820368 
L 99.015 -457.282895 
L 99.015 -446.745421 
L 99.015 -436.207948 
L 99.015 -425.670474 
L 99.015 -415.133 
L 99.015 -404.595527 
L 99.015 -394.058053 
L 99.015 -383.52058 
L 99.015 -372.983106 
L 99.015 -362.445633 
L 99.015 -351.908159 
L 99.015 -341.370686 
L 99.015 -330.833212 
L 99.015 -320.295738 
L 99.015 -309.758265 
L 99.015 -299.220791 
L 99.015 -288.683318 
L 99.015 -278.145844 
L 99.015 -267.608371 
L 99.015 -257.070897 
L 99.015 -246.533423 
L 99.015 -235.99595 
L 99.015012 -225.458476 
L 99.019855 -214.921003 
L 99.021589 -204.383529 
L 99.015029 -193.846056 
L 99.015 -183.308582 
L 99.015 -172.771108 
L 99.015 -162.233635 
L 99.015 -151.696161 
L 99.015 -141.158688 
L 99.015 -130.621214 
L 99.015 -120.083741 
L 99.015335 -109.546267 
L 99.039635 -99.008793 
L 99.029209 -88.47132 
L 99.026517 -77.933846 
L 99.023645 -67.396373 
L 99.019774 -56.858899 
L 99.021762 -46.321426 
L 99.015032 -35.783952 
L 99.015 -25.246479 
L 99.015 -14.709005 
L 99.015075 -4.171531 
L 99.07785 6.365942 
L 99.941323 16.903416 
L 99.28528 27.440889 
L 99.022497 37.978363 
L 99.019983 48.515836 
L 99.015419 59.05331 
L 99.026445 69.590784 
L 99.021018 80.128257 
L 99.021469 90.665731 
L 99.015053 101.203204 
L 99.072279 111.740678 
L 110.721335 122.278151 
L 143.655 132.815625 
z
" clip-path="url(#p26e0880b91)" style="fill: #af4d3d; stroke: #474747; stroke-width: 1.25"/>
   </g>
   <g id="PolyCollection_2">
    <path d="M 255.255 132.815625 
L 165.975 132.815625 
L 192.87783 116.388587 
L 208.751565 99.961549 
L 209.856662 83.534512 
L 210.011316 67.107474 
L 209.939945 50.680436 
L 209.932384 34.253398 
L 210.053441 17.826361 
L 210.308699 1.399323 
L 210.393802 -15.027715 
L 210.4446 -31.454753 
L 210.444916 -47.881791 
L 210.471279 -64.308828 
L 210.474656 -80.735866 
L 210.559377 -97.162904 
L 210.577022 -113.589942 
L 210.555822 -130.016979 
L 210.595329 -146.444017 
L 210.610847 -162.871055 
L 210.588731 -179.298093 
L 210.588844 -195.72513 
L 210.612087 -212.152168 
L 210.61435 -228.579206 
L 210.604016 -245.006244 
L 210.599281 -261.433282 
L 210.613186 -277.860319 
L 210.614982 -294.287357 
L 210.614623 -310.714395 
L 210.606045 -327.141433 
L 210.597835 -343.56847 
L 210.610949 -359.995508 
L 210.600354 -376.422546 
L 210.602714 -392.849584 
L 210.614167 -409.276622 
L 210.614995 -425.703659 
L 210.615 -442.130697 
L 210.615 -458.557735 
L 210.615 -474.984773 
L 210.615 -491.41181 
L 210.615 -507.838848 
L 210.615 -524.265886 
L 210.615 -540.692924 
L 210.615 -557.119961 
L 210.615 -573.546999 
L 210.614991 -589.974037 
L 210.613732 -606.401075 
L 210.600831 -622.828113 
L 210.602231 -639.25515 
L 210.614072 -655.682188 
L 210.614995 -672.109226 
L 210.615 -688.536264 
L 210.615 -704.963301 
L 210.615 -721.390339 
L 210.615 -737.817377 
L 210.615 -754.244415 
L 210.614953 -770.671453 
L 210.611779 -787.09849 
L 210.597255 -803.525528 
L 210.607117 -819.952566 
L 210.614718 -836.379604 
L 210.614999 -852.806641 
L 210.615 -869.233679 
L 210.615 -885.660717 
L 210.615 -902.087755 
L 210.615 -918.514792 
L 210.615 -934.94183 
L 210.615 -951.368868 
L 210.615 -967.795906 
L 210.615 -984.222944 
L 210.615 -1000.649981 
L 210.615 -1017.077019 
L 210.615 -1033.504057 
L 210.615 -1049.931095 
L 210.615 -1066.358132 
L 210.615 -1082.78517 
L 210.615 -1099.212208 
L 210.615 -1115.639246 
L 210.615 -1132.066284 
L 210.615 -1148.493321 
L 210.615 -1164.920359 
L 210.615 -1181.347397 
L 210.615 -1197.774435 
L 210.615 -1214.201472 
L 210.615 -1230.62851 
L 210.615 -1247.055548 
L 210.615 -1263.482586 
L 210.615 -1279.909624 
L 210.615 -1296.336661 
L 210.615 -1312.763699 
L 210.615 -1329.190737 
L 210.615 -1345.617775 
L 210.615 -1362.044812 
L 210.615 -1378.47185 
L 210.615 -1394.898888 
L 210.615 -1411.325926 
L 210.615 -1427.752963 
L 210.615 -1444.180001 
L 210.61488 -1460.607039 
L 210.609757 -1477.034077 
L 210.596535 -1493.461115 
L 210.633465 -1493.461115 
L 210.633465 -1493.461115 
L 210.620243 -1477.034077 
L 210.61512 -1460.607039 
L 210.615 -1444.180001 
L 210.615 -1427.752963 
L 210.615 -1411.325926 
L 210.615 -1394.898888 
L 210.615 -1378.47185 
L 210.615 -1362.044812 
L 210.615 -1345.617775 
L 210.615 -1329.190737 
L 210.615 -1312.763699 
L 210.615 -1296.336661 
L 210.615 -1279.909624 
L 210.615 -1263.482586 
L 210.615 -1247.055548 
L 210.615 -1230.62851 
L 210.615 -1214.201472 
L 210.615 -1197.774435 
L 210.615 -1181.347397 
L 210.615 -1164.920359 
L 210.615 -1148.493321 
L 210.615 -1132.066284 
L 210.615 -1115.639246 
L 210.615 -1099.212208 
L 210.615 -1082.78517 
L 210.615 -1066.358132 
L 210.615 -1049.931095 
L 210.615 -1033.504057 
L 210.615 -1017.077019 
L 210.615 -1000.649981 
L 210.615 -984.222944 
L 210.615 -967.795906 
L 210.615 -951.368868 
L 210.615 -934.94183 
L 210.615 -918.514792 
L 210.615 -902.087755 
L 210.615 -885.660717 
L 210.615 -869.233679 
L 210.615001 -852.806641 
L 210.615282 -836.379604 
L 210.622883 -819.952566 
L 210.632745 -803.525528 
L 210.618221 -787.09849 
L 210.615047 -770.671453 
L 210.615 -754.244415 
L 210.615 -737.817377 
L 210.615 -721.390339 
L 210.615 -704.963301 
L 210.615 -688.536264 
L 210.615005 -672.109226 
L 210.615928 -655.682188 
L 210.627769 -639.25515 
L 210.629169 -622.828113 
L 210.616268 -606.401075 
L 210.615009 -589.974037 
L 210.615 -573.546999 
L 210.615 -557.119961 
L 210.615 -540.692924 
L 210.615 -524.265886 
L 210.615 -507.838848 
L 210.615 -491.41181 
L 210.615 -474.984773 
L 210.615 -458.557735 
L 210.615 -442.130697 
L 210.615005 -425.703659 
L 210.615833 -409.276622 
L 210.627286 -392.849584 
L 210.629646 -376.422546 
L 210.619051 -359.995508 
L 210.632165 -343.56847 
L 210.623955 -327.141433 
L 210.615377 -310.714395 
L 210.615018 -294.287357 
L 210.616814 -277.860319 
L 210.630719 -261.433282 
L 210.625984 -245.006244 
L 210.61565 -228.579206 
L 210.617913 -212.152168 
L 210.641156 -195.72513 
L 210.641269 -179.298093 
L 210.619153 -162.871055 
L 210.634671 -146.444017 
L 210.674178 -130.016979 
L 210.652978 -113.589942 
L 210.670623 -97.162904 
L 210.755344 -80.735866 
L 210.758721 -64.308828 
L 210.785084 -47.881791 
L 210.7854 -31.454753 
L 210.836198 -15.027715 
L 210.921301 1.399323 
L 211.176559 17.826361 
L 211.297616 34.253398 
L 211.290055 50.680436 
L 211.218684 67.107474 
L 211.373338 83.534512 
L 212.478435 99.961549 
L 228.35217 116.388587 
L 255.255 132.815625 
z
" clip-path="url(#p26e0880b91)" style="fill: #b7b7b7; stroke: #474747; stroke-width: 1.25"/>
   </g>
   <g id="matplotlib.axis_1">
    <g id="xtick_1">
     <g id="line2d_1">
      <defs>
       <path id="me6385ef513" d="M 0 0 
L 0 3.5 
" style="stroke: #000000; stroke-width: 0.8"/>
      </defs>
      <g>
       <use xlink:href="#me6385ef513" x="99.015" y="188.255625" style="stroke: #000000; stroke-width: 0.8"/>
      </g>
     </g>
     <g id="text_1">
      <!-- Core -->
      <g transform="translate(85.345313 203.845) scale(0.12 -0.12)">
       <defs>
        <path id="Arial-BoldMT-43" d="M 3397 1684 
L 4294 1400 
Q 4088 650 3608 286 
Q 3128 -78 2391 -78 
Q 1478 -78 890 545 
Q 303 1169 303 2250 
Q 303 3394 893 4026 
Q 1484 4659 2447 4659 
Q 3288 4659 3813 4163 
Q 4125 3869 4281 3319 
L 3366 3100 
Q 3284 3456 3026 3662 
Q 2769 3869 2400 3869 
Q 1891 3869 1573 3503 
Q 1256 3138 1256 2319 
Q 1256 1450 1568 1081 
Q 1881 713 2381 713 
Q 2750 713 3015 947 
Q 3281 1181 3397 1684 
z
" transform="scale(0.015625)"/>
        <path id="Arial-BoldMT-6f" d="M 256 1706 
Q 256 2144 472 2553 
Q 688 2963 1083 3178 
Q 1478 3394 1966 3394 
Q 2719 3394 3200 2905 
Q 3681 2416 3681 1669 
Q 3681 916 3195 420 
Q 2709 -75 1972 -75 
Q 1516 -75 1102 131 
Q 688 338 472 736 
Q 256 1134 256 1706 
z
M 1156 1659 
Q 1156 1166 1390 903 
Q 1625 641 1969 641 
Q 2313 641 2545 903 
Q 2778 1166 2778 1666 
Q 2778 2153 2545 2415 
Q 2313 2678 1969 2678 
Q 1625 2678 1390 2415 
Q 1156 2153 1156 1659 
z
" transform="scale(0.015625)"/>
        <path id="Arial-BoldMT-72" d="M 1300 0 
L 422 0 
L 422 3319 
L 1238 3319 
L 1238 2847 
Q 1447 3181 1614 3287 
Q 1781 3394 1994 3394 
Q 2294 3394 2572 3228 
L 2300 2463 
Q 2078 2606 1888 2606 
Q 1703 2606 1575 2504 
Q 1447 2403 1373 2137 
Q 1300 1872 1300 1025 
L 1300 0 
z
" transform="scale(0.015625)"/>
        <path id="Arial-BoldMT-65" d="M 2381 1056 
L 3256 909 
Q 3088 428 2723 176 
Q 2359 -75 1813 -75 
Q 947 -75 531 491 
Q 203 944 203 1634 
Q 203 2459 634 2926 
Q 1066 3394 1725 3394 
Q 2466 3394 2894 2905 
Q 3322 2416 3303 1406 
L 1103 1406 
Q 1113 1016 1316 798 
Q 1519 581 1822 581 
Q 2028 581 2168 693 
Q 2309 806 2381 1056 
z
M 2431 1944 
Q 2422 2325 2234 2523 
Q 2047 2722 1778 2722 
Q 1491 2722 1303 2513 
Q 1116 2303 1119 1944 
L 2431 1944 
z
" transform="scale(0.015625)"/>
       </defs>
       <use xlink:href="#Arial-BoldMT-43"/>
       <use xlink:href="#Arial-BoldMT-6f" x="72.216797"/>
       <use xlink:href="#Arial-BoldMT-72" x="133.300781"/>
       <use xlink:href="#Arial-BoldMT-65" x="172.216797"/>
      </g>
     </g>
    </g>
    <g id="xtick_2">
     <g id="line2d_2">
      <g>
       <use xlink:href="#me6385ef513" x="210.615" y="188.255625" style="stroke: #000000; stroke-width: 0.8"/>
      </g>
     </g>
     <g id="text_2">
      <!-- Accessory -->
      <g transform="translate(180.2625 203.845) scale(0.12 -0.12)">
       <defs>
        <path id="Arial-BoldMT-41" d="M 4597 0 
L 3591 0 
L 3191 1041 
L 1359 1041 
L 981 0 
L 0 0 
L 1784 4581 
L 2763 4581 
L 4597 0 
z
M 2894 1813 
L 2263 3513 
L 1644 1813 
L 2894 1813 
z
" transform="scale(0.015625)"/>
        <path id="Arial-BoldMT-63" d="M 3353 2338 
L 2488 2181 
Q 2444 2441 2289 2572 
Q 2134 2703 1888 2703 
Q 1559 2703 1364 2476 
Q 1169 2250 1169 1719 
Q 1169 1128 1367 884 
Q 1566 641 1900 641 
Q 2150 641 2309 783 
Q 2469 925 2534 1272 
L 3397 1125 
Q 3263 531 2881 228 
Q 2500 -75 1859 -75 
Q 1131 -75 698 384 
Q 266 844 266 1656 
Q 266 2478 700 2936 
Q 1134 3394 1875 3394 
Q 2481 3394 2839 3133 
Q 3197 2872 3353 2338 
z
" transform="scale(0.015625)"/>
        <path id="Arial-BoldMT-73" d="M 150 947 
L 1031 1081 
Q 1088 825 1259 692 
Q 1431 559 1741 559 
Q 2081 559 2253 684 
Q 2369 772 2369 919 
Q 2369 1019 2306 1084 
Q 2241 1147 2013 1200 
Q 950 1434 666 1628 
Q 272 1897 272 2375 
Q 272 2806 612 3100 
Q 953 3394 1669 3394 
Q 2350 3394 2681 3172 
Q 3013 2950 3138 2516 
L 2309 2363 
Q 2256 2556 2107 2659 
Q 1959 2763 1684 2763 
Q 1338 2763 1188 2666 
Q 1088 2597 1088 2488 
Q 1088 2394 1175 2328 
Q 1294 2241 1995 2081 
Q 2697 1922 2975 1691 
Q 3250 1456 3250 1038 
Q 3250 581 2869 253 
Q 2488 -75 1741 -75 
Q 1063 -75 667 200 
Q 272 475 150 947 
z
" transform="scale(0.015625)"/>
        <path id="Arial-BoldMT-79" d="M 44 3319 
L 978 3319 
L 1772 963 
L 2547 3319 
L 3456 3319 
L 2284 125 
L 2075 -453 
Q 1959 -744 1854 -897 
Q 1750 -1050 1614 -1145 
Q 1478 -1241 1279 -1294 
Q 1081 -1347 831 -1347 
Q 578 -1347 334 -1294 
L 256 -606 
Q 463 -647 628 -647 
Q 934 -647 1081 -467 
Q 1228 -288 1306 -9 
L 44 3319 
z
" transform="scale(0.015625)"/>
       </defs>
       <use xlink:href="#Arial-BoldMT-41"/>
       <use xlink:href="#Arial-BoldMT-63" x="72.216797"/>
       <use xlink:href="#Arial-BoldMT-63" x="127.832031"/>
       <use xlink:href="#Arial-BoldMT-65" x="183.447266"/>
       <use xlink:href="#Arial-BoldMT-73" x="239.0625"/>
       <use xlink:href="#Arial-BoldMT-73" x="294.677734"/>
       <use xlink:href="#Arial-BoldMT-6f" x="350.292969"/>
       <use xlink:href="#Arial-BoldMT-72" x="411.376953"/>
       <use xlink:href="#Arial-BoldMT-79" x="450.292969"/>
      </g>
     </g>
    </g>
   </g>
   <g id="matplotlib.axis_2">
    <g id="ytick_1">
     <g id="line2d_3">
      <defs>
       <path id="md1a3aaad23" d="M 0 0 
L -3.5 0 
" style="stroke: #000000; stroke-width: 0.8"/>
      </defs>
      <g>
       <use xlink:href="#md1a3aaad23" x="43.215" y="177.167625" style="stroke: #000000; stroke-width: 0.8"/>
      </g>
     </g>
     <g id="text_3">
      <!-- 0.6 -->
      <g transform="translate(22.315 180.746531) scale(0.1 -0.1)">
       <defs>
        <path id="ArialMT-30" d="M 266 2259 
Q 266 3072 433 3567 
Q 600 4063 929 4331 
Q 1259 4600 1759 4600 
Q 2128 4600 2406 4451 
Q 2684 4303 2865 4023 
Q 3047 3744 3150 3342 
Q 3253 2941 3253 2259 
Q 3253 1453 3087 958 
Q 2922 463 2592 192 
Q 2263 -78 1759 -78 
Q 1097 -78 719 397 
Q 266 969 266 2259 
z
M 844 2259 
Q 844 1131 1108 757 
Q 1372 384 1759 384 
Q 2147 384 2411 759 
Q 2675 1134 2675 2259 
Q 2675 3391 2411 3762 
Q 2147 4134 1753 4134 
Q 1366 4134 1134 3806 
Q 844 3388 844 2259 
z
" transform="scale(0.015625)"/>
        <path id="ArialMT-2e" d="M 581 0 
L 581 641 
L 1222 641 
L 1222 0 
L 581 0 
z
" transform="scale(0.015625)"/>
        <path id="ArialMT-36" d="M 3184 3459 
L 2625 3416 
Q 2550 3747 2413 3897 
Q 2184 4138 1850 4138 
Q 1581 4138 1378 3988 
Q 1113 3794 959 3422 
Q 806 3050 800 2363 
Q 1003 2672 1297 2822 
Q 1591 2972 1913 2972 
Q 2475 2972 2870 2558 
Q 3266 2144 3266 1488 
Q 3266 1056 3080 686 
Q 2894 316 2569 119 
Q 2244 -78 1831 -78 
Q 1128 -78 684 439 
Q 241 956 241 2144 
Q 241 3472 731 4075 
Q 1159 4600 1884 4600 
Q 2425 4600 2770 4297 
Q 3116 3994 3184 3459 
z
M 888 1484 
Q 888 1194 1011 928 
Q 1134 663 1356 523 
Q 1578 384 1822 384 
Q 2178 384 2434 671 
Q 2691 959 2691 1453 
Q 2691 1928 2437 2201 
Q 2184 2475 1800 2475 
Q 1419 2475 1153 2201 
Q 888 1928 888 1484 
z
" transform="scale(0.015625)"/>
       </defs>
       <use xlink:href="#ArialMT-30"/>
       <use xlink:href="#ArialMT-2e" x="55.615234"/>
       <use xlink:href="#ArialMT-36" x="83.398438"/>
      </g>
     </g>
    </g>
    <g id="ytick_2">
     <g id="line2d_4">
      <g>
       <use xlink:href="#md1a3aaad23" x="43.215" y="154.991625" style="stroke: #000000; stroke-width: 0.8"/>
      </g>
     </g>
     <g id="text_4">
      <!-- 0.8 -->
      <g transform="translate(22.315 158.570531) scale(0.1 -0.1)">
       <defs>
        <path id="ArialMT-38" d="M 1131 2484 
Q 781 2613 612 2850 
Q 444 3088 444 3419 
Q 444 3919 803 4259 
Q 1163 4600 1759 4600 
Q 2359 4600 2725 4251 
Q 3091 3903 3091 3403 
Q 3091 3084 2923 2848 
Q 2756 2613 2416 2484 
Q 2838 2347 3058 2040 
Q 3278 1734 3278 1309 
Q 3278 722 2862 322 
Q 2447 -78 1769 -78 
Q 1091 -78 675 323 
Q 259 725 259 1325 
Q 259 1772 486 2073 
Q 713 2375 1131 2484 
z
M 1019 3438 
Q 1019 3113 1228 2906 
Q 1438 2700 1772 2700 
Q 2097 2700 2305 2904 
Q 2513 3109 2513 3406 
Q 2513 3716 2298 3927 
Q 2084 4138 1766 4138 
Q 1444 4138 1231 3931 
Q 1019 3725 1019 3438 
z
M 838 1322 
Q 838 1081 952 856 
Q 1066 631 1291 507 
Q 1516 384 1775 384 
Q 2178 384 2440 643 
Q 2703 903 2703 1303 
Q 2703 1709 2433 1975 
Q 2163 2241 1756 2241 
Q 1359 2241 1098 1978 
Q 838 1716 838 1322 
z
" transform="scale(0.015625)"/>
       </defs>
       <use xlink:href="#ArialMT-30"/>
       <use xlink:href="#ArialMT-2e" x="55.615234"/>
       <use xlink:href="#ArialMT-38" x="83.398438"/>
      </g>
     </g>
    </g>
    <g id="ytick_3">
     <g id="line2d_5">
      <g>
       <use xlink:href="#md1a3aaad23" x="43.215" y="132.815625" style="stroke: #000000; stroke-width: 0.8"/>
      </g>
     </g>
     <g id="text_5">
      <!-- 1.0 -->
      <g transform="translate(22.315 136.394531) scale(0.1 -0.1)">
       <defs>
        <path id="ArialMT-31" d="M 2384 0 
L 1822 0 
L 1822 3584 
Q 1619 3391 1289 3197 
Q 959 3003 697 2906 
L 697 3450 
Q 1169 3672 1522 3987 
Q 1875 4303 2022 4600 
L 2384 4600 
L 2384 0 
z
" transform="scale(0.015625)"/>
       </defs>
       <use xlink:href="#ArialMT-31"/>
       <use xlink:href="#ArialMT-2e" x="55.615234"/>
       <use xlink:href="#ArialMT-30" x="83.398438"/>
      </g>
     </g>
    </g>
    <g id="ytick_4">
     <g id="line2d_6">
      <g>
       <use xlink:href="#md1a3aaad23" x="43.215" y="110.639625" style="stroke: #000000; stroke-width: 0.8"/>
      </g>
     </g>
     <g id="text_6">
      <!-- 1.2 -->
      <g transform="translate(22.315 114.218531) scale(0.1 -0.1)">
       <defs>
        <path id="ArialMT-32" d="M 3222 541 
L 3222 0 
L 194 0 
Q 188 203 259 391 
Q 375 700 629 1000 
Q 884 1300 1366 1694 
Q 2113 2306 2375 2664 
Q 2638 3022 2638 3341 
Q 2638 3675 2398 3904 
Q 2159 4134 1775 4134 
Q 1369 4134 1125 3890 
Q 881 3647 878 3216 
L 300 3275 
Q 359 3922 746 4261 
Q 1134 4600 1788 4600 
Q 2447 4600 2831 4234 
Q 3216 3869 3216 3328 
Q 3216 3053 3103 2787 
Q 2991 2522 2730 2228 
Q 2469 1934 1863 1422 
Q 1356 997 1212 845 
Q 1069 694 975 541 
L 3222 541 
z
" transform="scale(0.015625)"/>
       </defs>
       <use xlink:href="#ArialMT-31"/>
       <use xlink:href="#ArialMT-2e" x="55.615234"/>
       <use xlink:href="#ArialMT-32" x="83.398438"/>
      </g>
     </g>
    </g>
    <g id="ytick_5">
     <g id="line2d_7">
      <g>
       <use xlink:href="#md1a3aaad23" x="43.215" y="88.463625" style="stroke: #000000; stroke-width: 0.8"/>
      </g>
     </g>
     <g id="text_7">
      <!-- 1.4 -->
      <g transform="translate(22.315 92.042531) scale(0.1 -0.1)">
       <defs>
        <path id="ArialMT-34" d="M 2069 0 
L 2069 1097 
L 81 1097 
L 81 1613 
L 2172 4581 
L 2631 4581 
L 2631 1613 
L 3250 1613 
L 3250 1097 
L 2631 1097 
L 2631 0 
L 2069 0 
z
M 2069 1613 
L 2069 3678 
L 634 1613 
L 2069 1613 
z
" transform="scale(0.015625)"/>
       </defs>
       <use xlink:href="#ArialMT-31"/>
       <use xlink:href="#ArialMT-2e" x="55.615234"/>
       <use xlink:href="#ArialMT-34" x="83.398438"/>
      </g>
     </g>
    </g>
    <g id="ytick_6">
     <g id="line2d_8">
      <g>
       <use xlink:href="#md1a3aaad23" x="43.215" y="66.287625" style="stroke: #000000; stroke-width: 0.8"/>
      </g>
     </g>
     <g id="text_8">
      <!-- 1.6 -->
      <g transform="translate(22.315 69.866531) scale(0.1 -0.1)">
       <use xlink:href="#ArialMT-31"/>
       <use xlink:href="#ArialMT-2e" x="55.615234"/>
       <use xlink:href="#ArialMT-36" x="83.398438"/>
      </g>
     </g>
    </g>
    <g id="ytick_7">
     <g id="line2d_9">
      <g>
       <use xlink:href="#md1a3aaad23" x="43.215" y="44.111625" style="stroke: #000000; stroke-width: 0.8"/>
      </g>
     </g>
     <g id="text_9">
      <!-- 1.8 -->
      <g transform="translate(22.315 47.690531) scale(0.1 -0.1)">
       <use xlink:href="#ArialMT-31"/>
       <use xlink:href="#ArialMT-2e" x="55.615234"/>
       <use xlink:href="#ArialMT-38" x="83.398438"/>
      </g>
     </g>
    </g>
    <g id="ytick_8">
     <g id="line2d_10">
      <g>
       <use xlink:href="#md1a3aaad23" x="43.215" y="21.935625" style="stroke: #000000; stroke-width: 0.8"/>
      </g>
     </g>
     <g id="text_10">
      <!-- 2.0 -->
      <g transform="translate(22.315 25.514531) scale(0.1 -0.1)">
       <use xlink:href="#ArialMT-32"/>
       <use xlink:href="#ArialMT-2e" x="55.615234"/>
       <use xlink:href="#ArialMT-30" x="83.398438"/>
      </g>
     </g>
    </g>
    <g id="text_11">
     <!-- Mean gene copy numbers -->
     <g transform="translate(15.789375 178.774687) rotate(-90) scale(0.12 -0.12)">
      <defs>
       <path id="Arial-BoldMT-4d" d="M 453 0 
L 453 4581 
L 1838 4581 
L 2669 1456 
L 3491 4581 
L 4878 4581 
L 4878 0 
L 4019 0 
L 4019 3606 
L 3109 0 
L 2219 0 
L 1313 3606 
L 1313 0 
L 453 0 
z
" transform="scale(0.015625)"/>
       <path id="Arial-BoldMT-61" d="M 1116 2306 
L 319 2450 
Q 453 2931 781 3162 
Q 1109 3394 1756 3394 
Q 2344 3394 2631 3255 
Q 2919 3116 3036 2902 
Q 3153 2688 3153 2116 
L 3144 1091 
Q 3144 653 3186 445 
Q 3228 238 3344 0 
L 2475 0 
Q 2441 88 2391 259 
Q 2369 338 2359 363 
Q 2134 144 1878 34 
Q 1622 -75 1331 -75 
Q 819 -75 523 203 
Q 228 481 228 906 
Q 228 1188 362 1408 
Q 497 1628 739 1745 
Q 981 1863 1438 1950 
Q 2053 2066 2291 2166 
L 2291 2253 
Q 2291 2506 2166 2614 
Q 2041 2722 1694 2722 
Q 1459 2722 1328 2630 
Q 1197 2538 1116 2306 
z
M 2291 1594 
Q 2122 1538 1756 1459 
Q 1391 1381 1278 1306 
Q 1106 1184 1106 997 
Q 1106 813 1243 678 
Q 1381 544 1594 544 
Q 1831 544 2047 700 
Q 2206 819 2256 991 
Q 2291 1103 2291 1419 
L 2291 1594 
z
" transform="scale(0.015625)"/>
       <path id="Arial-BoldMT-6e" d="M 3478 0 
L 2600 0 
L 2600 1694 
Q 2600 2231 2544 2389 
Q 2488 2547 2361 2634 
Q 2234 2722 2056 2722 
Q 1828 2722 1647 2597 
Q 1466 2472 1398 2265 
Q 1331 2059 1331 1503 
L 1331 0 
L 453 0 
L 453 3319 
L 1269 3319 
L 1269 2831 
Q 1703 3394 2363 3394 
Q 2653 3394 2893 3289 
Q 3134 3184 3257 3021 
Q 3381 2859 3429 2653 
Q 3478 2447 3478 2063 
L 3478 0 
z
" transform="scale(0.015625)"/>
       <path id="Arial-BoldMT-20" transform="scale(0.015625)"/>
       <path id="Arial-BoldMT-67" d="M 378 -219 
L 1381 -341 
Q 1406 -516 1497 -581 
Q 1622 -675 1891 -675 
Q 2234 -675 2406 -572 
Q 2522 -503 2581 -350 
Q 2622 -241 2622 53 
L 2622 538 
Q 2228 0 1628 0 
Q 959 0 569 566 
Q 263 1013 263 1678 
Q 263 2513 664 2953 
Q 1066 3394 1663 3394 
Q 2278 3394 2678 2853 
L 2678 3319 
L 3500 3319 
L 3500 341 
Q 3500 -247 3403 -537 
Q 3306 -828 3131 -993 
Q 2956 -1159 2664 -1253 
Q 2372 -1347 1925 -1347 
Q 1081 -1347 728 -1058 
Q 375 -769 375 -325 
Q 375 -281 378 -219 
z
M 1163 1728 
Q 1163 1200 1367 954 
Q 1572 709 1872 709 
Q 2194 709 2416 961 
Q 2638 1213 2638 1706 
Q 2638 2222 2425 2472 
Q 2213 2722 1888 2722 
Q 1572 2722 1367 2476 
Q 1163 2231 1163 1728 
z
" transform="scale(0.015625)"/>
       <path id="Arial-BoldMT-70" d="M 434 3319 
L 1253 3319 
L 1253 2831 
Q 1413 3081 1684 3237 
Q 1956 3394 2288 3394 
Q 2866 3394 3269 2941 
Q 3672 2488 3672 1678 
Q 3672 847 3265 386 
Q 2859 -75 2281 -75 
Q 2006 -75 1782 34 
Q 1559 144 1313 409 
L 1313 -1263 
L 434 -1263 
L 434 3319 
z
M 1303 1716 
Q 1303 1156 1525 889 
Q 1747 622 2066 622 
Q 2372 622 2575 867 
Q 2778 1113 2778 1672 
Q 2778 2194 2568 2447 
Q 2359 2700 2050 2700 
Q 1728 2700 1515 2451 
Q 1303 2203 1303 1716 
z
" transform="scale(0.015625)"/>
       <path id="Arial-BoldMT-75" d="M 2644 0 
L 2644 497 
Q 2463 231 2167 78 
Q 1872 -75 1544 -75 
Q 1209 -75 943 72 
Q 678 219 559 484 
Q 441 750 441 1219 
L 441 3319 
L 1319 3319 
L 1319 1794 
Q 1319 1094 1367 936 
Q 1416 778 1544 686 
Q 1672 594 1869 594 
Q 2094 594 2272 717 
Q 2450 841 2515 1023 
Q 2581 1206 2581 1919 
L 2581 3319 
L 3459 3319 
L 3459 0 
L 2644 0 
z
" transform="scale(0.015625)"/>
       <path id="Arial-BoldMT-6d" d="M 394 3319 
L 1203 3319 
L 1203 2866 
Q 1638 3394 2238 3394 
Q 2556 3394 2790 3262 
Q 3025 3131 3175 2866 
Q 3394 3131 3647 3262 
Q 3900 3394 4188 3394 
Q 4553 3394 4806 3245 
Q 5059 3097 5184 2809 
Q 5275 2597 5275 2122 
L 5275 0 
L 4397 0 
L 4397 1897 
Q 4397 2391 4306 2534 
Q 4184 2722 3931 2722 
Q 3747 2722 3584 2609 
Q 3422 2497 3350 2280 
Q 3278 2063 3278 1594 
L 3278 0 
L 2400 0 
L 2400 1819 
Q 2400 2303 2353 2443 
Q 2306 2584 2207 2653 
Q 2109 2722 1941 2722 
Q 1738 2722 1575 2612 
Q 1413 2503 1342 2297 
Q 1272 2091 1272 1613 
L 1272 0 
L 394 0 
L 394 3319 
z
" transform="scale(0.015625)"/>
       <path id="Arial-BoldMT-62" d="M 422 0 
L 422 4581 
L 1300 4581 
L 1300 2931 
Q 1706 3394 2263 3394 
Q 2869 3394 3266 2955 
Q 3663 2516 3663 1694 
Q 3663 844 3258 384 
Q 2853 -75 2275 -75 
Q 1991 -75 1714 67 
Q 1438 209 1238 488 
L 1238 0 
L 422 0 
z
M 1294 1731 
Q 1294 1216 1456 969 
Q 1684 619 2063 619 
Q 2353 619 2558 867 
Q 2763 1116 2763 1650 
Q 2763 2219 2556 2470 
Q 2350 2722 2028 2722 
Q 1713 2722 1503 2476 
Q 1294 2231 1294 1731 
z
" transform="scale(0.015625)"/>
      </defs>
      <use xlink:href="#Arial-BoldMT-4d"/>
      <use xlink:href="#Arial-BoldMT-65" x="83.300781"/>
      <use xlink:href="#Arial-BoldMT-61" x="138.916016"/>
      <use xlink:href="#Arial-BoldMT-6e" x="194.53125"/>
      <use xlink:href="#Arial-BoldMT-20" x="255.615234"/>
      <use xlink:href="#Arial-BoldMT-67" x="283.398438"/>
      <use xlink:href="#Arial-BoldMT-65" x="344.482422"/>
      <use xlink:href="#Arial-BoldMT-6e" x="400.097656"/>
      <use xlink:href="#Arial-BoldMT-65" x="461.181641"/>
      <use xlink:href="#Arial-BoldMT-20" x="516.796875"/>
      <use xlink:href="#Arial-BoldMT-63" x="544.580078"/>
      <use xlink:href="#Arial-BoldMT-6f" x="600.195312"/>
      <use xlink:href="#Arial-BoldMT-70" x="661.279297"/>
      <use xlink:href="#Arial-BoldMT-79" x="722.363281"/>
      <use xlink:href="#Arial-BoldMT-20" x="777.978516"/>
      <use xlink:href="#Arial-BoldMT-6e" x="805.761719"/>
      <use xlink:href="#Arial-BoldMT-75" x="866.845703"/>
      <use xlink:href="#Arial-BoldMT-6d" x="927.929688"/>
      <use xlink:href="#Arial-BoldMT-62" x="1016.845703"/>
      <use xlink:href="#Arial-BoldMT-65" x="1077.929688"/>
      <use xlink:href="#Arial-BoldMT-72" x="1133.544922"/>
      <use xlink:href="#Arial-BoldMT-73" x="1172.460938"/>
     </g>
    </g>
   </g>
   <g id="line2d_11">
    <path d="M 57.828914 131.710509 
L 140.201086 131.710509 
" clip-path="url(#p26e0880b91)" style="fill: none; stroke-dasharray: 1.5625,0.9375; stroke-dashoffset: 0; stroke: #474747; stroke-width: 1.25"/>
   </g>
   <g id="line2d_12">
    <path d="M 61.018628 130.689926 
L 137.011372 130.689926 
" clip-path="url(#p26e0880b91)" style="fill: none; stroke-dasharray: 3.125,1.25; stroke-dashoffset: 0; stroke: #474747; stroke-width: 1.25"/>
   </g>
   <g id="line2d_13">
    <path d="M 65.516617 129.250747 
L 132.513383 129.250747 
" clip-path="url(#p26e0880b91)" style="fill: none; stroke-dasharray: 1.5625,0.9375; stroke-dashoffset: 0; stroke: #474747; stroke-width: 1.25"/>
   </g>
   <g id="line2d_14">
    <path d="M 165.975 132.815625 
L 255.255 132.815625 
" clip-path="url(#p26e0880b91)" style="fill: none; stroke-dasharray: 1.5625,0.9375; stroke-dashoffset: 0; stroke: #474747; stroke-width: 1.25"/>
   </g>
   <g id="line2d_15">
    <path d="M 166.111791 132.7321 
L 255.118209 132.7321 
" clip-path="url(#p26e0880b91)" style="fill: none; stroke-dasharray: 3.125,1.25; stroke-dashoffset: 0; stroke: #474747; stroke-width: 1.25"/>
   </g>
   <g id="line2d_16">
    <path d="M 171.076665 129.700516 
L 250.153335 129.700516 
" clip-path="url(#p26e0880b91)" style="fill: none; stroke-dasharray: 1.5625,0.9375; stroke-dashoffset: 0; stroke: #474747; stroke-width: 1.25"/>
   </g>
   <g id="patch_3">
    <path d="M 43.215 188.255625 
L 43.215 21.935625 
" style="fill: none; stroke: #000000; stroke-linejoin: miter; stroke-linecap: square"/>
   </g>
   <g id="patch_4">
    <path d="M 266.415 188.255625 
L 266.415 21.935625 
" style="fill: none; stroke: #000000; stroke-linejoin: miter; stroke-linecap: square"/>
   </g>
   <g id="patch_5">
    <path d="M 43.215 188.255625 
L 266.415 188.255625 
" style="fill: none; stroke: #000000; stroke-linejoin: miter; stroke-linecap: square"/>
   </g>
   <g id="patch_6">
    <path d="M 43.215 21.935625 
L 266.415 21.935625 
" style="fill: none; stroke: #000000; stroke-linejoin: miter; stroke-linecap: square"/>
   </g>
   <g id="text_12">
    <!-- p=3.08e-06 -->
    <g style="fill: #ff0000" transform="translate(121.335 55.199625) scale(0.12 -0.12)">
     <defs>
      <path id="ArialMT-70" d="M 422 -1272 
L 422 3319 
L 934 3319 
L 934 2888 
Q 1116 3141 1344 3267 
Q 1572 3394 1897 3394 
Q 2322 3394 2647 3175 
Q 2972 2956 3137 2557 
Q 3303 2159 3303 1684 
Q 3303 1175 3120 767 
Q 2938 359 2589 142 
Q 2241 -75 1856 -75 
Q 1575 -75 1351 44 
Q 1128 163 984 344 
L 984 -1272 
L 422 -1272 
z
M 931 1641 
Q 931 1000 1190 694 
Q 1450 388 1819 388 
Q 2194 388 2461 705 
Q 2728 1022 2728 1688 
Q 2728 2322 2467 2637 
Q 2206 2953 1844 2953 
Q 1484 2953 1207 2617 
Q 931 2281 931 1641 
z
" transform="scale(0.015625)"/>
      <path id="ArialMT-3d" d="M 3381 2694 
L 356 2694 
L 356 3219 
L 3381 3219 
L 3381 2694 
z
M 3381 1303 
L 356 1303 
L 356 1828 
L 3381 1828 
L 3381 1303 
z
" transform="scale(0.015625)"/>
      <path id="ArialMT-33" d="M 269 1209 
L 831 1284 
Q 928 806 1161 595 
Q 1394 384 1728 384 
Q 2125 384 2398 659 
Q 2672 934 2672 1341 
Q 2672 1728 2419 1979 
Q 2166 2231 1775 2231 
Q 1616 2231 1378 2169 
L 1441 2663 
Q 1497 2656 1531 2656 
Q 1891 2656 2178 2843 
Q 2466 3031 2466 3422 
Q 2466 3731 2256 3934 
Q 2047 4138 1716 4138 
Q 1388 4138 1169 3931 
Q 950 3725 888 3313 
L 325 3413 
Q 428 3978 793 4289 
Q 1159 4600 1703 4600 
Q 2078 4600 2393 4439 
Q 2709 4278 2876 4000 
Q 3044 3722 3044 3409 
Q 3044 3113 2884 2869 
Q 2725 2625 2413 2481 
Q 2819 2388 3044 2092 
Q 3269 1797 3269 1353 
Q 3269 753 2831 336 
Q 2394 -81 1725 -81 
Q 1122 -81 723 278 
Q 325 638 269 1209 
z
" transform="scale(0.015625)"/>
      <path id="ArialMT-65" d="M 2694 1069 
L 3275 997 
Q 3138 488 2766 206 
Q 2394 -75 1816 -75 
Q 1088 -75 661 373 
Q 234 822 234 1631 
Q 234 2469 665 2931 
Q 1097 3394 1784 3394 
Q 2450 3394 2872 2941 
Q 3294 2488 3294 1666 
Q 3294 1616 3291 1516 
L 816 1516 
Q 847 969 1125 678 
Q 1403 388 1819 388 
Q 2128 388 2347 550 
Q 2566 713 2694 1069 
z
M 847 1978 
L 2700 1978 
Q 2663 2397 2488 2606 
Q 2219 2931 1791 2931 
Q 1403 2931 1139 2672 
Q 875 2413 847 1978 
z
" transform="scale(0.015625)"/>
      <path id="ArialMT-2d" d="M 203 1375 
L 203 1941 
L 1931 1941 
L 1931 1375 
L 203 1375 
z
" transform="scale(0.015625)"/>
     </defs>
     <use xlink:href="#ArialMT-70"/>
     <use xlink:href="#ArialMT-3d" x="55.615234"/>
     <use xlink:href="#ArialMT-33" x="114.013672"/>
     <use xlink:href="#ArialMT-2e" x="169.628906"/>
     <use xlink:href="#ArialMT-30" x="197.412109"/>
     <use xlink:href="#ArialMT-38" x="253.027344"/>
     <use xlink:href="#ArialMT-65" x="308.642578"/>
     <use xlink:href="#ArialMT-2d" x="364.257812"/>
     <use xlink:href="#ArialMT-30" x="397.558594"/>
     <use xlink:href="#ArialMT-36" x="453.173828"/>
    </g>
   </g>
   <g id="text_13">
    <!-- Mean gene copy number of pan-genome -->
    <g transform="translate(39.81 15.935625) scale(0.12 -0.12)">
     <defs>
      <path id="Arial-BoldMT-66" d="M 75 3319 
L 563 3319 
L 563 3569 
Q 563 3988 652 4194 
Q 741 4400 980 4529 
Q 1219 4659 1584 4659 
Q 1959 4659 2319 4547 
L 2200 3934 
Q 1991 3984 1797 3984 
Q 1606 3984 1523 3895 
Q 1441 3806 1441 3553 
L 1441 3319 
L 2097 3319 
L 2097 2628 
L 1441 2628 
L 1441 0 
L 563 0 
L 563 2628 
L 75 2628 
L 75 3319 
z
" transform="scale(0.015625)"/>
      <path id="Arial-BoldMT-2d" d="M 359 1222 
L 359 2100 
L 2084 2100 
L 2084 1222 
L 359 1222 
z
" transform="scale(0.015625)"/>
     </defs>
     <use xlink:href="#Arial-BoldMT-4d"/>
     <use xlink:href="#Arial-BoldMT-65" x="83.300781"/>
     <use xlink:href="#Arial-BoldMT-61" x="138.916016"/>
     <use xlink:href="#Arial-BoldMT-6e" x="194.53125"/>
     <use xlink:href="#Arial-BoldMT-20" x="255.615234"/>
     <use xlink:href="#Arial-BoldMT-67" x="283.398438"/>
     <use xlink:href="#Arial-BoldMT-65" x="344.482422"/>
     <use xlink:href="#Arial-BoldMT-6e" x="400.097656"/>
     <use xlink:href="#Arial-BoldMT-65" x="461.181641"/>
     <use xlink:href="#Arial-BoldMT-20" x="516.796875"/>
     <use xlink:href="#Arial-BoldMT-63" x="544.580078"/>
     <use xlink:href="#Arial-BoldMT-6f" x="600.195312"/>
     <use xlink:href="#Arial-BoldMT-70" x="661.279297"/>
     <use xlink:href="#Arial-BoldMT-79" x="722.363281"/>
     <use xlink:href="#Arial-BoldMT-20" x="777.978516"/>
     <use xlink:href="#Arial-BoldMT-6e" x="805.761719"/>
     <use xlink:href="#Arial-BoldMT-75" x="866.845703"/>
     <use xlink:href="#Arial-BoldMT-6d" x="927.929688"/>
     <use xlink:href="#Arial-BoldMT-62" x="1016.845703"/>
     <use xlink:href="#Arial-BoldMT-65" x="1077.929688"/>
     <use xlink:href="#Arial-BoldMT-72" x="1133.544922"/>
     <use xlink:href="#Arial-BoldMT-20" x="1172.460938"/>
     <use xlink:href="#Arial-BoldMT-6f" x="1200.244141"/>
     <use xlink:href="#Arial-BoldMT-66" x="1261.328125"/>
     <use xlink:href="#Arial-BoldMT-20" x="1294.628906"/>
     <use xlink:href="#Arial-BoldMT-70" x="1322.412109"/>
     <use xlink:href="#Arial-BoldMT-61" x="1383.496094"/>
     <use xlink:href="#Arial-BoldMT-6e" x="1439.111328"/>
     <use xlink:href="#Arial-BoldMT-2d" x="1500.195312"/>
     <use xlink:href="#Arial-BoldMT-67" x="1533.496094"/>
     <use xlink:href="#Arial-BoldMT-65" x="1594.580078"/>
     <use xlink:href="#Arial-BoldMT-6e" x="1650.195312"/>
     <use xlink:href="#Arial-BoldMT-6f" x="1711.279297"/>
     <use xlink:href="#Arial-BoldMT-6d" x="1772.363281"/>
     <use xlink:href="#Arial-BoldMT-65" x="1861.279297"/>
    </g>
   </g>
  </g>
 </g>
 <defs>
  <clipPath id="p26e0880b91">
   <rect x="43.215" y="21.935625" width="223.2" height="166.32"/>
  </clipPath>
 </defs>
</svg>
