<?xml version="1.0" encoding="utf-8" standalone="no"?>
<!DOCTYPE svg PUBLIC "-//W3C//DTD SVG 1.1//EN"
  "http://www.w3.org/Graphics/SVG/1.1/DTD/svg11.dtd">
<svg xmlns:xlink="http://www.w3.org/1999/xlink" width="209.774328pt" height="210.7275pt" viewBox="0 0 209.774328 210.7275" xmlns="http://www.w3.org/2000/svg" version="1.1">
 <metadata>
  <rdf:RDF xmlns:dc="http://purl.org/dc/elements/1.1/" xmlns:cc="http://creativecommons.org/ns#" xmlns:rdf="http://www.w3.org/1999/02/22-rdf-syntax-ns#">
   <cc:Work>
    <dc:type rdf:resource="http://purl.org/dc/dcmitype/StillImage"/>
    <dc:date>2024-12-12T19:40:45.685642</dc:date>
    <dc:format>image/svg+xml</dc:format>
    <dc:creator>
     <cc:Agent>
      <dc:title>Matplotlib v3.9.2, https://matplotlib.org/</dc:title>
     </cc:Agent>
    </dc:creator>
   </cc:Work>
  </rdf:RDF>
 </metadata>
 <defs>
  <style type="text/css">*{stroke-linejoin: round; stroke-linecap: butt}</style>
 </defs>
 <g id="figure_1">
  <g id="patch_1">
   <path d="M 0 210.7275 
L 209.774328 210.7275 
L 209.774328 0 
L 0 0 
L 0 210.7275 
z
" style="fill: none"/>
  </g>
  <g id="axes_1">
   <g id="patch_2">
    <path d="M 44.546875 173.997812 
L 201.441962 173.997812 
L 201.441962 20.357812 
L 44.546875 20.357812 
L 44.546875 173.997812 
z
" style="fill: none"/>
   </g>
   <g id="PathCollection_1">
    <defs>
     <path id="C0_0_c60e77f259" d="M 0 3 
C 0.795609 3 1.55874 2.683901 2.12132 2.12132 
C 2.683901 1.55874 3 0.795609 3 -0 
C 3 -0.795609 2.683901 -1.55874 2.12132 -2.12132 
C 1.55874 -2.683901 0.795609 -3 0 -3 
C -0.795609 -3 -1.55874 -2.683901 -2.12132 -2.12132 
C -2.683901 -1.55874 -3 -0.795609 -3 0 
C -3 0.795609 -2.683901 1.55874 -2.12132 2.12132 
C -1.55874 2.683901 -0.795609 3 0 3 
z
"/>
    </defs>
    <g clip-path="url(#pb6654fc372)">
     <use xlink:href="#C0_0_c60e77f259" x="161.840073" y="121.130001" style="fill: #1b9e77; stroke: #ffffff; stroke-width: 0.48"/>
    </g>
    <g clip-path="url(#pb6654fc372)">
     <use xlink:href="#C0_0_c60e77f259" x="158.636295" y="108.16948" style="fill: #1b9e77; stroke: #ffffff; stroke-width: 0.48"/>
    </g>
    <g clip-path="url(#pb6654fc372)">
     <use xlink:href="#C0_0_c60e77f259" x="93.537147" y="123.933653" style="fill: #1b9e77; stroke: #ffffff; stroke-width: 0.48"/>
    </g>
    <g clip-path="url(#pb6654fc372)">
     <use xlink:href="#C0_0_c60e77f259" x="132.8211" y="115.61189" style="fill: #1b9e77; stroke: #ffffff; stroke-width: 0.48"/>
    </g>
    <g clip-path="url(#pb6654fc372)">
     <use xlink:href="#C0_0_c60e77f259" x="130.348463" y="112.009624" style="fill: #1b9e77; stroke: #ffffff; stroke-width: 0.48"/>
    </g>
    <g clip-path="url(#pb6654fc372)">
     <use xlink:href="#C0_0_c60e77f259" x="89.236315" y="100.882221" style="fill: #1b9e77; stroke: #ffffff; stroke-width: 0.48"/>
    </g>
    <g clip-path="url(#pb6654fc372)">
     <use xlink:href="#C0_0_c60e77f259" x="113.967357" y="122.507598" style="fill: #1b9e77; stroke: #ffffff; stroke-width: 0.48"/>
    </g>
    <g clip-path="url(#pb6654fc372)">
     <use xlink:href="#C0_0_c60e77f259" x="121.721852" y="117.553588" style="fill: #1b9e77; stroke: #ffffff; stroke-width: 0.48"/>
    </g>
    <g clip-path="url(#pb6654fc372)">
     <use xlink:href="#C0_0_c60e77f259" x="119.11975" y="115.801686" style="fill: #1b9e77; stroke: #ffffff; stroke-width: 0.48"/>
    </g>
    <g clip-path="url(#pb6654fc372)">
     <use xlink:href="#C0_0_c60e77f259" x="113.395295" y="119.853376" style="fill: #1b9e77; stroke: #ffffff; stroke-width: 0.48"/>
    </g>
    <g clip-path="url(#pb6654fc372)">
     <use xlink:href="#C0_0_c60e77f259" x="127.730589" y="115.924963" style="fill: #1b9e77; stroke: #ffffff; stroke-width: 0.48"/>
    </g>
    <g clip-path="url(#pb6654fc372)">
     <use xlink:href="#C0_0_c60e77f259" x="140.850265" y="113.898456" style="fill: #1b9e77; stroke: #ffffff; stroke-width: 0.48"/>
    </g>
    <g clip-path="url(#pb6654fc372)">
     <use xlink:href="#C0_0_c60e77f259" x="112.944591" y="112.20925" style="fill: #1b9e77; stroke: #ffffff; stroke-width: 0.48"/>
    </g>
    <g clip-path="url(#pb6654fc372)">
     <use xlink:href="#C0_0_c60e77f259" x="133.274852" y="110.893893" style="fill: #1b9e77; stroke: #ffffff; stroke-width: 0.48"/>
    </g>
    <g clip-path="url(#pb6654fc372)">
     <use xlink:href="#C0_0_c60e77f259" x="131.637815" y="87.825827" style="fill: #1b9e77; stroke: #ffffff; stroke-width: 0.48"/>
    </g>
    <g clip-path="url(#pb6654fc372)">
     <use xlink:href="#C0_0_c60e77f259" x="92.730087" y="126.809858" style="fill: #1b9e77; stroke: #ffffff; stroke-width: 0.48"/>
    </g>
    <g clip-path="url(#pb6654fc372)">
     <use xlink:href="#C0_0_c60e77f259" x="194.310367" y="119.790362" style="fill: #1b9e77; stroke: #ffffff; stroke-width: 0.48"/>
    </g>
    <g clip-path="url(#pb6654fc372)">
     <use xlink:href="#C0_0_c60e77f259" x="104.575053" y="122.765117" style="fill: #1b9e77; stroke: #ffffff; stroke-width: 0.48"/>
    </g>
    <g clip-path="url(#pb6654fc372)">
     <use xlink:href="#C0_0_c60e77f259" x="114.064587" y="121.641135" style="fill: #1b9e77; stroke: #ffffff; stroke-width: 0.48"/>
    </g>
    <g clip-path="url(#pb6654fc372)">
     <use xlink:href="#C0_0_c60e77f259" x="90.926913" y="123.140481" style="fill: #1b9e77; stroke: #ffffff; stroke-width: 0.48"/>
    </g>
    <g clip-path="url(#pb6654fc372)">
     <use xlink:href="#C0_0_c60e77f259" x="108.687365" y="114.972274" style="fill: #1b9e77; stroke: #ffffff; stroke-width: 0.48"/>
    </g>
    <g clip-path="url(#pb6654fc372)">
     <use xlink:href="#C0_0_c60e77f259" x="121.01587" y="117.929933" style="fill: #1b9e77; stroke: #ffffff; stroke-width: 0.48"/>
    </g>
    <g clip-path="url(#pb6654fc372)">
     <use xlink:href="#C0_0_c60e77f259" x="133.78844" y="115.079378" style="fill: #1b9e77; stroke: #ffffff; stroke-width: 0.48"/>
    </g>
    <g clip-path="url(#pb6654fc372)">
     <use xlink:href="#C0_0_c60e77f259" x="96.362033" y="132.799906" style="fill: #1b9e77; stroke: #ffffff; stroke-width: 0.48"/>
    </g>
    <g clip-path="url(#pb6654fc372)">
     <use xlink:href="#C0_0_c60e77f259" x="144.294996" y="112.699301" style="fill: #1b9e77; stroke: #ffffff; stroke-width: 0.48"/>
    </g>
    <g clip-path="url(#pb6654fc372)">
     <use xlink:href="#C0_0_c60e77f259" x="108.80894" y="107.195217" style="fill: #1b9e77; stroke: #ffffff; stroke-width: 0.48"/>
    </g>
    <g clip-path="url(#pb6654fc372)">
     <use xlink:href="#C0_0_c60e77f259" x="80.574425" y="113.233123" style="fill: #1b9e77; stroke: #ffffff; stroke-width: 0.48"/>
    </g>
    <g clip-path="url(#pb6654fc372)">
     <use xlink:href="#C0_0_c60e77f259" x="160.864787" y="144.48151" style="fill: #1b9e77; stroke: #ffffff; stroke-width: 0.48"/>
    </g>
    <g clip-path="url(#pb6654fc372)">
     <use xlink:href="#C0_0_c60e77f259" x="163.253881" y="107.120366" style="fill: #1b9e77; stroke: #ffffff; stroke-width: 0.48"/>
    </g>
    <g clip-path="url(#pb6654fc372)">
     <use xlink:href="#C0_0_c60e77f259" x="61.72843" y="101.735103" style="fill: #d95f02; stroke: #ffffff; stroke-width: 0.48"/>
    </g>
    <g clip-path="url(#pb6654fc372)">
     <use xlink:href="#C0_0_c60e77f259" x="84.148055" y="113.019931" style="fill: #d95f02; stroke: #ffffff; stroke-width: 0.48"/>
    </g>
    <g clip-path="url(#pb6654fc372)">
     <use xlink:href="#C0_0_c60e77f259" x="84.647359" y="112.759159" style="fill: #d95f02; stroke: #ffffff; stroke-width: 0.48"/>
    </g>
    <g clip-path="url(#pb6654fc372)">
     <use xlink:href="#C0_0_c60e77f259" x="68.124745" y="106.077782" style="fill: #d95f02; stroke: #ffffff; stroke-width: 0.48"/>
    </g>
    <g clip-path="url(#pb6654fc372)">
     <use xlink:href="#C0_0_c60e77f259" x="65.250128" y="101.399651" style="fill: #d95f02; stroke: #ffffff; stroke-width: 0.48"/>
    </g>
    <g clip-path="url(#pb6654fc372)">
     <use xlink:href="#C0_0_c60e77f259" x="61.667404" y="101.493188" style="fill: #d95f02; stroke: #ffffff; stroke-width: 0.48"/>
    </g>
    <g clip-path="url(#pb6654fc372)">
     <use xlink:href="#C0_0_c60e77f259" x="161.116827" y="105.137017" style="fill: #d95f02; stroke: #ffffff; stroke-width: 0.48"/>
    </g>
    <g clip-path="url(#pb6654fc372)">
     <use xlink:href="#C0_0_c60e77f259" x="85.060171" y="98.284703" style="fill: #d95f02; stroke: #ffffff; stroke-width: 0.48"/>
    </g>
    <g clip-path="url(#pb6654fc372)">
     <use xlink:href="#C0_0_c60e77f259" x="108.718205" y="116.550604" style="fill: #d95f02; stroke: #ffffff; stroke-width: 0.48"/>
    </g>
    <g clip-path="url(#pb6654fc372)">
     <use xlink:href="#C0_0_c60e77f259" x="62.197722" y="100.684467" style="fill: #d95f02; stroke: #ffffff; stroke-width: 0.48"/>
    </g>
    <g clip-path="url(#pb6654fc372)">
     <use xlink:href="#C0_0_c60e77f259" x="89.252458" y="96.536008" style="fill: #d95f02; stroke: #ffffff; stroke-width: 0.48"/>
    </g>
    <g clip-path="url(#pb6654fc372)">
     <use xlink:href="#C0_0_c60e77f259" x="102.848388" y="102.406932" style="fill: #d95f02; stroke: #ffffff; stroke-width: 0.48"/>
    </g>
    <g clip-path="url(#pb6654fc372)">
     <use xlink:href="#C0_0_c60e77f259" x="89.930417" y="97.49945" style="fill: #d95f02; stroke: #ffffff; stroke-width: 0.48"/>
    </g>
    <g clip-path="url(#pb6654fc372)">
     <use xlink:href="#C0_0_c60e77f259" x="75.066653" y="108.896446" style="fill: #d95f02; stroke: #ffffff; stroke-width: 0.48"/>
    </g>
    <g clip-path="url(#pb6654fc372)">
     <use xlink:href="#C0_0_c60e77f259" x="66.151611" y="104.617443" style="fill: #d95f02; stroke: #ffffff; stroke-width: 0.48"/>
    </g>
    <g clip-path="url(#pb6654fc372)">
     <use xlink:href="#C0_0_c60e77f259" x="63.867334" y="104.917038" style="fill: #d95f02; stroke: #ffffff; stroke-width: 0.48"/>
    </g>
    <g clip-path="url(#pb6654fc372)">
     <use xlink:href="#C0_0_c60e77f259" x="66.843193" y="103.406073" style="fill: #d95f02; stroke: #ffffff; stroke-width: 0.48"/>
    </g>
    <g clip-path="url(#pb6654fc372)">
     <use xlink:href="#C0_0_c60e77f259" x="112.93732" y="97.155668" style="fill: #d95f02; stroke: #ffffff; stroke-width: 0.48"/>
    </g>
    <g clip-path="url(#pb6654fc372)">
     <use xlink:href="#C0_0_c60e77f259" x="132.526806" y="95.970696" style="fill: #d95f02; stroke: #ffffff; stroke-width: 0.48"/>
    </g>
    <g clip-path="url(#pb6654fc372)">
     <use xlink:href="#C0_0_c60e77f259" x="65.539868" y="106.457387" style="fill: #d95f02; stroke: #ffffff; stroke-width: 0.48"/>
    </g>
    <g clip-path="url(#pb6654fc372)">
     <use xlink:href="#C0_0_c60e77f259" x="119.99252" y="116.019255" style="fill: #d95f02; stroke: #ffffff; stroke-width: 0.48"/>
    </g>
    <g clip-path="url(#pb6654fc372)">
     <use xlink:href="#C0_0_c60e77f259" x="129.666247" y="106.323032" style="fill: #d95f02; stroke: #ffffff; stroke-width: 0.48"/>
    </g>
    <g clip-path="url(#pb6654fc372)">
     <use xlink:href="#C0_0_c60e77f259" x="64.660826" y="105.027819" style="fill: #d95f02; stroke: #ffffff; stroke-width: 0.48"/>
    </g>
    <g clip-path="url(#pb6654fc372)">
     <use xlink:href="#C0_0_c60e77f259" x="112.226419" y="127.990482" style="fill: #7570b3; stroke: #ffffff; stroke-width: 0.48"/>
    </g>
    <g clip-path="url(#pb6654fc372)">
     <use xlink:href="#C0_0_c60e77f259" x="78.052987" y="101.845185" style="fill: #7570b3; stroke: #ffffff; stroke-width: 0.48"/>
    </g>
    <g clip-path="url(#pb6654fc372)">
     <use xlink:href="#C0_0_c60e77f259" x="138.354945" y="122.017352" style="fill: #7570b3; stroke: #ffffff; stroke-width: 0.48"/>
    </g>
    <g clip-path="url(#pb6654fc372)">
     <use xlink:href="#C0_0_c60e77f259" x="71.432198" y="103.714312" style="fill: #7570b3; stroke: #ffffff; stroke-width: 0.48"/>
    </g>
    <g clip-path="url(#pb6654fc372)">
     <use xlink:href="#C0_0_c60e77f259" x="109.668518" y="127.235548" style="fill: #7570b3; stroke: #ffffff; stroke-width: 0.48"/>
    </g>
    <g clip-path="url(#pb6654fc372)">
     <use xlink:href="#C0_0_c60e77f259" x="65.067659" y="100.520194" style="fill: #7570b3; stroke: #ffffff; stroke-width: 0.48"/>
    </g>
    <g clip-path="url(#pb6654fc372)">
     <use xlink:href="#C0_0_c60e77f259" x="144.095687" y="86.301344" style="fill: #7570b3; stroke: #ffffff; stroke-width: 0.48"/>
    </g>
    <g clip-path="url(#pb6654fc372)">
     <use xlink:href="#C0_0_c60e77f259" x="90.251336" y="97.876892" style="fill: #7570b3; stroke: #ffffff; stroke-width: 0.48"/>
    </g>
    <g clip-path="url(#pb6654fc372)">
     <use xlink:href="#C0_0_c60e77f259" x="94.699597" y="109.964692" style="fill: #7570b3; stroke: #ffffff; stroke-width: 0.48"/>
    </g>
    <g clip-path="url(#pb6654fc372)">
     <use xlink:href="#C0_0_c60e77f259" x="72.163207" y="98.77013" style="fill: #7570b3; stroke: #ffffff; stroke-width: 0.48"/>
    </g>
    <g clip-path="url(#pb6654fc372)">
     <use xlink:href="#C0_0_c60e77f259" x="114.580765" y="122.008992" style="fill: #7570b3; stroke: #ffffff; stroke-width: 0.48"/>
    </g>
    <g clip-path="url(#pb6654fc372)">
     <use xlink:href="#C0_0_c60e77f259" x="86.013933" y="97.100371" style="fill: #7570b3; stroke: #ffffff; stroke-width: 0.48"/>
    </g>
    <g clip-path="url(#pb6654fc372)">
     <use xlink:href="#C0_0_c60e77f259" x="106.881568" y="127.109864" style="fill: #7570b3; stroke: #ffffff; stroke-width: 0.48"/>
    </g>
    <g clip-path="url(#pb6654fc372)">
     <use xlink:href="#C0_0_c60e77f259" x="61.86682" y="101.277346" style="fill: #7570b3; stroke: #ffffff; stroke-width: 0.48"/>
    </g>
    <g clip-path="url(#pb6654fc372)">
     <use xlink:href="#C0_0_c60e77f259" x="114.932127" y="120.37996" style="fill: #7570b3; stroke: #ffffff; stroke-width: 0.48"/>
    </g>
    <g clip-path="url(#pb6654fc372)">
     <use xlink:href="#C0_0_c60e77f259" x="121.941899" y="93.779432" style="fill: #7570b3; stroke: #ffffff; stroke-width: 0.48"/>
    </g>
    <g clip-path="url(#pb6654fc372)">
     <use xlink:href="#C0_0_c60e77f259" x="73.695565" y="99.460279" style="fill: #7570b3; stroke: #ffffff; stroke-width: 0.48"/>
    </g>
    <g clip-path="url(#pb6654fc372)">
     <use xlink:href="#C0_0_c60e77f259" x="61.085775" y="102.324023" style="fill: #7570b3; stroke: #ffffff; stroke-width: 0.48"/>
    </g>
    <g clip-path="url(#pb6654fc372)">
     <use xlink:href="#C0_0_c60e77f259" x="51.67847" y="96.416773" style="fill: #7570b3; stroke: #ffffff; stroke-width: 0.48"/>
    </g>
    <g clip-path="url(#pb6654fc372)">
     <use xlink:href="#C0_0_c60e77f259" x="68.720366" y="102.478382" style="fill: #7570b3; stroke: #ffffff; stroke-width: 0.48"/>
    </g>
    <g clip-path="url(#pb6654fc372)">
     <use xlink:href="#C0_0_c60e77f259" x="52.1403" y="95.980532" style="fill: #7570b3; stroke: #ffffff; stroke-width: 0.48"/>
    </g>
    <g clip-path="url(#pb6654fc372)">
     <use xlink:href="#C0_0_c60e77f259" x="95.688894" y="125.61005" style="fill: #7570b3; stroke: #ffffff; stroke-width: 0.48"/>
    </g>
    <g clip-path="url(#pb6654fc372)">
     <use xlink:href="#C0_0_c60e77f259" x="114.053425" y="93.470448" style="fill: #e7298a; stroke: #ffffff; stroke-width: 0.48"/>
    </g>
    <g clip-path="url(#pb6654fc372)">
     <use xlink:href="#C0_0_c60e77f259" x="140.580932" y="91.345223" style="fill: #e7298a; stroke: #ffffff; stroke-width: 0.48"/>
    </g>
    <g clip-path="url(#pb6654fc372)">
     <use xlink:href="#C0_0_c60e77f259" x="163.127347" y="87.671952" style="fill: #e7298a; stroke: #ffffff; stroke-width: 0.48"/>
    </g>
    <g clip-path="url(#pb6654fc372)">
     <use xlink:href="#C0_0_c60e77f259" x="183.058583" y="87.217812" style="fill: #e7298a; stroke: #ffffff; stroke-width: 0.48"/>
    </g>
    <g clip-path="url(#pb6654fc372)">
     <use xlink:href="#C0_0_c60e77f259" x="154.479382" y="110.394834" style="fill: #e7298a; stroke: #ffffff; stroke-width: 0.48"/>
    </g>
    <g clip-path="url(#pb6654fc372)">
     <use xlink:href="#C0_0_c60e77f259" x="123.854919" y="134.844927" style="fill: #e7298a; stroke: #ffffff; stroke-width: 0.48"/>
    </g>
    <g clip-path="url(#pb6654fc372)">
     <use xlink:href="#C0_0_c60e77f259" x="170.365982" y="90.034418" style="fill: #e7298a; stroke: #ffffff; stroke-width: 0.48"/>
    </g>
    <g clip-path="url(#pb6654fc372)">
     <use xlink:href="#C0_0_c60e77f259" x="124.233544" y="135.641377" style="fill: #e7298a; stroke: #ffffff; stroke-width: 0.48"/>
    </g>
    <g clip-path="url(#pb6654fc372)">
     <use xlink:href="#C0_0_c60e77f259" x="129.313568" y="146.00134" style="fill: #e7298a; stroke: #ffffff; stroke-width: 0.48"/>
    </g>
    <g clip-path="url(#pb6654fc372)">
     <use xlink:href="#C0_0_c60e77f259" x="165.560163" y="108.088009" style="fill: #e7298a; stroke: #ffffff; stroke-width: 0.48"/>
    </g>
    <g clip-path="url(#pb6654fc372)">
     <use xlink:href="#C0_0_c60e77f259" x="136.389728" y="115.504233" style="fill: #e7298a; stroke: #ffffff; stroke-width: 0.48"/>
    </g>
    <g clip-path="url(#pb6654fc372)">
     <use xlink:href="#C0_0_c60e77f259" x="158.340794" y="109.592019" style="fill: #e7298a; stroke: #ffffff; stroke-width: 0.48"/>
    </g>
    <g clip-path="url(#pb6654fc372)">
     <use xlink:href="#C0_0_c60e77f259" x="163.100295" y="108.69744" style="fill: #e7298a; stroke: #ffffff; stroke-width: 0.48"/>
    </g>
    <g clip-path="url(#pb6654fc372)">
     <use xlink:href="#C0_0_c60e77f259" x="136.244702" y="86.736446" style="fill: #e7298a; stroke: #ffffff; stroke-width: 0.48"/>
    </g>
    <g clip-path="url(#pb6654fc372)">
     <use xlink:href="#C0_0_c60e77f259" x="164.294592" y="161.247272" style="fill: #e7298a; stroke: #ffffff; stroke-width: 0.48"/>
    </g>
    <g clip-path="url(#pb6654fc372)">
     <use xlink:href="#C0_0_c60e77f259" x="139.810138" y="110.715625" style="fill: #e7298a; stroke: #ffffff; stroke-width: 0.48"/>
    </g>
    <g clip-path="url(#pb6654fc372)">
     <use xlink:href="#C0_0_c60e77f259" x="141.832347" y="113.371075" style="fill: #e7298a; stroke: #ffffff; stroke-width: 0.48"/>
    </g>
    <g clip-path="url(#pb6654fc372)">
     <use xlink:href="#C0_0_c60e77f259" x="158.367015" y="110.827639" style="fill: #e7298a; stroke: #ffffff; stroke-width: 0.48"/>
    </g>
    <g clip-path="url(#pb6654fc372)">
     <use xlink:href="#C0_0_c60e77f259" x="145.601606" y="95.874403" style="fill: #e7298a; stroke: #ffffff; stroke-width: 0.48"/>
    </g>
    <g clip-path="url(#pb6654fc372)">
     <use xlink:href="#C0_0_c60e77f259" x="137.277019" y="112.461936" style="fill: #e7298a; stroke: #ffffff; stroke-width: 0.48"/>
    </g>
    <g clip-path="url(#pb6654fc372)">
     <use xlink:href="#C0_0_c60e77f259" x="160.813989" y="90.214693" style="fill: #e7298a; stroke: #ffffff; stroke-width: 0.48"/>
    </g>
    <g clip-path="url(#pb6654fc372)">
     <use xlink:href="#C0_0_c60e77f259" x="115.056501" y="118.075667" style="fill: #e7298a; stroke: #ffffff; stroke-width: 0.48"/>
    </g>
    <g clip-path="url(#pb6654fc372)">
     <use xlink:href="#C0_0_c60e77f259" x="139.265992" y="115.287659" style="fill: #e7298a; stroke: #ffffff; stroke-width: 0.48"/>
    </g>
    <g clip-path="url(#pb6654fc372)">
     <use xlink:href="#C0_0_c60e77f259" x="151.359393" y="111.199089" style="fill: #e7298a; stroke: #ffffff; stroke-width: 0.48"/>
    </g>
    <g clip-path="url(#pb6654fc372)">
     <use xlink:href="#C0_0_c60e77f259" x="162.335565" y="124.092088" style="fill: #e7298a; stroke: #ffffff; stroke-width: 0.48"/>
    </g>
    <g clip-path="url(#pb6654fc372)">
     <use xlink:href="#C0_0_c60e77f259" x="125.829827" y="134.392614" style="fill: #e7298a; stroke: #ffffff; stroke-width: 0.48"/>
    </g>
   </g>
   <g id="matplotlib.axis_1">
    <g id="xtick_1">
     <g id="line2d_1">
      <defs>
       <path id="m12bd4cc44d" d="M 0 0 
L 0 3.5 
" style="stroke: #000000; stroke-width: 0.8"/>
      </defs>
      <g>
       <use xlink:href="#m12bd4cc44d" x="75.930057" y="173.997812" style="stroke: #000000; stroke-width: 0.8"/>
      </g>
     </g>
     <g id="text_1">
      <!-- −20 -->
      <g transform="translate(67.448807 188.155625) scale(0.1 -0.1)">
       <defs>
        <path id="ArialMT-2212" d="M 3381 1997 
L 356 1997 
L 356 2522 
L 3381 2522 
L 3381 1997 
z
" transform="scale(0.015625)"/>
        <path id="ArialMT-32" d="M 3222 541 
L 3222 0 
L 194 0 
Q 188 203 259 391 
Q 375 700 629 1000 
Q 884 1300 1366 1694 
Q 2113 2306 2375 2664 
Q 2638 3022 2638 3341 
Q 2638 3675 2398 3904 
Q 2159 4134 1775 4134 
Q 1369 4134 1125 3890 
Q 881 3647 878 3216 
L 300 3275 
Q 359 3922 746 4261 
Q 1134 4600 1788 4600 
Q 2447 4600 2831 4234 
Q 3216 3869 3216 3328 
Q 3216 3053 3103 2787 
Q 2991 2522 2730 2228 
Q 2469 1934 1863 1422 
Q 1356 997 1212 845 
Q 1069 694 975 541 
L 3222 541 
z
" transform="scale(0.015625)"/>
        <path id="ArialMT-30" d="M 266 2259 
Q 266 3072 433 3567 
Q 600 4063 929 4331 
Q 1259 4600 1759 4600 
Q 2128 4600 2406 4451 
Q 2684 4303 2865 4023 
Q 3047 3744 3150 3342 
Q 3253 2941 3253 2259 
Q 3253 1453 3087 958 
Q 2922 463 2592 192 
Q 2263 -78 1759 -78 
Q 1097 -78 719 397 
Q 266 969 266 2259 
z
M 844 2259 
Q 844 1131 1108 757 
Q 1372 384 1759 384 
Q 2147 384 2411 759 
Q 2675 1134 2675 2259 
Q 2675 3391 2411 3762 
Q 2147 4134 1753 4134 
Q 1366 4134 1134 3806 
Q 844 3388 844 2259 
z
" transform="scale(0.015625)"/>
       </defs>
       <use xlink:href="#ArialMT-2212"/>
       <use xlink:href="#ArialMT-32" x="58.398438"/>
       <use xlink:href="#ArialMT-30" x="114.013672"/>
      </g>
     </g>
    </g>
    <g id="xtick_2">
     <g id="line2d_2">
      <g>
       <use xlink:href="#m12bd4cc44d" x="116.291168" y="173.997812" style="stroke: #000000; stroke-width: 0.8"/>
      </g>
     </g>
     <g id="text_2">
      <!-- 0 -->
      <g transform="translate(113.510699 188.155625) scale(0.1 -0.1)">
       <use xlink:href="#ArialMT-30"/>
      </g>
     </g>
    </g>
    <g id="xtick_3">
     <g id="line2d_3">
      <g>
       <use xlink:href="#m12bd4cc44d" x="156.652279" y="173.997812" style="stroke: #000000; stroke-width: 0.8"/>
      </g>
     </g>
     <g id="text_3">
      <!-- 20 -->
      <g transform="translate(151.091341 188.155625) scale(0.1 -0.1)">
       <use xlink:href="#ArialMT-32"/>
       <use xlink:href="#ArialMT-30" x="55.615234"/>
      </g>
     </g>
    </g>
    <g id="xtick_4">
     <g id="line2d_4">
      <g>
       <use xlink:href="#m12bd4cc44d" x="197.01339" y="173.997812" style="stroke: #000000; stroke-width: 0.8"/>
      </g>
     </g>
     <g id="text_4">
      <!-- 40 -->
      <g transform="translate(191.452453 188.155625) scale(0.1 -0.1)">
       <defs>
        <path id="ArialMT-34" d="M 2069 0 
L 2069 1097 
L 81 1097 
L 81 1613 
L 2172 4581 
L 2631 4581 
L 2631 1613 
L 3250 1613 
L 3250 1097 
L 2631 1097 
L 2631 0 
L 2069 0 
z
M 2069 1613 
L 2069 3678 
L 634 1613 
L 2069 1613 
z
" transform="scale(0.015625)"/>
       </defs>
       <use xlink:href="#ArialMT-34"/>
       <use xlink:href="#ArialMT-30" x="55.615234"/>
      </g>
     </g>
    </g>
    <g id="text_5">
     <!-- PC1 (44.9%) -->
     <g transform="translate(94.372543 201.422812) scale(0.1 -0.1)">
      <defs>
       <path id="Arial-BoldMT-50" d="M 466 0 
L 466 4581 
L 1950 4581 
Q 2794 4581 3050 4513 
Q 3444 4409 3709 4064 
Q 3975 3719 3975 3172 
Q 3975 2750 3822 2462 
Q 3669 2175 3433 2011 
Q 3197 1847 2953 1794 
Q 2622 1728 1994 1728 
L 1391 1728 
L 1391 0 
L 466 0 
z
M 1391 3806 
L 1391 2506 
L 1897 2506 
Q 2444 2506 2628 2578 
Q 2813 2650 2917 2803 
Q 3022 2956 3022 3159 
Q 3022 3409 2875 3571 
Q 2728 3734 2503 3775 
Q 2338 3806 1838 3806 
L 1391 3806 
z
" transform="scale(0.015625)"/>
       <path id="Arial-BoldMT-43" d="M 3397 1684 
L 4294 1400 
Q 4088 650 3608 286 
Q 3128 -78 2391 -78 
Q 1478 -78 890 545 
Q 303 1169 303 2250 
Q 303 3394 893 4026 
Q 1484 4659 2447 4659 
Q 3288 4659 3813 4163 
Q 4125 3869 4281 3319 
L 3366 3100 
Q 3284 3456 3026 3662 
Q 2769 3869 2400 3869 
Q 1891 3869 1573 3503 
Q 1256 3138 1256 2319 
Q 1256 1450 1568 1081 
Q 1881 713 2381 713 
Q 2750 713 3015 947 
Q 3281 1181 3397 1684 
z
" transform="scale(0.015625)"/>
       <path id="Arial-BoldMT-31" d="M 2519 0 
L 1641 0 
L 1641 3309 
Q 1159 2859 506 2644 
L 506 3441 
Q 850 3553 1253 3867 
Q 1656 4181 1806 4600 
L 2519 4600 
L 2519 0 
z
" transform="scale(0.015625)"/>
       <path id="Arial-BoldMT-20" transform="scale(0.015625)"/>
       <path id="Arial-BoldMT-28" d="M 1916 -1347 
L 1313 -1347 
Q 834 -625 584 153 
Q 334 931 334 1659 
Q 334 2563 644 3369 
Q 913 4069 1325 4659 
L 1925 4659 
Q 1497 3713 1336 3048 
Q 1175 2384 1175 1641 
Q 1175 1128 1270 590 
Q 1366 53 1531 -431 
Q 1641 -750 1916 -1347 
z
" transform="scale(0.015625)"/>
       <path id="Arial-BoldMT-34" d="M 1994 0 
L 1994 922 
L 119 922 
L 119 1691 
L 2106 4600 
L 2844 4600 
L 2844 1694 
L 3413 1694 
L 3413 922 
L 2844 922 
L 2844 0 
L 1994 0 
z
M 1994 1694 
L 1994 3259 
L 941 1694 
L 1994 1694 
z
" transform="scale(0.015625)"/>
       <path id="Arial-BoldMT-2e" d="M 459 0 
L 459 878 
L 1338 878 
L 1338 0 
L 459 0 
z
" transform="scale(0.015625)"/>
       <path id="Arial-BoldMT-39" d="M 291 1059 
L 1141 1153 
Q 1172 894 1303 769 
Q 1434 644 1650 644 
Q 1922 644 2112 894 
Q 2303 1144 2356 1931 
Q 2025 1547 1528 1547 
Q 988 1547 595 1964 
Q 203 2381 203 3050 
Q 203 3747 617 4173 
Q 1031 4600 1672 4600 
Q 2369 4600 2816 4061 
Q 3263 3522 3263 2288 
Q 3263 1031 2797 475 
Q 2331 -81 1584 -81 
Q 1047 -81 715 205 
Q 384 491 291 1059 
z
M 2278 2978 
Q 2278 3403 2083 3637 
Q 1888 3872 1631 3872 
Q 1388 3872 1227 3680 
Q 1066 3488 1066 3050 
Q 1066 2606 1241 2398 
Q 1416 2191 1678 2191 
Q 1931 2191 2104 2391 
Q 2278 2591 2278 2978 
z
" transform="scale(0.015625)"/>
       <path id="Arial-BoldMT-25" d="M 278 3450 
Q 278 4066 548 4362 
Q 819 4659 1281 4659 
Q 1759 4659 2029 4364 
Q 2300 4069 2300 3450 
Q 2300 2834 2029 2537 
Q 1759 2241 1297 2241 
Q 819 2241 548 2536 
Q 278 2831 278 3450 
z
M 963 3456 
Q 963 3009 1066 2856 
Q 1144 2744 1281 2744 
Q 1422 2744 1500 2856 
Q 1600 3009 1600 3456 
Q 1600 3903 1500 4053 
Q 1422 4169 1281 4169 
Q 1144 4169 1066 4056 
Q 963 3903 963 3456 
z
M 1950 -175 
L 1300 -175 
L 3741 4659 
L 4372 4659 
L 1950 -175 
z
M 3369 1028 
Q 3369 1644 3639 1941 
Q 3909 2238 4378 2238 
Q 4850 2238 5120 1941 
Q 5391 1644 5391 1028 
Q 5391 409 5120 112 
Q 4850 -184 4388 -184 
Q 3909 -184 3639 112 
Q 3369 409 3369 1028 
z
M 4053 1031 
Q 4053 584 4156 434 
Q 4234 319 4372 319 
Q 4513 319 4588 431 
Q 4691 584 4691 1031 
Q 4691 1478 4591 1631 
Q 4513 1744 4372 1744 
Q 4231 1744 4156 1631 
Q 4053 1478 4053 1031 
z
" transform="scale(0.015625)"/>
       <path id="Arial-BoldMT-29" d="M 216 -1347 
Q 475 -791 581 -494 
Q 688 -197 778 190 
Q 869 578 912 926 
Q 956 1275 956 1641 
Q 956 2384 797 3048 
Q 638 3713 209 4659 
L 806 4659 
Q 1278 3988 1539 3234 
Q 1800 2481 1800 1706 
Q 1800 1053 1594 306 
Q 1359 -531 822 -1347 
L 216 -1347 
z
" transform="scale(0.015625)"/>
      </defs>
      <use xlink:href="#Arial-BoldMT-50"/>
      <use xlink:href="#Arial-BoldMT-43" x="66.699219"/>
      <use xlink:href="#Arial-BoldMT-31" x="138.916016"/>
      <use xlink:href="#Arial-BoldMT-20" x="194.53125"/>
      <use xlink:href="#Arial-BoldMT-28" x="222.314453"/>
      <use xlink:href="#Arial-BoldMT-34" x="255.615234"/>
      <use xlink:href="#Arial-BoldMT-34" x="311.230469"/>
      <use xlink:href="#Arial-BoldMT-2e" x="366.845703"/>
      <use xlink:href="#Arial-BoldMT-39" x="394.628906"/>
      <use xlink:href="#Arial-BoldMT-25" x="450.244141"/>
      <use xlink:href="#Arial-BoldMT-29" x="539.160156"/>
     </g>
    </g>
   </g>
   <g id="matplotlib.axis_2">
    <g id="ytick_1">
     <g id="line2d_5">
      <defs>
       <path id="mb780813fd2" d="M 0 0 
L -3.5 0 
" style="stroke: #000000; stroke-width: 0.8"/>
      </defs>
      <g>
       <use xlink:href="#mb780813fd2" x="44.546875" y="173.997812" style="stroke: #000000; stroke-width: 0.8"/>
      </g>
     </g>
     <g id="text_6">
      <!-- −30 -->
      <g transform="translate(20.584375 177.576719) scale(0.1 -0.1)">
       <defs>
        <path id="ArialMT-33" d="M 269 1209 
L 831 1284 
Q 928 806 1161 595 
Q 1394 384 1728 384 
Q 2125 384 2398 659 
Q 2672 934 2672 1341 
Q 2672 1728 2419 1979 
Q 2166 2231 1775 2231 
Q 1616 2231 1378 2169 
L 1441 2663 
Q 1497 2656 1531 2656 
Q 1891 2656 2178 2843 
Q 2466 3031 2466 3422 
Q 2466 3731 2256 3934 
Q 2047 4138 1716 4138 
Q 1388 4138 1169 3931 
Q 950 3725 888 3313 
L 325 3413 
Q 428 3978 793 4289 
Q 1159 4600 1703 4600 
Q 2078 4600 2393 4439 
Q 2709 4278 2876 4000 
Q 3044 3722 3044 3409 
Q 3044 3113 2884 2869 
Q 2725 2625 2413 2481 
Q 2819 2388 3044 2092 
Q 3269 1797 3269 1353 
Q 3269 753 2831 336 
Q 2394 -81 1725 -81 
Q 1122 -81 723 278 
Q 325 638 269 1209 
z
" transform="scale(0.015625)"/>
       </defs>
       <use xlink:href="#ArialMT-2212"/>
       <use xlink:href="#ArialMT-33" x="58.398438"/>
       <use xlink:href="#ArialMT-30" x="114.013672"/>
      </g>
     </g>
    </g>
    <g id="ytick_2">
     <g id="line2d_6">
      <g>
       <use xlink:href="#mb780813fd2" x="44.546875" y="152.049241" style="stroke: #000000; stroke-width: 0.8"/>
      </g>
     </g>
     <g id="text_7">
      <!-- −20 -->
      <g transform="translate(20.584375 155.628147) scale(0.1 -0.1)">
       <use xlink:href="#ArialMT-2212"/>
       <use xlink:href="#ArialMT-32" x="58.398438"/>
       <use xlink:href="#ArialMT-30" x="114.013672"/>
      </g>
     </g>
    </g>
    <g id="ytick_3">
     <g id="line2d_7">
      <g>
       <use xlink:href="#mb780813fd2" x="44.546875" y="130.10067" style="stroke: #000000; stroke-width: 0.8"/>
      </g>
     </g>
     <g id="text_8">
      <!-- −10 -->
      <g transform="translate(20.584375 133.679576) scale(0.1 -0.1)">
       <defs>
        <path id="ArialMT-31" d="M 2384 0 
L 1822 0 
L 1822 3584 
Q 1619 3391 1289 3197 
Q 959 3003 697 2906 
L 697 3450 
Q 1169 3672 1522 3987 
Q 1875 4303 2022 4600 
L 2384 4600 
L 2384 0 
z
" transform="scale(0.015625)"/>
       </defs>
       <use xlink:href="#ArialMT-2212"/>
       <use xlink:href="#ArialMT-31" x="58.398438"/>
       <use xlink:href="#ArialMT-30" x="114.013672"/>
      </g>
     </g>
    </g>
    <g id="ytick_4">
     <g id="line2d_8">
      <g>
       <use xlink:href="#mb780813fd2" x="44.546875" y="108.152098" style="stroke: #000000; stroke-width: 0.8"/>
      </g>
     </g>
     <g id="text_9">
      <!-- 0 -->
      <g transform="translate(31.985938 111.731004) scale(0.1 -0.1)">
       <use xlink:href="#ArialMT-30"/>
      </g>
     </g>
    </g>
    <g id="ytick_5">
     <g id="line2d_9">
      <g>
       <use xlink:href="#mb780813fd2" x="44.546875" y="86.203527" style="stroke: #000000; stroke-width: 0.8"/>
      </g>
     </g>
     <g id="text_10">
      <!-- 10 -->
      <g transform="translate(26.425 89.782433) scale(0.1 -0.1)">
       <use xlink:href="#ArialMT-31"/>
       <use xlink:href="#ArialMT-30" x="55.615234"/>
      </g>
     </g>
    </g>
    <g id="ytick_6">
     <g id="line2d_10">
      <g>
       <use xlink:href="#mb780813fd2" x="44.546875" y="64.254955" style="stroke: #000000; stroke-width: 0.8"/>
      </g>
     </g>
     <g id="text_11">
      <!-- 20 -->
      <g transform="translate(26.425 67.833862) scale(0.1 -0.1)">
       <use xlink:href="#ArialMT-32"/>
       <use xlink:href="#ArialMT-30" x="55.615234"/>
      </g>
     </g>
    </g>
    <g id="ytick_7">
     <g id="line2d_11">
      <g>
       <use xlink:href="#mb780813fd2" x="44.546875" y="42.306384" style="stroke: #000000; stroke-width: 0.8"/>
      </g>
     </g>
     <g id="text_12">
      <!-- 30 -->
      <g transform="translate(26.425 45.88529) scale(0.1 -0.1)">
       <use xlink:href="#ArialMT-33"/>
       <use xlink:href="#ArialMT-30" x="55.615234"/>
      </g>
     </g>
    </g>
    <g id="ytick_8">
     <g id="line2d_12">
      <g>
       <use xlink:href="#mb780813fd2" x="44.546875" y="20.357813" style="stroke: #000000; stroke-width: 0.8"/>
      </g>
     </g>
     <g id="text_13">
      <!-- 40 -->
      <g transform="translate(26.425 23.936719) scale(0.1 -0.1)">
       <use xlink:href="#ArialMT-34"/>
       <use xlink:href="#ArialMT-30" x="55.615234"/>
      </g>
     </g>
    </g>
    <g id="text_14">
     <!-- PC2 (9.9%) -->
     <g transform="translate(14.479688 123.019219) rotate(-90) scale(0.1 -0.1)">
      <defs>
       <path id="Arial-BoldMT-32" d="M 3238 816 
L 3238 0 
L 159 0 
Q 209 463 459 877 
Q 709 1291 1447 1975 
Q 2041 2528 2175 2725 
Q 2356 2997 2356 3263 
Q 2356 3556 2198 3714 
Q 2041 3872 1763 3872 
Q 1488 3872 1325 3706 
Q 1163 3541 1138 3156 
L 263 3244 
Q 341 3969 753 4284 
Q 1166 4600 1784 4600 
Q 2463 4600 2850 4234 
Q 3238 3869 3238 3325 
Q 3238 3016 3127 2736 
Q 3016 2456 2775 2150 
Q 2616 1947 2200 1565 
Q 1784 1184 1673 1059 
Q 1563 934 1494 816 
L 3238 816 
z
" transform="scale(0.015625)"/>
      </defs>
      <use xlink:href="#Arial-BoldMT-50"/>
      <use xlink:href="#Arial-BoldMT-43" x="66.699219"/>
      <use xlink:href="#Arial-BoldMT-32" x="138.916016"/>
      <use xlink:href="#Arial-BoldMT-20" x="194.53125"/>
      <use xlink:href="#Arial-BoldMT-28" x="222.314453"/>
      <use xlink:href="#Arial-BoldMT-39" x="255.615234"/>
      <use xlink:href="#Arial-BoldMT-2e" x="311.230469"/>
      <use xlink:href="#Arial-BoldMT-39" x="339.013672"/>
      <use xlink:href="#Arial-BoldMT-25" x="394.628906"/>
      <use xlink:href="#Arial-BoldMT-29" x="483.544922"/>
     </g>
    </g>
   </g>
   <g id="line2d_13"/>
   <g id="line2d_14"/>
   <g id="line2d_15"/>
   <g id="line2d_16"/>
   <g id="patch_3">
    <path d="M 44.546875 173.997812 
L 44.546875 20.357813 
" style="fill: none; stroke: #000000; stroke-linejoin: miter; stroke-linecap: square"/>
   </g>
   <g id="patch_4">
    <path d="M 201.441962 173.997812 
L 201.441962 20.357813 
" style="fill: none; stroke: #000000; stroke-linejoin: miter; stroke-linecap: square"/>
   </g>
   <g id="patch_5">
    <path d="M 44.546875 173.997812 
L 201.441962 173.997812 
" style="fill: none; stroke: #000000; stroke-linejoin: miter; stroke-linecap: square"/>
   </g>
   <g id="patch_6">
    <path d="M 44.546875 20.357812 
L 201.441962 20.357812 
" style="fill: none; stroke: #000000; stroke-linejoin: miter; stroke-linecap: square"/>
   </g>
   <g id="text_15">
    <!-- Fluxes -->
    <g transform="translate(107.156137 14.357812) scale(0.1 -0.1)">
     <defs>
      <path id="Arial-BoldMT-46" d="M 472 0 
L 472 4581 
L 3613 4581 
L 3613 3806 
L 1397 3806 
L 1397 2722 
L 3309 2722 
L 3309 1947 
L 1397 1947 
L 1397 0 
L 472 0 
z
" transform="scale(0.015625)"/>
      <path id="Arial-BoldMT-6c" d="M 459 0 
L 459 4581 
L 1338 4581 
L 1338 0 
L 459 0 
z
" transform="scale(0.015625)"/>
      <path id="Arial-BoldMT-75" d="M 2644 0 
L 2644 497 
Q 2463 231 2167 78 
Q 1872 -75 1544 -75 
Q 1209 -75 943 72 
Q 678 219 559 484 
Q 441 750 441 1219 
L 441 3319 
L 1319 3319 
L 1319 1794 
Q 1319 1094 1367 936 
Q 1416 778 1544 686 
Q 1672 594 1869 594 
Q 2094 594 2272 717 
Q 2450 841 2515 1023 
Q 2581 1206 2581 1919 
L 2581 3319 
L 3459 3319 
L 3459 0 
L 2644 0 
z
" transform="scale(0.015625)"/>
      <path id="Arial-BoldMT-78" d="M 38 0 
L 1234 1709 
L 88 3319 
L 1159 3319 
L 1747 2406 
L 2366 3319 
L 3397 3319 
L 2272 1747 
L 3500 0 
L 2422 0 
L 1747 1028 
L 1066 0 
L 38 0 
z
" transform="scale(0.015625)"/>
      <path id="Arial-BoldMT-65" d="M 2381 1056 
L 3256 909 
Q 3088 428 2723 176 
Q 2359 -75 1813 -75 
Q 947 -75 531 491 
Q 203 944 203 1634 
Q 203 2459 634 2926 
Q 1066 3394 1725 3394 
Q 2466 3394 2894 2905 
Q 3322 2416 3303 1406 
L 1103 1406 
Q 1113 1016 1316 798 
Q 1519 581 1822 581 
Q 2028 581 2168 693 
Q 2309 806 2381 1056 
z
M 2431 1944 
Q 2422 2325 2234 2523 
Q 2047 2722 1778 2722 
Q 1491 2722 1303 2513 
Q 1116 2303 1119 1944 
L 2431 1944 
z
" transform="scale(0.015625)"/>
      <path id="Arial-BoldMT-73" d="M 150 947 
L 1031 1081 
Q 1088 825 1259 692 
Q 1431 559 1741 559 
Q 2081 559 2253 684 
Q 2369 772 2369 919 
Q 2369 1019 2306 1084 
Q 2241 1147 2013 1200 
Q 950 1434 666 1628 
Q 272 1897 272 2375 
Q 272 2806 612 3100 
Q 953 3394 1669 3394 
Q 2350 3394 2681 3172 
Q 3013 2950 3138 2516 
L 2309 2363 
Q 2256 2556 2107 2659 
Q 1959 2763 1684 2763 
Q 1338 2763 1188 2666 
Q 1088 2597 1088 2488 
Q 1088 2394 1175 2328 
Q 1294 2241 1995 2081 
Q 2697 1922 2975 1691 
Q 3250 1456 3250 1038 
Q 3250 581 2869 253 
Q 2488 -75 1741 -75 
Q 1063 -75 667 200 
Q 272 475 150 947 
z
" transform="scale(0.015625)"/>
     </defs>
     <use xlink:href="#Arial-BoldMT-46"/>
     <use xlink:href="#Arial-BoldMT-6c" x="61.083984"/>
     <use xlink:href="#Arial-BoldMT-75" x="88.867188"/>
     <use xlink:href="#Arial-BoldMT-78" x="149.951172"/>
     <use xlink:href="#Arial-BoldMT-65" x="205.566406"/>
     <use xlink:href="#Arial-BoldMT-73" x="261.181641"/>
    </g>
   </g>
   <g id="legend_1">
    <g id="patch_7">
     <path d="M 132.435712 72.210313 
L 195.841962 72.210313 
Q 197.441962 72.210313 197.441962 70.610313 
L 197.441962 25.957812 
Q 197.441962 24.357812 195.841962 24.357812 
L 132.435712 24.357812 
Q 130.835712 24.357812 130.835712 25.957812 
L 130.835712 70.610313 
Q 130.835712 72.210313 132.435712 72.210313 
z
" style="fill: #ffffff; opacity: 0.8; stroke: #cccccc; stroke-linejoin: miter"/>
    </g>
    <g id="line2d_17">
     <defs>
      <path id="m01d482adc0" d="M 0 3 
C 0.795609 3 1.55874 2.683901 2.12132 2.12132 
C 2.683901 1.55874 3 0.795609 3 0 
C 3 -0.795609 2.683901 -1.55874 2.12132 -2.12132 
C 1.55874 -2.683901 0.795609 -3 0 -3 
C -0.795609 -3 -1.55874 -2.683901 -2.12132 -2.12132 
C -2.683901 -1.55874 -3 -0.795609 -3 0 
C -3 0.795609 -2.683901 1.55874 -2.12132 2.12132 
C -1.55874 2.683901 -0.795609 3 0 3 
z
" style="stroke: #ffffff; stroke-width: 0.48"/>
     </defs>
     <g>
      <use xlink:href="#m01d482adc0" x="142.035712" y="30.484063" style="fill: #1b9e77; stroke: #ffffff; stroke-width: 0.48"/>
     </g>
    </g>
    <g id="text_16">
     <!-- Wild-type -->
     <g transform="translate(156.435712 33.284063) scale(0.08 -0.08)">
      <defs>
       <path id="ArialMT-57" d="M 1294 0 
L 78 4581 
L 700 4581 
L 1397 1578 
Q 1509 1106 1591 641 
Q 1766 1375 1797 1488 
L 2669 4581 
L 3400 4581 
L 4056 2263 
Q 4303 1400 4413 641 
Q 4500 1075 4641 1638 
L 5359 4581 
L 5969 4581 
L 4713 0 
L 4128 0 
L 3163 3491 
Q 3041 3928 3019 4028 
Q 2947 3713 2884 3491 
L 1913 0 
L 1294 0 
z
" transform="scale(0.015625)"/>
       <path id="ArialMT-69" d="M 425 3934 
L 425 4581 
L 988 4581 
L 988 3934 
L 425 3934 
z
M 425 0 
L 425 3319 
L 988 3319 
L 988 0 
L 425 0 
z
" transform="scale(0.015625)"/>
       <path id="ArialMT-6c" d="M 409 0 
L 409 4581 
L 972 4581 
L 972 0 
L 409 0 
z
" transform="scale(0.015625)"/>
       <path id="ArialMT-64" d="M 2575 0 
L 2575 419 
Q 2259 -75 1647 -75 
Q 1250 -75 917 144 
Q 584 363 401 755 
Q 219 1147 219 1656 
Q 219 2153 384 2558 
Q 550 2963 881 3178 
Q 1213 3394 1622 3394 
Q 1922 3394 2156 3267 
Q 2391 3141 2538 2938 
L 2538 4581 
L 3097 4581 
L 3097 0 
L 2575 0 
z
M 797 1656 
Q 797 1019 1065 703 
Q 1334 388 1700 388 
Q 2069 388 2326 689 
Q 2584 991 2584 1609 
Q 2584 2291 2321 2609 
Q 2059 2928 1675 2928 
Q 1300 2928 1048 2622 
Q 797 2316 797 1656 
z
" transform="scale(0.015625)"/>
       <path id="ArialMT-2d" d="M 203 1375 
L 203 1941 
L 1931 1941 
L 1931 1375 
L 203 1375 
z
" transform="scale(0.015625)"/>
       <path id="ArialMT-74" d="M 1650 503 
L 1731 6 
Q 1494 -44 1306 -44 
Q 1000 -44 831 53 
Q 663 150 594 308 
Q 525 466 525 972 
L 525 2881 
L 113 2881 
L 113 3319 
L 525 3319 
L 525 4141 
L 1084 4478 
L 1084 3319 
L 1650 3319 
L 1650 2881 
L 1084 2881 
L 1084 941 
Q 1084 700 1114 631 
Q 1144 563 1211 522 
Q 1278 481 1403 481 
Q 1497 481 1650 503 
z
" transform="scale(0.015625)"/>
       <path id="ArialMT-79" d="M 397 -1278 
L 334 -750 
Q 519 -800 656 -800 
Q 844 -800 956 -737 
Q 1069 -675 1141 -563 
Q 1194 -478 1313 -144 
Q 1328 -97 1363 -6 
L 103 3319 
L 709 3319 
L 1400 1397 
Q 1534 1031 1641 628 
Q 1738 1016 1872 1384 
L 2581 3319 
L 3144 3319 
L 1881 -56 
Q 1678 -603 1566 -809 
Q 1416 -1088 1222 -1217 
Q 1028 -1347 759 -1347 
Q 597 -1347 397 -1278 
z
" transform="scale(0.015625)"/>
       <path id="ArialMT-70" d="M 422 -1272 
L 422 3319 
L 934 3319 
L 934 2888 
Q 1116 3141 1344 3267 
Q 1572 3394 1897 3394 
Q 2322 3394 2647 3175 
Q 2972 2956 3137 2557 
Q 3303 2159 3303 1684 
Q 3303 1175 3120 767 
Q 2938 359 2589 142 
Q 2241 -75 1856 -75 
Q 1575 -75 1351 44 
Q 1128 163 984 344 
L 984 -1272 
L 422 -1272 
z
M 931 1641 
Q 931 1000 1190 694 
Q 1450 388 1819 388 
Q 2194 388 2461 705 
Q 2728 1022 2728 1688 
Q 2728 2322 2467 2637 
Q 2206 2953 1844 2953 
Q 1484 2953 1207 2617 
Q 931 2281 931 1641 
z
" transform="scale(0.015625)"/>
       <path id="ArialMT-65" d="M 2694 1069 
L 3275 997 
Q 3138 488 2766 206 
Q 2394 -75 1816 -75 
Q 1088 -75 661 373 
Q 234 822 234 1631 
Q 234 2469 665 2931 
Q 1097 3394 1784 3394 
Q 2450 3394 2872 2941 
Q 3294 2488 3294 1666 
Q 3294 1616 3291 1516 
L 816 1516 
Q 847 969 1125 678 
Q 1403 388 1819 388 
Q 2128 388 2347 550 
Q 2566 713 2694 1069 
z
M 847 1978 
L 2700 1978 
Q 2663 2397 2488 2606 
Q 2219 2931 1791 2931 
Q 1403 2931 1139 2672 
Q 875 2413 847 1978 
z
" transform="scale(0.015625)"/>
      </defs>
      <use xlink:href="#ArialMT-57"/>
      <use xlink:href="#ArialMT-69" x="94.384766"/>
      <use xlink:href="#ArialMT-6c" x="116.601562"/>
      <use xlink:href="#ArialMT-64" x="138.818359"/>
      <use xlink:href="#ArialMT-2d" x="194.433594"/>
      <use xlink:href="#ArialMT-74" x="227.734375"/>
      <use xlink:href="#ArialMT-79" x="255.517578"/>
      <use xlink:href="#ArialMT-70" x="305.517578"/>
      <use xlink:href="#ArialMT-65" x="361.132812"/>
     </g>
    </g>
    <g id="line2d_18">
     <defs>
      <path id="m4248eb21d3" d="M 0 3 
C 0.795609 3 1.55874 2.683901 2.12132 2.12132 
C 2.683901 1.55874 3 0.795609 3 0 
C 3 -0.795609 2.683901 -1.55874 2.12132 -2.12132 
C 1.55874 -2.683901 0.795609 -3 0 -3 
C -0.795609 -3 -1.55874 -2.683901 -2.12132 -2.12132 
C -2.683901 -1.55874 -3 -0.795609 -3 0 
C -3 0.795609 -2.683901 1.55874 -2.12132 2.12132 
C -1.55874 2.683901 -0.795609 3 0 3 
z
" style="stroke: #ffffff; stroke-width: 0.48"/>
     </defs>
     <g>
      <use xlink:href="#m4248eb21d3" x="142.035712" y="41.894063" style="fill: #d95f02; stroke: #ffffff; stroke-width: 0.48"/>
     </g>
    </g>
    <g id="text_17">
     <!-- Human -->
     <g transform="translate(156.435712 44.694063) scale(0.08 -0.08)">
      <defs>
       <path id="ArialMT-48" d="M 513 0 
L 513 4581 
L 1119 4581 
L 1119 2700 
L 3500 2700 
L 3500 4581 
L 4106 4581 
L 4106 0 
L 3500 0 
L 3500 2159 
L 1119 2159 
L 1119 0 
L 513 0 
z
" transform="scale(0.015625)"/>
       <path id="ArialMT-75" d="M 2597 0 
L 2597 488 
Q 2209 -75 1544 -75 
Q 1250 -75 995 37 
Q 741 150 617 320 
Q 494 491 444 738 
Q 409 903 409 1263 
L 409 3319 
L 972 3319 
L 972 1478 
Q 972 1038 1006 884 
Q 1059 663 1231 536 
Q 1403 409 1656 409 
Q 1909 409 2131 539 
Q 2353 669 2445 892 
Q 2538 1116 2538 1541 
L 2538 3319 
L 3100 3319 
L 3100 0 
L 2597 0 
z
" transform="scale(0.015625)"/>
       <path id="ArialMT-6d" d="M 422 0 
L 422 3319 
L 925 3319 
L 925 2853 
Q 1081 3097 1340 3245 
Q 1600 3394 1931 3394 
Q 2300 3394 2536 3241 
Q 2772 3088 2869 2813 
Q 3263 3394 3894 3394 
Q 4388 3394 4653 3120 
Q 4919 2847 4919 2278 
L 4919 0 
L 4359 0 
L 4359 2091 
Q 4359 2428 4304 2576 
Q 4250 2725 4106 2815 
Q 3963 2906 3769 2906 
Q 3419 2906 3187 2673 
Q 2956 2441 2956 1928 
L 2956 0 
L 2394 0 
L 2394 2156 
Q 2394 2531 2256 2718 
Q 2119 2906 1806 2906 
Q 1569 2906 1367 2781 
Q 1166 2656 1075 2415 
Q 984 2175 984 1722 
L 984 0 
L 422 0 
z
" transform="scale(0.015625)"/>
       <path id="ArialMT-61" d="M 2588 409 
Q 2275 144 1986 34 
Q 1697 -75 1366 -75 
Q 819 -75 525 192 
Q 231 459 231 875 
Q 231 1119 342 1320 
Q 453 1522 633 1644 
Q 813 1766 1038 1828 
Q 1203 1872 1538 1913 
Q 2219 1994 2541 2106 
Q 2544 2222 2544 2253 
Q 2544 2597 2384 2738 
Q 2169 2928 1744 2928 
Q 1347 2928 1158 2789 
Q 969 2650 878 2297 
L 328 2372 
Q 403 2725 575 2942 
Q 747 3159 1072 3276 
Q 1397 3394 1825 3394 
Q 2250 3394 2515 3294 
Q 2781 3194 2906 3042 
Q 3031 2891 3081 2659 
Q 3109 2516 3109 2141 
L 3109 1391 
Q 3109 606 3145 398 
Q 3181 191 3288 0 
L 2700 0 
Q 2613 175 2588 409 
z
M 2541 1666 
Q 2234 1541 1622 1453 
Q 1275 1403 1131 1340 
Q 988 1278 909 1158 
Q 831 1038 831 891 
Q 831 666 1001 516 
Q 1172 366 1500 366 
Q 1825 366 2078 508 
Q 2331 650 2450 897 
Q 2541 1088 2541 1459 
L 2541 1666 
z
" transform="scale(0.015625)"/>
       <path id="ArialMT-6e" d="M 422 0 
L 422 3319 
L 928 3319 
L 928 2847 
Q 1294 3394 1984 3394 
Q 2284 3394 2536 3286 
Q 2788 3178 2913 3003 
Q 3038 2828 3088 2588 
Q 3119 2431 3119 2041 
L 3119 0 
L 2556 0 
L 2556 2019 
Q 2556 2363 2490 2533 
Q 2425 2703 2258 2804 
Q 2091 2906 1866 2906 
Q 1506 2906 1245 2678 
Q 984 2450 984 1813 
L 984 0 
L 422 0 
z
" transform="scale(0.015625)"/>
      </defs>
      <use xlink:href="#ArialMT-48"/>
      <use xlink:href="#ArialMT-75" x="72.216797"/>
      <use xlink:href="#ArialMT-6d" x="127.832031"/>
      <use xlink:href="#ArialMT-61" x="211.132812"/>
      <use xlink:href="#ArialMT-6e" x="266.748047"/>
     </g>
    </g>
    <g id="line2d_19">
     <defs>
      <path id="md9ab72a438" d="M 0 3 
C 0.795609 3 1.55874 2.683901 2.12132 2.12132 
C 2.683901 1.55874 3 0.795609 3 0 
C 3 -0.795609 2.683901 -1.55874 2.12132 -2.12132 
C 1.55874 -2.683901 0.795609 -3 0 -3 
C -0.795609 -3 -1.55874 -2.683901 -2.12132 -2.12132 
C -2.683901 -1.55874 -3 -0.795609 -3 0 
C -3 0.795609 -2.683901 1.55874 -2.12132 2.12132 
C -1.55874 2.683901 -0.795609 3 0 3 
z
" style="stroke: #ffffff; stroke-width: 0.48"/>
     </defs>
     <g>
      <use xlink:href="#md9ab72a438" x="142.035712" y="53.210313" style="fill: #7570b3; stroke: #ffffff; stroke-width: 0.48"/>
     </g>
    </g>
    <g id="text_18">
     <!-- Dairy -->
     <g transform="translate(156.435712 56.010312) scale(0.08 -0.08)">
      <defs>
       <path id="ArialMT-44" d="M 494 0 
L 494 4581 
L 2072 4581 
Q 2606 4581 2888 4516 
Q 3281 4425 3559 4188 
Q 3922 3881 4101 3404 
Q 4281 2928 4281 2316 
Q 4281 1794 4159 1391 
Q 4038 988 3847 723 
Q 3656 459 3429 307 
Q 3203 156 2883 78 
Q 2563 0 2147 0 
L 494 0 
z
M 1100 541 
L 2078 541 
Q 2531 541 2789 625 
Q 3047 709 3200 863 
Q 3416 1078 3536 1442 
Q 3656 1806 3656 2325 
Q 3656 3044 3420 3430 
Q 3184 3816 2847 3947 
Q 2603 4041 2063 4041 
L 1100 4041 
L 1100 541 
z
" transform="scale(0.015625)"/>
       <path id="ArialMT-72" d="M 416 0 
L 416 3319 
L 922 3319 
L 922 2816 
Q 1116 3169 1280 3281 
Q 1444 3394 1641 3394 
Q 1925 3394 2219 3213 
L 2025 2691 
Q 1819 2813 1613 2813 
Q 1428 2813 1281 2702 
Q 1134 2591 1072 2394 
Q 978 2094 978 1738 
L 978 0 
L 416 0 
z
" transform="scale(0.015625)"/>
      </defs>
      <use xlink:href="#ArialMT-44"/>
      <use xlink:href="#ArialMT-61" x="72.216797"/>
      <use xlink:href="#ArialMT-69" x="127.832031"/>
      <use xlink:href="#ArialMT-72" x="150.048828"/>
      <use xlink:href="#ArialMT-79" x="183.349609"/>
     </g>
    </g>
    <g id="line2d_20">
     <defs>
      <path id="m720dfb78c3" d="M 0 3 
C 0.795609 3 1.55874 2.683901 2.12132 2.12132 
C 2.683901 1.55874 3 0.795609 3 0 
C 3 -0.795609 2.683901 -1.55874 2.12132 -2.12132 
C 1.55874 -2.683901 0.795609 -3 0 -3 
C -0.795609 -3 -1.55874 -2.683901 -2.12132 -2.12132 
C -2.683901 -1.55874 -3 -0.795609 -3 0 
C -3 0.795609 -2.683901 1.55874 -2.12132 2.12132 
C -1.55874 2.683901 -0.795609 3 0 3 
z
" style="stroke: #ffffff; stroke-width: 0.48"/>
     </defs>
     <g>
      <use xlink:href="#m720dfb78c3" x="142.035712" y="64.620313" style="fill: #e7298a; stroke: #ffffff; stroke-width: 0.48"/>
     </g>
    </g>
    <g id="text_19">
     <!-- Bioethanol -->
     <g transform="translate(156.435712 67.420313) scale(0.08 -0.08)">
      <defs>
       <path id="ArialMT-42" d="M 469 0 
L 469 4581 
L 2188 4581 
Q 2713 4581 3030 4442 
Q 3347 4303 3526 4014 
Q 3706 3725 3706 3409 
Q 3706 3116 3547 2856 
Q 3388 2597 3066 2438 
Q 3481 2316 3704 2022 
Q 3928 1728 3928 1328 
Q 3928 1006 3792 729 
Q 3656 453 3456 303 
Q 3256 153 2954 76 
Q 2653 0 2216 0 
L 469 0 
z
M 1075 2656 
L 2066 2656 
Q 2469 2656 2644 2709 
Q 2875 2778 2992 2937 
Q 3109 3097 3109 3338 
Q 3109 3566 3000 3739 
Q 2891 3913 2687 3977 
Q 2484 4041 1991 4041 
L 1075 4041 
L 1075 2656 
z
M 1075 541 
L 2216 541 
Q 2509 541 2628 563 
Q 2838 600 2978 687 
Q 3119 775 3209 942 
Q 3300 1109 3300 1328 
Q 3300 1584 3169 1773 
Q 3038 1963 2805 2039 
Q 2572 2116 2134 2116 
L 1075 2116 
L 1075 541 
z
" transform="scale(0.015625)"/>
       <path id="ArialMT-6f" d="M 213 1659 
Q 213 2581 725 3025 
Q 1153 3394 1769 3394 
Q 2453 3394 2887 2945 
Q 3322 2497 3322 1706 
Q 3322 1066 3130 698 
Q 2938 331 2570 128 
Q 2203 -75 1769 -75 
Q 1072 -75 642 372 
Q 213 819 213 1659 
z
M 791 1659 
Q 791 1022 1069 705 
Q 1347 388 1769 388 
Q 2188 388 2466 706 
Q 2744 1025 2744 1678 
Q 2744 2294 2464 2611 
Q 2184 2928 1769 2928 
Q 1347 2928 1069 2612 
Q 791 2297 791 1659 
z
" transform="scale(0.015625)"/>
       <path id="ArialMT-68" d="M 422 0 
L 422 4581 
L 984 4581 
L 984 2938 
Q 1378 3394 1978 3394 
Q 2347 3394 2619 3248 
Q 2891 3103 3008 2847 
Q 3125 2591 3125 2103 
L 3125 0 
L 2563 0 
L 2563 2103 
Q 2563 2525 2380 2717 
Q 2197 2909 1863 2909 
Q 1613 2909 1392 2779 
Q 1172 2650 1078 2428 
Q 984 2206 984 1816 
L 984 0 
L 422 0 
z
" transform="scale(0.015625)"/>
      </defs>
      <use xlink:href="#ArialMT-42"/>
      <use xlink:href="#ArialMT-69" x="66.699219"/>
      <use xlink:href="#ArialMT-6f" x="88.916016"/>
      <use xlink:href="#ArialMT-65" x="144.53125"/>
      <use xlink:href="#ArialMT-74" x="200.146484"/>
      <use xlink:href="#ArialMT-68" x="227.929688"/>
      <use xlink:href="#ArialMT-61" x="283.544922"/>
      <use xlink:href="#ArialMT-6e" x="339.160156"/>
      <use xlink:href="#ArialMT-6f" x="394.775391"/>
      <use xlink:href="#ArialMT-6c" x="450.390625"/>
     </g>
    </g>
   </g>
  </g>
 </g>
 <defs>
  <clipPath id="pb6654fc372">
   <rect x="44.546875" y="20.357812" width="156.895087" height="153.64"/>
  </clipPath>
 </defs>
</svg>
