<?xml version="1.0" encoding="utf-8" standalone="no"?>
<!DOCTYPE svg PUBLIC "-//W3C//DTD SVG 1.1//EN"
  "http://www.w3.org/Graphics/SVG/1.1/DTD/svg11.dtd">
<svg xmlns:xlink="http://www.w3.org/1999/xlink" width="629.549375pt" height="481.54473pt" viewBox="0 0 629.549375 481.54473" xmlns="http://www.w3.org/2000/svg" version="1.1">
 <metadata>
  <rdf:RDF xmlns:dc="http://purl.org/dc/elements/1.1/" xmlns:cc="http://creativecommons.org/ns#" xmlns:rdf="http://www.w3.org/1999/02/22-rdf-syntax-ns#">
   <cc:Work>
    <dc:type rdf:resource="http://purl.org/dc/dcmitype/StillImage"/>
    <dc:date>2024-12-09T08:58:28.659655</dc:date>
    <dc:format>image/svg+xml</dc:format>
    <dc:creator>
     <cc:Agent>
      <dc:title>Matplotlib v3.9.2, https://matplotlib.org/</dc:title>
     </cc:Agent>
    </dc:creator>
   </cc:Work>
  </rdf:RDF>
 </metadata>
 <defs>
  <style type="text/css">*{stroke-linejoin: round; stroke-linecap: butt}</style>
 </defs>
 <g id="figure_1">
  <g id="patch_1">
   <path d="M 0 481.54473 
L 629.549375 481.54473 
L 629.549375 0 
L 0 0 
L 0 481.54473 
z
" style="fill: none"/>
  </g>
  <g id="axes_1">
   <g id="patch_2">
    <path d="M 64.349375 129.45223 
L 622.349375 129.45223 
L 622.349375 10.65223 
L 64.349375 10.65223 
L 64.349375 129.45223 
z
" style="fill: none"/>
   </g>
   <g id="matplotlib.axis_1"/>
   <g id="matplotlib.axis_2">
    <g id="ytick_1">
     <g id="line2d_1">
      <defs>
       <path id="m5e4af35df4" d="M 0 0 
L -3.5 0 
" style="stroke: #000000; stroke-width: 0.8"/>
      </defs>
      <g>
       <use xlink:href="#m5e4af35df4" x="64.349375" y="99.665134" style="stroke: #000000; stroke-width: 0.8"/>
      </g>
     </g>
     <g id="text_1">
      <!-- 1050 -->
      <g transform="translate(23.98375 105.033493) scale(0.15 -0.15)">
       <defs>
        <path id="ArialMT-31" d="M 2384 0 
L 1822 0 
L 1822 3584 
Q 1619 3391 1289 3197 
Q 959 3003 697 2906 
L 697 3450 
Q 1169 3672 1522 3987 
Q 1875 4303 2022 4600 
L 2384 4600 
L 2384 0 
z
" transform="scale(0.015625)"/>
        <path id="ArialMT-30" d="M 266 2259 
Q 266 3072 433 3567 
Q 600 4063 929 4331 
Q 1259 4600 1759 4600 
Q 2128 4600 2406 4451 
Q 2684 4303 2865 4023 
Q 3047 3744 3150 3342 
Q 3253 2941 3253 2259 
Q 3253 1453 3087 958 
Q 2922 463 2592 192 
Q 2263 -78 1759 -78 
Q 1097 -78 719 397 
Q 266 969 266 2259 
z
M 844 2259 
Q 844 1131 1108 757 
Q 1372 384 1759 384 
Q 2147 384 2411 759 
Q 2675 1134 2675 2259 
Q 2675 3391 2411 3762 
Q 2147 4134 1753 4134 
Q 1366 4134 1134 3806 
Q 844 3388 844 2259 
z
" transform="scale(0.015625)"/>
        <path id="ArialMT-35" d="M 266 1200 
L 856 1250 
Q 922 819 1161 601 
Q 1400 384 1738 384 
Q 2144 384 2425 690 
Q 2706 997 2706 1503 
Q 2706 1984 2436 2262 
Q 2166 2541 1728 2541 
Q 1456 2541 1237 2417 
Q 1019 2294 894 2097 
L 366 2166 
L 809 4519 
L 3088 4519 
L 3088 3981 
L 1259 3981 
L 1013 2750 
Q 1425 3038 1878 3038 
Q 2478 3038 2890 2622 
Q 3303 2206 3303 1553 
Q 3303 931 2941 478 
Q 2500 -78 1738 -78 
Q 1113 -78 717 272 
Q 322 622 266 1200 
z
" transform="scale(0.015625)"/>
       </defs>
       <use xlink:href="#ArialMT-31"/>
       <use xlink:href="#ArialMT-30" x="55.615234"/>
       <use xlink:href="#ArialMT-35" x="111.230469"/>
       <use xlink:href="#ArialMT-30" x="166.845703"/>
      </g>
     </g>
    </g>
    <g id="ytick_2">
     <g id="line2d_2">
      <g>
       <use xlink:href="#m5e4af35df4" x="64.349375" y="56.116746" style="stroke: #000000; stroke-width: 0.8"/>
      </g>
     </g>
     <g id="text_2">
      <!-- 1075 -->
      <g transform="translate(23.98375 61.485106) scale(0.15 -0.15)">
       <defs>
        <path id="ArialMT-37" d="M 303 3981 
L 303 4522 
L 3269 4522 
L 3269 4084 
Q 2831 3619 2401 2847 
Q 1972 2075 1738 1259 
Q 1569 684 1522 0 
L 944 0 
Q 953 541 1156 1306 
Q 1359 2072 1739 2783 
Q 2119 3494 2547 3981 
L 303 3981 
z
" transform="scale(0.015625)"/>
       </defs>
       <use xlink:href="#ArialMT-31"/>
       <use xlink:href="#ArialMT-30" x="55.615234"/>
       <use xlink:href="#ArialMT-37" x="111.230469"/>
       <use xlink:href="#ArialMT-35" x="166.845703"/>
      </g>
     </g>
    </g>
    <g id="ytick_3">
     <g id="line2d_3">
      <g>
       <use xlink:href="#m5e4af35df4" x="64.349375" y="12.568359" style="stroke: #000000; stroke-width: 0.8"/>
      </g>
     </g>
     <g id="text_3">
      <!-- 1100 -->
      <g transform="translate(25.09 17.936719) scale(0.15 -0.15)">
       <use xlink:href="#ArialMT-31"/>
       <use xlink:href="#ArialMT-31" x="48.240234"/>
       <use xlink:href="#ArialMT-30" x="103.855469"/>
       <use xlink:href="#ArialMT-30" x="159.470703"/>
      </g>
     </g>
    </g>
    <g id="text_4">
     <!-- Gene number -->
     <g transform="translate(17.220938 115.170512) rotate(-90) scale(0.14 -0.14)">
      <defs>
       <path id="Arial-BoldMT-47" d="M 2597 1684 
L 2597 2456 
L 4591 2456 
L 4591 631 
Q 4300 350 3748 136 
Q 3197 -78 2631 -78 
Q 1913 -78 1378 223 
Q 844 525 575 1086 
Q 306 1647 306 2306 
Q 306 3022 606 3578 
Q 906 4134 1484 4431 
Q 1925 4659 2581 4659 
Q 3434 4659 3914 4301 
Q 4394 3944 4531 3313 
L 3613 3141 
Q 3516 3478 3248 3673 
Q 2981 3869 2581 3869 
Q 1975 3869 1617 3484 
Q 1259 3100 1259 2344 
Q 1259 1528 1621 1120 
Q 1984 713 2572 713 
Q 2863 713 3155 827 
Q 3447 941 3656 1103 
L 3656 1684 
L 2597 1684 
z
" transform="scale(0.015625)"/>
       <path id="Arial-BoldMT-65" d="M 2381 1056 
L 3256 909 
Q 3088 428 2723 176 
Q 2359 -75 1813 -75 
Q 947 -75 531 491 
Q 203 944 203 1634 
Q 203 2459 634 2926 
Q 1066 3394 1725 3394 
Q 2466 3394 2894 2905 
Q 3322 2416 3303 1406 
L 1103 1406 
Q 1113 1016 1316 798 
Q 1519 581 1822 581 
Q 2028 581 2168 693 
Q 2309 806 2381 1056 
z
M 2431 1944 
Q 2422 2325 2234 2523 
Q 2047 2722 1778 2722 
Q 1491 2722 1303 2513 
Q 1116 2303 1119 1944 
L 2431 1944 
z
" transform="scale(0.015625)"/>
       <path id="Arial-BoldMT-6e" d="M 3478 0 
L 2600 0 
L 2600 1694 
Q 2600 2231 2544 2389 
Q 2488 2547 2361 2634 
Q 2234 2722 2056 2722 
Q 1828 2722 1647 2597 
Q 1466 2472 1398 2265 
Q 1331 2059 1331 1503 
L 1331 0 
L 453 0 
L 453 3319 
L 1269 3319 
L 1269 2831 
Q 1703 3394 2363 3394 
Q 2653 3394 2893 3289 
Q 3134 3184 3257 3021 
Q 3381 2859 3429 2653 
Q 3478 2447 3478 2063 
L 3478 0 
z
" transform="scale(0.015625)"/>
       <path id="Arial-BoldMT-20" transform="scale(0.015625)"/>
       <path id="Arial-BoldMT-75" d="M 2644 0 
L 2644 497 
Q 2463 231 2167 78 
Q 1872 -75 1544 -75 
Q 1209 -75 943 72 
Q 678 219 559 484 
Q 441 750 441 1219 
L 441 3319 
L 1319 3319 
L 1319 1794 
Q 1319 1094 1367 936 
Q 1416 778 1544 686 
Q 1672 594 1869 594 
Q 2094 594 2272 717 
Q 2450 841 2515 1023 
Q 2581 1206 2581 1919 
L 2581 3319 
L 3459 3319 
L 3459 0 
L 2644 0 
z
" transform="scale(0.015625)"/>
       <path id="Arial-BoldMT-6d" d="M 394 3319 
L 1203 3319 
L 1203 2866 
Q 1638 3394 2238 3394 
Q 2556 3394 2790 3262 
Q 3025 3131 3175 2866 
Q 3394 3131 3647 3262 
Q 3900 3394 4188 3394 
Q 4553 3394 4806 3245 
Q 5059 3097 5184 2809 
Q 5275 2597 5275 2122 
L 5275 0 
L 4397 0 
L 4397 1897 
Q 4397 2391 4306 2534 
Q 4184 2722 3931 2722 
Q 3747 2722 3584 2609 
Q 3422 2497 3350 2280 
Q 3278 2063 3278 1594 
L 3278 0 
L 2400 0 
L 2400 1819 
Q 2400 2303 2353 2443 
Q 2306 2584 2207 2653 
Q 2109 2722 1941 2722 
Q 1738 2722 1575 2612 
Q 1413 2503 1342 2297 
Q 1272 2091 1272 1613 
L 1272 0 
L 394 0 
L 394 3319 
z
" transform="scale(0.015625)"/>
       <path id="Arial-BoldMT-62" d="M 422 0 
L 422 4581 
L 1300 4581 
L 1300 2931 
Q 1706 3394 2263 3394 
Q 2869 3394 3266 2955 
Q 3663 2516 3663 1694 
Q 3663 844 3258 384 
Q 2853 -75 2275 -75 
Q 1991 -75 1714 67 
Q 1438 209 1238 488 
L 1238 0 
L 422 0 
z
M 1294 1731 
Q 1294 1216 1456 969 
Q 1684 619 2063 619 
Q 2353 619 2558 867 
Q 2763 1116 2763 1650 
Q 2763 2219 2556 2470 
Q 2350 2722 2028 2722 
Q 1713 2722 1503 2476 
Q 1294 2231 1294 1731 
z
" transform="scale(0.015625)"/>
       <path id="Arial-BoldMT-72" d="M 1300 0 
L 422 0 
L 422 3319 
L 1238 3319 
L 1238 2847 
Q 1447 3181 1614 3287 
Q 1781 3394 1994 3394 
Q 2294 3394 2572 3228 
L 2300 2463 
Q 2078 2606 1888 2606 
Q 1703 2606 1575 2504 
Q 1447 2403 1373 2137 
Q 1300 1872 1300 1025 
L 1300 0 
z
" transform="scale(0.015625)"/>
      </defs>
      <use xlink:href="#Arial-BoldMT-47"/>
      <use xlink:href="#Arial-BoldMT-65" x="77.783203"/>
      <use xlink:href="#Arial-BoldMT-6e" x="133.398438"/>
      <use xlink:href="#Arial-BoldMT-65" x="194.482422"/>
      <use xlink:href="#Arial-BoldMT-20" x="250.097656"/>
      <use xlink:href="#Arial-BoldMT-6e" x="277.880859"/>
      <use xlink:href="#Arial-BoldMT-75" x="338.964844"/>
      <use xlink:href="#Arial-BoldMT-6d" x="400.048828"/>
      <use xlink:href="#Arial-BoldMT-62" x="488.964844"/>
      <use xlink:href="#Arial-BoldMT-65" x="550.048828"/>
      <use xlink:href="#Arial-BoldMT-72" x="605.664062"/>
     </g>
    </g>
   </g>
   <g id="patch_3">
    <path d="M 67.836875 73.536101 
L 95.736875 73.536101 
L 95.736875 54.374811 
L 67.836875 54.374811 
L 67.836875 73.536101 
z
" clip-path="url(#p0c355a0e81)" style="fill: #2b8e70; stroke: #373737; stroke-linejoin: miter"/>
   </g>
   <g id="line2d_4">
    <path d="M 81.786875 73.536101 
L 81.786875 99.665134 
" clip-path="url(#p0c355a0e81)" style="fill: none; stroke: #373737"/>
   </g>
   <g id="line2d_5">
    <path d="M 81.786875 54.374811 
L 81.786875 31.72965 
" clip-path="url(#p0c355a0e81)" style="fill: none; stroke: #373737"/>
   </g>
   <g id="line2d_6">
    <path d="M 74.811875 99.665134 
L 88.761875 99.665134 
" clip-path="url(#p0c355a0e81)" style="fill: none; stroke: #373737; stroke-linecap: square"/>
   </g>
   <g id="line2d_7">
    <path d="M 74.811875 31.72965 
L 88.761875 31.72965 
" clip-path="url(#p0c355a0e81)" style="fill: none; stroke: #373737; stroke-linecap: square"/>
   </g>
   <g id="patch_4">
    <path d="M 102.711875 75.278037 
L 130.611875 75.278037 
L 130.611875 52.632876 
L 102.711875 52.632876 
L 102.711875 75.278037 
z
" clip-path="url(#p0c355a0e81)" style="fill: #be631d; stroke: #373737; stroke-linejoin: miter"/>
   </g>
   <g id="line2d_8">
    <path d="M 116.661875 75.278037 
L 116.661875 99.665134 
" clip-path="url(#p0c355a0e81)" style="fill: none; stroke: #373737"/>
   </g>
   <g id="line2d_9">
    <path d="M 116.661875 52.632876 
L 116.661875 24.761908 
" clip-path="url(#p0c355a0e81)" style="fill: none; stroke: #373737"/>
   </g>
   <g id="line2d_10">
    <path d="M 109.686875 99.665134 
L 123.636875 99.665134 
" clip-path="url(#p0c355a0e81)" style="fill: none; stroke: #373737; stroke-linecap: square"/>
   </g>
   <g id="line2d_11">
    <path d="M 109.686875 24.761908 
L 123.636875 24.761908 
" clip-path="url(#p0c355a0e81)" style="fill: none; stroke: #373737; stroke-linecap: square"/>
   </g>
   <g id="patch_5">
    <path d="M 137.586875 59.600617 
L 165.486875 59.600617 
L 165.486875 43.923198 
L 137.586875 43.923198 
L 137.586875 59.600617 
z
" clip-path="url(#p0c355a0e81)" style="fill: #7c78ab; stroke: #373737; stroke-linejoin: miter"/>
   </g>
   <g id="line2d_12">
    <path d="M 151.536875 59.600617 
L 151.536875 63.084488 
" clip-path="url(#p0c355a0e81)" style="fill: none; stroke: #373737"/>
   </g>
   <g id="line2d_13">
    <path d="M 151.536875 43.923198 
L 151.536875 26.503843 
" clip-path="url(#p0c355a0e81)" style="fill: none; stroke: #373737"/>
   </g>
   <g id="line2d_14">
    <path d="M 144.561875 63.084488 
L 158.511875 63.084488 
" clip-path="url(#p0c355a0e81)" style="fill: none; stroke: #373737; stroke-linecap: square"/>
   </g>
   <g id="line2d_15">
    <path d="M 144.561875 26.503843 
L 158.511875 26.503843 
" clip-path="url(#p0c355a0e81)" style="fill: none; stroke: #373737; stroke-linecap: square"/>
   </g>
   <g id="patch_6">
    <path d="M 172.461875 77.019972 
L 200.361875 77.019972 
L 200.361875 60.907069 
L 172.461875 60.907069 
L 172.461875 77.019972 
z
" clip-path="url(#p0c355a0e81)" style="fill: #cf418a; stroke: #373737; stroke-linejoin: miter"/>
   </g>
   <g id="line2d_16">
    <path d="M 186.411875 77.019972 
L 186.411875 99.665134 
" clip-path="url(#p0c355a0e81)" style="fill: none; stroke: #373737"/>
   </g>
   <g id="line2d_17">
    <path d="M 186.411875 60.907069 
L 186.411875 42.181263 
" clip-path="url(#p0c355a0e81)" style="fill: none; stroke: #373737"/>
   </g>
   <g id="line2d_18">
    <path d="M 179.436875 99.665134 
L 193.386875 99.665134 
" clip-path="url(#p0c355a0e81)" style="fill: none; stroke: #373737; stroke-linecap: square"/>
   </g>
   <g id="line2d_19">
    <path d="M 179.436875 42.181263 
L 193.386875 42.181263 
" clip-path="url(#p0c355a0e81)" style="fill: none; stroke: #373737; stroke-linecap: square"/>
   </g>
   <g id="patch_7">
    <path d="M 207.336875 75.278037 
L 235.236875 75.278037 
L 235.236875 53.068359 
L 207.336875 53.068359 
L 207.336875 75.278037 
z
" clip-path="url(#p0c355a0e81)" style="fill: #65952f; stroke: #373737; stroke-linejoin: miter"/>
   </g>
   <g id="line2d_20">
    <path d="M 221.286875 75.278037 
L 221.286875 83.987714 
" clip-path="url(#p0c355a0e81)" style="fill: none; stroke: #373737"/>
   </g>
   <g id="line2d_21">
    <path d="M 221.286875 53.068359 
L 221.286875 47.407069 
" clip-path="url(#p0c355a0e81)" style="fill: none; stroke: #373737"/>
   </g>
   <g id="line2d_22">
    <path d="M 214.311875 83.987714 
L 228.261875 83.987714 
" clip-path="url(#p0c355a0e81)" style="fill: none; stroke: #373737; stroke-linecap: square"/>
   </g>
   <g id="line2d_23">
    <path d="M 214.311875 47.407069 
L 228.261875 47.407069 
" clip-path="url(#p0c355a0e81)" style="fill: none; stroke: #373737; stroke-linecap: square"/>
   </g>
   <g id="patch_8">
    <path d="M 242.211875 85.72965 
L 270.111875 85.72965 
L 270.111875 79.197392 
L 242.211875 79.197392 
L 242.211875 85.72965 
z
" clip-path="url(#p0c355a0e81)" style="fill: #ca9d1e; stroke: #373737; stroke-linejoin: miter"/>
   </g>
   <g id="line2d_24">
    <path d="M 256.161875 85.72965 
L 256.161875 94.439327 
" clip-path="url(#p0c355a0e81)" style="fill: none; stroke: #373737"/>
   </g>
   <g id="line2d_25">
    <path d="M 256.161875 79.197392 
L 256.161875 75.278037 
" clip-path="url(#p0c355a0e81)" style="fill: none; stroke: #373737"/>
   </g>
   <g id="line2d_26">
    <path d="M 249.186875 94.439327 
L 263.136875 94.439327 
" clip-path="url(#p0c355a0e81)" style="fill: none; stroke: #373737; stroke-linecap: square"/>
   </g>
   <g id="line2d_27">
    <path d="M 249.186875 75.278037 
L 263.136875 75.278037 
" clip-path="url(#p0c355a0e81)" style="fill: none; stroke: #373737; stroke-linecap: square"/>
   </g>
   <g id="patch_9">
    <path d="M 277.086875 70.05223 
L 304.986875 70.05223 
L 304.986875 50.89094 
L 277.086875 50.89094 
L 277.086875 70.05223 
z
" clip-path="url(#p0c355a0e81)" style="fill: #95712e; stroke: #373737; stroke-linejoin: miter"/>
   </g>
   <g id="line2d_28">
    <path d="M 291.036875 70.05223 
L 291.036875 87.471585 
" clip-path="url(#p0c355a0e81)" style="fill: none; stroke: #373737"/>
   </g>
   <g id="line2d_29">
    <path d="M 291.036875 50.89094 
L 291.036875 31.72965 
" clip-path="url(#p0c355a0e81)" style="fill: none; stroke: #373737"/>
   </g>
   <g id="line2d_30">
    <path d="M 284.061875 87.471585 
L 298.011875 87.471585 
" clip-path="url(#p0c355a0e81)" style="fill: none; stroke: #373737; stroke-linecap: square"/>
   </g>
   <g id="line2d_31">
    <path d="M 284.061875 31.72965 
L 298.011875 31.72965 
" clip-path="url(#p0c355a0e81)" style="fill: none; stroke: #373737; stroke-linecap: square"/>
   </g>
   <g id="patch_10">
    <path d="M 311.961875 73.536101 
L 339.861875 73.536101 
L 339.861875 57.858682 
L 311.961875 57.858682 
L 311.961875 73.536101 
z
" clip-path="url(#p0c355a0e81)" style="fill: #666666; stroke: #373737; stroke-linejoin: miter"/>
   </g>
   <g id="line2d_32">
    <path d="M 325.911875 73.536101 
L 325.911875 90.955456 
" clip-path="url(#p0c355a0e81)" style="fill: none; stroke: #373737"/>
   </g>
   <g id="line2d_33">
    <path d="M 325.911875 57.858682 
L 325.911875 43.923198 
" clip-path="url(#p0c355a0e81)" style="fill: none; stroke: #373737"/>
   </g>
   <g id="line2d_34">
    <path d="M 318.936875 90.955456 
L 332.886875 90.955456 
" clip-path="url(#p0c355a0e81)" style="fill: none; stroke: #373737; stroke-linecap: square"/>
   </g>
   <g id="line2d_35">
    <path d="M 318.936875 43.923198 
L 332.886875 43.923198 
" clip-path="url(#p0c355a0e81)" style="fill: none; stroke: #373737; stroke-linecap: square"/>
   </g>
   <g id="patch_11">
    <path d="M 346.836875 75.278037 
L 374.736875 75.278037 
L 374.736875 58.294166 
L 346.836875 58.294166 
L 346.836875 75.278037 
z
" clip-path="url(#p0c355a0e81)" style="fill: #2b8e70; stroke: #373737; stroke-linejoin: miter"/>
   </g>
   <g id="line2d_36">
    <path d="M 360.786875 75.278037 
L 360.786875 97.923198 
" clip-path="url(#p0c355a0e81)" style="fill: none; stroke: #373737"/>
   </g>
   <g id="line2d_37">
    <path d="M 360.786875 58.294166 
L 360.786875 40.439327 
" clip-path="url(#p0c355a0e81)" style="fill: none; stroke: #373737"/>
   </g>
   <g id="line2d_38">
    <path d="M 353.811875 97.923198 
L 367.761875 97.923198 
" clip-path="url(#p0c355a0e81)" style="fill: none; stroke: #373737; stroke-linecap: square"/>
   </g>
   <g id="line2d_39">
    <path d="M 353.811875 40.439327 
L 367.761875 40.439327 
" clip-path="url(#p0c355a0e81)" style="fill: none; stroke: #373737; stroke-linecap: square"/>
   </g>
   <g id="patch_12">
    <path d="M 381.711875 63.955456 
L 409.611875 63.955456 
L 409.611875 43.923198 
L 381.711875 43.923198 
L 381.711875 63.955456 
z
" clip-path="url(#p0c355a0e81)" style="fill: #be631d; stroke: #373737; stroke-linejoin: miter"/>
   </g>
   <g id="line2d_40">
    <path d="M 395.661875 63.955456 
L 395.661875 78.761908 
" clip-path="url(#p0c355a0e81)" style="fill: none; stroke: #373737"/>
   </g>
   <g id="line2d_41">
    <path d="M 395.661875 43.923198 
L 395.661875 19.536101 
" clip-path="url(#p0c355a0e81)" style="fill: none; stroke: #373737"/>
   </g>
   <g id="line2d_42">
    <path d="M 388.686875 78.761908 
L 402.636875 78.761908 
" clip-path="url(#p0c355a0e81)" style="fill: none; stroke: #373737; stroke-linecap: square"/>
   </g>
   <g id="line2d_43">
    <path d="M 388.686875 19.536101 
L 402.636875 19.536101 
" clip-path="url(#p0c355a0e81)" style="fill: none; stroke: #373737; stroke-linecap: square"/>
   </g>
   <g id="patch_13">
    <path d="M 416.586875 90.084488 
L 444.486875 90.084488 
L 444.486875 72.665134 
L 416.586875 72.665134 
L 416.586875 90.084488 
z
" clip-path="url(#p0c355a0e81)" style="fill: #7c78ab; stroke: #373737; stroke-linejoin: miter"/>
   </g>
   <g id="line2d_44">
    <path d="M 430.536875 90.084488 
L 430.536875 101.407069 
" clip-path="url(#p0c355a0e81)" style="fill: none; stroke: #373737"/>
   </g>
   <g id="line2d_45">
    <path d="M 430.536875 72.665134 
L 430.536875 61.342553 
" clip-path="url(#p0c355a0e81)" style="fill: none; stroke: #373737"/>
   </g>
   <g id="line2d_46">
    <path d="M 423.561875 101.407069 
L 437.511875 101.407069 
" clip-path="url(#p0c355a0e81)" style="fill: none; stroke: #373737; stroke-linecap: square"/>
   </g>
   <g id="line2d_47">
    <path d="M 423.561875 61.342553 
L 437.511875 61.342553 
" clip-path="url(#p0c355a0e81)" style="fill: none; stroke: #373737; stroke-linecap: square"/>
   </g>
   <g id="patch_14">
    <path d="M 451.461875 92.261908 
L 479.361875 92.261908 
L 479.361875 68.745779 
L 451.461875 68.745779 
L 451.461875 92.261908 
z
" clip-path="url(#p0c355a0e81)" style="fill: #cf418a; stroke: #373737; stroke-linejoin: miter"/>
   </g>
   <g id="line2d_48">
    <path d="M 465.411875 92.261908 
L 465.411875 124.05223 
" clip-path="url(#p0c355a0e81)" style="fill: none; stroke: #373737"/>
   </g>
   <g id="line2d_49">
    <path d="M 465.411875 68.745779 
L 465.411875 49.149005 
" clip-path="url(#p0c355a0e81)" style="fill: none; stroke: #373737"/>
   </g>
   <g id="line2d_50">
    <path d="M 458.436875 124.05223 
L 472.386875 124.05223 
" clip-path="url(#p0c355a0e81)" style="fill: none; stroke: #373737; stroke-linecap: square"/>
   </g>
   <g id="line2d_51">
    <path d="M 458.436875 49.149005 
L 472.386875 49.149005 
" clip-path="url(#p0c355a0e81)" style="fill: none; stroke: #373737; stroke-linecap: square"/>
   </g>
   <g id="patch_15">
    <path d="M 486.336875 51.326424 
L 514.236875 51.326424 
L 514.236875 40.003843 
L 486.336875 40.003843 
L 486.336875 51.326424 
z
" clip-path="url(#p0c355a0e81)" style="fill: #65952f; stroke: #373737; stroke-linejoin: miter"/>
   </g>
   <g id="line2d_52">
    <path d="M 500.286875 51.326424 
L 500.286875 63.084488 
" clip-path="url(#p0c355a0e81)" style="fill: none; stroke: #373737"/>
   </g>
   <g id="line2d_53">
    <path d="M 500.286875 40.003843 
L 500.286875 23.019972 
" clip-path="url(#p0c355a0e81)" style="fill: none; stroke: #373737"/>
   </g>
   <g id="line2d_54">
    <path d="M 493.311875 63.084488 
L 507.261875 63.084488 
" clip-path="url(#p0c355a0e81)" style="fill: none; stroke: #373737; stroke-linecap: square"/>
   </g>
   <g id="line2d_55">
    <path d="M 493.311875 23.019972 
L 507.261875 23.019972 
" clip-path="url(#p0c355a0e81)" style="fill: none; stroke: #373737; stroke-linecap: square"/>
   </g>
   <g id="patch_16">
    <path d="M 521.211875 56.987714 
L 549.111875 56.987714 
L 549.111875 47.407069 
L 521.211875 47.407069 
L 521.211875 56.987714 
z
" clip-path="url(#p0c355a0e81)" style="fill: #ca9d1e; stroke: #373737; stroke-linejoin: miter"/>
   </g>
   <g id="line2d_56">
    <path d="M 535.161875 56.987714 
L 535.161875 68.310295 
" clip-path="url(#p0c355a0e81)" style="fill: none; stroke: #373737"/>
   </g>
   <g id="line2d_57">
    <path d="M 535.161875 47.407069 
L 535.161875 36.955456 
" clip-path="url(#p0c355a0e81)" style="fill: none; stroke: #373737"/>
   </g>
   <g id="line2d_58">
    <path d="M 528.186875 68.310295 
L 542.136875 68.310295 
" clip-path="url(#p0c355a0e81)" style="fill: none; stroke: #373737; stroke-linecap: square"/>
   </g>
   <g id="line2d_59">
    <path d="M 528.186875 36.955456 
L 542.136875 36.955456 
" clip-path="url(#p0c355a0e81)" style="fill: none; stroke: #373737; stroke-linecap: square"/>
   </g>
   <g id="patch_17">
    <path d="M 556.086875 59.600617 
L 583.986875 59.600617 
L 583.986875 43.923198 
L 556.086875 43.923198 
L 556.086875 59.600617 
z
" clip-path="url(#p0c355a0e81)" style="fill: #95712e; stroke: #373737; stroke-linejoin: miter"/>
   </g>
   <g id="line2d_60">
    <path d="M 570.036875 59.600617 
L 570.036875 80.503843 
" clip-path="url(#p0c355a0e81)" style="fill: none; stroke: #373737"/>
   </g>
   <g id="line2d_61">
    <path d="M 570.036875 43.923198 
L 570.036875 33.471585 
" clip-path="url(#p0c355a0e81)" style="fill: none; stroke: #373737"/>
   </g>
   <g id="line2d_62">
    <path d="M 563.061875 80.503843 
L 577.011875 80.503843 
" clip-path="url(#p0c355a0e81)" style="fill: none; stroke: #373737; stroke-linecap: square"/>
   </g>
   <g id="line2d_63">
    <path d="M 563.061875 33.471585 
L 577.011875 33.471585 
" clip-path="url(#p0c355a0e81)" style="fill: none; stroke: #373737; stroke-linecap: square"/>
   </g>
   <g id="patch_18">
    <path d="M 590.961875 73.536101 
L 618.861875 73.536101 
L 618.861875 45.665134 
L 590.961875 45.665134 
L 590.961875 73.536101 
z
" clip-path="url(#p0c355a0e81)" style="fill: #666666; stroke: #373737; stroke-linejoin: miter"/>
   </g>
   <g id="line2d_64">
    <path d="M 604.911875 73.536101 
L 604.911875 104.89094 
" clip-path="url(#p0c355a0e81)" style="fill: none; stroke: #373737"/>
   </g>
   <g id="line2d_65">
    <path d="M 604.911875 45.665134 
L 604.911875 16.05223 
" clip-path="url(#p0c355a0e81)" style="fill: none; stroke: #373737"/>
   </g>
   <g id="line2d_66">
    <path d="M 597.936875 104.89094 
L 611.886875 104.89094 
" clip-path="url(#p0c355a0e81)" style="fill: none; stroke: #373737; stroke-linecap: square"/>
   </g>
   <g id="line2d_67">
    <path d="M 597.936875 16.05223 
L 611.886875 16.05223 
" clip-path="url(#p0c355a0e81)" style="fill: none; stroke: #373737; stroke-linecap: square"/>
   </g>
   <g id="line2d_68">
    <path d="M 67.836875 64.826424 
L 95.736875 64.826424 
" clip-path="url(#p0c355a0e81)" style="fill: none; stroke: #373737"/>
   </g>
   <g id="line2d_69">
    <path d="M 102.711875 64.826424 
L 130.611875 64.826424 
" clip-path="url(#p0c355a0e81)" style="fill: none; stroke: #373737"/>
   </g>
   <g id="line2d_70">
    <path d="M 137.586875 49.149005 
L 165.486875 49.149005 
" clip-path="url(#p0c355a0e81)" style="fill: none; stroke: #373737"/>
   </g>
   <g id="line2d_71">
    <path d="M 172.461875 67.439327 
L 200.361875 67.439327 
" clip-path="url(#p0c355a0e81)" style="fill: none; stroke: #373737"/>
   </g>
   <g id="line2d_72">
    <path d="M 207.336875 60.471585 
L 235.236875 60.471585 
" clip-path="url(#p0c355a0e81)" style="fill: none; stroke: #373737"/>
   </g>
   <g id="line2d_73">
    <path d="M 242.211875 84.858682 
L 270.111875 84.858682 
" clip-path="url(#p0c355a0e81)" style="fill: none; stroke: #373737"/>
   </g>
   <g id="line2d_74">
    <path d="M 277.086875 66.568359 
L 304.986875 66.568359 
" clip-path="url(#p0c355a0e81)" style="fill: none; stroke: #373737"/>
   </g>
   <g id="line2d_75">
    <path d="M 311.961875 64.826424 
L 339.861875 64.826424 
" clip-path="url(#p0c355a0e81)" style="fill: none; stroke: #373737"/>
   </g>
   <g id="line2d_76">
    <path d="M 346.836875 70.05223 
L 374.736875 70.05223 
" clip-path="url(#p0c355a0e81)" style="fill: none; stroke: #373737"/>
   </g>
   <g id="line2d_77">
    <path d="M 381.711875 61.342553 
L 409.611875 61.342553 
" clip-path="url(#p0c355a0e81)" style="fill: none; stroke: #373737"/>
   </g>
   <g id="line2d_78">
    <path d="M 416.586875 77.019972 
L 444.486875 77.019972 
" clip-path="url(#p0c355a0e81)" style="fill: none; stroke: #373737"/>
   </g>
   <g id="line2d_79">
    <path d="M 451.461875 81.374811 
L 479.361875 81.374811 
" clip-path="url(#p0c355a0e81)" style="fill: none; stroke: #373737"/>
   </g>
   <g id="line2d_80">
    <path d="M 486.336875 46.536101 
L 514.236875 46.536101 
" clip-path="url(#p0c355a0e81)" style="fill: none; stroke: #373737"/>
   </g>
   <g id="line2d_81">
    <path d="M 521.211875 50.89094 
L 549.111875 50.89094 
" clip-path="url(#p0c355a0e81)" style="fill: none; stroke: #373737"/>
   </g>
   <g id="line2d_82">
    <path d="M 556.086875 47.407069 
L 583.986875 47.407069 
" clip-path="url(#p0c355a0e81)" style="fill: none; stroke: #373737"/>
   </g>
   <g id="line2d_83">
    <path d="M 590.961875 59.600617 
L 618.861875 59.600617 
" clip-path="url(#p0c355a0e81)" style="fill: none; stroke: #373737"/>
   </g>
   <g id="patch_19">
    <path d="M 64.349375 129.45223 
L 64.349375 10.65223 
" style="fill: none; stroke: #000000; stroke-linejoin: miter; stroke-linecap: square"/>
   </g>
   <g id="patch_20">
    <path d="M 622.349375 129.45223 
L 622.349375 10.65223 
" style="fill: none; stroke: #000000; stroke-linejoin: miter; stroke-linecap: square"/>
   </g>
   <g id="patch_21">
    <path d="M 64.349375 129.45223 
L 622.349375 129.45223 
" style="fill: none; stroke: #000000; stroke-linejoin: miter; stroke-linecap: square"/>
   </g>
   <g id="patch_22">
    <path d="M 64.349375 10.65223 
L 622.349375 10.65223 
" style="fill: none; stroke: #000000; stroke-linejoin: miter; stroke-linecap: square"/>
   </g>
   <g id="text_5">
    <!-- ** -->
    <g style="fill: #ff0000" transform="translate(145.309375 26.830214) scale(0.16 -0.16)">
     <defs>
      <path id="Arial-BoldMT-2a" d="M 766 2475 
L 294 2841 
Q 519 3094 763 3325 
Q 859 3419 884 3444 
Q 806 3456 438 3547 
Q 172 3613 88 3644 
L 272 4194 
Q 681 4028 1003 3828 
Q 928 4338 928 4659 
L 1484 4659 
Q 1484 4431 1400 3822 
Q 1463 3847 1669 3944 
Q 1950 4072 2188 4163 
L 2353 3597 
Q 2006 3519 1550 3444 
L 1925 3022 
Q 2038 2894 2103 2813 
L 1625 2497 
L 1203 3194 
Q 1013 2856 766 2475 
z
" transform="scale(0.015625)"/>
     </defs>
     <use xlink:href="#Arial-BoldMT-2a"/>
     <use xlink:href="#Arial-BoldMT-2a" x="38.916016"/>
    </g>
   </g>
   <g id="text_6">
    <!-- *** -->
    <g style="fill: #ff0000" transform="translate(246.820625 26.830214) scale(0.16 -0.16)">
     <use xlink:href="#Arial-BoldMT-2a"/>
     <use xlink:href="#Arial-BoldMT-2a" x="38.916016"/>
     <use xlink:href="#Arial-BoldMT-2a" x="77.832031"/>
    </g>
   </g>
   <g id="text_7">
    <!-- * -->
    <g style="fill: #ff0000" transform="translate(392.548125 26.830214) scale(0.16 -0.16)">
     <use xlink:href="#Arial-BoldMT-2a"/>
    </g>
   </g>
   <g id="text_8">
    <!-- *** -->
    <g style="fill: #ff0000" transform="translate(421.195625 26.830214) scale(0.16 -0.16)">
     <use xlink:href="#Arial-BoldMT-2a"/>
     <use xlink:href="#Arial-BoldMT-2a" x="38.916016"/>
     <use xlink:href="#Arial-BoldMT-2a" x="77.832031"/>
    </g>
   </g>
   <g id="text_9">
    <!-- *** -->
    <g style="fill: #ff0000" transform="translate(456.070625 26.830214) scale(0.16 -0.16)">
     <use xlink:href="#Arial-BoldMT-2a"/>
     <use xlink:href="#Arial-BoldMT-2a" x="38.916016"/>
     <use xlink:href="#Arial-BoldMT-2a" x="77.832031"/>
    </g>
   </g>
   <g id="text_10">
    <!-- *** -->
    <g style="fill: #ff0000" transform="translate(490.945625 26.830214) scale(0.16 -0.16)">
     <use xlink:href="#Arial-BoldMT-2a"/>
     <use xlink:href="#Arial-BoldMT-2a" x="38.916016"/>
     <use xlink:href="#Arial-BoldMT-2a" x="77.832031"/>
    </g>
   </g>
   <g id="text_11">
    <!-- ** -->
    <g style="fill: #ff0000" transform="translate(528.934375 26.830214) scale(0.16 -0.16)">
     <use xlink:href="#Arial-BoldMT-2a"/>
     <use xlink:href="#Arial-BoldMT-2a" x="38.916016"/>
    </g>
   </g>
   <g id="text_12">
    <!-- * -->
    <g style="fill: #ff0000" transform="translate(566.923125 26.830214) scale(0.16 -0.16)">
     <use xlink:href="#Arial-BoldMT-2a"/>
    </g>
   </g>
  </g>
  <g id="axes_2">
   <g id="patch_23">
    <path d="M 64.349375 260.13223 
L 622.349375 260.13223 
L 622.349375 141.33223 
L 64.349375 141.33223 
L 64.349375 260.13223 
z
" style="fill: none"/>
   </g>
   <g id="matplotlib.axis_3">
    <g id="xtick_1">
     <g id="line2d_84">
      <defs>
       <path id="m2c7b4cde2b" d="M 0 0 
L 0 3.5 
" style="stroke: #000000; stroke-width: 0.8"/>
      </defs>
      <g>
       <use xlink:href="#m2c7b4cde2b" x="81.786875" y="260.13223" style="stroke: #000000; stroke-width: 0.8"/>
      </g>
     </g>
     <g id="text_13">
      <!-- wildtype -->
      <g transform="translate(85.829375 324.93473) rotate(-90) scale(0.16 -0.16)">
       <defs>
        <path id="ArialMT-77" d="M 1034 0 
L 19 3319 
L 600 3319 
L 1128 1403 
L 1325 691 
Q 1338 744 1497 1375 
L 2025 3319 
L 2603 3319 
L 3100 1394 
L 3266 759 
L 3456 1400 
L 4025 3319 
L 4572 3319 
L 3534 0 
L 2950 0 
L 2422 1988 
L 2294 2553 
L 1622 0 
L 1034 0 
z
" transform="scale(0.015625)"/>
        <path id="ArialMT-69" d="M 425 3934 
L 425 4581 
L 988 4581 
L 988 3934 
L 425 3934 
z
M 425 0 
L 425 3319 
L 988 3319 
L 988 0 
L 425 0 
z
" transform="scale(0.015625)"/>
        <path id="ArialMT-6c" d="M 409 0 
L 409 4581 
L 972 4581 
L 972 0 
L 409 0 
z
" transform="scale(0.015625)"/>
        <path id="ArialMT-64" d="M 2575 0 
L 2575 419 
Q 2259 -75 1647 -75 
Q 1250 -75 917 144 
Q 584 363 401 755 
Q 219 1147 219 1656 
Q 219 2153 384 2558 
Q 550 2963 881 3178 
Q 1213 3394 1622 3394 
Q 1922 3394 2156 3267 
Q 2391 3141 2538 2938 
L 2538 4581 
L 3097 4581 
L 3097 0 
L 2575 0 
z
M 797 1656 
Q 797 1019 1065 703 
Q 1334 388 1700 388 
Q 2069 388 2326 689 
Q 2584 991 2584 1609 
Q 2584 2291 2321 2609 
Q 2059 2928 1675 2928 
Q 1300 2928 1048 2622 
Q 797 2316 797 1656 
z
" transform="scale(0.015625)"/>
        <path id="ArialMT-74" d="M 1650 503 
L 1731 6 
Q 1494 -44 1306 -44 
Q 1000 -44 831 53 
Q 663 150 594 308 
Q 525 466 525 972 
L 525 2881 
L 113 2881 
L 113 3319 
L 525 3319 
L 525 4141 
L 1084 4478 
L 1084 3319 
L 1650 3319 
L 1650 2881 
L 1084 2881 
L 1084 941 
Q 1084 700 1114 631 
Q 1144 563 1211 522 
Q 1278 481 1403 481 
Q 1497 481 1650 503 
z
" transform="scale(0.015625)"/>
        <path id="ArialMT-79" d="M 397 -1278 
L 334 -750 
Q 519 -800 656 -800 
Q 844 -800 956 -737 
Q 1069 -675 1141 -563 
Q 1194 -478 1313 -144 
Q 1328 -97 1363 -6 
L 103 3319 
L 709 3319 
L 1400 1397 
Q 1534 1031 1641 628 
Q 1738 1016 1872 1384 
L 2581 3319 
L 3144 3319 
L 1881 -56 
Q 1678 -603 1566 -809 
Q 1416 -1088 1222 -1217 
Q 1028 -1347 759 -1347 
Q 597 -1347 397 -1278 
z
" transform="scale(0.015625)"/>
        <path id="ArialMT-70" d="M 422 -1272 
L 422 3319 
L 934 3319 
L 934 2888 
Q 1116 3141 1344 3267 
Q 1572 3394 1897 3394 
Q 2322 3394 2647 3175 
Q 2972 2956 3137 2557 
Q 3303 2159 3303 1684 
Q 3303 1175 3120 767 
Q 2938 359 2589 142 
Q 2241 -75 1856 -75 
Q 1575 -75 1351 44 
Q 1128 163 984 344 
L 984 -1272 
L 422 -1272 
z
M 931 1641 
Q 931 1000 1190 694 
Q 1450 388 1819 388 
Q 2194 388 2461 705 
Q 2728 1022 2728 1688 
Q 2728 2322 2467 2637 
Q 2206 2953 1844 2953 
Q 1484 2953 1207 2617 
Q 931 2281 931 1641 
z
" transform="scale(0.015625)"/>
        <path id="ArialMT-65" d="M 2694 1069 
L 3275 997 
Q 3138 488 2766 206 
Q 2394 -75 1816 -75 
Q 1088 -75 661 373 
Q 234 822 234 1631 
Q 234 2469 665 2931 
Q 1097 3394 1784 3394 
Q 2450 3394 2872 2941 
Q 3294 2488 3294 1666 
Q 3294 1616 3291 1516 
L 816 1516 
Q 847 969 1125 678 
Q 1403 388 1819 388 
Q 2128 388 2347 550 
Q 2566 713 2694 1069 
z
M 847 1978 
L 2700 1978 
Q 2663 2397 2488 2606 
Q 2219 2931 1791 2931 
Q 1403 2931 1139 2672 
Q 875 2413 847 1978 
z
" transform="scale(0.015625)"/>
       </defs>
       <use xlink:href="#ArialMT-77"/>
       <use xlink:href="#ArialMT-69" x="72.216797"/>
       <use xlink:href="#ArialMT-6c" x="94.433594"/>
       <use xlink:href="#ArialMT-64" x="116.650391"/>
       <use xlink:href="#ArialMT-74" x="172.265625"/>
       <use xlink:href="#ArialMT-79" x="200.048828"/>
       <use xlink:href="#ArialMT-70" x="250.048828"/>
       <use xlink:href="#ArialMT-65" x="305.664062"/>
      </g>
     </g>
    </g>
    <g id="xtick_2">
     <g id="line2d_85">
      <g>
       <use xlink:href="#m2c7b4cde2b" x="116.661875" y="260.13223" style="stroke: #000000; stroke-width: 0.8"/>
      </g>
     </g>
     <g id="text_14">
      <!--  Mosaic region 3 -->
      <g transform="translate(120.728125 384.51473) rotate(-90) scale(0.16 -0.16)">
       <defs>
        <path id="ArialMT-20" transform="scale(0.015625)"/>
        <path id="ArialMT-4d" d="M 475 0 
L 475 4581 
L 1388 4581 
L 2472 1338 
Q 2622 884 2691 659 
Q 2769 909 2934 1394 
L 4031 4581 
L 4847 4581 
L 4847 0 
L 4263 0 
L 4263 3834 
L 2931 0 
L 2384 0 
L 1059 3900 
L 1059 0 
L 475 0 
z
" transform="scale(0.015625)"/>
        <path id="ArialMT-6f" d="M 213 1659 
Q 213 2581 725 3025 
Q 1153 3394 1769 3394 
Q 2453 3394 2887 2945 
Q 3322 2497 3322 1706 
Q 3322 1066 3130 698 
Q 2938 331 2570 128 
Q 2203 -75 1769 -75 
Q 1072 -75 642 372 
Q 213 819 213 1659 
z
M 791 1659 
Q 791 1022 1069 705 
Q 1347 388 1769 388 
Q 2188 388 2466 706 
Q 2744 1025 2744 1678 
Q 2744 2294 2464 2611 
Q 2184 2928 1769 2928 
Q 1347 2928 1069 2612 
Q 791 2297 791 1659 
z
" transform="scale(0.015625)"/>
        <path id="ArialMT-73" d="M 197 991 
L 753 1078 
Q 800 744 1014 566 
Q 1228 388 1613 388 
Q 2000 388 2187 545 
Q 2375 703 2375 916 
Q 2375 1106 2209 1216 
Q 2094 1291 1634 1406 
Q 1016 1563 777 1677 
Q 538 1791 414 1992 
Q 291 2194 291 2438 
Q 291 2659 392 2848 
Q 494 3038 669 3163 
Q 800 3259 1026 3326 
Q 1253 3394 1513 3394 
Q 1903 3394 2198 3281 
Q 2494 3169 2634 2976 
Q 2775 2784 2828 2463 
L 2278 2388 
Q 2241 2644 2061 2787 
Q 1881 2931 1553 2931 
Q 1166 2931 1000 2803 
Q 834 2675 834 2503 
Q 834 2394 903 2306 
Q 972 2216 1119 2156 
Q 1203 2125 1616 2013 
Q 2213 1853 2448 1751 
Q 2684 1650 2818 1456 
Q 2953 1263 2953 975 
Q 2953 694 2789 445 
Q 2625 197 2315 61 
Q 2006 -75 1616 -75 
Q 969 -75 630 194 
Q 291 463 197 991 
z
" transform="scale(0.015625)"/>
        <path id="ArialMT-61" d="M 2588 409 
Q 2275 144 1986 34 
Q 1697 -75 1366 -75 
Q 819 -75 525 192 
Q 231 459 231 875 
Q 231 1119 342 1320 
Q 453 1522 633 1644 
Q 813 1766 1038 1828 
Q 1203 1872 1538 1913 
Q 2219 1994 2541 2106 
Q 2544 2222 2544 2253 
Q 2544 2597 2384 2738 
Q 2169 2928 1744 2928 
Q 1347 2928 1158 2789 
Q 969 2650 878 2297 
L 328 2372 
Q 403 2725 575 2942 
Q 747 3159 1072 3276 
Q 1397 3394 1825 3394 
Q 2250 3394 2515 3294 
Q 2781 3194 2906 3042 
Q 3031 2891 3081 2659 
Q 3109 2516 3109 2141 
L 3109 1391 
Q 3109 606 3145 398 
Q 3181 191 3288 0 
L 2700 0 
Q 2613 175 2588 409 
z
M 2541 1666 
Q 2234 1541 1622 1453 
Q 1275 1403 1131 1340 
Q 988 1278 909 1158 
Q 831 1038 831 891 
Q 831 666 1001 516 
Q 1172 366 1500 366 
Q 1825 366 2078 508 
Q 2331 650 2450 897 
Q 2541 1088 2541 1459 
L 2541 1666 
z
" transform="scale(0.015625)"/>
        <path id="ArialMT-63" d="M 2588 1216 
L 3141 1144 
Q 3050 572 2676 248 
Q 2303 -75 1759 -75 
Q 1078 -75 664 370 
Q 250 816 250 1647 
Q 250 2184 428 2587 
Q 606 2991 970 3192 
Q 1334 3394 1763 3394 
Q 2303 3394 2647 3120 
Q 2991 2847 3088 2344 
L 2541 2259 
Q 2463 2594 2264 2762 
Q 2066 2931 1784 2931 
Q 1359 2931 1093 2626 
Q 828 2322 828 1663 
Q 828 994 1084 691 
Q 1341 388 1753 388 
Q 2084 388 2306 591 
Q 2528 794 2588 1216 
z
" transform="scale(0.015625)"/>
        <path id="ArialMT-72" d="M 416 0 
L 416 3319 
L 922 3319 
L 922 2816 
Q 1116 3169 1280 3281 
Q 1444 3394 1641 3394 
Q 1925 3394 2219 3213 
L 2025 2691 
Q 1819 2813 1613 2813 
Q 1428 2813 1281 2702 
Q 1134 2591 1072 2394 
Q 978 2094 978 1738 
L 978 0 
L 416 0 
z
" transform="scale(0.015625)"/>
        <path id="ArialMT-67" d="M 319 -275 
L 866 -356 
Q 900 -609 1056 -725 
Q 1266 -881 1628 -881 
Q 2019 -881 2231 -725 
Q 2444 -569 2519 -288 
Q 2563 -116 2559 434 
Q 2191 0 1641 0 
Q 956 0 581 494 
Q 206 988 206 1678 
Q 206 2153 378 2554 
Q 550 2956 876 3175 
Q 1203 3394 1644 3394 
Q 2231 3394 2613 2919 
L 2613 3319 
L 3131 3319 
L 3131 450 
Q 3131 -325 2973 -648 
Q 2816 -972 2473 -1159 
Q 2131 -1347 1631 -1347 
Q 1038 -1347 672 -1080 
Q 306 -813 319 -275 
z
M 784 1719 
Q 784 1066 1043 766 
Q 1303 466 1694 466 
Q 2081 466 2343 764 
Q 2606 1063 2606 1700 
Q 2606 2309 2336 2618 
Q 2066 2928 1684 2928 
Q 1309 2928 1046 2623 
Q 784 2319 784 1719 
z
" transform="scale(0.015625)"/>
        <path id="ArialMT-6e" d="M 422 0 
L 422 3319 
L 928 3319 
L 928 2847 
Q 1294 3394 1984 3394 
Q 2284 3394 2536 3286 
Q 2788 3178 2913 3003 
Q 3038 2828 3088 2588 
Q 3119 2431 3119 2041 
L 3119 0 
L 2556 0 
L 2556 2019 
Q 2556 2363 2490 2533 
Q 2425 2703 2258 2804 
Q 2091 2906 1866 2906 
Q 1506 2906 1245 2678 
Q 984 2450 984 1813 
L 984 0 
L 422 0 
z
" transform="scale(0.015625)"/>
        <path id="ArialMT-33" d="M 269 1209 
L 831 1284 
Q 928 806 1161 595 
Q 1394 384 1728 384 
Q 2125 384 2398 659 
Q 2672 934 2672 1341 
Q 2672 1728 2419 1979 
Q 2166 2231 1775 2231 
Q 1616 2231 1378 2169 
L 1441 2663 
Q 1497 2656 1531 2656 
Q 1891 2656 2178 2843 
Q 2466 3031 2466 3422 
Q 2466 3731 2256 3934 
Q 2047 4138 1716 4138 
Q 1388 4138 1169 3931 
Q 950 3725 888 3313 
L 325 3413 
Q 428 3978 793 4289 
Q 1159 4600 1703 4600 
Q 2078 4600 2393 4439 
Q 2709 4278 2876 4000 
Q 3044 3722 3044 3409 
Q 3044 3113 2884 2869 
Q 2725 2625 2413 2481 
Q 2819 2388 3044 2092 
Q 3269 1797 3269 1353 
Q 3269 753 2831 336 
Q 2394 -81 1725 -81 
Q 1122 -81 723 278 
Q 325 638 269 1209 
z
" transform="scale(0.015625)"/>
       </defs>
       <use xlink:href="#ArialMT-20"/>
       <use xlink:href="#ArialMT-4d" x="27.783203"/>
       <use xlink:href="#ArialMT-6f" x="111.083984"/>
       <use xlink:href="#ArialMT-73" x="166.699219"/>
       <use xlink:href="#ArialMT-61" x="216.699219"/>
       <use xlink:href="#ArialMT-69" x="272.314453"/>
       <use xlink:href="#ArialMT-63" x="294.53125"/>
       <use xlink:href="#ArialMT-20" x="344.53125"/>
       <use xlink:href="#ArialMT-72" x="372.314453"/>
       <use xlink:href="#ArialMT-65" x="405.615234"/>
       <use xlink:href="#ArialMT-67" x="461.230469"/>
       <use xlink:href="#ArialMT-69" x="516.845703"/>
       <use xlink:href="#ArialMT-6f" x="539.0625"/>
       <use xlink:href="#ArialMT-6e" x="594.677734"/>
       <use xlink:href="#ArialMT-20" x="650.292969"/>
       <use xlink:href="#ArialMT-33" x="678.076172"/>
      </g>
     </g>
    </g>
    <g id="xtick_3">
     <g id="line2d_86">
      <g>
       <use xlink:href="#m2c7b4cde2b" x="151.536875" y="260.13223" style="stroke: #000000; stroke-width: 0.8"/>
      </g>
     </g>
     <g id="text_15">
      <!--  Mosaic region 2 -->
      <g transform="translate(155.603125 384.51473) rotate(-90) scale(0.16 -0.16)">
       <defs>
        <path id="ArialMT-32" d="M 3222 541 
L 3222 0 
L 194 0 
Q 188 203 259 391 
Q 375 700 629 1000 
Q 884 1300 1366 1694 
Q 2113 2306 2375 2664 
Q 2638 3022 2638 3341 
Q 2638 3675 2398 3904 
Q 2159 4134 1775 4134 
Q 1369 4134 1125 3890 
Q 881 3647 878 3216 
L 300 3275 
Q 359 3922 746 4261 
Q 1134 4600 1788 4600 
Q 2447 4600 2831 4234 
Q 3216 3869 3216 3328 
Q 3216 3053 3103 2787 
Q 2991 2522 2730 2228 
Q 2469 1934 1863 1422 
Q 1356 997 1212 845 
Q 1069 694 975 541 
L 3222 541 
z
" transform="scale(0.015625)"/>
       </defs>
       <use xlink:href="#ArialMT-20"/>
       <use xlink:href="#ArialMT-4d" x="27.783203"/>
       <use xlink:href="#ArialMT-6f" x="111.083984"/>
       <use xlink:href="#ArialMT-73" x="166.699219"/>
       <use xlink:href="#ArialMT-61" x="216.699219"/>
       <use xlink:href="#ArialMT-69" x="272.314453"/>
       <use xlink:href="#ArialMT-63" x="294.53125"/>
       <use xlink:href="#ArialMT-20" x="344.53125"/>
       <use xlink:href="#ArialMT-72" x="372.314453"/>
       <use xlink:href="#ArialMT-65" x="405.615234"/>
       <use xlink:href="#ArialMT-67" x="461.230469"/>
       <use xlink:href="#ArialMT-69" x="516.845703"/>
       <use xlink:href="#ArialMT-6f" x="539.0625"/>
       <use xlink:href="#ArialMT-6e" x="594.677734"/>
       <use xlink:href="#ArialMT-20" x="650.292969"/>
       <use xlink:href="#ArialMT-32" x="678.076172"/>
      </g>
     </g>
    </g>
    <g id="xtick_4">
     <g id="line2d_87">
      <g>
       <use xlink:href="#m2c7b4cde2b" x="186.411875" y="260.13223" style="stroke: #000000; stroke-width: 0.8"/>
      </g>
     </g>
     <g id="text_16">
      <!--  Mixed origin  -->
      <g transform="translate(190.454375 362.27473) rotate(-90) scale(0.16 -0.16)">
       <defs>
        <path id="ArialMT-78" d="M 47 0 
L 1259 1725 
L 138 3319 
L 841 3319 
L 1350 2541 
Q 1494 2319 1581 2169 
Q 1719 2375 1834 2534 
L 2394 3319 
L 3066 3319 
L 1919 1756 
L 3153 0 
L 2463 0 
L 1781 1031 
L 1600 1309 
L 728 0 
L 47 0 
z
" transform="scale(0.015625)"/>
       </defs>
       <use xlink:href="#ArialMT-20"/>
       <use xlink:href="#ArialMT-4d" x="27.783203"/>
       <use xlink:href="#ArialMT-69" x="111.083984"/>
       <use xlink:href="#ArialMT-78" x="133.300781"/>
       <use xlink:href="#ArialMT-65" x="183.300781"/>
       <use xlink:href="#ArialMT-64" x="238.916016"/>
       <use xlink:href="#ArialMT-20" x="294.53125"/>
       <use xlink:href="#ArialMT-6f" x="322.314453"/>
       <use xlink:href="#ArialMT-72" x="377.929688"/>
       <use xlink:href="#ArialMT-69" x="411.230469"/>
       <use xlink:href="#ArialMT-67" x="433.447266"/>
       <use xlink:href="#ArialMT-69" x="489.0625"/>
       <use xlink:href="#ArialMT-6e" x="511.279297"/>
       <use xlink:href="#ArialMT-20" x="566.894531"/>
      </g>
     </g>
    </g>
    <g id="xtick_5">
     <g id="line2d_88">
      <g>
       <use xlink:href="#m2c7b4cde2b" x="221.286875" y="260.13223" style="stroke: #000000; stroke-width: 0.8"/>
      </g>
     </g>
     <g id="text_17">
      <!--  Mosaic beer  -->
      <g transform="translate(225.423125 363.16473) rotate(-90) scale(0.16 -0.16)">
       <defs>
        <path id="ArialMT-62" d="M 941 0 
L 419 0 
L 419 4581 
L 981 4581 
L 981 2947 
Q 1338 3394 1891 3394 
Q 2197 3394 2470 3270 
Q 2744 3147 2920 2923 
Q 3097 2700 3197 2384 
Q 3297 2069 3297 1709 
Q 3297 856 2875 390 
Q 2453 -75 1863 -75 
Q 1275 -75 941 416 
L 941 0 
z
M 934 1684 
Q 934 1088 1097 822 
Q 1363 388 1816 388 
Q 2184 388 2453 708 
Q 2722 1028 2722 1663 
Q 2722 2313 2464 2622 
Q 2206 2931 1841 2931 
Q 1472 2931 1203 2611 
Q 934 2291 934 1684 
z
" transform="scale(0.015625)"/>
       </defs>
       <use xlink:href="#ArialMT-20"/>
       <use xlink:href="#ArialMT-4d" x="27.783203"/>
       <use xlink:href="#ArialMT-6f" x="111.083984"/>
       <use xlink:href="#ArialMT-73" x="166.699219"/>
       <use xlink:href="#ArialMT-61" x="216.699219"/>
       <use xlink:href="#ArialMT-69" x="272.314453"/>
       <use xlink:href="#ArialMT-63" x="294.53125"/>
       <use xlink:href="#ArialMT-20" x="344.53125"/>
       <use xlink:href="#ArialMT-62" x="372.314453"/>
       <use xlink:href="#ArialMT-65" x="427.929688"/>
       <use xlink:href="#ArialMT-65" x="483.544922"/>
       <use xlink:href="#ArialMT-72" x="539.160156"/>
       <use xlink:href="#ArialMT-20" x="572.460938"/>
      </g>
     </g>
    </g>
    <g id="xtick_6">
     <g id="line2d_89">
      <g>
       <use xlink:href="#m2c7b4cde2b" x="256.161875" y="260.13223" style="stroke: #000000; stroke-width: 0.8"/>
      </g>
     </g>
     <g id="text_18">
      <!--  French dairy  -->
      <g transform="translate(260.204375 364.93723) rotate(-90) scale(0.16 -0.16)">
       <defs>
        <path id="ArialMT-46" d="M 525 0 
L 525 4581 
L 3616 4581 
L 3616 4041 
L 1131 4041 
L 1131 2622 
L 3281 2622 
L 3281 2081 
L 1131 2081 
L 1131 0 
L 525 0 
z
" transform="scale(0.015625)"/>
        <path id="ArialMT-68" d="M 422 0 
L 422 4581 
L 984 4581 
L 984 2938 
Q 1378 3394 1978 3394 
Q 2347 3394 2619 3248 
Q 2891 3103 3008 2847 
Q 3125 2591 3125 2103 
L 3125 0 
L 2563 0 
L 2563 2103 
Q 2563 2525 2380 2717 
Q 2197 2909 1863 2909 
Q 1613 2909 1392 2779 
Q 1172 2650 1078 2428 
Q 984 2206 984 1816 
L 984 0 
L 422 0 
z
" transform="scale(0.015625)"/>
       </defs>
       <use xlink:href="#ArialMT-20"/>
       <use xlink:href="#ArialMT-46" x="27.783203"/>
       <use xlink:href="#ArialMT-72" x="88.867188"/>
       <use xlink:href="#ArialMT-65" x="122.167969"/>
       <use xlink:href="#ArialMT-6e" x="177.783203"/>
       <use xlink:href="#ArialMT-63" x="233.398438"/>
       <use xlink:href="#ArialMT-68" x="283.398438"/>
       <use xlink:href="#ArialMT-20" x="339.013672"/>
       <use xlink:href="#ArialMT-64" x="366.796875"/>
       <use xlink:href="#ArialMT-61" x="422.412109"/>
       <use xlink:href="#ArialMT-69" x="478.027344"/>
       <use xlink:href="#ArialMT-72" x="500.244141"/>
       <use xlink:href="#ArialMT-79" x="533.544922"/>
       <use xlink:href="#ArialMT-20" x="583.544922"/>
      </g>
     </g>
    </g>
    <g id="xtick_7">
     <g id="line2d_90">
      <g>
       <use xlink:href="#m2c7b4cde2b" x="291.036875" y="260.13223" style="stroke: #000000; stroke-width: 0.8"/>
      </g>
     </g>
     <g id="text_19">
      <!--  Brazilian bioethanol  -->
      <g transform="translate(295.173125 415.66223) rotate(-90) scale(0.16 -0.16)">
       <defs>
        <path id="ArialMT-42" d="M 469 0 
L 469 4581 
L 2188 4581 
Q 2713 4581 3030 4442 
Q 3347 4303 3526 4014 
Q 3706 3725 3706 3409 
Q 3706 3116 3547 2856 
Q 3388 2597 3066 2438 
Q 3481 2316 3704 2022 
Q 3928 1728 3928 1328 
Q 3928 1006 3792 729 
Q 3656 453 3456 303 
Q 3256 153 2954 76 
Q 2653 0 2216 0 
L 469 0 
z
M 1075 2656 
L 2066 2656 
Q 2469 2656 2644 2709 
Q 2875 2778 2992 2937 
Q 3109 3097 3109 3338 
Q 3109 3566 3000 3739 
Q 2891 3913 2687 3977 
Q 2484 4041 1991 4041 
L 1075 4041 
L 1075 2656 
z
M 1075 541 
L 2216 541 
Q 2509 541 2628 563 
Q 2838 600 2978 687 
Q 3119 775 3209 942 
Q 3300 1109 3300 1328 
Q 3300 1584 3169 1773 
Q 3038 1963 2805 2039 
Q 2572 2116 2134 2116 
L 1075 2116 
L 1075 541 
z
" transform="scale(0.015625)"/>
        <path id="ArialMT-7a" d="M 125 0 
L 125 456 
L 2238 2881 
Q 1878 2863 1603 2863 
L 250 2863 
L 250 3319 
L 2963 3319 
L 2963 2947 
L 1166 841 
L 819 456 
Q 1197 484 1528 484 
L 3063 484 
L 3063 0 
L 125 0 
z
" transform="scale(0.015625)"/>
       </defs>
       <use xlink:href="#ArialMT-20"/>
       <use xlink:href="#ArialMT-42" x="27.783203"/>
       <use xlink:href="#ArialMT-72" x="94.482422"/>
       <use xlink:href="#ArialMT-61" x="127.783203"/>
       <use xlink:href="#ArialMT-7a" x="183.398438"/>
       <use xlink:href="#ArialMT-69" x="233.398438"/>
       <use xlink:href="#ArialMT-6c" x="255.615234"/>
       <use xlink:href="#ArialMT-69" x="277.832031"/>
       <use xlink:href="#ArialMT-61" x="300.048828"/>
       <use xlink:href="#ArialMT-6e" x="355.664062"/>
       <use xlink:href="#ArialMT-20" x="411.279297"/>
       <use xlink:href="#ArialMT-62" x="439.0625"/>
       <use xlink:href="#ArialMT-69" x="494.677734"/>
       <use xlink:href="#ArialMT-6f" x="516.894531"/>
       <use xlink:href="#ArialMT-65" x="572.509766"/>
       <use xlink:href="#ArialMT-74" x="628.125"/>
       <use xlink:href="#ArialMT-68" x="655.908203"/>
       <use xlink:href="#ArialMT-61" x="711.523438"/>
       <use xlink:href="#ArialMT-6e" x="767.138672"/>
       <use xlink:href="#ArialMT-6f" x="822.753906"/>
       <use xlink:href="#ArialMT-6c" x="878.369141"/>
       <use xlink:href="#ArialMT-20" x="900.585938"/>
      </g>
     </g>
    </g>
    <g id="xtick_8">
     <g id="line2d_91">
      <g>
       <use xlink:href="#m2c7b4cde2b" x="325.911875" y="260.13223" style="stroke: #000000; stroke-width: 0.8"/>
      </g>
     </g>
     <g id="text_20">
      <!--  Asian fermentation  -->
      <g transform="translate(330.048125 408.53973) rotate(-90) scale(0.16 -0.16)">
       <defs>
        <path id="ArialMT-41" d="M -9 0 
L 1750 4581 
L 2403 4581 
L 4278 0 
L 3588 0 
L 3053 1388 
L 1138 1388 
L 634 0 
L -9 0 
z
M 1313 1881 
L 2866 1881 
L 2388 3150 
Q 2169 3728 2063 4100 
Q 1975 3659 1816 3225 
L 1313 1881 
z
" transform="scale(0.015625)"/>
        <path id="ArialMT-66" d="M 556 0 
L 556 2881 
L 59 2881 
L 59 3319 
L 556 3319 
L 556 3672 
Q 556 4006 616 4169 
Q 697 4388 901 4523 
Q 1106 4659 1475 4659 
Q 1713 4659 2000 4603 
L 1916 4113 
Q 1741 4144 1584 4144 
Q 1328 4144 1222 4034 
Q 1116 3925 1116 3625 
L 1116 3319 
L 1763 3319 
L 1763 2881 
L 1116 2881 
L 1116 0 
L 556 0 
z
" transform="scale(0.015625)"/>
        <path id="ArialMT-6d" d="M 422 0 
L 422 3319 
L 925 3319 
L 925 2853 
Q 1081 3097 1340 3245 
Q 1600 3394 1931 3394 
Q 2300 3394 2536 3241 
Q 2772 3088 2869 2813 
Q 3263 3394 3894 3394 
Q 4388 3394 4653 3120 
Q 4919 2847 4919 2278 
L 4919 0 
L 4359 0 
L 4359 2091 
Q 4359 2428 4304 2576 
Q 4250 2725 4106 2815 
Q 3963 2906 3769 2906 
Q 3419 2906 3187 2673 
Q 2956 2441 2956 1928 
L 2956 0 
L 2394 0 
L 2394 2156 
Q 2394 2531 2256 2718 
Q 2119 2906 1806 2906 
Q 1569 2906 1367 2781 
Q 1166 2656 1075 2415 
Q 984 2175 984 1722 
L 984 0 
L 422 0 
z
" transform="scale(0.015625)"/>
       </defs>
       <use xlink:href="#ArialMT-20"/>
       <use xlink:href="#ArialMT-41" x="22.283203"/>
       <use xlink:href="#ArialMT-73" x="88.982422"/>
       <use xlink:href="#ArialMT-69" x="138.982422"/>
       <use xlink:href="#ArialMT-61" x="161.199219"/>
       <use xlink:href="#ArialMT-6e" x="216.814453"/>
       <use xlink:href="#ArialMT-20" x="272.429688"/>
       <use xlink:href="#ArialMT-66" x="300.212891"/>
       <use xlink:href="#ArialMT-65" x="327.996094"/>
       <use xlink:href="#ArialMT-72" x="383.611328"/>
       <use xlink:href="#ArialMT-6d" x="416.912109"/>
       <use xlink:href="#ArialMT-65" x="500.212891"/>
       <use xlink:href="#ArialMT-6e" x="555.828125"/>
       <use xlink:href="#ArialMT-74" x="611.443359"/>
       <use xlink:href="#ArialMT-61" x="639.226562"/>
       <use xlink:href="#ArialMT-74" x="694.841797"/>
       <use xlink:href="#ArialMT-69" x="722.625"/>
       <use xlink:href="#ArialMT-6f" x="744.841797"/>
       <use xlink:href="#ArialMT-6e" x="800.457031"/>
       <use xlink:href="#ArialMT-20" x="856.072266"/>
      </g>
     </g>
    </g>
    <g id="xtick_9">
     <g id="line2d_92">
      <g>
       <use xlink:href="#m2c7b4cde2b" x="360.786875" y="260.13223" style="stroke: #000000; stroke-width: 0.8"/>
      </g>
     </g>
     <g id="text_21">
      <!--  Sake  -->
      <g transform="translate(364.923125 312.48973) rotate(-90) scale(0.16 -0.16)">
       <defs>
        <path id="ArialMT-53" d="M 288 1472 
L 859 1522 
Q 900 1178 1048 958 
Q 1197 738 1509 602 
Q 1822 466 2213 466 
Q 2559 466 2825 569 
Q 3091 672 3220 851 
Q 3350 1031 3350 1244 
Q 3350 1459 3225 1620 
Q 3100 1781 2813 1891 
Q 2628 1963 1997 2114 
Q 1366 2266 1113 2400 
Q 784 2572 623 2826 
Q 463 3081 463 3397 
Q 463 3744 659 4045 
Q 856 4347 1234 4503 
Q 1613 4659 2075 4659 
Q 2584 4659 2973 4495 
Q 3363 4331 3572 4012 
Q 3781 3694 3797 3291 
L 3216 3247 
Q 3169 3681 2898 3903 
Q 2628 4125 2100 4125 
Q 1550 4125 1298 3923 
Q 1047 3722 1047 3438 
Q 1047 3191 1225 3031 
Q 1400 2872 2139 2705 
Q 2878 2538 3153 2413 
Q 3553 2228 3743 1945 
Q 3934 1663 3934 1294 
Q 3934 928 3725 604 
Q 3516 281 3123 101 
Q 2731 -78 2241 -78 
Q 1619 -78 1198 103 
Q 778 284 539 648 
Q 300 1013 288 1472 
z
" transform="scale(0.015625)"/>
        <path id="ArialMT-6b" d="M 425 0 
L 425 4581 
L 988 4581 
L 988 1969 
L 2319 3319 
L 3047 3319 
L 1778 2088 
L 3175 0 
L 2481 0 
L 1384 1697 
L 988 1316 
L 988 0 
L 425 0 
z
" transform="scale(0.015625)"/>
       </defs>
       <use xlink:href="#ArialMT-20"/>
       <use xlink:href="#ArialMT-53" x="27.783203"/>
       <use xlink:href="#ArialMT-61" x="94.482422"/>
       <use xlink:href="#ArialMT-6b" x="150.097656"/>
       <use xlink:href="#ArialMT-65" x="200.097656"/>
       <use xlink:href="#ArialMT-20" x="255.712891"/>
      </g>
     </g>
    </g>
    <g id="xtick_10">
     <g id="line2d_93">
      <g>
       <use xlink:href="#m2c7b4cde2b" x="395.661875" y="260.13223" style="stroke: #000000; stroke-width: 0.8"/>
      </g>
     </g>
     <g id="text_22">
      <!--  Alpechin  -->
      <g transform="translate(399.798125 336.51473) rotate(-90) scale(0.16 -0.16)">
       <use xlink:href="#ArialMT-20"/>
       <use xlink:href="#ArialMT-41" x="22.283203"/>
       <use xlink:href="#ArialMT-6c" x="88.982422"/>
       <use xlink:href="#ArialMT-70" x="111.199219"/>
       <use xlink:href="#ArialMT-65" x="166.814453"/>
       <use xlink:href="#ArialMT-63" x="222.429688"/>
       <use xlink:href="#ArialMT-68" x="272.429688"/>
       <use xlink:href="#ArialMT-69" x="328.044922"/>
       <use xlink:href="#ArialMT-6e" x="350.261719"/>
       <use xlink:href="#ArialMT-20" x="405.876953"/>
      </g>
     </g>
    </g>
    <g id="xtick_11">
     <g id="line2d_94">
      <g>
       <use xlink:href="#m2c7b4cde2b" x="430.536875" y="260.13223" style="stroke: #000000; stroke-width: 0.8"/>
      </g>
     </g>
     <g id="text_23">
      <!--  African palm wine  -->
      <g transform="translate(434.770625 401.40973) rotate(-90) scale(0.16 -0.16)">
       <use xlink:href="#ArialMT-20"/>
       <use xlink:href="#ArialMT-41" x="22.283203"/>
       <use xlink:href="#ArialMT-66" x="88.982422"/>
       <use xlink:href="#ArialMT-72" x="116.765625"/>
       <use xlink:href="#ArialMT-69" x="150.066406"/>
       <use xlink:href="#ArialMT-63" x="172.283203"/>
       <use xlink:href="#ArialMT-61" x="222.283203"/>
       <use xlink:href="#ArialMT-6e" x="277.898438"/>
       <use xlink:href="#ArialMT-20" x="333.513672"/>
       <use xlink:href="#ArialMT-70" x="361.296875"/>
       <use xlink:href="#ArialMT-61" x="416.912109"/>
       <use xlink:href="#ArialMT-6c" x="472.527344"/>
       <use xlink:href="#ArialMT-6d" x="494.744141"/>
       <use xlink:href="#ArialMT-20" x="578.044922"/>
       <use xlink:href="#ArialMT-77" x="605.828125"/>
       <use xlink:href="#ArialMT-69" x="678.044922"/>
       <use xlink:href="#ArialMT-6e" x="700.261719"/>
       <use xlink:href="#ArialMT-65" x="755.876953"/>
       <use xlink:href="#ArialMT-20" x="811.492188"/>
      </g>
     </g>
    </g>
    <g id="xtick_12">
     <g id="line2d_95">
      <g>
       <use xlink:href="#m2c7b4cde2b" x="465.411875" y="260.13223" style="stroke: #000000; stroke-width: 0.8"/>
      </g>
     </g>
     <g id="text_24">
      <!--  French Guiana human  -->
      <g transform="translate(469.548125 435.21223) rotate(-90) scale(0.16 -0.16)">
       <defs>
        <path id="ArialMT-47" d="M 2638 1797 
L 2638 2334 
L 4578 2338 
L 4578 638 
Q 4131 281 3656 101 
Q 3181 -78 2681 -78 
Q 2006 -78 1454 211 
Q 903 500 622 1047 
Q 341 1594 341 2269 
Q 341 2938 620 3517 
Q 900 4097 1425 4378 
Q 1950 4659 2634 4659 
Q 3131 4659 3532 4498 
Q 3934 4338 4162 4050 
Q 4391 3763 4509 3300 
L 3963 3150 
Q 3859 3500 3706 3700 
Q 3553 3900 3268 4020 
Q 2984 4141 2638 4141 
Q 2222 4141 1919 4014 
Q 1616 3888 1430 3681 
Q 1244 3475 1141 3228 
Q 966 2803 966 2306 
Q 966 1694 1177 1281 
Q 1388 869 1791 669 
Q 2194 469 2647 469 
Q 3041 469 3416 620 
Q 3791 772 3984 944 
L 3984 1797 
L 2638 1797 
z
" transform="scale(0.015625)"/>
        <path id="ArialMT-75" d="M 2597 0 
L 2597 488 
Q 2209 -75 1544 -75 
Q 1250 -75 995 37 
Q 741 150 617 320 
Q 494 491 444 738 
Q 409 903 409 1263 
L 409 3319 
L 972 3319 
L 972 1478 
Q 972 1038 1006 884 
Q 1059 663 1231 536 
Q 1403 409 1656 409 
Q 1909 409 2131 539 
Q 2353 669 2445 892 
Q 2538 1116 2538 1541 
L 2538 3319 
L 3100 3319 
L 3100 0 
L 2597 0 
z
" transform="scale(0.015625)"/>
       </defs>
       <use xlink:href="#ArialMT-20"/>
       <use xlink:href="#ArialMT-46" x="27.783203"/>
       <use xlink:href="#ArialMT-72" x="88.867188"/>
       <use xlink:href="#ArialMT-65" x="122.167969"/>
       <use xlink:href="#ArialMT-6e" x="177.783203"/>
       <use xlink:href="#ArialMT-63" x="233.398438"/>
       <use xlink:href="#ArialMT-68" x="283.398438"/>
       <use xlink:href="#ArialMT-20" x="339.013672"/>
       <use xlink:href="#ArialMT-47" x="366.796875"/>
       <use xlink:href="#ArialMT-75" x="444.580078"/>
       <use xlink:href="#ArialMT-69" x="500.195312"/>
       <use xlink:href="#ArialMT-61" x="522.412109"/>
       <use xlink:href="#ArialMT-6e" x="578.027344"/>
       <use xlink:href="#ArialMT-61" x="633.642578"/>
       <use xlink:href="#ArialMT-20" x="689.257812"/>
       <use xlink:href="#ArialMT-68" x="717.041016"/>
       <use xlink:href="#ArialMT-75" x="772.65625"/>
       <use xlink:href="#ArialMT-6d" x="828.271484"/>
       <use xlink:href="#ArialMT-61" x="911.572266"/>
       <use xlink:href="#ArialMT-6e" x="967.1875"/>
       <use xlink:href="#ArialMT-20" x="1022.802734"/>
      </g>
     </g>
    </g>
    <g id="xtick_13">
     <g id="line2d_96">
      <g>
       <use xlink:href="#m2c7b4cde2b" x="500.286875" y="260.13223" style="stroke: #000000; stroke-width: 0.8"/>
      </g>
     </g>
     <g id="text_25">
      <!--  Wine/European (subclade 4) -->
      <g transform="translate(504.426875 474.34473) rotate(-90) scale(0.16 -0.16)">
       <defs>
        <path id="ArialMT-57" d="M 1294 0 
L 78 4581 
L 700 4581 
L 1397 1578 
Q 1509 1106 1591 641 
Q 1766 1375 1797 1488 
L 2669 4581 
L 3400 4581 
L 4056 2263 
Q 4303 1400 4413 641 
Q 4500 1075 4641 1638 
L 5359 4581 
L 5969 4581 
L 4713 0 
L 4128 0 
L 3163 3491 
Q 3041 3928 3019 4028 
Q 2947 3713 2884 3491 
L 1913 0 
L 1294 0 
z
" transform="scale(0.015625)"/>
        <path id="ArialMT-2f" d="M 0 -78 
L 1328 4659 
L 1778 4659 
L 453 -78 
L 0 -78 
z
" transform="scale(0.015625)"/>
        <path id="ArialMT-45" d="M 506 0 
L 506 4581 
L 3819 4581 
L 3819 4041 
L 1113 4041 
L 1113 2638 
L 3647 2638 
L 3647 2100 
L 1113 2100 
L 1113 541 
L 3925 541 
L 3925 0 
L 506 0 
z
" transform="scale(0.015625)"/>
        <path id="ArialMT-28" d="M 1497 -1347 
Q 1031 -759 709 28 
Q 388 816 388 1659 
Q 388 2403 628 3084 
Q 909 3875 1497 4659 
L 1900 4659 
Q 1522 4009 1400 3731 
Q 1209 3300 1100 2831 
Q 966 2247 966 1656 
Q 966 153 1900 -1347 
L 1497 -1347 
z
" transform="scale(0.015625)"/>
        <path id="ArialMT-34" d="M 2069 0 
L 2069 1097 
L 81 1097 
L 81 1613 
L 2172 4581 
L 2631 4581 
L 2631 1613 
L 3250 1613 
L 3250 1097 
L 2631 1097 
L 2631 0 
L 2069 0 
z
M 2069 1613 
L 2069 3678 
L 634 1613 
L 2069 1613 
z
" transform="scale(0.015625)"/>
        <path id="ArialMT-29" d="M 791 -1347 
L 388 -1347 
Q 1322 153 1322 1656 
Q 1322 2244 1188 2822 
Q 1081 3291 891 3722 
Q 769 4003 388 4659 
L 791 4659 
Q 1378 3875 1659 3084 
Q 1900 2403 1900 1659 
Q 1900 816 1576 28 
Q 1253 -759 791 -1347 
z
" transform="scale(0.015625)"/>
       </defs>
       <use xlink:href="#ArialMT-20"/>
       <use xlink:href="#ArialMT-57" x="27.783203"/>
       <use xlink:href="#ArialMT-69" x="122.167969"/>
       <use xlink:href="#ArialMT-6e" x="144.384766"/>
       <use xlink:href="#ArialMT-65" x="200"/>
       <use xlink:href="#ArialMT-2f" x="255.615234"/>
       <use xlink:href="#ArialMT-45" x="283.398438"/>
       <use xlink:href="#ArialMT-75" x="350.097656"/>
       <use xlink:href="#ArialMT-72" x="405.712891"/>
       <use xlink:href="#ArialMT-6f" x="439.013672"/>
       <use xlink:href="#ArialMT-70" x="494.628906"/>
       <use xlink:href="#ArialMT-65" x="550.244141"/>
       <use xlink:href="#ArialMT-61" x="605.859375"/>
       <use xlink:href="#ArialMT-6e" x="661.474609"/>
       <use xlink:href="#ArialMT-20" x="717.089844"/>
       <use xlink:href="#ArialMT-28" x="744.873047"/>
       <use xlink:href="#ArialMT-73" x="778.173828"/>
       <use xlink:href="#ArialMT-75" x="828.173828"/>
       <use xlink:href="#ArialMT-62" x="883.789062"/>
       <use xlink:href="#ArialMT-63" x="939.404297"/>
       <use xlink:href="#ArialMT-6c" x="989.404297"/>
       <use xlink:href="#ArialMT-61" x="1011.621094"/>
       <use xlink:href="#ArialMT-64" x="1067.236328"/>
       <use xlink:href="#ArialMT-65" x="1122.851562"/>
       <use xlink:href="#ArialMT-20" x="1178.466797"/>
       <use xlink:href="#ArialMT-34" x="1206.25"/>
       <use xlink:href="#ArialMT-29" x="1261.865234"/>
      </g>
     </g>
    </g>
    <g id="xtick_14">
     <g id="line2d_97">
      <g>
       <use xlink:href="#m2c7b4cde2b" x="535.161875" y="260.13223" style="stroke: #000000; stroke-width: 0.8"/>
      </g>
     </g>
     <g id="text_26">
      <!--  Wine/European (subclade 3) -->
      <g transform="translate(539.301875 474.34473) rotate(-90) scale(0.16 -0.16)">
       <use xlink:href="#ArialMT-20"/>
       <use xlink:href="#ArialMT-57" x="27.783203"/>
       <use xlink:href="#ArialMT-69" x="122.167969"/>
       <use xlink:href="#ArialMT-6e" x="144.384766"/>
       <use xlink:href="#ArialMT-65" x="200"/>
       <use xlink:href="#ArialMT-2f" x="255.615234"/>
       <use xlink:href="#ArialMT-45" x="283.398438"/>
       <use xlink:href="#ArialMT-75" x="350.097656"/>
       <use xlink:href="#ArialMT-72" x="405.712891"/>
       <use xlink:href="#ArialMT-6f" x="439.013672"/>
       <use xlink:href="#ArialMT-70" x="494.628906"/>
       <use xlink:href="#ArialMT-65" x="550.244141"/>
       <use xlink:href="#ArialMT-61" x="605.859375"/>
       <use xlink:href="#ArialMT-6e" x="661.474609"/>
       <use xlink:href="#ArialMT-20" x="717.089844"/>
       <use xlink:href="#ArialMT-28" x="744.873047"/>
       <use xlink:href="#ArialMT-73" x="778.173828"/>
       <use xlink:href="#ArialMT-75" x="828.173828"/>
       <use xlink:href="#ArialMT-62" x="883.789062"/>
       <use xlink:href="#ArialMT-63" x="939.404297"/>
       <use xlink:href="#ArialMT-6c" x="989.404297"/>
       <use xlink:href="#ArialMT-61" x="1011.621094"/>
       <use xlink:href="#ArialMT-64" x="1067.236328"/>
       <use xlink:href="#ArialMT-65" x="1122.851562"/>
       <use xlink:href="#ArialMT-20" x="1178.466797"/>
       <use xlink:href="#ArialMT-33" x="1206.25"/>
       <use xlink:href="#ArialMT-29" x="1261.865234"/>
      </g>
     </g>
    </g>
    <g id="xtick_15">
     <g id="line2d_98">
      <g>
       <use xlink:href="#m2c7b4cde2b" x="570.036875" y="260.13223" style="stroke: #000000; stroke-width: 0.8"/>
      </g>
     </g>
     <g id="text_27">
      <!--  Wine/European (subclade 1) -->
      <g transform="translate(574.176875 474.34473) rotate(-90) scale(0.16 -0.16)">
       <use xlink:href="#ArialMT-20"/>
       <use xlink:href="#ArialMT-57" x="27.783203"/>
       <use xlink:href="#ArialMT-69" x="122.167969"/>
       <use xlink:href="#ArialMT-6e" x="144.384766"/>
       <use xlink:href="#ArialMT-65" x="200"/>
       <use xlink:href="#ArialMT-2f" x="255.615234"/>
       <use xlink:href="#ArialMT-45" x="283.398438"/>
       <use xlink:href="#ArialMT-75" x="350.097656"/>
       <use xlink:href="#ArialMT-72" x="405.712891"/>
       <use xlink:href="#ArialMT-6f" x="439.013672"/>
       <use xlink:href="#ArialMT-70" x="494.628906"/>
       <use xlink:href="#ArialMT-65" x="550.244141"/>
       <use xlink:href="#ArialMT-61" x="605.859375"/>
       <use xlink:href="#ArialMT-6e" x="661.474609"/>
       <use xlink:href="#ArialMT-20" x="717.089844"/>
       <use xlink:href="#ArialMT-28" x="744.873047"/>
       <use xlink:href="#ArialMT-73" x="778.173828"/>
       <use xlink:href="#ArialMT-75" x="828.173828"/>
       <use xlink:href="#ArialMT-62" x="883.789062"/>
       <use xlink:href="#ArialMT-63" x="939.404297"/>
       <use xlink:href="#ArialMT-6c" x="989.404297"/>
       <use xlink:href="#ArialMT-61" x="1011.621094"/>
       <use xlink:href="#ArialMT-64" x="1067.236328"/>
       <use xlink:href="#ArialMT-65" x="1122.851562"/>
       <use xlink:href="#ArialMT-20" x="1178.466797"/>
       <use xlink:href="#ArialMT-31" x="1206.25"/>
       <use xlink:href="#ArialMT-29" x="1261.865234"/>
      </g>
     </g>
    </g>
    <g id="xtick_16">
     <g id="line2d_99">
      <g>
       <use xlink:href="#m2c7b4cde2b" x="604.911875" y="260.13223" style="stroke: #000000; stroke-width: 0.8"/>
      </g>
     </g>
     <g id="text_28">
      <!--  Wine/European  -->
      <g transform="translate(609.145625 386.30473) rotate(-90) scale(0.16 -0.16)">
       <use xlink:href="#ArialMT-20"/>
       <use xlink:href="#ArialMT-57" x="27.783203"/>
       <use xlink:href="#ArialMT-69" x="122.167969"/>
       <use xlink:href="#ArialMT-6e" x="144.384766"/>
       <use xlink:href="#ArialMT-65" x="200"/>
       <use xlink:href="#ArialMT-2f" x="255.615234"/>
       <use xlink:href="#ArialMT-45" x="283.398438"/>
       <use xlink:href="#ArialMT-75" x="350.097656"/>
       <use xlink:href="#ArialMT-72" x="405.712891"/>
       <use xlink:href="#ArialMT-6f" x="439.013672"/>
       <use xlink:href="#ArialMT-70" x="494.628906"/>
       <use xlink:href="#ArialMT-65" x="550.244141"/>
       <use xlink:href="#ArialMT-61" x="605.859375"/>
       <use xlink:href="#ArialMT-6e" x="661.474609"/>
       <use xlink:href="#ArialMT-20" x="717.089844"/>
      </g>
     </g>
    </g>
   </g>
   <g id="matplotlib.axis_4">
    <g id="ytick_4">
     <g id="line2d_100">
      <g>
       <use xlink:href="#m5e4af35df4" x="64.349375" y="255.97361" style="stroke: #000000; stroke-width: 0.8"/>
      </g>
     </g>
     <g id="text_29">
      <!-- 3900 -->
      <g transform="translate(23.98375 261.341969) scale(0.15 -0.15)">
       <defs>
        <path id="ArialMT-39" d="M 350 1059 
L 891 1109 
Q 959 728 1153 556 
Q 1347 384 1650 384 
Q 1909 384 2104 503 
Q 2300 622 2425 820 
Q 2550 1019 2634 1356 
Q 2719 1694 2719 2044 
Q 2719 2081 2716 2156 
Q 2547 1888 2255 1720 
Q 1963 1553 1622 1553 
Q 1053 1553 659 1965 
Q 266 2378 266 3053 
Q 266 3750 677 4175 
Q 1088 4600 1706 4600 
Q 2153 4600 2523 4359 
Q 2894 4119 3086 3673 
Q 3278 3228 3278 2384 
Q 3278 1506 3087 986 
Q 2897 466 2520 194 
Q 2144 -78 1638 -78 
Q 1100 -78 759 220 
Q 419 519 350 1059 
z
M 2653 3081 
Q 2653 3566 2395 3850 
Q 2138 4134 1775 4134 
Q 1400 4134 1122 3828 
Q 844 3522 844 3034 
Q 844 2597 1108 2323 
Q 1372 2050 1759 2050 
Q 2150 2050 2401 2323 
Q 2653 2597 2653 3081 
z
" transform="scale(0.015625)"/>
       </defs>
       <use xlink:href="#ArialMT-33"/>
       <use xlink:href="#ArialMT-39" x="55.615234"/>
       <use xlink:href="#ArialMT-30" x="111.230469"/>
       <use xlink:href="#ArialMT-30" x="166.845703"/>
      </g>
     </g>
    </g>
    <g id="ytick_5">
     <g id="line2d_101">
      <g>
       <use xlink:href="#m5e4af35df4" x="64.349375" y="193.904644" style="stroke: #000000; stroke-width: 0.8"/>
      </g>
     </g>
     <g id="text_30">
      <!-- 3950 -->
      <g transform="translate(23.98375 199.273004) scale(0.15 -0.15)">
       <use xlink:href="#ArialMT-33"/>
       <use xlink:href="#ArialMT-39" x="55.615234"/>
       <use xlink:href="#ArialMT-35" x="111.230469"/>
       <use xlink:href="#ArialMT-30" x="166.845703"/>
      </g>
     </g>
    </g>
    <g id="text_31">
     <!-- Reaction number -->
     <g transform="translate(17.220938 257.90473) rotate(-90) scale(0.14 -0.14)">
      <defs>
       <path id="Arial-BoldMT-52" d="M 469 0 
L 469 4581 
L 2416 4581 
Q 3150 4581 3483 4457 
Q 3816 4334 4016 4018 
Q 4216 3703 4216 3297 
Q 4216 2781 3912 2445 
Q 3609 2109 3006 2022 
Q 3306 1847 3501 1637 
Q 3697 1428 4028 894 
L 4588 0 
L 3481 0 
L 2813 997 
Q 2456 1531 2325 1670 
Q 2194 1809 2047 1861 
Q 1900 1913 1581 1913 
L 1394 1913 
L 1394 0 
L 469 0 
z
M 1394 2644 
L 2078 2644 
Q 2744 2644 2909 2700 
Q 3075 2756 3169 2893 
Q 3263 3031 3263 3238 
Q 3263 3469 3139 3611 
Q 3016 3753 2791 3791 
Q 2678 3806 2116 3806 
L 1394 3806 
L 1394 2644 
z
" transform="scale(0.015625)"/>
       <path id="Arial-BoldMT-61" d="M 1116 2306 
L 319 2450 
Q 453 2931 781 3162 
Q 1109 3394 1756 3394 
Q 2344 3394 2631 3255 
Q 2919 3116 3036 2902 
Q 3153 2688 3153 2116 
L 3144 1091 
Q 3144 653 3186 445 
Q 3228 238 3344 0 
L 2475 0 
Q 2441 88 2391 259 
Q 2369 338 2359 363 
Q 2134 144 1878 34 
Q 1622 -75 1331 -75 
Q 819 -75 523 203 
Q 228 481 228 906 
Q 228 1188 362 1408 
Q 497 1628 739 1745 
Q 981 1863 1438 1950 
Q 2053 2066 2291 2166 
L 2291 2253 
Q 2291 2506 2166 2614 
Q 2041 2722 1694 2722 
Q 1459 2722 1328 2630 
Q 1197 2538 1116 2306 
z
M 2291 1594 
Q 2122 1538 1756 1459 
Q 1391 1381 1278 1306 
Q 1106 1184 1106 997 
Q 1106 813 1243 678 
Q 1381 544 1594 544 
Q 1831 544 2047 700 
Q 2206 819 2256 991 
Q 2291 1103 2291 1419 
L 2291 1594 
z
" transform="scale(0.015625)"/>
       <path id="Arial-BoldMT-63" d="M 3353 2338 
L 2488 2181 
Q 2444 2441 2289 2572 
Q 2134 2703 1888 2703 
Q 1559 2703 1364 2476 
Q 1169 2250 1169 1719 
Q 1169 1128 1367 884 
Q 1566 641 1900 641 
Q 2150 641 2309 783 
Q 2469 925 2534 1272 
L 3397 1125 
Q 3263 531 2881 228 
Q 2500 -75 1859 -75 
Q 1131 -75 698 384 
Q 266 844 266 1656 
Q 266 2478 700 2936 
Q 1134 3394 1875 3394 
Q 2481 3394 2839 3133 
Q 3197 2872 3353 2338 
z
" transform="scale(0.015625)"/>
       <path id="Arial-BoldMT-74" d="M 1981 3319 
L 1981 2619 
L 1381 2619 
L 1381 1281 
Q 1381 875 1398 808 
Q 1416 741 1477 697 
Q 1538 653 1625 653 
Q 1747 653 1978 738 
L 2053 56 
Q 1747 -75 1359 -75 
Q 1122 -75 931 4 
Q 741 84 652 211 
Q 563 338 528 553 
Q 500 706 500 1172 
L 500 2619 
L 97 2619 
L 97 3319 
L 500 3319 
L 500 3978 
L 1381 4491 
L 1381 3319 
L 1981 3319 
z
" transform="scale(0.015625)"/>
       <path id="Arial-BoldMT-69" d="M 459 3769 
L 459 4581 
L 1338 4581 
L 1338 3769 
L 459 3769 
z
M 459 0 
L 459 3319 
L 1338 3319 
L 1338 0 
L 459 0 
z
" transform="scale(0.015625)"/>
       <path id="Arial-BoldMT-6f" d="M 256 1706 
Q 256 2144 472 2553 
Q 688 2963 1083 3178 
Q 1478 3394 1966 3394 
Q 2719 3394 3200 2905 
Q 3681 2416 3681 1669 
Q 3681 916 3195 420 
Q 2709 -75 1972 -75 
Q 1516 -75 1102 131 
Q 688 338 472 736 
Q 256 1134 256 1706 
z
M 1156 1659 
Q 1156 1166 1390 903 
Q 1625 641 1969 641 
Q 2313 641 2545 903 
Q 2778 1166 2778 1666 
Q 2778 2153 2545 2415 
Q 2313 2678 1969 2678 
Q 1625 2678 1390 2415 
Q 1156 2153 1156 1659 
z
" transform="scale(0.015625)"/>
      </defs>
      <use xlink:href="#Arial-BoldMT-52"/>
      <use xlink:href="#Arial-BoldMT-65" x="72.216797"/>
      <use xlink:href="#Arial-BoldMT-61" x="127.832031"/>
      <use xlink:href="#Arial-BoldMT-63" x="183.447266"/>
      <use xlink:href="#Arial-BoldMT-74" x="239.0625"/>
      <use xlink:href="#Arial-BoldMT-69" x="272.363281"/>
      <use xlink:href="#Arial-BoldMT-6f" x="300.146484"/>
      <use xlink:href="#Arial-BoldMT-6e" x="361.230469"/>
      <use xlink:href="#Arial-BoldMT-20" x="422.314453"/>
      <use xlink:href="#Arial-BoldMT-6e" x="450.097656"/>
      <use xlink:href="#Arial-BoldMT-75" x="511.181641"/>
      <use xlink:href="#Arial-BoldMT-6d" x="572.265625"/>
      <use xlink:href="#Arial-BoldMT-62" x="661.181641"/>
      <use xlink:href="#Arial-BoldMT-65" x="722.265625"/>
      <use xlink:href="#Arial-BoldMT-72" x="777.880859"/>
     </g>
    </g>
   </g>
   <g id="patch_24">
    <path d="M 67.836875 208.801196 
L 95.736875 208.801196 
L 95.736875 179.008092 
L 67.836875 179.008092 
L 67.836875 208.801196 
z
" clip-path="url(#pe5738fd612)" style="fill: #2b8e70; stroke: #373737; stroke-linejoin: miter"/>
   </g>
   <g id="line2d_102">
    <path d="M 81.786875 208.801196 
L 81.786875 232.387403 
" clip-path="url(#pe5738fd612)" style="fill: none; stroke: #373737"/>
   </g>
   <g id="line2d_103">
    <path d="M 81.786875 179.008092 
L 81.786875 155.421886 
" clip-path="url(#pe5738fd612)" style="fill: none; stroke: #373737"/>
   </g>
   <g id="line2d_104">
    <path d="M 74.811875 232.387403 
L 88.761875 232.387403 
" clip-path="url(#pe5738fd612)" style="fill: none; stroke: #373737; stroke-linecap: square"/>
   </g>
   <g id="line2d_105">
    <path d="M 74.811875 155.421886 
L 88.761875 155.421886 
" clip-path="url(#pe5738fd612)" style="fill: none; stroke: #373737; stroke-linecap: square"/>
   </g>
   <g id="patch_25">
    <path d="M 102.711875 217.490851 
L 130.611875 217.490851 
L 130.611875 190.180506 
L 102.711875 190.180506 
L 102.711875 217.490851 
z
" clip-path="url(#pe5738fd612)" style="fill: #be631d; stroke: #373737; stroke-linejoin: miter"/>
   </g>
   <g id="line2d_106">
    <path d="M 116.661875 217.490851 
L 116.661875 254.73223 
" clip-path="url(#pe5738fd612)" style="fill: none; stroke: #373737"/>
   </g>
   <g id="line2d_107">
    <path d="M 116.661875 190.180506 
L 116.661875 159.146023 
" clip-path="url(#pe5738fd612)" style="fill: none; stroke: #373737"/>
   </g>
   <g id="line2d_108">
    <path d="M 109.686875 254.73223 
L 123.636875 254.73223 
" clip-path="url(#pe5738fd612)" style="fill: none; stroke: #373737; stroke-linecap: square"/>
   </g>
   <g id="line2d_109">
    <path d="M 109.686875 159.146023 
L 123.636875 159.146023 
" clip-path="url(#pe5738fd612)" style="fill: none; stroke: #373737; stroke-linecap: square"/>
   </g>
   <g id="patch_26">
    <path d="M 137.586875 215.008092 
L 165.486875 215.008092 
L 165.486875 195.146023 
L 137.586875 195.146023 
L 137.586875 215.008092 
z
" clip-path="url(#pe5738fd612)" style="fill: #7c78ab; stroke: #373737; stroke-linejoin: miter"/>
   </g>
   <g id="line2d_110">
    <path d="M 151.536875 215.008092 
L 151.536875 233.628782 
" clip-path="url(#pe5738fd612)" style="fill: none; stroke: #373737"/>
   </g>
   <g id="line2d_111">
    <path d="M 151.536875 195.146023 
L 151.536875 179.008092 
" clip-path="url(#pe5738fd612)" style="fill: none; stroke: #373737"/>
   </g>
   <g id="line2d_112">
    <path d="M 144.561875 233.628782 
L 158.511875 233.628782 
" clip-path="url(#pe5738fd612)" style="fill: none; stroke: #373737; stroke-linecap: square"/>
   </g>
   <g id="line2d_113">
    <path d="M 144.561875 179.008092 
L 158.511875 179.008092 
" clip-path="url(#pe5738fd612)" style="fill: none; stroke: #373737; stroke-linecap: square"/>
   </g>
   <g id="patch_27">
    <path d="M 172.461875 213.766713 
L 200.361875 213.766713 
L 200.361875 194.214989 
L 172.461875 194.214989 
L 172.461875 213.766713 
z
" clip-path="url(#pe5738fd612)" style="fill: #cf418a; stroke: #373737; stroke-linejoin: miter"/>
   </g>
   <g id="line2d_114">
    <path d="M 186.411875 213.766713 
L 186.411875 224.939127 
" clip-path="url(#pe5738fd612)" style="fill: none; stroke: #373737"/>
   </g>
   <g id="line2d_115">
    <path d="M 186.411875 194.214989 
L 186.411875 167.835679 
" clip-path="url(#pe5738fd612)" style="fill: none; stroke: #373737"/>
   </g>
   <g id="line2d_116">
    <path d="M 179.436875 224.939127 
L 193.386875 224.939127 
" clip-path="url(#pe5738fd612)" style="fill: none; stroke: #373737; stroke-linecap: square"/>
   </g>
   <g id="line2d_117">
    <path d="M 179.436875 167.835679 
L 193.386875 167.835679 
" clip-path="url(#pe5738fd612)" style="fill: none; stroke: #373737; stroke-linecap: square"/>
   </g>
   <g id="patch_28">
    <path d="M 207.336875 197.628782 
L 235.236875 197.628782 
L 235.236875 170.008092 
L 207.336875 170.008092 
L 207.336875 197.628782 
z
" clip-path="url(#pe5738fd612)" style="fill: #65952f; stroke: #373737; stroke-linejoin: miter"/>
   </g>
   <g id="line2d_118">
    <path d="M 221.286875 197.628782 
L 221.286875 236.111541 
" clip-path="url(#pe5738fd612)" style="fill: none; stroke: #373737"/>
   </g>
   <g id="line2d_119">
    <path d="M 221.286875 170.008092 
L 221.286875 146.73223 
" clip-path="url(#pe5738fd612)" style="fill: none; stroke: #373737"/>
   </g>
   <g id="line2d_120">
    <path d="M 214.311875 236.111541 
L 228.261875 236.111541 
" clip-path="url(#pe5738fd612)" style="fill: none; stroke: #373737; stroke-linecap: square"/>
   </g>
   <g id="line2d_121">
    <path d="M 214.311875 146.73223 
L 228.261875 146.73223 
" clip-path="url(#pe5738fd612)" style="fill: none; stroke: #373737; stroke-linecap: square"/>
   </g>
   <g id="patch_29">
    <path d="M 242.211875 215.008092 
L 270.111875 215.008092 
L 270.111875 181.180506 
L 242.211875 181.180506 
L 242.211875 215.008092 
z
" clip-path="url(#pe5738fd612)" style="fill: #ca9d1e; stroke: #373737; stroke-linejoin: miter"/>
   </g>
   <g id="line2d_122">
    <path d="M 256.161875 215.008092 
L 256.161875 243.559817 
" clip-path="url(#pe5738fd612)" style="fill: none; stroke: #373737"/>
   </g>
   <g id="line2d_123">
    <path d="M 256.161875 181.180506 
L 256.161875 167.835679 
" clip-path="url(#pe5738fd612)" style="fill: none; stroke: #373737"/>
   </g>
   <g id="line2d_124">
    <path d="M 249.186875 243.559817 
L 263.136875 243.559817 
" clip-path="url(#pe5738fd612)" style="fill: none; stroke: #373737; stroke-linecap: square"/>
   </g>
   <g id="line2d_125">
    <path d="M 249.186875 167.835679 
L 263.136875 167.835679 
" clip-path="url(#pe5738fd612)" style="fill: none; stroke: #373737; stroke-linecap: square"/>
   </g>
   <g id="patch_30">
    <path d="M 277.086875 206.318437 
L 304.986875 206.318437 
L 304.986875 183.97361 
L 277.086875 183.97361 
L 277.086875 206.318437 
z
" clip-path="url(#pe5738fd612)" style="fill: #95712e; stroke: #373737; stroke-linejoin: miter"/>
   </g>
   <g id="line2d_126">
    <path d="M 291.036875 206.318437 
L 291.036875 236.111541 
" clip-path="url(#pe5738fd612)" style="fill: none; stroke: #373737"/>
   </g>
   <g id="line2d_127">
    <path d="M 291.036875 183.97361 
L 291.036875 157.904644 
" clip-path="url(#pe5738fd612)" style="fill: none; stroke: #373737"/>
   </g>
   <g id="line2d_128">
    <path d="M 284.061875 236.111541 
L 298.011875 236.111541 
" clip-path="url(#pe5738fd612)" style="fill: none; stroke: #373737; stroke-linecap: square"/>
   </g>
   <g id="line2d_129">
    <path d="M 284.061875 157.904644 
L 298.011875 157.904644 
" clip-path="url(#pe5738fd612)" style="fill: none; stroke: #373737; stroke-linecap: square"/>
   </g>
   <g id="patch_31">
    <path d="M 311.961875 207.559817 
L 339.861875 207.559817 
L 339.861875 179.008092 
L 311.961875 179.008092 
L 311.961875 207.559817 
z
" clip-path="url(#pe5738fd612)" style="fill: #666666; stroke: #373737; stroke-linejoin: miter"/>
   </g>
   <g id="line2d_130">
    <path d="M 325.911875 207.559817 
L 325.911875 244.801196 
" clip-path="url(#pe5738fd612)" style="fill: none; stroke: #373737"/>
   </g>
   <g id="line2d_131">
    <path d="M 325.911875 179.008092 
L 325.911875 156.663265 
" clip-path="url(#pe5738fd612)" style="fill: none; stroke: #373737"/>
   </g>
   <g id="line2d_132">
    <path d="M 318.936875 244.801196 
L 332.886875 244.801196 
" clip-path="url(#pe5738fd612)" style="fill: none; stroke: #373737; stroke-linecap: square"/>
   </g>
   <g id="line2d_133">
    <path d="M 318.936875 156.663265 
L 332.886875 156.663265 
" clip-path="url(#pe5738fd612)" style="fill: none; stroke: #373737; stroke-linecap: square"/>
   </g>
   <g id="patch_32">
    <path d="M 346.836875 218.73223 
L 374.736875 218.73223 
L 374.736875 199.180506 
L 346.836875 199.180506 
L 346.836875 218.73223 
z
" clip-path="url(#pe5738fd612)" style="fill: #2b8e70; stroke: #373737; stroke-linejoin: miter"/>
   </g>
   <g id="line2d_134">
    <path d="M 360.786875 218.73223 
L 360.786875 229.904644 
" clip-path="url(#pe5738fd612)" style="fill: none; stroke: #373737"/>
   </g>
   <g id="line2d_135">
    <path d="M 360.786875 199.180506 
L 360.786875 170.318437 
" clip-path="url(#pe5738fd612)" style="fill: none; stroke: #373737"/>
   </g>
   <g id="line2d_136">
    <path d="M 353.811875 229.904644 
L 367.761875 229.904644 
" clip-path="url(#pe5738fd612)" style="fill: none; stroke: #373737; stroke-linecap: square"/>
   </g>
   <g id="line2d_137">
    <path d="M 353.811875 170.318437 
L 367.761875 170.318437 
" clip-path="url(#pe5738fd612)" style="fill: none; stroke: #373737; stroke-linecap: square"/>
   </g>
   <g id="patch_33">
    <path d="M 381.711875 188.939127 
L 409.611875 188.939127 
L 409.611875 172.180506 
L 381.711875 172.180506 
L 381.711875 188.939127 
z
" clip-path="url(#pe5738fd612)" style="fill: #be631d; stroke: #373737; stroke-linejoin: miter"/>
   </g>
   <g id="line2d_138">
    <path d="M 395.661875 188.939127 
L 395.661875 200.111541 
" clip-path="url(#pe5738fd612)" style="fill: none; stroke: #373737"/>
   </g>
   <g id="line2d_139">
    <path d="M 395.661875 172.180506 
L 395.661875 165.35292 
" clip-path="url(#pe5738fd612)" style="fill: none; stroke: #373737"/>
   </g>
   <g id="line2d_140">
    <path d="M 388.686875 200.111541 
L 402.636875 200.111541 
" clip-path="url(#pe5738fd612)" style="fill: none; stroke: #373737; stroke-linecap: square"/>
   </g>
   <g id="line2d_141">
    <path d="M 388.686875 165.35292 
L 402.636875 165.35292 
" clip-path="url(#pe5738fd612)" style="fill: none; stroke: #373737; stroke-linecap: square"/>
   </g>
   <g id="patch_34">
    <path d="M 416.586875 220.594299 
L 444.486875 220.594299 
L 444.486875 191.421886 
L 416.586875 191.421886 
L 416.586875 220.594299 
z
" clip-path="url(#pe5738fd612)" style="fill: #7c78ab; stroke: #373737; stroke-linejoin: miter"/>
   </g>
   <g id="line2d_142">
    <path d="M 430.536875 220.594299 
L 430.536875 253.490851 
" clip-path="url(#pe5738fd612)" style="fill: none; stroke: #373737"/>
   </g>
   <g id="line2d_143">
    <path d="M 430.536875 191.421886 
L 430.536875 164.111541 
" clip-path="url(#pe5738fd612)" style="fill: none; stroke: #373737"/>
   </g>
   <g id="line2d_144">
    <path d="M 423.561875 253.490851 
L 437.511875 253.490851 
" clip-path="url(#pe5738fd612)" style="fill: none; stroke: #373737; stroke-linecap: square"/>
   </g>
   <g id="line2d_145">
    <path d="M 423.561875 164.111541 
L 437.511875 164.111541 
" clip-path="url(#pe5738fd612)" style="fill: none; stroke: #373737; stroke-linecap: square"/>
   </g>
   <g id="patch_35">
    <path d="M 451.461875 223.387403 
L 479.361875 223.387403 
L 479.361875 191.73223 
L 451.461875 191.73223 
L 451.461875 223.387403 
z
" clip-path="url(#pe5738fd612)" style="fill: #cf418a; stroke: #373737; stroke-linejoin: miter"/>
   </g>
   <g id="line2d_146">
    <path d="M 465.411875 223.387403 
L 465.411875 237.35292 
" clip-path="url(#pe5738fd612)" style="fill: none; stroke: #373737"/>
   </g>
   <g id="line2d_147">
    <path d="M 465.411875 191.73223 
L 465.411875 162.870161 
" clip-path="url(#pe5738fd612)" style="fill: none; stroke: #373737"/>
   </g>
   <g id="line2d_148">
    <path d="M 458.436875 237.35292 
L 472.386875 237.35292 
" clip-path="url(#pe5738fd612)" style="fill: none; stroke: #373737; stroke-linecap: square"/>
   </g>
   <g id="line2d_149">
    <path d="M 458.436875 162.870161 
L 472.386875 162.870161 
" clip-path="url(#pe5738fd612)" style="fill: none; stroke: #373737; stroke-linecap: square"/>
   </g>
   <g id="patch_36">
    <path d="M 486.336875 200.111541 
L 514.236875 200.111541 
L 514.236875 181.180506 
L 486.336875 181.180506 
L 486.336875 200.111541 
z
" clip-path="url(#pe5738fd612)" style="fill: #65952f; stroke: #373737; stroke-linejoin: miter"/>
   </g>
   <g id="line2d_150">
    <path d="M 500.286875 200.111541 
L 500.286875 221.214989 
" clip-path="url(#pe5738fd612)" style="fill: none; stroke: #373737"/>
   </g>
   <g id="line2d_151">
    <path d="M 500.286875 181.180506 
L 500.286875 156.663265 
" clip-path="url(#pe5738fd612)" style="fill: none; stroke: #373737"/>
   </g>
   <g id="line2d_152">
    <path d="M 493.311875 221.214989 
L 507.261875 221.214989 
" clip-path="url(#pe5738fd612)" style="fill: none; stroke: #373737; stroke-linecap: square"/>
   </g>
   <g id="line2d_153">
    <path d="M 493.311875 156.663265 
L 507.261875 156.663265 
" clip-path="url(#pe5738fd612)" style="fill: none; stroke: #373737; stroke-linecap: square"/>
   </g>
   <g id="patch_37">
    <path d="M 521.211875 208.801196 
L 549.111875 208.801196 
L 549.111875 183.35292 
L 521.211875 183.35292 
L 521.211875 208.801196 
z
" clip-path="url(#pe5738fd612)" style="fill: #ca9d1e; stroke: #373737; stroke-linejoin: miter"/>
   </g>
   <g id="line2d_154">
    <path d="M 535.161875 208.801196 
L 535.161875 242.318437 
" clip-path="url(#pe5738fd612)" style="fill: none; stroke: #373737"/>
   </g>
   <g id="line2d_155">
    <path d="M 535.161875 183.35292 
L 535.161875 167.835679 
" clip-path="url(#pe5738fd612)" style="fill: none; stroke: #373737"/>
   </g>
   <g id="line2d_156">
    <path d="M 528.186875 242.318437 
L 542.136875 242.318437 
" clip-path="url(#pe5738fd612)" style="fill: none; stroke: #373737; stroke-linecap: square"/>
   </g>
   <g id="line2d_157">
    <path d="M 528.186875 167.835679 
L 542.136875 167.835679 
" clip-path="url(#pe5738fd612)" style="fill: none; stroke: #373737; stroke-linecap: square"/>
   </g>
   <g id="patch_38">
    <path d="M 556.086875 193.904644 
L 583.986875 193.904644 
L 583.986875 177.766713 
L 556.086875 177.766713 
L 556.086875 193.904644 
z
" clip-path="url(#pe5738fd612)" style="fill: #95712e; stroke: #373737; stroke-linejoin: miter"/>
   </g>
   <g id="line2d_158">
    <path d="M 570.036875 193.904644 
L 570.036875 215.008092 
" clip-path="url(#pe5738fd612)" style="fill: none; stroke: #373737"/>
   </g>
   <g id="line2d_159">
    <path d="M 570.036875 177.766713 
L 570.036875 156.663265 
" clip-path="url(#pe5738fd612)" style="fill: none; stroke: #373737"/>
   </g>
   <g id="line2d_160">
    <path d="M 563.061875 215.008092 
L 577.011875 215.008092 
" clip-path="url(#pe5738fd612)" style="fill: none; stroke: #373737; stroke-linecap: square"/>
   </g>
   <g id="line2d_161">
    <path d="M 563.061875 156.663265 
L 577.011875 156.663265 
" clip-path="url(#pe5738fd612)" style="fill: none; stroke: #373737; stroke-linecap: square"/>
   </g>
   <g id="patch_39">
    <path d="M 590.961875 206.318437 
L 618.861875 206.318437 
L 618.861875 181.490851 
L 590.961875 181.490851 
L 590.961875 206.318437 
z
" clip-path="url(#pe5738fd612)" style="fill: #666666; stroke: #373737; stroke-linejoin: miter"/>
   </g>
   <g id="line2d_162">
    <path d="M 604.911875 206.318437 
L 604.911875 238.594299 
" clip-path="url(#pe5738fd612)" style="fill: none; stroke: #373737"/>
   </g>
   <g id="line2d_163">
    <path d="M 604.911875 181.490851 
L 604.911875 150.456368 
" clip-path="url(#pe5738fd612)" style="fill: none; stroke: #373737"/>
   </g>
   <g id="line2d_164">
    <path d="M 597.936875 238.594299 
L 611.886875 238.594299 
" clip-path="url(#pe5738fd612)" style="fill: none; stroke: #373737; stroke-linecap: square"/>
   </g>
   <g id="line2d_165">
    <path d="M 597.936875 150.456368 
L 611.886875 150.456368 
" clip-path="url(#pe5738fd612)" style="fill: none; stroke: #373737; stroke-linecap: square"/>
   </g>
   <g id="line2d_166">
    <path d="M 67.836875 192.663265 
L 95.736875 192.663265 
" clip-path="url(#pe5738fd612)" style="fill: none; stroke: #373737"/>
   </g>
   <g id="line2d_167">
    <path d="M 102.711875 203.835679 
L 130.611875 203.835679 
" clip-path="url(#pe5738fd612)" style="fill: none; stroke: #373737"/>
   </g>
   <g id="line2d_168">
    <path d="M 137.586875 203.835679 
L 165.486875 203.835679 
" clip-path="url(#pe5738fd612)" style="fill: none; stroke: #373737"/>
   </g>
   <g id="line2d_169">
    <path d="M 172.461875 205.077058 
L 200.361875 205.077058 
" clip-path="url(#pe5738fd612)" style="fill: none; stroke: #373737"/>
   </g>
   <g id="line2d_170">
    <path d="M 207.336875 185.835679 
L 235.236875 185.835679 
" clip-path="url(#pe5738fd612)" style="fill: none; stroke: #373737"/>
   </g>
   <g id="line2d_171">
    <path d="M 242.211875 192.042575 
L 270.111875 192.042575 
" clip-path="url(#pe5738fd612)" style="fill: none; stroke: #373737"/>
   </g>
   <g id="line2d_172">
    <path d="M 277.086875 190.180506 
L 304.986875 190.180506 
" clip-path="url(#pe5738fd612)" style="fill: none; stroke: #373737"/>
   </g>
   <g id="line2d_173">
    <path d="M 311.961875 193.904644 
L 339.861875 193.904644 
" clip-path="url(#pe5738fd612)" style="fill: none; stroke: #373737"/>
   </g>
   <g id="line2d_174">
    <path d="M 346.836875 210.663265 
L 374.736875 210.663265 
" clip-path="url(#pe5738fd612)" style="fill: none; stroke: #373737"/>
   </g>
   <g id="line2d_175">
    <path d="M 381.711875 180.249472 
L 409.611875 180.249472 
" clip-path="url(#pe5738fd612)" style="fill: none; stroke: #373737"/>
   </g>
   <g id="line2d_176">
    <path d="M 416.586875 207.559817 
L 444.486875 207.559817 
" clip-path="url(#pe5738fd612)" style="fill: none; stroke: #373737"/>
   </g>
   <g id="line2d_177">
    <path d="M 451.461875 208.180506 
L 479.361875 208.180506 
" clip-path="url(#pe5738fd612)" style="fill: none; stroke: #373737"/>
   </g>
   <g id="line2d_178">
    <path d="M 486.336875 195.146023 
L 514.236875 195.146023 
" clip-path="url(#pe5738fd612)" style="fill: none; stroke: #373737"/>
   </g>
   <g id="line2d_179">
    <path d="M 521.211875 197.628782 
L 549.111875 197.628782 
" clip-path="url(#pe5738fd612)" style="fill: none; stroke: #373737"/>
   </g>
   <g id="line2d_180">
    <path d="M 556.086875 183.97361 
L 583.986875 183.97361 
" clip-path="url(#pe5738fd612)" style="fill: none; stroke: #373737"/>
   </g>
   <g id="line2d_181">
    <path d="M 590.961875 195.146023 
L 618.861875 195.146023 
" clip-path="url(#pe5738fd612)" style="fill: none; stroke: #373737"/>
   </g>
   <g id="patch_40">
    <path d="M 64.349375 260.13223 
L 64.349375 141.33223 
" style="fill: none; stroke: #000000; stroke-linejoin: miter; stroke-linecap: square"/>
   </g>
   <g id="patch_41">
    <path d="M 622.349375 260.13223 
L 622.349375 141.33223 
" style="fill: none; stroke: #000000; stroke-linejoin: miter; stroke-linecap: square"/>
   </g>
   <g id="patch_42">
    <path d="M 64.349375 260.13223 
L 622.349375 260.13223 
" style="fill: none; stroke: #000000; stroke-linejoin: miter; stroke-linecap: square"/>
   </g>
   <g id="patch_43">
    <path d="M 64.349375 141.33223 
L 622.349375 141.33223 
" style="fill: none; stroke: #000000; stroke-linejoin: miter; stroke-linecap: square"/>
   </g>
   <g id="text_32">
    <!-- * -->
    <g style="fill: #ff0000" transform="translate(113.548125 159.712661) scale(0.16 -0.16)">
     <use xlink:href="#Arial-BoldMT-2a"/>
    </g>
   </g>
   <g id="text_33">
    <!-- * -->
    <g style="fill: #ff0000" transform="translate(148.423125 159.712661) scale(0.16 -0.16)">
     <use xlink:href="#Arial-BoldMT-2a"/>
    </g>
   </g>
   <g id="text_34">
    <!-- * -->
    <g style="fill: #ff0000" transform="translate(183.298125 159.712661) scale(0.16 -0.16)">
     <use xlink:href="#Arial-BoldMT-2a"/>
    </g>
   </g>
   <g id="text_35">
    <!-- ** -->
    <g style="fill: #ff0000" transform="translate(354.559375 159.712661) scale(0.16 -0.16)">
     <use xlink:href="#Arial-BoldMT-2a"/>
     <use xlink:href="#Arial-BoldMT-2a" x="38.916016"/>
    </g>
   </g>
   <g id="text_36">
    <!-- * -->
    <g style="fill: #ff0000" transform="translate(427.423125 159.712661) scale(0.16 -0.16)">
     <use xlink:href="#Arial-BoldMT-2a"/>
    </g>
   </g>
   <g id="text_37">
    <!-- ** -->
    <g style="fill: #ff0000" transform="translate(459.184375 159.712661) scale(0.16 -0.16)">
     <use xlink:href="#Arial-BoldMT-2a"/>
     <use xlink:href="#Arial-BoldMT-2a" x="38.916016"/>
    </g>
   </g>
  </g>
 </g>
 <defs>
  <clipPath id="p0c355a0e81">
   <rect x="64.349375" y="10.65223" width="558" height="118.8"/>
  </clipPath>
  <clipPath id="pe5738fd612">
   <rect x="64.349375" y="141.33223" width="558" height="118.8"/>
  </clipPath>
 </defs>
</svg>
