<?xml version="1.0" encoding="utf-8" standalone="no"?>
<!DOCTYPE svg PUBLIC "-//W3C//DTD SVG 1.1//EN"
  "http://www.w3.org/Graphics/SVG/1.1/DTD/svg11.dtd">
<svg xmlns:xlink="http://www.w3.org/1999/xlink" width="173.048125pt" height="115.649375pt" viewBox="0 0 173.048125 115.649375" xmlns="http://www.w3.org/2000/svg" version="1.1">
 <metadata>
  <rdf:RDF xmlns:dc="http://purl.org/dc/elements/1.1/" xmlns:cc="http://creativecommons.org/ns#" xmlns:rdf="http://www.w3.org/1999/02/22-rdf-syntax-ns#">
   <cc:Work>
    <dc:type rdf:resource="http://purl.org/dc/dcmitype/StillImage"/>
    <dc:date>2024-04-28T09:40:53.324437</dc:date>
    <dc:format>image/svg+xml</dc:format>
    <dc:creator>
     <cc:Agent>
      <dc:title>Matplotlib v3.8.4, https://matplotlib.org/</dc:title>
     </cc:Agent>
    </dc:creator>
   </cc:Work>
  </rdf:RDF>
 </metadata>
 <defs>
  <style type="text/css">*{stroke-linejoin: round; stroke-linecap: butt}</style>
 </defs>
 <g id="figure_1">
  <g id="patch_1">
   <path d="M 0 115.649375 
L 173.048125 115.649375 
L 173.048125 0 
L 0 0 
L 0 115.649375 
z
" style="fill: none"/>
  </g>
  <g id="axes_1">
   <g id="patch_2">
    <path d="M 38.70625 104.949375 
L 150.30625 104.949375 
L 150.30625 21.789375 
L 38.70625 21.789375 
L 38.70625 104.949375 
z
" style="fill: none"/>
   </g>
   <g id="PolyCollection_1">
    <defs>
     <path id="m40107157a8" d="M 66.612711 -20.263579 
L 66.599789 -20.263579 
L 66.585528 -20.968795 
L 66.548866 -21.674011 
L 66.46911 -22.379228 
L 66.324665 -23.084444 
L 66.111374 -23.789661 
L 65.860772 -24.494877 
L 65.632855 -25.200093 
L 65.475313 -25.90531 
L 65.384911 -26.610526 
L 65.316689 -27.315742 
L 65.231991 -28.020959 
L 65.126872 -28.726175 
L 65.012324 -29.431392 
L 64.882062 -30.136608 
L 64.709899 -30.841824 
L 64.470075 -31.547041 
L 64.145445 -32.252257 
L 63.710928 -32.957473 
L 63.116009 -33.66269 
L 62.294228 -34.367906 
L 61.194643 -35.073123 
L 59.801512 -35.778339 
L 58.125885 -36.483555 
L 56.194932 -37.188772 
L 54.06835 -37.893988 
L 51.867969 -38.599204 
L 49.776741 -39.304421 
L 47.98445 -40.009637 
L 46.605535 -40.714854 
L 45.628547 -41.42007 
L 44.951918 -42.125286 
L 44.49598 -42.830503 
L 44.28625 -43.535719 
L 44.406269 -44.240935 
L 44.872784 -44.946152 
L 45.594676 -45.651368 
L 46.462169 -46.356585 
L 47.439211 -47.061801 
L 48.544974 -47.767017 
L 49.759934 -48.472234 
L 50.975901 -49.17745 
L 52.054349 -49.882666 
L 52.935122 -50.587883 
L 53.683425 -51.293099 
L 54.437602 -51.998316 
L 55.314122 -52.703532 
L 56.334843 -53.408748 
L 57.412453 -54.113965 
L 58.409382 -54.819181 
L 59.238507 -55.524398 
L 59.921669 -56.229614 
L 60.550718 -56.93483 
L 61.196012 -57.640047 
L 61.855055 -58.345263 
L 62.473623 -59.050479 
L 62.997002 -59.755696 
L 63.404952 -60.460912 
L 63.717787 -61.166129 
L 63.978861 -61.871345 
L 64.225488 -62.576561 
L 64.467759 -63.281778 
L 64.690833 -63.986994 
L 64.877304 -64.69221 
L 65.028414 -65.397427 
L 65.165013 -66.102643 
L 65.310122 -66.80786 
L 65.470948 -67.513076 
L 65.634768 -68.218292 
L 65.780561 -68.923509 
L 65.897172 -69.628725 
L 65.99156 -70.333941 
L 66.077426 -71.039158 
L 66.157204 -71.744374 
L 66.221276 -72.449591 
L 66.266215 -73.154807 
L 66.306114 -73.860023 
L 66.3593 -74.56524 
L 66.427333 -75.270456 
L 66.49334 -75.975672 
L 66.539444 -76.680889 
L 66.56056 -77.386105 
L 66.562301 -78.091322 
L 66.551886 -78.796538 
L 66.535022 -79.501754 
L 66.519271 -80.206971 
L 66.514422 -80.912187 
L 66.525811 -81.617403 
L 66.5489 -82.32262 
L 66.573006 -83.027836 
L 66.589706 -83.733053 
L 66.596695 -84.438269 
L 66.595882 -85.143485 
L 66.590762 -85.848702 
L 66.585483 -86.553918 
L 66.58377 -87.259134 
L 66.586918 -87.964351 
L 66.59307 -88.669567 
L 66.59913 -89.374784 
L 66.603202 -90.08 
L 66.609298 -90.08 
L 66.609298 -90.08 
L 66.61337 -89.374784 
L 66.61943 -88.669567 
L 66.625582 -87.964351 
L 66.62873 -87.259134 
L 66.627017 -86.553918 
L 66.621738 -85.848702 
L 66.616618 -85.143485 
L 66.615805 -84.438269 
L 66.622794 -83.733053 
L 66.639494 -83.027836 
L 66.6636 -82.32262 
L 66.686689 -81.617403 
L 66.698078 -80.912187 
L 66.693229 -80.206971 
L 66.677478 -79.501754 
L 66.660614 -78.796538 
L 66.650199 -78.091322 
L 66.65194 -77.386105 
L 66.673056 -76.680889 
L 66.71916 -75.975672 
L 66.785167 -75.270456 
L 66.8532 -74.56524 
L 66.906386 -73.860023 
L 66.946285 -73.154807 
L 66.991224 -72.449591 
L 67.055296 -71.744374 
L 67.135074 -71.039158 
L 67.22094 -70.333941 
L 67.315328 -69.628725 
L 67.431939 -68.923509 
L 67.577732 -68.218292 
L 67.741552 -67.513076 
L 67.902378 -66.80786 
L 68.047487 -66.102643 
L 68.184086 -65.397427 
L 68.335196 -64.69221 
L 68.521667 -63.986994 
L 68.744741 -63.281778 
L 68.987012 -62.576561 
L 69.233639 -61.871345 
L 69.494713 -61.166129 
L 69.807548 -60.460912 
L 70.215498 -59.755696 
L 70.738877 -59.050479 
L 71.357445 -58.345263 
L 72.016488 -57.640047 
L 72.661782 -56.93483 
L 73.290831 -56.229614 
L 73.973993 -55.524398 
L 74.803118 -54.819181 
L 75.800047 -54.113965 
L 76.877657 -53.408748 
L 77.898378 -52.703532 
L 78.774898 -51.998316 
L 79.529075 -51.293099 
L 80.277378 -50.587883 
L 81.158151 -49.882666 
L 82.236599 -49.17745 
L 83.452566 -48.472234 
L 84.667526 -47.767017 
L 85.773289 -47.061801 
L 86.750331 -46.356585 
L 87.617824 -45.651368 
L 88.339716 -44.946152 
L 88.806231 -44.240935 
L 88.92625 -43.535719 
L 88.71652 -42.830503 
L 88.260582 -42.125286 
L 87.583953 -41.42007 
L 86.606965 -40.714854 
L 85.22805 -40.009637 
L 83.435759 -39.304421 
L 81.344531 -38.599204 
L 79.14415 -37.893988 
L 77.017568 -37.188772 
L 75.086615 -36.483555 
L 73.410988 -35.778339 
L 72.017857 -35.073123 
L 70.918272 -34.367906 
L 70.096491 -33.66269 
L 69.501572 -32.957473 
L 69.067055 -32.252257 
L 68.742425 -31.547041 
L 68.502601 -30.841824 
L 68.330438 -30.136608 
L 68.200176 -29.431392 
L 68.085628 -28.726175 
L 67.980509 -28.020959 
L 67.895811 -27.315742 
L 67.827589 -26.610526 
L 67.737187 -25.90531 
L 67.579645 -25.200093 
L 67.351728 -24.494877 
L 67.101126 -23.789661 
L 66.887835 -23.084444 
L 66.74339 -22.379228 
L 66.663634 -21.674011 
L 66.626972 -20.968795 
L 66.612711 -20.263579 
z
" style="stroke: #474747; stroke-width: 1.25"/>
    </defs>
    <g clip-path="url(#pf44e638917)">
     <use xlink:href="#m40107157a8" x="0" y="115.649375" style="fill: #af4d3d; stroke: #474747; stroke-width: 1.25"/>
    </g>
   </g>
   <g id="PolyCollection_2">
    <defs>
     <path id="m6cd0d1148d" d="M 122.437916 -14.48 
L 122.374584 -14.48 
L 122.341806 -15.231289 
L 122.283312 -15.982578 
L 122.185087 -16.733867 
L 122.028545 -17.485156 
L 121.789797 -18.236445 
L 121.439204 -18.987734 
L 120.942473 -19.739023 
L 120.265191 -20.490312 
L 119.382048 -21.241601 
L 118.289333 -21.99289 
L 117.015673 -22.744179 
L 115.624022 -23.495468 
L 114.200117 -24.246757 
L 112.829097 -24.998046 
L 111.569276 -25.749335 
L 110.435317 -26.500624 
L 109.399501 -27.251913 
L 108.41096 -28.003202 
L 107.423687 -28.754491 
L 106.419904 -29.50578 
L 105.418214 -30.257069 
L 104.463999 -31.008358 
L 103.608218 -31.759647 
L 102.885572 -32.510936 
L 102.301947 -33.262225 
L 101.8354 -34.013514 
L 101.448328 -34.764803 
L 101.104301 -35.516092 
L 100.782673 -36.267381 
L 100.486543 -37.01867 
L 100.242602 -37.769959 
L 100.093648 -38.521248 
L 100.08625 -39.272537 
L 100.257599 -40.023826 
L 100.626246 -40.775115 
L 101.189841 -41.526404 
L 101.929222 -42.277693 
L 102.81505 -43.028982 
L 103.813254 -43.780271 
L 104.88858 -44.53156 
L 106.00803 -45.282849 
L 107.145212 -46.034138 
L 108.283636 -46.785427 
L 109.415593 -47.536716 
L 110.53584 -48.288005 
L 111.633904 -49.039294 
L 112.69087 -49.790583 
L 113.683534 -50.541872 
L 114.593036 -51.293161 
L 115.411554 -52.04445 
L 116.14232 -52.795739 
L 116.793349 -53.547028 
L 117.369389 -54.298317 
L 117.866822 -55.049607 
L 118.273427 -55.800896 
L 118.572218 -56.552185 
L 118.747541 -57.303474 
L 118.791824 -58.054763 
L 118.711468 -58.806052 
L 118.530012 -59.557341 
L 118.286998 -60.30863 
L 118.032232 -61.059919 
L 117.817068 -61.811208 
L 117.685556 -62.562497 
L 117.667978 -63.313786 
L 117.777837 -64.065075 
L 118.011852 -64.816364 
L 118.351907 -65.567653 
L 118.768366 -66.318942 
L 119.224729 -67.070231 
L 119.683525 -67.82152 
L 120.112475 -68.572809 
L 120.489276 -69.324098 
L 120.803506 -70.075387 
L 121.055237 -70.826676 
L 121.251374 -71.577965 
L 121.401488 -72.329254 
L 121.514849 -73.080543 
L 121.599424 -73.831832 
L 121.662492 -74.583121 
L 121.71174 -75.33441 
L 121.75564 -76.085699 
L 121.802471 -76.836988 
L 121.858274 -77.588277 
L 121.924791 -78.339566 
L 121.998704 -79.090855 
L 122.072868 -79.842144 
L 122.139221 -80.593433 
L 122.192027 -81.344722 
L 122.229916 -82.096011 
L 122.255816 -82.8473 
L 122.275034 -83.598589 
L 122.292634 -84.349878 
L 122.311501 -85.101167 
L 122.33183 -85.852456 
L 122.351957 -86.603745 
L 122.369749 -87.355034 
L 122.383734 -88.106323 
L 122.393534 -88.857612 
L 122.418966 -88.857612 
L 122.418966 -88.857612 
L 122.428766 -88.106323 
L 122.442751 -87.355034 
L 122.460543 -86.603745 
L 122.48067 -85.852456 
L 122.500999 -85.101167 
L 122.519866 -84.349878 
L 122.537466 -83.598589 
L 122.556684 -82.8473 
L 122.582584 -82.096011 
L 122.620473 -81.344722 
L 122.673279 -80.593433 
L 122.739632 -79.842144 
L 122.813796 -79.090855 
L 122.887709 -78.339566 
L 122.954226 -77.588277 
L 123.010029 -76.836988 
L 123.05686 -76.085699 
L 123.10076 -75.33441 
L 123.150008 -74.583121 
L 123.213076 -73.831832 
L 123.297651 -73.080543 
L 123.411012 -72.329254 
L 123.561126 -71.577965 
L 123.757263 -70.826676 
L 124.008994 -70.075387 
L 124.323224 -69.324098 
L 124.700025 -68.572809 
L 125.128975 -67.82152 
L 125.587771 -67.070231 
L 126.044134 -66.318942 
L 126.460593 -65.567653 
L 126.800648 -64.816364 
L 127.034663 -64.065075 
L 127.144522 -63.313786 
L 127.126944 -62.562497 
L 126.995432 -61.811208 
L 126.780268 -61.059919 
L 126.525502 -60.30863 
L 126.282488 -59.557341 
L 126.101032 -58.806052 
L 126.020676 -58.054763 
L 126.064959 -57.303474 
L 126.240282 -56.552185 
L 126.539073 -55.800896 
L 126.945678 -55.049607 
L 127.443111 -54.298317 
L 128.019151 -53.547028 
L 128.67018 -52.795739 
L 129.400946 -52.04445 
L 130.219464 -51.293161 
L 131.128966 -50.541872 
L 132.12163 -49.790583 
L 133.178596 -49.039294 
L 134.27666 -48.288005 
L 135.396907 -47.536716 
L 136.528864 -46.785427 
L 137.667288 -46.034138 
L 138.80447 -45.282849 
L 139.92392 -44.53156 
L 140.999246 -43.780271 
L 141.99745 -43.028982 
L 142.883278 -42.277693 
L 143.622659 -41.526404 
L 144.186254 -40.775115 
L 144.554901 -40.023826 
L 144.72625 -39.272537 
L 144.718852 -38.521248 
L 144.569898 -37.769959 
L 144.325957 -37.01867 
L 144.029827 -36.267381 
L 143.708199 -35.516092 
L 143.364172 -34.764803 
L 142.9771 -34.013514 
L 142.510553 -33.262225 
L 141.926928 -32.510936 
L 141.204282 -31.759647 
L 140.348501 -31.008358 
L 139.394286 -30.257069 
L 138.392596 -29.50578 
L 137.388813 -28.754491 
L 136.40154 -28.003202 
L 135.412999 -27.251913 
L 134.377183 -26.500624 
L 133.243224 -25.749335 
L 131.983403 -24.998046 
L 130.612383 -24.246757 
L 129.188478 -23.495468 
L 127.796827 -22.744179 
L 126.523167 -21.99289 
L 125.430452 -21.241601 
L 124.547309 -20.490312 
L 123.870027 -19.739023 
L 123.373296 -18.987734 
L 123.022703 -18.236445 
L 122.783955 -17.485156 
L 122.627413 -16.733867 
L 122.529188 -15.982578 
L 122.470694 -15.231289 
L 122.437916 -14.48 
z
" style="stroke: #474747; stroke-width: 1.25"/>
    </defs>
    <g clip-path="url(#pf44e638917)">
     <use xlink:href="#m6cd0d1148d" x="0" y="115.649375" style="fill: #b7b7b7; stroke: #474747; stroke-width: 1.25"/>
    </g>
   </g>
   <g id="matplotlib.axis_1">
    <g id="xtick_1">
     <g id="line2d_1">
      <defs>
       <path id="mca613457d2" d="M 0 0 
L 0 3.5 
" style="stroke: #000000; stroke-width: 0.8"/>
      </defs>
      <g>
       <use xlink:href="#mca613457d2" x="66.60625" y="104.949375" style="stroke: #000000; stroke-width: 0.8"/>
      </g>
     </g>
    </g>
    <g id="xtick_2">
     <g id="line2d_2">
      <g>
       <use xlink:href="#mca613457d2" x="122.40625" y="104.949375" style="stroke: #000000; stroke-width: 0.8"/>
      </g>
     </g>
    </g>
   </g>
   <g id="matplotlib.axis_2">
    <g id="ytick_1">
     <g id="line2d_3">
      <defs>
       <path id="m5dffbc742c" d="M 0 0 
L -3.5 0 
" style="stroke: #000000; stroke-width: 0.8"/>
      </defs>
      <g>
       <use xlink:href="#m5dffbc742c" x="38.70625" y="99.171891" style="stroke: #000000; stroke-width: 0.8"/>
      </g>
     </g>
     <g id="text_1">
      <!-- 0 -->
      <g transform="translate(26.145313 102.750797) scale(0.1 -0.1)">
       <defs>
        <path id="ArialMT-30" d="M 266 2259 
Q 266 3072 433 3567 
Q 600 4063 929 4331 
Q 1259 4600 1759 4600 
Q 2128 4600 2406 4451 
Q 2684 4303 2865 4023 
Q 3047 3744 3150 3342 
Q 3253 2941 3253 2259 
Q 3253 1453 3087 958 
Q 2922 463 2592 192 
Q 2263 -78 1759 -78 
Q 1097 -78 719 397 
Q 266 969 266 2259 
z
M 844 2259 
Q 844 1131 1108 757 
Q 1372 384 1759 384 
Q 2147 384 2411 759 
Q 2675 1134 2675 2259 
Q 2675 3391 2411 3762 
Q 2147 4134 1753 4134 
Q 1366 4134 1134 3806 
Q 844 3388 844 2259 
z
" transform="scale(0.015625)"/>
       </defs>
       <use xlink:href="#ArialMT-30"/>
      </g>
     </g>
    </g>
    <g id="ytick_2">
     <g id="line2d_4">
      <g>
       <use xlink:href="#m5dffbc742c" x="38.70625" y="84.308259" style="stroke: #000000; stroke-width: 0.8"/>
      </g>
     </g>
     <g id="text_2">
      <!-- 3 -->
      <g transform="translate(26.145313 87.887166) scale(0.1 -0.1)">
       <defs>
        <path id="ArialMT-33" d="M 269 1209 
L 831 1284 
Q 928 806 1161 595 
Q 1394 384 1728 384 
Q 2125 384 2398 659 
Q 2672 934 2672 1341 
Q 2672 1728 2419 1979 
Q 2166 2231 1775 2231 
Q 1616 2231 1378 2169 
L 1441 2663 
Q 1497 2656 1531 2656 
Q 1891 2656 2178 2843 
Q 2466 3031 2466 3422 
Q 2466 3731 2256 3934 
Q 2047 4138 1716 4138 
Q 1388 4138 1169 3931 
Q 950 3725 888 3313 
L 325 3413 
Q 428 3978 793 4289 
Q 1159 4600 1703 4600 
Q 2078 4600 2393 4439 
Q 2709 4278 2876 4000 
Q 3044 3722 3044 3409 
Q 3044 3113 2884 2869 
Q 2725 2625 2413 2481 
Q 2819 2388 3044 2092 
Q 3269 1797 3269 1353 
Q 3269 753 2831 336 
Q 2394 -81 1725 -81 
Q 1122 -81 723 278 
Q 325 638 269 1209 
z
" transform="scale(0.015625)"/>
       </defs>
       <use xlink:href="#ArialMT-33"/>
      </g>
     </g>
    </g>
    <g id="ytick_3">
     <g id="line2d_5">
      <g>
       <use xlink:href="#m5dffbc742c" x="38.70625" y="69.444628" style="stroke: #000000; stroke-width: 0.8"/>
      </g>
     </g>
     <g id="text_3">
      <!-- 6 -->
      <g transform="translate(26.145313 73.023534) scale(0.1 -0.1)">
       <defs>
        <path id="ArialMT-36" d="M 3184 3459 
L 2625 3416 
Q 2550 3747 2413 3897 
Q 2184 4138 1850 4138 
Q 1581 4138 1378 3988 
Q 1113 3794 959 3422 
Q 806 3050 800 2363 
Q 1003 2672 1297 2822 
Q 1591 2972 1913 2972 
Q 2475 2972 2870 2558 
Q 3266 2144 3266 1488 
Q 3266 1056 3080 686 
Q 2894 316 2569 119 
Q 2244 -78 1831 -78 
Q 1128 -78 684 439 
Q 241 956 241 2144 
Q 241 3472 731 4075 
Q 1159 4600 1884 4600 
Q 2425 4600 2770 4297 
Q 3116 3994 3184 3459 
z
M 888 1484 
Q 888 1194 1011 928 
Q 1134 663 1356 523 
Q 1578 384 1822 384 
Q 2178 384 2434 671 
Q 2691 959 2691 1453 
Q 2691 1928 2437 2201 
Q 2184 2475 1800 2475 
Q 1419 2475 1153 2201 
Q 888 1928 888 1484 
z
" transform="scale(0.015625)"/>
       </defs>
       <use xlink:href="#ArialMT-36"/>
      </g>
     </g>
    </g>
    <g id="ytick_4">
     <g id="line2d_6">
      <g>
       <use xlink:href="#m5dffbc742c" x="38.70625" y="54.580997" style="stroke: #000000; stroke-width: 0.8"/>
      </g>
     </g>
     <g id="text_4">
      <!-- 9 -->
      <g transform="translate(26.145313 58.159903) scale(0.1 -0.1)">
       <defs>
        <path id="ArialMT-39" d="M 350 1059 
L 891 1109 
Q 959 728 1153 556 
Q 1347 384 1650 384 
Q 1909 384 2104 503 
Q 2300 622 2425 820 
Q 2550 1019 2634 1356 
Q 2719 1694 2719 2044 
Q 2719 2081 2716 2156 
Q 2547 1888 2255 1720 
Q 1963 1553 1622 1553 
Q 1053 1553 659 1965 
Q 266 2378 266 3053 
Q 266 3750 677 4175 
Q 1088 4600 1706 4600 
Q 2153 4600 2523 4359 
Q 2894 4119 3086 3673 
Q 3278 3228 3278 2384 
Q 3278 1506 3087 986 
Q 2897 466 2520 194 
Q 2144 -78 1638 -78 
Q 1100 -78 759 220 
Q 419 519 350 1059 
z
M 2653 3081 
Q 2653 3566 2395 3850 
Q 2138 4134 1775 4134 
Q 1400 4134 1122 3828 
Q 844 3522 844 3034 
Q 844 2597 1108 2323 
Q 1372 2050 1759 2050 
Q 2150 2050 2401 2323 
Q 2653 2597 2653 3081 
z
" transform="scale(0.015625)"/>
       </defs>
       <use xlink:href="#ArialMT-39"/>
      </g>
     </g>
    </g>
    <g id="ytick_5">
     <g id="line2d_7">
      <g>
       <use xlink:href="#m5dffbc742c" x="38.70625" y="39.717366" style="stroke: #000000; stroke-width: 0.8"/>
      </g>
     </g>
     <g id="text_5">
      <!-- 12 -->
      <g transform="translate(20.584375 43.296272) scale(0.1 -0.1)">
       <defs>
        <path id="ArialMT-31" d="M 2384 0 
L 1822 0 
L 1822 3584 
Q 1619 3391 1289 3197 
Q 959 3003 697 2906 
L 697 3450 
Q 1169 3672 1522 3987 
Q 1875 4303 2022 4600 
L 2384 4600 
L 2384 0 
z
" transform="scale(0.015625)"/>
        <path id="ArialMT-32" d="M 3222 541 
L 3222 0 
L 194 0 
Q 188 203 259 391 
Q 375 700 629 1000 
Q 884 1300 1366 1694 
Q 2113 2306 2375 2664 
Q 2638 3022 2638 3341 
Q 2638 3675 2398 3904 
Q 2159 4134 1775 4134 
Q 1369 4134 1125 3890 
Q 881 3647 878 3216 
L 300 3275 
Q 359 3922 746 4261 
Q 1134 4600 1788 4600 
Q 2447 4600 2831 4234 
Q 3216 3869 3216 3328 
Q 3216 3053 3103 2787 
Q 2991 2522 2730 2228 
Q 2469 1934 1863 1422 
Q 1356 997 1212 845 
Q 1069 694 975 541 
L 3222 541 
z
" transform="scale(0.015625)"/>
       </defs>
       <use xlink:href="#ArialMT-31"/>
       <use xlink:href="#ArialMT-32" x="55.615234"/>
      </g>
     </g>
    </g>
    <g id="text_6">
     <!-- mean log2(TPM+1) -->
     <g transform="translate(14.479687 107.681094) rotate(-90) scale(0.1 -0.1)">
      <defs>
       <path id="Arial-BoldMT-6d" d="M 394 3319 
L 1203 3319 
L 1203 2866 
Q 1638 3394 2238 3394 
Q 2556 3394 2790 3262 
Q 3025 3131 3175 2866 
Q 3394 3131 3647 3262 
Q 3900 3394 4188 3394 
Q 4553 3394 4806 3245 
Q 5059 3097 5184 2809 
Q 5275 2597 5275 2122 
L 5275 0 
L 4397 0 
L 4397 1897 
Q 4397 2391 4306 2534 
Q 4184 2722 3931 2722 
Q 3747 2722 3584 2609 
Q 3422 2497 3350 2280 
Q 3278 2063 3278 1594 
L 3278 0 
L 2400 0 
L 2400 1819 
Q 2400 2303 2353 2443 
Q 2306 2584 2207 2653 
Q 2109 2722 1941 2722 
Q 1738 2722 1575 2612 
Q 1413 2503 1342 2297 
Q 1272 2091 1272 1613 
L 1272 0 
L 394 0 
L 394 3319 
z
" transform="scale(0.015625)"/>
       <path id="Arial-BoldMT-65" d="M 2381 1056 
L 3256 909 
Q 3088 428 2723 176 
Q 2359 -75 1813 -75 
Q 947 -75 531 491 
Q 203 944 203 1634 
Q 203 2459 634 2926 
Q 1066 3394 1725 3394 
Q 2466 3394 2894 2905 
Q 3322 2416 3303 1406 
L 1103 1406 
Q 1113 1016 1316 798 
Q 1519 581 1822 581 
Q 2028 581 2168 693 
Q 2309 806 2381 1056 
z
M 2431 1944 
Q 2422 2325 2234 2523 
Q 2047 2722 1778 2722 
Q 1491 2722 1303 2513 
Q 1116 2303 1119 1944 
L 2431 1944 
z
" transform="scale(0.015625)"/>
       <path id="Arial-BoldMT-61" d="M 1116 2306 
L 319 2450 
Q 453 2931 781 3162 
Q 1109 3394 1756 3394 
Q 2344 3394 2631 3255 
Q 2919 3116 3036 2902 
Q 3153 2688 3153 2116 
L 3144 1091 
Q 3144 653 3186 445 
Q 3228 238 3344 0 
L 2475 0 
Q 2441 88 2391 259 
Q 2369 338 2359 363 
Q 2134 144 1878 34 
Q 1622 -75 1331 -75 
Q 819 -75 523 203 
Q 228 481 228 906 
Q 228 1188 362 1408 
Q 497 1628 739 1745 
Q 981 1863 1438 1950 
Q 2053 2066 2291 2166 
L 2291 2253 
Q 2291 2506 2166 2614 
Q 2041 2722 1694 2722 
Q 1459 2722 1328 2630 
Q 1197 2538 1116 2306 
z
M 2291 1594 
Q 2122 1538 1756 1459 
Q 1391 1381 1278 1306 
Q 1106 1184 1106 997 
Q 1106 813 1243 678 
Q 1381 544 1594 544 
Q 1831 544 2047 700 
Q 2206 819 2256 991 
Q 2291 1103 2291 1419 
L 2291 1594 
z
" transform="scale(0.015625)"/>
       <path id="Arial-BoldMT-6e" d="M 3478 0 
L 2600 0 
L 2600 1694 
Q 2600 2231 2544 2389 
Q 2488 2547 2361 2634 
Q 2234 2722 2056 2722 
Q 1828 2722 1647 2597 
Q 1466 2472 1398 2265 
Q 1331 2059 1331 1503 
L 1331 0 
L 453 0 
L 453 3319 
L 1269 3319 
L 1269 2831 
Q 1703 3394 2363 3394 
Q 2653 3394 2893 3289 
Q 3134 3184 3257 3021 
Q 3381 2859 3429 2653 
Q 3478 2447 3478 2063 
L 3478 0 
z
" transform="scale(0.015625)"/>
       <path id="Arial-BoldMT-20" transform="scale(0.015625)"/>
       <path id="Arial-BoldMT-6c" d="M 459 0 
L 459 4581 
L 1338 4581 
L 1338 0 
L 459 0 
z
" transform="scale(0.015625)"/>
       <path id="Arial-BoldMT-6f" d="M 256 1706 
Q 256 2144 472 2553 
Q 688 2963 1083 3178 
Q 1478 3394 1966 3394 
Q 2719 3394 3200 2905 
Q 3681 2416 3681 1669 
Q 3681 916 3195 420 
Q 2709 -75 1972 -75 
Q 1516 -75 1102 131 
Q 688 338 472 736 
Q 256 1134 256 1706 
z
M 1156 1659 
Q 1156 1166 1390 903 
Q 1625 641 1969 641 
Q 2313 641 2545 903 
Q 2778 1166 2778 1666 
Q 2778 2153 2545 2415 
Q 2313 2678 1969 2678 
Q 1625 2678 1390 2415 
Q 1156 2153 1156 1659 
z
" transform="scale(0.015625)"/>
       <path id="Arial-BoldMT-67" d="M 378 -219 
L 1381 -341 
Q 1406 -516 1497 -581 
Q 1622 -675 1891 -675 
Q 2234 -675 2406 -572 
Q 2522 -503 2581 -350 
Q 2622 -241 2622 53 
L 2622 538 
Q 2228 0 1628 0 
Q 959 0 569 566 
Q 263 1013 263 1678 
Q 263 2513 664 2953 
Q 1066 3394 1663 3394 
Q 2278 3394 2678 2853 
L 2678 3319 
L 3500 3319 
L 3500 341 
Q 3500 -247 3403 -537 
Q 3306 -828 3131 -993 
Q 2956 -1159 2664 -1253 
Q 2372 -1347 1925 -1347 
Q 1081 -1347 728 -1058 
Q 375 -769 375 -325 
Q 375 -281 378 -219 
z
M 1163 1728 
Q 1163 1200 1367 954 
Q 1572 709 1872 709 
Q 2194 709 2416 961 
Q 2638 1213 2638 1706 
Q 2638 2222 2425 2472 
Q 2213 2722 1888 2722 
Q 1572 2722 1367 2476 
Q 1163 2231 1163 1728 
z
" transform="scale(0.015625)"/>
       <path id="Arial-BoldMT-32" d="M 3238 816 
L 3238 0 
L 159 0 
Q 209 463 459 877 
Q 709 1291 1447 1975 
Q 2041 2528 2175 2725 
Q 2356 2997 2356 3263 
Q 2356 3556 2198 3714 
Q 2041 3872 1763 3872 
Q 1488 3872 1325 3706 
Q 1163 3541 1138 3156 
L 263 3244 
Q 341 3969 753 4284 
Q 1166 4600 1784 4600 
Q 2463 4600 2850 4234 
Q 3238 3869 3238 3325 
Q 3238 3016 3127 2736 
Q 3016 2456 2775 2150 
Q 2616 1947 2200 1565 
Q 1784 1184 1673 1059 
Q 1563 934 1494 816 
L 3238 816 
z
" transform="scale(0.015625)"/>
       <path id="Arial-BoldMT-28" d="M 1916 -1347 
L 1313 -1347 
Q 834 -625 584 153 
Q 334 931 334 1659 
Q 334 2563 644 3369 
Q 913 4069 1325 4659 
L 1925 4659 
Q 1497 3713 1336 3048 
Q 1175 2384 1175 1641 
Q 1175 1128 1270 590 
Q 1366 53 1531 -431 
Q 1641 -750 1916 -1347 
z
" transform="scale(0.015625)"/>
       <path id="Arial-BoldMT-54" d="M 1497 0 
L 1497 3806 
L 138 3806 
L 138 4581 
L 3778 4581 
L 3778 3806 
L 2422 3806 
L 2422 0 
L 1497 0 
z
" transform="scale(0.015625)"/>
       <path id="Arial-BoldMT-50" d="M 466 0 
L 466 4581 
L 1950 4581 
Q 2794 4581 3050 4513 
Q 3444 4409 3709 4064 
Q 3975 3719 3975 3172 
Q 3975 2750 3822 2462 
Q 3669 2175 3433 2011 
Q 3197 1847 2953 1794 
Q 2622 1728 1994 1728 
L 1391 1728 
L 1391 0 
L 466 0 
z
M 1391 3806 
L 1391 2506 
L 1897 2506 
Q 2444 2506 2628 2578 
Q 2813 2650 2917 2803 
Q 3022 2956 3022 3159 
Q 3022 3409 2875 3571 
Q 2728 3734 2503 3775 
Q 2338 3806 1838 3806 
L 1391 3806 
z
" transform="scale(0.015625)"/>
       <path id="Arial-BoldMT-4d" d="M 453 0 
L 453 4581 
L 1838 4581 
L 2669 1456 
L 3491 4581 
L 4878 4581 
L 4878 0 
L 4019 0 
L 4019 3606 
L 3109 0 
L 2219 0 
L 1313 3606 
L 1313 0 
L 453 0 
z
" transform="scale(0.015625)"/>
       <path id="Arial-BoldMT-2b" d="M 1466 659 
L 1466 1850 
L 266 1850 
L 266 2672 
L 1466 2672 
L 1466 3863 
L 2266 3863 
L 2266 2672 
L 3469 2672 
L 3469 1850 
L 2266 1850 
L 2266 659 
L 1466 659 
z
" transform="scale(0.015625)"/>
       <path id="Arial-BoldMT-31" d="M 2519 0 
L 1641 0 
L 1641 3309 
Q 1159 2859 506 2644 
L 506 3441 
Q 850 3553 1253 3867 
Q 1656 4181 1806 4600 
L 2519 4600 
L 2519 0 
z
" transform="scale(0.015625)"/>
       <path id="Arial-BoldMT-29" d="M 216 -1347 
Q 475 -791 581 -494 
Q 688 -197 778 190 
Q 869 578 912 926 
Q 956 1275 956 1641 
Q 956 2384 797 3048 
Q 638 3713 209 4659 
L 806 4659 
Q 1278 3988 1539 3234 
Q 1800 2481 1800 1706 
Q 1800 1053 1594 306 
Q 1359 -531 822 -1347 
L 216 -1347 
z
" transform="scale(0.015625)"/>
      </defs>
      <use xlink:href="#Arial-BoldMT-6d"/>
      <use xlink:href="#Arial-BoldMT-65" x="88.916016"/>
      <use xlink:href="#Arial-BoldMT-61" x="144.53125"/>
      <use xlink:href="#Arial-BoldMT-6e" x="200.146484"/>
      <use xlink:href="#Arial-BoldMT-20" x="261.230469"/>
      <use xlink:href="#Arial-BoldMT-6c" x="289.013672"/>
      <use xlink:href="#Arial-BoldMT-6f" x="316.796875"/>
      <use xlink:href="#Arial-BoldMT-67" x="377.880859"/>
      <use xlink:href="#Arial-BoldMT-32" x="438.964844"/>
      <use xlink:href="#Arial-BoldMT-28" x="494.580078"/>
      <use xlink:href="#Arial-BoldMT-54" x="527.880859"/>
      <use xlink:href="#Arial-BoldMT-50" x="588.964844"/>
      <use xlink:href="#Arial-BoldMT-4d" x="655.664062"/>
      <use xlink:href="#Arial-BoldMT-2b" x="738.964844"/>
      <use xlink:href="#Arial-BoldMT-31" x="797.363281"/>
      <use xlink:href="#Arial-BoldMT-29" x="852.978516"/>
     </g>
    </g>
   </g>
   <g id="line2d_8">
    <path d="M 46.364151 74.760284 
L 86.848349 74.760284 
" clip-path="url(#pf44e638917)" style="fill: none; stroke-dasharray: 1.5625,0.9375; stroke-dashoffset: 0; stroke: #474747; stroke-width: 1.25"/>
   </g>
   <g id="line2d_9">
    <path d="M 45.076768 70.503952 
L 88.135732 70.503952 
" clip-path="url(#pf44e638917)" style="fill: none; stroke-dasharray: 3.125,1.25; stroke-dashoffset: 0; stroke: #474747; stroke-width: 1.25"/>
   </g>
   <g id="line2d_10">
    <path d="M 52.957339 65.040555 
L 80.255161 65.040555 
" clip-path="url(#pf44e638917)" style="fill: none; stroke-dasharray: 1.5625,0.9375; stroke-dashoffset: 0; stroke: #474747; stroke-width: 1.25"/>
   </g>
   <g id="line2d_11">
    <path d="M 102.796194 83.023385 
L 142.016306 83.023385 
" clip-path="url(#pf44e638917)" style="fill: none; stroke-dasharray: 1.5625,0.9375; stroke-dashoffset: 0; stroke: #474747; stroke-width: 1.25"/>
   </g>
   <g id="line2d_12">
    <path d="M 100.086701 76.422623 
L 144.725799 76.422623 
" clip-path="url(#pf44e638917)" style="fill: none; stroke-dasharray: 3.125,1.25; stroke-dashoffset: 0; stroke: #474747; stroke-width: 1.25"/>
   </g>
   <g id="line2d_13">
    <path d="M 107.260507 69.539149 
L 137.551993 69.539149 
" clip-path="url(#pf44e638917)" style="fill: none; stroke-dasharray: 1.5625,0.9375; stroke-dashoffset: 0; stroke: #474747; stroke-width: 1.25"/>
   </g>
   <g id="patch_3">
    <path d="M 38.70625 104.949375 
L 38.70625 21.789375 
" style="fill: none; stroke: #000000; stroke-linejoin: miter; stroke-linecap: square"/>
   </g>
   <g id="patch_4">
    <path d="M 150.30625 104.949375 
L 150.30625 21.789375 
" style="fill: none; stroke: #000000; stroke-linejoin: miter; stroke-linecap: square"/>
   </g>
   <g id="patch_5">
    <path d="M 38.70625 104.949375 
L 150.30625 104.949375 
" style="fill: none; stroke: #000000; stroke-linejoin: miter; stroke-linecap: square"/>
   </g>
   <g id="patch_6">
    <path d="M 38.70625 21.789375 
L 150.30625 21.789375 
" style="fill: none; stroke: #000000; stroke-linejoin: miter; stroke-linecap: square"/>
   </g>
   <g id="text_7">
    <!-- p=6.6e-10 -->
    <g style="fill: #ff0000" transform="translate(72.18625 38.421375) scale(0.1 -0.1)">
     <defs>
      <path id="ArialMT-70" d="M 422 -1272 
L 422 3319 
L 934 3319 
L 934 2888 
Q 1116 3141 1344 3267 
Q 1572 3394 1897 3394 
Q 2322 3394 2647 3175 
Q 2972 2956 3137 2557 
Q 3303 2159 3303 1684 
Q 3303 1175 3120 767 
Q 2938 359 2589 142 
Q 2241 -75 1856 -75 
Q 1575 -75 1351 44 
Q 1128 163 984 344 
L 984 -1272 
L 422 -1272 
z
M 931 1641 
Q 931 1000 1190 694 
Q 1450 388 1819 388 
Q 2194 388 2461 705 
Q 2728 1022 2728 1688 
Q 2728 2322 2467 2637 
Q 2206 2953 1844 2953 
Q 1484 2953 1207 2617 
Q 931 2281 931 1641 
z
" transform="scale(0.015625)"/>
      <path id="ArialMT-3d" d="M 3381 2694 
L 356 2694 
L 356 3219 
L 3381 3219 
L 3381 2694 
z
M 3381 1303 
L 356 1303 
L 356 1828 
L 3381 1828 
L 3381 1303 
z
" transform="scale(0.015625)"/>
      <path id="ArialMT-2e" d="M 581 0 
L 581 641 
L 1222 641 
L 1222 0 
L 581 0 
z
" transform="scale(0.015625)"/>
      <path id="ArialMT-65" d="M 2694 1069 
L 3275 997 
Q 3138 488 2766 206 
Q 2394 -75 1816 -75 
Q 1088 -75 661 373 
Q 234 822 234 1631 
Q 234 2469 665 2931 
Q 1097 3394 1784 3394 
Q 2450 3394 2872 2941 
Q 3294 2488 3294 1666 
Q 3294 1616 3291 1516 
L 816 1516 
Q 847 969 1125 678 
Q 1403 388 1819 388 
Q 2128 388 2347 550 
Q 2566 713 2694 1069 
z
M 847 1978 
L 2700 1978 
Q 2663 2397 2488 2606 
Q 2219 2931 1791 2931 
Q 1403 2931 1139 2672 
Q 875 2413 847 1978 
z
" transform="scale(0.015625)"/>
      <path id="ArialMT-2d" d="M 203 1375 
L 203 1941 
L 1931 1941 
L 1931 1375 
L 203 1375 
z
" transform="scale(0.015625)"/>
     </defs>
     <use xlink:href="#ArialMT-70"/>
     <use xlink:href="#ArialMT-3d" x="55.615234"/>
     <use xlink:href="#ArialMT-36" x="114.013672"/>
     <use xlink:href="#ArialMT-2e" x="169.628906"/>
     <use xlink:href="#ArialMT-36" x="197.412109"/>
     <use xlink:href="#ArialMT-65" x="253.027344"/>
     <use xlink:href="#ArialMT-2d" x="308.642578"/>
     <use xlink:href="#ArialMT-31" x="341.943359"/>
     <use xlink:href="#ArialMT-30" x="397.558594"/>
    </g>
   </g>
   <g id="text_8">
    <!-- Transcription abundance -->
    <g transform="translate(23.164375 15.789375) scale(0.12 -0.12)">
     <defs>
      <path id="Arial-BoldMT-72" d="M 1300 0 
L 422 0 
L 422 3319 
L 1238 3319 
L 1238 2847 
Q 1447 3181 1614 3287 
Q 1781 3394 1994 3394 
Q 2294 3394 2572 3228 
L 2300 2463 
Q 2078 2606 1888 2606 
Q 1703 2606 1575 2504 
Q 1447 2403 1373 2137 
Q 1300 1872 1300 1025 
L 1300 0 
z
" transform="scale(0.015625)"/>
      <path id="Arial-BoldMT-73" d="M 150 947 
L 1031 1081 
Q 1088 825 1259 692 
Q 1431 559 1741 559 
Q 2081 559 2253 684 
Q 2369 772 2369 919 
Q 2369 1019 2306 1084 
Q 2241 1147 2013 1200 
Q 950 1434 666 1628 
Q 272 1897 272 2375 
Q 272 2806 612 3100 
Q 953 3394 1669 3394 
Q 2350 3394 2681 3172 
Q 3013 2950 3138 2516 
L 2309 2363 
Q 2256 2556 2107 2659 
Q 1959 2763 1684 2763 
Q 1338 2763 1188 2666 
Q 1088 2597 1088 2488 
Q 1088 2394 1175 2328 
Q 1294 2241 1995 2081 
Q 2697 1922 2975 1691 
Q 3250 1456 3250 1038 
Q 3250 581 2869 253 
Q 2488 -75 1741 -75 
Q 1063 -75 667 200 
Q 272 475 150 947 
z
" transform="scale(0.015625)"/>
      <path id="Arial-BoldMT-63" d="M 3353 2338 
L 2488 2181 
Q 2444 2441 2289 2572 
Q 2134 2703 1888 2703 
Q 1559 2703 1364 2476 
Q 1169 2250 1169 1719 
Q 1169 1128 1367 884 
Q 1566 641 1900 641 
Q 2150 641 2309 783 
Q 2469 925 2534 1272 
L 3397 1125 
Q 3263 531 2881 228 
Q 2500 -75 1859 -75 
Q 1131 -75 698 384 
Q 266 844 266 1656 
Q 266 2478 700 2936 
Q 1134 3394 1875 3394 
Q 2481 3394 2839 3133 
Q 3197 2872 3353 2338 
z
" transform="scale(0.015625)"/>
      <path id="Arial-BoldMT-69" d="M 459 3769 
L 459 4581 
L 1338 4581 
L 1338 3769 
L 459 3769 
z
M 459 0 
L 459 3319 
L 1338 3319 
L 1338 0 
L 459 0 
z
" transform="scale(0.015625)"/>
      <path id="Arial-BoldMT-70" d="M 434 3319 
L 1253 3319 
L 1253 2831 
Q 1413 3081 1684 3237 
Q 1956 3394 2288 3394 
Q 2866 3394 3269 2941 
Q 3672 2488 3672 1678 
Q 3672 847 3265 386 
Q 2859 -75 2281 -75 
Q 2006 -75 1782 34 
Q 1559 144 1313 409 
L 1313 -1263 
L 434 -1263 
L 434 3319 
z
M 1303 1716 
Q 1303 1156 1525 889 
Q 1747 622 2066 622 
Q 2372 622 2575 867 
Q 2778 1113 2778 1672 
Q 2778 2194 2568 2447 
Q 2359 2700 2050 2700 
Q 1728 2700 1515 2451 
Q 1303 2203 1303 1716 
z
" transform="scale(0.015625)"/>
      <path id="Arial-BoldMT-74" d="M 1981 3319 
L 1981 2619 
L 1381 2619 
L 1381 1281 
Q 1381 875 1398 808 
Q 1416 741 1477 697 
Q 1538 653 1625 653 
Q 1747 653 1978 738 
L 2053 56 
Q 1747 -75 1359 -75 
Q 1122 -75 931 4 
Q 741 84 652 211 
Q 563 338 528 553 
Q 500 706 500 1172 
L 500 2619 
L 97 2619 
L 97 3319 
L 500 3319 
L 500 3978 
L 1381 4491 
L 1381 3319 
L 1981 3319 
z
" transform="scale(0.015625)"/>
      <path id="Arial-BoldMT-62" d="M 422 0 
L 422 4581 
L 1300 4581 
L 1300 2931 
Q 1706 3394 2263 3394 
Q 2869 3394 3266 2955 
Q 3663 2516 3663 1694 
Q 3663 844 3258 384 
Q 2853 -75 2275 -75 
Q 1991 -75 1714 67 
Q 1438 209 1238 488 
L 1238 0 
L 422 0 
z
M 1294 1731 
Q 1294 1216 1456 969 
Q 1684 619 2063 619 
Q 2353 619 2558 867 
Q 2763 1116 2763 1650 
Q 2763 2219 2556 2470 
Q 2350 2722 2028 2722 
Q 1713 2722 1503 2476 
Q 1294 2231 1294 1731 
z
" transform="scale(0.015625)"/>
      <path id="Arial-BoldMT-75" d="M 2644 0 
L 2644 497 
Q 2463 231 2167 78 
Q 1872 -75 1544 -75 
Q 1209 -75 943 72 
Q 678 219 559 484 
Q 441 750 441 1219 
L 441 3319 
L 1319 3319 
L 1319 1794 
Q 1319 1094 1367 936 
Q 1416 778 1544 686 
Q 1672 594 1869 594 
Q 2094 594 2272 717 
Q 2450 841 2515 1023 
Q 2581 1206 2581 1919 
L 2581 3319 
L 3459 3319 
L 3459 0 
L 2644 0 
z
" transform="scale(0.015625)"/>
      <path id="Arial-BoldMT-64" d="M 3503 0 
L 2688 0 
L 2688 488 
Q 2484 203 2207 64 
Q 1931 -75 1650 -75 
Q 1078 -75 670 386 
Q 263 847 263 1672 
Q 263 2516 659 2955 
Q 1056 3394 1663 3394 
Q 2219 3394 2625 2931 
L 2625 4581 
L 3503 4581 
L 3503 0 
z
M 1159 1731 
Q 1159 1200 1306 963 
Q 1519 619 1900 619 
Q 2203 619 2415 876 
Q 2628 1134 2628 1647 
Q 2628 2219 2422 2470 
Q 2216 2722 1894 2722 
Q 1581 2722 1370 2473 
Q 1159 2225 1159 1731 
z
" transform="scale(0.015625)"/>
     </defs>
     <use xlink:href="#Arial-BoldMT-54"/>
     <use xlink:href="#Arial-BoldMT-72" x="55.583984"/>
     <use xlink:href="#Arial-BoldMT-61" x="94.5"/>
     <use xlink:href="#Arial-BoldMT-6e" x="150.115234"/>
     <use xlink:href="#Arial-BoldMT-73" x="211.199219"/>
     <use xlink:href="#Arial-BoldMT-63" x="266.814453"/>
     <use xlink:href="#Arial-BoldMT-72" x="322.429688"/>
     <use xlink:href="#Arial-BoldMT-69" x="361.345703"/>
     <use xlink:href="#Arial-BoldMT-70" x="389.128906"/>
     <use xlink:href="#Arial-BoldMT-74" x="450.212891"/>
     <use xlink:href="#Arial-BoldMT-69" x="483.513672"/>
     <use xlink:href="#Arial-BoldMT-6f" x="511.296875"/>
     <use xlink:href="#Arial-BoldMT-6e" x="572.380859"/>
     <use xlink:href="#Arial-BoldMT-20" x="633.464844"/>
     <use xlink:href="#Arial-BoldMT-61" x="661.248047"/>
     <use xlink:href="#Arial-BoldMT-62" x="716.863281"/>
     <use xlink:href="#Arial-BoldMT-75" x="777.947266"/>
     <use xlink:href="#Arial-BoldMT-6e" x="839.03125"/>
     <use xlink:href="#Arial-BoldMT-64" x="900.115234"/>
     <use xlink:href="#Arial-BoldMT-61" x="961.199219"/>
     <use xlink:href="#Arial-BoldMT-6e" x="1016.814453"/>
     <use xlink:href="#Arial-BoldMT-63" x="1077.898438"/>
     <use xlink:href="#Arial-BoldMT-65" x="1133.513672"/>
    </g>
   </g>
  </g>
 </g>
 <defs>
  <clipPath id="pf44e638917">
   <rect x="38.70625" y="21.789375" width="111.6" height="83.16"/>
  </clipPath>
 </defs>
</svg>
