<?xml version="1.0" encoding="utf-8" standalone="no"?>
<!DOCTYPE svg PUBLIC "-//W3C//DTD SVG 1.1//EN"
  "http://www.w3.org/Graphics/SVG/1.1/DTD/svg11.dtd">
<svg xmlns:xlink="http://www.w3.org/1999/xlink" width="279.671875pt" height="416.950813pt" viewBox="0 0 279.671875 416.950813" xmlns="http://www.w3.org/2000/svg" version="1.1">
 <metadata>
  <rdf:RDF xmlns:dc="http://purl.org/dc/elements/1.1/" xmlns:cc="http://creativecommons.org/ns#" xmlns:rdf="http://www.w3.org/1999/02/22-rdf-syntax-ns#">
   <cc:Work>
    <dc:type rdf:resource="http://purl.org/dc/dcmitype/StillImage"/>
    <dc:date>2024-12-12T14:19:46.384270</dc:date>
    <dc:format>image/svg+xml</dc:format>
    <dc:creator>
     <cc:Agent>
      <dc:title>Matplotlib v3.9.2, https://matplotlib.org/</dc:title>
     </cc:Agent>
    </dc:creator>
   </cc:Work>
  </rdf:RDF>
 </metadata>
 <defs>
  <style type="text/css">*{stroke-linejoin: round; stroke-linecap: butt}</style>
 </defs>
 <g id="figure_1">
  <g id="patch_1">
   <path d="M 0 416.950813 
L 279.671875 416.950813 
L 279.671875 0 
L 0 0 
L 0 416.950813 
z
" style="fill: none"/>
  </g>
  <g id="axes_1">
   <g id="patch_2">
    <path d="M 160.871875 378.648 
L 272.471875 378.648 
L 272.471875 7.2 
L 160.871875 7.2 
L 160.871875 378.648 
z
" style="fill: none"/>
   </g>
   <g id="patch_3">
    <path d="M 160.871875 361.764 
L 267.157589 361.764 
L 267.157589 350.871097 
L 160.871875 350.871097 
z
" clip-path="url(#pefe1d85e46)" style="fill: #7570b3"/>
   </g>
   <g id="patch_4">
    <path d="M 160.871875 346.20271 
L 214.58925 346.20271 
L 214.58925 335.309806 
L 160.871875 335.309806 
z
" clip-path="url(#pefe1d85e46)" style="fill: #7570b3"/>
   </g>
   <g id="patch_5">
    <path d="M 160.871875 330.641419 
L 209.418593 330.641419 
L 209.418593 319.748516 
L 160.871875 319.748516 
z
" clip-path="url(#pefe1d85e46)" style="fill: #7570b3"/>
   </g>
   <g id="patch_6">
    <path d="M 160.871875 315.080129 
L 207.695041 315.080129 
L 207.695041 304.187226 
L 160.871875 304.187226 
z
" clip-path="url(#pefe1d85e46)" style="fill: #7570b3"/>
   </g>
   <g id="patch_7">
    <path d="M 160.871875 299.518839 
L 198.215504 299.518839 
L 198.215504 288.625935 
L 160.871875 288.625935 
z
" clip-path="url(#pefe1d85e46)" style="fill: #7570b3"/>
   </g>
   <g id="patch_8">
    <path d="M 160.871875 283.957548 
L 191.321296 283.957548 
L 191.321296 273.064645 
L 160.871875 273.064645 
z
" clip-path="url(#pefe1d85e46)" style="fill: #7570b3"/>
   </g>
   <g id="patch_9">
    <path d="M 160.871875 268.396258 
L 189.023226 268.396258 
L 189.023226 257.503355 
L 160.871875 257.503355 
z
" clip-path="url(#pefe1d85e46)" style="fill: #7570b3"/>
   </g>
   <g id="patch_10">
    <path d="M 160.871875 252.834968 
L 186.150639 252.834968 
L 186.150639 241.942065 
L 160.871875 241.942065 
z
" clip-path="url(#pefe1d85e46)" style="fill: #7570b3"/>
   </g>
   <g id="patch_11">
    <path d="M 160.871875 237.273677 
L 180.692724 237.273677 
L 180.692724 226.380774 
L 160.871875 226.380774 
z
" clip-path="url(#pefe1d85e46)" style="fill: #7570b3"/>
   </g>
   <g id="patch_12">
    <path d="M 160.871875 221.712387 
L 176.383844 221.712387 
L 176.383844 210.819484 
L 160.871875 210.819484 
z
" clip-path="url(#pefe1d85e46)" style="fill: #7570b3"/>
   </g>
   <g id="patch_13">
    <path d="M 160.871875 206.151097 
L 174.085775 206.151097 
L 174.085775 195.258194 
L 160.871875 195.258194 
z
" clip-path="url(#pefe1d85e46)" style="fill: #7570b3"/>
   </g>
   <g id="patch_14">
    <path d="M 160.871875 190.589806 
L 172.93674 190.589806 
L 172.93674 179.696903 
L 160.871875 179.696903 
z
" clip-path="url(#pefe1d85e46)" style="fill: #7570b3"/>
   </g>
   <g id="patch_15">
    <path d="M 160.871875 175.028516 
L 172.074964 175.028516 
L 172.074964 164.135613 
L 160.871875 164.135613 
z
" clip-path="url(#pefe1d85e46)" style="fill: #7570b3"/>
   </g>
   <g id="patch_16">
    <path d="M 160.871875 159.467226 
L 172.074964 159.467226 
L 172.074964 148.574323 
L 160.871875 148.574323 
z
" clip-path="url(#pefe1d85e46)" style="fill: #7570b3"/>
   </g>
   <g id="patch_17">
    <path d="M 160.871875 143.905935 
L 171.213188 143.905935 
L 171.213188 133.013032 
L 160.871875 133.013032 
z
" clip-path="url(#pefe1d85e46)" style="fill: #7570b3"/>
   </g>
   <g id="patch_18">
    <path d="M 160.871875 128.344645 
L 169.776894 128.344645 
L 169.776894 117.451742 
L 160.871875 117.451742 
z
" clip-path="url(#pefe1d85e46)" style="fill: #7570b3"/>
   </g>
   <g id="patch_19">
    <path d="M 160.871875 112.783355 
L 169.776894 112.783355 
L 169.776894 101.890452 
L 160.871875 101.890452 
z
" clip-path="url(#pefe1d85e46)" style="fill: #7570b3"/>
   </g>
   <g id="patch_20">
    <path d="M 160.871875 97.222065 
L 166.904307 97.222065 
L 166.904307 86.329161 
L 160.871875 86.329161 
z
" clip-path="url(#pefe1d85e46)" style="fill: #7570b3"/>
   </g>
   <g id="patch_21">
    <path d="M 160.871875 81.660774 
L 166.904307 81.660774 
L 166.904307 70.767871 
L 160.871875 70.767871 
z
" clip-path="url(#pefe1d85e46)" style="fill: #7570b3"/>
   </g>
   <g id="patch_22">
    <path d="M 160.871875 66.099484 
L 166.32979 66.099484 
L 166.32979 55.206581 
L 160.871875 55.206581 
z
" clip-path="url(#pefe1d85e46)" style="fill: #7570b3"/>
   </g>
   <g id="patch_23">
    <path d="M 160.871875 50.538194 
L 166.042531 50.538194 
L 166.042531 39.64529 
L 160.871875 39.64529 
z
" clip-path="url(#pefe1d85e46)" style="fill: #7570b3"/>
   </g>
   <g id="patch_24">
    <path d="M 160.871875 34.976903 
L 164.893497 34.976903 
L 164.893497 24.084 
L 160.871875 24.084 
z
" clip-path="url(#pefe1d85e46)" style="fill: #7570b3"/>
   </g>
   <g id="patch_25">
    <path d="M 160.871875 361.764 
L 231.537512 361.764 
L 231.537512 350.871097 
L 160.871875 350.871097 
z
" clip-path="url(#pefe1d85e46)" style="fill: #1b9e77"/>
   </g>
   <g id="patch_26">
    <path d="M 160.871875 346.20271 
L 179.256431 346.20271 
L 179.256431 335.309806 
L 160.871875 335.309806 
z
" clip-path="url(#pefe1d85e46)" style="fill: #1b9e77"/>
   </g>
   <g id="patch_27">
    <path d="M 160.871875 330.641419 
L 198.790022 330.641419 
L 198.790022 319.748516 
L 160.871875 319.748516 
z
" clip-path="url(#pefe1d85e46)" style="fill: #1b9e77"/>
   </g>
   <g id="patch_28">
    <path d="M 160.871875 315.080129 
L 173.798516 315.080129 
L 173.798516 304.187226 
L 160.871875 304.187226 
z
" clip-path="url(#pefe1d85e46)" style="fill: #1b9e77"/>
   </g>
   <g id="patch_29">
    <path d="M 160.871875 299.518839 
L 190.746778 299.518839 
L 190.746778 288.625935 
L 160.871875 288.625935 
z
" clip-path="url(#pefe1d85e46)" style="fill: #1b9e77"/>
   </g>
   <g id="patch_30">
    <path d="M 160.871875 283.957548 
L 168.915118 283.957548 
L 168.915118 273.064645 
L 160.871875 273.064645 
z
" clip-path="url(#pefe1d85e46)" style="fill: #1b9e77"/>
   </g>
   <g id="patch_31">
    <path d="M 160.871875 268.396258 
L 160.871875 268.396258 
L 160.871875 257.503355 
L 160.871875 257.503355 
z
" clip-path="url(#pefe1d85e46)" style="fill: #1b9e77"/>
   </g>
   <g id="patch_32">
    <path d="M 160.871875 252.834968 
L 174.660292 252.834968 
L 174.660292 241.942065 
L 160.871875 241.942065 
z
" clip-path="url(#pefe1d85e46)" style="fill: #1b9e77"/>
   </g>
   <g id="patch_33">
    <path d="M 160.871875 237.273677 
L 160.871875 237.273677 
L 160.871875 226.380774 
L 160.871875 226.380774 
z
" clip-path="url(#pefe1d85e46)" style="fill: #1b9e77"/>
   </g>
   <g id="patch_34">
    <path d="M 160.871875 221.712387 
L 174.085775 221.712387 
L 174.085775 210.819484 
L 160.871875 210.819484 
z
" clip-path="url(#pefe1d85e46)" style="fill: #1b9e77"/>
   </g>
   <g id="patch_35">
    <path d="M 160.871875 206.151097 
L 168.62786 206.151097 
L 168.62786 195.258194 
L 160.871875 195.258194 
z
" clip-path="url(#pefe1d85e46)" style="fill: #1b9e77"/>
   </g>
   <g id="patch_36">
    <path d="M 160.871875 190.589806 
L 170.63867 190.589806 
L 170.63867 179.696903 
L 160.871875 179.696903 
z
" clip-path="url(#pefe1d85e46)" style="fill: #1b9e77"/>
   </g>
   <g id="patch_37">
    <path d="M 160.871875 175.028516 
L 168.62786 175.028516 
L 168.62786 164.135613 
L 160.871875 164.135613 
z
" clip-path="url(#pefe1d85e46)" style="fill: #1b9e77"/>
   </g>
   <g id="patch_38">
    <path d="M 160.871875 159.467226 
L 169.489636 159.467226 
L 169.489636 148.574323 
L 160.871875 148.574323 
z
" clip-path="url(#pefe1d85e46)" style="fill: #1b9e77"/>
   </g>
   <g id="patch_39">
    <path d="M 160.871875 143.905935 
L 171.213188 143.905935 
L 171.213188 133.013032 
L 160.871875 133.013032 
z
" clip-path="url(#pefe1d85e46)" style="fill: #1b9e77"/>
   </g>
   <g id="patch_40">
    <path d="M 160.871875 128.344645 
L 168.915118 128.344645 
L 168.915118 117.451742 
L 160.871875 117.451742 
z
" clip-path="url(#pefe1d85e46)" style="fill: #1b9e77"/>
   </g>
   <g id="patch_41">
    <path d="M 160.871875 112.783355 
L 168.915118 112.783355 
L 168.915118 101.890452 
L 160.871875 101.890452 
z
" clip-path="url(#pefe1d85e46)" style="fill: #1b9e77"/>
   </g>
   <g id="patch_42">
    <path d="M 160.871875 97.222065 
L 166.617049 97.222065 
L 166.617049 86.329161 
L 160.871875 86.329161 
z
" clip-path="url(#pefe1d85e46)" style="fill: #1b9e77"/>
   </g>
   <g id="patch_43">
    <path d="M 160.871875 81.660774 
L 160.871875 81.660774 
L 160.871875 70.767871 
L 160.871875 70.767871 
z
" clip-path="url(#pefe1d85e46)" style="fill: #1b9e77"/>
   </g>
   <g id="patch_44">
    <path d="M 160.871875 66.099484 
L 161.446392 66.099484 
L 161.446392 55.206581 
L 160.871875 55.206581 
z
" clip-path="url(#pefe1d85e46)" style="fill: #1b9e77"/>
   </g>
   <g id="patch_45">
    <path d="M 160.871875 50.538194 
L 165.755273 50.538194 
L 165.755273 39.64529 
L 160.871875 39.64529 
z
" clip-path="url(#pefe1d85e46)" style="fill: #1b9e77"/>
   </g>
   <g id="patch_46">
    <path d="M 160.871875 34.976903 
L 164.031721 34.976903 
L 164.031721 24.084 
L 160.871875 24.084 
z
" clip-path="url(#pefe1d85e46)" style="fill: #1b9e77"/>
   </g>
   <g id="matplotlib.axis_1">
    <g id="xtick_1">
     <g id="line2d_1">
      <defs>
       <path id="m279cb6e6b2" d="M 0 0 
L 0 3.5 
" style="stroke: #000000; stroke-width: 0.8"/>
      </defs>
      <g>
       <use xlink:href="#m279cb6e6b2" x="160.871875" y="378.648" style="stroke: #000000; stroke-width: 0.8"/>
      </g>
     </g>
     <g id="text_1">
      <!-- 0 -->
      <g transform="translate(158.091406 392.805813) scale(0.1 -0.1)">
       <defs>
        <path id="ArialMT-30" d="M 266 2259 
Q 266 3072 433 3567 
Q 600 4063 929 4331 
Q 1259 4600 1759 4600 
Q 2128 4600 2406 4451 
Q 2684 4303 2865 4023 
Q 3047 3744 3150 3342 
Q 3253 2941 3253 2259 
Q 3253 1453 3087 958 
Q 2922 463 2592 192 
Q 2263 -78 1759 -78 
Q 1097 -78 719 397 
Q 266 969 266 2259 
z
M 844 2259 
Q 844 1131 1108 757 
Q 1372 384 1759 384 
Q 2147 384 2411 759 
Q 2675 1134 2675 2259 
Q 2675 3391 2411 3762 
Q 2147 4134 1753 4134 
Q 1366 4134 1134 3806 
Q 844 3388 844 2259 
z
" transform="scale(0.015625)"/>
       </defs>
       <use xlink:href="#ArialMT-30"/>
      </g>
     </g>
    </g>
    <g id="xtick_2">
     <g id="line2d_2">
      <g>
       <use xlink:href="#m279cb6e6b2" x="218.323612" y="378.648" style="stroke: #000000; stroke-width: 0.8"/>
      </g>
     </g>
     <g id="text_2">
      <!-- 200 -->
      <g transform="translate(209.982206 392.805813) scale(0.1 -0.1)">
       <defs>
        <path id="ArialMT-32" d="M 3222 541 
L 3222 0 
L 194 0 
Q 188 203 259 391 
Q 375 700 629 1000 
Q 884 1300 1366 1694 
Q 2113 2306 2375 2664 
Q 2638 3022 2638 3341 
Q 2638 3675 2398 3904 
Q 2159 4134 1775 4134 
Q 1369 4134 1125 3890 
Q 881 3647 878 3216 
L 300 3275 
Q 359 3922 746 4261 
Q 1134 4600 1788 4600 
Q 2447 4600 2831 4234 
Q 3216 3869 3216 3328 
Q 3216 3053 3103 2787 
Q 2991 2522 2730 2228 
Q 2469 1934 1863 1422 
Q 1356 997 1212 845 
Q 1069 694 975 541 
L 3222 541 
z
" transform="scale(0.015625)"/>
       </defs>
       <use xlink:href="#ArialMT-32"/>
       <use xlink:href="#ArialMT-30" x="55.615234"/>
       <use xlink:href="#ArialMT-30" x="111.230469"/>
      </g>
     </g>
    </g>
    <g id="text_3">
     <!-- Number of strains -->
     <g transform="translate(165.331562 407.382688) scale(0.12 -0.12)">
      <defs>
       <path id="Arial-BoldMT-4e" d="M 475 0 
L 475 4581 
L 1375 4581 
L 3250 1522 
L 3250 4581 
L 4109 4581 
L 4109 0 
L 3181 0 
L 1334 2988 
L 1334 0 
L 475 0 
z
" transform="scale(0.015625)"/>
       <path id="Arial-BoldMT-75" d="M 2644 0 
L 2644 497 
Q 2463 231 2167 78 
Q 1872 -75 1544 -75 
Q 1209 -75 943 72 
Q 678 219 559 484 
Q 441 750 441 1219 
L 441 3319 
L 1319 3319 
L 1319 1794 
Q 1319 1094 1367 936 
Q 1416 778 1544 686 
Q 1672 594 1869 594 
Q 2094 594 2272 717 
Q 2450 841 2515 1023 
Q 2581 1206 2581 1919 
L 2581 3319 
L 3459 3319 
L 3459 0 
L 2644 0 
z
" transform="scale(0.015625)"/>
       <path id="Arial-BoldMT-6d" d="M 394 3319 
L 1203 3319 
L 1203 2866 
Q 1638 3394 2238 3394 
Q 2556 3394 2790 3262 
Q 3025 3131 3175 2866 
Q 3394 3131 3647 3262 
Q 3900 3394 4188 3394 
Q 4553 3394 4806 3245 
Q 5059 3097 5184 2809 
Q 5275 2597 5275 2122 
L 5275 0 
L 4397 0 
L 4397 1897 
Q 4397 2391 4306 2534 
Q 4184 2722 3931 2722 
Q 3747 2722 3584 2609 
Q 3422 2497 3350 2280 
Q 3278 2063 3278 1594 
L 3278 0 
L 2400 0 
L 2400 1819 
Q 2400 2303 2353 2443 
Q 2306 2584 2207 2653 
Q 2109 2722 1941 2722 
Q 1738 2722 1575 2612 
Q 1413 2503 1342 2297 
Q 1272 2091 1272 1613 
L 1272 0 
L 394 0 
L 394 3319 
z
" transform="scale(0.015625)"/>
       <path id="Arial-BoldMT-62" d="M 422 0 
L 422 4581 
L 1300 4581 
L 1300 2931 
Q 1706 3394 2263 3394 
Q 2869 3394 3266 2955 
Q 3663 2516 3663 1694 
Q 3663 844 3258 384 
Q 2853 -75 2275 -75 
Q 1991 -75 1714 67 
Q 1438 209 1238 488 
L 1238 0 
L 422 0 
z
M 1294 1731 
Q 1294 1216 1456 969 
Q 1684 619 2063 619 
Q 2353 619 2558 867 
Q 2763 1116 2763 1650 
Q 2763 2219 2556 2470 
Q 2350 2722 2028 2722 
Q 1713 2722 1503 2476 
Q 1294 2231 1294 1731 
z
" transform="scale(0.015625)"/>
       <path id="Arial-BoldMT-65" d="M 2381 1056 
L 3256 909 
Q 3088 428 2723 176 
Q 2359 -75 1813 -75 
Q 947 -75 531 491 
Q 203 944 203 1634 
Q 203 2459 634 2926 
Q 1066 3394 1725 3394 
Q 2466 3394 2894 2905 
Q 3322 2416 3303 1406 
L 1103 1406 
Q 1113 1016 1316 798 
Q 1519 581 1822 581 
Q 2028 581 2168 693 
Q 2309 806 2381 1056 
z
M 2431 1944 
Q 2422 2325 2234 2523 
Q 2047 2722 1778 2722 
Q 1491 2722 1303 2513 
Q 1116 2303 1119 1944 
L 2431 1944 
z
" transform="scale(0.015625)"/>
       <path id="Arial-BoldMT-72" d="M 1300 0 
L 422 0 
L 422 3319 
L 1238 3319 
L 1238 2847 
Q 1447 3181 1614 3287 
Q 1781 3394 1994 3394 
Q 2294 3394 2572 3228 
L 2300 2463 
Q 2078 2606 1888 2606 
Q 1703 2606 1575 2504 
Q 1447 2403 1373 2137 
Q 1300 1872 1300 1025 
L 1300 0 
z
" transform="scale(0.015625)"/>
       <path id="Arial-BoldMT-20" transform="scale(0.015625)"/>
       <path id="Arial-BoldMT-6f" d="M 256 1706 
Q 256 2144 472 2553 
Q 688 2963 1083 3178 
Q 1478 3394 1966 3394 
Q 2719 3394 3200 2905 
Q 3681 2416 3681 1669 
Q 3681 916 3195 420 
Q 2709 -75 1972 -75 
Q 1516 -75 1102 131 
Q 688 338 472 736 
Q 256 1134 256 1706 
z
M 1156 1659 
Q 1156 1166 1390 903 
Q 1625 641 1969 641 
Q 2313 641 2545 903 
Q 2778 1166 2778 1666 
Q 2778 2153 2545 2415 
Q 2313 2678 1969 2678 
Q 1625 2678 1390 2415 
Q 1156 2153 1156 1659 
z
" transform="scale(0.015625)"/>
       <path id="Arial-BoldMT-66" d="M 75 3319 
L 563 3319 
L 563 3569 
Q 563 3988 652 4194 
Q 741 4400 980 4529 
Q 1219 4659 1584 4659 
Q 1959 4659 2319 4547 
L 2200 3934 
Q 1991 3984 1797 3984 
Q 1606 3984 1523 3895 
Q 1441 3806 1441 3553 
L 1441 3319 
L 2097 3319 
L 2097 2628 
L 1441 2628 
L 1441 0 
L 563 0 
L 563 2628 
L 75 2628 
L 75 3319 
z
" transform="scale(0.015625)"/>
       <path id="Arial-BoldMT-73" d="M 150 947 
L 1031 1081 
Q 1088 825 1259 692 
Q 1431 559 1741 559 
Q 2081 559 2253 684 
Q 2369 772 2369 919 
Q 2369 1019 2306 1084 
Q 2241 1147 2013 1200 
Q 950 1434 666 1628 
Q 272 1897 272 2375 
Q 272 2806 612 3100 
Q 953 3394 1669 3394 
Q 2350 3394 2681 3172 
Q 3013 2950 3138 2516 
L 2309 2363 
Q 2256 2556 2107 2659 
Q 1959 2763 1684 2763 
Q 1338 2763 1188 2666 
Q 1088 2597 1088 2488 
Q 1088 2394 1175 2328 
Q 1294 2241 1995 2081 
Q 2697 1922 2975 1691 
Q 3250 1456 3250 1038 
Q 3250 581 2869 253 
Q 2488 -75 1741 -75 
Q 1063 -75 667 200 
Q 272 475 150 947 
z
" transform="scale(0.015625)"/>
       <path id="Arial-BoldMT-74" d="M 1981 3319 
L 1981 2619 
L 1381 2619 
L 1381 1281 
Q 1381 875 1398 808 
Q 1416 741 1477 697 
Q 1538 653 1625 653 
Q 1747 653 1978 738 
L 2053 56 
Q 1747 -75 1359 -75 
Q 1122 -75 931 4 
Q 741 84 652 211 
Q 563 338 528 553 
Q 500 706 500 1172 
L 500 2619 
L 97 2619 
L 97 3319 
L 500 3319 
L 500 3978 
L 1381 4491 
L 1381 3319 
L 1981 3319 
z
" transform="scale(0.015625)"/>
       <path id="Arial-BoldMT-61" d="M 1116 2306 
L 319 2450 
Q 453 2931 781 3162 
Q 1109 3394 1756 3394 
Q 2344 3394 2631 3255 
Q 2919 3116 3036 2902 
Q 3153 2688 3153 2116 
L 3144 1091 
Q 3144 653 3186 445 
Q 3228 238 3344 0 
L 2475 0 
Q 2441 88 2391 259 
Q 2369 338 2359 363 
Q 2134 144 1878 34 
Q 1622 -75 1331 -75 
Q 819 -75 523 203 
Q 228 481 228 906 
Q 228 1188 362 1408 
Q 497 1628 739 1745 
Q 981 1863 1438 1950 
Q 2053 2066 2291 2166 
L 2291 2253 
Q 2291 2506 2166 2614 
Q 2041 2722 1694 2722 
Q 1459 2722 1328 2630 
Q 1197 2538 1116 2306 
z
M 2291 1594 
Q 2122 1538 1756 1459 
Q 1391 1381 1278 1306 
Q 1106 1184 1106 997 
Q 1106 813 1243 678 
Q 1381 544 1594 544 
Q 1831 544 2047 700 
Q 2206 819 2256 991 
Q 2291 1103 2291 1419 
L 2291 1594 
z
" transform="scale(0.015625)"/>
       <path id="Arial-BoldMT-69" d="M 459 3769 
L 459 4581 
L 1338 4581 
L 1338 3769 
L 459 3769 
z
M 459 0 
L 459 3319 
L 1338 3319 
L 1338 0 
L 459 0 
z
" transform="scale(0.015625)"/>
       <path id="Arial-BoldMT-6e" d="M 3478 0 
L 2600 0 
L 2600 1694 
Q 2600 2231 2544 2389 
Q 2488 2547 2361 2634 
Q 2234 2722 2056 2722 
Q 1828 2722 1647 2597 
Q 1466 2472 1398 2265 
Q 1331 2059 1331 1503 
L 1331 0 
L 453 0 
L 453 3319 
L 1269 3319 
L 1269 2831 
Q 1703 3394 2363 3394 
Q 2653 3394 2893 3289 
Q 3134 3184 3257 3021 
Q 3381 2859 3429 2653 
Q 3478 2447 3478 2063 
L 3478 0 
z
" transform="scale(0.015625)"/>
      </defs>
      <use xlink:href="#Arial-BoldMT-4e"/>
      <use xlink:href="#Arial-BoldMT-75" x="72.216797"/>
      <use xlink:href="#Arial-BoldMT-6d" x="133.300781"/>
      <use xlink:href="#Arial-BoldMT-62" x="222.216797"/>
      <use xlink:href="#Arial-BoldMT-65" x="283.300781"/>
      <use xlink:href="#Arial-BoldMT-72" x="338.916016"/>
      <use xlink:href="#Arial-BoldMT-20" x="377.832031"/>
      <use xlink:href="#Arial-BoldMT-6f" x="405.615234"/>
      <use xlink:href="#Arial-BoldMT-66" x="466.699219"/>
      <use xlink:href="#Arial-BoldMT-20" x="500"/>
      <use xlink:href="#Arial-BoldMT-73" x="527.783203"/>
      <use xlink:href="#Arial-BoldMT-74" x="583.398438"/>
      <use xlink:href="#Arial-BoldMT-72" x="616.699219"/>
      <use xlink:href="#Arial-BoldMT-61" x="655.615234"/>
      <use xlink:href="#Arial-BoldMT-69" x="711.230469"/>
      <use xlink:href="#Arial-BoldMT-6e" x="739.013672"/>
      <use xlink:href="#Arial-BoldMT-73" x="800.097656"/>
     </g>
    </g>
   </g>
   <g id="matplotlib.axis_2">
    <g id="ytick_1">
     <g id="line2d_3">
      <defs>
       <path id="m8b58934c73" d="M 0 0 
L -3.5 0 
" style="stroke: #000000; stroke-width: 0.8"/>
      </defs>
      <g>
       <use xlink:href="#m8b58934c73" x="160.871875" y="356.317548" style="stroke: #000000; stroke-width: 0.8"/>
      </g>
     </g>
     <g id="text_4">
      <!-- Wine -->
      <g transform="translate(125.31375 360.612236) scale(0.12 -0.12)">
       <defs>
        <path id="Arial-BoldMT-57" d="M 1116 0 
L 22 4581 
L 969 4581 
L 1659 1434 
L 2497 4581 
L 3597 4581 
L 4400 1381 
L 5103 4581 
L 6034 4581 
L 4922 0 
L 3941 0 
L 3028 3425 
L 2119 0 
L 1116 0 
z
" transform="scale(0.015625)"/>
       </defs>
       <use xlink:href="#Arial-BoldMT-57"/>
       <use xlink:href="#Arial-BoldMT-69" x="93.509766"/>
       <use xlink:href="#Arial-BoldMT-6e" x="121.292969"/>
       <use xlink:href="#Arial-BoldMT-65" x="182.376953"/>
      </g>
     </g>
    </g>
    <g id="ytick_2">
     <g id="line2d_4">
      <g>
       <use xlink:href="#m8b58934c73" x="160.871875" y="340.756258" style="stroke: #000000; stroke-width: 0.8"/>
      </g>
     </g>
     <g id="text_5">
      <!-- Tree -->
      <g transform="translate(129.185625 345.050946) scale(0.12 -0.12)">
       <defs>
        <path id="Arial-BoldMT-54" d="M 1497 0 
L 1497 3806 
L 138 3806 
L 138 4581 
L 3778 4581 
L 3778 3806 
L 2422 3806 
L 2422 0 
L 1497 0 
z
" transform="scale(0.015625)"/>
       </defs>
       <use xlink:href="#Arial-BoldMT-54"/>
       <use xlink:href="#Arial-BoldMT-72" x="55.583984"/>
       <use xlink:href="#Arial-BoldMT-65" x="94.5"/>
       <use xlink:href="#Arial-BoldMT-65" x="150.115234"/>
      </g>
     </g>
    </g>
    <g id="ytick_3">
     <g id="line2d_5">
      <g>
       <use xlink:href="#m8b58934c73" x="160.871875" y="325.194968" style="stroke: #000000; stroke-width: 0.8"/>
      </g>
     </g>
     <g id="text_6">
      <!-- Human -->
      <g transform="translate(113.203125 329.489655) scale(0.12 -0.12)">
       <defs>
        <path id="Arial-BoldMT-48" d="M 469 0 
L 469 4581 
L 1394 4581 
L 1394 2778 
L 3206 2778 
L 3206 4581 
L 4131 4581 
L 4131 0 
L 3206 0 
L 3206 2003 
L 1394 2003 
L 1394 0 
L 469 0 
z
" transform="scale(0.015625)"/>
       </defs>
       <use xlink:href="#Arial-BoldMT-48"/>
       <use xlink:href="#Arial-BoldMT-75" x="72.216797"/>
       <use xlink:href="#Arial-BoldMT-6d" x="133.300781"/>
       <use xlink:href="#Arial-BoldMT-61" x="222.216797"/>
       <use xlink:href="#Arial-BoldMT-6e" x="277.832031"/>
      </g>
     </g>
    </g>
    <g id="ytick_4">
     <g id="line2d_6">
      <g>
       <use xlink:href="#m8b58934c73" x="160.871875" y="309.633677" style="stroke: #000000; stroke-width: 0.8"/>
      </g>
     </g>
     <g id="text_7">
      <!-- Beer -->
      <g transform="translate(127.18875 313.928365) scale(0.12 -0.12)">
       <defs>
        <path id="Arial-BoldMT-42" d="M 469 4581 
L 2300 4581 
Q 2844 4581 3111 4536 
Q 3378 4491 3589 4347 
Q 3800 4203 3940 3964 
Q 4081 3725 4081 3428 
Q 4081 3106 3907 2837 
Q 3734 2569 3438 2434 
Q 3856 2313 4081 2019 
Q 4306 1725 4306 1328 
Q 4306 1016 4161 720 
Q 4016 425 3764 248 
Q 3513 72 3144 31 
Q 2913 6 2028 0 
L 469 0 
L 469 4581 
z
M 1394 3819 
L 1394 2759 
L 2000 2759 
Q 2541 2759 2672 2775 
Q 2909 2803 3045 2939 
Q 3181 3075 3181 3297 
Q 3181 3509 3064 3642 
Q 2947 3775 2716 3803 
Q 2578 3819 1925 3819 
L 1394 3819 
z
M 1394 1997 
L 1394 772 
L 2250 772 
Q 2750 772 2884 800 
Q 3091 838 3220 983 
Q 3350 1128 3350 1372 
Q 3350 1578 3250 1722 
Q 3150 1866 2961 1931 
Q 2772 1997 2141 1997 
L 1394 1997 
z
" transform="scale(0.015625)"/>
       </defs>
       <use xlink:href="#Arial-BoldMT-42"/>
       <use xlink:href="#Arial-BoldMT-65" x="72.216797"/>
       <use xlink:href="#Arial-BoldMT-65" x="127.832031"/>
       <use xlink:href="#Arial-BoldMT-72" x="183.447266"/>
      </g>
     </g>
    </g>
    <g id="ytick_5">
     <g id="line2d_7">
      <g>
       <use xlink:href="#m8b58934c73" x="160.871875" y="294.072387" style="stroke: #000000; stroke-width: 0.8"/>
      </g>
     </g>
     <g id="text_8">
      <!-- Soil -->
      <g transform="translate(131.870625 298.367075) scale(0.12 -0.12)">
       <defs>
        <path id="Arial-BoldMT-53" d="M 231 1491 
L 1131 1578 
Q 1213 1125 1461 912 
Q 1709 700 2131 700 
Q 2578 700 2804 889 
Q 3031 1078 3031 1331 
Q 3031 1494 2936 1608 
Q 2841 1722 2603 1806 
Q 2441 1863 1863 2006 
Q 1119 2191 819 2459 
Q 397 2838 397 3381 
Q 397 3731 595 4036 
Q 794 4341 1167 4500 
Q 1541 4659 2069 4659 
Q 2931 4659 3367 4281 
Q 3803 3903 3825 3272 
L 2900 3231 
Q 2841 3584 2645 3739 
Q 2450 3894 2059 3894 
Q 1656 3894 1428 3728 
Q 1281 3622 1281 3444 
Q 1281 3281 1419 3166 
Q 1594 3019 2269 2859 
Q 2944 2700 3267 2529 
Q 3591 2359 3773 2064 
Q 3956 1769 3956 1334 
Q 3956 941 3737 597 
Q 3519 253 3119 86 
Q 2719 -81 2122 -81 
Q 1253 -81 787 320 
Q 322 722 231 1491 
z
" transform="scale(0.015625)"/>
        <path id="Arial-BoldMT-6c" d="M 459 0 
L 459 4581 
L 1338 4581 
L 1338 0 
L 459 0 
z
" transform="scale(0.015625)"/>
       </defs>
       <use xlink:href="#Arial-BoldMT-53"/>
       <use xlink:href="#Arial-BoldMT-6f" x="66.699219"/>
       <use xlink:href="#Arial-BoldMT-69" x="127.783203"/>
       <use xlink:href="#Arial-BoldMT-6c" x="155.566406"/>
      </g>
     </g>
    </g>
    <g id="ytick_6">
     <g id="line2d_8">
      <g>
       <use xlink:href="#m8b58934c73" x="160.871875" y="278.511097" style="stroke: #000000; stroke-width: 0.8"/>
      </g>
     </g>
     <g id="text_9">
      <!-- Unknown -->
      <g transform="translate(99.88125 282.805784) scale(0.12 -0.12)">
       <defs>
        <path id="Arial-BoldMT-55" d="M 459 4581 
L 1384 4581 
L 1384 2100 
Q 1384 1509 1419 1334 
Q 1478 1053 1701 883 
Q 1925 713 2313 713 
Q 2706 713 2906 873 
Q 3106 1034 3147 1268 
Q 3188 1503 3188 2047 
L 3188 4581 
L 4113 4581 
L 4113 2175 
Q 4113 1350 4038 1009 
Q 3963 669 3761 434 
Q 3559 200 3221 61 
Q 2884 -78 2341 -78 
Q 1684 -78 1345 73 
Q 1006 225 809 467 
Q 613 709 550 975 
Q 459 1369 459 2138 
L 459 4581 
z
" transform="scale(0.015625)"/>
        <path id="Arial-BoldMT-6b" d="M 428 0 
L 428 4581 
L 1306 4581 
L 1306 2150 
L 2334 3319 
L 3416 3319 
L 2281 2106 
L 3497 0 
L 2550 0 
L 1716 1491 
L 1306 1063 
L 1306 0 
L 428 0 
z
" transform="scale(0.015625)"/>
        <path id="Arial-BoldMT-77" d="M 1078 0 
L 28 3319 
L 881 3319 
L 1503 1144 
L 2075 3319 
L 2922 3319 
L 3475 1144 
L 4109 3319 
L 4975 3319 
L 3909 0 
L 3066 0 
L 2494 2134 
L 1931 0 
L 1078 0 
z
" transform="scale(0.015625)"/>
       </defs>
       <use xlink:href="#Arial-BoldMT-55"/>
       <use xlink:href="#Arial-BoldMT-6e" x="72.216797"/>
       <use xlink:href="#Arial-BoldMT-6b" x="133.300781"/>
       <use xlink:href="#Arial-BoldMT-6e" x="188.916016"/>
       <use xlink:href="#Arial-BoldMT-6f" x="250"/>
       <use xlink:href="#Arial-BoldMT-77" x="311.083984"/>
       <use xlink:href="#Arial-BoldMT-6e" x="388.867188"/>
      </g>
     </g>
    </g>
    <g id="ytick_7">
     <g id="line2d_9">
      <g>
       <use xlink:href="#m8b58934c73" x="160.871875" y="262.949806" style="stroke: #000000; stroke-width: 0.8"/>
      </g>
     </g>
     <g id="text_10">
      <!-- Mantou -->
      <g transform="translate(111.219375 267.244494) scale(0.12 -0.12)">
       <defs>
        <path id="Arial-BoldMT-4d" d="M 453 0 
L 453 4581 
L 1838 4581 
L 2669 1456 
L 3491 4581 
L 4878 4581 
L 4878 0 
L 4019 0 
L 4019 3606 
L 3109 0 
L 2219 0 
L 1313 3606 
L 1313 0 
L 453 0 
z
" transform="scale(0.015625)"/>
       </defs>
       <use xlink:href="#Arial-BoldMT-4d"/>
       <use xlink:href="#Arial-BoldMT-61" x="83.300781"/>
       <use xlink:href="#Arial-BoldMT-6e" x="138.916016"/>
       <use xlink:href="#Arial-BoldMT-74" x="200"/>
       <use xlink:href="#Arial-BoldMT-6f" x="233.300781"/>
       <use xlink:href="#Arial-BoldMT-75" x="294.384766"/>
      </g>
     </g>
    </g>
    <g id="ytick_8">
     <g id="line2d_10">
      <g>
       <use xlink:href="#m8b58934c73" x="160.871875" y="247.388516" style="stroke: #000000; stroke-width: 0.8"/>
      </g>
     </g>
     <g id="text_11">
      <!-- Fruit -->
      <g transform="translate(127.213125 251.683204) scale(0.12 -0.12)">
       <defs>
        <path id="Arial-BoldMT-46" d="M 472 0 
L 472 4581 
L 3613 4581 
L 3613 3806 
L 1397 3806 
L 1397 2722 
L 3309 2722 
L 3309 1947 
L 1397 1947 
L 1397 0 
L 472 0 
z
" transform="scale(0.015625)"/>
       </defs>
       <use xlink:href="#Arial-BoldMT-46"/>
       <use xlink:href="#Arial-BoldMT-72" x="61.083984"/>
       <use xlink:href="#Arial-BoldMT-75" x="100"/>
       <use xlink:href="#Arial-BoldMT-69" x="161.083984"/>
       <use xlink:href="#Arial-BoldMT-74" x="188.867188"/>
      </g>
     </g>
    </g>
    <g id="ytick_9">
     <g id="line2d_11">
      <g>
       <use xlink:href="#m8b58934c73" x="160.871875" y="231.827226" style="stroke: #000000; stroke-width: 0.8"/>
      </g>
     </g>
     <g id="text_12">
      <!-- Fermentation-grain -->
      <g transform="translate(44.536875 236.121913) scale(0.12 -0.12)">
       <defs>
        <path id="Arial-BoldMT-2d" d="M 359 1222 
L 359 2100 
L 2084 2100 
L 2084 1222 
L 359 1222 
z
" transform="scale(0.015625)"/>
        <path id="Arial-BoldMT-67" d="M 378 -219 
L 1381 -341 
Q 1406 -516 1497 -581 
Q 1622 -675 1891 -675 
Q 2234 -675 2406 -572 
Q 2522 -503 2581 -350 
Q 2622 -241 2622 53 
L 2622 538 
Q 2228 0 1628 0 
Q 959 0 569 566 
Q 263 1013 263 1678 
Q 263 2513 664 2953 
Q 1066 3394 1663 3394 
Q 2278 3394 2678 2853 
L 2678 3319 
L 3500 3319 
L 3500 341 
Q 3500 -247 3403 -537 
Q 3306 -828 3131 -993 
Q 2956 -1159 2664 -1253 
Q 2372 -1347 1925 -1347 
Q 1081 -1347 728 -1058 
Q 375 -769 375 -325 
Q 375 -281 378 -219 
z
M 1163 1728 
Q 1163 1200 1367 954 
Q 1572 709 1872 709 
Q 2194 709 2416 961 
Q 2638 1213 2638 1706 
Q 2638 2222 2425 2472 
Q 2213 2722 1888 2722 
Q 1572 2722 1367 2476 
Q 1163 2231 1163 1728 
z
" transform="scale(0.015625)"/>
       </defs>
       <use xlink:href="#Arial-BoldMT-46"/>
       <use xlink:href="#Arial-BoldMT-65" x="61.083984"/>
       <use xlink:href="#Arial-BoldMT-72" x="116.699219"/>
       <use xlink:href="#Arial-BoldMT-6d" x="155.615234"/>
       <use xlink:href="#Arial-BoldMT-65" x="244.53125"/>
       <use xlink:href="#Arial-BoldMT-6e" x="300.146484"/>
       <use xlink:href="#Arial-BoldMT-74" x="361.230469"/>
       <use xlink:href="#Arial-BoldMT-61" x="394.53125"/>
       <use xlink:href="#Arial-BoldMT-74" x="450.146484"/>
       <use xlink:href="#Arial-BoldMT-69" x="483.447266"/>
       <use xlink:href="#Arial-BoldMT-6f" x="511.230469"/>
       <use xlink:href="#Arial-BoldMT-6e" x="572.314453"/>
       <use xlink:href="#Arial-BoldMT-2d" x="633.398438"/>
       <use xlink:href="#Arial-BoldMT-67" x="666.699219"/>
       <use xlink:href="#Arial-BoldMT-72" x="727.783203"/>
       <use xlink:href="#Arial-BoldMT-61" x="766.699219"/>
       <use xlink:href="#Arial-BoldMT-69" x="822.314453"/>
       <use xlink:href="#Arial-BoldMT-6e" x="850.097656"/>
      </g>
     </g>
    </g>
    <g id="ytick_10">
     <g id="line2d_12">
      <g>
       <use xlink:href="#m8b58934c73" x="160.871875" y="216.265935" style="stroke: #000000; stroke-width: 0.8"/>
      </g>
     </g>
     <g id="text_13">
      <!-- Sake -->
      <g transform="translate(125.848125 220.560623) scale(0.12 -0.12)">
       <use xlink:href="#Arial-BoldMT-53"/>
       <use xlink:href="#Arial-BoldMT-61" x="66.699219"/>
       <use xlink:href="#Arial-BoldMT-6b" x="122.314453"/>
       <use xlink:href="#Arial-BoldMT-65" x="177.929688"/>
      </g>
     </g>
    </g>
    <g id="ytick_11">
     <g id="line2d_13">
      <g>
       <use xlink:href="#m8b58934c73" x="160.871875" y="200.704645" style="stroke: #000000; stroke-width: 0.8"/>
      </g>
     </g>
     <g id="text_14">
      <!-- Dairy -->
      <g transform="translate(123.855 204.999333) scale(0.12 -0.12)">
       <defs>
        <path id="Arial-BoldMT-44" d="M 463 4581 
L 2153 4581 
Q 2725 4581 3025 4494 
Q 3428 4375 3715 4072 
Q 4003 3769 4153 3330 
Q 4303 2891 4303 2247 
Q 4303 1681 4163 1272 
Q 3991 772 3672 463 
Q 3431 228 3022 97 
Q 2716 0 2203 0 
L 463 0 
L 463 4581 
z
M 1388 3806 
L 1388 772 
L 2078 772 
Q 2466 772 2638 816 
Q 2863 872 3011 1006 
Q 3159 1141 3253 1448 
Q 3347 1756 3347 2288 
Q 3347 2819 3253 3103 
Q 3159 3388 2990 3547 
Q 2822 3706 2563 3763 
Q 2369 3806 1803 3806 
L 1388 3806 
z
" transform="scale(0.015625)"/>
        <path id="Arial-BoldMT-79" d="M 44 3319 
L 978 3319 
L 1772 963 
L 2547 3319 
L 3456 3319 
L 2284 125 
L 2075 -453 
Q 1959 -744 1854 -897 
Q 1750 -1050 1614 -1145 
Q 1478 -1241 1279 -1294 
Q 1081 -1347 831 -1347 
Q 578 -1347 334 -1294 
L 256 -606 
Q 463 -647 628 -647 
Q 934 -647 1081 -467 
Q 1228 -288 1306 -9 
L 44 3319 
z
" transform="scale(0.015625)"/>
       </defs>
       <use xlink:href="#Arial-BoldMT-44"/>
       <use xlink:href="#Arial-BoldMT-61" x="72.216797"/>
       <use xlink:href="#Arial-BoldMT-69" x="127.832031"/>
       <use xlink:href="#Arial-BoldMT-72" x="155.615234"/>
       <use xlink:href="#Arial-BoldMT-79" x="194.53125"/>
      </g>
     </g>
    </g>
    <g id="ytick_12">
     <g id="line2d_14">
      <g>
       <use xlink:href="#m8b58934c73" x="160.871875" y="185.143355" style="stroke: #000000; stroke-width: 0.8"/>
      </g>
     </g>
     <g id="text_15">
      <!-- Bakery -->
      <g transform="translate(113.8425 189.438042) scale(0.12 -0.12)">
       <use xlink:href="#Arial-BoldMT-42"/>
       <use xlink:href="#Arial-BoldMT-61" x="72.216797"/>
       <use xlink:href="#Arial-BoldMT-6b" x="127.832031"/>
       <use xlink:href="#Arial-BoldMT-65" x="183.447266"/>
       <use xlink:href="#Arial-BoldMT-72" x="239.0625"/>
       <use xlink:href="#Arial-BoldMT-79" x="277.978516"/>
      </g>
     </g>
    </g>
    <g id="ytick_13">
     <g id="line2d_15">
      <g>
       <use xlink:href="#m8b58934c73" x="160.871875" y="169.582065" style="stroke: #000000; stroke-width: 0.8"/>
      </g>
     </g>
     <g id="text_16">
      <!-- Bioethanol -->
      <g transform="translate(91.87875 173.876752) scale(0.12 -0.12)">
       <defs>
        <path id="Arial-BoldMT-68" d="M 1334 4581 
L 1334 2897 
Q 1759 3394 2350 3394 
Q 2653 3394 2897 3281 
Q 3141 3169 3264 2994 
Q 3388 2819 3433 2606 
Q 3478 2394 3478 1947 
L 3478 0 
L 2600 0 
L 2600 1753 
Q 2600 2275 2550 2415 
Q 2500 2556 2373 2639 
Q 2247 2722 2056 2722 
Q 1838 2722 1666 2615 
Q 1494 2509 1414 2295 
Q 1334 2081 1334 1663 
L 1334 0 
L 456 0 
L 456 4581 
L 1334 4581 
z
" transform="scale(0.015625)"/>
       </defs>
       <use xlink:href="#Arial-BoldMT-42"/>
       <use xlink:href="#Arial-BoldMT-69" x="72.216797"/>
       <use xlink:href="#Arial-BoldMT-6f" x="100"/>
       <use xlink:href="#Arial-BoldMT-65" x="161.083984"/>
       <use xlink:href="#Arial-BoldMT-74" x="216.699219"/>
       <use xlink:href="#Arial-BoldMT-68" x="250"/>
       <use xlink:href="#Arial-BoldMT-61" x="311.083984"/>
       <use xlink:href="#Arial-BoldMT-6e" x="366.699219"/>
       <use xlink:href="#Arial-BoldMT-6f" x="427.783203"/>
       <use xlink:href="#Arial-BoldMT-6c" x="488.867188"/>
      </g>
     </g>
    </g>
    <g id="ytick_14">
     <g id="line2d_16">
      <g>
       <use xlink:href="#m8b58934c73" x="160.871875" y="154.020774" style="stroke: #000000; stroke-width: 0.8"/>
      </g>
     </g>
     <g id="text_17">
      <!-- Palm wine -->
      <g transform="translate(95.18625 158.315462) scale(0.12 -0.12)">
       <defs>
        <path id="Arial-BoldMT-50" d="M 466 0 
L 466 4581 
L 1950 4581 
Q 2794 4581 3050 4513 
Q 3444 4409 3709 4064 
Q 3975 3719 3975 3172 
Q 3975 2750 3822 2462 
Q 3669 2175 3433 2011 
Q 3197 1847 2953 1794 
Q 2622 1728 1994 1728 
L 1391 1728 
L 1391 0 
L 466 0 
z
M 1391 3806 
L 1391 2506 
L 1897 2506 
Q 2444 2506 2628 2578 
Q 2813 2650 2917 2803 
Q 3022 2956 3022 3159 
Q 3022 3409 2875 3571 
Q 2728 3734 2503 3775 
Q 2338 3806 1838 3806 
L 1391 3806 
z
" transform="scale(0.015625)"/>
       </defs>
       <use xlink:href="#Arial-BoldMT-50"/>
       <use xlink:href="#Arial-BoldMT-61" x="66.699219"/>
       <use xlink:href="#Arial-BoldMT-6c" x="122.314453"/>
       <use xlink:href="#Arial-BoldMT-6d" x="150.097656"/>
       <use xlink:href="#Arial-BoldMT-20" x="239.013672"/>
       <use xlink:href="#Arial-BoldMT-77" x="266.796875"/>
       <use xlink:href="#Arial-BoldMT-69" x="344.580078"/>
       <use xlink:href="#Arial-BoldMT-6e" x="372.363281"/>
       <use xlink:href="#Arial-BoldMT-65" x="433.447266"/>
      </g>
     </g>
    </g>
    <g id="ytick_15">
     <g id="line2d_17">
      <g>
       <use xlink:href="#m8b58934c73" x="160.871875" y="138.459484" style="stroke: #000000; stroke-width: 0.8"/>
      </g>
     </g>
     <g id="text_18">
      <!-- Fermentation-unassigned -->
      <g transform="translate(7.2 142.754171) scale(0.12 -0.12)">
       <defs>
        <path id="Arial-BoldMT-64" d="M 3503 0 
L 2688 0 
L 2688 488 
Q 2484 203 2207 64 
Q 1931 -75 1650 -75 
Q 1078 -75 670 386 
Q 263 847 263 1672 
Q 263 2516 659 2955 
Q 1056 3394 1663 3394 
Q 2219 3394 2625 2931 
L 2625 4581 
L 3503 4581 
L 3503 0 
z
M 1159 1731 
Q 1159 1200 1306 963 
Q 1519 619 1900 619 
Q 2203 619 2415 876 
Q 2628 1134 2628 1647 
Q 2628 2219 2422 2470 
Q 2216 2722 1894 2722 
Q 1581 2722 1370 2473 
Q 1159 2225 1159 1731 
z
" transform="scale(0.015625)"/>
       </defs>
       <use xlink:href="#Arial-BoldMT-46"/>
       <use xlink:href="#Arial-BoldMT-65" x="61.083984"/>
       <use xlink:href="#Arial-BoldMT-72" x="116.699219"/>
       <use xlink:href="#Arial-BoldMT-6d" x="155.615234"/>
       <use xlink:href="#Arial-BoldMT-65" x="244.53125"/>
       <use xlink:href="#Arial-BoldMT-6e" x="300.146484"/>
       <use xlink:href="#Arial-BoldMT-74" x="361.230469"/>
       <use xlink:href="#Arial-BoldMT-61" x="394.53125"/>
       <use xlink:href="#Arial-BoldMT-74" x="450.146484"/>
       <use xlink:href="#Arial-BoldMT-69" x="483.447266"/>
       <use xlink:href="#Arial-BoldMT-6f" x="511.230469"/>
       <use xlink:href="#Arial-BoldMT-6e" x="572.314453"/>
       <use xlink:href="#Arial-BoldMT-2d" x="633.398438"/>
       <use xlink:href="#Arial-BoldMT-75" x="666.699219"/>
       <use xlink:href="#Arial-BoldMT-6e" x="727.783203"/>
       <use xlink:href="#Arial-BoldMT-61" x="788.867188"/>
       <use xlink:href="#Arial-BoldMT-73" x="844.482422"/>
       <use xlink:href="#Arial-BoldMT-73" x="900.097656"/>
       <use xlink:href="#Arial-BoldMT-69" x="955.712891"/>
       <use xlink:href="#Arial-BoldMT-67" x="983.496094"/>
       <use xlink:href="#Arial-BoldMT-6e" x="1044.580078"/>
       <use xlink:href="#Arial-BoldMT-65" x="1105.664062"/>
       <use xlink:href="#Arial-BoldMT-64" x="1161.279297"/>
      </g>
     </g>
    </g>
    <g id="ytick_16">
     <g id="line2d_18">
      <g>
       <use xlink:href="#m8b58934c73" x="160.871875" y="122.898194" style="stroke: #000000; stroke-width: 0.8"/>
      </g>
     </g>
     <g id="text_19">
      <!-- Industrial-unassigned -->
      <g transform="translate(29.20125 127.192881) scale(0.12 -0.12)">
       <defs>
        <path id="Arial-BoldMT-49" d="M 438 0 
L 438 4581 
L 1363 4581 
L 1363 0 
L 438 0 
z
" transform="scale(0.015625)"/>
       </defs>
       <use xlink:href="#Arial-BoldMT-49"/>
       <use xlink:href="#Arial-BoldMT-6e" x="27.783203"/>
       <use xlink:href="#Arial-BoldMT-64" x="88.867188"/>
       <use xlink:href="#Arial-BoldMT-75" x="149.951172"/>
       <use xlink:href="#Arial-BoldMT-73" x="211.035156"/>
       <use xlink:href="#Arial-BoldMT-74" x="266.650391"/>
       <use xlink:href="#Arial-BoldMT-72" x="299.951172"/>
       <use xlink:href="#Arial-BoldMT-69" x="338.867188"/>
       <use xlink:href="#Arial-BoldMT-61" x="366.650391"/>
       <use xlink:href="#Arial-BoldMT-6c" x="422.265625"/>
       <use xlink:href="#Arial-BoldMT-2d" x="450.048828"/>
       <use xlink:href="#Arial-BoldMT-75" x="483.349609"/>
       <use xlink:href="#Arial-BoldMT-6e" x="544.433594"/>
       <use xlink:href="#Arial-BoldMT-61" x="605.517578"/>
       <use xlink:href="#Arial-BoldMT-73" x="661.132812"/>
       <use xlink:href="#Arial-BoldMT-73" x="716.748047"/>
       <use xlink:href="#Arial-BoldMT-69" x="772.363281"/>
       <use xlink:href="#Arial-BoldMT-67" x="800.146484"/>
       <use xlink:href="#Arial-BoldMT-6e" x="861.230469"/>
       <use xlink:href="#Arial-BoldMT-65" x="922.314453"/>
       <use xlink:href="#Arial-BoldMT-64" x="977.929688"/>
      </g>
     </g>
    </g>
    <g id="ytick_17">
     <g id="line2d_19">
      <g>
       <use xlink:href="#m8b58934c73" x="160.871875" y="107.336903" style="stroke: #000000; stroke-width: 0.8"/>
      </g>
     </g>
     <g id="text_20">
      <!-- Distillery -->
      <g transform="translate(103.185 111.631591) scale(0.12 -0.12)">
       <use xlink:href="#Arial-BoldMT-44"/>
       <use xlink:href="#Arial-BoldMT-69" x="72.216797"/>
       <use xlink:href="#Arial-BoldMT-73" x="100"/>
       <use xlink:href="#Arial-BoldMT-74" x="155.615234"/>
       <use xlink:href="#Arial-BoldMT-69" x="188.916016"/>
       <use xlink:href="#Arial-BoldMT-6c" x="216.699219"/>
       <use xlink:href="#Arial-BoldMT-6c" x="244.482422"/>
       <use xlink:href="#Arial-BoldMT-65" x="272.265625"/>
       <use xlink:href="#Arial-BoldMT-72" x="327.880859"/>
       <use xlink:href="#Arial-BoldMT-79" x="366.796875"/>
      </g>
     </g>
    </g>
    <g id="ytick_18">
     <g id="line2d_20">
      <g>
       <use xlink:href="#m8b58934c73" x="160.871875" y="91.775613" style="stroke: #000000; stroke-width: 0.8"/>
      </g>
     </g>
     <g id="text_21">
      <!-- Insect -->
      <g transform="translate(119.19375 96.0703) scale(0.12 -0.12)">
       <defs>
        <path id="Arial-BoldMT-63" d="M 3353 2338 
L 2488 2181 
Q 2444 2441 2289 2572 
Q 2134 2703 1888 2703 
Q 1559 2703 1364 2476 
Q 1169 2250 1169 1719 
Q 1169 1128 1367 884 
Q 1566 641 1900 641 
Q 2150 641 2309 783 
Q 2469 925 2534 1272 
L 3397 1125 
Q 3263 531 2881 228 
Q 2500 -75 1859 -75 
Q 1131 -75 698 384 
Q 266 844 266 1656 
Q 266 2478 700 2936 
Q 1134 3394 1875 3394 
Q 2481 3394 2839 3133 
Q 3197 2872 3353 2338 
z
" transform="scale(0.015625)"/>
       </defs>
       <use xlink:href="#Arial-BoldMT-49"/>
       <use xlink:href="#Arial-BoldMT-6e" x="27.783203"/>
       <use xlink:href="#Arial-BoldMT-73" x="88.867188"/>
       <use xlink:href="#Arial-BoldMT-65" x="144.482422"/>
       <use xlink:href="#Arial-BoldMT-63" x="200.097656"/>
       <use xlink:href="#Arial-BoldMT-74" x="255.712891"/>
      </g>
     </g>
    </g>
    <g id="ytick_19">
     <g id="line2d_21">
      <g>
       <use xlink:href="#m8b58934c73" x="160.871875" y="76.214323" style="stroke: #000000; stroke-width: 0.8"/>
      </g>
     </g>
     <g id="text_22">
      <!-- Baijiu -->
      <g transform="translate(121.201875 80.50901) scale(0.12 -0.12)">
       <defs>
        <path id="Arial-BoldMT-6a" d="M 441 3769 
L 441 4581 
L 1319 4581 
L 1319 3769 
L 441 3769 
z
M 1319 3319 
L 1319 103 
Q 1319 -531 1236 -792 
Q 1153 -1053 917 -1200 
Q 681 -1347 316 -1347 
Q 184 -1347 32 -1323 
Q -119 -1300 -294 -1253 
L -141 -503 
Q -78 -516 -23 -523 
Q 31 -531 78 -531 
Q 213 -531 298 -473 
Q 384 -416 412 -334 
Q 441 -253 441 153 
L 441 3319 
L 1319 3319 
z
" transform="scale(0.015625)"/>
       </defs>
       <use xlink:href="#Arial-BoldMT-42"/>
       <use xlink:href="#Arial-BoldMT-61" x="72.216797"/>
       <use xlink:href="#Arial-BoldMT-69" x="127.832031"/>
       <use xlink:href="#Arial-BoldMT-6a" x="155.615234"/>
       <use xlink:href="#Arial-BoldMT-69" x="183.398438"/>
       <use xlink:href="#Arial-BoldMT-75" x="211.181641"/>
      </g>
     </g>
    </g>
    <g id="ytick_20">
     <g id="line2d_22">
      <g>
       <use xlink:href="#m8b58934c73" x="160.871875" y="60.653032" style="stroke: #000000; stroke-width: 0.8"/>
      </g>
     </g>
     <g id="text_23">
      <!-- Lab -->
      <g transform="translate(132.54 64.94772) scale(0.12 -0.12)">
       <defs>
        <path id="Arial-BoldMT-4c" d="M 491 0 
L 491 4544 
L 1416 4544 
L 1416 772 
L 3716 772 
L 3716 0 
L 491 0 
z
" transform="scale(0.015625)"/>
       </defs>
       <use xlink:href="#Arial-BoldMT-4c"/>
       <use xlink:href="#Arial-BoldMT-61" x="61.083984"/>
       <use xlink:href="#Arial-BoldMT-62" x="116.699219"/>
      </g>
     </g>
    </g>
    <g id="ytick_21">
     <g id="line2d_23">
      <g>
       <use xlink:href="#m8b58934c73" x="160.871875" y="45.091742" style="stroke: #000000; stroke-width: 0.8"/>
      </g>
     </g>
     <g id="text_24">
      <!-- Cider -->
      <g transform="translate(123.19875 49.386429) scale(0.12 -0.12)">
       <defs>
        <path id="Arial-BoldMT-43" d="M 3397 1684 
L 4294 1400 
Q 4088 650 3608 286 
Q 3128 -78 2391 -78 
Q 1478 -78 890 545 
Q 303 1169 303 2250 
Q 303 3394 893 4026 
Q 1484 4659 2447 4659 
Q 3288 4659 3813 4163 
Q 4125 3869 4281 3319 
L 3366 3100 
Q 3284 3456 3026 3662 
Q 2769 3869 2400 3869 
Q 1891 3869 1573 3503 
Q 1256 3138 1256 2319 
Q 1256 1450 1568 1081 
Q 1881 713 2381 713 
Q 2750 713 3015 947 
Q 3281 1181 3397 1684 
z
" transform="scale(0.015625)"/>
       </defs>
       <use xlink:href="#Arial-BoldMT-43"/>
       <use xlink:href="#Arial-BoldMT-69" x="72.216797"/>
       <use xlink:href="#Arial-BoldMT-64" x="100"/>
       <use xlink:href="#Arial-BoldMT-65" x="161.083984"/>
       <use xlink:href="#Arial-BoldMT-72" x="216.699219"/>
      </g>
     </g>
    </g>
    <g id="ytick_22">
     <g id="line2d_24">
      <g>
       <use xlink:href="#m8b58934c73" x="160.871875" y="29.530452" style="stroke: #000000; stroke-width: 0.8"/>
      </g>
     </g>
     <g id="text_25">
      <!-- Flower -->
      <g transform="translate(115.201875 33.825139) scale(0.12 -0.12)">
       <use xlink:href="#Arial-BoldMT-46"/>
       <use xlink:href="#Arial-BoldMT-6c" x="61.083984"/>
       <use xlink:href="#Arial-BoldMT-6f" x="88.867188"/>
       <use xlink:href="#Arial-BoldMT-77" x="149.951172"/>
       <use xlink:href="#Arial-BoldMT-65" x="227.734375"/>
       <use xlink:href="#Arial-BoldMT-72" x="283.349609"/>
      </g>
     </g>
    </g>
   </g>
   <g id="patch_47">
    <path d="M 160.871875 378.648 
L 160.871875 7.2 
" style="fill: none; stroke: #000000; stroke-linejoin: miter; stroke-linecap: square"/>
   </g>
   <g id="patch_48">
    <path d="M 272.471875 378.648 
L 272.471875 7.2 
" style="fill: none; stroke: #000000; stroke-linejoin: miter; stroke-linecap: square"/>
   </g>
   <g id="patch_49">
    <path d="M 160.871875 378.648 
L 272.471875 378.648 
" style="fill: none; stroke: #000000; stroke-linejoin: miter; stroke-linecap: square"/>
   </g>
   <g id="patch_50">
    <path d="M 160.871875 7.2 
L 272.471875 7.2 
" style="fill: none; stroke: #000000; stroke-linejoin: miter; stroke-linecap: square"/>
   </g>
   <g id="legend_1">
    <g id="patch_51">
     <path d="M 170.462344 47.119687 
L 264.771875 47.119687 
Q 266.971875 47.119687 266.971875 44.919688 
L 266.971875 14.9 
Q 266.971875 12.7 264.771875 12.7 
L 170.462344 12.7 
Q 168.262344 12.7 168.262344 14.9 
L 168.262344 44.919688 
Q 168.262344 47.119687 170.462344 47.119687 
z
" style="fill: #ffffff; opacity: 0.8; stroke: #cccccc; stroke-linejoin: miter"/>
    </g>
    <g id="patch_52">
     <path d="M 172.662344 24.973594 
L 194.662344 24.973594 
L 194.662344 17.273594 
L 172.662344 17.273594 
z
" style="fill: #7570b3"/>
    </g>
    <g id="text_26">
     <!-- New strains -->
     <g transform="translate(203.462344 24.973594) scale(0.11 -0.11)">
      <defs>
       <path id="ArialMT-4e" d="M 488 0 
L 488 4581 
L 1109 4581 
L 3516 984 
L 3516 4581 
L 4097 4581 
L 4097 0 
L 3475 0 
L 1069 3600 
L 1069 0 
L 488 0 
z
" transform="scale(0.015625)"/>
       <path id="ArialMT-65" d="M 2694 1069 
L 3275 997 
Q 3138 488 2766 206 
Q 2394 -75 1816 -75 
Q 1088 -75 661 373 
Q 234 822 234 1631 
Q 234 2469 665 2931 
Q 1097 3394 1784 3394 
Q 2450 3394 2872 2941 
Q 3294 2488 3294 1666 
Q 3294 1616 3291 1516 
L 816 1516 
Q 847 969 1125 678 
Q 1403 388 1819 388 
Q 2128 388 2347 550 
Q 2566 713 2694 1069 
z
M 847 1978 
L 2700 1978 
Q 2663 2397 2488 2606 
Q 2219 2931 1791 2931 
Q 1403 2931 1139 2672 
Q 875 2413 847 1978 
z
" transform="scale(0.015625)"/>
       <path id="ArialMT-77" d="M 1034 0 
L 19 3319 
L 600 3319 
L 1128 1403 
L 1325 691 
Q 1338 744 1497 1375 
L 2025 3319 
L 2603 3319 
L 3100 1394 
L 3266 759 
L 3456 1400 
L 4025 3319 
L 4572 3319 
L 3534 0 
L 2950 0 
L 2422 1988 
L 2294 2553 
L 1622 0 
L 1034 0 
z
" transform="scale(0.015625)"/>
       <path id="ArialMT-20" transform="scale(0.015625)"/>
       <path id="ArialMT-73" d="M 197 991 
L 753 1078 
Q 800 744 1014 566 
Q 1228 388 1613 388 
Q 2000 388 2187 545 
Q 2375 703 2375 916 
Q 2375 1106 2209 1216 
Q 2094 1291 1634 1406 
Q 1016 1563 777 1677 
Q 538 1791 414 1992 
Q 291 2194 291 2438 
Q 291 2659 392 2848 
Q 494 3038 669 3163 
Q 800 3259 1026 3326 
Q 1253 3394 1513 3394 
Q 1903 3394 2198 3281 
Q 2494 3169 2634 2976 
Q 2775 2784 2828 2463 
L 2278 2388 
Q 2241 2644 2061 2787 
Q 1881 2931 1553 2931 
Q 1166 2931 1000 2803 
Q 834 2675 834 2503 
Q 834 2394 903 2306 
Q 972 2216 1119 2156 
Q 1203 2125 1616 2013 
Q 2213 1853 2448 1751 
Q 2684 1650 2818 1456 
Q 2953 1263 2953 975 
Q 2953 694 2789 445 
Q 2625 197 2315 61 
Q 2006 -75 1616 -75 
Q 969 -75 630 194 
Q 291 463 197 991 
z
" transform="scale(0.015625)"/>
       <path id="ArialMT-74" d="M 1650 503 
L 1731 6 
Q 1494 -44 1306 -44 
Q 1000 -44 831 53 
Q 663 150 594 308 
Q 525 466 525 972 
L 525 2881 
L 113 2881 
L 113 3319 
L 525 3319 
L 525 4141 
L 1084 4478 
L 1084 3319 
L 1650 3319 
L 1650 2881 
L 1084 2881 
L 1084 941 
Q 1084 700 1114 631 
Q 1144 563 1211 522 
Q 1278 481 1403 481 
Q 1497 481 1650 503 
z
" transform="scale(0.015625)"/>
       <path id="ArialMT-72" d="M 416 0 
L 416 3319 
L 922 3319 
L 922 2816 
Q 1116 3169 1280 3281 
Q 1444 3394 1641 3394 
Q 1925 3394 2219 3213 
L 2025 2691 
Q 1819 2813 1613 2813 
Q 1428 2813 1281 2702 
Q 1134 2591 1072 2394 
Q 978 2094 978 1738 
L 978 0 
L 416 0 
z
" transform="scale(0.015625)"/>
       <path id="ArialMT-61" d="M 2588 409 
Q 2275 144 1986 34 
Q 1697 -75 1366 -75 
Q 819 -75 525 192 
Q 231 459 231 875 
Q 231 1119 342 1320 
Q 453 1522 633 1644 
Q 813 1766 1038 1828 
Q 1203 1872 1538 1913 
Q 2219 1994 2541 2106 
Q 2544 2222 2544 2253 
Q 2544 2597 2384 2738 
Q 2169 2928 1744 2928 
Q 1347 2928 1158 2789 
Q 969 2650 878 2297 
L 328 2372 
Q 403 2725 575 2942 
Q 747 3159 1072 3276 
Q 1397 3394 1825 3394 
Q 2250 3394 2515 3294 
Q 2781 3194 2906 3042 
Q 3031 2891 3081 2659 
Q 3109 2516 3109 2141 
L 3109 1391 
Q 3109 606 3145 398 
Q 3181 191 3288 0 
L 2700 0 
Q 2613 175 2588 409 
z
M 2541 1666 
Q 2234 1541 1622 1453 
Q 1275 1403 1131 1340 
Q 988 1278 909 1158 
Q 831 1038 831 891 
Q 831 666 1001 516 
Q 1172 366 1500 366 
Q 1825 366 2078 508 
Q 2331 650 2450 897 
Q 2541 1088 2541 1459 
L 2541 1666 
z
" transform="scale(0.015625)"/>
       <path id="ArialMT-69" d="M 425 3934 
L 425 4581 
L 988 4581 
L 988 3934 
L 425 3934 
z
M 425 0 
L 425 3319 
L 988 3319 
L 988 0 
L 425 0 
z
" transform="scale(0.015625)"/>
       <path id="ArialMT-6e" d="M 422 0 
L 422 3319 
L 928 3319 
L 928 2847 
Q 1294 3394 1984 3394 
Q 2284 3394 2536 3286 
Q 2788 3178 2913 3003 
Q 3038 2828 3088 2588 
Q 3119 2431 3119 2041 
L 3119 0 
L 2556 0 
L 2556 2019 
Q 2556 2363 2490 2533 
Q 2425 2703 2258 2804 
Q 2091 2906 1866 2906 
Q 1506 2906 1245 2678 
Q 984 2450 984 1813 
L 984 0 
L 422 0 
z
" transform="scale(0.015625)"/>
      </defs>
      <use xlink:href="#ArialMT-4e"/>
      <use xlink:href="#ArialMT-65" x="72.216797"/>
      <use xlink:href="#ArialMT-77" x="127.832031"/>
      <use xlink:href="#ArialMT-20" x="200.048828"/>
      <use xlink:href="#ArialMT-73" x="227.832031"/>
      <use xlink:href="#ArialMT-74" x="277.832031"/>
      <use xlink:href="#ArialMT-72" x="305.615234"/>
      <use xlink:href="#ArialMT-61" x="338.916016"/>
      <use xlink:href="#ArialMT-69" x="394.53125"/>
      <use xlink:href="#ArialMT-6e" x="416.748047"/>
      <use xlink:href="#ArialMT-73" x="472.363281"/>
     </g>
    </g>
    <g id="patch_53">
     <path d="M 172.662344 40.533438 
L 194.662344 40.533438 
L 194.662344 32.833438 
L 172.662344 32.833438 
z
" style="fill: #1b9e77"/>
    </g>
    <g id="text_27">
     <!-- 1011 strains -->
     <g transform="translate(203.462344 40.533438) scale(0.11 -0.11)">
      <defs>
       <path id="ArialMT-31" d="M 2384 0 
L 1822 0 
L 1822 3584 
Q 1619 3391 1289 3197 
Q 959 3003 697 2906 
L 697 3450 
Q 1169 3672 1522 3987 
Q 1875 4303 2022 4600 
L 2384 4600 
L 2384 0 
z
" transform="scale(0.015625)"/>
      </defs>
      <use xlink:href="#ArialMT-31"/>
      <use xlink:href="#ArialMT-30" x="55.615234"/>
      <use xlink:href="#ArialMT-31" x="111.230469"/>
      <use xlink:href="#ArialMT-31" x="159.470703"/>
      <use xlink:href="#ArialMT-20" x="215.085938"/>
      <use xlink:href="#ArialMT-73" x="242.869141"/>
      <use xlink:href="#ArialMT-74" x="292.869141"/>
      <use xlink:href="#ArialMT-72" x="320.652344"/>
      <use xlink:href="#ArialMT-61" x="353.953125"/>
      <use xlink:href="#ArialMT-69" x="409.568359"/>
      <use xlink:href="#ArialMT-6e" x="431.785156"/>
      <use xlink:href="#ArialMT-73" x="487.400391"/>
     </g>
    </g>
   </g>
  </g>
 </g>
 <defs>
  <clipPath id="pefe1d85e46">
   <rect x="160.871875" y="7.2" width="111.6" height="371.448"/>
  </clipPath>
 </defs>
</svg>
