<?xml version="1.0" encoding="utf-8" standalone="no"?>
<!DOCTYPE svg PUBLIC "-//W3C//DTD SVG 1.1//EN"
  "http://www.w3.org/Graphics/SVG/1.1/DTD/svg11.dtd">
<svg xmlns:xlink="http://www.w3.org/1999/xlink" width="392.935638pt" height="309.86923pt" viewBox="0 0 392.935638 309.86923" xmlns="http://www.w3.org/2000/svg" version="1.1">
 <metadata>
  <rdf:RDF xmlns:dc="http://purl.org/dc/elements/1.1/" xmlns:cc="http://creativecommons.org/ns#" xmlns:rdf="http://www.w3.org/1999/02/22-rdf-syntax-ns#">
   <cc:Work>
    <dc:type rdf:resource="http://purl.org/dc/dcmitype/StillImage"/>
    <dc:date>2024-05-27T10:25:22.547885</dc:date>
    <dc:format>image/svg+xml</dc:format>
    <dc:creator>
     <cc:Agent>
      <dc:title>Matplotlib v3.8.4, https://matplotlib.org/</dc:title>
     </cc:Agent>
    </dc:creator>
   </cc:Work>
  </rdf:RDF>
 </metadata>
 <defs>
  <style type="text/css">*{stroke-linejoin: round; stroke-linecap: butt}</style>
 </defs>
 <g id="figure_1">
  <g id="patch_1">
   <path d="M 0 309.86923 
L 392.935638 309.86923 
L 392.935638 0 
L 0 0 
L 0 309.86923 
z
" style="fill: none"/>
  </g>
  <g id="axes_1">
   <g id="patch_2">
    <path d="M 49.81125 48.78 
L 384.61125 48.78 
L 384.61125 7.2 
L 49.81125 7.2 
L 49.81125 48.78 
z
" style="fill: none"/>
   </g>
   <g id="patch_3">
    <path d="M 51.90375 48.78 
L 68.64375 48.78 
L 68.64375 44.177579 
L 51.90375 44.177579 
z
" clip-path="url(#pd96d9330e6)" style="fill: #cb6d67"/>
   </g>
   <g id="patch_4">
    <path d="M 72.82875 48.78 
L 89.56875 48.78 
L 89.56875 32.959177 
L 72.82875 32.959177 
z
" clip-path="url(#pd96d9330e6)" style="fill: #cb9367"/>
   </g>
   <g id="patch_5">
    <path d="M 93.75375 48.78 
L 110.49375 48.78 
L 110.49375 45.040533 
L 93.75375 45.040533 
z
" clip-path="url(#pd96d9330e6)" style="fill: #cbb867"/>
   </g>
   <g id="patch_6">
    <path d="M 114.67875 48.78 
L 131.41875 48.78 
L 131.41875 47.149976 
L 114.67875 47.149976 
z
" clip-path="url(#pd96d9330e6)" style="fill: #b8cb67"/>
   </g>
   <g id="patch_7">
    <path d="M 135.60375 48.78 
L 152.34375 48.78 
L 152.34375 46.191138 
L 135.60375 46.191138 
z
" clip-path="url(#pd96d9330e6)" style="fill: #93cb67"/>
   </g>
   <g id="patch_8">
    <path d="M 156.52875 48.78 
L 173.26875 48.78 
L 173.26875 45.807603 
L 156.52875 45.807603 
z
" clip-path="url(#pd96d9330e6)" style="fill: #6ecb67"/>
   </g>
   <g id="patch_9">
    <path d="M 177.45375 48.78 
L 194.19375 48.78 
L 194.19375 24.233753 
L 177.45375 24.233753 
z
" clip-path="url(#pd96d9330e6)" style="fill: #67cb86"/>
   </g>
   <g id="patch_10">
    <path d="M 198.37875 48.78 
L 215.11875 48.78 
L 215.11875 33.055061 
L 198.37875 33.055061 
z
" clip-path="url(#pd96d9330e6)" style="fill: #67cbab"/>
   </g>
   <g id="patch_11">
    <path d="M 219.30375 48.78 
L 236.04375 48.78 
L 236.04375 45.807603 
L 219.30375 45.807603 
z
" clip-path="url(#pd96d9330e6)" style="fill: #67c5cb"/>
   </g>
   <g id="patch_12">
    <path d="M 240.22875 48.78 
L 256.96875 48.78 
L 256.96875 46.766441 
L 240.22875 46.766441 
z
" clip-path="url(#pd96d9330e6)" style="fill: #679fcb"/>
   </g>
   <g id="patch_13">
    <path d="M 261.15375 48.78 
L 277.89375 48.78 
L 277.89375 47.054092 
L 261.15375 47.054092 
z
" clip-path="url(#pd96d9330e6)" style="fill: #677acb"/>
   </g>
   <g id="patch_14">
    <path d="M 282.07875 48.78 
L 298.81875 48.78 
L 298.81875 43.602276 
L 282.07875 43.602276 
z
" clip-path="url(#pd96d9330e6)" style="fill: #7a67cb"/>
   </g>
   <g id="patch_15">
    <path d="M 303.00375 48.78 
L 319.74375 48.78 
L 319.74375 45.040533 
L 303.00375 45.040533 
z
" clip-path="url(#pd96d9330e6)" style="fill: #9f67cb"/>
   </g>
   <g id="patch_16">
    <path d="M 323.92875 48.78 
L 340.66875 48.78 
L 340.66875 38.520436 
L 323.92875 38.520436 
z
" clip-path="url(#pd96d9330e6)" style="fill: #c467cb"/>
   </g>
   <g id="patch_17">
    <path d="M 344.85375 48.78 
L 361.59375 48.78 
L 361.59375 12.631816 
L 344.85375 12.631816 
z
" clip-path="url(#pd96d9330e6)" style="fill: #cb67ac"/>
   </g>
   <g id="patch_18">
    <path d="M 365.77875 48.78 
L 382.51875 48.78 
L 382.51875 9.18 
L 365.77875 9.18 
z
" clip-path="url(#pd96d9330e6)" style="fill: #cb6787"/>
   </g>
   <g id="matplotlib.axis_1">
    <g id="xtick_1">
     <g id="line2d_1">
      <defs>
       <path id="m80f6b5afdd" d="M 0 0 
L 0 3.5 
" style="stroke: #000000; stroke-width: 0.8"/>
      </defs>
      <g>
       <use xlink:href="#m80f6b5afdd" x="60.27375" y="48.78" style="stroke: #000000; stroke-width: 0.8"/>
      </g>
     </g>
    </g>
    <g id="xtick_2">
     <g id="line2d_2">
      <g>
       <use xlink:href="#m80f6b5afdd" x="81.19875" y="48.78" style="stroke: #000000; stroke-width: 0.8"/>
      </g>
     </g>
    </g>
    <g id="xtick_3">
     <g id="line2d_3">
      <g>
       <use xlink:href="#m80f6b5afdd" x="102.12375" y="48.78" style="stroke: #000000; stroke-width: 0.8"/>
      </g>
     </g>
    </g>
    <g id="xtick_4">
     <g id="line2d_4">
      <g>
       <use xlink:href="#m80f6b5afdd" x="123.04875" y="48.78" style="stroke: #000000; stroke-width: 0.8"/>
      </g>
     </g>
    </g>
    <g id="xtick_5">
     <g id="line2d_5">
      <g>
       <use xlink:href="#m80f6b5afdd" x="143.97375" y="48.78" style="stroke: #000000; stroke-width: 0.8"/>
      </g>
     </g>
    </g>
    <g id="xtick_6">
     <g id="line2d_6">
      <g>
       <use xlink:href="#m80f6b5afdd" x="164.89875" y="48.78" style="stroke: #000000; stroke-width: 0.8"/>
      </g>
     </g>
    </g>
    <g id="xtick_7">
     <g id="line2d_7">
      <g>
       <use xlink:href="#m80f6b5afdd" x="185.82375" y="48.78" style="stroke: #000000; stroke-width: 0.8"/>
      </g>
     </g>
    </g>
    <g id="xtick_8">
     <g id="line2d_8">
      <g>
       <use xlink:href="#m80f6b5afdd" x="206.74875" y="48.78" style="stroke: #000000; stroke-width: 0.8"/>
      </g>
     </g>
    </g>
    <g id="xtick_9">
     <g id="line2d_9">
      <g>
       <use xlink:href="#m80f6b5afdd" x="227.67375" y="48.78" style="stroke: #000000; stroke-width: 0.8"/>
      </g>
     </g>
    </g>
    <g id="xtick_10">
     <g id="line2d_10">
      <g>
       <use xlink:href="#m80f6b5afdd" x="248.59875" y="48.78" style="stroke: #000000; stroke-width: 0.8"/>
      </g>
     </g>
    </g>
    <g id="xtick_11">
     <g id="line2d_11">
      <g>
       <use xlink:href="#m80f6b5afdd" x="269.52375" y="48.78" style="stroke: #000000; stroke-width: 0.8"/>
      </g>
     </g>
    </g>
    <g id="xtick_12">
     <g id="line2d_12">
      <g>
       <use xlink:href="#m80f6b5afdd" x="290.44875" y="48.78" style="stroke: #000000; stroke-width: 0.8"/>
      </g>
     </g>
    </g>
    <g id="xtick_13">
     <g id="line2d_13">
      <g>
       <use xlink:href="#m80f6b5afdd" x="311.37375" y="48.78" style="stroke: #000000; stroke-width: 0.8"/>
      </g>
     </g>
    </g>
    <g id="xtick_14">
     <g id="line2d_14">
      <g>
       <use xlink:href="#m80f6b5afdd" x="332.29875" y="48.78" style="stroke: #000000; stroke-width: 0.8"/>
      </g>
     </g>
    </g>
    <g id="xtick_15">
     <g id="line2d_15">
      <g>
       <use xlink:href="#m80f6b5afdd" x="353.22375" y="48.78" style="stroke: #000000; stroke-width: 0.8"/>
      </g>
     </g>
    </g>
    <g id="xtick_16">
     <g id="line2d_16">
      <g>
       <use xlink:href="#m80f6b5afdd" x="374.14875" y="48.78" style="stroke: #000000; stroke-width: 0.8"/>
      </g>
     </g>
    </g>
   </g>
   <g id="matplotlib.axis_2">
    <g id="ytick_1">
     <g id="line2d_17">
      <defs>
       <path id="m6af386b514" d="M 0 0 
L -3.5 0 
" style="stroke: #000000; stroke-width: 0.8"/>
      </defs>
      <g>
       <use xlink:href="#m6af386b514" x="49.81125" y="48.78" style="stroke: #000000; stroke-width: 0.8"/>
      </g>
     </g>
     <g id="text_1">
      <!-- 0 -->
      <g transform="translate(37.250313 52.358906) scale(0.1 -0.1)">
       <defs>
        <path id="ArialMT-30" d="M 266 2259 
Q 266 3072 433 3567 
Q 600 4063 929 4331 
Q 1259 4600 1759 4600 
Q 2128 4600 2406 4451 
Q 2684 4303 2865 4023 
Q 3047 3744 3150 3342 
Q 3253 2941 3253 2259 
Q 3253 1453 3087 958 
Q 2922 463 2592 192 
Q 2263 -78 1759 -78 
Q 1097 -78 719 397 
Q 266 969 266 2259 
z
M 844 2259 
Q 844 1131 1108 757 
Q 1372 384 1759 384 
Q 2147 384 2411 759 
Q 2675 1134 2675 2259 
Q 2675 3391 2411 3762 
Q 2147 4134 1753 4134 
Q 1366 4134 1134 3806 
Q 844 3388 844 2259 
z
" transform="scale(0.015625)"/>
       </defs>
       <use xlink:href="#ArialMT-30"/>
      </g>
     </g>
    </g>
    <g id="ytick_2">
     <g id="line2d_18">
      <g>
       <use xlink:href="#m6af386b514" x="49.81125" y="39.191622" style="stroke: #000000; stroke-width: 0.8"/>
      </g>
     </g>
     <g id="text_2">
      <!-- 100 -->
      <g transform="translate(26.128438 42.770529) scale(0.1 -0.1)">
       <defs>
        <path id="ArialMT-31" d="M 2384 0 
L 1822 0 
L 1822 3584 
Q 1619 3391 1289 3197 
Q 959 3003 697 2906 
L 697 3450 
Q 1169 3672 1522 3987 
Q 1875 4303 2022 4600 
L 2384 4600 
L 2384 0 
z
" transform="scale(0.015625)"/>
       </defs>
       <use xlink:href="#ArialMT-31"/>
       <use xlink:href="#ArialMT-30" x="55.615234"/>
       <use xlink:href="#ArialMT-30" x="111.230469"/>
      </g>
     </g>
    </g>
    <g id="ytick_3">
     <g id="line2d_19">
      <g>
       <use xlink:href="#m6af386b514" x="49.81125" y="29.603245" style="stroke: #000000; stroke-width: 0.8"/>
      </g>
     </g>
     <g id="text_3">
      <!-- 200 -->
      <g transform="translate(26.128438 33.182151) scale(0.1 -0.1)">
       <defs>
        <path id="ArialMT-32" d="M 3222 541 
L 3222 0 
L 194 0 
Q 188 203 259 391 
Q 375 700 629 1000 
Q 884 1300 1366 1694 
Q 2113 2306 2375 2664 
Q 2638 3022 2638 3341 
Q 2638 3675 2398 3904 
Q 2159 4134 1775 4134 
Q 1369 4134 1125 3890 
Q 881 3647 878 3216 
L 300 3275 
Q 359 3922 746 4261 
Q 1134 4600 1788 4600 
Q 2447 4600 2831 4234 
Q 3216 3869 3216 3328 
Q 3216 3053 3103 2787 
Q 2991 2522 2730 2228 
Q 2469 1934 1863 1422 
Q 1356 997 1212 845 
Q 1069 694 975 541 
L 3222 541 
z
" transform="scale(0.015625)"/>
       </defs>
       <use xlink:href="#ArialMT-32"/>
       <use xlink:href="#ArialMT-30" x="55.615234"/>
       <use xlink:href="#ArialMT-30" x="111.230469"/>
      </g>
     </g>
    </g>
    <g id="ytick_4">
     <g id="line2d_20">
      <g>
       <use xlink:href="#m6af386b514" x="49.81125" y="20.014867" style="stroke: #000000; stroke-width: 0.8"/>
      </g>
     </g>
     <g id="text_4">
      <!-- 300 -->
      <g transform="translate(26.128438 23.593773) scale(0.1 -0.1)">
       <defs>
        <path id="ArialMT-33" d="M 269 1209 
L 831 1284 
Q 928 806 1161 595 
Q 1394 384 1728 384 
Q 2125 384 2398 659 
Q 2672 934 2672 1341 
Q 2672 1728 2419 1979 
Q 2166 2231 1775 2231 
Q 1616 2231 1378 2169 
L 1441 2663 
Q 1497 2656 1531 2656 
Q 1891 2656 2178 2843 
Q 2466 3031 2466 3422 
Q 2466 3731 2256 3934 
Q 2047 4138 1716 4138 
Q 1388 4138 1169 3931 
Q 950 3725 888 3313 
L 325 3413 
Q 428 3978 793 4289 
Q 1159 4600 1703 4600 
Q 2078 4600 2393 4439 
Q 2709 4278 2876 4000 
Q 3044 3722 3044 3409 
Q 3044 3113 2884 2869 
Q 2725 2625 2413 2481 
Q 2819 2388 3044 2092 
Q 3269 1797 3269 1353 
Q 3269 753 2831 336 
Q 2394 -81 1725 -81 
Q 1122 -81 723 278 
Q 325 638 269 1209 
z
" transform="scale(0.015625)"/>
       </defs>
       <use xlink:href="#ArialMT-33"/>
       <use xlink:href="#ArialMT-30" x="55.615234"/>
       <use xlink:href="#ArialMT-30" x="111.230469"/>
      </g>
     </g>
    </g>
    <g id="text_5">
     <!-- Strain No. -->
     <g transform="translate(14.357813 51.6025) rotate(-90) scale(0.1 -0.1)">
      <defs>
       <path id="Arial-BoldMT-53" d="M 231 1491 
L 1131 1578 
Q 1213 1125 1461 912 
Q 1709 700 2131 700 
Q 2578 700 2804 889 
Q 3031 1078 3031 1331 
Q 3031 1494 2936 1608 
Q 2841 1722 2603 1806 
Q 2441 1863 1863 2006 
Q 1119 2191 819 2459 
Q 397 2838 397 3381 
Q 397 3731 595 4036 
Q 794 4341 1167 4500 
Q 1541 4659 2069 4659 
Q 2931 4659 3367 4281 
Q 3803 3903 3825 3272 
L 2900 3231 
Q 2841 3584 2645 3739 
Q 2450 3894 2059 3894 
Q 1656 3894 1428 3728 
Q 1281 3622 1281 3444 
Q 1281 3281 1419 3166 
Q 1594 3019 2269 2859 
Q 2944 2700 3267 2529 
Q 3591 2359 3773 2064 
Q 3956 1769 3956 1334 
Q 3956 941 3737 597 
Q 3519 253 3119 86 
Q 2719 -81 2122 -81 
Q 1253 -81 787 320 
Q 322 722 231 1491 
z
" transform="scale(0.015625)"/>
       <path id="Arial-BoldMT-74" d="M 1981 3319 
L 1981 2619 
L 1381 2619 
L 1381 1281 
Q 1381 875 1398 808 
Q 1416 741 1477 697 
Q 1538 653 1625 653 
Q 1747 653 1978 738 
L 2053 56 
Q 1747 -75 1359 -75 
Q 1122 -75 931 4 
Q 741 84 652 211 
Q 563 338 528 553 
Q 500 706 500 1172 
L 500 2619 
L 97 2619 
L 97 3319 
L 500 3319 
L 500 3978 
L 1381 4491 
L 1381 3319 
L 1981 3319 
z
" transform="scale(0.015625)"/>
       <path id="Arial-BoldMT-72" d="M 1300 0 
L 422 0 
L 422 3319 
L 1238 3319 
L 1238 2847 
Q 1447 3181 1614 3287 
Q 1781 3394 1994 3394 
Q 2294 3394 2572 3228 
L 2300 2463 
Q 2078 2606 1888 2606 
Q 1703 2606 1575 2504 
Q 1447 2403 1373 2137 
Q 1300 1872 1300 1025 
L 1300 0 
z
" transform="scale(0.015625)"/>
       <path id="Arial-BoldMT-61" d="M 1116 2306 
L 319 2450 
Q 453 2931 781 3162 
Q 1109 3394 1756 3394 
Q 2344 3394 2631 3255 
Q 2919 3116 3036 2902 
Q 3153 2688 3153 2116 
L 3144 1091 
Q 3144 653 3186 445 
Q 3228 238 3344 0 
L 2475 0 
Q 2441 88 2391 259 
Q 2369 338 2359 363 
Q 2134 144 1878 34 
Q 1622 -75 1331 -75 
Q 819 -75 523 203 
Q 228 481 228 906 
Q 228 1188 362 1408 
Q 497 1628 739 1745 
Q 981 1863 1438 1950 
Q 2053 2066 2291 2166 
L 2291 2253 
Q 2291 2506 2166 2614 
Q 2041 2722 1694 2722 
Q 1459 2722 1328 2630 
Q 1197 2538 1116 2306 
z
M 2291 1594 
Q 2122 1538 1756 1459 
Q 1391 1381 1278 1306 
Q 1106 1184 1106 997 
Q 1106 813 1243 678 
Q 1381 544 1594 544 
Q 1831 544 2047 700 
Q 2206 819 2256 991 
Q 2291 1103 2291 1419 
L 2291 1594 
z
" transform="scale(0.015625)"/>
       <path id="Arial-BoldMT-69" d="M 459 3769 
L 459 4581 
L 1338 4581 
L 1338 3769 
L 459 3769 
z
M 459 0 
L 459 3319 
L 1338 3319 
L 1338 0 
L 459 0 
z
" transform="scale(0.015625)"/>
       <path id="Arial-BoldMT-6e" d="M 3478 0 
L 2600 0 
L 2600 1694 
Q 2600 2231 2544 2389 
Q 2488 2547 2361 2634 
Q 2234 2722 2056 2722 
Q 1828 2722 1647 2597 
Q 1466 2472 1398 2265 
Q 1331 2059 1331 1503 
L 1331 0 
L 453 0 
L 453 3319 
L 1269 3319 
L 1269 2831 
Q 1703 3394 2363 3394 
Q 2653 3394 2893 3289 
Q 3134 3184 3257 3021 
Q 3381 2859 3429 2653 
Q 3478 2447 3478 2063 
L 3478 0 
z
" transform="scale(0.015625)"/>
       <path id="Arial-BoldMT-20" transform="scale(0.015625)"/>
       <path id="Arial-BoldMT-4e" d="M 475 0 
L 475 4581 
L 1375 4581 
L 3250 1522 
L 3250 4581 
L 4109 4581 
L 4109 0 
L 3181 0 
L 1334 2988 
L 1334 0 
L 475 0 
z
" transform="scale(0.015625)"/>
       <path id="Arial-BoldMT-6f" d="M 256 1706 
Q 256 2144 472 2553 
Q 688 2963 1083 3178 
Q 1478 3394 1966 3394 
Q 2719 3394 3200 2905 
Q 3681 2416 3681 1669 
Q 3681 916 3195 420 
Q 2709 -75 1972 -75 
Q 1516 -75 1102 131 
Q 688 338 472 736 
Q 256 1134 256 1706 
z
M 1156 1659 
Q 1156 1166 1390 903 
Q 1625 641 1969 641 
Q 2313 641 2545 903 
Q 2778 1166 2778 1666 
Q 2778 2153 2545 2415 
Q 2313 2678 1969 2678 
Q 1625 2678 1390 2415 
Q 1156 2153 1156 1659 
z
" transform="scale(0.015625)"/>
       <path id="Arial-BoldMT-2e" d="M 459 0 
L 459 878 
L 1338 878 
L 1338 0 
L 459 0 
z
" transform="scale(0.015625)"/>
      </defs>
      <use xlink:href="#Arial-BoldMT-53"/>
      <use xlink:href="#Arial-BoldMT-74" x="66.699219"/>
      <use xlink:href="#Arial-BoldMT-72" x="100"/>
      <use xlink:href="#Arial-BoldMT-61" x="138.916016"/>
      <use xlink:href="#Arial-BoldMT-69" x="194.53125"/>
      <use xlink:href="#Arial-BoldMT-6e" x="222.314453"/>
      <use xlink:href="#Arial-BoldMT-20" x="283.398438"/>
      <use xlink:href="#Arial-BoldMT-4e" x="311.181641"/>
      <use xlink:href="#Arial-BoldMT-6f" x="383.398438"/>
      <use xlink:href="#Arial-BoldMT-2e" x="444.482422"/>
     </g>
    </g>
   </g>
   <g id="line2d_21">
    <path clip-path="url(#pd96d9330e6)" style="fill: none; stroke: #424242; stroke-width: 2.25; stroke-linecap: square"/>
   </g>
   <g id="line2d_22">
    <path clip-path="url(#pd96d9330e6)" style="fill: none; stroke: #424242; stroke-width: 2.25; stroke-linecap: square"/>
   </g>
   <g id="line2d_23">
    <path clip-path="url(#pd96d9330e6)" style="fill: none; stroke: #424242; stroke-width: 2.25; stroke-linecap: square"/>
   </g>
   <g id="line2d_24">
    <path clip-path="url(#pd96d9330e6)" style="fill: none; stroke: #424242; stroke-width: 2.25; stroke-linecap: square"/>
   </g>
   <g id="line2d_25">
    <path clip-path="url(#pd96d9330e6)" style="fill: none; stroke: #424242; stroke-width: 2.25; stroke-linecap: square"/>
   </g>
   <g id="line2d_26">
    <path clip-path="url(#pd96d9330e6)" style="fill: none; stroke: #424242; stroke-width: 2.25; stroke-linecap: square"/>
   </g>
   <g id="line2d_27">
    <path clip-path="url(#pd96d9330e6)" style="fill: none; stroke: #424242; stroke-width: 2.25; stroke-linecap: square"/>
   </g>
   <g id="line2d_28">
    <path clip-path="url(#pd96d9330e6)" style="fill: none; stroke: #424242; stroke-width: 2.25; stroke-linecap: square"/>
   </g>
   <g id="line2d_29">
    <path clip-path="url(#pd96d9330e6)" style="fill: none; stroke: #424242; stroke-width: 2.25; stroke-linecap: square"/>
   </g>
   <g id="line2d_30">
    <path clip-path="url(#pd96d9330e6)" style="fill: none; stroke: #424242; stroke-width: 2.25; stroke-linecap: square"/>
   </g>
   <g id="line2d_31">
    <path clip-path="url(#pd96d9330e6)" style="fill: none; stroke: #424242; stroke-width: 2.25; stroke-linecap: square"/>
   </g>
   <g id="line2d_32">
    <path clip-path="url(#pd96d9330e6)" style="fill: none; stroke: #424242; stroke-width: 2.25; stroke-linecap: square"/>
   </g>
   <g id="line2d_33">
    <path clip-path="url(#pd96d9330e6)" style="fill: none; stroke: #424242; stroke-width: 2.25; stroke-linecap: square"/>
   </g>
   <g id="line2d_34">
    <path clip-path="url(#pd96d9330e6)" style="fill: none; stroke: #424242; stroke-width: 2.25; stroke-linecap: square"/>
   </g>
   <g id="line2d_35">
    <path clip-path="url(#pd96d9330e6)" style="fill: none; stroke: #424242; stroke-width: 2.25; stroke-linecap: square"/>
   </g>
   <g id="line2d_36">
    <path clip-path="url(#pd96d9330e6)" style="fill: none; stroke: #424242; stroke-width: 2.25; stroke-linecap: square"/>
   </g>
   <g id="patch_19">
    <path d="M 49.81125 48.78 
L 49.81125 7.2 
" style="fill: none; stroke: #000000; stroke-linejoin: miter; stroke-linecap: square"/>
   </g>
   <g id="patch_20">
    <path d="M 384.61125 48.78 
L 384.61125 7.2 
" style="fill: none; stroke: #000000; stroke-linejoin: miter; stroke-linecap: square"/>
   </g>
   <g id="patch_21">
    <path d="M 49.81125 48.78 
L 384.61125 48.78 
" style="fill: none; stroke: #000000; stroke-linejoin: miter; stroke-linecap: square"/>
   </g>
   <g id="patch_22">
    <path d="M 49.81125 7.2 
L 384.61125 7.2 
" style="fill: none; stroke: #000000; stroke-linejoin: miter; stroke-linecap: square"/>
   </g>
  </g>
  <g id="axes_2">
   <g id="patch_23">
    <path d="M 49.81125 138.87 
L 384.61125 138.87 
L 384.61125 55.71 
L 49.81125 55.71 
L 49.81125 138.87 
z
" style="fill: none"/>
   </g>
   <g id="matplotlib.axis_3">
    <g id="xtick_17">
     <g id="line2d_37">
      <g>
       <use xlink:href="#m80f6b5afdd" x="60.27375" y="138.87" style="stroke: #000000; stroke-width: 0.8"/>
      </g>
     </g>
    </g>
    <g id="xtick_18">
     <g id="line2d_38">
      <g>
       <use xlink:href="#m80f6b5afdd" x="81.19875" y="138.87" style="stroke: #000000; stroke-width: 0.8"/>
      </g>
     </g>
    </g>
    <g id="xtick_19">
     <g id="line2d_39">
      <g>
       <use xlink:href="#m80f6b5afdd" x="102.12375" y="138.87" style="stroke: #000000; stroke-width: 0.8"/>
      </g>
     </g>
    </g>
    <g id="xtick_20">
     <g id="line2d_40">
      <g>
       <use xlink:href="#m80f6b5afdd" x="123.04875" y="138.87" style="stroke: #000000; stroke-width: 0.8"/>
      </g>
     </g>
    </g>
    <g id="xtick_21">
     <g id="line2d_41">
      <g>
       <use xlink:href="#m80f6b5afdd" x="143.97375" y="138.87" style="stroke: #000000; stroke-width: 0.8"/>
      </g>
     </g>
    </g>
    <g id="xtick_22">
     <g id="line2d_42">
      <g>
       <use xlink:href="#m80f6b5afdd" x="164.89875" y="138.87" style="stroke: #000000; stroke-width: 0.8"/>
      </g>
     </g>
    </g>
    <g id="xtick_23">
     <g id="line2d_43">
      <g>
       <use xlink:href="#m80f6b5afdd" x="185.82375" y="138.87" style="stroke: #000000; stroke-width: 0.8"/>
      </g>
     </g>
    </g>
    <g id="xtick_24">
     <g id="line2d_44">
      <g>
       <use xlink:href="#m80f6b5afdd" x="206.74875" y="138.87" style="stroke: #000000; stroke-width: 0.8"/>
      </g>
     </g>
    </g>
    <g id="xtick_25">
     <g id="line2d_45">
      <g>
       <use xlink:href="#m80f6b5afdd" x="227.67375" y="138.87" style="stroke: #000000; stroke-width: 0.8"/>
      </g>
     </g>
    </g>
    <g id="xtick_26">
     <g id="line2d_46">
      <g>
       <use xlink:href="#m80f6b5afdd" x="248.59875" y="138.87" style="stroke: #000000; stroke-width: 0.8"/>
      </g>
     </g>
    </g>
    <g id="xtick_27">
     <g id="line2d_47">
      <g>
       <use xlink:href="#m80f6b5afdd" x="269.52375" y="138.87" style="stroke: #000000; stroke-width: 0.8"/>
      </g>
     </g>
    </g>
    <g id="xtick_28">
     <g id="line2d_48">
      <g>
       <use xlink:href="#m80f6b5afdd" x="290.44875" y="138.87" style="stroke: #000000; stroke-width: 0.8"/>
      </g>
     </g>
    </g>
    <g id="xtick_29">
     <g id="line2d_49">
      <g>
       <use xlink:href="#m80f6b5afdd" x="311.37375" y="138.87" style="stroke: #000000; stroke-width: 0.8"/>
      </g>
     </g>
    </g>
    <g id="xtick_30">
     <g id="line2d_50">
      <g>
       <use xlink:href="#m80f6b5afdd" x="332.29875" y="138.87" style="stroke: #000000; stroke-width: 0.8"/>
      </g>
     </g>
    </g>
    <g id="xtick_31">
     <g id="line2d_51">
      <g>
       <use xlink:href="#m80f6b5afdd" x="353.22375" y="138.87" style="stroke: #000000; stroke-width: 0.8"/>
      </g>
     </g>
    </g>
    <g id="xtick_32">
     <g id="line2d_52">
      <g>
       <use xlink:href="#m80f6b5afdd" x="374.14875" y="138.87" style="stroke: #000000; stroke-width: 0.8"/>
      </g>
     </g>
    </g>
   </g>
   <g id="matplotlib.axis_4">
    <g id="ytick_5">
     <g id="line2d_53">
      <g>
       <use xlink:href="#m6af386b514" x="49.81125" y="133.33186" style="stroke: #000000; stroke-width: 0.8"/>
      </g>
     </g>
     <g id="text_6">
      <!-- 3960 -->
      <g transform="translate(20.5675 136.910767) scale(0.1 -0.1)">
       <defs>
        <path id="ArialMT-39" d="M 350 1059 
L 891 1109 
Q 959 728 1153 556 
Q 1347 384 1650 384 
Q 1909 384 2104 503 
Q 2300 622 2425 820 
Q 2550 1019 2634 1356 
Q 2719 1694 2719 2044 
Q 2719 2081 2716 2156 
Q 2547 1888 2255 1720 
Q 1963 1553 1622 1553 
Q 1053 1553 659 1965 
Q 266 2378 266 3053 
Q 266 3750 677 4175 
Q 1088 4600 1706 4600 
Q 2153 4600 2523 4359 
Q 2894 4119 3086 3673 
Q 3278 3228 3278 2384 
Q 3278 1506 3087 986 
Q 2897 466 2520 194 
Q 2144 -78 1638 -78 
Q 1100 -78 759 220 
Q 419 519 350 1059 
z
M 2653 3081 
Q 2653 3566 2395 3850 
Q 2138 4134 1775 4134 
Q 1400 4134 1122 3828 
Q 844 3522 844 3034 
Q 844 2597 1108 2323 
Q 1372 2050 1759 2050 
Q 2150 2050 2401 2323 
Q 2653 2597 2653 3081 
z
" transform="scale(0.015625)"/>
        <path id="ArialMT-36" d="M 3184 3459 
L 2625 3416 
Q 2550 3747 2413 3897 
Q 2184 4138 1850 4138 
Q 1581 4138 1378 3988 
Q 1113 3794 959 3422 
Q 806 3050 800 2363 
Q 1003 2672 1297 2822 
Q 1591 2972 1913 2972 
Q 2475 2972 2870 2558 
Q 3266 2144 3266 1488 
Q 3266 1056 3080 686 
Q 2894 316 2569 119 
Q 2244 -78 1831 -78 
Q 1128 -78 684 439 
Q 241 956 241 2144 
Q 241 3472 731 4075 
Q 1159 4600 1884 4600 
Q 2425 4600 2770 4297 
Q 3116 3994 3184 3459 
z
M 888 1484 
Q 888 1194 1011 928 
Q 1134 663 1356 523 
Q 1578 384 1822 384 
Q 2178 384 2434 671 
Q 2691 959 2691 1453 
Q 2691 1928 2437 2201 
Q 2184 2475 1800 2475 
Q 1419 2475 1153 2201 
Q 888 1928 888 1484 
z
" transform="scale(0.015625)"/>
       </defs>
       <use xlink:href="#ArialMT-33"/>
       <use xlink:href="#ArialMT-39" x="55.615234"/>
       <use xlink:href="#ArialMT-36" x="111.230469"/>
       <use xlink:href="#ArialMT-30" x="166.845703"/>
      </g>
     </g>
    </g>
    <g id="ytick_6">
     <g id="line2d_54">
      <g>
       <use xlink:href="#m6af386b514" x="49.81125" y="98.16907" style="stroke: #000000; stroke-width: 0.8"/>
      </g>
     </g>
     <g id="text_7">
      <!-- 3980 -->
      <g transform="translate(20.5675 101.747976) scale(0.1 -0.1)">
       <defs>
        <path id="ArialMT-38" d="M 1131 2484 
Q 781 2613 612 2850 
Q 444 3088 444 3419 
Q 444 3919 803 4259 
Q 1163 4600 1759 4600 
Q 2359 4600 2725 4251 
Q 3091 3903 3091 3403 
Q 3091 3084 2923 2848 
Q 2756 2613 2416 2484 
Q 2838 2347 3058 2040 
Q 3278 1734 3278 1309 
Q 3278 722 2862 322 
Q 2447 -78 1769 -78 
Q 1091 -78 675 323 
Q 259 725 259 1325 
Q 259 1772 486 2073 
Q 713 2375 1131 2484 
z
M 1019 3438 
Q 1019 3113 1228 2906 
Q 1438 2700 1772 2700 
Q 2097 2700 2305 2904 
Q 2513 3109 2513 3406 
Q 2513 3716 2298 3927 
Q 2084 4138 1766 4138 
Q 1444 4138 1231 3931 
Q 1019 3725 1019 3438 
z
M 838 1322 
Q 838 1081 952 856 
Q 1066 631 1291 507 
Q 1516 384 1775 384 
Q 2178 384 2440 643 
Q 2703 903 2703 1303 
Q 2703 1709 2433 1975 
Q 2163 2241 1756 2241 
Q 1359 2241 1098 1978 
Q 838 1716 838 1322 
z
" transform="scale(0.015625)"/>
       </defs>
       <use xlink:href="#ArialMT-33"/>
       <use xlink:href="#ArialMT-39" x="55.615234"/>
       <use xlink:href="#ArialMT-38" x="111.230469"/>
       <use xlink:href="#ArialMT-30" x="166.845703"/>
      </g>
     </g>
    </g>
    <g id="ytick_7">
     <g id="line2d_55">
      <g>
       <use xlink:href="#m6af386b514" x="49.81125" y="63.006279" style="stroke: #000000; stroke-width: 0.8"/>
      </g>
     </g>
     <g id="text_8">
      <!-- 4000 -->
      <g transform="translate(20.5675 66.585185) scale(0.1 -0.1)">
       <defs>
        <path id="ArialMT-34" d="M 2069 0 
L 2069 1097 
L 81 1097 
L 81 1613 
L 2172 4581 
L 2631 4581 
L 2631 1613 
L 3250 1613 
L 3250 1097 
L 2631 1097 
L 2631 0 
L 2069 0 
z
M 2069 1613 
L 2069 3678 
L 634 1613 
L 2069 1613 
z
" transform="scale(0.015625)"/>
       </defs>
       <use xlink:href="#ArialMT-34"/>
       <use xlink:href="#ArialMT-30" x="55.615234"/>
       <use xlink:href="#ArialMT-30" x="111.230469"/>
       <use xlink:href="#ArialMT-30" x="166.845703"/>
      </g>
     </g>
    </g>
    <g id="text_9">
     <!-- Rxn No. -->
     <g transform="translate(14.594063 116.178281) rotate(-90) scale(0.1 -0.1)">
      <defs>
       <path id="Arial-BoldMT-52" d="M 469 0 
L 469 4581 
L 2416 4581 
Q 3150 4581 3483 4457 
Q 3816 4334 4016 4018 
Q 4216 3703 4216 3297 
Q 4216 2781 3912 2445 
Q 3609 2109 3006 2022 
Q 3306 1847 3501 1637 
Q 3697 1428 4028 894 
L 4588 0 
L 3481 0 
L 2813 997 
Q 2456 1531 2325 1670 
Q 2194 1809 2047 1861 
Q 1900 1913 1581 1913 
L 1394 1913 
L 1394 0 
L 469 0 
z
M 1394 2644 
L 2078 2644 
Q 2744 2644 2909 2700 
Q 3075 2756 3169 2893 
Q 3263 3031 3263 3238 
Q 3263 3469 3139 3611 
Q 3016 3753 2791 3791 
Q 2678 3806 2116 3806 
L 1394 3806 
L 1394 2644 
z
" transform="scale(0.015625)"/>
       <path id="Arial-BoldMT-78" d="M 38 0 
L 1234 1709 
L 88 3319 
L 1159 3319 
L 1747 2406 
L 2366 3319 
L 3397 3319 
L 2272 1747 
L 3500 0 
L 2422 0 
L 1747 1028 
L 1066 0 
L 38 0 
z
" transform="scale(0.015625)"/>
      </defs>
      <use xlink:href="#Arial-BoldMT-52"/>
      <use xlink:href="#Arial-BoldMT-78" x="72.216797"/>
      <use xlink:href="#Arial-BoldMT-6e" x="127.832031"/>
      <use xlink:href="#Arial-BoldMT-20" x="188.916016"/>
      <use xlink:href="#Arial-BoldMT-4e" x="216.699219"/>
      <use xlink:href="#Arial-BoldMT-6f" x="288.916016"/>
      <use xlink:href="#Arial-BoldMT-2e" x="350"/>
     </g>
    </g>
   </g>
   <g id="patch_24">
    <path d="M 51.90375 106.959767 
L 68.64375 106.959767 
L 68.64375 87.620233 
L 51.90375 87.620233 
L 51.90375 106.959767 
z
" clip-path="url(#pb919cf6e82)" style="fill: #cb6d67; stroke: #5c5c5c; stroke-linejoin: miter"/>
   </g>
   <g id="line2d_56">
    <path d="M 60.27375 106.959767 
L 60.27375 135.09 
" clip-path="url(#pb919cf6e82)" style="fill: none; stroke: #5c5c5c"/>
   </g>
   <g id="line2d_57">
    <path d="M 60.27375 87.620233 
L 60.27375 68.280698 
" clip-path="url(#pb919cf6e82)" style="fill: none; stroke: #5c5c5c"/>
   </g>
   <g id="line2d_58">
    <path d="M 56.08875 135.09 
L 64.45875 135.09 
" clip-path="url(#pb919cf6e82)" style="fill: none; stroke: #5c5c5c; stroke-linecap: square"/>
   </g>
   <g id="line2d_59">
    <path d="M 56.08875 68.280698 
L 64.45875 68.280698 
" clip-path="url(#pb919cf6e82)" style="fill: none; stroke: #5c5c5c; stroke-linecap: square"/>
   </g>
   <g id="patch_25">
    <path d="M 72.82875 105.201628 
L 89.56875 105.201628 
L 89.56875 87.620233 
L 72.82875 87.620233 
L 72.82875 105.201628 
z
" clip-path="url(#pb919cf6e82)" style="fill: #cb9367; stroke: #5c5c5c; stroke-linejoin: miter"/>
   </g>
   <g id="line2d_60">
    <path d="M 81.19875 105.201628 
L 81.19875 131.573721 
" clip-path="url(#pb919cf6e82)" style="fill: none; stroke: #5c5c5c"/>
   </g>
   <g id="line2d_61">
    <path d="M 81.19875 87.620233 
L 81.19875 66.522558 
" clip-path="url(#pb919cf6e82)" style="fill: none; stroke: #5c5c5c"/>
   </g>
   <g id="line2d_62">
    <path d="M 77.01375 131.573721 
L 85.38375 131.573721 
" clip-path="url(#pb919cf6e82)" style="fill: none; stroke: #5c5c5c; stroke-linecap: square"/>
   </g>
   <g id="line2d_63">
    <path d="M 77.01375 66.522558 
L 85.38375 66.522558 
" clip-path="url(#pb919cf6e82)" style="fill: none; stroke: #5c5c5c; stroke-linecap: square"/>
   </g>
   <g id="patch_26">
    <path d="M 93.75375 103.443488 
L 110.49375 103.443488 
L 110.49375 92.894651 
L 93.75375 92.894651 
L 93.75375 103.443488 
z
" clip-path="url(#pb919cf6e82)" style="fill: #cbb867; stroke: #5c5c5c; stroke-linejoin: miter"/>
   </g>
   <g id="line2d_64">
    <path d="M 102.12375 103.443488 
L 102.12375 115.750465 
" clip-path="url(#pb919cf6e82)" style="fill: none; stroke: #5c5c5c"/>
   </g>
   <g id="line2d_65">
    <path d="M 102.12375 92.894651 
L 102.12375 80.587674 
" clip-path="url(#pb919cf6e82)" style="fill: none; stroke: #5c5c5c"/>
   </g>
   <g id="line2d_66">
    <path d="M 97.93875 115.750465 
L 106.30875 115.750465 
" clip-path="url(#pb919cf6e82)" style="fill: none; stroke: #5c5c5c; stroke-linecap: square"/>
   </g>
   <g id="line2d_67">
    <path d="M 97.93875 80.587674 
L 106.30875 80.587674 
" clip-path="url(#pb919cf6e82)" style="fill: none; stroke: #5c5c5c; stroke-linecap: square"/>
   </g>
   <g id="patch_27">
    <path d="M 114.67875 91.136512 
L 131.41875 91.136512 
L 131.41875 84.103953 
L 114.67875 84.103953 
L 114.67875 91.136512 
z
" clip-path="url(#pb919cf6e82)" style="fill: #b8cb67; stroke: #5c5c5c; stroke-linejoin: miter"/>
   </g>
   <g id="line2d_68">
    <path d="M 123.04875 91.136512 
L 123.04875 98.16907 
" clip-path="url(#pb919cf6e82)" style="fill: none; stroke: #5c5c5c"/>
   </g>
   <g id="line2d_69">
    <path d="M 123.04875 84.103953 
L 123.04875 82.345814 
" clip-path="url(#pb919cf6e82)" style="fill: none; stroke: #5c5c5c"/>
   </g>
   <g id="line2d_70">
    <path d="M 118.86375 98.16907 
L 127.23375 98.16907 
" clip-path="url(#pb919cf6e82)" style="fill: none; stroke: #5c5c5c; stroke-linecap: square"/>
   </g>
   <g id="line2d_71">
    <path d="M 118.86375 82.345814 
L 127.23375 82.345814 
" clip-path="url(#pb919cf6e82)" style="fill: none; stroke: #5c5c5c; stroke-linecap: square"/>
   </g>
   <g id="patch_28">
    <path d="M 135.60375 116.629535 
L 152.34375 116.629535 
L 152.34375 105.201628 
L 135.60375 105.201628 
L 135.60375 116.629535 
z
" clip-path="url(#pb919cf6e82)" style="fill: #93cb67; stroke: #5c5c5c; stroke-linejoin: miter"/>
   </g>
   <g id="line2d_72">
    <path d="M 143.97375 116.629535 
L 143.97375 124.541163 
" clip-path="url(#pb919cf6e82)" style="fill: none; stroke: #5c5c5c"/>
   </g>
   <g id="line2d_73">
    <path d="M 143.97375 105.201628 
L 143.97375 99.927209 
" clip-path="url(#pb919cf6e82)" style="fill: none; stroke: #5c5c5c"/>
   </g>
   <g id="line2d_74">
    <path d="M 139.78875 124.541163 
L 148.15875 124.541163 
" clip-path="url(#pb919cf6e82)" style="fill: none; stroke: #5c5c5c; stroke-linecap: square"/>
   </g>
   <g id="line2d_75">
    <path d="M 139.78875 99.927209 
L 148.15875 99.927209 
" clip-path="url(#pb919cf6e82)" style="fill: none; stroke: #5c5c5c; stroke-linecap: square"/>
   </g>
   <g id="patch_29">
    <path d="M 156.52875 97.29 
L 173.26875 97.29 
L 173.26875 82.345814 
L 156.52875 82.345814 
L 156.52875 97.29 
z
" clip-path="url(#pb919cf6e82)" style="fill: #6ecb67; stroke: #5c5c5c; stroke-linejoin: miter"/>
   </g>
   <g id="line2d_76">
    <path d="M 164.89875 97.29 
L 164.89875 113.992326 
" clip-path="url(#pb919cf6e82)" style="fill: none; stroke: #5c5c5c"/>
   </g>
   <g id="line2d_77">
    <path d="M 164.89875 82.345814 
L 164.89875 64.764419 
" clip-path="url(#pb919cf6e82)" style="fill: none; stroke: #5c5c5c"/>
   </g>
   <g id="line2d_78">
    <path d="M 160.71375 113.992326 
L 169.08375 113.992326 
" clip-path="url(#pb919cf6e82)" style="fill: none; stroke: #5c5c5c; stroke-linecap: square"/>
   </g>
   <g id="line2d_79">
    <path d="M 160.71375 64.764419 
L 169.08375 64.764419 
" clip-path="url(#pb919cf6e82)" style="fill: none; stroke: #5c5c5c; stroke-linecap: square"/>
   </g>
   <g id="patch_30">
    <path d="M 177.45375 98.16907 
L 194.19375 98.16907 
L 194.19375 82.345814 
L 177.45375 82.345814 
L 177.45375 98.16907 
z
" clip-path="url(#pb919cf6e82)" style="fill: #67cb86; stroke: #5c5c5c; stroke-linejoin: miter"/>
   </g>
   <g id="line2d_80">
    <path d="M 185.82375 98.16907 
L 185.82375 121.024884 
" clip-path="url(#pb919cf6e82)" style="fill: none; stroke: #5c5c5c"/>
   </g>
   <g id="line2d_81">
    <path d="M 185.82375 82.345814 
L 185.82375 61.24814 
" clip-path="url(#pb919cf6e82)" style="fill: none; stroke: #5c5c5c"/>
   </g>
   <g id="line2d_82">
    <path d="M 181.63875 121.024884 
L 190.00875 121.024884 
" clip-path="url(#pb919cf6e82)" style="fill: none; stroke: #5c5c5c; stroke-linecap: square"/>
   </g>
   <g id="line2d_83">
    <path d="M 181.63875 61.24814 
L 190.00875 61.24814 
" clip-path="url(#pb919cf6e82)" style="fill: none; stroke: #5c5c5c; stroke-linecap: square"/>
   </g>
   <g id="patch_31">
    <path d="M 198.37875 98.16907 
L 215.11875 98.16907 
L 215.11875 85.862093 
L 198.37875 85.862093 
L 198.37875 98.16907 
z
" clip-path="url(#pb919cf6e82)" style="fill: #67cbab; stroke: #5c5c5c; stroke-linejoin: miter"/>
   </g>
   <g id="line2d_84">
    <path d="M 206.74875 98.16907 
L 206.74875 115.750465 
" clip-path="url(#pb919cf6e82)" style="fill: none; stroke: #5c5c5c"/>
   </g>
   <g id="line2d_85">
    <path d="M 206.74875 85.862093 
L 206.74875 68.280698 
" clip-path="url(#pb919cf6e82)" style="fill: none; stroke: #5c5c5c"/>
   </g>
   <g id="line2d_86">
    <path d="M 202.56375 115.750465 
L 210.93375 115.750465 
" clip-path="url(#pb919cf6e82)" style="fill: none; stroke: #5c5c5c; stroke-linecap: square"/>
   </g>
   <g id="line2d_87">
    <path d="M 202.56375 68.280698 
L 210.93375 68.280698 
" clip-path="url(#pb919cf6e82)" style="fill: none; stroke: #5c5c5c; stroke-linecap: square"/>
   </g>
   <g id="patch_32">
    <path d="M 219.30375 91.136512 
L 236.04375 91.136512 
L 236.04375 75.313256 
L 219.30375 75.313256 
L 219.30375 91.136512 
z
" clip-path="url(#pb919cf6e82)" style="fill: #67c5cb; stroke: #5c5c5c; stroke-linejoin: miter"/>
   </g>
   <g id="line2d_88">
    <path d="M 227.67375 91.136512 
L 227.67375 103.443488 
" clip-path="url(#pb919cf6e82)" style="fill: none; stroke: #5c5c5c"/>
   </g>
   <g id="line2d_89">
    <path d="M 227.67375 75.313256 
L 227.67375 70.038837 
" clip-path="url(#pb919cf6e82)" style="fill: none; stroke: #5c5c5c"/>
   </g>
   <g id="line2d_90">
    <path d="M 223.48875 103.443488 
L 231.85875 103.443488 
" clip-path="url(#pb919cf6e82)" style="fill: none; stroke: #5c5c5c; stroke-linecap: square"/>
   </g>
   <g id="line2d_91">
    <path d="M 223.48875 70.038837 
L 231.85875 70.038837 
" clip-path="url(#pb919cf6e82)" style="fill: none; stroke: #5c5c5c; stroke-linecap: square"/>
   </g>
   <g id="patch_33">
    <path d="M 240.22875 92.894651 
L 256.96875 92.894651 
L 256.96875 70.038837 
L 240.22875 70.038837 
L 240.22875 92.894651 
z
" clip-path="url(#pb919cf6e82)" style="fill: #679fcb; stroke: #5c5c5c; stroke-linejoin: miter"/>
   </g>
   <g id="line2d_92">
    <path d="M 248.59875 92.894651 
L 248.59875 122.783023 
" clip-path="url(#pb919cf6e82)" style="fill: none; stroke: #5c5c5c"/>
   </g>
   <g id="line2d_93">
    <path d="M 248.59875 70.038837 
L 248.59875 64.764419 
" clip-path="url(#pb919cf6e82)" style="fill: none; stroke: #5c5c5c"/>
   </g>
   <g id="line2d_94">
    <path d="M 244.41375 122.783023 
L 252.78375 122.783023 
" clip-path="url(#pb919cf6e82)" style="fill: none; stroke: #5c5c5c; stroke-linecap: square"/>
   </g>
   <g id="line2d_95">
    <path d="M 244.41375 64.764419 
L 252.78375 64.764419 
" clip-path="url(#pb919cf6e82)" style="fill: none; stroke: #5c5c5c; stroke-linecap: square"/>
   </g>
   <g id="patch_34">
    <path d="M 261.15375 104.762093 
L 277.89375 104.762093 
L 277.89375 86.301628 
L 261.15375 86.301628 
L 261.15375 104.762093 
z
" clip-path="url(#pb919cf6e82)" style="fill: #677acb; stroke: #5c5c5c; stroke-linejoin: miter"/>
   </g>
   <g id="line2d_96">
    <path d="M 269.52375 104.762093 
L 269.52375 117.508605 
" clip-path="url(#pb919cf6e82)" style="fill: none; stroke: #5c5c5c"/>
   </g>
   <g id="line2d_97">
    <path d="M 269.52375 86.301628 
L 269.52375 70.038837 
" clip-path="url(#pb919cf6e82)" style="fill: none; stroke: #5c5c5c"/>
   </g>
   <g id="line2d_98">
    <path d="M 265.33875 117.508605 
L 273.70875 117.508605 
" clip-path="url(#pb919cf6e82)" style="fill: none; stroke: #5c5c5c; stroke-linecap: square"/>
   </g>
   <g id="line2d_99">
    <path d="M 265.33875 70.038837 
L 273.70875 70.038837 
" clip-path="url(#pb919cf6e82)" style="fill: none; stroke: #5c5c5c; stroke-linecap: square"/>
   </g>
   <g id="patch_35">
    <path d="M 282.07875 95.971395 
L 298.81875 95.971395 
L 298.81875 91.136512 
L 282.07875 91.136512 
L 282.07875 95.971395 
z
" clip-path="url(#pb919cf6e82)" style="fill: #7a67cb; stroke: #5c5c5c; stroke-linejoin: miter"/>
   </g>
   <g id="line2d_100">
    <path d="M 290.44875 95.971395 
L 290.44875 101.685349 
" clip-path="url(#pb919cf6e82)" style="fill: none; stroke: #5c5c5c"/>
   </g>
   <g id="line2d_101">
    <path d="M 290.44875 91.136512 
L 290.44875 89.378372 
" clip-path="url(#pb919cf6e82)" style="fill: none; stroke: #5c5c5c"/>
   </g>
   <g id="line2d_102">
    <path d="M 286.26375 101.685349 
L 294.63375 101.685349 
" clip-path="url(#pb919cf6e82)" style="fill: none; stroke: #5c5c5c; stroke-linecap: square"/>
   </g>
   <g id="line2d_103">
    <path d="M 286.26375 89.378372 
L 294.63375 89.378372 
" clip-path="url(#pb919cf6e82)" style="fill: none; stroke: #5c5c5c; stroke-linecap: square"/>
   </g>
   <g id="patch_36">
    <path d="M 303.00375 92.015581 
L 319.74375 92.015581 
L 319.74375 83.224884 
L 303.00375 83.224884 
L 303.00375 92.015581 
z
" clip-path="url(#pb919cf6e82)" style="fill: #9f67cb; stroke: #5c5c5c; stroke-linejoin: miter"/>
   </g>
   <g id="line2d_104">
    <path d="M 311.37375 92.015581 
L 311.37375 105.201628 
" clip-path="url(#pb919cf6e82)" style="fill: none; stroke: #5c5c5c"/>
   </g>
   <g id="line2d_105">
    <path d="M 311.37375 83.224884 
L 311.37375 75.313256 
" clip-path="url(#pb919cf6e82)" style="fill: none; stroke: #5c5c5c"/>
   </g>
   <g id="line2d_106">
    <path d="M 307.18875 105.201628 
L 315.55875 105.201628 
" clip-path="url(#pb919cf6e82)" style="fill: none; stroke: #5c5c5c; stroke-linecap: square"/>
   </g>
   <g id="line2d_107">
    <path d="M 307.18875 75.313256 
L 315.55875 75.313256 
" clip-path="url(#pb919cf6e82)" style="fill: none; stroke: #5c5c5c; stroke-linecap: square"/>
   </g>
   <g id="patch_37">
    <path d="M 323.92875 104.322558 
L 340.66875 104.322558 
L 340.66875 85.862093 
L 323.92875 85.862093 
L 323.92875 104.322558 
z
" clip-path="url(#pb919cf6e82)" style="fill: #c467cb; stroke: #5c5c5c; stroke-linejoin: miter"/>
   </g>
   <g id="line2d_108">
    <path d="M 332.29875 104.322558 
L 332.29875 129.815581 
" clip-path="url(#pb919cf6e82)" style="fill: none; stroke: #5c5c5c"/>
   </g>
   <g id="line2d_109">
    <path d="M 332.29875 85.862093 
L 332.29875 59.49 
" clip-path="url(#pb919cf6e82)" style="fill: none; stroke: #5c5c5c"/>
   </g>
   <g id="line2d_110">
    <path d="M 328.11375 129.815581 
L 336.48375 129.815581 
" clip-path="url(#pb919cf6e82)" style="fill: none; stroke: #5c5c5c; stroke-linecap: square"/>
   </g>
   <g id="line2d_111">
    <path d="M 328.11375 59.49 
L 336.48375 59.49 
" clip-path="url(#pb919cf6e82)" style="fill: none; stroke: #5c5c5c; stroke-linecap: square"/>
   </g>
   <g id="patch_38">
    <path d="M 344.85375 94.652791 
L 361.59375 94.652791 
L 361.59375 84.103953 
L 344.85375 84.103953 
L 344.85375 94.652791 
z
" clip-path="url(#pb919cf6e82)" style="fill: #cb67ac; stroke: #5c5c5c; stroke-linejoin: miter"/>
   </g>
   <g id="line2d_112">
    <path d="M 353.22375 94.652791 
L 353.22375 110.476047 
" clip-path="url(#pb919cf6e82)" style="fill: none; stroke: #5c5c5c"/>
   </g>
   <g id="line2d_113">
    <path d="M 353.22375 84.103953 
L 353.22375 68.280698 
" clip-path="url(#pb919cf6e82)" style="fill: none; stroke: #5c5c5c"/>
   </g>
   <g id="line2d_114">
    <path d="M 349.03875 110.476047 
L 357.40875 110.476047 
" clip-path="url(#pb919cf6e82)" style="fill: none; stroke: #5c5c5c; stroke-linecap: square"/>
   </g>
   <g id="line2d_115">
    <path d="M 349.03875 68.280698 
L 357.40875 68.280698 
" clip-path="url(#pb919cf6e82)" style="fill: none; stroke: #5c5c5c; stroke-linecap: square"/>
   </g>
   <g id="patch_39">
    <path d="M 365.77875 96.41093 
L 382.51875 96.41093 
L 382.51875 84.103953 
L 365.77875 84.103953 
L 365.77875 96.41093 
z
" clip-path="url(#pb919cf6e82)" style="fill: #cb6787; stroke: #5c5c5c; stroke-linejoin: miter"/>
   </g>
   <g id="line2d_116">
    <path d="M 374.14875 96.41093 
L 374.14875 113.992326 
" clip-path="url(#pb919cf6e82)" style="fill: none; stroke: #5c5c5c"/>
   </g>
   <g id="line2d_117">
    <path d="M 374.14875 84.103953 
L 374.14875 66.522558 
" clip-path="url(#pb919cf6e82)" style="fill: none; stroke: #5c5c5c"/>
   </g>
   <g id="line2d_118">
    <path d="M 369.96375 113.992326 
L 378.33375 113.992326 
" clip-path="url(#pb919cf6e82)" style="fill: none; stroke: #5c5c5c; stroke-linecap: square"/>
   </g>
   <g id="line2d_119">
    <path d="M 369.96375 66.522558 
L 378.33375 66.522558 
" clip-path="url(#pb919cf6e82)" style="fill: none; stroke: #5c5c5c; stroke-linecap: square"/>
   </g>
   <g id="line2d_120">
    <path d="M 51.90375 92.894651 
L 68.64375 92.894651 
" clip-path="url(#pb919cf6e82)" style="fill: none; stroke: #5c5c5c"/>
   </g>
   <g id="line2d_121">
    <path d="M 72.82875 94.652791 
L 89.56875 94.652791 
" clip-path="url(#pb919cf6e82)" style="fill: none; stroke: #5c5c5c"/>
   </g>
   <g id="line2d_122">
    <path d="M 93.75375 96.41093 
L 110.49375 96.41093 
" clip-path="url(#pb919cf6e82)" style="fill: none; stroke: #5c5c5c"/>
   </g>
   <g id="line2d_123">
    <path d="M 114.67875 89.378372 
L 131.41875 89.378372 
" clip-path="url(#pb919cf6e82)" style="fill: none; stroke: #5c5c5c"/>
   </g>
   <g id="line2d_124">
    <path d="M 135.60375 110.476047 
L 152.34375 110.476047 
" clip-path="url(#pb919cf6e82)" style="fill: none; stroke: #5c5c5c"/>
   </g>
   <g id="line2d_125">
    <path d="M 156.52875 89.378372 
L 173.26875 89.378372 
" clip-path="url(#pb919cf6e82)" style="fill: none; stroke: #5c5c5c"/>
   </g>
   <g id="line2d_126">
    <path d="M 177.45375 88.499302 
L 194.19375 88.499302 
" clip-path="url(#pb919cf6e82)" style="fill: none; stroke: #5c5c5c"/>
   </g>
   <g id="line2d_127">
    <path d="M 198.37875 91.136512 
L 215.11875 91.136512 
" clip-path="url(#pb919cf6e82)" style="fill: none; stroke: #5c5c5c"/>
   </g>
   <g id="line2d_128">
    <path d="M 219.30375 87.620233 
L 236.04375 87.620233 
" clip-path="url(#pb919cf6e82)" style="fill: none; stroke: #5c5c5c"/>
   </g>
   <g id="line2d_129">
    <path d="M 240.22875 85.862093 
L 256.96875 85.862093 
" clip-path="url(#pb919cf6e82)" style="fill: none; stroke: #5c5c5c"/>
   </g>
   <g id="line2d_130">
    <path d="M 261.15375 93.773721 
L 277.89375 93.773721 
" clip-path="url(#pb919cf6e82)" style="fill: none; stroke: #5c5c5c"/>
   </g>
   <g id="line2d_131">
    <path d="M 282.07875 92.894651 
L 298.81875 92.894651 
" clip-path="url(#pb919cf6e82)" style="fill: none; stroke: #5c5c5c"/>
   </g>
   <g id="line2d_132">
    <path d="M 303.00375 87.620233 
L 319.74375 87.620233 
" clip-path="url(#pb919cf6e82)" style="fill: none; stroke: #5c5c5c"/>
   </g>
   <g id="line2d_133">
    <path d="M 323.92875 94.652791 
L 340.66875 94.652791 
" clip-path="url(#pb919cf6e82)" style="fill: none; stroke: #5c5c5c"/>
   </g>
   <g id="line2d_134">
    <path d="M 344.85375 87.620233 
L 361.59375 87.620233 
" clip-path="url(#pb919cf6e82)" style="fill: none; stroke: #5c5c5c"/>
   </g>
   <g id="line2d_135">
    <path d="M 365.77875 89.378372 
L 382.51875 89.378372 
" clip-path="url(#pb919cf6e82)" style="fill: none; stroke: #5c5c5c"/>
   </g>
   <g id="patch_40">
    <path d="M 49.81125 138.87 
L 49.81125 55.71 
" style="fill: none; stroke: #000000; stroke-linejoin: miter; stroke-linecap: square"/>
   </g>
   <g id="patch_41">
    <path d="M 384.61125 138.87 
L 384.61125 55.71 
" style="fill: none; stroke: #000000; stroke-linejoin: miter; stroke-linecap: square"/>
   </g>
   <g id="patch_42">
    <path d="M 49.81125 138.87 
L 384.61125 138.87 
" style="fill: none; stroke: #000000; stroke-linejoin: miter; stroke-linecap: square"/>
   </g>
   <g id="patch_43">
    <path d="M 49.81125 55.71 
L 384.61125 55.71 
" style="fill: none; stroke: #000000; stroke-linejoin: miter; stroke-linecap: square"/>
   </g>
  </g>
  <g id="axes_3">
   <g id="patch_44">
    <path d="M 49.81125 228.96 
L 384.61125 228.96 
L 384.61125 145.8 
L 49.81125 145.8 
L 49.81125 228.96 
z
" style="fill: none"/>
   </g>
   <g id="matplotlib.axis_5">
    <g id="xtick_33">
     <g id="line2d_136">
      <g>
       <use xlink:href="#m80f6b5afdd" x="60.27375" y="228.96" style="stroke: #000000; stroke-width: 0.8"/>
      </g>
     </g>
     <g id="text_10">
      <!-- Bakery -->
      <g transform="translate(53.562868 272.597489) rotate(-60) scale(0.12 -0.12)">
       <defs>
        <path id="ArialMT-42" d="M 469 0 
L 469 4581 
L 2188 4581 
Q 2713 4581 3030 4442 
Q 3347 4303 3526 4014 
Q 3706 3725 3706 3409 
Q 3706 3116 3547 2856 
Q 3388 2597 3066 2438 
Q 3481 2316 3704 2022 
Q 3928 1728 3928 1328 
Q 3928 1006 3792 729 
Q 3656 453 3456 303 
Q 3256 153 2954 76 
Q 2653 0 2216 0 
L 469 0 
z
M 1075 2656 
L 2066 2656 
Q 2469 2656 2644 2709 
Q 2875 2778 2992 2937 
Q 3109 3097 3109 3338 
Q 3109 3566 3000 3739 
Q 2891 3913 2687 3977 
Q 2484 4041 1991 4041 
L 1075 4041 
L 1075 2656 
z
M 1075 541 
L 2216 541 
Q 2509 541 2628 563 
Q 2838 600 2978 687 
Q 3119 775 3209 942 
Q 3300 1109 3300 1328 
Q 3300 1584 3169 1773 
Q 3038 1963 2805 2039 
Q 2572 2116 2134 2116 
L 1075 2116 
L 1075 541 
z
" transform="scale(0.015625)"/>
        <path id="ArialMT-61" d="M 2588 409 
Q 2275 144 1986 34 
Q 1697 -75 1366 -75 
Q 819 -75 525 192 
Q 231 459 231 875 
Q 231 1119 342 1320 
Q 453 1522 633 1644 
Q 813 1766 1038 1828 
Q 1203 1872 1538 1913 
Q 2219 1994 2541 2106 
Q 2544 2222 2544 2253 
Q 2544 2597 2384 2738 
Q 2169 2928 1744 2928 
Q 1347 2928 1158 2789 
Q 969 2650 878 2297 
L 328 2372 
Q 403 2725 575 2942 
Q 747 3159 1072 3276 
Q 1397 3394 1825 3394 
Q 2250 3394 2515 3294 
Q 2781 3194 2906 3042 
Q 3031 2891 3081 2659 
Q 3109 2516 3109 2141 
L 3109 1391 
Q 3109 606 3145 398 
Q 3181 191 3288 0 
L 2700 0 
Q 2613 175 2588 409 
z
M 2541 1666 
Q 2234 1541 1622 1453 
Q 1275 1403 1131 1340 
Q 988 1278 909 1158 
Q 831 1038 831 891 
Q 831 666 1001 516 
Q 1172 366 1500 366 
Q 1825 366 2078 508 
Q 2331 650 2450 897 
Q 2541 1088 2541 1459 
L 2541 1666 
z
" transform="scale(0.015625)"/>
        <path id="ArialMT-6b" d="M 425 0 
L 425 4581 
L 988 4581 
L 988 1969 
L 2319 3319 
L 3047 3319 
L 1778 2088 
L 3175 0 
L 2481 0 
L 1384 1697 
L 988 1316 
L 988 0 
L 425 0 
z
" transform="scale(0.015625)"/>
        <path id="ArialMT-65" d="M 2694 1069 
L 3275 997 
Q 3138 488 2766 206 
Q 2394 -75 1816 -75 
Q 1088 -75 661 373 
Q 234 822 234 1631 
Q 234 2469 665 2931 
Q 1097 3394 1784 3394 
Q 2450 3394 2872 2941 
Q 3294 2488 3294 1666 
Q 3294 1616 3291 1516 
L 816 1516 
Q 847 969 1125 678 
Q 1403 388 1819 388 
Q 2128 388 2347 550 
Q 2566 713 2694 1069 
z
M 847 1978 
L 2700 1978 
Q 2663 2397 2488 2606 
Q 2219 2931 1791 2931 
Q 1403 2931 1139 2672 
Q 875 2413 847 1978 
z
" transform="scale(0.015625)"/>
        <path id="ArialMT-72" d="M 416 0 
L 416 3319 
L 922 3319 
L 922 2816 
Q 1116 3169 1280 3281 
Q 1444 3394 1641 3394 
Q 1925 3394 2219 3213 
L 2025 2691 
Q 1819 2813 1613 2813 
Q 1428 2813 1281 2702 
Q 1134 2591 1072 2394 
Q 978 2094 978 1738 
L 978 0 
L 416 0 
z
" transform="scale(0.015625)"/>
        <path id="ArialMT-79" d="M 397 -1278 
L 334 -750 
Q 519 -800 656 -800 
Q 844 -800 956 -737 
Q 1069 -675 1141 -563 
Q 1194 -478 1313 -144 
Q 1328 -97 1363 -6 
L 103 3319 
L 709 3319 
L 1400 1397 
Q 1534 1031 1641 628 
Q 1738 1016 1872 1384 
L 2581 3319 
L 3144 3319 
L 1881 -56 
Q 1678 -603 1566 -809 
Q 1416 -1088 1222 -1217 
Q 1028 -1347 759 -1347 
Q 597 -1347 397 -1278 
z
" transform="scale(0.015625)"/>
       </defs>
       <use xlink:href="#ArialMT-42"/>
       <use xlink:href="#ArialMT-61" x="66.699219"/>
       <use xlink:href="#ArialMT-6b" x="122.314453"/>
       <use xlink:href="#ArialMT-65" x="172.314453"/>
       <use xlink:href="#ArialMT-72" x="227.929688"/>
       <use xlink:href="#ArialMT-79" x="261.230469"/>
      </g>
     </g>
    </g>
    <g id="xtick_34">
     <g id="line2d_137">
      <g>
       <use xlink:href="#m80f6b5afdd" x="81.19875" y="228.96" style="stroke: #000000; stroke-width: 0.8"/>
      </g>
     </g>
     <g id="text_11">
      <!-- Beer -->
      <g transform="translate(77.548761 262.205184) rotate(-60) scale(0.12 -0.12)">
       <use xlink:href="#ArialMT-42"/>
       <use xlink:href="#ArialMT-65" x="66.699219"/>
       <use xlink:href="#ArialMT-65" x="122.314453"/>
       <use xlink:href="#ArialMT-72" x="177.929688"/>
      </g>
     </g>
    </g>
    <g id="xtick_35">
     <g id="line2d_138">
      <g>
       <use xlink:href="#m80f6b5afdd" x="102.12375" y="228.96" style="stroke: #000000; stroke-width: 0.8"/>
      </g>
     </g>
     <g id="text_12">
      <!-- Bioethanol -->
      <g transform="translate(90.632979 289.366447) rotate(-60) scale(0.12 -0.12)">
       <defs>
        <path id="ArialMT-69" d="M 425 3934 
L 425 4581 
L 988 4581 
L 988 3934 
L 425 3934 
z
M 425 0 
L 425 3319 
L 988 3319 
L 988 0 
L 425 0 
z
" transform="scale(0.015625)"/>
        <path id="ArialMT-6f" d="M 213 1659 
Q 213 2581 725 3025 
Q 1153 3394 1769 3394 
Q 2453 3394 2887 2945 
Q 3322 2497 3322 1706 
Q 3322 1066 3130 698 
Q 2938 331 2570 128 
Q 2203 -75 1769 -75 
Q 1072 -75 642 372 
Q 213 819 213 1659 
z
M 791 1659 
Q 791 1022 1069 705 
Q 1347 388 1769 388 
Q 2188 388 2466 706 
Q 2744 1025 2744 1678 
Q 2744 2294 2464 2611 
Q 2184 2928 1769 2928 
Q 1347 2928 1069 2612 
Q 791 2297 791 1659 
z
" transform="scale(0.015625)"/>
        <path id="ArialMT-74" d="M 1650 503 
L 1731 6 
Q 1494 -44 1306 -44 
Q 1000 -44 831 53 
Q 663 150 594 308 
Q 525 466 525 972 
L 525 2881 
L 113 2881 
L 113 3319 
L 525 3319 
L 525 4141 
L 1084 4478 
L 1084 3319 
L 1650 3319 
L 1650 2881 
L 1084 2881 
L 1084 941 
Q 1084 700 1114 631 
Q 1144 563 1211 522 
Q 1278 481 1403 481 
Q 1497 481 1650 503 
z
" transform="scale(0.015625)"/>
        <path id="ArialMT-68" d="M 422 0 
L 422 4581 
L 984 4581 
L 984 2938 
Q 1378 3394 1978 3394 
Q 2347 3394 2619 3248 
Q 2891 3103 3008 2847 
Q 3125 2591 3125 2103 
L 3125 0 
L 2563 0 
L 2563 2103 
Q 2563 2525 2380 2717 
Q 2197 2909 1863 2909 
Q 1613 2909 1392 2779 
Q 1172 2650 1078 2428 
Q 984 2206 984 1816 
L 984 0 
L 422 0 
z
" transform="scale(0.015625)"/>
        <path id="ArialMT-6e" d="M 422 0 
L 422 3319 
L 928 3319 
L 928 2847 
Q 1294 3394 1984 3394 
Q 2284 3394 2536 3286 
Q 2788 3178 2913 3003 
Q 3038 2828 3088 2588 
Q 3119 2431 3119 2041 
L 3119 0 
L 2556 0 
L 2556 2019 
Q 2556 2363 2490 2533 
Q 2425 2703 2258 2804 
Q 2091 2906 1866 2906 
Q 1506 2906 1245 2678 
Q 984 2450 984 1813 
L 984 0 
L 422 0 
z
" transform="scale(0.015625)"/>
        <path id="ArialMT-6c" d="M 409 0 
L 409 4581 
L 972 4581 
L 972 0 
L 409 0 
z
" transform="scale(0.015625)"/>
       </defs>
       <use xlink:href="#ArialMT-42"/>
       <use xlink:href="#ArialMT-69" x="66.699219"/>
       <use xlink:href="#ArialMT-6f" x="88.916016"/>
       <use xlink:href="#ArialMT-65" x="144.53125"/>
       <use xlink:href="#ArialMT-74" x="200.146484"/>
       <use xlink:href="#ArialMT-68" x="227.929688"/>
       <use xlink:href="#ArialMT-61" x="283.544922"/>
       <use xlink:href="#ArialMT-6e" x="339.160156"/>
       <use xlink:href="#ArialMT-6f" x="394.775391"/>
       <use xlink:href="#ArialMT-6c" x="450.390625"/>
      </g>
     </g>
    </g>
    <g id="xtick_36">
     <g id="line2d_139">
      <g>
       <use xlink:href="#m80f6b5afdd" x="123.04875" y="228.96" style="stroke: #000000; stroke-width: 0.8"/>
      </g>
     </g>
     <g id="text_13">
      <!-- Cider -->
      <g transform="translate(118.566729 265.087425) rotate(-60) scale(0.12 -0.12)">
       <defs>
        <path id="ArialMT-43" d="M 3763 1606 
L 4369 1453 
Q 4178 706 3683 314 
Q 3188 -78 2472 -78 
Q 1731 -78 1267 223 
Q 803 525 561 1097 
Q 319 1669 319 2325 
Q 319 3041 592 3573 
Q 866 4106 1370 4382 
Q 1875 4659 2481 4659 
Q 3169 4659 3637 4309 
Q 4106 3959 4291 3325 
L 3694 3184 
Q 3534 3684 3231 3912 
Q 2928 4141 2469 4141 
Q 1941 4141 1586 3887 
Q 1231 3634 1087 3207 
Q 944 2781 944 2328 
Q 944 1744 1114 1308 
Q 1284 872 1643 656 
Q 2003 441 2422 441 
Q 2931 441 3284 734 
Q 3638 1028 3763 1606 
z
" transform="scale(0.015625)"/>
        <path id="ArialMT-64" d="M 2575 0 
L 2575 419 
Q 2259 -75 1647 -75 
Q 1250 -75 917 144 
Q 584 363 401 755 
Q 219 1147 219 1656 
Q 219 2153 384 2558 
Q 550 2963 881 3178 
Q 1213 3394 1622 3394 
Q 1922 3394 2156 3267 
Q 2391 3141 2538 2938 
L 2538 4581 
L 3097 4581 
L 3097 0 
L 2575 0 
z
M 797 1656 
Q 797 1019 1065 703 
Q 1334 388 1700 388 
Q 2069 388 2326 689 
Q 2584 991 2584 1609 
Q 2584 2291 2321 2609 
Q 2059 2928 1675 2928 
Q 1300 2928 1048 2622 
Q 797 2316 797 1656 
z
" transform="scale(0.015625)"/>
       </defs>
       <use xlink:href="#ArialMT-43"/>
       <use xlink:href="#ArialMT-69" x="72.216797"/>
       <use xlink:href="#ArialMT-64" x="94.433594"/>
       <use xlink:href="#ArialMT-65" x="150.048828"/>
       <use xlink:href="#ArialMT-72" x="205.664062"/>
      </g>
     </g>
    </g>
    <g id="xtick_37">
     <g id="line2d_140">
      <g>
       <use xlink:href="#m80f6b5afdd" x="143.97375" y="228.96" style="stroke: #000000; stroke-width: 0.8"/>
      </g>
     </g>
     <g id="text_14">
      <!-- Dairy -->
      <g transform="translate(139.599118 264.504481) rotate(-60) scale(0.12 -0.12)">
       <defs>
        <path id="ArialMT-44" d="M 494 0 
L 494 4581 
L 2072 4581 
Q 2606 4581 2888 4516 
Q 3281 4425 3559 4188 
Q 3922 3881 4101 3404 
Q 4281 2928 4281 2316 
Q 4281 1794 4159 1391 
Q 4038 988 3847 723 
Q 3656 459 3429 307 
Q 3203 156 2883 78 
Q 2563 0 2147 0 
L 494 0 
z
M 1100 541 
L 2078 541 
Q 2531 541 2789 625 
Q 3047 709 3200 863 
Q 3416 1078 3536 1442 
Q 3656 1806 3656 2325 
Q 3656 3044 3420 3430 
Q 3184 3816 2847 3947 
Q 2603 4041 2063 4041 
L 1100 4041 
L 1100 541 
z
" transform="scale(0.015625)"/>
       </defs>
       <use xlink:href="#ArialMT-44"/>
       <use xlink:href="#ArialMT-61" x="72.216797"/>
       <use xlink:href="#ArialMT-69" x="127.832031"/>
       <use xlink:href="#ArialMT-72" x="150.048828"/>
       <use xlink:href="#ArialMT-79" x="183.349609"/>
      </g>
     </g>
    </g>
    <g id="xtick_38">
     <g id="line2d_141">
      <g>
       <use xlink:href="#m80f6b5afdd" x="164.89875" y="228.96" style="stroke: #000000; stroke-width: 0.8"/>
      </g>
     </g>
     <g id="text_15">
      <!-- Distillery -->
      <g transform="translate(156.190993 279.514867) rotate(-60) scale(0.12 -0.12)">
       <defs>
        <path id="ArialMT-73" d="M 197 991 
L 753 1078 
Q 800 744 1014 566 
Q 1228 388 1613 388 
Q 2000 388 2187 545 
Q 2375 703 2375 916 
Q 2375 1106 2209 1216 
Q 2094 1291 1634 1406 
Q 1016 1563 777 1677 
Q 538 1791 414 1992 
Q 291 2194 291 2438 
Q 291 2659 392 2848 
Q 494 3038 669 3163 
Q 800 3259 1026 3326 
Q 1253 3394 1513 3394 
Q 1903 3394 2198 3281 
Q 2494 3169 2634 2976 
Q 2775 2784 2828 2463 
L 2278 2388 
Q 2241 2644 2061 2787 
Q 1881 2931 1553 2931 
Q 1166 2931 1000 2803 
Q 834 2675 834 2503 
Q 834 2394 903 2306 
Q 972 2216 1119 2156 
Q 1203 2125 1616 2013 
Q 2213 1853 2448 1751 
Q 2684 1650 2818 1456 
Q 2953 1263 2953 975 
Q 2953 694 2789 445 
Q 2625 197 2315 61 
Q 2006 -75 1616 -75 
Q 969 -75 630 194 
Q 291 463 197 991 
z
" transform="scale(0.015625)"/>
       </defs>
       <use xlink:href="#ArialMT-44"/>
       <use xlink:href="#ArialMT-69" x="72.216797"/>
       <use xlink:href="#ArialMT-73" x="94.433594"/>
       <use xlink:href="#ArialMT-74" x="144.433594"/>
       <use xlink:href="#ArialMT-69" x="172.216797"/>
       <use xlink:href="#ArialMT-6c" x="194.433594"/>
       <use xlink:href="#ArialMT-6c" x="216.650391"/>
       <use xlink:href="#ArialMT-65" x="238.867188"/>
       <use xlink:href="#ArialMT-72" x="294.482422"/>
       <use xlink:href="#ArialMT-79" x="327.783203"/>
      </g>
     </g>
    </g>
    <g id="xtick_39">
     <g id="line2d_142">
      <g>
       <use xlink:href="#m80f6b5afdd" x="185.82375" y="228.96" style="stroke: #000000; stroke-width: 0.8"/>
      </g>
     </g>
     <g id="text_16">
      <!-- Fermentation -->
      <g transform="translate(170.837042 301.47673) rotate(-60) scale(0.12 -0.12)">
       <defs>
        <path id="ArialMT-46" d="M 525 0 
L 525 4581 
L 3616 4581 
L 3616 4041 
L 1131 4041 
L 1131 2622 
L 3281 2622 
L 3281 2081 
L 1131 2081 
L 1131 0 
L 525 0 
z
" transform="scale(0.015625)"/>
        <path id="ArialMT-6d" d="M 422 0 
L 422 3319 
L 925 3319 
L 925 2853 
Q 1081 3097 1340 3245 
Q 1600 3394 1931 3394 
Q 2300 3394 2536 3241 
Q 2772 3088 2869 2813 
Q 3263 3394 3894 3394 
Q 4388 3394 4653 3120 
Q 4919 2847 4919 2278 
L 4919 0 
L 4359 0 
L 4359 2091 
Q 4359 2428 4304 2576 
Q 4250 2725 4106 2815 
Q 3963 2906 3769 2906 
Q 3419 2906 3187 2673 
Q 2956 2441 2956 1928 
L 2956 0 
L 2394 0 
L 2394 2156 
Q 2394 2531 2256 2718 
Q 2119 2906 1806 2906 
Q 1569 2906 1367 2781 
Q 1166 2656 1075 2415 
Q 984 2175 984 1722 
L 984 0 
L 422 0 
z
" transform="scale(0.015625)"/>
       </defs>
       <use xlink:href="#ArialMT-46"/>
       <use xlink:href="#ArialMT-65" x="61.083984"/>
       <use xlink:href="#ArialMT-72" x="116.699219"/>
       <use xlink:href="#ArialMT-6d" x="150"/>
       <use xlink:href="#ArialMT-65" x="233.300781"/>
       <use xlink:href="#ArialMT-6e" x="288.916016"/>
       <use xlink:href="#ArialMT-74" x="344.53125"/>
       <use xlink:href="#ArialMT-61" x="372.314453"/>
       <use xlink:href="#ArialMT-74" x="427.929688"/>
       <use xlink:href="#ArialMT-69" x="455.712891"/>
       <use xlink:href="#ArialMT-6f" x="477.929688"/>
       <use xlink:href="#ArialMT-6e" x="533.544922"/>
      </g>
     </g>
    </g>
    <g id="xtick_40">
     <g id="line2d_143">
      <g>
       <use xlink:href="#m80f6b5afdd" x="206.74875" y="228.96" style="stroke: #000000; stroke-width: 0.8"/>
      </g>
     </g>
     <g id="text_17">
      <!-- Human -->
      <g transform="translate(199.765011 273.753633) rotate(-60) scale(0.12 -0.12)">
       <defs>
        <path id="ArialMT-48" d="M 513 0 
L 513 4581 
L 1119 4581 
L 1119 2700 
L 3500 2700 
L 3500 4581 
L 4106 4581 
L 4106 0 
L 3500 0 
L 3500 2159 
L 1119 2159 
L 1119 0 
L 513 0 
z
" transform="scale(0.015625)"/>
        <path id="ArialMT-75" d="M 2597 0 
L 2597 488 
Q 2209 -75 1544 -75 
Q 1250 -75 995 37 
Q 741 150 617 320 
Q 494 491 444 738 
Q 409 903 409 1263 
L 409 3319 
L 972 3319 
L 972 1478 
Q 972 1038 1006 884 
Q 1059 663 1231 536 
Q 1403 409 1656 409 
Q 1909 409 2131 539 
Q 2353 669 2445 892 
Q 2538 1116 2538 1541 
L 2538 3319 
L 3100 3319 
L 3100 0 
L 2597 0 
z
" transform="scale(0.015625)"/>
       </defs>
       <use xlink:href="#ArialMT-48"/>
       <use xlink:href="#ArialMT-75" x="72.216797"/>
       <use xlink:href="#ArialMT-6d" x="127.832031"/>
       <use xlink:href="#ArialMT-61" x="211.132812"/>
       <use xlink:href="#ArialMT-6e" x="266.748047"/>
      </g>
     </g>
    </g>
    <g id="xtick_41">
     <g id="line2d_144">
      <g>
       <use xlink:href="#m80f6b5afdd" x="227.67375" y="228.96" style="stroke: #000000; stroke-width: 0.8"/>
      </g>
     </g>
     <g id="text_18">
      <!-- Industrial -->
      <g transform="translate(218.188292 282.419841) rotate(-60) scale(0.12 -0.12)">
       <defs>
        <path id="ArialMT-49" d="M 597 0 
L 597 4581 
L 1203 4581 
L 1203 0 
L 597 0 
z
" transform="scale(0.015625)"/>
       </defs>
       <use xlink:href="#ArialMT-49"/>
       <use xlink:href="#ArialMT-6e" x="27.783203"/>
       <use xlink:href="#ArialMT-64" x="83.398438"/>
       <use xlink:href="#ArialMT-75" x="139.013672"/>
       <use xlink:href="#ArialMT-73" x="194.628906"/>
       <use xlink:href="#ArialMT-74" x="244.628906"/>
       <use xlink:href="#ArialMT-72" x="272.412109"/>
       <use xlink:href="#ArialMT-69" x="305.712891"/>
       <use xlink:href="#ArialMT-61" x="327.929688"/>
       <use xlink:href="#ArialMT-6c" x="383.544922"/>
      </g>
     </g>
    </g>
    <g id="xtick_42">
     <g id="line2d_145">
      <g>
       <use xlink:href="#m80f6b5afdd" x="248.59875" y="228.96" style="stroke: #000000; stroke-width: 0.8"/>
      </g>
     </g>
     <g id="text_19">
      <!-- Insect -->
      <g transform="translate(243.281886 267.979408) rotate(-60) scale(0.12 -0.12)">
       <defs>
        <path id="ArialMT-63" d="M 2588 1216 
L 3141 1144 
Q 3050 572 2676 248 
Q 2303 -75 1759 -75 
Q 1078 -75 664 370 
Q 250 816 250 1647 
Q 250 2184 428 2587 
Q 606 2991 970 3192 
Q 1334 3394 1763 3394 
Q 2303 3394 2647 3120 
Q 2991 2847 3088 2344 
L 2541 2259 
Q 2463 2594 2264 2762 
Q 2066 2931 1784 2931 
Q 1359 2931 1093 2626 
Q 828 2322 828 1663 
Q 828 994 1084 691 
Q 1341 388 1753 388 
Q 2084 388 2306 591 
Q 2528 794 2588 1216 
z
" transform="scale(0.015625)"/>
       </defs>
       <use xlink:href="#ArialMT-49"/>
       <use xlink:href="#ArialMT-6e" x="27.783203"/>
       <use xlink:href="#ArialMT-73" x="83.398438"/>
       <use xlink:href="#ArialMT-65" x="133.398438"/>
       <use xlink:href="#ArialMT-63" x="189.013672"/>
       <use xlink:href="#ArialMT-74" x="239.013672"/>
      </g>
     </g>
    </g>
    <g id="xtick_43">
     <g id="line2d_146">
      <g>
       <use xlink:href="#m80f6b5afdd" x="269.52375" y="228.96" style="stroke: #000000; stroke-width: 0.8"/>
      </g>
     </g>
     <g id="text_20">
      <!-- Lab -->
      <g transform="translate(267.205479 257.591975) rotate(-60) scale(0.12 -0.12)">
       <defs>
        <path id="ArialMT-4c" d="M 469 0 
L 469 4581 
L 1075 4581 
L 1075 541 
L 3331 541 
L 3331 0 
L 469 0 
z
" transform="scale(0.015625)"/>
        <path id="ArialMT-62" d="M 941 0 
L 419 0 
L 419 4581 
L 981 4581 
L 981 2947 
Q 1338 3394 1891 3394 
Q 2197 3394 2470 3270 
Q 2744 3147 2920 2923 
Q 3097 2700 3197 2384 
Q 3297 2069 3297 1709 
Q 3297 856 2875 390 
Q 2453 -75 1863 -75 
Q 1275 -75 941 416 
L 941 0 
z
M 934 1684 
Q 934 1088 1097 822 
Q 1363 388 1816 388 
Q 2184 388 2453 708 
Q 2722 1028 2722 1663 
Q 2722 2313 2464 2622 
Q 2206 2931 1841 2931 
Q 1472 2931 1203 2611 
Q 934 2291 934 1684 
z
" transform="scale(0.015625)"/>
       </defs>
       <use xlink:href="#ArialMT-4c"/>
       <use xlink:href="#ArialMT-61" x="55.615234"/>
       <use xlink:href="#ArialMT-62" x="111.230469"/>
      </g>
     </g>
    </g>
    <g id="xtick_44">
     <g id="line2d_147">
      <g>
       <use xlink:href="#m80f6b5afdd" x="290.44875" y="228.96" style="stroke: #000000; stroke-width: 0.8"/>
      </g>
     </g>
     <g id="text_21">
      <!-- Sake -->
      <g transform="translate(286.297667 263.941024) rotate(-60) scale(0.12 -0.12)">
       <defs>
        <path id="ArialMT-53" d="M 288 1472 
L 859 1522 
Q 900 1178 1048 958 
Q 1197 738 1509 602 
Q 1822 466 2213 466 
Q 2559 466 2825 569 
Q 3091 672 3220 851 
Q 3350 1031 3350 1244 
Q 3350 1459 3225 1620 
Q 3100 1781 2813 1891 
Q 2628 1963 1997 2114 
Q 1366 2266 1113 2400 
Q 784 2572 623 2826 
Q 463 3081 463 3397 
Q 463 3744 659 4045 
Q 856 4347 1234 4503 
Q 1613 4659 2075 4659 
Q 2584 4659 2973 4495 
Q 3363 4331 3572 4012 
Q 3781 3694 3797 3291 
L 3216 3247 
Q 3169 3681 2898 3903 
Q 2628 4125 2100 4125 
Q 1550 4125 1298 3923 
Q 1047 3722 1047 3438 
Q 1047 3191 1225 3031 
Q 1400 2872 2139 2705 
Q 2878 2538 3153 2413 
Q 3553 2228 3743 1945 
Q 3934 1663 3934 1294 
Q 3934 928 3725 604 
Q 3516 281 3123 101 
Q 2731 -78 2241 -78 
Q 1619 -78 1198 103 
Q 778 284 539 648 
Q 300 1013 288 1472 
z
" transform="scale(0.015625)"/>
       </defs>
       <use xlink:href="#ArialMT-53"/>
       <use xlink:href="#ArialMT-61" x="66.699219"/>
       <use xlink:href="#ArialMT-6b" x="122.314453"/>
       <use xlink:href="#ArialMT-65" x="172.314453"/>
      </g>
     </g>
    </g>
    <g id="xtick_45">
     <g id="line2d_148">
      <g>
       <use xlink:href="#m80f6b5afdd" x="311.37375" y="228.96" style="stroke: #000000; stroke-width: 0.8"/>
      </g>
     </g>
     <g id="text_22">
      <!-- Soil -->
      <g transform="translate(309.057823 257.583856) rotate(-60) scale(0.12 -0.12)">
       <use xlink:href="#ArialMT-53"/>
       <use xlink:href="#ArialMT-6f" x="66.699219"/>
       <use xlink:href="#ArialMT-69" x="122.314453"/>
       <use xlink:href="#ArialMT-6c" x="144.53125"/>
      </g>
     </g>
    </g>
    <g id="xtick_46">
     <g id="line2d_149">
      <g>
       <use xlink:href="#m80f6b5afdd" x="332.29875" y="228.96" style="stroke: #000000; stroke-width: 0.8"/>
      </g>
     </g>
     <g id="text_23">
      <!-- Unknown -->
      <g transform="translate(322.479073 283.577608) rotate(-60) scale(0.12 -0.12)">
       <defs>
        <path id="ArialMT-55" d="M 3500 4581 
L 4106 4581 
L 4106 1934 
Q 4106 1244 3950 837 
Q 3794 431 3386 176 
Q 2978 -78 2316 -78 
Q 1672 -78 1262 144 
Q 853 366 678 786 
Q 503 1206 503 1934 
L 503 4581 
L 1109 4581 
L 1109 1938 
Q 1109 1341 1220 1058 
Q 1331 775 1601 622 
Q 1872 469 2263 469 
Q 2931 469 3215 772 
Q 3500 1075 3500 1938 
L 3500 4581 
z
" transform="scale(0.015625)"/>
        <path id="ArialMT-77" d="M 1034 0 
L 19 3319 
L 600 3319 
L 1128 1403 
L 1325 691 
Q 1338 744 1497 1375 
L 2025 3319 
L 2603 3319 
L 3100 1394 
L 3266 759 
L 3456 1400 
L 4025 3319 
L 4572 3319 
L 3534 0 
L 2950 0 
L 2422 1988 
L 2294 2553 
L 1622 0 
L 1034 0 
z
" transform="scale(0.015625)"/>
       </defs>
       <use xlink:href="#ArialMT-55"/>
       <use xlink:href="#ArialMT-6e" x="72.216797"/>
       <use xlink:href="#ArialMT-6b" x="127.832031"/>
       <use xlink:href="#ArialMT-6e" x="177.832031"/>
       <use xlink:href="#ArialMT-6f" x="233.447266"/>
       <use xlink:href="#ArialMT-77" x="289.0625"/>
       <use xlink:href="#ArialMT-6e" x="361.279297"/>
      </g>
     </g>
    </g>
    <g id="xtick_47">
     <g id="line2d_150">
      <g>
       <use xlink:href="#m80f6b5afdd" x="353.22375" y="228.96" style="stroke: #000000; stroke-width: 0.8"/>
      </g>
     </g>
     <g id="text_24">
      <!-- Wild -->
      <g transform="translate(350.077198 260.461225) rotate(-60) scale(0.12 -0.12)">
       <defs>
        <path id="ArialMT-57" d="M 1294 0 
L 78 4581 
L 700 4581 
L 1397 1578 
Q 1509 1106 1591 641 
Q 1766 1375 1797 1488 
L 2669 4581 
L 3400 4581 
L 4056 2263 
Q 4303 1400 4413 641 
Q 4500 1075 4641 1638 
L 5359 4581 
L 5969 4581 
L 4713 0 
L 4128 0 
L 3163 3491 
Q 3041 3928 3019 4028 
Q 2947 3713 2884 3491 
L 1913 0 
L 1294 0 
z
" transform="scale(0.015625)"/>
       </defs>
       <use xlink:href="#ArialMT-57"/>
       <use xlink:href="#ArialMT-69" x="94.384766"/>
       <use xlink:href="#ArialMT-6c" x="116.601562"/>
       <use xlink:href="#ArialMT-64" x="138.818359"/>
      </g>
     </g>
    </g>
    <g id="xtick_48">
     <g id="line2d_151">
      <g>
       <use xlink:href="#m80f6b5afdd" x="374.14875" y="228.96" style="stroke: #000000; stroke-width: 0.8"/>
      </g>
     </g>
     <g id="text_25">
      <!-- Wine -->
      <g transform="translate(370.000479 263.931281) rotate(-60) scale(0.12 -0.12)">
       <use xlink:href="#ArialMT-57"/>
       <use xlink:href="#ArialMT-69" x="94.384766"/>
       <use xlink:href="#ArialMT-6e" x="116.601562"/>
       <use xlink:href="#ArialMT-65" x="172.216797"/>
      </g>
     </g>
    </g>
   </g>
   <g id="matplotlib.axis_6">
    <g id="ytick_8">
     <g id="line2d_152">
      <g>
       <use xlink:href="#m6af386b514" x="49.81125" y="198.3" style="stroke: #000000; stroke-width: 0.8"/>
      </g>
     </g>
     <g id="text_26">
      <!-- 1080 -->
      <g transform="translate(20.5675 201.878906) scale(0.1 -0.1)">
       <use xlink:href="#ArialMT-31"/>
       <use xlink:href="#ArialMT-30" x="55.615234"/>
       <use xlink:href="#ArialMT-38" x="111.230469"/>
       <use xlink:href="#ArialMT-30" x="166.845703"/>
      </g>
     </g>
    </g>
    <g id="ytick_9">
     <g id="line2d_153">
      <g>
       <use xlink:href="#m6af386b514" x="49.81125" y="164.7" style="stroke: #000000; stroke-width: 0.8"/>
      </g>
     </g>
     <g id="text_27">
      <!-- 1100 -->
      <g transform="translate(21.305 168.278906) scale(0.1 -0.1)">
       <use xlink:href="#ArialMT-31"/>
       <use xlink:href="#ArialMT-31" x="48.240234"/>
       <use xlink:href="#ArialMT-30" x="103.855469"/>
       <use xlink:href="#ArialMT-30" x="159.470703"/>
      </g>
     </g>
    </g>
    <g id="text_28">
     <!-- Gene No. -->
     <g transform="translate(14.594063 209.326875) rotate(-90) scale(0.1 -0.1)">
      <defs>
       <path id="Arial-BoldMT-47" d="M 2597 1684 
L 2597 2456 
L 4591 2456 
L 4591 631 
Q 4300 350 3748 136 
Q 3197 -78 2631 -78 
Q 1913 -78 1378 223 
Q 844 525 575 1086 
Q 306 1647 306 2306 
Q 306 3022 606 3578 
Q 906 4134 1484 4431 
Q 1925 4659 2581 4659 
Q 3434 4659 3914 4301 
Q 4394 3944 4531 3313 
L 3613 3141 
Q 3516 3478 3248 3673 
Q 2981 3869 2581 3869 
Q 1975 3869 1617 3484 
Q 1259 3100 1259 2344 
Q 1259 1528 1621 1120 
Q 1984 713 2572 713 
Q 2863 713 3155 827 
Q 3447 941 3656 1103 
L 3656 1684 
L 2597 1684 
z
" transform="scale(0.015625)"/>
       <path id="Arial-BoldMT-65" d="M 2381 1056 
L 3256 909 
Q 3088 428 2723 176 
Q 2359 -75 1813 -75 
Q 947 -75 531 491 
Q 203 944 203 1634 
Q 203 2459 634 2926 
Q 1066 3394 1725 3394 
Q 2466 3394 2894 2905 
Q 3322 2416 3303 1406 
L 1103 1406 
Q 1113 1016 1316 798 
Q 1519 581 1822 581 
Q 2028 581 2168 693 
Q 2309 806 2381 1056 
z
M 2431 1944 
Q 2422 2325 2234 2523 
Q 2047 2722 1778 2722 
Q 1491 2722 1303 2513 
Q 1116 2303 1119 1944 
L 2431 1944 
z
" transform="scale(0.015625)"/>
      </defs>
      <use xlink:href="#Arial-BoldMT-47"/>
      <use xlink:href="#Arial-BoldMT-65" x="77.783203"/>
      <use xlink:href="#Arial-BoldMT-6e" x="133.398438"/>
      <use xlink:href="#Arial-BoldMT-65" x="194.482422"/>
      <use xlink:href="#Arial-BoldMT-20" x="250.097656"/>
      <use xlink:href="#Arial-BoldMT-4e" x="277.880859"/>
      <use xlink:href="#Arial-BoldMT-6f" x="350.097656"/>
      <use xlink:href="#Arial-BoldMT-2e" x="411.181641"/>
     </g>
    </g>
   </g>
   <g id="patch_45">
    <path d="M 51.90375 195.36 
L 68.64375 195.36 
L 68.64375 174.78 
L 51.90375 174.78 
L 51.90375 195.36 
z
" clip-path="url(#pd9c92e750f)" style="fill: #cb6d67; stroke: #5c5c5c; stroke-linejoin: miter"/>
   </g>
   <g id="line2d_154">
    <path d="M 60.27375 195.36 
L 60.27375 205.02 
" clip-path="url(#pd9c92e750f)" style="fill: none; stroke: #5c5c5c"/>
   </g>
   <g id="line2d_155">
    <path d="M 60.27375 174.78 
L 60.27375 159.66 
" clip-path="url(#pd9c92e750f)" style="fill: none; stroke: #5c5c5c"/>
   </g>
   <g id="line2d_156">
    <path d="M 56.08875 205.02 
L 64.45875 205.02 
" clip-path="url(#pd9c92e750f)" style="fill: none; stroke: #5c5c5c; stroke-linecap: square"/>
   </g>
   <g id="line2d_157">
    <path d="M 56.08875 159.66 
L 64.45875 159.66 
" clip-path="url(#pd9c92e750f)" style="fill: none; stroke: #5c5c5c; stroke-linecap: square"/>
   </g>
   <g id="patch_46">
    <path d="M 72.82875 193.26 
L 89.56875 193.26 
L 89.56875 169.74 
L 72.82875 169.74 
L 72.82875 193.26 
z
" clip-path="url(#pd9c92e750f)" style="fill: #cb9367; stroke: #5c5c5c; stroke-linejoin: miter"/>
   </g>
   <g id="line2d_158">
    <path d="M 81.19875 193.26 
L 81.19875 225.18 
" clip-path="url(#pd9c92e750f)" style="fill: none; stroke: #5c5c5c"/>
   </g>
   <g id="line2d_159">
    <path d="M 81.19875 169.74 
L 81.19875 149.58 
" clip-path="url(#pd9c92e750f)" style="fill: none; stroke: #5c5c5c"/>
   </g>
   <g id="line2d_160">
    <path d="M 77.01375 225.18 
L 85.38375 225.18 
" clip-path="url(#pd9c92e750f)" style="fill: none; stroke: #5c5c5c; stroke-linecap: square"/>
   </g>
   <g id="line2d_161">
    <path d="M 77.01375 149.58 
L 85.38375 149.58 
" clip-path="url(#pd9c92e750f)" style="fill: none; stroke: #5c5c5c; stroke-linecap: square"/>
   </g>
   <g id="patch_47">
    <path d="M 93.75375 190.74 
L 110.49375 190.74 
L 110.49375 178.98 
L 93.75375 178.98 
L 93.75375 190.74 
z
" clip-path="url(#pd9c92e750f)" style="fill: #cbb867; stroke: #5c5c5c; stroke-linejoin: miter"/>
   </g>
   <g id="line2d_162">
    <path d="M 102.12375 190.74 
L 102.12375 198.3 
" clip-path="url(#pd9c92e750f)" style="fill: none; stroke: #5c5c5c"/>
   </g>
   <g id="line2d_163">
    <path d="M 102.12375 178.98 
L 102.12375 164.7 
" clip-path="url(#pd9c92e750f)" style="fill: none; stroke: #5c5c5c"/>
   </g>
   <g id="line2d_164">
    <path d="M 97.93875 198.3 
L 106.30875 198.3 
" clip-path="url(#pd9c92e750f)" style="fill: none; stroke: #5c5c5c; stroke-linecap: square"/>
   </g>
   <g id="line2d_165">
    <path d="M 97.93875 164.7 
L 106.30875 164.7 
" clip-path="url(#pd9c92e750f)" style="fill: none; stroke: #5c5c5c; stroke-linecap: square"/>
   </g>
   <g id="patch_48">
    <path d="M 114.67875 173.1 
L 131.41875 173.1 
L 131.41875 166.38 
L 114.67875 166.38 
L 114.67875 173.1 
z
" clip-path="url(#pd9c92e750f)" style="fill: #b8cb67; stroke: #5c5c5c; stroke-linejoin: miter"/>
   </g>
   <g id="line2d_166">
    <path d="M 123.04875 173.1 
L 123.04875 176.46 
" clip-path="url(#pd9c92e750f)" style="fill: none; stroke: #5c5c5c"/>
   </g>
   <g id="line2d_167">
    <path d="M 123.04875 166.38 
L 123.04875 161.34 
" clip-path="url(#pd9c92e750f)" style="fill: none; stroke: #5c5c5c"/>
   </g>
   <g id="line2d_168">
    <path d="M 118.86375 176.46 
L 127.23375 176.46 
" clip-path="url(#pd9c92e750f)" style="fill: none; stroke: #5c5c5c; stroke-linecap: square"/>
   </g>
   <g id="line2d_169">
    <path d="M 118.86375 161.34 
L 127.23375 161.34 
" clip-path="url(#pd9c92e750f)" style="fill: none; stroke: #5c5c5c; stroke-linecap: square"/>
   </g>
   <g id="patch_49">
    <path d="M 135.60375 199.98 
L 152.34375 199.98 
L 152.34375 191.58 
L 135.60375 191.58 
L 135.60375 199.98 
z
" clip-path="url(#pd9c92e750f)" style="fill: #93cb67; stroke: #5c5c5c; stroke-linejoin: miter"/>
   </g>
   <g id="line2d_170">
    <path d="M 143.97375 199.98 
L 143.97375 205.02 
" clip-path="url(#pd9c92e750f)" style="fill: none; stroke: #5c5c5c"/>
   </g>
   <g id="line2d_171">
    <path d="M 143.97375 191.58 
L 143.97375 181.5 
" clip-path="url(#pd9c92e750f)" style="fill: none; stroke: #5c5c5c"/>
   </g>
   <g id="line2d_172">
    <path d="M 139.78875 205.02 
L 148.15875 205.02 
" clip-path="url(#pd9c92e750f)" style="fill: none; stroke: #5c5c5c; stroke-linecap: square"/>
   </g>
   <g id="line2d_173">
    <path d="M 139.78875 181.5 
L 148.15875 181.5 
" clip-path="url(#pd9c92e750f)" style="fill: none; stroke: #5c5c5c; stroke-linecap: square"/>
   </g>
   <g id="patch_50">
    <path d="M 156.52875 180.66 
L 173.26875 180.66 
L 173.26875 168.9 
L 156.52875 168.9 
L 156.52875 180.66 
z
" clip-path="url(#pd9c92e750f)" style="fill: #6ecb67; stroke: #5c5c5c; stroke-linejoin: miter"/>
   </g>
   <g id="line2d_174">
    <path d="M 164.89875 180.66 
L 164.89875 191.58 
" clip-path="url(#pd9c92e750f)" style="fill: none; stroke: #5c5c5c"/>
   </g>
   <g id="line2d_175">
    <path d="M 164.89875 168.9 
L 164.89875 151.26 
" clip-path="url(#pd9c92e750f)" style="fill: none; stroke: #5c5c5c"/>
   </g>
   <g id="line2d_176">
    <path d="M 160.71375 191.58 
L 169.08375 191.58 
" clip-path="url(#pd9c92e750f)" style="fill: none; stroke: #5c5c5c; stroke-linecap: square"/>
   </g>
   <g id="line2d_177">
    <path d="M 160.71375 151.26 
L 169.08375 151.26 
" clip-path="url(#pd9c92e750f)" style="fill: none; stroke: #5c5c5c; stroke-linecap: square"/>
   </g>
   <g id="patch_51">
    <path d="M 177.45375 184.86 
L 194.19375 184.86 
L 194.19375 173.1 
L 177.45375 173.1 
L 177.45375 184.86 
z
" clip-path="url(#pd9c92e750f)" style="fill: #67cb86; stroke: #5c5c5c; stroke-linejoin: miter"/>
   </g>
   <g id="line2d_178">
    <path d="M 185.82375 184.86 
L 185.82375 201.66 
" clip-path="url(#pd9c92e750f)" style="fill: none; stroke: #5c5c5c"/>
   </g>
   <g id="line2d_179">
    <path d="M 185.82375 173.1 
L 185.82375 157.98 
" clip-path="url(#pd9c92e750f)" style="fill: none; stroke: #5c5c5c"/>
   </g>
   <g id="line2d_180">
    <path d="M 181.63875 201.66 
L 190.00875 201.66 
" clip-path="url(#pd9c92e750f)" style="fill: none; stroke: #5c5c5c; stroke-linecap: square"/>
   </g>
   <g id="line2d_181">
    <path d="M 181.63875 157.98 
L 190.00875 157.98 
" clip-path="url(#pd9c92e750f)" style="fill: none; stroke: #5c5c5c; stroke-linecap: square"/>
   </g>
   <g id="patch_52">
    <path d="M 198.37875 179.82 
L 215.11875 179.82 
L 215.11875 168.06 
L 198.37875 168.06 
L 198.37875 179.82 
z
" clip-path="url(#pd9c92e750f)" style="fill: #67cbab; stroke: #5c5c5c; stroke-linejoin: miter"/>
   </g>
   <g id="line2d_182">
    <path d="M 206.74875 179.82 
L 206.74875 194.94 
" clip-path="url(#pd9c92e750f)" style="fill: none; stroke: #5c5c5c"/>
   </g>
   <g id="line2d_183">
    <path d="M 206.74875 168.06 
L 206.74875 154.62 
" clip-path="url(#pd9c92e750f)" style="fill: none; stroke: #5c5c5c"/>
   </g>
   <g id="line2d_184">
    <path d="M 202.56375 194.94 
L 210.93375 194.94 
" clip-path="url(#pd9c92e750f)" style="fill: none; stroke: #5c5c5c; stroke-linecap: square"/>
   </g>
   <g id="line2d_185">
    <path d="M 202.56375 154.62 
L 210.93375 154.62 
" clip-path="url(#pd9c92e750f)" style="fill: none; stroke: #5c5c5c; stroke-linecap: square"/>
   </g>
   <g id="patch_53">
    <path d="M 219.30375 175.62 
L 236.04375 175.62 
L 236.04375 168.06 
L 219.30375 168.06 
L 219.30375 175.62 
z
" clip-path="url(#pd9c92e750f)" style="fill: #67c5cb; stroke: #5c5c5c; stroke-linejoin: miter"/>
   </g>
   <g id="line2d_186">
    <path d="M 227.67375 175.62 
L 227.67375 183.18 
" clip-path="url(#pd9c92e750f)" style="fill: none; stroke: #5c5c5c"/>
   </g>
   <g id="line2d_187">
    <path d="M 227.67375 168.06 
L 227.67375 159.66 
" clip-path="url(#pd9c92e750f)" style="fill: none; stroke: #5c5c5c"/>
   </g>
   <g id="line2d_188">
    <path d="M 223.48875 183.18 
L 231.85875 183.18 
" clip-path="url(#pd9c92e750f)" style="fill: none; stroke: #5c5c5c; stroke-linecap: square"/>
   </g>
   <g id="line2d_189">
    <path d="M 223.48875 159.66 
L 231.85875 159.66 
" clip-path="url(#pd9c92e750f)" style="fill: none; stroke: #5c5c5c; stroke-linecap: square"/>
   </g>
   <g id="patch_54">
    <path d="M 240.22875 183.18 
L 256.96875 183.18 
L 256.96875 168.06 
L 240.22875 168.06 
L 240.22875 183.18 
z
" clip-path="url(#pd9c92e750f)" style="fill: #679fcb; stroke: #5c5c5c; stroke-linejoin: miter"/>
   </g>
   <g id="line2d_190">
    <path d="M 248.59875 183.18 
L 248.59875 201.66 
" clip-path="url(#pd9c92e750f)" style="fill: none; stroke: #5c5c5c"/>
   </g>
   <g id="line2d_191">
    <path d="M 248.59875 168.06 
L 248.59875 163.02 
" clip-path="url(#pd9c92e750f)" style="fill: none; stroke: #5c5c5c"/>
   </g>
   <g id="line2d_192">
    <path d="M 244.41375 201.66 
L 252.78375 201.66 
" clip-path="url(#pd9c92e750f)" style="fill: none; stroke: #5c5c5c; stroke-linecap: square"/>
   </g>
   <g id="line2d_193">
    <path d="M 244.41375 163.02 
L 252.78375 163.02 
" clip-path="url(#pd9c92e750f)" style="fill: none; stroke: #5c5c5c; stroke-linecap: square"/>
   </g>
   <g id="patch_55">
    <path d="M 261.15375 180.66 
L 277.89375 180.66 
L 277.89375 170.16 
L 261.15375 170.16 
L 261.15375 180.66 
z
" clip-path="url(#pd9c92e750f)" style="fill: #677acb; stroke: #5c5c5c; stroke-linejoin: miter"/>
   </g>
   <g id="line2d_194">
    <path d="M 269.52375 180.66 
L 269.52375 194.94 
" clip-path="url(#pd9c92e750f)" style="fill: none; stroke: #5c5c5c"/>
   </g>
   <g id="line2d_195">
    <path d="M 269.52375 170.16 
L 269.52375 159.66 
" clip-path="url(#pd9c92e750f)" style="fill: none; stroke: #5c5c5c"/>
   </g>
   <g id="line2d_196">
    <path d="M 265.33875 194.94 
L 273.70875 194.94 
" clip-path="url(#pd9c92e750f)" style="fill: none; stroke: #5c5c5c; stroke-linecap: square"/>
   </g>
   <g id="line2d_197">
    <path d="M 265.33875 159.66 
L 273.70875 159.66 
" clip-path="url(#pd9c92e750f)" style="fill: none; stroke: #5c5c5c; stroke-linecap: square"/>
   </g>
   <g id="patch_56">
    <path d="M 282.07875 179.82 
L 298.81875 179.82 
L 298.81875 174.78 
L 282.07875 174.78 
L 282.07875 179.82 
z
" clip-path="url(#pd9c92e750f)" style="fill: #7a67cb; stroke: #5c5c5c; stroke-linejoin: miter"/>
   </g>
   <g id="line2d_198">
    <path d="M 290.44875 179.82 
L 290.44875 186.54 
" clip-path="url(#pd9c92e750f)" style="fill: none; stroke: #5c5c5c"/>
   </g>
   <g id="line2d_199">
    <path d="M 290.44875 174.78 
L 290.44875 169.74 
" clip-path="url(#pd9c92e750f)" style="fill: none; stroke: #5c5c5c"/>
   </g>
   <g id="line2d_200">
    <path d="M 286.26375 186.54 
L 294.63375 186.54 
" clip-path="url(#pd9c92e750f)" style="fill: none; stroke: #5c5c5c; stroke-linecap: square"/>
   </g>
   <g id="line2d_201">
    <path d="M 286.26375 169.74 
L 294.63375 169.74 
" clip-path="url(#pd9c92e750f)" style="fill: none; stroke: #5c5c5c; stroke-linecap: square"/>
   </g>
   <g id="patch_57">
    <path d="M 303.00375 170.58 
L 319.74375 170.58 
L 319.74375 163.86 
L 303.00375 163.86 
L 303.00375 170.58 
z
" clip-path="url(#pd9c92e750f)" style="fill: #9f67cb; stroke: #5c5c5c; stroke-linejoin: miter"/>
   </g>
   <g id="line2d_202">
    <path d="M 311.37375 170.58 
L 311.37375 178.14 
" clip-path="url(#pd9c92e750f)" style="fill: none; stroke: #5c5c5c"/>
   </g>
   <g id="line2d_203">
    <path d="M 311.37375 163.86 
L 311.37375 156.3 
" clip-path="url(#pd9c92e750f)" style="fill: none; stroke: #5c5c5c"/>
   </g>
   <g id="line2d_204">
    <path d="M 307.18875 178.14 
L 315.55875 178.14 
" clip-path="url(#pd9c92e750f)" style="fill: none; stroke: #5c5c5c; stroke-linecap: square"/>
   </g>
   <g id="line2d_205">
    <path d="M 307.18875 156.3 
L 315.55875 156.3 
" clip-path="url(#pd9c92e750f)" style="fill: none; stroke: #5c5c5c; stroke-linecap: square"/>
   </g>
   <g id="patch_58">
    <path d="M 323.92875 192.42 
L 340.66875 192.42 
L 340.66875 171.42 
L 323.92875 171.42 
L 323.92875 192.42 
z
" clip-path="url(#pd9c92e750f)" style="fill: #c467cb; stroke: #5c5c5c; stroke-linejoin: miter"/>
   </g>
   <g id="line2d_206">
    <path d="M 332.29875 192.42 
L 332.29875 220.14 
" clip-path="url(#pd9c92e750f)" style="fill: none; stroke: #5c5c5c"/>
   </g>
   <g id="line2d_207">
    <path d="M 332.29875 171.42 
L 332.29875 151.26 
" clip-path="url(#pd9c92e750f)" style="fill: none; stroke: #5c5c5c"/>
   </g>
   <g id="line2d_208">
    <path d="M 328.11375 220.14 
L 336.48375 220.14 
" clip-path="url(#pd9c92e750f)" style="fill: none; stroke: #5c5c5c; stroke-linecap: square"/>
   </g>
   <g id="line2d_209">
    <path d="M 328.11375 151.26 
L 336.48375 151.26 
" clip-path="url(#pd9c92e750f)" style="fill: none; stroke: #5c5c5c; stroke-linecap: square"/>
   </g>
   <g id="patch_59">
    <path d="M 344.85375 178.14 
L 361.59375 178.14 
L 361.59375 166.38 
L 344.85375 166.38 
L 344.85375 178.14 
z
" clip-path="url(#pd9c92e750f)" style="fill: #cb67ac; stroke: #5c5c5c; stroke-linejoin: miter"/>
   </g>
   <g id="line2d_210">
    <path d="M 353.22375 178.14 
L 353.22375 194.94 
" clip-path="url(#pd9c92e750f)" style="fill: none; stroke: #5c5c5c"/>
   </g>
   <g id="line2d_211">
    <path d="M 353.22375 166.38 
L 353.22375 151.26 
" clip-path="url(#pd9c92e750f)" style="fill: none; stroke: #5c5c5c"/>
   </g>
   <g id="line2d_212">
    <path d="M 349.03875 194.94 
L 357.40875 194.94 
" clip-path="url(#pd9c92e750f)" style="fill: none; stroke: #5c5c5c; stroke-linecap: square"/>
   </g>
   <g id="line2d_213">
    <path d="M 349.03875 151.26 
L 357.40875 151.26 
" clip-path="url(#pd9c92e750f)" style="fill: none; stroke: #5c5c5c; stroke-linecap: square"/>
   </g>
   <g id="patch_60">
    <path d="M 365.77875 176.46 
L 382.51875 176.46 
L 382.51875 166.38 
L 365.77875 166.38 
L 365.77875 176.46 
z
" clip-path="url(#pd9c92e750f)" style="fill: #cb6787; stroke: #5c5c5c; stroke-linejoin: miter"/>
   </g>
   <g id="line2d_214">
    <path d="M 374.14875 176.46 
L 374.14875 191.58 
" clip-path="url(#pd9c92e750f)" style="fill: none; stroke: #5c5c5c"/>
   </g>
   <g id="line2d_215">
    <path d="M 374.14875 166.38 
L 374.14875 152.94 
" clip-path="url(#pd9c92e750f)" style="fill: none; stroke: #5c5c5c"/>
   </g>
   <g id="line2d_216">
    <path d="M 369.96375 191.58 
L 378.33375 191.58 
" clip-path="url(#pd9c92e750f)" style="fill: none; stroke: #5c5c5c; stroke-linecap: square"/>
   </g>
   <g id="line2d_217">
    <path d="M 369.96375 152.94 
L 378.33375 152.94 
" clip-path="url(#pd9c92e750f)" style="fill: none; stroke: #5c5c5c; stroke-linecap: square"/>
   </g>
   <g id="line2d_218">
    <path d="M 51.90375 184.86 
L 68.64375 184.86 
" clip-path="url(#pd9c92e750f)" style="fill: none; stroke: #5c5c5c"/>
   </g>
   <g id="line2d_219">
    <path d="M 72.82875 183.18 
L 89.56875 183.18 
" clip-path="url(#pd9c92e750f)" style="fill: none; stroke: #5c5c5c"/>
   </g>
   <g id="line2d_220">
    <path d="M 93.75375 184.86 
L 110.49375 184.86 
" clip-path="url(#pd9c92e750f)" style="fill: none; stroke: #5c5c5c"/>
   </g>
   <g id="line2d_221">
    <path d="M 114.67875 169.74 
L 131.41875 169.74 
" clip-path="url(#pd9c92e750f)" style="fill: none; stroke: #5c5c5c"/>
   </g>
   <g id="line2d_222">
    <path d="M 135.60375 196.62 
L 152.34375 196.62 
" clip-path="url(#pd9c92e750f)" style="fill: none; stroke: #5c5c5c"/>
   </g>
   <g id="line2d_223">
    <path d="M 156.52875 174.78 
L 173.26875 174.78 
" clip-path="url(#pd9c92e750f)" style="fill: none; stroke: #5c5c5c"/>
   </g>
   <g id="line2d_224">
    <path d="M 177.45375 178.14 
L 194.19375 178.14 
" clip-path="url(#pd9c92e750f)" style="fill: none; stroke: #5c5c5c"/>
   </g>
   <g id="line2d_225">
    <path d="M 198.37875 171.42 
L 215.11875 171.42 
" clip-path="url(#pd9c92e750f)" style="fill: none; stroke: #5c5c5c"/>
   </g>
   <g id="line2d_226">
    <path d="M 219.30375 171.42 
L 236.04375 171.42 
" clip-path="url(#pd9c92e750f)" style="fill: none; stroke: #5c5c5c"/>
   </g>
   <g id="line2d_227">
    <path d="M 240.22875 171.42 
L 256.96875 171.42 
" clip-path="url(#pd9c92e750f)" style="fill: none; stroke: #5c5c5c"/>
   </g>
   <g id="line2d_228">
    <path d="M 261.15375 175.62 
L 277.89375 175.62 
" clip-path="url(#pd9c92e750f)" style="fill: none; stroke: #5c5c5c"/>
   </g>
   <g id="line2d_229">
    <path d="M 282.07875 178.14 
L 298.81875 178.14 
" clip-path="url(#pd9c92e750f)" style="fill: none; stroke: #5c5c5c"/>
   </g>
   <g id="line2d_230">
    <path d="M 303.00375 168.06 
L 319.74375 168.06 
" clip-path="url(#pd9c92e750f)" style="fill: none; stroke: #5c5c5c"/>
   </g>
   <g id="line2d_231">
    <path d="M 323.92875 179.82 
L 340.66875 179.82 
" clip-path="url(#pd9c92e750f)" style="fill: none; stroke: #5c5c5c"/>
   </g>
   <g id="line2d_232">
    <path d="M 344.85375 169.74 
L 361.59375 169.74 
" clip-path="url(#pd9c92e750f)" style="fill: none; stroke: #5c5c5c"/>
   </g>
   <g id="line2d_233">
    <path d="M 365.77875 171.42 
L 382.51875 171.42 
" clip-path="url(#pd9c92e750f)" style="fill: none; stroke: #5c5c5c"/>
   </g>
   <g id="patch_61">
    <path d="M 49.81125 228.96 
L 49.81125 145.8 
" style="fill: none; stroke: #000000; stroke-linejoin: miter; stroke-linecap: square"/>
   </g>
   <g id="patch_62">
    <path d="M 384.61125 228.96 
L 384.61125 145.8 
" style="fill: none; stroke: #000000; stroke-linejoin: miter; stroke-linecap: square"/>
   </g>
   <g id="patch_63">
    <path d="M 49.81125 228.96 
L 384.61125 228.96 
" style="fill: none; stroke: #000000; stroke-linejoin: miter; stroke-linecap: square"/>
   </g>
   <g id="patch_64">
    <path d="M 49.81125 145.8 
L 384.61125 145.8 
" style="fill: none; stroke: #000000; stroke-linejoin: miter; stroke-linecap: square"/>
   </g>
  </g>
 </g>
 <defs>
  <clipPath id="pd96d9330e6">
   <rect x="49.81125" y="7.2" width="334.8" height="41.58"/>
  </clipPath>
  <clipPath id="pb919cf6e82">
   <rect x="49.81125" y="55.71" width="334.8" height="83.16"/>
  </clipPath>
  <clipPath id="pd9c92e750f">
   <rect x="49.81125" y="145.8" width="334.8" height="83.16"/>
  </clipPath>
 </defs>
</svg>
