<?xml version="1.0" encoding="utf-8" standalone="no"?>
<!DOCTYPE svg PUBLIC "-//W3C//DTD SVG 1.1//EN"
  "http://www.w3.org/Graphics/SVG/1.1/DTD/svg11.dtd">
<svg xmlns:xlink="http://www.w3.org/1999/xlink" width="172.35125pt" height="143.515625pt" viewBox="0 0 172.35125 143.515625" xmlns="http://www.w3.org/2000/svg" version="1.1">
 <metadata>
  <rdf:RDF xmlns:dc="http://purl.org/dc/elements/1.1/" xmlns:cc="http://creativecommons.org/ns#" xmlns:rdf="http://www.w3.org/1999/02/22-rdf-syntax-ns#">
   <cc:Work>
    <dc:type rdf:resource="http://purl.org/dc/dcmitype/StillImage"/>
    <dc:date>2024-10-15T20:54:31.471511</dc:date>
    <dc:format>image/svg+xml</dc:format>
    <dc:creator>
     <cc:Agent>
      <dc:title>Matplotlib v3.8.4, https://matplotlib.org/</dc:title>
     </cc:Agent>
    </dc:creator>
   </cc:Work>
  </rdf:RDF>
 </metadata>
 <defs>
  <style type="text/css">*{stroke-linejoin: round; stroke-linecap: butt}</style>
 </defs>
 <g id="figure_1">
  <g id="patch_1">
   <path d="M 0 143.515625 
L 172.35125 143.515625 
L 172.35125 0 
L 0 0 
L 0 143.515625 
z
" style="fill: none"/>
  </g>
  <g id="axes_1">
   <g id="patch_2">
    <path d="M 44.01125 132.815625 
L 155.61125 132.815625 
L 155.61125 21.935625 
L 44.01125 21.935625 
L 44.01125 132.815625 
z
" style="fill: none"/>
   </g>
   <g id="PolyCollection_1">
    <defs>
     <path id="mb1e02fac9f" d="M 73.227944 -15.74 
L 70.594556 -15.74 
L 70.393812 -16.711327 
L 70.171169 -17.682654 
L 69.904529 -18.65398 
L 69.583888 -19.625307 
L 69.219472 -20.596634 
L 68.839423 -21.567961 
L 68.477864 -22.539288 
L 68.159652 -23.510614 
L 67.889421 -24.481941 
L 67.649352 -25.453268 
L 67.405172 -26.424595 
L 67.116307 -27.395922 
L 66.745528 -28.367248 
L 66.265161 -29.338575 
L 65.659414 -30.309902 
L 64.924229 -31.281229 
L 64.066687 -32.252556 
L 63.105266 -33.223882 
L 62.070825 -34.195209 
L 61.006856 -35.166536 
L 59.967187 -36.137863 
L 59.010056 -37.10919 
L 58.188784 -38.080516 
L 57.540664 -39.051843 
L 57.076946 -40.02317 
L 56.777461 -40.994497 
L 56.592767 -41.965824 
L 56.454323 -42.93715 
L 56.289904 -43.908477 
L 56.039118 -44.879804 
L 55.664021 -45.851131 
L 55.152375 -46.822458 
L 54.514507 -47.793784 
L 53.777085 -48.765111 
L 52.977351 -49.736438 
L 52.159814 -50.707765 
L 51.375007 -51.679092 
L 50.677871 -52.650418 
L 50.122763 -53.621745 
L 49.753609 -54.593072 
L 49.59125 -55.564399 
L 49.62349 -56.535726 
L 49.804168 -57.507052 
L 50.064331 -58.478379 
L 50.332942 -59.449706 
L 50.560061 -60.421033 
L 50.734596 -61.39236 
L 50.891034 -62.363686 
L 51.102673 -63.335013 
L 51.461712 -64.30634 
L 52.049885 -65.277667 
L 52.907943 -66.248994 
L 54.015804 -67.22032 
L 55.29348 -68.191647 
L 56.624259 -69.162974 
L 57.890091 -70.134301 
L 59.002702 -71.105628 
L 59.917484 -72.076955 
L 60.62853 -73.048281 
L 61.154029 -74.019608 
L 61.524166 -74.990935 
L 61.77774 -75.962262 
L 61.964459 -76.933589 
L 62.144928 -77.904915 
L 62.382749 -78.876242 
L 62.730208 -79.847569 
L 63.214587 -80.818896 
L 63.832292 -81.790223 
L 64.55335 -82.761549 
L 65.33334 -83.732876 
L 66.126943 -84.704203 
L 66.897871 -85.67553 
L 67.622686 -86.646857 
L 68.28903 -87.618183 
L 68.890948 -88.58951 
L 69.42453 -89.560837 
L 69.886104 -90.532164 
L 70.273125 -91.503491 
L 70.586213 -92.474817 
L 70.830333 -93.446144 
L 71.01416 -94.417471 
L 71.148118 -95.388798 
L 71.242359 -96.360125 
L 71.305734 -97.331451 
L 71.34597 -98.302778 
L 71.370439 -99.274105 
L 71.386712 -100.245432 
L 71.402326 -101.216759 
L 71.423794 -102.188085 
L 71.455358 -103.159412 
L 71.498144 -104.130739 
L 71.550149 -105.102066 
L 71.607086 -106.073393 
L 71.663758 -107.044719 
L 71.715487 -108.016046 
L 71.759186 -108.987373 
L 71.79381 -109.9587 
L 71.820151 -110.930027 
L 71.840108 -111.901353 
L 71.982392 -111.901353 
L 71.982392 -111.901353 
L 72.002349 -110.930027 
L 72.02869 -109.9587 
L 72.063314 -108.987373 
L 72.107013 -108.016046 
L 72.158742 -107.044719 
L 72.215414 -106.073393 
L 72.272351 -105.102066 
L 72.324356 -104.130739 
L 72.367142 -103.159412 
L 72.398706 -102.188085 
L 72.420174 -101.216759 
L 72.435788 -100.245432 
L 72.452061 -99.274105 
L 72.47653 -98.302778 
L 72.516766 -97.331451 
L 72.580141 -96.360125 
L 72.674382 -95.388798 
L 72.80834 -94.417471 
L 72.992167 -93.446144 
L 73.236287 -92.474817 
L 73.549375 -91.503491 
L 73.936396 -90.532164 
L 74.39797 -89.560837 
L 74.931552 -88.58951 
L 75.53347 -87.618183 
L 76.199814 -86.646857 
L 76.924629 -85.67553 
L 77.695557 -84.704203 
L 78.48916 -83.732876 
L 79.26915 -82.761549 
L 79.990208 -81.790223 
L 80.607913 -80.818896 
L 81.092292 -79.847569 
L 81.439751 -78.876242 
L 81.677572 -77.904915 
L 81.858041 -76.933589 
L 82.04476 -75.962262 
L 82.298334 -74.990935 
L 82.668471 -74.019608 
L 83.19397 -73.048281 
L 83.905016 -72.076955 
L 84.819798 -71.105628 
L 85.932409 -70.134301 
L 87.198241 -69.162974 
L 88.52902 -68.191647 
L 89.806696 -67.22032 
L 90.914557 -66.248994 
L 91.772615 -65.277667 
L 92.360788 -64.30634 
L 92.719827 -63.335013 
L 92.931466 -62.363686 
L 93.087904 -61.39236 
L 93.262439 -60.421033 
L 93.489558 -59.449706 
L 93.758169 -58.478379 
L 94.018332 -57.507052 
L 94.19901 -56.535726 
L 94.23125 -55.564399 
L 94.068891 -54.593072 
L 93.699737 -53.621745 
L 93.144629 -52.650418 
L 92.447493 -51.679092 
L 91.662686 -50.707765 
L 90.845149 -49.736438 
L 90.045415 -48.765111 
L 89.307993 -47.793784 
L 88.670125 -46.822458 
L 88.158479 -45.851131 
L 87.783382 -44.879804 
L 87.532596 -43.908477 
L 87.368177 -42.93715 
L 87.229733 -41.965824 
L 87.045039 -40.994497 
L 86.745554 -40.02317 
L 86.281836 -39.051843 
L 85.633716 -38.080516 
L 84.812444 -37.10919 
L 83.855313 -36.137863 
L 82.815644 -35.166536 
L 81.751675 -34.195209 
L 80.717234 -33.223882 
L 79.755813 -32.252556 
L 78.898271 -31.281229 
L 78.163086 -30.309902 
L 77.557339 -29.338575 
L 77.076972 -28.367248 
L 76.706193 -27.395922 
L 76.417328 -26.424595 
L 76.173148 -25.453268 
L 75.933079 -24.481941 
L 75.662848 -23.510614 
L 75.344636 -22.539288 
L 74.983077 -21.567961 
L 74.603028 -20.596634 
L 74.238612 -19.625307 
L 73.917971 -18.65398 
L 73.651331 -17.682654 
L 73.428688 -16.711327 
L 73.227944 -15.74 
z
" style="stroke: #3f3f3f; stroke-width: 1.25"/>
    </defs>
    <g clip-path="url(#p1a99ad2fed)">
     <use xlink:href="#mb1e02fac9f" x="0" y="143.515625" style="fill: #407193; stroke: #3f3f3f; stroke-width: 1.25"/>
    </g>
   </g>
   <g id="PolyCollection_2">
    <defs>
     <path id="m1fbdd0510a" d="M 134.233839 -15.74 
L 121.188661 -15.74 
L 121.095119 -16.758182 
L 121.274729 -17.776364 
L 121.645057 -18.794545 
L 122.100139 -19.812727 
L 122.540044 -20.830909 
L 122.892875 -21.849091 
L 123.123052 -22.867273 
L 123.226286 -23.885455 
L 123.216602 -24.903636 
L 123.112133 -25.921818 
L 122.924738 -26.94 
L 122.655543 -27.958182 
L 122.295854 -28.976364 
L 121.831609 -29.994545 
L 121.249287 -31.012727 
L 120.541746 -32.030909 
L 119.712981 -33.049091 
L 118.781108 -34.067273 
L 117.778931 -35.085455 
L 116.751516 -36.103636 
L 115.750539 -37.121818 
L 114.825975 -38.14 
L 114.016625 -39.158182 
L 113.34174 -40.176364 
L 112.796109 -41.194545 
L 112.350247 -42.212727 
L 111.956042 -43.230909 
L 111.556702 -44.249091 
L 111.098745 -45.267273 
L 110.543349 -46.285455 
L 109.874763 -47.303636 
L 109.104323 -48.321818 
L 108.269677 -49.34 
L 107.429612 -50.358182 
L 106.655389 -51.376364 
L 106.019724 -52.394545 
L 105.584815 -53.412727 
L 105.39125 -54.430909 
L 105.450031 -55.449091 
L 105.739949 -56.467273 
L 106.2116 -57.485455 
L 106.79766 -58.503636 
L 107.427124 -59.521818 
L 108.040043 -60.54 
L 108.599265 -61.558182 
L 109.096587 -62.576364 
L 109.552071 -63.594545 
L 110.006598 -64.612727 
L 110.509051 -65.630909 
L 111.100966 -66.649091 
L 111.802634 -67.667273 
L 112.604894 -68.685455 
L 113.469525 -69.703636 
L 114.338458 -70.721818 
L 115.149049 -71.74 
L 115.850633 -72.758182 
L 116.417402 -73.776364 
L 116.854108 -74.794545 
L 117.193532 -75.812727 
L 117.48709 -76.830909 
L 117.791725 -77.849091 
L 118.156964 -78.867273 
L 118.615579 -79.885455 
L 119.179783 -80.903636 
L 119.842913 -81.921818 
L 120.584782 -82.94 
L 121.37809 -83.958182 
L 122.193661 -84.976364 
L 123.003488 -85.994545 
L 123.781862 -87.012727 
L 124.505634 -88.030909 
L 125.154658 -89.049091 
L 125.71286 -90.067273 
L 126.169756 -91.085455 
L 126.521805 -92.103636 
L 126.772979 -93.121818 
L 126.934248 -94.14 
L 127.022014 -95.158182 
L 127.055857 -96.176364 
L 127.056082 -97.194545 
L 127.041461 -98.212727 
L 127.027461 -99.230909 
L 127.02502 -100.249091 
L 127.039921 -101.267273 
L 127.072778 -102.285455 
L 127.119708 -103.303636 
L 127.173721 -104.321818 
L 127.226698 -105.34 
L 127.271584 -106.358182 
L 127.304248 -107.376364 
L 127.324467 -108.394545 
L 127.3357 -109.412727 
L 127.343752 -110.430909 
L 127.354803 -111.449091 
L 127.373514 -112.467273 
L 127.401829 -113.485455 
L 127.438813 -114.503636 
L 127.481383 -115.521818 
L 127.525525 -116.54 
L 127.896975 -116.54 
L 127.896975 -116.54 
L 127.941117 -115.521818 
L 127.983687 -114.503636 
L 128.020671 -113.485455 
L 128.048986 -112.467273 
L 128.067697 -111.449091 
L 128.078748 -110.430909 
L 128.0868 -109.412727 
L 128.098033 -108.394545 
L 128.118252 -107.376364 
L 128.150916 -106.358182 
L 128.195802 -105.34 
L 128.248779 -104.321818 
L 128.302792 -103.303636 
L 128.349722 -102.285455 
L 128.382579 -101.267273 
L 128.39748 -100.249091 
L 128.395039 -99.230909 
L 128.381039 -98.212727 
L 128.366418 -97.194545 
L 128.366643 -96.176364 
L 128.400486 -95.158182 
L 128.488252 -94.14 
L 128.649521 -93.121818 
L 128.900695 -92.103636 
L 129.252744 -91.085455 
L 129.70964 -90.067273 
L 130.267842 -89.049091 
L 130.916866 -88.030909 
L 131.640638 -87.012727 
L 132.419012 -85.994545 
L 133.228839 -84.976364 
L 134.04441 -83.958182 
L 134.837718 -82.94 
L 135.579587 -81.921818 
L 136.242717 -80.903636 
L 136.806921 -79.885455 
L 137.265536 -78.867273 
L 137.630775 -77.849091 
L 137.93541 -76.830909 
L 138.228968 -75.812727 
L 138.568392 -74.794545 
L 139.005098 -73.776364 
L 139.571867 -72.758182 
L 140.273451 -71.74 
L 141.084042 -70.721818 
L 141.952975 -69.703636 
L 142.817606 -68.685455 
L 143.619866 -67.667273 
L 144.321534 -66.649091 
L 144.913449 -65.630909 
L 145.415902 -64.612727 
L 145.870429 -63.594545 
L 146.325913 -62.576364 
L 146.823235 -61.558182 
L 147.382457 -60.54 
L 147.995376 -59.521818 
L 148.62484 -58.503636 
L 149.2109 -57.485455 
L 149.682551 -56.467273 
L 149.972469 -55.449091 
L 150.03125 -54.430909 
L 149.837685 -53.412727 
L 149.402776 -52.394545 
L 148.767111 -51.376364 
L 147.992888 -50.358182 
L 147.152823 -49.34 
L 146.318177 -48.321818 
L 145.547737 -47.303636 
L 144.879151 -46.285455 
L 144.323755 -45.267273 
L 143.865798 -44.249091 
L 143.466458 -43.230909 
L 143.072253 -42.212727 
L 142.626391 -41.194545 
L 142.08076 -40.176364 
L 141.405875 -39.158182 
L 140.596525 -38.14 
L 139.671961 -37.121818 
L 138.670984 -36.103636 
L 137.643569 -35.085455 
L 136.641392 -34.067273 
L 135.709519 -33.049091 
L 134.880754 -32.030909 
L 134.173213 -31.012727 
L 133.590891 -29.994545 
L 133.126646 -28.976364 
L 132.766957 -27.958182 
L 132.497762 -26.94 
L 132.310367 -25.921818 
L 132.205898 -24.903636 
L 132.196214 -23.885455 
L 132.299448 -22.867273 
L 132.529625 -21.849091 
L 132.882456 -20.830909 
L 133.322361 -19.812727 
L 133.777443 -18.794545 
L 134.147771 -17.776364 
L 134.327381 -16.758182 
L 134.233839 -15.74 
z
" style="stroke: #3f3f3f; stroke-width: 1.25"/>
    </defs>
    <g clip-path="url(#p1a99ad2fed)">
     <use xlink:href="#m1fbdd0510a" x="0" y="143.515625" style="fill: #df6c20; stroke: #3f3f3f; stroke-width: 1.25"/>
    </g>
   </g>
   <g id="matplotlib.axis_1">
    <g id="xtick_1">
     <g id="line2d_1">
      <defs>
       <path id="m3a2d990d40" d="M 0 0 
L 0 3.5 
" style="stroke: #000000; stroke-width: 0.8"/>
      </defs>
      <g>
       <use xlink:href="#m3a2d990d40" x="71.91125" y="132.815625" style="stroke: #000000; stroke-width: 0.8"/>
      </g>
     </g>
    </g>
    <g id="xtick_2">
     <g id="line2d_2">
      <g>
       <use xlink:href="#m3a2d990d40" x="127.71125" y="132.815625" style="stroke: #000000; stroke-width: 0.8"/>
      </g>
     </g>
    </g>
   </g>
   <g id="matplotlib.axis_2">
    <g id="ytick_1">
     <g id="line2d_3">
      <defs>
       <path id="me70d39be99" d="M 0 0 
L -3.5 0 
" style="stroke: #000000; stroke-width: 0.8"/>
      </defs>
      <g>
       <use xlink:href="#me70d39be99" x="44.01125" y="127.775625" style="stroke: #000000; stroke-width: 0.8"/>
      </g>
     </g>
     <g id="text_1">
      <!-- 0.0 -->
      <g transform="translate(20.33125 132.070312) scale(0.12 -0.12)">
       <defs>
        <path id="ArialMT-30" d="M 266 2259 
Q 266 3072 433 3567 
Q 600 4063 929 4331 
Q 1259 4600 1759 4600 
Q 2128 4600 2406 4451 
Q 2684 4303 2865 4023 
Q 3047 3744 3150 3342 
Q 3253 2941 3253 2259 
Q 3253 1453 3087 958 
Q 2922 463 2592 192 
Q 2263 -78 1759 -78 
Q 1097 -78 719 397 
Q 266 969 266 2259 
z
M 844 2259 
Q 844 1131 1108 757 
Q 1372 384 1759 384 
Q 2147 384 2411 759 
Q 2675 1134 2675 2259 
Q 2675 3391 2411 3762 
Q 2147 4134 1753 4134 
Q 1366 4134 1134 3806 
Q 844 3388 844 2259 
z
" transform="scale(0.015625)"/>
        <path id="ArialMT-2e" d="M 581 0 
L 581 641 
L 1222 641 
L 1222 0 
L 581 0 
z
" transform="scale(0.015625)"/>
       </defs>
       <use xlink:href="#ArialMT-30"/>
       <use xlink:href="#ArialMT-2e" x="55.615234"/>
       <use xlink:href="#ArialMT-30" x="83.398438"/>
      </g>
     </g>
    </g>
    <g id="ytick_2">
     <g id="line2d_4">
      <g>
       <use xlink:href="#me70d39be99" x="44.01125" y="81.47379" style="stroke: #000000; stroke-width: 0.8"/>
      </g>
     </g>
     <g id="text_2">
      <!-- 0.2 -->
      <g transform="translate(20.33125 85.768478) scale(0.12 -0.12)">
       <defs>
        <path id="ArialMT-32" d="M 3222 541 
L 3222 0 
L 194 0 
Q 188 203 259 391 
Q 375 700 629 1000 
Q 884 1300 1366 1694 
Q 2113 2306 2375 2664 
Q 2638 3022 2638 3341 
Q 2638 3675 2398 3904 
Q 2159 4134 1775 4134 
Q 1369 4134 1125 3890 
Q 881 3647 878 3216 
L 300 3275 
Q 359 3922 746 4261 
Q 1134 4600 1788 4600 
Q 2447 4600 2831 4234 
Q 3216 3869 3216 3328 
Q 3216 3053 3103 2787 
Q 2991 2522 2730 2228 
Q 2469 1934 1863 1422 
Q 1356 997 1212 845 
Q 1069 694 975 541 
L 3222 541 
z
" transform="scale(0.015625)"/>
       </defs>
       <use xlink:href="#ArialMT-30"/>
       <use xlink:href="#ArialMT-2e" x="55.615234"/>
       <use xlink:href="#ArialMT-32" x="83.398438"/>
      </g>
     </g>
    </g>
    <g id="ytick_3">
     <g id="line2d_5">
      <g>
       <use xlink:href="#me70d39be99" x="44.01125" y="35.171955" style="stroke: #000000; stroke-width: 0.8"/>
      </g>
     </g>
     <g id="text_3">
      <!-- 0.4 -->
      <g transform="translate(20.33125 39.466643) scale(0.12 -0.12)">
       <defs>
        <path id="ArialMT-34" d="M 2069 0 
L 2069 1097 
L 81 1097 
L 81 1613 
L 2172 4581 
L 2631 4581 
L 2631 1613 
L 3250 1613 
L 3250 1097 
L 2631 1097 
L 2631 0 
L 2069 0 
z
M 2069 1613 
L 2069 3678 
L 634 1613 
L 2069 1613 
z
" transform="scale(0.015625)"/>
       </defs>
       <use xlink:href="#ArialMT-30"/>
       <use xlink:href="#ArialMT-2e" x="55.615234"/>
       <use xlink:href="#ArialMT-34" x="83.398438"/>
      </g>
     </g>
    </g>
    <g id="text_4">
     <!-- Coefficient of variation -->
     <g transform="translate(14.357813 131.543594) rotate(-90) scale(0.1 -0.1)">
      <defs>
       <path id="Arial-BoldMT-43" d="M 3397 1684 
L 4294 1400 
Q 4088 650 3608 286 
Q 3128 -78 2391 -78 
Q 1478 -78 890 545 
Q 303 1169 303 2250 
Q 303 3394 893 4026 
Q 1484 4659 2447 4659 
Q 3288 4659 3813 4163 
Q 4125 3869 4281 3319 
L 3366 3100 
Q 3284 3456 3026 3662 
Q 2769 3869 2400 3869 
Q 1891 3869 1573 3503 
Q 1256 3138 1256 2319 
Q 1256 1450 1568 1081 
Q 1881 713 2381 713 
Q 2750 713 3015 947 
Q 3281 1181 3397 1684 
z
" transform="scale(0.015625)"/>
       <path id="Arial-BoldMT-6f" d="M 256 1706 
Q 256 2144 472 2553 
Q 688 2963 1083 3178 
Q 1478 3394 1966 3394 
Q 2719 3394 3200 2905 
Q 3681 2416 3681 1669 
Q 3681 916 3195 420 
Q 2709 -75 1972 -75 
Q 1516 -75 1102 131 
Q 688 338 472 736 
Q 256 1134 256 1706 
z
M 1156 1659 
Q 1156 1166 1390 903 
Q 1625 641 1969 641 
Q 2313 641 2545 903 
Q 2778 1166 2778 1666 
Q 2778 2153 2545 2415 
Q 2313 2678 1969 2678 
Q 1625 2678 1390 2415 
Q 1156 2153 1156 1659 
z
" transform="scale(0.015625)"/>
       <path id="Arial-BoldMT-65" d="M 2381 1056 
L 3256 909 
Q 3088 428 2723 176 
Q 2359 -75 1813 -75 
Q 947 -75 531 491 
Q 203 944 203 1634 
Q 203 2459 634 2926 
Q 1066 3394 1725 3394 
Q 2466 3394 2894 2905 
Q 3322 2416 3303 1406 
L 1103 1406 
Q 1113 1016 1316 798 
Q 1519 581 1822 581 
Q 2028 581 2168 693 
Q 2309 806 2381 1056 
z
M 2431 1944 
Q 2422 2325 2234 2523 
Q 2047 2722 1778 2722 
Q 1491 2722 1303 2513 
Q 1116 2303 1119 1944 
L 2431 1944 
z
" transform="scale(0.015625)"/>
       <path id="Arial-BoldMT-66" d="M 75 3319 
L 563 3319 
L 563 3569 
Q 563 3988 652 4194 
Q 741 4400 980 4529 
Q 1219 4659 1584 4659 
Q 1959 4659 2319 4547 
L 2200 3934 
Q 1991 3984 1797 3984 
Q 1606 3984 1523 3895 
Q 1441 3806 1441 3553 
L 1441 3319 
L 2097 3319 
L 2097 2628 
L 1441 2628 
L 1441 0 
L 563 0 
L 563 2628 
L 75 2628 
L 75 3319 
z
" transform="scale(0.015625)"/>
       <path id="Arial-BoldMT-69" d="M 459 3769 
L 459 4581 
L 1338 4581 
L 1338 3769 
L 459 3769 
z
M 459 0 
L 459 3319 
L 1338 3319 
L 1338 0 
L 459 0 
z
" transform="scale(0.015625)"/>
       <path id="Arial-BoldMT-63" d="M 3353 2338 
L 2488 2181 
Q 2444 2441 2289 2572 
Q 2134 2703 1888 2703 
Q 1559 2703 1364 2476 
Q 1169 2250 1169 1719 
Q 1169 1128 1367 884 
Q 1566 641 1900 641 
Q 2150 641 2309 783 
Q 2469 925 2534 1272 
L 3397 1125 
Q 3263 531 2881 228 
Q 2500 -75 1859 -75 
Q 1131 -75 698 384 
Q 266 844 266 1656 
Q 266 2478 700 2936 
Q 1134 3394 1875 3394 
Q 2481 3394 2839 3133 
Q 3197 2872 3353 2338 
z
" transform="scale(0.015625)"/>
       <path id="Arial-BoldMT-6e" d="M 3478 0 
L 2600 0 
L 2600 1694 
Q 2600 2231 2544 2389 
Q 2488 2547 2361 2634 
Q 2234 2722 2056 2722 
Q 1828 2722 1647 2597 
Q 1466 2472 1398 2265 
Q 1331 2059 1331 1503 
L 1331 0 
L 453 0 
L 453 3319 
L 1269 3319 
L 1269 2831 
Q 1703 3394 2363 3394 
Q 2653 3394 2893 3289 
Q 3134 3184 3257 3021 
Q 3381 2859 3429 2653 
Q 3478 2447 3478 2063 
L 3478 0 
z
" transform="scale(0.015625)"/>
       <path id="Arial-BoldMT-74" d="M 1981 3319 
L 1981 2619 
L 1381 2619 
L 1381 1281 
Q 1381 875 1398 808 
Q 1416 741 1477 697 
Q 1538 653 1625 653 
Q 1747 653 1978 738 
L 2053 56 
Q 1747 -75 1359 -75 
Q 1122 -75 931 4 
Q 741 84 652 211 
Q 563 338 528 553 
Q 500 706 500 1172 
L 500 2619 
L 97 2619 
L 97 3319 
L 500 3319 
L 500 3978 
L 1381 4491 
L 1381 3319 
L 1981 3319 
z
" transform="scale(0.015625)"/>
       <path id="Arial-BoldMT-20" transform="scale(0.015625)"/>
       <path id="Arial-BoldMT-76" d="M 1372 0 
L 34 3319 
L 956 3319 
L 1581 1625 
L 1763 1059 
Q 1834 1275 1853 1344 
Q 1897 1484 1947 1625 
L 2578 3319 
L 3481 3319 
L 2163 0 
L 1372 0 
z
" transform="scale(0.015625)"/>
       <path id="Arial-BoldMT-61" d="M 1116 2306 
L 319 2450 
Q 453 2931 781 3162 
Q 1109 3394 1756 3394 
Q 2344 3394 2631 3255 
Q 2919 3116 3036 2902 
Q 3153 2688 3153 2116 
L 3144 1091 
Q 3144 653 3186 445 
Q 3228 238 3344 0 
L 2475 0 
Q 2441 88 2391 259 
Q 2369 338 2359 363 
Q 2134 144 1878 34 
Q 1622 -75 1331 -75 
Q 819 -75 523 203 
Q 228 481 228 906 
Q 228 1188 362 1408 
Q 497 1628 739 1745 
Q 981 1863 1438 1950 
Q 2053 2066 2291 2166 
L 2291 2253 
Q 2291 2506 2166 2614 
Q 2041 2722 1694 2722 
Q 1459 2722 1328 2630 
Q 1197 2538 1116 2306 
z
M 2291 1594 
Q 2122 1538 1756 1459 
Q 1391 1381 1278 1306 
Q 1106 1184 1106 997 
Q 1106 813 1243 678 
Q 1381 544 1594 544 
Q 1831 544 2047 700 
Q 2206 819 2256 991 
Q 2291 1103 2291 1419 
L 2291 1594 
z
" transform="scale(0.015625)"/>
       <path id="Arial-BoldMT-72" d="M 1300 0 
L 422 0 
L 422 3319 
L 1238 3319 
L 1238 2847 
Q 1447 3181 1614 3287 
Q 1781 3394 1994 3394 
Q 2294 3394 2572 3228 
L 2300 2463 
Q 2078 2606 1888 2606 
Q 1703 2606 1575 2504 
Q 1447 2403 1373 2137 
Q 1300 1872 1300 1025 
L 1300 0 
z
" transform="scale(0.015625)"/>
      </defs>
      <use xlink:href="#Arial-BoldMT-43"/>
      <use xlink:href="#Arial-BoldMT-6f" x="72.216797"/>
      <use xlink:href="#Arial-BoldMT-65" x="133.300781"/>
      <use xlink:href="#Arial-BoldMT-66" x="188.916016"/>
      <use xlink:href="#Arial-BoldMT-66" x="222.216797"/>
      <use xlink:href="#Arial-BoldMT-69" x="255.517578"/>
      <use xlink:href="#Arial-BoldMT-63" x="283.300781"/>
      <use xlink:href="#Arial-BoldMT-69" x="338.916016"/>
      <use xlink:href="#Arial-BoldMT-65" x="366.699219"/>
      <use xlink:href="#Arial-BoldMT-6e" x="422.314453"/>
      <use xlink:href="#Arial-BoldMT-74" x="483.398438"/>
      <use xlink:href="#Arial-BoldMT-20" x="516.699219"/>
      <use xlink:href="#Arial-BoldMT-6f" x="544.482422"/>
      <use xlink:href="#Arial-BoldMT-66" x="605.566406"/>
      <use xlink:href="#Arial-BoldMT-20" x="638.867188"/>
      <use xlink:href="#Arial-BoldMT-76" x="666.650391"/>
      <use xlink:href="#Arial-BoldMT-61" x="722.265625"/>
      <use xlink:href="#Arial-BoldMT-72" x="777.880859"/>
      <use xlink:href="#Arial-BoldMT-69" x="816.796875"/>
      <use xlink:href="#Arial-BoldMT-61" x="844.580078"/>
      <use xlink:href="#Arial-BoldMT-74" x="900.195312"/>
      <use xlink:href="#Arial-BoldMT-69" x="933.496094"/>
      <use xlink:href="#Arial-BoldMT-6f" x="961.279297"/>
      <use xlink:href="#Arial-BoldMT-6e" x="1022.363281"/>
     </g>
    </g>
   </g>
   <g id="line2d_6">
    <path d="M 56.175638 99.164583 
L 87.646862 99.164583 
" clip-path="url(#p1a99ad2fed)" style="fill: none; stroke-dasharray: 1.5625,0.9375; stroke-dashoffset: 0; stroke: #3f3f3f; stroke-width: 1.25"/>
   </g>
   <g id="line2d_7">
    <path d="M 49.610535 87.370215 
L 94.211965 87.370215 
" clip-path="url(#p1a99ad2fed)" style="fill: none; stroke-dasharray: 3.125,1.25; stroke-dashoffset: 0; stroke: #3f3f3f; stroke-width: 1.25"/>
   </g>
   <g id="line2d_8">
    <path d="M 53.308625 76.91533 
L 90.513875 76.91533 
" clip-path="url(#p1a99ad2fed)" style="fill: none; stroke-dasharray: 1.5625,0.9375; stroke-dashoffset: 0; stroke: #3f3f3f; stroke-width: 1.25"/>
   </g>
   <g id="line2d_9">
    <path d="M 112.56284 101.788379 
L 142.85966 101.788379 
" clip-path="url(#p1a99ad2fed)" style="fill: none; stroke-dasharray: 1.5625,0.9375; stroke-dashoffset: 0; stroke: #3f3f3f; stroke-width: 1.25"/>
   </g>
   <g id="line2d_10">
    <path d="M 105.401684 88.903979 
L 150.020816 88.903979 
" clip-path="url(#p1a99ad2fed)" style="fill: none; stroke-dasharray: 3.125,1.25; stroke-dashoffset: 0; stroke: #3f3f3f; stroke-width: 1.25"/>
   </g>
   <g id="line2d_11">
    <path d="M 111.0241 76.998756 
L 144.3984 76.998756 
" clip-path="url(#p1a99ad2fed)" style="fill: none; stroke-dasharray: 1.5625,0.9375; stroke-dashoffset: 0; stroke: #3f3f3f; stroke-width: 1.25"/>
   </g>
   <g id="patch_3">
    <path d="M 44.01125 132.815625 
L 44.01125 21.935625 
" style="fill: none; stroke: #000000; stroke-linejoin: miter; stroke-linecap: square"/>
   </g>
   <g id="patch_4">
    <path d="M 155.61125 132.815625 
L 155.61125 21.935625 
" style="fill: none; stroke: #000000; stroke-linejoin: miter; stroke-linecap: square"/>
   </g>
   <g id="patch_5">
    <path d="M 44.01125 132.815625 
L 155.61125 132.815625 
" style="fill: none; stroke: #000000; stroke-linejoin: miter; stroke-linecap: square"/>
   </g>
   <g id="patch_6">
    <path d="M 44.01125 21.935625 
L 155.61125 21.935625 
" style="fill: none; stroke: #000000; stroke-linejoin: miter; stroke-linecap: square"/>
   </g>
   <g id="text_5">
    <!-- p=3.4e-05 -->
    <g style="fill: #ff0000" transform="translate(77.49125 44.111625) scale(0.1 -0.1)">
     <defs>
      <path id="ArialMT-70" d="M 422 -1272 
L 422 3319 
L 934 3319 
L 934 2888 
Q 1116 3141 1344 3267 
Q 1572 3394 1897 3394 
Q 2322 3394 2647 3175 
Q 2972 2956 3137 2557 
Q 3303 2159 3303 1684 
Q 3303 1175 3120 767 
Q 2938 359 2589 142 
Q 2241 -75 1856 -75 
Q 1575 -75 1351 44 
Q 1128 163 984 344 
L 984 -1272 
L 422 -1272 
z
M 931 1641 
Q 931 1000 1190 694 
Q 1450 388 1819 388 
Q 2194 388 2461 705 
Q 2728 1022 2728 1688 
Q 2728 2322 2467 2637 
Q 2206 2953 1844 2953 
Q 1484 2953 1207 2617 
Q 931 2281 931 1641 
z
" transform="scale(0.015625)"/>
      <path id="ArialMT-3d" d="M 3381 2694 
L 356 2694 
L 356 3219 
L 3381 3219 
L 3381 2694 
z
M 3381 1303 
L 356 1303 
L 356 1828 
L 3381 1828 
L 3381 1303 
z
" transform="scale(0.015625)"/>
      <path id="ArialMT-33" d="M 269 1209 
L 831 1284 
Q 928 806 1161 595 
Q 1394 384 1728 384 
Q 2125 384 2398 659 
Q 2672 934 2672 1341 
Q 2672 1728 2419 1979 
Q 2166 2231 1775 2231 
Q 1616 2231 1378 2169 
L 1441 2663 
Q 1497 2656 1531 2656 
Q 1891 2656 2178 2843 
Q 2466 3031 2466 3422 
Q 2466 3731 2256 3934 
Q 2047 4138 1716 4138 
Q 1388 4138 1169 3931 
Q 950 3725 888 3313 
L 325 3413 
Q 428 3978 793 4289 
Q 1159 4600 1703 4600 
Q 2078 4600 2393 4439 
Q 2709 4278 2876 4000 
Q 3044 3722 3044 3409 
Q 3044 3113 2884 2869 
Q 2725 2625 2413 2481 
Q 2819 2388 3044 2092 
Q 3269 1797 3269 1353 
Q 3269 753 2831 336 
Q 2394 -81 1725 -81 
Q 1122 -81 723 278 
Q 325 638 269 1209 
z
" transform="scale(0.015625)"/>
      <path id="ArialMT-65" d="M 2694 1069 
L 3275 997 
Q 3138 488 2766 206 
Q 2394 -75 1816 -75 
Q 1088 -75 661 373 
Q 234 822 234 1631 
Q 234 2469 665 2931 
Q 1097 3394 1784 3394 
Q 2450 3394 2872 2941 
Q 3294 2488 3294 1666 
Q 3294 1616 3291 1516 
L 816 1516 
Q 847 969 1125 678 
Q 1403 388 1819 388 
Q 2128 388 2347 550 
Q 2566 713 2694 1069 
z
M 847 1978 
L 2700 1978 
Q 2663 2397 2488 2606 
Q 2219 2931 1791 2931 
Q 1403 2931 1139 2672 
Q 875 2413 847 1978 
z
" transform="scale(0.015625)"/>
      <path id="ArialMT-2d" d="M 203 1375 
L 203 1941 
L 1931 1941 
L 1931 1375 
L 203 1375 
z
" transform="scale(0.015625)"/>
      <path id="ArialMT-35" d="M 266 1200 
L 856 1250 
Q 922 819 1161 601 
Q 1400 384 1738 384 
Q 2144 384 2425 690 
Q 2706 997 2706 1503 
Q 2706 1984 2436 2262 
Q 2166 2541 1728 2541 
Q 1456 2541 1237 2417 
Q 1019 2294 894 2097 
L 366 2166 
L 809 4519 
L 3088 4519 
L 3088 3981 
L 1259 3981 
L 1013 2750 
Q 1425 3038 1878 3038 
Q 2478 3038 2890 2622 
Q 3303 2206 3303 1553 
Q 3303 931 2941 478 
Q 2500 -78 1738 -78 
Q 1113 -78 717 272 
Q 322 622 266 1200 
z
" transform="scale(0.015625)"/>
     </defs>
     <use xlink:href="#ArialMT-70"/>
     <use xlink:href="#ArialMT-3d" x="55.615234"/>
     <use xlink:href="#ArialMT-33" x="114.013672"/>
     <use xlink:href="#ArialMT-2e" x="169.628906"/>
     <use xlink:href="#ArialMT-34" x="197.412109"/>
     <use xlink:href="#ArialMT-65" x="253.027344"/>
     <use xlink:href="#ArialMT-2d" x="308.642578"/>
     <use xlink:href="#ArialMT-30" x="341.943359"/>
     <use xlink:href="#ArialMT-35" x="397.558594"/>
    </g>
   </g>
   <g id="text_6">
    <!-- Copy number variation -->
    <g transform="translate(34.47125 15.935625) scale(0.12 -0.12)">
     <defs>
      <path id="Arial-BoldMT-70" d="M 434 3319 
L 1253 3319 
L 1253 2831 
Q 1413 3081 1684 3237 
Q 1956 3394 2288 3394 
Q 2866 3394 3269 2941 
Q 3672 2488 3672 1678 
Q 3672 847 3265 386 
Q 2859 -75 2281 -75 
Q 2006 -75 1782 34 
Q 1559 144 1313 409 
L 1313 -1263 
L 434 -1263 
L 434 3319 
z
M 1303 1716 
Q 1303 1156 1525 889 
Q 1747 622 2066 622 
Q 2372 622 2575 867 
Q 2778 1113 2778 1672 
Q 2778 2194 2568 2447 
Q 2359 2700 2050 2700 
Q 1728 2700 1515 2451 
Q 1303 2203 1303 1716 
z
" transform="scale(0.015625)"/>
      <path id="Arial-BoldMT-79" d="M 44 3319 
L 978 3319 
L 1772 963 
L 2547 3319 
L 3456 3319 
L 2284 125 
L 2075 -453 
Q 1959 -744 1854 -897 
Q 1750 -1050 1614 -1145 
Q 1478 -1241 1279 -1294 
Q 1081 -1347 831 -1347 
Q 578 -1347 334 -1294 
L 256 -606 
Q 463 -647 628 -647 
Q 934 -647 1081 -467 
Q 1228 -288 1306 -9 
L 44 3319 
z
" transform="scale(0.015625)"/>
      <path id="Arial-BoldMT-75" d="M 2644 0 
L 2644 497 
Q 2463 231 2167 78 
Q 1872 -75 1544 -75 
Q 1209 -75 943 72 
Q 678 219 559 484 
Q 441 750 441 1219 
L 441 3319 
L 1319 3319 
L 1319 1794 
Q 1319 1094 1367 936 
Q 1416 778 1544 686 
Q 1672 594 1869 594 
Q 2094 594 2272 717 
Q 2450 841 2515 1023 
Q 2581 1206 2581 1919 
L 2581 3319 
L 3459 3319 
L 3459 0 
L 2644 0 
z
" transform="scale(0.015625)"/>
      <path id="Arial-BoldMT-6d" d="M 394 3319 
L 1203 3319 
L 1203 2866 
Q 1638 3394 2238 3394 
Q 2556 3394 2790 3262 
Q 3025 3131 3175 2866 
Q 3394 3131 3647 3262 
Q 3900 3394 4188 3394 
Q 4553 3394 4806 3245 
Q 5059 3097 5184 2809 
Q 5275 2597 5275 2122 
L 5275 0 
L 4397 0 
L 4397 1897 
Q 4397 2391 4306 2534 
Q 4184 2722 3931 2722 
Q 3747 2722 3584 2609 
Q 3422 2497 3350 2280 
Q 3278 2063 3278 1594 
L 3278 0 
L 2400 0 
L 2400 1819 
Q 2400 2303 2353 2443 
Q 2306 2584 2207 2653 
Q 2109 2722 1941 2722 
Q 1738 2722 1575 2612 
Q 1413 2503 1342 2297 
Q 1272 2091 1272 1613 
L 1272 0 
L 394 0 
L 394 3319 
z
" transform="scale(0.015625)"/>
      <path id="Arial-BoldMT-62" d="M 422 0 
L 422 4581 
L 1300 4581 
L 1300 2931 
Q 1706 3394 2263 3394 
Q 2869 3394 3266 2955 
Q 3663 2516 3663 1694 
Q 3663 844 3258 384 
Q 2853 -75 2275 -75 
Q 1991 -75 1714 67 
Q 1438 209 1238 488 
L 1238 0 
L 422 0 
z
M 1294 1731 
Q 1294 1216 1456 969 
Q 1684 619 2063 619 
Q 2353 619 2558 867 
Q 2763 1116 2763 1650 
Q 2763 2219 2556 2470 
Q 2350 2722 2028 2722 
Q 1713 2722 1503 2476 
Q 1294 2231 1294 1731 
z
" transform="scale(0.015625)"/>
     </defs>
     <use xlink:href="#Arial-BoldMT-43"/>
     <use xlink:href="#Arial-BoldMT-6f" x="72.216797"/>
     <use xlink:href="#Arial-BoldMT-70" x="133.300781"/>
     <use xlink:href="#Arial-BoldMT-79" x="194.384766"/>
     <use xlink:href="#Arial-BoldMT-20" x="250"/>
     <use xlink:href="#Arial-BoldMT-6e" x="277.783203"/>
     <use xlink:href="#Arial-BoldMT-75" x="338.867188"/>
     <use xlink:href="#Arial-BoldMT-6d" x="399.951172"/>
     <use xlink:href="#Arial-BoldMT-62" x="488.867188"/>
     <use xlink:href="#Arial-BoldMT-65" x="549.951172"/>
     <use xlink:href="#Arial-BoldMT-72" x="605.566406"/>
     <use xlink:href="#Arial-BoldMT-20" x="644.482422"/>
     <use xlink:href="#Arial-BoldMT-76" x="672.265625"/>
     <use xlink:href="#Arial-BoldMT-61" x="727.880859"/>
     <use xlink:href="#Arial-BoldMT-72" x="783.496094"/>
     <use xlink:href="#Arial-BoldMT-69" x="822.412109"/>
     <use xlink:href="#Arial-BoldMT-61" x="850.195312"/>
     <use xlink:href="#Arial-BoldMT-74" x="905.810547"/>
     <use xlink:href="#Arial-BoldMT-69" x="939.111328"/>
     <use xlink:href="#Arial-BoldMT-6f" x="966.894531"/>
     <use xlink:href="#Arial-BoldMT-6e" x="1027.978516"/>
    </g>
   </g>
  </g>
 </g>
 <defs>
  <clipPath id="p1a99ad2fed">
   <rect x="44.01125" y="21.935625" width="111.6" height="110.88"/>
  </clipPath>
 </defs>
</svg>
