<?xml version="1.0" encoding="utf-8" standalone="no"?>
<!DOCTYPE svg PUBLIC "-//W3C//DTD SVG 1.1//EN"
  "http://www.w3.org/Graphics/SVG/1.1/DTD/svg11.dtd">
<svg xmlns:xlink="http://www.w3.org/1999/xlink" width="178.217088pt" height="152.32234pt" viewBox="0 0 178.217088 152.32234" xmlns="http://www.w3.org/2000/svg" version="1.1">
 <metadata>
  <rdf:RDF xmlns:dc="http://purl.org/dc/elements/1.1/" xmlns:cc="http://creativecommons.org/ns#" xmlns:rdf="http://www.w3.org/1999/02/22-rdf-syntax-ns#">
   <cc:Work>
    <dc:type rdf:resource="http://purl.org/dc/dcmitype/StillImage"/>
    <dc:date>2024-04-28T09:42:04.570300</dc:date>
    <dc:format>image/svg+xml</dc:format>
    <dc:creator>
     <cc:Agent>
      <dc:title>Matplotlib v3.8.4, https://matplotlib.org/</dc:title>
     </cc:Agent>
    </dc:creator>
   </cc:Work>
  </rdf:RDF>
 </metadata>
 <defs>
  <style type="text/css">*{stroke-linejoin: round; stroke-linecap: butt}</style>
 </defs>
 <g id="figure_1">
  <g id="patch_1">
   <path d="M 0 152.32234 
L 178.217088 152.32234 
L 178.217088 0 
L 0 0 
L 0 152.32234 
z
" style="fill: none"/>
  </g>
  <g id="axes_1">
   <g id="patch_2">
    <path d="M 44.01125 104.949375 
L 155.61125 104.949375 
L 155.61125 21.789375 
L 44.01125 21.789375 
L 44.01125 104.949375 
z
" style="fill: none"/>
   </g>
   <g id="PolyCollection_1">
    <defs>
     <path id="m80ab99816c" d="M 74.64155 -61.088327 
L 69.18095 -61.088327 
L 65.871883 -62.428537 
L 61.16284 -63.768747 
L 56.014243 -65.108957 
L 51.804445 -66.449167 
L 49.59125 -67.789377 
L 49.679128 -69.129587 
L 51.691728 -70.469797 
L 54.79529 -71.810007 
L 58.022706 -73.150217 
L 60.770552 -74.490427 
L 62.98517 -75.830637 
L 64.819666 -77.170847 
L 66.328401 -78.511057 
L 67.50444 -79.851267 
L 68.378833 -81.191477 
L 69.024039 -82.531687 
L 69.535943 -83.871897 
L 69.988977 -85.212107 
L 70.373702 -86.552317 
L 70.640193 -87.892527 
L 70.800618 -89.232737 
L 70.918948 -90.572947 
L 71.031966 -91.913157 
L 71.145081 -93.253367 
L 71.259763 -94.593577 
L 71.357889 -95.933787 
L 71.419449 -97.273997 
L 71.464519 -98.614207 
L 71.518543 -99.954417 
L 71.56893 -101.294627 
L 71.601256 -102.634837 
L 71.632389 -103.975047 
L 71.675502 -105.315257 
L 71.713085 -106.655467 
L 71.727847 -107.995677 
L 71.724959 -109.335887 
L 71.708916 -110.676097 
L 71.677761 -112.016307 
L 71.646751 -113.356517 
L 71.641464 -114.696727 
L 71.666011 -116.036937 
L 71.699199 -117.377147 
L 71.721873 -118.717357 
L 71.736047 -120.057567 
L 71.75462 -121.397777 
L 71.783735 -122.737987 
L 71.81839 -124.078197 
L 71.8466 -125.418407 
L 71.86019 -126.758617 
L 71.861595 -128.098827 
L 71.857818 -129.439037 
L 71.854216 -130.779247 
L 71.852478 -132.119457 
L 71.850978 -133.459667 
L 71.850736 -134.799877 
L 71.856515 -136.140087 
L 71.868037 -137.480297 
L 71.878445 -138.820507 
L 71.883916 -140.160717 
L 71.887646 -141.500927 
L 71.891201 -142.841137 
L 71.890658 -144.181347 
L 71.884949 -145.521557 
L 71.877818 -146.861767 
L 71.871831 -148.201977 
L 71.869119 -149.542187 
L 71.8711 -150.882397 
L 71.871682 -152.222607 
L 71.863252 -153.562817 
L 71.852937 -154.903027 
L 71.856707 -156.243237 
L 71.875614 -157.583447 
L 71.895364 -158.923657 
L 71.906446 -160.263867 
L 71.910266 -161.604077 
L 71.911106 -162.944287 
L 71.911148 -164.284497 
L 71.91064 -165.624707 
L 71.908532 -166.964917 
L 71.903261 -168.305127 
L 71.895786 -169.645337 
L 71.891537 -170.985547 
L 71.894699 -172.325757 
L 71.902098 -173.665967 
L 71.907917 -175.006177 
L 71.910451 -176.346387 
L 71.911124 -177.686597 
L 71.911237 -179.026807 
L 71.911249 -180.367017 
L 71.91125 -181.707227 
L 71.91125 -183.047437 
L 71.911249 -184.387647 
L 71.911239 -185.727857 
L 71.911143 -187.068067 
L 71.910551 -188.408277 
L 71.908236 -189.748487 
L 71.902687 -191.088697 
L 71.89523 -192.428907 
L 71.891509 -193.769117 
L 71.930991 -193.769117 
L 71.930991 -193.769117 
L 71.92727 -192.428907 
L 71.919813 -191.088697 
L 71.914264 -189.748487 
L 71.911949 -188.408277 
L 71.911357 -187.068067 
L 71.911261 -185.727857 
L 71.911251 -184.387647 
L 71.91125 -183.047437 
L 71.91125 -181.707227 
L 71.911251 -180.367017 
L 71.911263 -179.026807 
L 71.911376 -177.686597 
L 71.912049 -176.346387 
L 71.914583 -175.006177 
L 71.920402 -173.665967 
L 71.927801 -172.325757 
L 71.930963 -170.985547 
L 71.926714 -169.645337 
L 71.919239 -168.305127 
L 71.913968 -166.964917 
L 71.91186 -165.624707 
L 71.911352 -164.284497 
L 71.911394 -162.944287 
L 71.912234 -161.604077 
L 71.916054 -160.263867 
L 71.927136 -158.923657 
L 71.946886 -157.583447 
L 71.965793 -156.243237 
L 71.969563 -154.903027 
L 71.959248 -153.562817 
L 71.950818 -152.222607 
L 71.9514 -150.882397 
L 71.953381 -149.542187 
L 71.950669 -148.201977 
L 71.944682 -146.861767 
L 71.937551 -145.521557 
L 71.931842 -144.181347 
L 71.931299 -142.841137 
L 71.934854 -141.500927 
L 71.938584 -140.160717 
L 71.944055 -138.820507 
L 71.954463 -137.480297 
L 71.965985 -136.140087 
L 71.971764 -134.799877 
L 71.971522 -133.459667 
L 71.970022 -132.119457 
L 71.968284 -130.779247 
L 71.964682 -129.439037 
L 71.960905 -128.098827 
L 71.96231 -126.758617 
L 71.9759 -125.418407 
L 72.00411 -124.078197 
L 72.038765 -122.737987 
L 72.06788 -121.397777 
L 72.086453 -120.057567 
L 72.100627 -118.717357 
L 72.123301 -117.377147 
L 72.156489 -116.036937 
L 72.181036 -114.696727 
L 72.175749 -113.356517 
L 72.144739 -112.016307 
L 72.113584 -110.676097 
L 72.097541 -109.335887 
L 72.094653 -107.995677 
L 72.109415 -106.655467 
L 72.146998 -105.315257 
L 72.190111 -103.975047 
L 72.221244 -102.634837 
L 72.25357 -101.294627 
L 72.303957 -99.954417 
L 72.357981 -98.614207 
L 72.403051 -97.273997 
L 72.464611 -95.933787 
L 72.562737 -94.593577 
L 72.677419 -93.253367 
L 72.790534 -91.913157 
L 72.903552 -90.572947 
L 73.021882 -89.232737 
L 73.182307 -87.892527 
L 73.448798 -86.552317 
L 73.833523 -85.212107 
L 74.286557 -83.871897 
L 74.798461 -82.531687 
L 75.443667 -81.191477 
L 76.31806 -79.851267 
L 77.494099 -78.511057 
L 79.002834 -77.170847 
L 80.83733 -75.830637 
L 83.051948 -74.490427 
L 85.799794 -73.150217 
L 89.02721 -71.810007 
L 92.130772 -70.469797 
L 94.143372 -69.129587 
L 94.23125 -67.789377 
L 92.018055 -66.449167 
L 87.808257 -65.108957 
L 82.65966 -63.768747 
L 77.950617 -62.428537 
L 74.64155 -61.088327 
z
" style="stroke: #3f3f3f; stroke-width: 1.25"/>
    </defs>
    <g clip-path="url(#p4e998cacb2)">
     <use xlink:href="#m80ab99816c" x="0" y="152.32234" style="fill: #407193; stroke: #3f3f3f; stroke-width: 1.25"/>
    </g>
   </g>
   <g id="PolyCollection_2">
    <defs>
     <path id="mbc5dec326c" d="M 131.800984 -60.769343 
L 123.621516 -60.769343 
L 120.808216 -62.023838 
L 117.257662 -63.278333 
L 113.386125 -64.532828 
L 109.785199 -65.787322 
L 107.036409 -67.041817 
L 105.533509 -68.296312 
L 105.39125 -69.550807 
L 106.458837 -70.805302 
L 108.406576 -72.059796 
L 110.83862 -73.314291 
L 113.392004 -74.568786 
L 115.799026 -75.823281 
L 117.909011 -77.077775 
L 119.676818 -78.33227 
L 121.127748 -79.586765 
L 122.313044 -80.84126 
L 123.277222 -82.095754 
L 124.050967 -83.350249 
L 124.661082 -84.604744 
L 125.138036 -85.859239 
L 125.513504 -87.113733 
L 125.814395 -88.368228 
L 126.05953 -89.622723 
L 126.259496 -90.877218 
L 126.419629 -92.131712 
L 126.545506 -93.386207 
L 126.646205 -94.640702 
L 126.730981 -95.895197 
L 126.803286 -97.149691 
L 126.860871 -98.404186 
L 126.90287 -99.658681 
L 126.934242 -100.913176 
L 126.960749 -102.167671 
L 126.981117 -103.422165 
L 126.988008 -104.67666 
L 126.978254 -105.931155 
L 126.960721 -107.18565 
L 126.952751 -108.440144 
L 126.968628 -109.694639 
L 127.010458 -110.949134 
L 127.067839 -112.203629 
L 127.12475 -113.458123 
L 127.167926 -114.712618 
L 127.191975 -115.967113 
L 127.19983 -117.221608 
L 127.199596 -118.476102 
L 127.199956 -119.730597 
L 127.206543 -120.985092 
L 127.220964 -122.239587 
L 127.242085 -123.494081 
L 127.267819 -124.748576 
L 127.296652 -126.003071 
L 127.328763 -127.257566 
L 127.365477 -128.51206 
L 127.406222 -129.766555 
L 127.445907 -131.02105 
L 127.476982 -132.275545 
L 127.495603 -133.53004 
L 127.505658 -134.784534 
L 127.515795 -136.039029 
L 127.531743 -137.293524 
L 127.551219 -138.548019 
L 127.566077 -139.802513 
L 127.569254 -141.057008 
L 127.560109 -142.311503 
L 127.544597 -143.565998 
L 127.531801 -144.820492 
L 127.529791 -146.074987 
L 127.542311 -147.329482 
L 127.567253 -148.583977 
L 127.598086 -149.838471 
L 127.627776 -151.092966 
L 127.652279 -152.347461 
L 127.671061 -153.601956 
L 127.685157 -154.85645 
L 127.695295 -156.110945 
L 127.701486 -157.36544 
L 127.703562 -158.619935 
L 127.701726 -159.874429 
L 127.696934 -161.128924 
L 127.691124 -162.383419 
L 127.686886 -163.637914 
L 127.686306 -164.892409 
L 127.689731 -166.146903 
L 127.695618 -167.401398 
L 127.70169 -168.655893 
L 127.706327 -169.910388 
L 127.709115 -171.164882 
L 127.710467 -172.419377 
L 127.710987 -173.673872 
L 127.711086 -174.928367 
L 127.710865 -176.182861 
L 127.710109 -177.437356 
L 127.708317 -178.691851 
L 127.704887 -179.946346 
L 127.699629 -181.20084 
L 127.693381 -182.455335 
L 127.688117 -183.70983 
L 127.686038 -184.964325 
L 127.736462 -184.964325 
L 127.736462 -184.964325 
L 127.734383 -183.70983 
L 127.729119 -182.455335 
L 127.722871 -181.20084 
L 127.717613 -179.946346 
L 127.714183 -178.691851 
L 127.712391 -177.437356 
L 127.711635 -176.182861 
L 127.711414 -174.928367 
L 127.711513 -173.673872 
L 127.712033 -172.419377 
L 127.713385 -171.164882 
L 127.716173 -169.910388 
L 127.72081 -168.655893 
L 127.726882 -167.401398 
L 127.732769 -166.146903 
L 127.736194 -164.892409 
L 127.735614 -163.637914 
L 127.731376 -162.383419 
L 127.725566 -161.128924 
L 127.720774 -159.874429 
L 127.718938 -158.619935 
L 127.721014 -157.36544 
L 127.727205 -156.110945 
L 127.737343 -154.85645 
L 127.751439 -153.601956 
L 127.770221 -152.347461 
L 127.794724 -151.092966 
L 127.824414 -149.838471 
L 127.855247 -148.583977 
L 127.880189 -147.329482 
L 127.892709 -146.074987 
L 127.890699 -144.820492 
L 127.877903 -143.565998 
L 127.862391 -142.311503 
L 127.853246 -141.057008 
L 127.856423 -139.802513 
L 127.871281 -138.548019 
L 127.890757 -137.293524 
L 127.906705 -136.039029 
L 127.916842 -134.784534 
L 127.926897 -133.53004 
L 127.945518 -132.275545 
L 127.976593 -131.02105 
L 128.016278 -129.766555 
L 128.057023 -128.51206 
L 128.093737 -127.257566 
L 128.125848 -126.003071 
L 128.154681 -124.748576 
L 128.180415 -123.494081 
L 128.201536 -122.239587 
L 128.215957 -120.985092 
L 128.222544 -119.730597 
L 128.222904 -118.476102 
L 128.22267 -117.221608 
L 128.230525 -115.967113 
L 128.254574 -114.712618 
L 128.29775 -113.458123 
L 128.354661 -112.203629 
L 128.412042 -110.949134 
L 128.453872 -109.694639 
L 128.469749 -108.440144 
L 128.461779 -107.18565 
L 128.444246 -105.931155 
L 128.434492 -104.67666 
L 128.441383 -103.422165 
L 128.461751 -102.167671 
L 128.488258 -100.913176 
L 128.51963 -99.658681 
L 128.561629 -98.404186 
L 128.619214 -97.149691 
L 128.691519 -95.895197 
L 128.776295 -94.640702 
L 128.876994 -93.386207 
L 129.002871 -92.131712 
L 129.163004 -90.877218 
L 129.36297 -89.622723 
L 129.608105 -88.368228 
L 129.908996 -87.113733 
L 130.284464 -85.859239 
L 130.761418 -84.604744 
L 131.371533 -83.350249 
L 132.145278 -82.095754 
L 133.109456 -80.84126 
L 134.294752 -79.586765 
L 135.745682 -78.33227 
L 137.513489 -77.077775 
L 139.623474 -75.823281 
L 142.030496 -74.568786 
L 144.58388 -73.314291 
L 147.015924 -72.059796 
L 148.963663 -70.805302 
L 150.03125 -69.550807 
L 149.888991 -68.296312 
L 148.386091 -67.041817 
L 145.637301 -65.787322 
L 142.036375 -64.532828 
L 138.164838 -63.278333 
L 134.614284 -62.023838 
L 131.800984 -60.769343 
z
" style="stroke: #3f3f3f; stroke-width: 1.25"/>
    </defs>
    <g clip-path="url(#p4e998cacb2)">
     <use xlink:href="#mbc5dec326c" x="0" y="152.32234" style="fill: #df6c20; stroke: #3f3f3f; stroke-width: 1.25"/>
    </g>
   </g>
   <g id="matplotlib.axis_1">
    <g id="xtick_1">
     <g id="line2d_1">
      <defs>
       <path id="m82ba55c7e5" d="M 0 0 
L 0 3.5 
" style="stroke: #000000; stroke-width: 0.8"/>
      </defs>
      <g>
       <use xlink:href="#m82ba55c7e5" x="71.91125" y="104.949375" style="stroke: #000000; stroke-width: 0.8"/>
      </g>
     </g>
     <g id="text_1">
      <!-- Yeast core -->
      <g transform="translate(43.719548 135.785408) rotate(-15) scale(0.12 -0.12)">
       <defs>
        <path id="Arial-BoldMT-59" d="M 1669 0 
L 1669 1928 
L -9 4581 
L 1075 4581 
L 2153 2769 
L 3209 4581 
L 4275 4581 
L 2591 1922 
L 2591 0 
L 1669 0 
z
" transform="scale(0.015625)"/>
        <path id="Arial-BoldMT-65" d="M 2381 1056 
L 3256 909 
Q 3088 428 2723 176 
Q 2359 -75 1813 -75 
Q 947 -75 531 491 
Q 203 944 203 1634 
Q 203 2459 634 2926 
Q 1066 3394 1725 3394 
Q 2466 3394 2894 2905 
Q 3322 2416 3303 1406 
L 1103 1406 
Q 1113 1016 1316 798 
Q 1519 581 1822 581 
Q 2028 581 2168 693 
Q 2309 806 2381 1056 
z
M 2431 1944 
Q 2422 2325 2234 2523 
Q 2047 2722 1778 2722 
Q 1491 2722 1303 2513 
Q 1116 2303 1119 1944 
L 2431 1944 
z
" transform="scale(0.015625)"/>
        <path id="Arial-BoldMT-61" d="M 1116 2306 
L 319 2450 
Q 453 2931 781 3162 
Q 1109 3394 1756 3394 
Q 2344 3394 2631 3255 
Q 2919 3116 3036 2902 
Q 3153 2688 3153 2116 
L 3144 1091 
Q 3144 653 3186 445 
Q 3228 238 3344 0 
L 2475 0 
Q 2441 88 2391 259 
Q 2369 338 2359 363 
Q 2134 144 1878 34 
Q 1622 -75 1331 -75 
Q 819 -75 523 203 
Q 228 481 228 906 
Q 228 1188 362 1408 
Q 497 1628 739 1745 
Q 981 1863 1438 1950 
Q 2053 2066 2291 2166 
L 2291 2253 
Q 2291 2506 2166 2614 
Q 2041 2722 1694 2722 
Q 1459 2722 1328 2630 
Q 1197 2538 1116 2306 
z
M 2291 1594 
Q 2122 1538 1756 1459 
Q 1391 1381 1278 1306 
Q 1106 1184 1106 997 
Q 1106 813 1243 678 
Q 1381 544 1594 544 
Q 1831 544 2047 700 
Q 2206 819 2256 991 
Q 2291 1103 2291 1419 
L 2291 1594 
z
" transform="scale(0.015625)"/>
        <path id="Arial-BoldMT-73" d="M 150 947 
L 1031 1081 
Q 1088 825 1259 692 
Q 1431 559 1741 559 
Q 2081 559 2253 684 
Q 2369 772 2369 919 
Q 2369 1019 2306 1084 
Q 2241 1147 2013 1200 
Q 950 1434 666 1628 
Q 272 1897 272 2375 
Q 272 2806 612 3100 
Q 953 3394 1669 3394 
Q 2350 3394 2681 3172 
Q 3013 2950 3138 2516 
L 2309 2363 
Q 2256 2556 2107 2659 
Q 1959 2763 1684 2763 
Q 1338 2763 1188 2666 
Q 1088 2597 1088 2488 
Q 1088 2394 1175 2328 
Q 1294 2241 1995 2081 
Q 2697 1922 2975 1691 
Q 3250 1456 3250 1038 
Q 3250 581 2869 253 
Q 2488 -75 1741 -75 
Q 1063 -75 667 200 
Q 272 475 150 947 
z
" transform="scale(0.015625)"/>
        <path id="Arial-BoldMT-74" d="M 1981 3319 
L 1981 2619 
L 1381 2619 
L 1381 1281 
Q 1381 875 1398 808 
Q 1416 741 1477 697 
Q 1538 653 1625 653 
Q 1747 653 1978 738 
L 2053 56 
Q 1747 -75 1359 -75 
Q 1122 -75 931 4 
Q 741 84 652 211 
Q 563 338 528 553 
Q 500 706 500 1172 
L 500 2619 
L 97 2619 
L 97 3319 
L 500 3319 
L 500 3978 
L 1381 4491 
L 1381 3319 
L 1981 3319 
z
" transform="scale(0.015625)"/>
        <path id="Arial-BoldMT-20" transform="scale(0.015625)"/>
        <path id="Arial-BoldMT-63" d="M 3353 2338 
L 2488 2181 
Q 2444 2441 2289 2572 
Q 2134 2703 1888 2703 
Q 1559 2703 1364 2476 
Q 1169 2250 1169 1719 
Q 1169 1128 1367 884 
Q 1566 641 1900 641 
Q 2150 641 2309 783 
Q 2469 925 2534 1272 
L 3397 1125 
Q 3263 531 2881 228 
Q 2500 -75 1859 -75 
Q 1131 -75 698 384 
Q 266 844 266 1656 
Q 266 2478 700 2936 
Q 1134 3394 1875 3394 
Q 2481 3394 2839 3133 
Q 3197 2872 3353 2338 
z
" transform="scale(0.015625)"/>
        <path id="Arial-BoldMT-6f" d="M 256 1706 
Q 256 2144 472 2553 
Q 688 2963 1083 3178 
Q 1478 3394 1966 3394 
Q 2719 3394 3200 2905 
Q 3681 2416 3681 1669 
Q 3681 916 3195 420 
Q 2709 -75 1972 -75 
Q 1516 -75 1102 131 
Q 688 338 472 736 
Q 256 1134 256 1706 
z
M 1156 1659 
Q 1156 1166 1390 903 
Q 1625 641 1969 641 
Q 2313 641 2545 903 
Q 2778 1166 2778 1666 
Q 2778 2153 2545 2415 
Q 2313 2678 1969 2678 
Q 1625 2678 1390 2415 
Q 1156 2153 1156 1659 
z
" transform="scale(0.015625)"/>
        <path id="Arial-BoldMT-72" d="M 1300 0 
L 422 0 
L 422 3319 
L 1238 3319 
L 1238 2847 
Q 1447 3181 1614 3287 
Q 1781 3394 1994 3394 
Q 2294 3394 2572 3228 
L 2300 2463 
Q 2078 2606 1888 2606 
Q 1703 2606 1575 2504 
Q 1447 2403 1373 2137 
Q 1300 1872 1300 1025 
L 1300 0 
z
" transform="scale(0.015625)"/>
       </defs>
       <use xlink:href="#Arial-BoldMT-59"/>
       <use xlink:href="#Arial-BoldMT-65" x="61.199219"/>
       <use xlink:href="#Arial-BoldMT-61" x="116.814453"/>
       <use xlink:href="#Arial-BoldMT-73" x="172.429688"/>
       <use xlink:href="#Arial-BoldMT-74" x="228.044922"/>
       <use xlink:href="#Arial-BoldMT-20" x="261.345703"/>
       <use xlink:href="#Arial-BoldMT-63" x="289.128906"/>
       <use xlink:href="#Arial-BoldMT-6f" x="344.744141"/>
       <use xlink:href="#Arial-BoldMT-72" x="405.828125"/>
       <use xlink:href="#Arial-BoldMT-65" x="444.744141"/>
      </g>
     </g>
    </g>
    <g id="xtick_2">
     <g id="line2d_2">
      <g>
       <use xlink:href="#m82ba55c7e5" x="127.71125" y="104.949375" style="stroke: #000000; stroke-width: 0.8"/>
      </g>
     </g>
     <g id="text_2">
      <!-- Non-yeast core -->
      <g transform="translate(86.628506 142.682774) rotate(-15) scale(0.12 -0.12)">
       <defs>
        <path id="Arial-BoldMT-4e" d="M 475 0 
L 475 4581 
L 1375 4581 
L 3250 1522 
L 3250 4581 
L 4109 4581 
L 4109 0 
L 3181 0 
L 1334 2988 
L 1334 0 
L 475 0 
z
" transform="scale(0.015625)"/>
        <path id="Arial-BoldMT-6e" d="M 3478 0 
L 2600 0 
L 2600 1694 
Q 2600 2231 2544 2389 
Q 2488 2547 2361 2634 
Q 2234 2722 2056 2722 
Q 1828 2722 1647 2597 
Q 1466 2472 1398 2265 
Q 1331 2059 1331 1503 
L 1331 0 
L 453 0 
L 453 3319 
L 1269 3319 
L 1269 2831 
Q 1703 3394 2363 3394 
Q 2653 3394 2893 3289 
Q 3134 3184 3257 3021 
Q 3381 2859 3429 2653 
Q 3478 2447 3478 2063 
L 3478 0 
z
" transform="scale(0.015625)"/>
        <path id="Arial-BoldMT-2d" d="M 359 1222 
L 359 2100 
L 2084 2100 
L 2084 1222 
L 359 1222 
z
" transform="scale(0.015625)"/>
        <path id="Arial-BoldMT-79" d="M 44 3319 
L 978 3319 
L 1772 963 
L 2547 3319 
L 3456 3319 
L 2284 125 
L 2075 -453 
Q 1959 -744 1854 -897 
Q 1750 -1050 1614 -1145 
Q 1478 -1241 1279 -1294 
Q 1081 -1347 831 -1347 
Q 578 -1347 334 -1294 
L 256 -606 
Q 463 -647 628 -647 
Q 934 -647 1081 -467 
Q 1228 -288 1306 -9 
L 44 3319 
z
" transform="scale(0.015625)"/>
       </defs>
       <use xlink:href="#Arial-BoldMT-4e"/>
       <use xlink:href="#Arial-BoldMT-6f" x="72.216797"/>
       <use xlink:href="#Arial-BoldMT-6e" x="133.300781"/>
       <use xlink:href="#Arial-BoldMT-2d" x="194.384766"/>
       <use xlink:href="#Arial-BoldMT-79" x="227.685547"/>
       <use xlink:href="#Arial-BoldMT-65" x="283.300781"/>
       <use xlink:href="#Arial-BoldMT-61" x="338.916016"/>
       <use xlink:href="#Arial-BoldMT-73" x="394.53125"/>
       <use xlink:href="#Arial-BoldMT-74" x="450.146484"/>
       <use xlink:href="#Arial-BoldMT-20" x="483.447266"/>
       <use xlink:href="#Arial-BoldMT-63" x="511.230469"/>
       <use xlink:href="#Arial-BoldMT-6f" x="566.845703"/>
       <use xlink:href="#Arial-BoldMT-72" x="627.929688"/>
       <use xlink:href="#Arial-BoldMT-65" x="666.845703"/>
      </g>
     </g>
    </g>
   </g>
   <g id="matplotlib.axis_2">
    <g id="ytick_1">
     <g id="line2d_3">
      <defs>
       <path id="mfb67893e1d" d="M 0 0 
L -3.5 0 
" style="stroke: #000000; stroke-width: 0.8"/>
      </defs>
      <g>
       <use xlink:href="#mfb67893e1d" x="44.01125" y="95.709375" style="stroke: #000000; stroke-width: 0.8"/>
      </g>
     </g>
     <g id="text_3">
      <!-- 0.0 -->
      <g transform="translate(20.33125 100.004063) scale(0.12 -0.12)">
       <defs>
        <path id="ArialMT-30" d="M 266 2259 
Q 266 3072 433 3567 
Q 600 4063 929 4331 
Q 1259 4600 1759 4600 
Q 2128 4600 2406 4451 
Q 2684 4303 2865 4023 
Q 3047 3744 3150 3342 
Q 3253 2941 3253 2259 
Q 3253 1453 3087 958 
Q 2922 463 2592 192 
Q 2263 -78 1759 -78 
Q 1097 -78 719 397 
Q 266 969 266 2259 
z
M 844 2259 
Q 844 1131 1108 757 
Q 1372 384 1759 384 
Q 2147 384 2411 759 
Q 2675 1134 2675 2259 
Q 2675 3391 2411 3762 
Q 2147 4134 1753 4134 
Q 1366 4134 1134 3806 
Q 844 3388 844 2259 
z
" transform="scale(0.015625)"/>
        <path id="ArialMT-2e" d="M 581 0 
L 581 641 
L 1222 641 
L 1222 0 
L 581 0 
z
" transform="scale(0.015625)"/>
       </defs>
       <use xlink:href="#ArialMT-30"/>
       <use xlink:href="#ArialMT-2e" x="55.615234"/>
       <use xlink:href="#ArialMT-30" x="83.398438"/>
      </g>
     </g>
    </g>
    <g id="ytick_2">
     <g id="line2d_4">
      <g>
       <use xlink:href="#mfb67893e1d" x="44.01125" y="77.229375" style="stroke: #000000; stroke-width: 0.8"/>
      </g>
     </g>
     <g id="text_4">
      <!-- 0.1 -->
      <g transform="translate(20.33125 81.524063) scale(0.12 -0.12)">
       <defs>
        <path id="ArialMT-31" d="M 2384 0 
L 1822 0 
L 1822 3584 
Q 1619 3391 1289 3197 
Q 959 3003 697 2906 
L 697 3450 
Q 1169 3672 1522 3987 
Q 1875 4303 2022 4600 
L 2384 4600 
L 2384 0 
z
" transform="scale(0.015625)"/>
       </defs>
       <use xlink:href="#ArialMT-30"/>
       <use xlink:href="#ArialMT-2e" x="55.615234"/>
       <use xlink:href="#ArialMT-31" x="83.398438"/>
      </g>
     </g>
    </g>
    <g id="ytick_3">
     <g id="line2d_5">
      <g>
       <use xlink:href="#mfb67893e1d" x="44.01125" y="58.749375" style="stroke: #000000; stroke-width: 0.8"/>
      </g>
     </g>
     <g id="text_5">
      <!-- 0.2 -->
      <g transform="translate(20.33125 63.044063) scale(0.12 -0.12)">
       <defs>
        <path id="ArialMT-32" d="M 3222 541 
L 3222 0 
L 194 0 
Q 188 203 259 391 
Q 375 700 629 1000 
Q 884 1300 1366 1694 
Q 2113 2306 2375 2664 
Q 2638 3022 2638 3341 
Q 2638 3675 2398 3904 
Q 2159 4134 1775 4134 
Q 1369 4134 1125 3890 
Q 881 3647 878 3216 
L 300 3275 
Q 359 3922 746 4261 
Q 1134 4600 1788 4600 
Q 2447 4600 2831 4234 
Q 3216 3869 3216 3328 
Q 3216 3053 3103 2787 
Q 2991 2522 2730 2228 
Q 2469 1934 1863 1422 
Q 1356 997 1212 845 
Q 1069 694 975 541 
L 3222 541 
z
" transform="scale(0.015625)"/>
       </defs>
       <use xlink:href="#ArialMT-30"/>
       <use xlink:href="#ArialMT-2e" x="55.615234"/>
       <use xlink:href="#ArialMT-32" x="83.398438"/>
      </g>
     </g>
    </g>
    <g id="ytick_4">
     <g id="line2d_6">
      <g>
       <use xlink:href="#mfb67893e1d" x="44.01125" y="40.269375" style="stroke: #000000; stroke-width: 0.8"/>
      </g>
     </g>
     <g id="text_6">
      <!-- 0.3 -->
      <g transform="translate(20.33125 44.564062) scale(0.12 -0.12)">
       <defs>
        <path id="ArialMT-33" d="M 269 1209 
L 831 1284 
Q 928 806 1161 595 
Q 1394 384 1728 384 
Q 2125 384 2398 659 
Q 2672 934 2672 1341 
Q 2672 1728 2419 1979 
Q 2166 2231 1775 2231 
Q 1616 2231 1378 2169 
L 1441 2663 
Q 1497 2656 1531 2656 
Q 1891 2656 2178 2843 
Q 2466 3031 2466 3422 
Q 2466 3731 2256 3934 
Q 2047 4138 1716 4138 
Q 1388 4138 1169 3931 
Q 950 3725 888 3313 
L 325 3413 
Q 428 3978 793 4289 
Q 1159 4600 1703 4600 
Q 2078 4600 2393 4439 
Q 2709 4278 2876 4000 
Q 3044 3722 3044 3409 
Q 3044 3113 2884 2869 
Q 2725 2625 2413 2481 
Q 2819 2388 3044 2092 
Q 3269 1797 3269 1353 
Q 3269 753 2831 336 
Q 2394 -81 1725 -81 
Q 1122 -81 723 278 
Q 325 638 269 1209 
z
" transform="scale(0.015625)"/>
       </defs>
       <use xlink:href="#ArialMT-30"/>
       <use xlink:href="#ArialMT-2e" x="55.615234"/>
       <use xlink:href="#ArialMT-33" x="83.398438"/>
      </g>
     </g>
    </g>
    <g id="text_7">
     <!-- Coefficient of variation -->
     <g transform="translate(14.357813 117.537344) rotate(-90) scale(0.1 -0.1)">
      <defs>
       <path id="Arial-BoldMT-43" d="M 3397 1684 
L 4294 1400 
Q 4088 650 3608 286 
Q 3128 -78 2391 -78 
Q 1478 -78 890 545 
Q 303 1169 303 2250 
Q 303 3394 893 4026 
Q 1484 4659 2447 4659 
Q 3288 4659 3813 4163 
Q 4125 3869 4281 3319 
L 3366 3100 
Q 3284 3456 3026 3662 
Q 2769 3869 2400 3869 
Q 1891 3869 1573 3503 
Q 1256 3138 1256 2319 
Q 1256 1450 1568 1081 
Q 1881 713 2381 713 
Q 2750 713 3015 947 
Q 3281 1181 3397 1684 
z
" transform="scale(0.015625)"/>
       <path id="Arial-BoldMT-66" d="M 75 3319 
L 563 3319 
L 563 3569 
Q 563 3988 652 4194 
Q 741 4400 980 4529 
Q 1219 4659 1584 4659 
Q 1959 4659 2319 4547 
L 2200 3934 
Q 1991 3984 1797 3984 
Q 1606 3984 1523 3895 
Q 1441 3806 1441 3553 
L 1441 3319 
L 2097 3319 
L 2097 2628 
L 1441 2628 
L 1441 0 
L 563 0 
L 563 2628 
L 75 2628 
L 75 3319 
z
" transform="scale(0.015625)"/>
       <path id="Arial-BoldMT-69" d="M 459 3769 
L 459 4581 
L 1338 4581 
L 1338 3769 
L 459 3769 
z
M 459 0 
L 459 3319 
L 1338 3319 
L 1338 0 
L 459 0 
z
" transform="scale(0.015625)"/>
       <path id="Arial-BoldMT-76" d="M 1372 0 
L 34 3319 
L 956 3319 
L 1581 1625 
L 1763 1059 
Q 1834 1275 1853 1344 
Q 1897 1484 1947 1625 
L 2578 3319 
L 3481 3319 
L 2163 0 
L 1372 0 
z
" transform="scale(0.015625)"/>
      </defs>
      <use xlink:href="#Arial-BoldMT-43"/>
      <use xlink:href="#Arial-BoldMT-6f" x="72.216797"/>
      <use xlink:href="#Arial-BoldMT-65" x="133.300781"/>
      <use xlink:href="#Arial-BoldMT-66" x="188.916016"/>
      <use xlink:href="#Arial-BoldMT-66" x="222.216797"/>
      <use xlink:href="#Arial-BoldMT-69" x="255.517578"/>
      <use xlink:href="#Arial-BoldMT-63" x="283.300781"/>
      <use xlink:href="#Arial-BoldMT-69" x="338.916016"/>
      <use xlink:href="#Arial-BoldMT-65" x="366.699219"/>
      <use xlink:href="#Arial-BoldMT-6e" x="422.314453"/>
      <use xlink:href="#Arial-BoldMT-74" x="483.398438"/>
      <use xlink:href="#Arial-BoldMT-20" x="516.699219"/>
      <use xlink:href="#Arial-BoldMT-6f" x="544.482422"/>
      <use xlink:href="#Arial-BoldMT-66" x="605.566406"/>
      <use xlink:href="#Arial-BoldMT-20" x="638.867188"/>
      <use xlink:href="#Arial-BoldMT-76" x="666.650391"/>
      <use xlink:href="#Arial-BoldMT-61" x="722.265625"/>
      <use xlink:href="#Arial-BoldMT-72" x="777.880859"/>
      <use xlink:href="#Arial-BoldMT-69" x="816.796875"/>
      <use xlink:href="#Arial-BoldMT-61" x="844.580078"/>
      <use xlink:href="#Arial-BoldMT-74" x="900.195312"/>
      <use xlink:href="#Arial-BoldMT-69" x="933.496094"/>
      <use xlink:href="#Arial-BoldMT-6f" x="961.279297"/>
      <use xlink:href="#Arial-BoldMT-6e" x="1022.363281"/>
     </g>
    </g>
   </g>
   <g id="line2d_7">
    <path d="M 50.765067 85.243773 
L 93.057433 85.243773 
" clip-path="url(#p4e998cacb2)" style="fill: none; stroke-dasharray: 1.5625,0.9375; stroke-dashoffset: 0; stroke: #3f3f3f; stroke-width: 1.25"/>
   </g>
   <g id="line2d_8">
    <path d="M 50.885609 82.389346 
L 92.936891 82.389346 
" clip-path="url(#p4e998cacb2)" style="fill: none; stroke-dasharray: 3.125,1.25; stroke-dashoffset: 0; stroke: #3f3f3f; stroke-width: 1.25"/>
   </g>
   <g id="line2d_9">
    <path d="M 60.789065 77.82071 
L 83.033435 77.82071 
" clip-path="url(#p4e998cacb2)" style="fill: none; stroke-dasharray: 1.5625,0.9375; stroke-dashoffset: 0; stroke: #3f3f3f; stroke-width: 1.25"/>
   </g>
   <g id="line2d_10">
    <path d="M 106.541573 84.867475 
L 148.880927 84.867475 
" clip-path="url(#p4e998cacb2)" style="fill: none; stroke-dasharray: 1.5625,0.9375; stroke-dashoffset: 0; stroke: #3f3f3f; stroke-width: 1.25"/>
   </g>
   <g id="line2d_11">
    <path d="M 106.457815 81.518239 
L 148.964685 81.518239 
" clip-path="url(#p4e998cacb2)" style="fill: none; stroke-dasharray: 3.125,1.25; stroke-dashoffset: 0; stroke: #3f3f3f; stroke-width: 1.25"/>
   </g>
   <g id="line2d_12">
    <path d="M 116.524381 76.067799 
L 138.898119 76.067799 
" clip-path="url(#p4e998cacb2)" style="fill: none; stroke-dasharray: 1.5625,0.9375; stroke-dashoffset: 0; stroke: #3f3f3f; stroke-width: 1.25"/>
   </g>
   <g id="patch_3">
    <path d="M 44.01125 104.949375 
L 44.01125 21.789375 
" style="fill: none; stroke: #000000; stroke-linejoin: miter; stroke-linecap: square"/>
   </g>
   <g id="patch_4">
    <path d="M 155.61125 104.949375 
L 155.61125 21.789375 
" style="fill: none; stroke: #000000; stroke-linejoin: miter; stroke-linecap: square"/>
   </g>
   <g id="patch_5">
    <path d="M 44.01125 104.949375 
L 155.61125 104.949375 
" style="fill: none; stroke: #000000; stroke-linejoin: miter; stroke-linecap: square"/>
   </g>
   <g id="patch_6">
    <path d="M 44.01125 21.789375 
L 155.61125 21.789375 
" style="fill: none; stroke: #000000; stroke-linejoin: miter; stroke-linecap: square"/>
   </g>
   <g id="text_8">
    <!-- p=1.7e-10 -->
    <g style="fill: #ff0000" transform="translate(77.49125 38.421375) scale(0.1 -0.1)">
     <defs>
      <path id="ArialMT-70" d="M 422 -1272 
L 422 3319 
L 934 3319 
L 934 2888 
Q 1116 3141 1344 3267 
Q 1572 3394 1897 3394 
Q 2322 3394 2647 3175 
Q 2972 2956 3137 2557 
Q 3303 2159 3303 1684 
Q 3303 1175 3120 767 
Q 2938 359 2589 142 
Q 2241 -75 1856 -75 
Q 1575 -75 1351 44 
Q 1128 163 984 344 
L 984 -1272 
L 422 -1272 
z
M 931 1641 
Q 931 1000 1190 694 
Q 1450 388 1819 388 
Q 2194 388 2461 705 
Q 2728 1022 2728 1688 
Q 2728 2322 2467 2637 
Q 2206 2953 1844 2953 
Q 1484 2953 1207 2617 
Q 931 2281 931 1641 
z
" transform="scale(0.015625)"/>
      <path id="ArialMT-3d" d="M 3381 2694 
L 356 2694 
L 356 3219 
L 3381 3219 
L 3381 2694 
z
M 3381 1303 
L 356 1303 
L 356 1828 
L 3381 1828 
L 3381 1303 
z
" transform="scale(0.015625)"/>
      <path id="ArialMT-37" d="M 303 3981 
L 303 4522 
L 3269 4522 
L 3269 4084 
Q 2831 3619 2401 2847 
Q 1972 2075 1738 1259 
Q 1569 684 1522 0 
L 944 0 
Q 953 541 1156 1306 
Q 1359 2072 1739 2783 
Q 2119 3494 2547 3981 
L 303 3981 
z
" transform="scale(0.015625)"/>
      <path id="ArialMT-65" d="M 2694 1069 
L 3275 997 
Q 3138 488 2766 206 
Q 2394 -75 1816 -75 
Q 1088 -75 661 373 
Q 234 822 234 1631 
Q 234 2469 665 2931 
Q 1097 3394 1784 3394 
Q 2450 3394 2872 2941 
Q 3294 2488 3294 1666 
Q 3294 1616 3291 1516 
L 816 1516 
Q 847 969 1125 678 
Q 1403 388 1819 388 
Q 2128 388 2347 550 
Q 2566 713 2694 1069 
z
M 847 1978 
L 2700 1978 
Q 2663 2397 2488 2606 
Q 2219 2931 1791 2931 
Q 1403 2931 1139 2672 
Q 875 2413 847 1978 
z
" transform="scale(0.015625)"/>
      <path id="ArialMT-2d" d="M 203 1375 
L 203 1941 
L 1931 1941 
L 1931 1375 
L 203 1375 
z
" transform="scale(0.015625)"/>
     </defs>
     <use xlink:href="#ArialMT-70"/>
     <use xlink:href="#ArialMT-3d" x="55.615234"/>
     <use xlink:href="#ArialMT-31" x="114.013672"/>
     <use xlink:href="#ArialMT-2e" x="169.628906"/>
     <use xlink:href="#ArialMT-37" x="197.412109"/>
     <use xlink:href="#ArialMT-65" x="253.027344"/>
     <use xlink:href="#ArialMT-2d" x="308.642578"/>
     <use xlink:href="#ArialMT-31" x="341.943359"/>
     <use xlink:href="#ArialMT-30" x="397.558594"/>
    </g>
   </g>
   <g id="text_9">
    <!-- Transcription variation -->
    <g transform="translate(35.133125 15.789375) scale(0.12 -0.12)">
     <defs>
      <path id="Arial-BoldMT-54" d="M 1497 0 
L 1497 3806 
L 138 3806 
L 138 4581 
L 3778 4581 
L 3778 3806 
L 2422 3806 
L 2422 0 
L 1497 0 
z
" transform="scale(0.015625)"/>
      <path id="Arial-BoldMT-70" d="M 434 3319 
L 1253 3319 
L 1253 2831 
Q 1413 3081 1684 3237 
Q 1956 3394 2288 3394 
Q 2866 3394 3269 2941 
Q 3672 2488 3672 1678 
Q 3672 847 3265 386 
Q 2859 -75 2281 -75 
Q 2006 -75 1782 34 
Q 1559 144 1313 409 
L 1313 -1263 
L 434 -1263 
L 434 3319 
z
M 1303 1716 
Q 1303 1156 1525 889 
Q 1747 622 2066 622 
Q 2372 622 2575 867 
Q 2778 1113 2778 1672 
Q 2778 2194 2568 2447 
Q 2359 2700 2050 2700 
Q 1728 2700 1515 2451 
Q 1303 2203 1303 1716 
z
" transform="scale(0.015625)"/>
     </defs>
     <use xlink:href="#Arial-BoldMT-54"/>
     <use xlink:href="#Arial-BoldMT-72" x="55.583984"/>
     <use xlink:href="#Arial-BoldMT-61" x="94.5"/>
     <use xlink:href="#Arial-BoldMT-6e" x="150.115234"/>
     <use xlink:href="#Arial-BoldMT-73" x="211.199219"/>
     <use xlink:href="#Arial-BoldMT-63" x="266.814453"/>
     <use xlink:href="#Arial-BoldMT-72" x="322.429688"/>
     <use xlink:href="#Arial-BoldMT-69" x="361.345703"/>
     <use xlink:href="#Arial-BoldMT-70" x="389.128906"/>
     <use xlink:href="#Arial-BoldMT-74" x="450.212891"/>
     <use xlink:href="#Arial-BoldMT-69" x="483.513672"/>
     <use xlink:href="#Arial-BoldMT-6f" x="511.296875"/>
     <use xlink:href="#Arial-BoldMT-6e" x="572.380859"/>
     <use xlink:href="#Arial-BoldMT-20" x="633.464844"/>
     <use xlink:href="#Arial-BoldMT-76" x="661.248047"/>
     <use xlink:href="#Arial-BoldMT-61" x="716.863281"/>
     <use xlink:href="#Arial-BoldMT-72" x="772.478516"/>
     <use xlink:href="#Arial-BoldMT-69" x="811.394531"/>
     <use xlink:href="#Arial-BoldMT-61" x="839.177734"/>
     <use xlink:href="#Arial-BoldMT-74" x="894.792969"/>
     <use xlink:href="#Arial-BoldMT-69" x="928.09375"/>
     <use xlink:href="#Arial-BoldMT-6f" x="955.876953"/>
     <use xlink:href="#Arial-BoldMT-6e" x="1016.960938"/>
    </g>
   </g>
  </g>
 </g>
 <defs>
  <clipPath id="p4e998cacb2">
   <rect x="44.01125" y="21.789375" width="111.6" height="83.16"/>
  </clipPath>
 </defs>
</svg>
