<?xml version="1.0" encoding="utf-8" standalone="no"?>
<!DOCTYPE svg PUBLIC "-//W3C//DTD SVG 1.1//EN"
  "http://www.w3.org/Graphics/SVG/1.1/DTD/svg11.dtd">
<svg xmlns:xlink="http://www.w3.org/1999/xlink" width="307.699842pt" height="229.509474pt" viewBox="0 0 307.699842 229.509474" xmlns="http://www.w3.org/2000/svg" version="1.1">
 <metadata>
  <rdf:RDF xmlns:dc="http://purl.org/dc/elements/1.1/" xmlns:cc="http://creativecommons.org/ns#" xmlns:rdf="http://www.w3.org/1999/02/22-rdf-syntax-ns#">
   <cc:Work>
    <dc:type rdf:resource="http://purl.org/dc/dcmitype/StillImage"/>
    <dc:date>2024-12-09T16:03:09.188153</dc:date>
    <dc:format>image/svg+xml</dc:format>
    <dc:creator>
     <cc:Agent>
      <dc:title>Matplotlib v3.9.2, https://matplotlib.org/</dc:title>
     </cc:Agent>
    </dc:creator>
   </cc:Work>
  </rdf:RDF>
 </metadata>
 <defs>
  <style type="text/css">*{stroke-linejoin: round; stroke-linecap: butt}</style>
 </defs>
 <g id="figure_1">
  <g id="patch_1">
   <path d="M 0 229.509474 
L 307.699842 229.509474 
L 307.699842 0 
L 0 0 
L 0 229.509474 
z
" style="fill: none"/>
  </g>
  <g id="axes_1">
   <g id="patch_2">
    <path d="M 252.923937 125.557625 
C 252.923937 114.637154 250.772843 103.822871 246.593759 93.733671 
C 242.414676 83.644471 236.288877 74.476564 228.566937 66.754625 
C 220.844998 59.032686 211.677092 52.906886 201.587892 48.727803 
C 191.498692 44.54872 180.684409 42.397625 169.763937 42.397625 
C 158.843466 42.397625 148.029183 44.54872 137.939983 48.727803 
C 127.850783 52.906886 118.682877 59.032686 110.960938 66.754625 
C 103.238998 74.476564 97.113199 83.644471 92.934116 93.733671 
C 88.755032 103.822871 86.603938 114.637154 86.603938 125.557625 
C 86.603938 136.478096 88.755032 147.292379 92.934116 157.381579 
C 97.113199 167.470779 103.238998 176.638686 110.960938 184.360625 
C 118.682877 192.082564 127.850783 198.208364 137.939983 202.387447 
C 148.029183 206.56653 158.843466 208.717625 169.763937 208.717625 
C 180.684409 208.717625 191.498692 206.56653 201.587892 202.387447 
C 211.677092 198.208364 220.844998 192.082564 228.566937 184.360625 
C 236.288877 176.638686 242.414676 167.470779 246.593759 157.381579 
C 250.772843 147.292379 252.923937 136.478096 252.923937 125.557625 
M 169.763937 125.557625 
C 169.763937 125.557625 169.763937 125.557625 169.763937 125.557625 
C 169.763937 125.557625 169.763937 125.557625 169.763937 125.557625 
C 169.763937 125.557625 169.763937 125.557625 169.763937 125.557625 
C 169.763937 125.557625 169.763937 125.557625 169.763937 125.557625 
C 169.763937 125.557625 169.763937 125.557625 169.763937 125.557625 
C 169.763937 125.557625 169.763937 125.557625 169.763937 125.557625 
C 169.763937 125.557625 169.763937 125.557625 169.763937 125.557625 
C 169.763937 125.557625 169.763937 125.557625 169.763937 125.557625 
C 169.763937 125.557625 169.763937 125.557625 169.763937 125.557625 
C 169.763937 125.557625 169.763937 125.557625 169.763937 125.557625 
C 169.763937 125.557625 169.763937 125.557625 169.763937 125.557625 
C 169.763937 125.557625 169.763937 125.557625 169.763937 125.557625 
C 169.763937 125.557625 169.763937 125.557625 169.763937 125.557625 
C 169.763937 125.557625 169.763937 125.557625 169.763937 125.557625 
C 169.763937 125.557625 169.763937 125.557625 169.763937 125.557625 
C 169.763937 125.557625 169.763937 125.557625 169.763937 125.557625 
L 169.763937 125.557625 
z
" style="fill: none"/>
   </g>
   <g id="patch_3">
    <path d="M 169.763937 59.029625 
L 224.219251 107.864021 
L 209.284117 179.952485 
L 131.067095 178.819259 
L 145.428596 117.650593 
z
" clip-path="url(#p545609d0ed)" style="fill: #ff0000; opacity: 0.1"/>
   </g>
   <g id="patch_4">
    <path d="M 169.763937 63.671113 
L 220.329586 109.12785 
L 204.523206 173.399654 
L 131.613521 178.067169 
L 142.082487 116.563376 
z
" clip-path="url(#p545609d0ed)" style="fill: #0000ff; opacity: 0.1"/>
   </g>
   <g id="patch_5">
    <path d="M 169.763937 57.072919 
L 225.515806 107.442745 
L 215.385478 188.350288 
L 133.746932 175.13078 
L 149.991473 119.133162 
z
" clip-path="url(#p545609d0ed)" style="fill: #008000; opacity: 0.1"/>
   </g>
   <g id="matplotlib.axis_1">
    <g id="xtick_1">
     <g id="line2d_1">
      <path d="M 169.763937 125.557625 
L 169.763937 42.397625 
" clip-path="url(#p545609d0ed)" style="fill: none; stroke: #b0b0b0; stroke-width: 0.8; stroke-linecap: square"/>
     </g>
     <g id="text_1">
      <!-- F1 score -->
      <g transform="translate(149.199094 14.357813) scale(0.1 -0.1)">
       <defs>
        <path id="Arial-BoldMT-46" d="M 472 0 
L 472 4581 
L 3613 4581 
L 3613 3806 
L 1397 3806 
L 1397 2722 
L 3309 2722 
L 3309 1947 
L 1397 1947 
L 1397 0 
L 472 0 
z
" transform="scale(0.015625)"/>
        <path id="Arial-BoldMT-31" d="M 2519 0 
L 1641 0 
L 1641 3309 
Q 1159 2859 506 2644 
L 506 3441 
Q 850 3553 1253 3867 
Q 1656 4181 1806 4600 
L 2519 4600 
L 2519 0 
z
" transform="scale(0.015625)"/>
        <path id="Arial-BoldMT-20" transform="scale(0.015625)"/>
        <path id="Arial-BoldMT-73" d="M 150 947 
L 1031 1081 
Q 1088 825 1259 692 
Q 1431 559 1741 559 
Q 2081 559 2253 684 
Q 2369 772 2369 919 
Q 2369 1019 2306 1084 
Q 2241 1147 2013 1200 
Q 950 1434 666 1628 
Q 272 1897 272 2375 
Q 272 2806 612 3100 
Q 953 3394 1669 3394 
Q 2350 3394 2681 3172 
Q 3013 2950 3138 2516 
L 2309 2363 
Q 2256 2556 2107 2659 
Q 1959 2763 1684 2763 
Q 1338 2763 1188 2666 
Q 1088 2597 1088 2488 
Q 1088 2394 1175 2328 
Q 1294 2241 1995 2081 
Q 2697 1922 2975 1691 
Q 3250 1456 3250 1038 
Q 3250 581 2869 253 
Q 2488 -75 1741 -75 
Q 1063 -75 667 200 
Q 272 475 150 947 
z
" transform="scale(0.015625)"/>
        <path id="Arial-BoldMT-63" d="M 3353 2338 
L 2488 2181 
Q 2444 2441 2289 2572 
Q 2134 2703 1888 2703 
Q 1559 2703 1364 2476 
Q 1169 2250 1169 1719 
Q 1169 1128 1367 884 
Q 1566 641 1900 641 
Q 2150 641 2309 783 
Q 2469 925 2534 1272 
L 3397 1125 
Q 3263 531 2881 228 
Q 2500 -75 1859 -75 
Q 1131 -75 698 384 
Q 266 844 266 1656 
Q 266 2478 700 2936 
Q 1134 3394 1875 3394 
Q 2481 3394 2839 3133 
Q 3197 2872 3353 2338 
z
" transform="scale(0.015625)"/>
        <path id="Arial-BoldMT-6f" d="M 256 1706 
Q 256 2144 472 2553 
Q 688 2963 1083 3178 
Q 1478 3394 1966 3394 
Q 2719 3394 3200 2905 
Q 3681 2416 3681 1669 
Q 3681 916 3195 420 
Q 2709 -75 1972 -75 
Q 1516 -75 1102 131 
Q 688 338 472 736 
Q 256 1134 256 1706 
z
M 1156 1659 
Q 1156 1166 1390 903 
Q 1625 641 1969 641 
Q 2313 641 2545 903 
Q 2778 1166 2778 1666 
Q 2778 2153 2545 2415 
Q 2313 2678 1969 2678 
Q 1625 2678 1390 2415 
Q 1156 2153 1156 1659 
z
" transform="scale(0.015625)"/>
        <path id="Arial-BoldMT-72" d="M 1300 0 
L 422 0 
L 422 3319 
L 1238 3319 
L 1238 2847 
Q 1447 3181 1614 3287 
Q 1781 3394 1994 3394 
Q 2294 3394 2572 3228 
L 2300 2463 
Q 2078 2606 1888 2606 
Q 1703 2606 1575 2504 
Q 1447 2403 1373 2137 
Q 1300 1872 1300 1025 
L 1300 0 
z
" transform="scale(0.015625)"/>
        <path id="Arial-BoldMT-65" d="M 2381 1056 
L 3256 909 
Q 3088 428 2723 176 
Q 2359 -75 1813 -75 
Q 947 -75 531 491 
Q 203 944 203 1634 
Q 203 2459 634 2926 
Q 1066 3394 1725 3394 
Q 2466 3394 2894 2905 
Q 3322 2416 3303 1406 
L 1103 1406 
Q 1113 1016 1316 798 
Q 1519 581 1822 581 
Q 2028 581 2168 693 
Q 2309 806 2381 1056 
z
M 2431 1944 
Q 2422 2325 2234 2523 
Q 2047 2722 1778 2722 
Q 1491 2722 1303 2513 
Q 1116 2303 1119 1944 
L 2431 1944 
z
" transform="scale(0.015625)"/>
       </defs>
       <use xlink:href="#Arial-BoldMT-46"/>
       <use xlink:href="#Arial-BoldMT-31" x="61.083984"/>
       <use xlink:href="#Arial-BoldMT-20" x="116.699219"/>
       <use xlink:href="#Arial-BoldMT-73" x="144.482422"/>
       <use xlink:href="#Arial-BoldMT-63" x="200.097656"/>
       <use xlink:href="#Arial-BoldMT-6f" x="255.712891"/>
       <use xlink:href="#Arial-BoldMT-72" x="316.796875"/>
       <use xlink:href="#Arial-BoldMT-65" x="355.712891"/>
      </g>
     </g>
    </g>
    <g id="xtick_2">
     <g id="line2d_2">
      <path d="M 169.763937 125.557625 
L 248.853797 99.859772 
" clip-path="url(#p545609d0ed)" style="fill: none; stroke: #b0b0b0; stroke-width: 0.8; stroke-linecap: square"/>
     </g>
     <g id="text_2">
      <!-- Accuracy -->
      <g transform="translate(255.473279 92.920526) scale(0.1 -0.1)">
       <defs>
        <path id="Arial-BoldMT-41" d="M 4597 0 
L 3591 0 
L 3191 1041 
L 1359 1041 
L 981 0 
L 0 0 
L 1784 4581 
L 2763 4581 
L 4597 0 
z
M 2894 1813 
L 2263 3513 
L 1644 1813 
L 2894 1813 
z
" transform="scale(0.015625)"/>
        <path id="Arial-BoldMT-75" d="M 2644 0 
L 2644 497 
Q 2463 231 2167 78 
Q 1872 -75 1544 -75 
Q 1209 -75 943 72 
Q 678 219 559 484 
Q 441 750 441 1219 
L 441 3319 
L 1319 3319 
L 1319 1794 
Q 1319 1094 1367 936 
Q 1416 778 1544 686 
Q 1672 594 1869 594 
Q 2094 594 2272 717 
Q 2450 841 2515 1023 
Q 2581 1206 2581 1919 
L 2581 3319 
L 3459 3319 
L 3459 0 
L 2644 0 
z
" transform="scale(0.015625)"/>
        <path id="Arial-BoldMT-61" d="M 1116 2306 
L 319 2450 
Q 453 2931 781 3162 
Q 1109 3394 1756 3394 
Q 2344 3394 2631 3255 
Q 2919 3116 3036 2902 
Q 3153 2688 3153 2116 
L 3144 1091 
Q 3144 653 3186 445 
Q 3228 238 3344 0 
L 2475 0 
Q 2441 88 2391 259 
Q 2369 338 2359 363 
Q 2134 144 1878 34 
Q 1622 -75 1331 -75 
Q 819 -75 523 203 
Q 228 481 228 906 
Q 228 1188 362 1408 
Q 497 1628 739 1745 
Q 981 1863 1438 1950 
Q 2053 2066 2291 2166 
L 2291 2253 
Q 2291 2506 2166 2614 
Q 2041 2722 1694 2722 
Q 1459 2722 1328 2630 
Q 1197 2538 1116 2306 
z
M 2291 1594 
Q 2122 1538 1756 1459 
Q 1391 1381 1278 1306 
Q 1106 1184 1106 997 
Q 1106 813 1243 678 
Q 1381 544 1594 544 
Q 1831 544 2047 700 
Q 2206 819 2256 991 
Q 2291 1103 2291 1419 
L 2291 1594 
z
" transform="scale(0.015625)"/>
        <path id="Arial-BoldMT-79" d="M 44 3319 
L 978 3319 
L 1772 963 
L 2547 3319 
L 3456 3319 
L 2284 125 
L 2075 -453 
Q 1959 -744 1854 -897 
Q 1750 -1050 1614 -1145 
Q 1478 -1241 1279 -1294 
Q 1081 -1347 831 -1347 
Q 578 -1347 334 -1294 
L 256 -606 
Q 463 -647 628 -647 
Q 934 -647 1081 -467 
Q 1228 -288 1306 -9 
L 44 3319 
z
" transform="scale(0.015625)"/>
       </defs>
       <use xlink:href="#Arial-BoldMT-41"/>
       <use xlink:href="#Arial-BoldMT-63" x="72.216797"/>
       <use xlink:href="#Arial-BoldMT-63" x="127.832031"/>
       <use xlink:href="#Arial-BoldMT-75" x="183.447266"/>
       <use xlink:href="#Arial-BoldMT-72" x="244.53125"/>
       <use xlink:href="#Arial-BoldMT-61" x="283.447266"/>
       <use xlink:href="#Arial-BoldMT-63" x="339.0625"/>
       <use xlink:href="#Arial-BoldMT-79" x="394.677734"/>
      </g>
     </g>
    </g>
    <g id="xtick_3">
     <g id="line2d_3">
      <path d="M 169.763937 125.557625 
L 218.644159 192.835478 
" clip-path="url(#p545609d0ed)" style="fill: none; stroke: #b0b0b0; stroke-width: 0.8; stroke-linecap: square"/>
     </g>
     <g id="text_3">
      <!-- Precision -->
      <g transform="translate(214.140603 220.209474) scale(0.1 -0.1)">
       <defs>
        <path id="Arial-BoldMT-50" d="M 466 0 
L 466 4581 
L 1950 4581 
Q 2794 4581 3050 4513 
Q 3444 4409 3709 4064 
Q 3975 3719 3975 3172 
Q 3975 2750 3822 2462 
Q 3669 2175 3433 2011 
Q 3197 1847 2953 1794 
Q 2622 1728 1994 1728 
L 1391 1728 
L 1391 0 
L 466 0 
z
M 1391 3806 
L 1391 2506 
L 1897 2506 
Q 2444 2506 2628 2578 
Q 2813 2650 2917 2803 
Q 3022 2956 3022 3159 
Q 3022 3409 2875 3571 
Q 2728 3734 2503 3775 
Q 2338 3806 1838 3806 
L 1391 3806 
z
" transform="scale(0.015625)"/>
        <path id="Arial-BoldMT-69" d="M 459 3769 
L 459 4581 
L 1338 4581 
L 1338 3769 
L 459 3769 
z
M 459 0 
L 459 3319 
L 1338 3319 
L 1338 0 
L 459 0 
z
" transform="scale(0.015625)"/>
        <path id="Arial-BoldMT-6e" d="M 3478 0 
L 2600 0 
L 2600 1694 
Q 2600 2231 2544 2389 
Q 2488 2547 2361 2634 
Q 2234 2722 2056 2722 
Q 1828 2722 1647 2597 
Q 1466 2472 1398 2265 
Q 1331 2059 1331 1503 
L 1331 0 
L 453 0 
L 453 3319 
L 1269 3319 
L 1269 2831 
Q 1703 3394 2363 3394 
Q 2653 3394 2893 3289 
Q 3134 3184 3257 3021 
Q 3381 2859 3429 2653 
Q 3478 2447 3478 2063 
L 3478 0 
z
" transform="scale(0.015625)"/>
       </defs>
       <use xlink:href="#Arial-BoldMT-50"/>
       <use xlink:href="#Arial-BoldMT-72" x="66.699219"/>
       <use xlink:href="#Arial-BoldMT-65" x="105.615234"/>
       <use xlink:href="#Arial-BoldMT-63" x="161.230469"/>
       <use xlink:href="#Arial-BoldMT-69" x="216.845703"/>
       <use xlink:href="#Arial-BoldMT-73" x="244.628906"/>
       <use xlink:href="#Arial-BoldMT-69" x="300.244141"/>
       <use xlink:href="#Arial-BoldMT-6f" x="328.027344"/>
       <use xlink:href="#Arial-BoldMT-6e" x="389.111328"/>
      </g>
     </g>
    </g>
    <g id="xtick_4">
     <g id="line2d_4">
      <path d="M 169.763937 125.557625 
L 120.883716 192.835478 
" clip-path="url(#p545609d0ed)" style="fill: none; stroke: #b0b0b0; stroke-width: 0.8; stroke-linecap: square"/>
     </g>
     <g id="text_4">
      <!-- Sensitivity -->
      <g transform="translate(77.870866 220.204787) scale(0.1 -0.1)">
       <defs>
        <path id="Arial-BoldMT-53" d="M 231 1491 
L 1131 1578 
Q 1213 1125 1461 912 
Q 1709 700 2131 700 
Q 2578 700 2804 889 
Q 3031 1078 3031 1331 
Q 3031 1494 2936 1608 
Q 2841 1722 2603 1806 
Q 2441 1863 1863 2006 
Q 1119 2191 819 2459 
Q 397 2838 397 3381 
Q 397 3731 595 4036 
Q 794 4341 1167 4500 
Q 1541 4659 2069 4659 
Q 2931 4659 3367 4281 
Q 3803 3903 3825 3272 
L 2900 3231 
Q 2841 3584 2645 3739 
Q 2450 3894 2059 3894 
Q 1656 3894 1428 3728 
Q 1281 3622 1281 3444 
Q 1281 3281 1419 3166 
Q 1594 3019 2269 2859 
Q 2944 2700 3267 2529 
Q 3591 2359 3773 2064 
Q 3956 1769 3956 1334 
Q 3956 941 3737 597 
Q 3519 253 3119 86 
Q 2719 -81 2122 -81 
Q 1253 -81 787 320 
Q 322 722 231 1491 
z
" transform="scale(0.015625)"/>
        <path id="Arial-BoldMT-74" d="M 1981 3319 
L 1981 2619 
L 1381 2619 
L 1381 1281 
Q 1381 875 1398 808 
Q 1416 741 1477 697 
Q 1538 653 1625 653 
Q 1747 653 1978 738 
L 2053 56 
Q 1747 -75 1359 -75 
Q 1122 -75 931 4 
Q 741 84 652 211 
Q 563 338 528 553 
Q 500 706 500 1172 
L 500 2619 
L 97 2619 
L 97 3319 
L 500 3319 
L 500 3978 
L 1381 4491 
L 1381 3319 
L 1981 3319 
z
" transform="scale(0.015625)"/>
        <path id="Arial-BoldMT-76" d="M 1372 0 
L 34 3319 
L 956 3319 
L 1581 1625 
L 1763 1059 
Q 1834 1275 1853 1344 
Q 1897 1484 1947 1625 
L 2578 3319 
L 3481 3319 
L 2163 0 
L 1372 0 
z
" transform="scale(0.015625)"/>
       </defs>
       <use xlink:href="#Arial-BoldMT-53"/>
       <use xlink:href="#Arial-BoldMT-65" x="66.699219"/>
       <use xlink:href="#Arial-BoldMT-6e" x="122.314453"/>
       <use xlink:href="#Arial-BoldMT-73" x="183.398438"/>
       <use xlink:href="#Arial-BoldMT-69" x="239.013672"/>
       <use xlink:href="#Arial-BoldMT-74" x="266.796875"/>
       <use xlink:href="#Arial-BoldMT-69" x="300.097656"/>
       <use xlink:href="#Arial-BoldMT-76" x="327.880859"/>
       <use xlink:href="#Arial-BoldMT-69" x="383.496094"/>
       <use xlink:href="#Arial-BoldMT-74" x="411.279297"/>
       <use xlink:href="#Arial-BoldMT-79" x="444.580078"/>
      </g>
     </g>
    </g>
    <g id="xtick_5">
     <g id="line2d_5">
      <path d="M 169.763937 125.557625 
L 90.674078 99.859772 
" clip-path="url(#p545609d0ed)" style="fill: none; stroke: #b0b0b0; stroke-width: 0.8; stroke-linecap: square"/>
     </g>
     <g id="text_5">
      <!-- Specificity -->
      <g transform="translate(36.533502 92.981463) scale(0.1 -0.1)">
       <defs>
        <path id="Arial-BoldMT-70" d="M 434 3319 
L 1253 3319 
L 1253 2831 
Q 1413 3081 1684 3237 
Q 1956 3394 2288 3394 
Q 2866 3394 3269 2941 
Q 3672 2488 3672 1678 
Q 3672 847 3265 386 
Q 2859 -75 2281 -75 
Q 2006 -75 1782 34 
Q 1559 144 1313 409 
L 1313 -1263 
L 434 -1263 
L 434 3319 
z
M 1303 1716 
Q 1303 1156 1525 889 
Q 1747 622 2066 622 
Q 2372 622 2575 867 
Q 2778 1113 2778 1672 
Q 2778 2194 2568 2447 
Q 2359 2700 2050 2700 
Q 1728 2700 1515 2451 
Q 1303 2203 1303 1716 
z
" transform="scale(0.015625)"/>
        <path id="Arial-BoldMT-66" d="M 75 3319 
L 563 3319 
L 563 3569 
Q 563 3988 652 4194 
Q 741 4400 980 4529 
Q 1219 4659 1584 4659 
Q 1959 4659 2319 4547 
L 2200 3934 
Q 1991 3984 1797 3984 
Q 1606 3984 1523 3895 
Q 1441 3806 1441 3553 
L 1441 3319 
L 2097 3319 
L 2097 2628 
L 1441 2628 
L 1441 0 
L 563 0 
L 563 2628 
L 75 2628 
L 75 3319 
z
" transform="scale(0.015625)"/>
       </defs>
       <use xlink:href="#Arial-BoldMT-53"/>
       <use xlink:href="#Arial-BoldMT-70" x="66.699219"/>
       <use xlink:href="#Arial-BoldMT-65" x="127.783203"/>
       <use xlink:href="#Arial-BoldMT-63" x="183.398438"/>
       <use xlink:href="#Arial-BoldMT-69" x="239.013672"/>
       <use xlink:href="#Arial-BoldMT-66" x="266.796875"/>
       <use xlink:href="#Arial-BoldMT-69" x="300.097656"/>
       <use xlink:href="#Arial-BoldMT-63" x="327.880859"/>
       <use xlink:href="#Arial-BoldMT-69" x="383.496094"/>
       <use xlink:href="#Arial-BoldMT-74" x="411.279297"/>
       <use xlink:href="#Arial-BoldMT-79" x="444.580078"/>
      </g>
     </g>
    </g>
   </g>
   <g id="matplotlib.axis_2">
    <g id="ytick_1">
     <g id="line2d_6">
      <path d="M 169.763937 104.767625 
C 172.494055 104.767625 175.197626 105.305399 177.719926 106.35017 
C 180.242226 107.39494 182.534203 108.92639 184.464687 110.856875 
C 186.395172 112.78736 187.926622 115.079336 188.971393 117.601636 
C 190.016164 120.123936 190.553937 122.827507 190.553937 125.557625 
C 190.553937 128.287743 190.016164 130.991314 188.971393 133.513614 
C 187.926622 136.035914 186.395172 138.32789 184.464687 140.258375 
C 182.534203 142.18886 180.242226 143.72031 177.719926 144.76508 
C 175.197626 145.809851 172.494055 146.347625 169.763937 146.347625 
C 167.03382 146.347625 164.330249 145.809851 161.807949 144.76508 
C 159.285649 143.72031 156.993672 142.18886 155.063188 140.258375 
C 153.132703 138.32789 151.601253 136.035914 150.556482 133.513614 
C 149.511711 130.991314 148.973938 128.287743 148.973938 125.557625 
C 148.973938 122.827507 149.511711 120.123936 150.556482 117.601636 
C 151.601253 115.079336 153.132703 112.78736 155.063188 110.856875 
C 156.993672 108.92639 159.285649 107.39494 161.807949 106.35017 
C 164.330249 105.305399 167.03382 104.767625 169.763937 104.767625 
" clip-path="url(#p545609d0ed)" style="fill: none; stroke: #b0b0b0; stroke-width: 0.8; stroke-linecap: square"/>
     </g>
     <g id="text_6">
      <!-- 0.25 -->
      <g transform="translate(169.763937 102.780125) scale(0.1 -0.1)">
       <defs>
        <path id="ArialMT-30" d="M 266 2259 
Q 266 3072 433 3567 
Q 600 4063 929 4331 
Q 1259 4600 1759 4600 
Q 2128 4600 2406 4451 
Q 2684 4303 2865 4023 
Q 3047 3744 3150 3342 
Q 3253 2941 3253 2259 
Q 3253 1453 3087 958 
Q 2922 463 2592 192 
Q 2263 -78 1759 -78 
Q 1097 -78 719 397 
Q 266 969 266 2259 
z
M 844 2259 
Q 844 1131 1108 757 
Q 1372 384 1759 384 
Q 2147 384 2411 759 
Q 2675 1134 2675 2259 
Q 2675 3391 2411 3762 
Q 2147 4134 1753 4134 
Q 1366 4134 1134 3806 
Q 844 3388 844 2259 
z
" transform="scale(0.015625)"/>
        <path id="ArialMT-2e" d="M 581 0 
L 581 641 
L 1222 641 
L 1222 0 
L 581 0 
z
" transform="scale(0.015625)"/>
        <path id="ArialMT-32" d="M 3222 541 
L 3222 0 
L 194 0 
Q 188 203 259 391 
Q 375 700 629 1000 
Q 884 1300 1366 1694 
Q 2113 2306 2375 2664 
Q 2638 3022 2638 3341 
Q 2638 3675 2398 3904 
Q 2159 4134 1775 4134 
Q 1369 4134 1125 3890 
Q 881 3647 878 3216 
L 300 3275 
Q 359 3922 746 4261 
Q 1134 4600 1788 4600 
Q 2447 4600 2831 4234 
Q 3216 3869 3216 3328 
Q 3216 3053 3103 2787 
Q 2991 2522 2730 2228 
Q 2469 1934 1863 1422 
Q 1356 997 1212 845 
Q 1069 694 975 541 
L 3222 541 
z
" transform="scale(0.015625)"/>
        <path id="ArialMT-35" d="M 266 1200 
L 856 1250 
Q 922 819 1161 601 
Q 1400 384 1738 384 
Q 2144 384 2425 690 
Q 2706 997 2706 1503 
Q 2706 1984 2436 2262 
Q 2166 2541 1728 2541 
Q 1456 2541 1237 2417 
Q 1019 2294 894 2097 
L 366 2166 
L 809 4519 
L 3088 4519 
L 3088 3981 
L 1259 3981 
L 1013 2750 
Q 1425 3038 1878 3038 
Q 2478 3038 2890 2622 
Q 3303 2206 3303 1553 
Q 3303 931 2941 478 
Q 2500 -78 1738 -78 
Q 1113 -78 717 272 
Q 322 622 266 1200 
z
" transform="scale(0.015625)"/>
       </defs>
       <use xlink:href="#ArialMT-30"/>
       <use xlink:href="#ArialMT-2e" x="55.615234"/>
       <use xlink:href="#ArialMT-32" x="83.398438"/>
       <use xlink:href="#ArialMT-35" x="139.013672"/>
      </g>
     </g>
    </g>
    <g id="ytick_2">
     <g id="line2d_7">
      <path d="M 169.763937 83.977625 
C 175.224173 83.977625 180.631315 85.053172 185.675915 87.142714 
C 190.720515 89.232256 195.304468 92.295155 199.165437 96.156125 
C 203.026407 100.017095 206.089307 104.601048 208.178848 109.645648 
C 210.26839 114.690248 211.343937 120.097389 211.343937 125.557625 
C 211.343937 131.017861 210.26839 136.425002 208.178848 141.469602 
C 206.089307 146.514202 203.026407 151.098155 199.165437 154.959125 
C 195.304468 158.820095 190.720515 161.882994 185.675915 163.972536 
C 180.631315 166.062078 175.224173 167.137625 169.763937 167.137625 
C 164.303702 167.137625 158.89656 166.062078 153.85196 163.972536 
C 148.80736 161.882994 144.223407 158.820095 140.362438 154.959125 
C 136.501468 151.098155 133.438568 146.514202 131.349027 141.469602 
C 129.259485 136.425002 128.183938 131.017861 128.183938 125.557625 
C 128.183938 120.097389 129.259485 114.690248 131.349027 109.645648 
C 133.438568 104.601048 136.501468 100.017095 140.362438 96.156125 
C 144.223407 92.295155 148.80736 89.232256 153.85196 87.142714 
C 158.89656 85.053172 164.303702 83.977625 169.763937 83.977625 
" clip-path="url(#p545609d0ed)" style="fill: none; stroke: #b0b0b0; stroke-width: 0.8; stroke-linecap: square"/>
     </g>
     <g id="text_7">
      <!-- 0.50 -->
      <g transform="translate(169.763937 81.990125) scale(0.1 -0.1)">
       <use xlink:href="#ArialMT-30"/>
       <use xlink:href="#ArialMT-2e" x="55.615234"/>
       <use xlink:href="#ArialMT-35" x="83.398438"/>
       <use xlink:href="#ArialMT-30" x="139.013672"/>
      </g>
     </g>
    </g>
    <g id="ytick_3">
     <g id="line2d_8">
      <path d="M 169.763937 63.187625 
C 177.954291 63.187625 186.065003 64.800946 193.631903 67.935259 
C 201.198803 71.069571 208.074733 75.663921 213.866187 81.455375 
C 219.657642 87.246829 224.251991 94.122759 227.386304 101.689659 
C 230.520616 109.256559 232.133938 117.367272 232.133938 125.557625 
C 232.133938 133.747978 230.520616 141.858691 227.386304 149.425591 
C 224.251991 156.992491 219.657642 163.868421 213.866187 169.659875 
C 208.074733 175.451329 201.198803 180.045679 193.631903 183.179991 
C 186.065003 186.314304 177.954291 187.927625 169.763937 187.927625 
C 161.573584 187.927625 153.462872 186.314304 145.895972 183.179991 
C 138.329072 180.045679 131.453142 175.451329 125.661688 169.659875 
C 119.870233 163.868421 115.275884 156.992491 112.141571 149.425591 
C 109.007259 141.858691 107.393937 133.747978 107.393937 125.557625 
C 107.393937 117.367272 109.007259 109.256559 112.141571 101.689659 
C 115.275884 94.122759 119.870233 87.246829 125.661688 81.455375 
C 131.453142 75.663921 138.329072 71.069571 145.895972 67.935259 
C 153.462872 64.800946 161.573584 63.187625 169.763937 63.187625 
" clip-path="url(#p545609d0ed)" style="fill: none; stroke: #b0b0b0; stroke-width: 0.8; stroke-linecap: square"/>
     </g>
     <g id="text_8">
      <!-- 0.75 -->
      <g transform="translate(169.763937 61.200125) scale(0.1 -0.1)">
       <defs>
        <path id="ArialMT-37" d="M 303 3981 
L 303 4522 
L 3269 4522 
L 3269 4084 
Q 2831 3619 2401 2847 
Q 1972 2075 1738 1259 
Q 1569 684 1522 0 
L 944 0 
Q 953 541 1156 1306 
Q 1359 2072 1739 2783 
Q 2119 3494 2547 3981 
L 303 3981 
z
" transform="scale(0.015625)"/>
       </defs>
       <use xlink:href="#ArialMT-30"/>
       <use xlink:href="#ArialMT-2e" x="55.615234"/>
       <use xlink:href="#ArialMT-37" x="83.398438"/>
       <use xlink:href="#ArialMT-35" x="139.013672"/>
      </g>
     </g>
    </g>
    <g id="ytick_4">
     <g id="line2d_9">
      <path d="M 169.763937 42.397625 
C 180.684409 42.397625 191.498692 44.54872 201.587892 48.727803 
C 211.677092 52.906886 220.844998 59.032686 228.566937 66.754625 
C 236.288877 74.476564 242.414676 83.644471 246.593759 93.733671 
C 250.772843 103.822871 252.923937 114.637154 252.923937 125.557625 
C 252.923937 136.478096 250.772843 147.292379 246.593759 157.381579 
C 242.414676 167.470779 236.288877 176.638686 228.566937 184.360625 
C 220.844998 192.082564 211.677092 198.208364 201.587892 202.387447 
C 191.498692 206.56653 180.684409 208.717625 169.763937 208.717625 
C 158.843466 208.717625 148.029183 206.56653 137.939983 202.387447 
C 127.850783 198.208364 118.682877 192.082564 110.960938 184.360625 
C 103.238998 176.638686 97.113199 167.470779 92.934116 157.381579 
C 88.755032 147.292379 86.603938 136.478096 86.603938 125.557625 
C 86.603938 114.637154 88.755032 103.822871 92.934116 93.733671 
C 97.113199 83.644471 103.238998 74.476564 110.960938 66.754625 
C 118.682877 59.032686 127.850783 52.906886 137.939983 48.727803 
C 148.029183 44.54872 158.843466 42.397625 169.763937 42.397625 
" clip-path="url(#p545609d0ed)" style="fill: none; stroke: #b0b0b0; stroke-width: 0.8; stroke-linecap: square"/>
     </g>
     <g id="text_9">
      <!-- 1.00 -->
      <g transform="translate(169.763937 40.410125) scale(0.1 -0.1)">
       <defs>
        <path id="ArialMT-31" d="M 2384 0 
L 1822 0 
L 1822 3584 
Q 1619 3391 1289 3197 
Q 959 3003 697 2906 
L 697 3450 
Q 1169 3672 1522 3987 
Q 1875 4303 2022 4600 
L 2384 4600 
L 2384 0 
z
" transform="scale(0.015625)"/>
       </defs>
       <use xlink:href="#ArialMT-31"/>
       <use xlink:href="#ArialMT-2e" x="55.615234"/>
       <use xlink:href="#ArialMT-30" x="83.398438"/>
       <use xlink:href="#ArialMT-30" x="139.013672"/>
      </g>
     </g>
    </g>
   </g>
   <g id="line2d_10">
    <path d="M 169.763937 125.557625 
L 169.763937 42.397625 
" clip-path="url(#p545609d0ed)" style="fill: none; stroke: #808080; stroke-linecap: square"/>
   </g>
   <g id="line2d_11">
    <path d="M 169.763937 125.557625 
L 248.853797 99.859772 
" clip-path="url(#p545609d0ed)" style="fill: none; stroke: #808080; stroke-linecap: square"/>
   </g>
   <g id="line2d_12">
    <path d="M 169.763937 125.557625 
L 218.644159 192.835478 
" clip-path="url(#p545609d0ed)" style="fill: none; stroke: #808080; stroke-linecap: square"/>
   </g>
   <g id="line2d_13">
    <path d="M 169.763937 125.557625 
L 120.883716 192.835478 
" clip-path="url(#p545609d0ed)" style="fill: none; stroke: #808080; stroke-linecap: square"/>
   </g>
   <g id="line2d_14">
    <path d="M 169.763937 125.557625 
L 90.674078 99.859772 
" clip-path="url(#p545609d0ed)" style="fill: none; stroke: #808080; stroke-linecap: square"/>
   </g>
   <g id="line2d_15">
    <path d="M 169.763937 125.557625 
L 169.763937 42.397625 
" clip-path="url(#p545609d0ed)" style="fill: none; stroke: #808080; stroke-linecap: square"/>
   </g>
   <g id="line2d_16">
    <path d="M 169.763937 59.029625 
L 224.219251 107.864021 
L 209.284117 179.952485 
L 131.067095 178.819259 
L 145.428596 117.650593 
L 169.763937 59.029625 
" clip-path="url(#p545609d0ed)" style="fill: none; stroke: #1b9e77; stroke-width: 2; stroke-linecap: square"/>
   </g>
   <g id="line2d_17">
    <path d="M 169.763937 63.671113 
L 220.329586 109.12785 
L 204.523206 173.399654 
L 131.613521 178.067169 
L 142.082487 116.563376 
L 169.763937 63.671113 
" clip-path="url(#p545609d0ed)" style="fill: none; stroke: #d95f02; stroke-width: 2; stroke-linecap: square"/>
   </g>
   <g id="line2d_18">
    <path d="M 169.763937 57.072919 
L 225.515806 107.442745 
L 215.385478 188.350288 
L 133.746932 175.13078 
L 149.991473 119.133162 
L 169.763937 57.072919 
" clip-path="url(#p545609d0ed)" style="fill: none; stroke: #7570b3; stroke-width: 2; stroke-linecap: square"/>
   </g>
   <g id="patch_6">
    <path d="M 169.763937 42.397625 
C 158.843466 42.397625 148.029183 44.54872 137.939983 48.727803 
C 127.850783 52.906886 118.682877 59.032686 110.960938 66.754625 
C 103.238998 74.476564 97.113199 83.644471 92.934116 93.733671 
C 88.755032 103.822871 86.603938 114.637154 86.603938 125.557625 
C 86.603938 136.478096 88.755032 147.292379 92.934116 157.381579 
C 97.113199 167.470779 103.238998 176.638686 110.960938 184.360625 
C 118.682877 192.082564 127.850783 198.208364 137.939983 202.387447 
C 148.029183 206.56653 158.843466 208.717625 169.763937 208.717625 
C 180.684409 208.717625 191.498692 206.56653 201.587892 202.387447 
C 211.677092 198.208364 220.844998 192.082564 228.566937 184.360625 
C 236.288877 176.638686 242.414676 167.470779 246.593759 157.381579 
C 250.772843 147.292379 252.923937 136.478096 252.923937 125.557625 
C 252.923937 114.637154 250.772843 103.822871 246.593759 93.733671 
C 242.414676 83.644471 236.288877 74.476564 228.566937 66.754625 
C 220.844998 59.032686 211.677092 52.906886 201.587892 48.727803 
C 191.498692 44.54872 180.684409 42.397625 169.763937 42.397625 
" style="fill: none; stroke: #000000; stroke-width: 1.5; stroke-linejoin: miter; stroke-linecap: square"/>
   </g>
   <g id="legend_1">
    <g id="patch_7">
     <path d="M 9.2 76.201563 
L 96.235938 76.201563 
Q 98.235938 76.201563 98.235938 74.201563 
L 98.235938 32.765625 
Q 98.235938 30.765625 96.235938 30.765625 
L 9.2 30.765625 
Q 7.2 30.765625 7.2 32.765625 
L 7.2 74.201563 
Q 7.2 76.201563 9.2 76.201563 
z
" style="fill: #ffffff; opacity: 0.8; stroke: #cccccc; stroke-linejoin: miter"/>
    </g>
    <g id="line2d_19">
     <path d="M 11.2 38.423438 
L 21.2 38.423438 
L 31.2 38.423438 
" style="fill: none; stroke: #1b9e77; stroke-width: 2; stroke-linecap: square"/>
    </g>
    <g id="text_10">
     <!-- Yeast9 -->
     <g transform="translate(39.2 41.923438) scale(0.1 -0.1)">
      <defs>
       <path id="ArialMT-59" d="M 1784 0 
L 1784 1941 
L 19 4581 
L 756 4581 
L 1659 3200 
Q 1909 2813 2125 2425 
Q 2331 2784 2625 3234 
L 3513 4581 
L 4219 4581 
L 2391 1941 
L 2391 0 
L 1784 0 
z
" transform="scale(0.015625)"/>
       <path id="ArialMT-65" d="M 2694 1069 
L 3275 997 
Q 3138 488 2766 206 
Q 2394 -75 1816 -75 
Q 1088 -75 661 373 
Q 234 822 234 1631 
Q 234 2469 665 2931 
Q 1097 3394 1784 3394 
Q 2450 3394 2872 2941 
Q 3294 2488 3294 1666 
Q 3294 1616 3291 1516 
L 816 1516 
Q 847 969 1125 678 
Q 1403 388 1819 388 
Q 2128 388 2347 550 
Q 2566 713 2694 1069 
z
M 847 1978 
L 2700 1978 
Q 2663 2397 2488 2606 
Q 2219 2931 1791 2931 
Q 1403 2931 1139 2672 
Q 875 2413 847 1978 
z
" transform="scale(0.015625)"/>
       <path id="ArialMT-61" d="M 2588 409 
Q 2275 144 1986 34 
Q 1697 -75 1366 -75 
Q 819 -75 525 192 
Q 231 459 231 875 
Q 231 1119 342 1320 
Q 453 1522 633 1644 
Q 813 1766 1038 1828 
Q 1203 1872 1538 1913 
Q 2219 1994 2541 2106 
Q 2544 2222 2544 2253 
Q 2544 2597 2384 2738 
Q 2169 2928 1744 2928 
Q 1347 2928 1158 2789 
Q 969 2650 878 2297 
L 328 2372 
Q 403 2725 575 2942 
Q 747 3159 1072 3276 
Q 1397 3394 1825 3394 
Q 2250 3394 2515 3294 
Q 2781 3194 2906 3042 
Q 3031 2891 3081 2659 
Q 3109 2516 3109 2141 
L 3109 1391 
Q 3109 606 3145 398 
Q 3181 191 3288 0 
L 2700 0 
Q 2613 175 2588 409 
z
M 2541 1666 
Q 2234 1541 1622 1453 
Q 1275 1403 1131 1340 
Q 988 1278 909 1158 
Q 831 1038 831 891 
Q 831 666 1001 516 
Q 1172 366 1500 366 
Q 1825 366 2078 508 
Q 2331 650 2450 897 
Q 2541 1088 2541 1459 
L 2541 1666 
z
" transform="scale(0.015625)"/>
       <path id="ArialMT-73" d="M 197 991 
L 753 1078 
Q 800 744 1014 566 
Q 1228 388 1613 388 
Q 2000 388 2187 545 
Q 2375 703 2375 916 
Q 2375 1106 2209 1216 
Q 2094 1291 1634 1406 
Q 1016 1563 777 1677 
Q 538 1791 414 1992 
Q 291 2194 291 2438 
Q 291 2659 392 2848 
Q 494 3038 669 3163 
Q 800 3259 1026 3326 
Q 1253 3394 1513 3394 
Q 1903 3394 2198 3281 
Q 2494 3169 2634 2976 
Q 2775 2784 2828 2463 
L 2278 2388 
Q 2241 2644 2061 2787 
Q 1881 2931 1553 2931 
Q 1166 2931 1000 2803 
Q 834 2675 834 2503 
Q 834 2394 903 2306 
Q 972 2216 1119 2156 
Q 1203 2125 1616 2013 
Q 2213 1853 2448 1751 
Q 2684 1650 2818 1456 
Q 2953 1263 2953 975 
Q 2953 694 2789 445 
Q 2625 197 2315 61 
Q 2006 -75 1616 -75 
Q 969 -75 630 194 
Q 291 463 197 991 
z
" transform="scale(0.015625)"/>
       <path id="ArialMT-74" d="M 1650 503 
L 1731 6 
Q 1494 -44 1306 -44 
Q 1000 -44 831 53 
Q 663 150 594 308 
Q 525 466 525 972 
L 525 2881 
L 113 2881 
L 113 3319 
L 525 3319 
L 525 4141 
L 1084 4478 
L 1084 3319 
L 1650 3319 
L 1650 2881 
L 1084 2881 
L 1084 941 
Q 1084 700 1114 631 
Q 1144 563 1211 522 
Q 1278 481 1403 481 
Q 1497 481 1650 503 
z
" transform="scale(0.015625)"/>
       <path id="ArialMT-39" d="M 350 1059 
L 891 1109 
Q 959 728 1153 556 
Q 1347 384 1650 384 
Q 1909 384 2104 503 
Q 2300 622 2425 820 
Q 2550 1019 2634 1356 
Q 2719 1694 2719 2044 
Q 2719 2081 2716 2156 
Q 2547 1888 2255 1720 
Q 1963 1553 1622 1553 
Q 1053 1553 659 1965 
Q 266 2378 266 3053 
Q 266 3750 677 4175 
Q 1088 4600 1706 4600 
Q 2153 4600 2523 4359 
Q 2894 4119 3086 3673 
Q 3278 3228 3278 2384 
Q 3278 1506 3087 986 
Q 2897 466 2520 194 
Q 2144 -78 1638 -78 
Q 1100 -78 759 220 
Q 419 519 350 1059 
z
M 2653 3081 
Q 2653 3566 2395 3850 
Q 2138 4134 1775 4134 
Q 1400 4134 1122 3828 
Q 844 3522 844 3034 
Q 844 2597 1108 2323 
Q 1372 2050 1759 2050 
Q 2150 2050 2401 2323 
Q 2653 2597 2653 3081 
z
" transform="scale(0.015625)"/>
      </defs>
      <use xlink:href="#ArialMT-59"/>
      <use xlink:href="#ArialMT-65" x="57.574219"/>
      <use xlink:href="#ArialMT-61" x="113.189453"/>
      <use xlink:href="#ArialMT-73" x="168.804688"/>
      <use xlink:href="#ArialMT-74" x="218.804688"/>
      <use xlink:href="#ArialMT-39" x="246.587891"/>
     </g>
    </g>
    <g id="line2d_20">
     <path d="M 11.2 52.56875 
L 21.2 52.56875 
L 31.2 52.56875 
" style="fill: none; stroke: #d95f02; stroke-width: 2; stroke-linecap: square"/>
    </g>
    <g id="text_11">
     <!-- CEN.PK -->
     <g transform="translate(39.2 56.06875) scale(0.1 -0.1)">
      <defs>
       <path id="ArialMT-43" d="M 3763 1606 
L 4369 1453 
Q 4178 706 3683 314 
Q 3188 -78 2472 -78 
Q 1731 -78 1267 223 
Q 803 525 561 1097 
Q 319 1669 319 2325 
Q 319 3041 592 3573 
Q 866 4106 1370 4382 
Q 1875 4659 2481 4659 
Q 3169 4659 3637 4309 
Q 4106 3959 4291 3325 
L 3694 3184 
Q 3534 3684 3231 3912 
Q 2928 4141 2469 4141 
Q 1941 4141 1586 3887 
Q 1231 3634 1087 3207 
Q 944 2781 944 2328 
Q 944 1744 1114 1308 
Q 1284 872 1643 656 
Q 2003 441 2422 441 
Q 2931 441 3284 734 
Q 3638 1028 3763 1606 
z
" transform="scale(0.015625)"/>
       <path id="ArialMT-45" d="M 506 0 
L 506 4581 
L 3819 4581 
L 3819 4041 
L 1113 4041 
L 1113 2638 
L 3647 2638 
L 3647 2100 
L 1113 2100 
L 1113 541 
L 3925 541 
L 3925 0 
L 506 0 
z
" transform="scale(0.015625)"/>
       <path id="ArialMT-4e" d="M 488 0 
L 488 4581 
L 1109 4581 
L 3516 984 
L 3516 4581 
L 4097 4581 
L 4097 0 
L 3475 0 
L 1069 3600 
L 1069 0 
L 488 0 
z
" transform="scale(0.015625)"/>
       <path id="ArialMT-50" d="M 494 0 
L 494 4581 
L 2222 4581 
Q 2678 4581 2919 4538 
Q 3256 4481 3484 4323 
Q 3713 4166 3852 3881 
Q 3991 3597 3991 3256 
Q 3991 2672 3619 2267 
Q 3247 1863 2275 1863 
L 1100 1863 
L 1100 0 
L 494 0 
z
M 1100 2403 
L 2284 2403 
Q 2872 2403 3119 2622 
Q 3366 2841 3366 3238 
Q 3366 3525 3220 3729 
Q 3075 3934 2838 4000 
Q 2684 4041 2272 4041 
L 1100 4041 
L 1100 2403 
z
" transform="scale(0.015625)"/>
       <path id="ArialMT-4b" d="M 469 0 
L 469 4581 
L 1075 4581 
L 1075 2309 
L 3350 4581 
L 4172 4581 
L 2250 2725 
L 4256 0 
L 3456 0 
L 1825 2319 
L 1075 1588 
L 1075 0 
L 469 0 
z
" transform="scale(0.015625)"/>
      </defs>
      <use xlink:href="#ArialMT-43"/>
      <use xlink:href="#ArialMT-45" x="72.216797"/>
      <use xlink:href="#ArialMT-4e" x="138.916016"/>
      <use xlink:href="#ArialMT-2e" x="211.132812"/>
      <use xlink:href="#ArialMT-50" x="238.916016"/>
      <use xlink:href="#ArialMT-4b" x="305.615234"/>
     </g>
    </g>
    <g id="line2d_21">
     <path d="M 11.2 66.714063 
L 21.2 66.714063 
L 31.2 66.714063 
" style="fill: none; stroke: #7570b3; stroke-width: 2; stroke-linecap: square"/>
    </g>
    <g id="text_12">
     <!-- Ethanol Red -->
     <g transform="translate(39.2 70.214063) scale(0.1 -0.1)">
      <defs>
       <path id="ArialMT-68" d="M 422 0 
L 422 4581 
L 984 4581 
L 984 2938 
Q 1378 3394 1978 3394 
Q 2347 3394 2619 3248 
Q 2891 3103 3008 2847 
Q 3125 2591 3125 2103 
L 3125 0 
L 2563 0 
L 2563 2103 
Q 2563 2525 2380 2717 
Q 2197 2909 1863 2909 
Q 1613 2909 1392 2779 
Q 1172 2650 1078 2428 
Q 984 2206 984 1816 
L 984 0 
L 422 0 
z
" transform="scale(0.015625)"/>
       <path id="ArialMT-6e" d="M 422 0 
L 422 3319 
L 928 3319 
L 928 2847 
Q 1294 3394 1984 3394 
Q 2284 3394 2536 3286 
Q 2788 3178 2913 3003 
Q 3038 2828 3088 2588 
Q 3119 2431 3119 2041 
L 3119 0 
L 2556 0 
L 2556 2019 
Q 2556 2363 2490 2533 
Q 2425 2703 2258 2804 
Q 2091 2906 1866 2906 
Q 1506 2906 1245 2678 
Q 984 2450 984 1813 
L 984 0 
L 422 0 
z
" transform="scale(0.015625)"/>
       <path id="ArialMT-6f" d="M 213 1659 
Q 213 2581 725 3025 
Q 1153 3394 1769 3394 
Q 2453 3394 2887 2945 
Q 3322 2497 3322 1706 
Q 3322 1066 3130 698 
Q 2938 331 2570 128 
Q 2203 -75 1769 -75 
Q 1072 -75 642 372 
Q 213 819 213 1659 
z
M 791 1659 
Q 791 1022 1069 705 
Q 1347 388 1769 388 
Q 2188 388 2466 706 
Q 2744 1025 2744 1678 
Q 2744 2294 2464 2611 
Q 2184 2928 1769 2928 
Q 1347 2928 1069 2612 
Q 791 2297 791 1659 
z
" transform="scale(0.015625)"/>
       <path id="ArialMT-6c" d="M 409 0 
L 409 4581 
L 972 4581 
L 972 0 
L 409 0 
z
" transform="scale(0.015625)"/>
       <path id="ArialMT-20" transform="scale(0.015625)"/>
       <path id="ArialMT-52" d="M 503 0 
L 503 4581 
L 2534 4581 
Q 3147 4581 3465 4457 
Q 3784 4334 3975 4021 
Q 4166 3709 4166 3331 
Q 4166 2844 3850 2509 
Q 3534 2175 2875 2084 
Q 3116 1969 3241 1856 
Q 3506 1613 3744 1247 
L 4541 0 
L 3778 0 
L 3172 953 
Q 2906 1366 2734 1584 
Q 2563 1803 2427 1890 
Q 2291 1978 2150 2013 
Q 2047 2034 1813 2034 
L 1109 2034 
L 1109 0 
L 503 0 
z
M 1109 2559 
L 2413 2559 
Q 2828 2559 3062 2645 
Q 3297 2731 3419 2920 
Q 3541 3109 3541 3331 
Q 3541 3656 3305 3865 
Q 3069 4075 2559 4075 
L 1109 4075 
L 1109 2559 
z
" transform="scale(0.015625)"/>
       <path id="ArialMT-64" d="M 2575 0 
L 2575 419 
Q 2259 -75 1647 -75 
Q 1250 -75 917 144 
Q 584 363 401 755 
Q 219 1147 219 1656 
Q 219 2153 384 2558 
Q 550 2963 881 3178 
Q 1213 3394 1622 3394 
Q 1922 3394 2156 3267 
Q 2391 3141 2538 2938 
L 2538 4581 
L 3097 4581 
L 3097 0 
L 2575 0 
z
M 797 1656 
Q 797 1019 1065 703 
Q 1334 388 1700 388 
Q 2069 388 2326 689 
Q 2584 991 2584 1609 
Q 2584 2291 2321 2609 
Q 2059 2928 1675 2928 
Q 1300 2928 1048 2622 
Q 797 2316 797 1656 
z
" transform="scale(0.015625)"/>
      </defs>
      <use xlink:href="#ArialMT-45"/>
      <use xlink:href="#ArialMT-74" x="66.699219"/>
      <use xlink:href="#ArialMT-68" x="94.482422"/>
      <use xlink:href="#ArialMT-61" x="150.097656"/>
      <use xlink:href="#ArialMT-6e" x="205.712891"/>
      <use xlink:href="#ArialMT-6f" x="261.328125"/>
      <use xlink:href="#ArialMT-6c" x="316.943359"/>
      <use xlink:href="#ArialMT-20" x="339.160156"/>
      <use xlink:href="#ArialMT-52" x="366.943359"/>
      <use xlink:href="#ArialMT-65" x="439.160156"/>
      <use xlink:href="#ArialMT-64" x="494.775391"/>
     </g>
    </g>
   </g>
  </g>
 </g>
 <defs>
  <clipPath id="p545609d0ed">
   <path d="M 252.923937 125.557625 
C 252.923937 114.637154 250.772843 103.822871 246.593759 93.733671 
C 242.414676 83.644471 236.288877 74.476564 228.566937 66.754625 
C 220.844998 59.032686 211.677092 52.906886 201.587892 48.727803 
C 191.498692 44.54872 180.684409 42.397625 169.763937 42.397625 
C 158.843466 42.397625 148.029183 44.54872 137.939983 48.727803 
C 127.850783 52.906886 118.682877 59.032686 110.960938 66.754625 
C 103.238998 74.476564 97.113199 83.644471 92.934116 93.733671 
C 88.755032 103.822871 86.603938 114.637154 86.603938 125.557625 
C 86.603938 136.478096 88.755032 147.292379 92.934116 157.381579 
C 97.113199 167.470779 103.238998 176.638686 110.960938 184.360625 
C 118.682877 192.082564 127.850783 198.208364 137.939983 202.387447 
C 148.029183 206.56653 158.843466 208.717625 169.763937 208.717625 
C 180.684409 208.717625 191.498692 206.56653 201.587892 202.387447 
C 211.677092 198.208364 220.844998 192.082564 228.566937 184.360625 
C 236.288877 176.638686 242.414676 167.470779 246.593759 157.381579 
C 250.772843 147.292379 252.923937 136.478096 252.923937 125.557625 
M 169.763937 125.557625 
C 169.763937 125.557625 169.763937 125.557625 169.763937 125.557625 
C 169.763937 125.557625 169.763937 125.557625 169.763937 125.557625 
C 169.763937 125.557625 169.763937 125.557625 169.763937 125.557625 
C 169.763937 125.557625 169.763937 125.557625 169.763937 125.557625 
C 169.763937 125.557625 169.763937 125.557625 169.763937 125.557625 
C 169.763937 125.557625 169.763937 125.557625 169.763937 125.557625 
C 169.763937 125.557625 169.763937 125.557625 169.763937 125.557625 
C 169.763937 125.557625 169.763937 125.557625 169.763937 125.557625 
C 169.763937 125.557625 169.763937 125.557625 169.763937 125.557625 
C 169.763937 125.557625 169.763937 125.557625 169.763937 125.557625 
C 169.763937 125.557625 169.763937 125.557625 169.763937 125.557625 
C 169.763937 125.557625 169.763937 125.557625 169.763937 125.557625 
C 169.763937 125.557625 169.763937 125.557625 169.763937 125.557625 
C 169.763937 125.557625 169.763937 125.557625 169.763937 125.557625 
C 169.763937 125.557625 169.763937 125.557625 169.763937 125.557625 
C 169.763937 125.557625 169.763937 125.557625 169.763937 125.557625 
z
"/>
  </clipPath>
 </defs>
</svg>
