<?xml version="1.0" encoding="utf-8" standalone="no"?>
<!DOCTYPE svg PUBLIC "-//W3C//DTD SVG 1.1//EN"
  "http://www.w3.org/Graphics/SVG/1.1/DTD/svg11.dtd">
<svg xmlns:xlink="http://www.w3.org/1999/xlink" width="172.35125pt" height="143.515625pt" viewBox="0 0 172.35125 143.515625" xmlns="http://www.w3.org/2000/svg" version="1.1">
 <metadata>
  <rdf:RDF xmlns:dc="http://purl.org/dc/elements/1.1/" xmlns:cc="http://creativecommons.org/ns#" xmlns:rdf="http://www.w3.org/1999/02/22-rdf-syntax-ns#">
   <cc:Work>
    <dc:type rdf:resource="http://purl.org/dc/dcmitype/StillImage"/>
    <dc:date>2024-10-15T20:54:35.467419</dc:date>
    <dc:format>image/svg+xml</dc:format>
    <dc:creator>
     <cc:Agent>
      <dc:title>Matplotlib v3.8.4, https://matplotlib.org/</dc:title>
     </cc:Agent>
    </dc:creator>
   </cc:Work>
  </rdf:RDF>
 </metadata>
 <defs>
  <style type="text/css">*{stroke-linejoin: round; stroke-linecap: butt}</style>
 </defs>
 <g id="figure_1">
  <g id="patch_1">
   <path d="M 0 143.515625 
L 172.35125 143.515625 
L 172.35125 0 
L 0 0 
L 0 143.515625 
z
" style="fill: none"/>
  </g>
  <g id="axes_1">
   <g id="patch_2">
    <path d="M 44.01125 132.815625 
L 155.61125 132.815625 
L 155.61125 21.935625 
L 44.01125 21.935625 
L 44.01125 132.815625 
z
" style="fill: none"/>
   </g>
   <g id="PolyCollection_1">
    <defs>
     <path id="m868ff4d69d" d="M 75.891153 -17.222353 
L 67.931347 -17.222353 
L 67.863493 -17.796062 
L 68.002475 -18.36977 
L 68.217392 -18.943479 
L 68.380244 -19.517188 
L 68.419595 -20.090896 
L 68.334317 -20.664605 
L 68.169136 -21.238314 
L 67.975862 -21.812022 
L 67.784628 -22.385731 
L 67.594882 -22.95944 
L 67.381749 -23.533148 
L 67.108539 -24.106857 
L 66.738464 -24.680566 
L 66.242452 -25.254274 
L 65.602567 -25.827983 
L 64.812699 -26.401692 
L 63.879505 -26.975401 
L 62.825444 -27.549109 
L 61.692538 -28.122818 
L 60.543 -28.696527 
L 59.453374 -29.270235 
L 58.501526 -29.843944 
L 57.748806 -30.417653 
L 57.22226 -30.991361 
L 56.903489 -31.56507 
L 56.729937 -32.138779 
L 56.609839 -32.712487 
L 56.445687 -33.286196 
L 56.157324 -33.859905 
L 55.697144 -34.433613 
L 55.054725 -35.007322 
L 54.252925 -35.581031 
L 53.339693 -36.154739 
L 52.379796 -36.728448 
L 51.448972 -37.302157 
L 50.629924 -37.875865 
L 50.005984 -38.449574 
L 49.647529 -39.023283 
L 49.59125 -39.596992 
L 49.821163 -40.1707 
L 50.264777 -40.744409 
L 50.811723 -41.318118 
L 51.34848 -41.891826 
L 51.793191 -42.465535 
L 52.116937 -43.039244 
L 52.348336 -43.612952 
L 52.565351 -44.186661 
L 52.876399 -44.76037 
L 53.389552 -45.334078 
L 54.173522 -45.907787 
L 55.225384 -46.481496 
L 56.46424 -47.055204 
L 57.757952 -47.628913 
L 58.969225 -48.202622 
L 59.995784 -48.77633 
L 60.787089 -49.350039 
L 61.339087 -49.923748 
L 61.681507 -50.497456 
L 61.869765 -51.071165 
L 61.981111 -51.644874 
L 62.106271 -52.218583 
L 62.331179 -52.792291 
L 62.714258 -53.366 
L 63.27154 -53.939709 
L 63.978174 -54.513417 
L 64.784338 -55.087126 
L 65.635499 -55.660835 
L 66.486954 -56.234543 
L 67.308513 -56.808252 
L 68.081361 -57.381961 
L 68.791902 -57.955669 
L 69.427075 -58.529378 
L 69.973494 -59.103087 
L 70.420244 -59.676795 
L 70.762996 -60.250504 
L 71.006572 -60.824213 
L 71.164312 -61.397921 
L 71.254726 -61.97163 
L 71.297339 -62.545339 
L 71.309662 -63.119047 
L 71.306151 -63.692756 
L 71.298726 -64.266465 
L 71.297541 -64.840174 
L 71.310827 -65.413882 
L 71.343504 -65.987591 
L 71.395481 -66.5613 
L 71.461103 -67.135008 
L 71.530631 -67.708717 
L 71.5934 -68.282426 
L 71.641367 -68.856134 
L 71.671649 -69.429843 
L 71.687136 -70.003552 
L 71.694983 -70.57726 
L 71.703506 -71.150969 
L 71.718792 -71.724678 
L 71.742607 -72.298386 
L 71.772568 -72.872095 
L 71.80415 -73.445804 
L 71.83312 -74.019512 
L 71.98938 -74.019512 
L 71.98938 -74.019512 
L 72.01835 -73.445804 
L 72.049932 -72.872095 
L 72.079893 -72.298386 
L 72.103708 -71.724678 
L 72.118994 -71.150969 
L 72.127517 -70.57726 
L 72.135364 -70.003552 
L 72.150851 -69.429843 
L 72.181133 -68.856134 
L 72.2291 -68.282426 
L 72.291869 -67.708717 
L 72.361397 -67.135008 
L 72.427019 -66.5613 
L 72.478996 -65.987591 
L 72.511673 -65.413882 
L 72.524959 -64.840174 
L 72.523774 -64.266465 
L 72.516349 -63.692756 
L 72.512838 -63.119047 
L 72.525161 -62.545339 
L 72.567774 -61.97163 
L 72.658188 -61.397921 
L 72.815928 -60.824213 
L 73.059504 -60.250504 
L 73.402256 -59.676795 
L 73.849006 -59.103087 
L 74.395425 -58.529378 
L 75.030598 -57.955669 
L 75.741139 -57.381961 
L 76.513987 -56.808252 
L 77.335546 -56.234543 
L 78.187001 -55.660835 
L 79.038162 -55.087126 
L 79.844326 -54.513417 
L 80.55096 -53.939709 
L 81.108242 -53.366 
L 81.491321 -52.792291 
L 81.716229 -52.218583 
L 81.841389 -51.644874 
L 81.952735 -51.071165 
L 82.140993 -50.497456 
L 82.483413 -49.923748 
L 83.035411 -49.350039 
L 83.826716 -48.77633 
L 84.853275 -48.202622 
L 86.064548 -47.628913 
L 87.35826 -47.055204 
L 88.597116 -46.481496 
L 89.648978 -45.907787 
L 90.432948 -45.334078 
L 90.946101 -44.76037 
L 91.257149 -44.186661 
L 91.474164 -43.612952 
L 91.705563 -43.039244 
L 92.029309 -42.465535 
L 92.47402 -41.891826 
L 93.010777 -41.318118 
L 93.557723 -40.744409 
L 94.001337 -40.1707 
L 94.23125 -39.596992 
L 94.174971 -39.023283 
L 93.816516 -38.449574 
L 93.192576 -37.875865 
L 92.373528 -37.302157 
L 91.442704 -36.728448 
L 90.482807 -36.154739 
L 89.569575 -35.581031 
L 88.767775 -35.007322 
L 88.125356 -34.433613 
L 87.665176 -33.859905 
L 87.376813 -33.286196 
L 87.212661 -32.712487 
L 87.092563 -32.138779 
L 86.919011 -31.56507 
L 86.60024 -30.991361 
L 86.073694 -30.417653 
L 85.320974 -29.843944 
L 84.369126 -29.270235 
L 83.2795 -28.696527 
L 82.129962 -28.122818 
L 80.997056 -27.549109 
L 79.942995 -26.975401 
L 79.009801 -26.401692 
L 78.219933 -25.827983 
L 77.580048 -25.254274 
L 77.084036 -24.680566 
L 76.713961 -24.106857 
L 76.440751 -23.533148 
L 76.227618 -22.95944 
L 76.037872 -22.385731 
L 75.846638 -21.812022 
L 75.653364 -21.238314 
L 75.488183 -20.664605 
L 75.402905 -20.090896 
L 75.442256 -19.517188 
L 75.605108 -18.943479 
L 75.820025 -18.36977 
L 75.959007 -17.796062 
L 75.891153 -17.222353 
z
" style="stroke: #474747; stroke-width: 1.25"/>
    </defs>
    <g clip-path="url(#p05deb2b992)">
     <use xlink:href="#m868ff4d69d" x="0" y="143.515625" style="fill: #af4d3d; stroke: #474747; stroke-width: 1.25"/>
    </g>
   </g>
   <g id="PolyCollection_2">
    <path d="M 150.03125 126.293272 
L 105.39125 126.293272 
L 107.257157 123.779841 
L 112.800969 121.26641 
L 117.827808 118.752979 
L 120.11526 116.239548 
L 119.755858 113.726117 
L 117.626526 111.212686 
L 114.986357 108.699255 
L 113.470207 106.185824 
L 114.048856 103.672393 
L 116.13965 101.158962 
L 118.401299 98.645531 
L 120.067323 96.1321 
L 121.17417 93.618669 
L 122.031535 91.105238 
L 122.84444 88.591807 
L 123.637363 86.078376 
L 124.338025 83.564945 
L 124.903985 81.051514 
L 125.362463 78.538083 
L 125.749826 76.024652 
L 126.067725 73.511221 
L 126.308879 70.99779 
L 126.492525 68.484359 
L 126.659053 65.970928 
L 126.834997 63.457497 
L 127.010449 60.944066 
L 127.1556 58.430635 
L 127.252861 55.917204 
L 127.308432 53.403773 
L 127.343476 50.890342 
L 127.378543 48.376911 
L 127.419403 45.863479 
L 127.457761 43.350048 
L 127.487002 40.836617 
L 127.511713 38.323186 
L 127.541496 35.809755 
L 127.579007 33.296324 
L 127.614607 30.782893 
L 127.63546 28.269462 
L 127.639221 25.756031 
L 127.633188 23.2426 
L 127.622289 20.729169 
L 127.606473 18.215738 
L 127.590058 15.702307 
L 127.584056 13.188876 
L 127.595451 10.675445 
L 127.620636 8.162014 
L 127.650643 5.648583 
L 127.677335 3.135152 
L 127.695616 0.621721 
L 127.704172 -1.89171 
L 127.704154 -4.405141 
L 127.696831 -6.918572 
L 127.683796 -9.432003 
L 127.669126 -11.945434 
L 127.659633 -14.458865 
L 127.661219 -16.972296 
L 127.673596 -19.485727 
L 127.689662 -21.999158 
L 127.701842 -24.512589 
L 127.70753 -27.02602 
L 127.707759 -29.539451 
L 127.703804 -32.052882 
L 127.697264 -34.566313 
L 127.691558 -37.079744 
L 127.689596 -39.593175 
L 127.689119 -42.106606 
L 127.68396 -44.620037 
L 127.672222 -47.133468 
L 127.660668 -49.646899 
L 127.658341 -52.16033 
L 127.667467 -54.673761 
L 127.682559 -57.187192 
L 127.696421 -59.700623 
L 127.705179 -62.214054 
L 127.708666 -64.727485 
L 127.707547 -67.240916 
L 127.700816 -69.754347 
L 127.686984 -72.267778 
L 127.668474 -74.781209 
L 127.652912 -77.29464 
L 127.646871 -79.808071 
L 127.649739 -82.321502 
L 127.656709 -84.834933 
L 127.665352 -87.348364 
L 127.676153 -89.861795 
L 127.688508 -92.375226 
L 127.699468 -94.888657 
L 127.706553 -97.402088 
L 127.709842 -99.91552 
L 127.710937 -102.428951 
L 127.711191 -104.942382 
L 127.71118 -107.455813 
L 127.71088 -109.969244 
L 127.709698 -112.482675 
L 127.706507 -114.996106 
L 127.700718 -117.509537 
L 127.694252 -120.022968 
L 127.691311 -122.536399 
L 127.731189 -122.536399 
L 127.731189 -122.536399 
L 127.728248 -120.022968 
L 127.721782 -117.509537 
L 127.715993 -114.996106 
L 127.712802 -112.482675 
L 127.71162 -109.969244 
L 127.71132 -107.455813 
L 127.711309 -104.942382 
L 127.711563 -102.428951 
L 127.712658 -99.91552 
L 127.715947 -97.402088 
L 127.723032 -94.888657 
L 127.733992 -92.375226 
L 127.746347 -89.861795 
L 127.757148 -87.348364 
L 127.765791 -84.834933 
L 127.772761 -82.321502 
L 127.775629 -79.808071 
L 127.769588 -77.29464 
L 127.754026 -74.781209 
L 127.735516 -72.267778 
L 127.721684 -69.754347 
L 127.714953 -67.240916 
L 127.713834 -64.727485 
L 127.717321 -62.214054 
L 127.726079 -59.700623 
L 127.739941 -57.187192 
L 127.755033 -54.673761 
L 127.764159 -52.16033 
L 127.761832 -49.646899 
L 127.750278 -47.133468 
L 127.73854 -44.620037 
L 127.733381 -42.106606 
L 127.732904 -39.593175 
L 127.730942 -37.079744 
L 127.725236 -34.566313 
L 127.718696 -32.052882 
L 127.714741 -29.539451 
L 127.71497 -27.02602 
L 127.720658 -24.512589 
L 127.732838 -21.999158 
L 127.748904 -19.485727 
L 127.761281 -16.972296 
L 127.762867 -14.458865 
L 127.753374 -11.945434 
L 127.738704 -9.432003 
L 127.725669 -6.918572 
L 127.718346 -4.405141 
L 127.718328 -1.89171 
L 127.726884 0.621721 
L 127.745165 3.135152 
L 127.771857 5.648583 
L 127.801864 8.162014 
L 127.827049 10.675445 
L 127.838444 13.188876 
L 127.832442 15.702307 
L 127.816027 18.215738 
L 127.800211 20.729169 
L 127.789312 23.2426 
L 127.783279 25.756031 
L 127.78704 28.269462 
L 127.807893 30.782893 
L 127.843493 33.296324 
L 127.881004 35.809755 
L 127.910787 38.323186 
L 127.935498 40.836617 
L 127.964739 43.350048 
L 128.003097 45.863479 
L 128.043957 48.376911 
L 128.079024 50.890342 
L 128.114068 53.403773 
L 128.169639 55.917204 
L 128.2669 58.430635 
L 128.412051 60.944066 
L 128.587503 63.457497 
L 128.763447 65.970928 
L 128.929975 68.484359 
L 129.113621 70.99779 
L 129.354775 73.511221 
L 129.672674 76.024652 
L 130.060037 78.538083 
L 130.518515 81.051514 
L 131.084475 83.564945 
L 131.785137 86.078376 
L 132.57806 88.591807 
L 133.390965 91.105238 
L 134.24833 93.618669 
L 135.355177 96.1321 
L 137.021201 98.645531 
L 139.28285 101.158962 
L 141.373644 103.672393 
L 141.952293 106.185824 
L 140.436143 108.699255 
L 137.795974 111.212686 
L 135.666642 113.726117 
L 135.30724 116.239548 
L 137.594692 118.752979 
L 142.621531 121.26641 
L 148.165343 123.779841 
L 150.03125 126.293272 
z
" clip-path="url(#p05deb2b992)" style="fill: #b7b7b7; stroke: #474747; stroke-width: 1.25"/>
   </g>
   <g id="matplotlib.axis_1">
    <g id="xtick_1">
     <g id="line2d_1">
      <defs>
       <path id="m1015084afe" d="M 0 0 
L 0 3.5 
" style="stroke: #000000; stroke-width: 0.8"/>
      </defs>
      <g>
       <use xlink:href="#m1015084afe" x="71.91125" y="132.815625" style="stroke: #000000; stroke-width: 0.8"/>
      </g>
     </g>
    </g>
    <g id="xtick_2">
     <g id="line2d_2">
      <g>
       <use xlink:href="#m1015084afe" x="127.71125" y="132.815625" style="stroke: #000000; stroke-width: 0.8"/>
      </g>
     </g>
    </g>
   </g>
   <g id="matplotlib.axis_2">
    <g id="ytick_1">
     <g id="line2d_3">
      <defs>
       <path id="m9fe51241b8" d="M 0 0 
L -3.5 0 
" style="stroke: #000000; stroke-width: 0.8"/>
      </defs>
      <g>
       <use xlink:href="#m9fe51241b8" x="44.01125" y="126.293272" style="stroke: #000000; stroke-width: 0.8"/>
      </g>
     </g>
     <g id="text_1">
      <!-- 0.0 -->
      <g transform="translate(20.33125 130.58796) scale(0.12 -0.12)">
       <defs>
        <path id="ArialMT-30" d="M 266 2259 
Q 266 3072 433 3567 
Q 600 4063 929 4331 
Q 1259 4600 1759 4600 
Q 2128 4600 2406 4451 
Q 2684 4303 2865 4023 
Q 3047 3744 3150 3342 
Q 3253 2941 3253 2259 
Q 3253 1453 3087 958 
Q 2922 463 2592 192 
Q 2263 -78 1759 -78 
Q 1097 -78 719 397 
Q 266 969 266 2259 
z
M 844 2259 
Q 844 1131 1108 757 
Q 1372 384 1759 384 
Q 2147 384 2411 759 
Q 2675 1134 2675 2259 
Q 2675 3391 2411 3762 
Q 2147 4134 1753 4134 
Q 1366 4134 1134 3806 
Q 844 3388 844 2259 
z
" transform="scale(0.015625)"/>
        <path id="ArialMT-2e" d="M 581 0 
L 581 641 
L 1222 641 
L 1222 0 
L 581 0 
z
" transform="scale(0.015625)"/>
       </defs>
       <use xlink:href="#ArialMT-30"/>
       <use xlink:href="#ArialMT-2e" x="55.615234"/>
       <use xlink:href="#ArialMT-30" x="83.398438"/>
      </g>
     </g>
    </g>
    <g id="ytick_2">
     <g id="line2d_4">
      <g>
       <use xlink:href="#m9fe51241b8" x="44.01125" y="100.20386" style="stroke: #000000; stroke-width: 0.8"/>
      </g>
     </g>
     <g id="text_2">
      <!-- 0.2 -->
      <g transform="translate(20.33125 104.498548) scale(0.12 -0.12)">
       <defs>
        <path id="ArialMT-32" d="M 3222 541 
L 3222 0 
L 194 0 
Q 188 203 259 391 
Q 375 700 629 1000 
Q 884 1300 1366 1694 
Q 2113 2306 2375 2664 
Q 2638 3022 2638 3341 
Q 2638 3675 2398 3904 
Q 2159 4134 1775 4134 
Q 1369 4134 1125 3890 
Q 881 3647 878 3216 
L 300 3275 
Q 359 3922 746 4261 
Q 1134 4600 1788 4600 
Q 2447 4600 2831 4234 
Q 3216 3869 3216 3328 
Q 3216 3053 3103 2787 
Q 2991 2522 2730 2228 
Q 2469 1934 1863 1422 
Q 1356 997 1212 845 
Q 1069 694 975 541 
L 3222 541 
z
" transform="scale(0.015625)"/>
       </defs>
       <use xlink:href="#ArialMT-30"/>
       <use xlink:href="#ArialMT-2e" x="55.615234"/>
       <use xlink:href="#ArialMT-32" x="83.398438"/>
      </g>
     </g>
    </g>
    <g id="ytick_3">
     <g id="line2d_5">
      <g>
       <use xlink:href="#m9fe51241b8" x="44.01125" y="74.114449" style="stroke: #000000; stroke-width: 0.8"/>
      </g>
     </g>
     <g id="text_3">
      <!-- 0.4 -->
      <g transform="translate(20.33125 78.409136) scale(0.12 -0.12)">
       <defs>
        <path id="ArialMT-34" d="M 2069 0 
L 2069 1097 
L 81 1097 
L 81 1613 
L 2172 4581 
L 2631 4581 
L 2631 1613 
L 3250 1613 
L 3250 1097 
L 2631 1097 
L 2631 0 
L 2069 0 
z
M 2069 1613 
L 2069 3678 
L 634 1613 
L 2069 1613 
z
" transform="scale(0.015625)"/>
       </defs>
       <use xlink:href="#ArialMT-30"/>
       <use xlink:href="#ArialMT-2e" x="55.615234"/>
       <use xlink:href="#ArialMT-34" x="83.398438"/>
      </g>
     </g>
    </g>
    <g id="ytick_4">
     <g id="line2d_6">
      <g>
       <use xlink:href="#m9fe51241b8" x="44.01125" y="48.025037" style="stroke: #000000; stroke-width: 0.8"/>
      </g>
     </g>
     <g id="text_4">
      <!-- 0.6 -->
      <g transform="translate(20.33125 52.319724) scale(0.12 -0.12)">
       <defs>
        <path id="ArialMT-36" d="M 3184 3459 
L 2625 3416 
Q 2550 3747 2413 3897 
Q 2184 4138 1850 4138 
Q 1581 4138 1378 3988 
Q 1113 3794 959 3422 
Q 806 3050 800 2363 
Q 1003 2672 1297 2822 
Q 1591 2972 1913 2972 
Q 2475 2972 2870 2558 
Q 3266 2144 3266 1488 
Q 3266 1056 3080 686 
Q 2894 316 2569 119 
Q 2244 -78 1831 -78 
Q 1128 -78 684 439 
Q 241 956 241 2144 
Q 241 3472 731 4075 
Q 1159 4600 1884 4600 
Q 2425 4600 2770 4297 
Q 3116 3994 3184 3459 
z
M 888 1484 
Q 888 1194 1011 928 
Q 1134 663 1356 523 
Q 1578 384 1822 384 
Q 2178 384 2434 671 
Q 2691 959 2691 1453 
Q 2691 1928 2437 2201 
Q 2184 2475 1800 2475 
Q 1419 2475 1153 2201 
Q 888 1928 888 1484 
z
" transform="scale(0.015625)"/>
       </defs>
       <use xlink:href="#ArialMT-30"/>
       <use xlink:href="#ArialMT-2e" x="55.615234"/>
       <use xlink:href="#ArialMT-36" x="83.398438"/>
      </g>
     </g>
    </g>
    <g id="text_5">
     <!-- Coefficient of variation -->
     <g transform="translate(14.357813 131.543594) rotate(-90) scale(0.1 -0.1)">
      <defs>
       <path id="Arial-BoldMT-43" d="M 3397 1684 
L 4294 1400 
Q 4088 650 3608 286 
Q 3128 -78 2391 -78 
Q 1478 -78 890 545 
Q 303 1169 303 2250 
Q 303 3394 893 4026 
Q 1484 4659 2447 4659 
Q 3288 4659 3813 4163 
Q 4125 3869 4281 3319 
L 3366 3100 
Q 3284 3456 3026 3662 
Q 2769 3869 2400 3869 
Q 1891 3869 1573 3503 
Q 1256 3138 1256 2319 
Q 1256 1450 1568 1081 
Q 1881 713 2381 713 
Q 2750 713 3015 947 
Q 3281 1181 3397 1684 
z
" transform="scale(0.015625)"/>
       <path id="Arial-BoldMT-6f" d="M 256 1706 
Q 256 2144 472 2553 
Q 688 2963 1083 3178 
Q 1478 3394 1966 3394 
Q 2719 3394 3200 2905 
Q 3681 2416 3681 1669 
Q 3681 916 3195 420 
Q 2709 -75 1972 -75 
Q 1516 -75 1102 131 
Q 688 338 472 736 
Q 256 1134 256 1706 
z
M 1156 1659 
Q 1156 1166 1390 903 
Q 1625 641 1969 641 
Q 2313 641 2545 903 
Q 2778 1166 2778 1666 
Q 2778 2153 2545 2415 
Q 2313 2678 1969 2678 
Q 1625 2678 1390 2415 
Q 1156 2153 1156 1659 
z
" transform="scale(0.015625)"/>
       <path id="Arial-BoldMT-65" d="M 2381 1056 
L 3256 909 
Q 3088 428 2723 176 
Q 2359 -75 1813 -75 
Q 947 -75 531 491 
Q 203 944 203 1634 
Q 203 2459 634 2926 
Q 1066 3394 1725 3394 
Q 2466 3394 2894 2905 
Q 3322 2416 3303 1406 
L 1103 1406 
Q 1113 1016 1316 798 
Q 1519 581 1822 581 
Q 2028 581 2168 693 
Q 2309 806 2381 1056 
z
M 2431 1944 
Q 2422 2325 2234 2523 
Q 2047 2722 1778 2722 
Q 1491 2722 1303 2513 
Q 1116 2303 1119 1944 
L 2431 1944 
z
" transform="scale(0.015625)"/>
       <path id="Arial-BoldMT-66" d="M 75 3319 
L 563 3319 
L 563 3569 
Q 563 3988 652 4194 
Q 741 4400 980 4529 
Q 1219 4659 1584 4659 
Q 1959 4659 2319 4547 
L 2200 3934 
Q 1991 3984 1797 3984 
Q 1606 3984 1523 3895 
Q 1441 3806 1441 3553 
L 1441 3319 
L 2097 3319 
L 2097 2628 
L 1441 2628 
L 1441 0 
L 563 0 
L 563 2628 
L 75 2628 
L 75 3319 
z
" transform="scale(0.015625)"/>
       <path id="Arial-BoldMT-69" d="M 459 3769 
L 459 4581 
L 1338 4581 
L 1338 3769 
L 459 3769 
z
M 459 0 
L 459 3319 
L 1338 3319 
L 1338 0 
L 459 0 
z
" transform="scale(0.015625)"/>
       <path id="Arial-BoldMT-63" d="M 3353 2338 
L 2488 2181 
Q 2444 2441 2289 2572 
Q 2134 2703 1888 2703 
Q 1559 2703 1364 2476 
Q 1169 2250 1169 1719 
Q 1169 1128 1367 884 
Q 1566 641 1900 641 
Q 2150 641 2309 783 
Q 2469 925 2534 1272 
L 3397 1125 
Q 3263 531 2881 228 
Q 2500 -75 1859 -75 
Q 1131 -75 698 384 
Q 266 844 266 1656 
Q 266 2478 700 2936 
Q 1134 3394 1875 3394 
Q 2481 3394 2839 3133 
Q 3197 2872 3353 2338 
z
" transform="scale(0.015625)"/>
       <path id="Arial-BoldMT-6e" d="M 3478 0 
L 2600 0 
L 2600 1694 
Q 2600 2231 2544 2389 
Q 2488 2547 2361 2634 
Q 2234 2722 2056 2722 
Q 1828 2722 1647 2597 
Q 1466 2472 1398 2265 
Q 1331 2059 1331 1503 
L 1331 0 
L 453 0 
L 453 3319 
L 1269 3319 
L 1269 2831 
Q 1703 3394 2363 3394 
Q 2653 3394 2893 3289 
Q 3134 3184 3257 3021 
Q 3381 2859 3429 2653 
Q 3478 2447 3478 2063 
L 3478 0 
z
" transform="scale(0.015625)"/>
       <path id="Arial-BoldMT-74" d="M 1981 3319 
L 1981 2619 
L 1381 2619 
L 1381 1281 
Q 1381 875 1398 808 
Q 1416 741 1477 697 
Q 1538 653 1625 653 
Q 1747 653 1978 738 
L 2053 56 
Q 1747 -75 1359 -75 
Q 1122 -75 931 4 
Q 741 84 652 211 
Q 563 338 528 553 
Q 500 706 500 1172 
L 500 2619 
L 97 2619 
L 97 3319 
L 500 3319 
L 500 3978 
L 1381 4491 
L 1381 3319 
L 1981 3319 
z
" transform="scale(0.015625)"/>
       <path id="Arial-BoldMT-20" transform="scale(0.015625)"/>
       <path id="Arial-BoldMT-76" d="M 1372 0 
L 34 3319 
L 956 3319 
L 1581 1625 
L 1763 1059 
Q 1834 1275 1853 1344 
Q 1897 1484 1947 1625 
L 2578 3319 
L 3481 3319 
L 2163 0 
L 1372 0 
z
" transform="scale(0.015625)"/>
       <path id="Arial-BoldMT-61" d="M 1116 2306 
L 319 2450 
Q 453 2931 781 3162 
Q 1109 3394 1756 3394 
Q 2344 3394 2631 3255 
Q 2919 3116 3036 2902 
Q 3153 2688 3153 2116 
L 3144 1091 
Q 3144 653 3186 445 
Q 3228 238 3344 0 
L 2475 0 
Q 2441 88 2391 259 
Q 2369 338 2359 363 
Q 2134 144 1878 34 
Q 1622 -75 1331 -75 
Q 819 -75 523 203 
Q 228 481 228 906 
Q 228 1188 362 1408 
Q 497 1628 739 1745 
Q 981 1863 1438 1950 
Q 2053 2066 2291 2166 
L 2291 2253 
Q 2291 2506 2166 2614 
Q 2041 2722 1694 2722 
Q 1459 2722 1328 2630 
Q 1197 2538 1116 2306 
z
M 2291 1594 
Q 2122 1538 1756 1459 
Q 1391 1381 1278 1306 
Q 1106 1184 1106 997 
Q 1106 813 1243 678 
Q 1381 544 1594 544 
Q 1831 544 2047 700 
Q 2206 819 2256 991 
Q 2291 1103 2291 1419 
L 2291 1594 
z
" transform="scale(0.015625)"/>
       <path id="Arial-BoldMT-72" d="M 1300 0 
L 422 0 
L 422 3319 
L 1238 3319 
L 1238 2847 
Q 1447 3181 1614 3287 
Q 1781 3394 1994 3394 
Q 2294 3394 2572 3228 
L 2300 2463 
Q 2078 2606 1888 2606 
Q 1703 2606 1575 2504 
Q 1447 2403 1373 2137 
Q 1300 1872 1300 1025 
L 1300 0 
z
" transform="scale(0.015625)"/>
      </defs>
      <use xlink:href="#Arial-BoldMT-43"/>
      <use xlink:href="#Arial-BoldMT-6f" x="72.216797"/>
      <use xlink:href="#Arial-BoldMT-65" x="133.300781"/>
      <use xlink:href="#Arial-BoldMT-66" x="188.916016"/>
      <use xlink:href="#Arial-BoldMT-66" x="222.216797"/>
      <use xlink:href="#Arial-BoldMT-69" x="255.517578"/>
      <use xlink:href="#Arial-BoldMT-63" x="283.300781"/>
      <use xlink:href="#Arial-BoldMT-69" x="338.916016"/>
      <use xlink:href="#Arial-BoldMT-65" x="366.699219"/>
      <use xlink:href="#Arial-BoldMT-6e" x="422.314453"/>
      <use xlink:href="#Arial-BoldMT-74" x="483.398438"/>
      <use xlink:href="#Arial-BoldMT-20" x="516.699219"/>
      <use xlink:href="#Arial-BoldMT-6f" x="544.482422"/>
      <use xlink:href="#Arial-BoldMT-66" x="605.566406"/>
      <use xlink:href="#Arial-BoldMT-20" x="638.867188"/>
      <use xlink:href="#Arial-BoldMT-76" x="666.650391"/>
      <use xlink:href="#Arial-BoldMT-61" x="722.265625"/>
      <use xlink:href="#Arial-BoldMT-72" x="777.880859"/>
      <use xlink:href="#Arial-BoldMT-69" x="816.796875"/>
      <use xlink:href="#Arial-BoldMT-61" x="844.580078"/>
      <use xlink:href="#Arial-BoldMT-74" x="900.195312"/>
      <use xlink:href="#Arial-BoldMT-69" x="933.496094"/>
      <use xlink:href="#Arial-BoldMT-6f" x="961.279297"/>
      <use xlink:href="#Arial-BoldMT-6e" x="1022.363281"/>
     </g>
    </g>
   </g>
   <g id="line2d_7">
    <path d="M 56.599772 110.767952 
L 87.222728 110.767952 
" clip-path="url(#p05deb2b992)" style="fill: none; stroke-dasharray: 1.5625,0.9375; stroke-dashoffset: 0; stroke: #474747; stroke-width: 1.25"/>
   </g>
   <g id="line2d_8">
    <path d="M 49.595016 103.957024 
L 94.227484 103.957024 
" clip-path="url(#p05deb2b992)" style="fill: none; stroke-dasharray: 3.125,1.25; stroke-dashoffset: 0; stroke: #474747; stroke-width: 1.25"/>
   </g>
   <g id="line2d_9">
    <path d="M 54.127418 97.641577 
L 89.695082 97.641577 
" clip-path="url(#p05deb2b992)" style="fill: none; stroke-dasharray: 1.5625,0.9375; stroke-dashoffset: 0; stroke: #474747; stroke-width: 1.25"/>
   </g>
   <g id="line2d_10">
    <path d="M 105.39125 126.293272 
L 150.03125 126.293272 
" clip-path="url(#p05deb2b992)" style="fill: none; stroke-dasharray: 1.5625,0.9375; stroke-dashoffset: 0; stroke: #474747; stroke-width: 1.25"/>
   </g>
   <g id="line2d_11">
    <path d="M 116.869564 110.49206 
L 138.552936 110.49206 
" clip-path="url(#p05deb2b992)" style="fill: none; stroke-dasharray: 3.125,1.25; stroke-dashoffset: 0; stroke: #474747; stroke-width: 1.25"/>
   </g>
   <g id="line2d_12">
    <path d="M 116.501484 100.756846 
L 138.921016 100.756846 
" clip-path="url(#p05deb2b992)" style="fill: none; stroke-dasharray: 1.5625,0.9375; stroke-dashoffset: 0; stroke: #474747; stroke-width: 1.25"/>
   </g>
   <g id="patch_3">
    <path d="M 44.01125 132.815625 
L 44.01125 21.935625 
" style="fill: none; stroke: #000000; stroke-linejoin: miter; stroke-linecap: square"/>
   </g>
   <g id="patch_4">
    <path d="M 155.61125 132.815625 
L 155.61125 21.935625 
" style="fill: none; stroke: #000000; stroke-linejoin: miter; stroke-linecap: square"/>
   </g>
   <g id="patch_5">
    <path d="M 44.01125 132.815625 
L 155.61125 132.815625 
" style="fill: none; stroke: #000000; stroke-linejoin: miter; stroke-linecap: square"/>
   </g>
   <g id="patch_6">
    <path d="M 44.01125 21.935625 
L 155.61125 21.935625 
" style="fill: none; stroke: #000000; stroke-linejoin: miter; stroke-linecap: square"/>
   </g>
   <g id="text_6">
    <!-- p=2.1e-28 -->
    <g style="fill: #ff0000" transform="translate(77.49125 44.111625) scale(0.1 -0.1)">
     <defs>
      <path id="ArialMT-70" d="M 422 -1272 
L 422 3319 
L 934 3319 
L 934 2888 
Q 1116 3141 1344 3267 
Q 1572 3394 1897 3394 
Q 2322 3394 2647 3175 
Q 2972 2956 3137 2557 
Q 3303 2159 3303 1684 
Q 3303 1175 3120 767 
Q 2938 359 2589 142 
Q 2241 -75 1856 -75 
Q 1575 -75 1351 44 
Q 1128 163 984 344 
L 984 -1272 
L 422 -1272 
z
M 931 1641 
Q 931 1000 1190 694 
Q 1450 388 1819 388 
Q 2194 388 2461 705 
Q 2728 1022 2728 1688 
Q 2728 2322 2467 2637 
Q 2206 2953 1844 2953 
Q 1484 2953 1207 2617 
Q 931 2281 931 1641 
z
" transform="scale(0.015625)"/>
      <path id="ArialMT-3d" d="M 3381 2694 
L 356 2694 
L 356 3219 
L 3381 3219 
L 3381 2694 
z
M 3381 1303 
L 356 1303 
L 356 1828 
L 3381 1828 
L 3381 1303 
z
" transform="scale(0.015625)"/>
      <path id="ArialMT-31" d="M 2384 0 
L 1822 0 
L 1822 3584 
Q 1619 3391 1289 3197 
Q 959 3003 697 2906 
L 697 3450 
Q 1169 3672 1522 3987 
Q 1875 4303 2022 4600 
L 2384 4600 
L 2384 0 
z
" transform="scale(0.015625)"/>
      <path id="ArialMT-65" d="M 2694 1069 
L 3275 997 
Q 3138 488 2766 206 
Q 2394 -75 1816 -75 
Q 1088 -75 661 373 
Q 234 822 234 1631 
Q 234 2469 665 2931 
Q 1097 3394 1784 3394 
Q 2450 3394 2872 2941 
Q 3294 2488 3294 1666 
Q 3294 1616 3291 1516 
L 816 1516 
Q 847 969 1125 678 
Q 1403 388 1819 388 
Q 2128 388 2347 550 
Q 2566 713 2694 1069 
z
M 847 1978 
L 2700 1978 
Q 2663 2397 2488 2606 
Q 2219 2931 1791 2931 
Q 1403 2931 1139 2672 
Q 875 2413 847 1978 
z
" transform="scale(0.015625)"/>
      <path id="ArialMT-2d" d="M 203 1375 
L 203 1941 
L 1931 1941 
L 1931 1375 
L 203 1375 
z
" transform="scale(0.015625)"/>
      <path id="ArialMT-38" d="M 1131 2484 
Q 781 2613 612 2850 
Q 444 3088 444 3419 
Q 444 3919 803 4259 
Q 1163 4600 1759 4600 
Q 2359 4600 2725 4251 
Q 3091 3903 3091 3403 
Q 3091 3084 2923 2848 
Q 2756 2613 2416 2484 
Q 2838 2347 3058 2040 
Q 3278 1734 3278 1309 
Q 3278 722 2862 322 
Q 2447 -78 1769 -78 
Q 1091 -78 675 323 
Q 259 725 259 1325 
Q 259 1772 486 2073 
Q 713 2375 1131 2484 
z
M 1019 3438 
Q 1019 3113 1228 2906 
Q 1438 2700 1772 2700 
Q 2097 2700 2305 2904 
Q 2513 3109 2513 3406 
Q 2513 3716 2298 3927 
Q 2084 4138 1766 4138 
Q 1444 4138 1231 3931 
Q 1019 3725 1019 3438 
z
M 838 1322 
Q 838 1081 952 856 
Q 1066 631 1291 507 
Q 1516 384 1775 384 
Q 2178 384 2440 643 
Q 2703 903 2703 1303 
Q 2703 1709 2433 1975 
Q 2163 2241 1756 2241 
Q 1359 2241 1098 1978 
Q 838 1716 838 1322 
z
" transform="scale(0.015625)"/>
     </defs>
     <use xlink:href="#ArialMT-70"/>
     <use xlink:href="#ArialMT-3d" x="55.615234"/>
     <use xlink:href="#ArialMT-32" x="114.013672"/>
     <use xlink:href="#ArialMT-2e" x="169.628906"/>
     <use xlink:href="#ArialMT-31" x="197.412109"/>
     <use xlink:href="#ArialMT-65" x="253.027344"/>
     <use xlink:href="#ArialMT-2d" x="308.642578"/>
     <use xlink:href="#ArialMT-32" x="341.943359"/>
     <use xlink:href="#ArialMT-38" x="397.558594"/>
    </g>
   </g>
   <g id="text_7">
    <!-- Copy number variation -->
    <g transform="translate(34.47125 15.935625) scale(0.12 -0.12)">
     <defs>
      <path id="Arial-BoldMT-70" d="M 434 3319 
L 1253 3319 
L 1253 2831 
Q 1413 3081 1684 3237 
Q 1956 3394 2288 3394 
Q 2866 3394 3269 2941 
Q 3672 2488 3672 1678 
Q 3672 847 3265 386 
Q 2859 -75 2281 -75 
Q 2006 -75 1782 34 
Q 1559 144 1313 409 
L 1313 -1263 
L 434 -1263 
L 434 3319 
z
M 1303 1716 
Q 1303 1156 1525 889 
Q 1747 622 2066 622 
Q 2372 622 2575 867 
Q 2778 1113 2778 1672 
Q 2778 2194 2568 2447 
Q 2359 2700 2050 2700 
Q 1728 2700 1515 2451 
Q 1303 2203 1303 1716 
z
" transform="scale(0.015625)"/>
      <path id="Arial-BoldMT-79" d="M 44 3319 
L 978 3319 
L 1772 963 
L 2547 3319 
L 3456 3319 
L 2284 125 
L 2075 -453 
Q 1959 -744 1854 -897 
Q 1750 -1050 1614 -1145 
Q 1478 -1241 1279 -1294 
Q 1081 -1347 831 -1347 
Q 578 -1347 334 -1294 
L 256 -606 
Q 463 -647 628 -647 
Q 934 -647 1081 -467 
Q 1228 -288 1306 -9 
L 44 3319 
z
" transform="scale(0.015625)"/>
      <path id="Arial-BoldMT-75" d="M 2644 0 
L 2644 497 
Q 2463 231 2167 78 
Q 1872 -75 1544 -75 
Q 1209 -75 943 72 
Q 678 219 559 484 
Q 441 750 441 1219 
L 441 3319 
L 1319 3319 
L 1319 1794 
Q 1319 1094 1367 936 
Q 1416 778 1544 686 
Q 1672 594 1869 594 
Q 2094 594 2272 717 
Q 2450 841 2515 1023 
Q 2581 1206 2581 1919 
L 2581 3319 
L 3459 3319 
L 3459 0 
L 2644 0 
z
" transform="scale(0.015625)"/>
      <path id="Arial-BoldMT-6d" d="M 394 3319 
L 1203 3319 
L 1203 2866 
Q 1638 3394 2238 3394 
Q 2556 3394 2790 3262 
Q 3025 3131 3175 2866 
Q 3394 3131 3647 3262 
Q 3900 3394 4188 3394 
Q 4553 3394 4806 3245 
Q 5059 3097 5184 2809 
Q 5275 2597 5275 2122 
L 5275 0 
L 4397 0 
L 4397 1897 
Q 4397 2391 4306 2534 
Q 4184 2722 3931 2722 
Q 3747 2722 3584 2609 
Q 3422 2497 3350 2280 
Q 3278 2063 3278 1594 
L 3278 0 
L 2400 0 
L 2400 1819 
Q 2400 2303 2353 2443 
Q 2306 2584 2207 2653 
Q 2109 2722 1941 2722 
Q 1738 2722 1575 2612 
Q 1413 2503 1342 2297 
Q 1272 2091 1272 1613 
L 1272 0 
L 394 0 
L 394 3319 
z
" transform="scale(0.015625)"/>
      <path id="Arial-BoldMT-62" d="M 422 0 
L 422 4581 
L 1300 4581 
L 1300 2931 
Q 1706 3394 2263 3394 
Q 2869 3394 3266 2955 
Q 3663 2516 3663 1694 
Q 3663 844 3258 384 
Q 2853 -75 2275 -75 
Q 1991 -75 1714 67 
Q 1438 209 1238 488 
L 1238 0 
L 422 0 
z
M 1294 1731 
Q 1294 1216 1456 969 
Q 1684 619 2063 619 
Q 2353 619 2558 867 
Q 2763 1116 2763 1650 
Q 2763 2219 2556 2470 
Q 2350 2722 2028 2722 
Q 1713 2722 1503 2476 
Q 1294 2231 1294 1731 
z
" transform="scale(0.015625)"/>
     </defs>
     <use xlink:href="#Arial-BoldMT-43"/>
     <use xlink:href="#Arial-BoldMT-6f" x="72.216797"/>
     <use xlink:href="#Arial-BoldMT-70" x="133.300781"/>
     <use xlink:href="#Arial-BoldMT-79" x="194.384766"/>
     <use xlink:href="#Arial-BoldMT-20" x="250"/>
     <use xlink:href="#Arial-BoldMT-6e" x="277.783203"/>
     <use xlink:href="#Arial-BoldMT-75" x="338.867188"/>
     <use xlink:href="#Arial-BoldMT-6d" x="399.951172"/>
     <use xlink:href="#Arial-BoldMT-62" x="488.867188"/>
     <use xlink:href="#Arial-BoldMT-65" x="549.951172"/>
     <use xlink:href="#Arial-BoldMT-72" x="605.566406"/>
     <use xlink:href="#Arial-BoldMT-20" x="644.482422"/>
     <use xlink:href="#Arial-BoldMT-76" x="672.265625"/>
     <use xlink:href="#Arial-BoldMT-61" x="727.880859"/>
     <use xlink:href="#Arial-BoldMT-72" x="783.496094"/>
     <use xlink:href="#Arial-BoldMT-69" x="822.412109"/>
     <use xlink:href="#Arial-BoldMT-61" x="850.195312"/>
     <use xlink:href="#Arial-BoldMT-74" x="905.810547"/>
     <use xlink:href="#Arial-BoldMT-69" x="939.111328"/>
     <use xlink:href="#Arial-BoldMT-6f" x="966.894531"/>
     <use xlink:href="#Arial-BoldMT-6e" x="1027.978516"/>
    </g>
   </g>
  </g>
 </g>
 <defs>
  <clipPath id="p05deb2b992">
   <rect x="44.01125" y="21.935625" width="111.6" height="110.88"/>
  </clipPath>
 </defs>
</svg>
