<?xml version="1.0" encoding="utf-8" standalone="no"?>
<!DOCTYPE svg PUBLIC "-//W3C//DTD SVG 1.1//EN"
  "http://www.w3.org/Graphics/SVG/1.1/DTD/svg11.dtd">
<svg xmlns:xlink="http://www.w3.org/1999/xlink" width="507.68pt" height="178.80575pt" viewBox="0 0 507.68 178.80575" xmlns="http://www.w3.org/2000/svg" version="1.1">
 <metadata>
  <rdf:RDF xmlns:dc="http://purl.org/dc/elements/1.1/" xmlns:cc="http://creativecommons.org/ns#" xmlns:rdf="http://www.w3.org/1999/02/22-rdf-syntax-ns#">
   <cc:Work>
    <dc:type rdf:resource="http://purl.org/dc/dcmitype/StillImage"/>
    <dc:date>2024-12-09T09:05:05.651704</dc:date>
    <dc:format>image/svg+xml</dc:format>
    <dc:creator>
     <cc:Agent>
      <dc:title>Matplotlib v3.9.2, https://matplotlib.org/</dc:title>
     </cc:Agent>
    </dc:creator>
   </cc:Work>
  </rdf:RDF>
 </metadata>
 <defs>
  <style type="text/css">*{stroke-linejoin: round; stroke-linecap: butt}</style>
 </defs>
 <g id="figure_1">
  <g id="patch_1">
   <path d="M -0 178.80575 
L 507.68 178.80575 
L 507.68 -0 
L -0 -0 
L -0 178.80575 
z
" style="fill: none"/>
  </g>
  <g id="axes_1">
   <g id="patch_2">
    <path d="M 383.3 134.712 
L 500.48 134.712 
L 500.48 7.2 
L 383.3 7.2 
L 383.3 134.712 
z
" style="fill: none"/>
   </g>
   <g id="patch_3">
    <path d="M 383.3 130.158 
L 445.986016 130.158 
L 445.986016 121.05 
L 383.3 121.05 
z
" clip-path="url(#p0877a79295)" style="fill: #87cefa; opacity: 0.75"/>
   </g>
   <g id="patch_4">
    <path d="M 383.3 111.942 
L 446.977609 111.942 
L 446.977609 102.834 
L 383.3 102.834 
z
" clip-path="url(#p0877a79295)" style="fill: #87cefa; opacity: 0.75"/>
   </g>
   <g id="patch_5">
    <path d="M 383.3 93.726 
L 457.712253 93.726 
L 457.712253 84.618 
L 383.3 84.618 
z
" clip-path="url(#p0877a79295)" style="fill: #87cefa; opacity: 0.75"/>
   </g>
   <g id="patch_6">
    <path d="M 383.3 75.51 
L 460.455864 75.51 
L 460.455864 66.402 
L 383.3 66.402 
z
" clip-path="url(#p0877a79295)" style="fill: #87cefa; opacity: 0.75"/>
   </g>
   <g id="patch_7">
    <path d="M 383.3 57.294 
L 467.359724 57.294 
L 467.359724 48.186 
L 383.3 48.186 
z
" clip-path="url(#p0877a79295)" style="fill: #87cefa; opacity: 0.75"/>
   </g>
   <g id="patch_8">
    <path d="M 383.3 39.078 
L 494.9 39.078 
L 494.9 29.97 
L 383.3 29.97 
z
" clip-path="url(#p0877a79295)" style="fill: #87cefa; opacity: 0.75"/>
   </g>
   <g id="patch_9">
    <path d="M 383.3 20.862 
L 494.9 20.862 
L 494.9 11.754 
L 383.3 11.754 
z
" clip-path="url(#p0877a79295)" style="fill: #87cefa; opacity: 0.75"/>
   </g>
   <g id="matplotlib.axis_1">
    <g id="xtick_1">
     <g id="line2d_1">
      <defs>
       <path id="md818f9f76e" d="M 0 0 
L 0 3.5 
" style="stroke: #000000; stroke-width: 0.8"/>
      </defs>
      <g>
       <use xlink:href="#md818f9f76e" x="383.3" y="134.712" style="stroke: #000000; stroke-width: 0.8"/>
      </g>
     </g>
     <g id="text_1">
      <!-- 0 -->
      <g transform="translate(378.85125 153.1645) scale(0.16 -0.16)">
       <defs>
        <path id="ArialMT-30" d="M 266 2259 
Q 266 3072 433 3567 
Q 600 4063 929 4331 
Q 1259 4600 1759 4600 
Q 2128 4600 2406 4451 
Q 2684 4303 2865 4023 
Q 3047 3744 3150 3342 
Q 3253 2941 3253 2259 
Q 3253 1453 3087 958 
Q 2922 463 2592 192 
Q 2263 -78 1759 -78 
Q 1097 -78 719 397 
Q 266 969 266 2259 
z
M 844 2259 
Q 844 1131 1108 757 
Q 1372 384 1759 384 
Q 2147 384 2411 759 
Q 2675 1134 2675 2259 
Q 2675 3391 2411 3762 
Q 2147 4134 1753 4134 
Q 1366 4134 1134 3806 
Q 844 3388 844 2259 
z
" transform="scale(0.015625)"/>
       </defs>
       <use xlink:href="#ArialMT-30"/>
      </g>
     </g>
    </g>
    <g id="xtick_2">
     <g id="line2d_2">
      <g>
       <use xlink:href="#md818f9f76e" x="430.4597" y="134.712" style="stroke: #000000; stroke-width: 0.8"/>
      </g>
     </g>
     <g id="text_2">
      <!-- 1 -->
      <g transform="translate(426.01095 153.1645) scale(0.16 -0.16)">
       <defs>
        <path id="ArialMT-31" d="M 2384 0 
L 1822 0 
L 1822 3584 
Q 1619 3391 1289 3197 
Q 959 3003 697 2906 
L 697 3450 
Q 1169 3672 1522 3987 
Q 1875 4303 2022 4600 
L 2384 4600 
L 2384 0 
z
" transform="scale(0.015625)"/>
       </defs>
       <use xlink:href="#ArialMT-31"/>
      </g>
     </g>
    </g>
    <g id="xtick_3">
     <g id="line2d_3">
      <g>
       <use xlink:href="#md818f9f76e" x="477.6194" y="134.712" style="stroke: #000000; stroke-width: 0.8"/>
      </g>
     </g>
     <g id="text_3">
      <!-- 2 -->
      <g transform="translate(473.17065 153.1645) scale(0.16 -0.16)">
       <defs>
        <path id="ArialMT-32" d="M 3222 541 
L 3222 0 
L 194 0 
Q 188 203 259 391 
Q 375 700 629 1000 
Q 884 1300 1366 1694 
Q 2113 2306 2375 2664 
Q 2638 3022 2638 3341 
Q 2638 3675 2398 3904 
Q 2159 4134 1775 4134 
Q 1369 4134 1125 3890 
Q 881 3647 878 3216 
L 300 3275 
Q 359 3922 746 4261 
Q 1134 4600 1788 4600 
Q 2447 4600 2831 4234 
Q 3216 3869 3216 3328 
Q 3216 3053 3103 2787 
Q 2991 2522 2730 2228 
Q 2469 1934 1863 1422 
Q 1356 997 1212 845 
Q 1069 694 975 541 
L 3222 541 
z
" transform="scale(0.015625)"/>
       </defs>
       <use xlink:href="#ArialMT-32"/>
      </g>
     </g>
    </g>
    <g id="text_4">
     <!-- -log(Adjusted P-value) -->
     <g transform="translate(378.227188 169.080125) scale(0.12 -0.12)">
      <defs>
       <path id="Arial-BoldMT-2d" d="M 359 1222 
L 359 2100 
L 2084 2100 
L 2084 1222 
L 359 1222 
z
" transform="scale(0.015625)"/>
       <path id="Arial-BoldMT-6c" d="M 459 0 
L 459 4581 
L 1338 4581 
L 1338 0 
L 459 0 
z
" transform="scale(0.015625)"/>
       <path id="Arial-BoldMT-6f" d="M 256 1706 
Q 256 2144 472 2553 
Q 688 2963 1083 3178 
Q 1478 3394 1966 3394 
Q 2719 3394 3200 2905 
Q 3681 2416 3681 1669 
Q 3681 916 3195 420 
Q 2709 -75 1972 -75 
Q 1516 -75 1102 131 
Q 688 338 472 736 
Q 256 1134 256 1706 
z
M 1156 1659 
Q 1156 1166 1390 903 
Q 1625 641 1969 641 
Q 2313 641 2545 903 
Q 2778 1166 2778 1666 
Q 2778 2153 2545 2415 
Q 2313 2678 1969 2678 
Q 1625 2678 1390 2415 
Q 1156 2153 1156 1659 
z
" transform="scale(0.015625)"/>
       <path id="Arial-BoldMT-67" d="M 378 -219 
L 1381 -341 
Q 1406 -516 1497 -581 
Q 1622 -675 1891 -675 
Q 2234 -675 2406 -572 
Q 2522 -503 2581 -350 
Q 2622 -241 2622 53 
L 2622 538 
Q 2228 0 1628 0 
Q 959 0 569 566 
Q 263 1013 263 1678 
Q 263 2513 664 2953 
Q 1066 3394 1663 3394 
Q 2278 3394 2678 2853 
L 2678 3319 
L 3500 3319 
L 3500 341 
Q 3500 -247 3403 -537 
Q 3306 -828 3131 -993 
Q 2956 -1159 2664 -1253 
Q 2372 -1347 1925 -1347 
Q 1081 -1347 728 -1058 
Q 375 -769 375 -325 
Q 375 -281 378 -219 
z
M 1163 1728 
Q 1163 1200 1367 954 
Q 1572 709 1872 709 
Q 2194 709 2416 961 
Q 2638 1213 2638 1706 
Q 2638 2222 2425 2472 
Q 2213 2722 1888 2722 
Q 1572 2722 1367 2476 
Q 1163 2231 1163 1728 
z
" transform="scale(0.015625)"/>
       <path id="Arial-BoldMT-28" d="M 1916 -1347 
L 1313 -1347 
Q 834 -625 584 153 
Q 334 931 334 1659 
Q 334 2563 644 3369 
Q 913 4069 1325 4659 
L 1925 4659 
Q 1497 3713 1336 3048 
Q 1175 2384 1175 1641 
Q 1175 1128 1270 590 
Q 1366 53 1531 -431 
Q 1641 -750 1916 -1347 
z
" transform="scale(0.015625)"/>
       <path id="Arial-BoldMT-41" d="M 4597 0 
L 3591 0 
L 3191 1041 
L 1359 1041 
L 981 0 
L 0 0 
L 1784 4581 
L 2763 4581 
L 4597 0 
z
M 2894 1813 
L 2263 3513 
L 1644 1813 
L 2894 1813 
z
" transform="scale(0.015625)"/>
       <path id="Arial-BoldMT-64" d="M 3503 0 
L 2688 0 
L 2688 488 
Q 2484 203 2207 64 
Q 1931 -75 1650 -75 
Q 1078 -75 670 386 
Q 263 847 263 1672 
Q 263 2516 659 2955 
Q 1056 3394 1663 3394 
Q 2219 3394 2625 2931 
L 2625 4581 
L 3503 4581 
L 3503 0 
z
M 1159 1731 
Q 1159 1200 1306 963 
Q 1519 619 1900 619 
Q 2203 619 2415 876 
Q 2628 1134 2628 1647 
Q 2628 2219 2422 2470 
Q 2216 2722 1894 2722 
Q 1581 2722 1370 2473 
Q 1159 2225 1159 1731 
z
" transform="scale(0.015625)"/>
       <path id="Arial-BoldMT-6a" d="M 441 3769 
L 441 4581 
L 1319 4581 
L 1319 3769 
L 441 3769 
z
M 1319 3319 
L 1319 103 
Q 1319 -531 1236 -792 
Q 1153 -1053 917 -1200 
Q 681 -1347 316 -1347 
Q 184 -1347 32 -1323 
Q -119 -1300 -294 -1253 
L -141 -503 
Q -78 -516 -23 -523 
Q 31 -531 78 -531 
Q 213 -531 298 -473 
Q 384 -416 412 -334 
Q 441 -253 441 153 
L 441 3319 
L 1319 3319 
z
" transform="scale(0.015625)"/>
       <path id="Arial-BoldMT-75" d="M 2644 0 
L 2644 497 
Q 2463 231 2167 78 
Q 1872 -75 1544 -75 
Q 1209 -75 943 72 
Q 678 219 559 484 
Q 441 750 441 1219 
L 441 3319 
L 1319 3319 
L 1319 1794 
Q 1319 1094 1367 936 
Q 1416 778 1544 686 
Q 1672 594 1869 594 
Q 2094 594 2272 717 
Q 2450 841 2515 1023 
Q 2581 1206 2581 1919 
L 2581 3319 
L 3459 3319 
L 3459 0 
L 2644 0 
z
" transform="scale(0.015625)"/>
       <path id="Arial-BoldMT-73" d="M 150 947 
L 1031 1081 
Q 1088 825 1259 692 
Q 1431 559 1741 559 
Q 2081 559 2253 684 
Q 2369 772 2369 919 
Q 2369 1019 2306 1084 
Q 2241 1147 2013 1200 
Q 950 1434 666 1628 
Q 272 1897 272 2375 
Q 272 2806 612 3100 
Q 953 3394 1669 3394 
Q 2350 3394 2681 3172 
Q 3013 2950 3138 2516 
L 2309 2363 
Q 2256 2556 2107 2659 
Q 1959 2763 1684 2763 
Q 1338 2763 1188 2666 
Q 1088 2597 1088 2488 
Q 1088 2394 1175 2328 
Q 1294 2241 1995 2081 
Q 2697 1922 2975 1691 
Q 3250 1456 3250 1038 
Q 3250 581 2869 253 
Q 2488 -75 1741 -75 
Q 1063 -75 667 200 
Q 272 475 150 947 
z
" transform="scale(0.015625)"/>
       <path id="Arial-BoldMT-74" d="M 1981 3319 
L 1981 2619 
L 1381 2619 
L 1381 1281 
Q 1381 875 1398 808 
Q 1416 741 1477 697 
Q 1538 653 1625 653 
Q 1747 653 1978 738 
L 2053 56 
Q 1747 -75 1359 -75 
Q 1122 -75 931 4 
Q 741 84 652 211 
Q 563 338 528 553 
Q 500 706 500 1172 
L 500 2619 
L 97 2619 
L 97 3319 
L 500 3319 
L 500 3978 
L 1381 4491 
L 1381 3319 
L 1981 3319 
z
" transform="scale(0.015625)"/>
       <path id="Arial-BoldMT-65" d="M 2381 1056 
L 3256 909 
Q 3088 428 2723 176 
Q 2359 -75 1813 -75 
Q 947 -75 531 491 
Q 203 944 203 1634 
Q 203 2459 634 2926 
Q 1066 3394 1725 3394 
Q 2466 3394 2894 2905 
Q 3322 2416 3303 1406 
L 1103 1406 
Q 1113 1016 1316 798 
Q 1519 581 1822 581 
Q 2028 581 2168 693 
Q 2309 806 2381 1056 
z
M 2431 1944 
Q 2422 2325 2234 2523 
Q 2047 2722 1778 2722 
Q 1491 2722 1303 2513 
Q 1116 2303 1119 1944 
L 2431 1944 
z
" transform="scale(0.015625)"/>
       <path id="Arial-BoldMT-20" transform="scale(0.015625)"/>
       <path id="Arial-BoldMT-50" d="M 466 0 
L 466 4581 
L 1950 4581 
Q 2794 4581 3050 4513 
Q 3444 4409 3709 4064 
Q 3975 3719 3975 3172 
Q 3975 2750 3822 2462 
Q 3669 2175 3433 2011 
Q 3197 1847 2953 1794 
Q 2622 1728 1994 1728 
L 1391 1728 
L 1391 0 
L 466 0 
z
M 1391 3806 
L 1391 2506 
L 1897 2506 
Q 2444 2506 2628 2578 
Q 2813 2650 2917 2803 
Q 3022 2956 3022 3159 
Q 3022 3409 2875 3571 
Q 2728 3734 2503 3775 
Q 2338 3806 1838 3806 
L 1391 3806 
z
" transform="scale(0.015625)"/>
       <path id="Arial-BoldMT-76" d="M 1372 0 
L 34 3319 
L 956 3319 
L 1581 1625 
L 1763 1059 
Q 1834 1275 1853 1344 
Q 1897 1484 1947 1625 
L 2578 3319 
L 3481 3319 
L 2163 0 
L 1372 0 
z
" transform="scale(0.015625)"/>
       <path id="Arial-BoldMT-61" d="M 1116 2306 
L 319 2450 
Q 453 2931 781 3162 
Q 1109 3394 1756 3394 
Q 2344 3394 2631 3255 
Q 2919 3116 3036 2902 
Q 3153 2688 3153 2116 
L 3144 1091 
Q 3144 653 3186 445 
Q 3228 238 3344 0 
L 2475 0 
Q 2441 88 2391 259 
Q 2369 338 2359 363 
Q 2134 144 1878 34 
Q 1622 -75 1331 -75 
Q 819 -75 523 203 
Q 228 481 228 906 
Q 228 1188 362 1408 
Q 497 1628 739 1745 
Q 981 1863 1438 1950 
Q 2053 2066 2291 2166 
L 2291 2253 
Q 2291 2506 2166 2614 
Q 2041 2722 1694 2722 
Q 1459 2722 1328 2630 
Q 1197 2538 1116 2306 
z
M 2291 1594 
Q 2122 1538 1756 1459 
Q 1391 1381 1278 1306 
Q 1106 1184 1106 997 
Q 1106 813 1243 678 
Q 1381 544 1594 544 
Q 1831 544 2047 700 
Q 2206 819 2256 991 
Q 2291 1103 2291 1419 
L 2291 1594 
z
" transform="scale(0.015625)"/>
       <path id="Arial-BoldMT-29" d="M 216 -1347 
Q 475 -791 581 -494 
Q 688 -197 778 190 
Q 869 578 912 926 
Q 956 1275 956 1641 
Q 956 2384 797 3048 
Q 638 3713 209 4659 
L 806 4659 
Q 1278 3988 1539 3234 
Q 1800 2481 1800 1706 
Q 1800 1053 1594 306 
Q 1359 -531 822 -1347 
L 216 -1347 
z
" transform="scale(0.015625)"/>
      </defs>
      <use xlink:href="#Arial-BoldMT-2d"/>
      <use xlink:href="#Arial-BoldMT-6c" x="33.300781"/>
      <use xlink:href="#Arial-BoldMT-6f" x="61.083984"/>
      <use xlink:href="#Arial-BoldMT-67" x="122.167969"/>
      <use xlink:href="#Arial-BoldMT-28" x="183.251953"/>
      <use xlink:href="#Arial-BoldMT-41" x="216.552734"/>
      <use xlink:href="#Arial-BoldMT-64" x="288.769531"/>
      <use xlink:href="#Arial-BoldMT-6a" x="349.853516"/>
      <use xlink:href="#Arial-BoldMT-75" x="377.636719"/>
      <use xlink:href="#Arial-BoldMT-73" x="438.720703"/>
      <use xlink:href="#Arial-BoldMT-74" x="494.335938"/>
      <use xlink:href="#Arial-BoldMT-65" x="527.636719"/>
      <use xlink:href="#Arial-BoldMT-64" x="583.251953"/>
      <use xlink:href="#Arial-BoldMT-20" x="644.335938"/>
      <use xlink:href="#Arial-BoldMT-50" x="672.119141"/>
      <use xlink:href="#Arial-BoldMT-2d" x="738.818359"/>
      <use xlink:href="#Arial-BoldMT-76" x="772.119141"/>
      <use xlink:href="#Arial-BoldMT-61" x="827.734375"/>
      <use xlink:href="#Arial-BoldMT-6c" x="883.349609"/>
      <use xlink:href="#Arial-BoldMT-75" x="911.132812"/>
      <use xlink:href="#Arial-BoldMT-65" x="972.216797"/>
      <use xlink:href="#Arial-BoldMT-29" x="1027.832031"/>
     </g>
    </g>
   </g>
   <g id="matplotlib.axis_2">
    <g id="ytick_1">
     <g id="line2d_4">
      <defs>
       <path id="mda7cca309e" d="M 0 0 
L -3.5 0 
" style="stroke: #000000; stroke-width: 0.8"/>
      </defs>
      <g>
       <use xlink:href="#mda7cca309e" x="383.3" y="125.604" style="stroke: #000000; stroke-width: 0.8"/>
      </g>
     </g>
     <g id="text_5">
      <!-- Arginine biosynthesis -->
      <g transform="translate(225.1125 131.33025) scale(0.16 -0.16)">
       <defs>
        <path id="ArialMT-41" d="M -9 0 
L 1750 4581 
L 2403 4581 
L 4278 0 
L 3588 0 
L 3053 1388 
L 1138 1388 
L 634 0 
L -9 0 
z
M 1313 1881 
L 2866 1881 
L 2388 3150 
Q 2169 3728 2063 4100 
Q 1975 3659 1816 3225 
L 1313 1881 
z
" transform="scale(0.015625)"/>
        <path id="ArialMT-72" d="M 416 0 
L 416 3319 
L 922 3319 
L 922 2816 
Q 1116 3169 1280 3281 
Q 1444 3394 1641 3394 
Q 1925 3394 2219 3213 
L 2025 2691 
Q 1819 2813 1613 2813 
Q 1428 2813 1281 2702 
Q 1134 2591 1072 2394 
Q 978 2094 978 1738 
L 978 0 
L 416 0 
z
" transform="scale(0.015625)"/>
        <path id="ArialMT-67" d="M 319 -275 
L 866 -356 
Q 900 -609 1056 -725 
Q 1266 -881 1628 -881 
Q 2019 -881 2231 -725 
Q 2444 -569 2519 -288 
Q 2563 -116 2559 434 
Q 2191 0 1641 0 
Q 956 0 581 494 
Q 206 988 206 1678 
Q 206 2153 378 2554 
Q 550 2956 876 3175 
Q 1203 3394 1644 3394 
Q 2231 3394 2613 2919 
L 2613 3319 
L 3131 3319 
L 3131 450 
Q 3131 -325 2973 -648 
Q 2816 -972 2473 -1159 
Q 2131 -1347 1631 -1347 
Q 1038 -1347 672 -1080 
Q 306 -813 319 -275 
z
M 784 1719 
Q 784 1066 1043 766 
Q 1303 466 1694 466 
Q 2081 466 2343 764 
Q 2606 1063 2606 1700 
Q 2606 2309 2336 2618 
Q 2066 2928 1684 2928 
Q 1309 2928 1046 2623 
Q 784 2319 784 1719 
z
" transform="scale(0.015625)"/>
        <path id="ArialMT-69" d="M 425 3934 
L 425 4581 
L 988 4581 
L 988 3934 
L 425 3934 
z
M 425 0 
L 425 3319 
L 988 3319 
L 988 0 
L 425 0 
z
" transform="scale(0.015625)"/>
        <path id="ArialMT-6e" d="M 422 0 
L 422 3319 
L 928 3319 
L 928 2847 
Q 1294 3394 1984 3394 
Q 2284 3394 2536 3286 
Q 2788 3178 2913 3003 
Q 3038 2828 3088 2588 
Q 3119 2431 3119 2041 
L 3119 0 
L 2556 0 
L 2556 2019 
Q 2556 2363 2490 2533 
Q 2425 2703 2258 2804 
Q 2091 2906 1866 2906 
Q 1506 2906 1245 2678 
Q 984 2450 984 1813 
L 984 0 
L 422 0 
z
" transform="scale(0.015625)"/>
        <path id="ArialMT-65" d="M 2694 1069 
L 3275 997 
Q 3138 488 2766 206 
Q 2394 -75 1816 -75 
Q 1088 -75 661 373 
Q 234 822 234 1631 
Q 234 2469 665 2931 
Q 1097 3394 1784 3394 
Q 2450 3394 2872 2941 
Q 3294 2488 3294 1666 
Q 3294 1616 3291 1516 
L 816 1516 
Q 847 969 1125 678 
Q 1403 388 1819 388 
Q 2128 388 2347 550 
Q 2566 713 2694 1069 
z
M 847 1978 
L 2700 1978 
Q 2663 2397 2488 2606 
Q 2219 2931 1791 2931 
Q 1403 2931 1139 2672 
Q 875 2413 847 1978 
z
" transform="scale(0.015625)"/>
        <path id="ArialMT-20" transform="scale(0.015625)"/>
        <path id="ArialMT-62" d="M 941 0 
L 419 0 
L 419 4581 
L 981 4581 
L 981 2947 
Q 1338 3394 1891 3394 
Q 2197 3394 2470 3270 
Q 2744 3147 2920 2923 
Q 3097 2700 3197 2384 
Q 3297 2069 3297 1709 
Q 3297 856 2875 390 
Q 2453 -75 1863 -75 
Q 1275 -75 941 416 
L 941 0 
z
M 934 1684 
Q 934 1088 1097 822 
Q 1363 388 1816 388 
Q 2184 388 2453 708 
Q 2722 1028 2722 1663 
Q 2722 2313 2464 2622 
Q 2206 2931 1841 2931 
Q 1472 2931 1203 2611 
Q 934 2291 934 1684 
z
" transform="scale(0.015625)"/>
        <path id="ArialMT-6f" d="M 213 1659 
Q 213 2581 725 3025 
Q 1153 3394 1769 3394 
Q 2453 3394 2887 2945 
Q 3322 2497 3322 1706 
Q 3322 1066 3130 698 
Q 2938 331 2570 128 
Q 2203 -75 1769 -75 
Q 1072 -75 642 372 
Q 213 819 213 1659 
z
M 791 1659 
Q 791 1022 1069 705 
Q 1347 388 1769 388 
Q 2188 388 2466 706 
Q 2744 1025 2744 1678 
Q 2744 2294 2464 2611 
Q 2184 2928 1769 2928 
Q 1347 2928 1069 2612 
Q 791 2297 791 1659 
z
" transform="scale(0.015625)"/>
        <path id="ArialMT-73" d="M 197 991 
L 753 1078 
Q 800 744 1014 566 
Q 1228 388 1613 388 
Q 2000 388 2187 545 
Q 2375 703 2375 916 
Q 2375 1106 2209 1216 
Q 2094 1291 1634 1406 
Q 1016 1563 777 1677 
Q 538 1791 414 1992 
Q 291 2194 291 2438 
Q 291 2659 392 2848 
Q 494 3038 669 3163 
Q 800 3259 1026 3326 
Q 1253 3394 1513 3394 
Q 1903 3394 2198 3281 
Q 2494 3169 2634 2976 
Q 2775 2784 2828 2463 
L 2278 2388 
Q 2241 2644 2061 2787 
Q 1881 2931 1553 2931 
Q 1166 2931 1000 2803 
Q 834 2675 834 2503 
Q 834 2394 903 2306 
Q 972 2216 1119 2156 
Q 1203 2125 1616 2013 
Q 2213 1853 2448 1751 
Q 2684 1650 2818 1456 
Q 2953 1263 2953 975 
Q 2953 694 2789 445 
Q 2625 197 2315 61 
Q 2006 -75 1616 -75 
Q 969 -75 630 194 
Q 291 463 197 991 
z
" transform="scale(0.015625)"/>
        <path id="ArialMT-79" d="M 397 -1278 
L 334 -750 
Q 519 -800 656 -800 
Q 844 -800 956 -737 
Q 1069 -675 1141 -563 
Q 1194 -478 1313 -144 
Q 1328 -97 1363 -6 
L 103 3319 
L 709 3319 
L 1400 1397 
Q 1534 1031 1641 628 
Q 1738 1016 1872 1384 
L 2581 3319 
L 3144 3319 
L 1881 -56 
Q 1678 -603 1566 -809 
Q 1416 -1088 1222 -1217 
Q 1028 -1347 759 -1347 
Q 597 -1347 397 -1278 
z
" transform="scale(0.015625)"/>
        <path id="ArialMT-74" d="M 1650 503 
L 1731 6 
Q 1494 -44 1306 -44 
Q 1000 -44 831 53 
Q 663 150 594 308 
Q 525 466 525 972 
L 525 2881 
L 113 2881 
L 113 3319 
L 525 3319 
L 525 4141 
L 1084 4478 
L 1084 3319 
L 1650 3319 
L 1650 2881 
L 1084 2881 
L 1084 941 
Q 1084 700 1114 631 
Q 1144 563 1211 522 
Q 1278 481 1403 481 
Q 1497 481 1650 503 
z
" transform="scale(0.015625)"/>
        <path id="ArialMT-68" d="M 422 0 
L 422 4581 
L 984 4581 
L 984 2938 
Q 1378 3394 1978 3394 
Q 2347 3394 2619 3248 
Q 2891 3103 3008 2847 
Q 3125 2591 3125 2103 
L 3125 0 
L 2563 0 
L 2563 2103 
Q 2563 2525 2380 2717 
Q 2197 2909 1863 2909 
Q 1613 2909 1392 2779 
Q 1172 2650 1078 2428 
Q 984 2206 984 1816 
L 984 0 
L 422 0 
z
" transform="scale(0.015625)"/>
       </defs>
       <use xlink:href="#ArialMT-41"/>
       <use xlink:href="#ArialMT-72" x="66.699219"/>
       <use xlink:href="#ArialMT-67" x="100"/>
       <use xlink:href="#ArialMT-69" x="155.615234"/>
       <use xlink:href="#ArialMT-6e" x="177.832031"/>
       <use xlink:href="#ArialMT-69" x="233.447266"/>
       <use xlink:href="#ArialMT-6e" x="255.664062"/>
       <use xlink:href="#ArialMT-65" x="311.279297"/>
       <use xlink:href="#ArialMT-20" x="366.894531"/>
       <use xlink:href="#ArialMT-62" x="394.677734"/>
       <use xlink:href="#ArialMT-69" x="450.292969"/>
       <use xlink:href="#ArialMT-6f" x="472.509766"/>
       <use xlink:href="#ArialMT-73" x="528.125"/>
       <use xlink:href="#ArialMT-79" x="578.125"/>
       <use xlink:href="#ArialMT-6e" x="628.125"/>
       <use xlink:href="#ArialMT-74" x="683.740234"/>
       <use xlink:href="#ArialMT-68" x="711.523438"/>
       <use xlink:href="#ArialMT-65" x="767.138672"/>
       <use xlink:href="#ArialMT-73" x="822.753906"/>
       <use xlink:href="#ArialMT-69" x="872.753906"/>
       <use xlink:href="#ArialMT-73" x="894.970703"/>
      </g>
     </g>
    </g>
    <g id="ytick_2">
     <g id="line2d_5">
      <g>
       <use xlink:href="#mda7cca309e" x="383.3" y="107.388" style="stroke: #000000; stroke-width: 0.8"/>
      </g>
     </g>
     <g id="text_6">
      <!-- Cysteine and methionine metabolism -->
      <g transform="translate(113.9575 113.21175) scale(0.16 -0.16)">
       <defs>
        <path id="ArialMT-43" d="M 3763 1606 
L 4369 1453 
Q 4178 706 3683 314 
Q 3188 -78 2472 -78 
Q 1731 -78 1267 223 
Q 803 525 561 1097 
Q 319 1669 319 2325 
Q 319 3041 592 3573 
Q 866 4106 1370 4382 
Q 1875 4659 2481 4659 
Q 3169 4659 3637 4309 
Q 4106 3959 4291 3325 
L 3694 3184 
Q 3534 3684 3231 3912 
Q 2928 4141 2469 4141 
Q 1941 4141 1586 3887 
Q 1231 3634 1087 3207 
Q 944 2781 944 2328 
Q 944 1744 1114 1308 
Q 1284 872 1643 656 
Q 2003 441 2422 441 
Q 2931 441 3284 734 
Q 3638 1028 3763 1606 
z
" transform="scale(0.015625)"/>
        <path id="ArialMT-61" d="M 2588 409 
Q 2275 144 1986 34 
Q 1697 -75 1366 -75 
Q 819 -75 525 192 
Q 231 459 231 875 
Q 231 1119 342 1320 
Q 453 1522 633 1644 
Q 813 1766 1038 1828 
Q 1203 1872 1538 1913 
Q 2219 1994 2541 2106 
Q 2544 2222 2544 2253 
Q 2544 2597 2384 2738 
Q 2169 2928 1744 2928 
Q 1347 2928 1158 2789 
Q 969 2650 878 2297 
L 328 2372 
Q 403 2725 575 2942 
Q 747 3159 1072 3276 
Q 1397 3394 1825 3394 
Q 2250 3394 2515 3294 
Q 2781 3194 2906 3042 
Q 3031 2891 3081 2659 
Q 3109 2516 3109 2141 
L 3109 1391 
Q 3109 606 3145 398 
Q 3181 191 3288 0 
L 2700 0 
Q 2613 175 2588 409 
z
M 2541 1666 
Q 2234 1541 1622 1453 
Q 1275 1403 1131 1340 
Q 988 1278 909 1158 
Q 831 1038 831 891 
Q 831 666 1001 516 
Q 1172 366 1500 366 
Q 1825 366 2078 508 
Q 2331 650 2450 897 
Q 2541 1088 2541 1459 
L 2541 1666 
z
" transform="scale(0.015625)"/>
        <path id="ArialMT-64" d="M 2575 0 
L 2575 419 
Q 2259 -75 1647 -75 
Q 1250 -75 917 144 
Q 584 363 401 755 
Q 219 1147 219 1656 
Q 219 2153 384 2558 
Q 550 2963 881 3178 
Q 1213 3394 1622 3394 
Q 1922 3394 2156 3267 
Q 2391 3141 2538 2938 
L 2538 4581 
L 3097 4581 
L 3097 0 
L 2575 0 
z
M 797 1656 
Q 797 1019 1065 703 
Q 1334 388 1700 388 
Q 2069 388 2326 689 
Q 2584 991 2584 1609 
Q 2584 2291 2321 2609 
Q 2059 2928 1675 2928 
Q 1300 2928 1048 2622 
Q 797 2316 797 1656 
z
" transform="scale(0.015625)"/>
        <path id="ArialMT-6d" d="M 422 0 
L 422 3319 
L 925 3319 
L 925 2853 
Q 1081 3097 1340 3245 
Q 1600 3394 1931 3394 
Q 2300 3394 2536 3241 
Q 2772 3088 2869 2813 
Q 3263 3394 3894 3394 
Q 4388 3394 4653 3120 
Q 4919 2847 4919 2278 
L 4919 0 
L 4359 0 
L 4359 2091 
Q 4359 2428 4304 2576 
Q 4250 2725 4106 2815 
Q 3963 2906 3769 2906 
Q 3419 2906 3187 2673 
Q 2956 2441 2956 1928 
L 2956 0 
L 2394 0 
L 2394 2156 
Q 2394 2531 2256 2718 
Q 2119 2906 1806 2906 
Q 1569 2906 1367 2781 
Q 1166 2656 1075 2415 
Q 984 2175 984 1722 
L 984 0 
L 422 0 
z
" transform="scale(0.015625)"/>
        <path id="ArialMT-6c" d="M 409 0 
L 409 4581 
L 972 4581 
L 972 0 
L 409 0 
z
" transform="scale(0.015625)"/>
       </defs>
       <use xlink:href="#ArialMT-43"/>
       <use xlink:href="#ArialMT-79" x="72.216797"/>
       <use xlink:href="#ArialMT-73" x="122.216797"/>
       <use xlink:href="#ArialMT-74" x="172.216797"/>
       <use xlink:href="#ArialMT-65" x="200"/>
       <use xlink:href="#ArialMT-69" x="255.615234"/>
       <use xlink:href="#ArialMT-6e" x="277.832031"/>
       <use xlink:href="#ArialMT-65" x="333.447266"/>
       <use xlink:href="#ArialMT-20" x="389.0625"/>
       <use xlink:href="#ArialMT-61" x="416.845703"/>
       <use xlink:href="#ArialMT-6e" x="472.460938"/>
       <use xlink:href="#ArialMT-64" x="528.076172"/>
       <use xlink:href="#ArialMT-20" x="583.691406"/>
       <use xlink:href="#ArialMT-6d" x="611.474609"/>
       <use xlink:href="#ArialMT-65" x="694.775391"/>
       <use xlink:href="#ArialMT-74" x="750.390625"/>
       <use xlink:href="#ArialMT-68" x="778.173828"/>
       <use xlink:href="#ArialMT-69" x="833.789062"/>
       <use xlink:href="#ArialMT-6f" x="856.005859"/>
       <use xlink:href="#ArialMT-6e" x="911.621094"/>
       <use xlink:href="#ArialMT-69" x="967.236328"/>
       <use xlink:href="#ArialMT-6e" x="989.453125"/>
       <use xlink:href="#ArialMT-65" x="1045.068359"/>
       <use xlink:href="#ArialMT-20" x="1100.683594"/>
       <use xlink:href="#ArialMT-6d" x="1128.466797"/>
       <use xlink:href="#ArialMT-65" x="1211.767578"/>
       <use xlink:href="#ArialMT-74" x="1267.382812"/>
       <use xlink:href="#ArialMT-61" x="1295.166016"/>
       <use xlink:href="#ArialMT-62" x="1350.78125"/>
       <use xlink:href="#ArialMT-6f" x="1406.396484"/>
       <use xlink:href="#ArialMT-6c" x="1462.011719"/>
       <use xlink:href="#ArialMT-69" x="1484.228516"/>
       <use xlink:href="#ArialMT-73" x="1506.445312"/>
       <use xlink:href="#ArialMT-6d" x="1556.445312"/>
      </g>
     </g>
    </g>
    <g id="ytick_3">
     <g id="line2d_6">
      <g>
       <use xlink:href="#mda7cca309e" x="383.3" y="89.172" style="stroke: #000000; stroke-width: 0.8"/>
      </g>
     </g>
     <g id="text_7">
      <!-- Citrate cycle (TCA cycle) -->
      <g transform="translate(201.1625 94.99575) scale(0.16 -0.16)">
       <defs>
        <path id="ArialMT-63" d="M 2588 1216 
L 3141 1144 
Q 3050 572 2676 248 
Q 2303 -75 1759 -75 
Q 1078 -75 664 370 
Q 250 816 250 1647 
Q 250 2184 428 2587 
Q 606 2991 970 3192 
Q 1334 3394 1763 3394 
Q 2303 3394 2647 3120 
Q 2991 2847 3088 2344 
L 2541 2259 
Q 2463 2594 2264 2762 
Q 2066 2931 1784 2931 
Q 1359 2931 1093 2626 
Q 828 2322 828 1663 
Q 828 994 1084 691 
Q 1341 388 1753 388 
Q 2084 388 2306 591 
Q 2528 794 2588 1216 
z
" transform="scale(0.015625)"/>
        <path id="ArialMT-28" d="M 1497 -1347 
Q 1031 -759 709 28 
Q 388 816 388 1659 
Q 388 2403 628 3084 
Q 909 3875 1497 4659 
L 1900 4659 
Q 1522 4009 1400 3731 
Q 1209 3300 1100 2831 
Q 966 2247 966 1656 
Q 966 153 1900 -1347 
L 1497 -1347 
z
" transform="scale(0.015625)"/>
        <path id="ArialMT-54" d="M 1659 0 
L 1659 4041 
L 150 4041 
L 150 4581 
L 3781 4581 
L 3781 4041 
L 2266 4041 
L 2266 0 
L 1659 0 
z
" transform="scale(0.015625)"/>
        <path id="ArialMT-29" d="M 791 -1347 
L 388 -1347 
Q 1322 153 1322 1656 
Q 1322 2244 1188 2822 
Q 1081 3291 891 3722 
Q 769 4003 388 4659 
L 791 4659 
Q 1378 3875 1659 3084 
Q 1900 2403 1900 1659 
Q 1900 816 1576 28 
Q 1253 -759 791 -1347 
z
" transform="scale(0.015625)"/>
       </defs>
       <use xlink:href="#ArialMT-43"/>
       <use xlink:href="#ArialMT-69" x="72.216797"/>
       <use xlink:href="#ArialMT-74" x="94.433594"/>
       <use xlink:href="#ArialMT-72" x="122.216797"/>
       <use xlink:href="#ArialMT-61" x="155.517578"/>
       <use xlink:href="#ArialMT-74" x="211.132812"/>
       <use xlink:href="#ArialMT-65" x="238.916016"/>
       <use xlink:href="#ArialMT-20" x="294.53125"/>
       <use xlink:href="#ArialMT-63" x="322.314453"/>
       <use xlink:href="#ArialMT-79" x="372.314453"/>
       <use xlink:href="#ArialMT-63" x="422.314453"/>
       <use xlink:href="#ArialMT-6c" x="472.314453"/>
       <use xlink:href="#ArialMT-65" x="494.53125"/>
       <use xlink:href="#ArialMT-20" x="550.146484"/>
       <use xlink:href="#ArialMT-28" x="577.929688"/>
       <use xlink:href="#ArialMT-54" x="611.230469"/>
       <use xlink:href="#ArialMT-43" x="672.314453"/>
       <use xlink:href="#ArialMT-41" x="744.53125"/>
       <use xlink:href="#ArialMT-20" x="805.730469"/>
       <use xlink:href="#ArialMT-63" x="833.513672"/>
       <use xlink:href="#ArialMT-79" x="883.513672"/>
       <use xlink:href="#ArialMT-63" x="933.513672"/>
       <use xlink:href="#ArialMT-6c" x="983.513672"/>
       <use xlink:href="#ArialMT-65" x="1005.730469"/>
       <use xlink:href="#ArialMT-29" x="1061.345703"/>
      </g>
     </g>
    </g>
    <g id="ytick_4">
     <g id="line2d_7">
      <g>
       <use xlink:href="#mda7cca309e" x="383.3" y="70.956" style="stroke: #000000; stroke-width: 0.8"/>
      </g>
     </g>
     <g id="text_8">
      <!-- Phenylalanine, tyrosine and tryptophan biosynthesis -->
      <g transform="translate(7.2 76.68225) scale(0.16 -0.16)">
       <defs>
        <path id="ArialMT-50" d="M 494 0 
L 494 4581 
L 2222 4581 
Q 2678 4581 2919 4538 
Q 3256 4481 3484 4323 
Q 3713 4166 3852 3881 
Q 3991 3597 3991 3256 
Q 3991 2672 3619 2267 
Q 3247 1863 2275 1863 
L 1100 1863 
L 1100 0 
L 494 0 
z
M 1100 2403 
L 2284 2403 
Q 2872 2403 3119 2622 
Q 3366 2841 3366 3238 
Q 3366 3525 3220 3729 
Q 3075 3934 2838 4000 
Q 2684 4041 2272 4041 
L 1100 4041 
L 1100 2403 
z
" transform="scale(0.015625)"/>
        <path id="ArialMT-2c" d="M 569 0 
L 569 641 
L 1209 641 
L 1209 0 
Q 1209 -353 1084 -570 
Q 959 -788 688 -906 
L 531 -666 
Q 709 -588 793 -436 
Q 878 -284 888 0 
L 569 0 
z
" transform="scale(0.015625)"/>
        <path id="ArialMT-70" d="M 422 -1272 
L 422 3319 
L 934 3319 
L 934 2888 
Q 1116 3141 1344 3267 
Q 1572 3394 1897 3394 
Q 2322 3394 2647 3175 
Q 2972 2956 3137 2557 
Q 3303 2159 3303 1684 
Q 3303 1175 3120 767 
Q 2938 359 2589 142 
Q 2241 -75 1856 -75 
Q 1575 -75 1351 44 
Q 1128 163 984 344 
L 984 -1272 
L 422 -1272 
z
M 931 1641 
Q 931 1000 1190 694 
Q 1450 388 1819 388 
Q 2194 388 2461 705 
Q 2728 1022 2728 1688 
Q 2728 2322 2467 2637 
Q 2206 2953 1844 2953 
Q 1484 2953 1207 2617 
Q 931 2281 931 1641 
z
" transform="scale(0.015625)"/>
       </defs>
       <use xlink:href="#ArialMT-50"/>
       <use xlink:href="#ArialMT-68" x="66.699219"/>
       <use xlink:href="#ArialMT-65" x="122.314453"/>
       <use xlink:href="#ArialMT-6e" x="177.929688"/>
       <use xlink:href="#ArialMT-79" x="233.544922"/>
       <use xlink:href="#ArialMT-6c" x="283.544922"/>
       <use xlink:href="#ArialMT-61" x="305.761719"/>
       <use xlink:href="#ArialMT-6c" x="361.376953"/>
       <use xlink:href="#ArialMT-61" x="383.59375"/>
       <use xlink:href="#ArialMT-6e" x="439.208984"/>
       <use xlink:href="#ArialMT-69" x="494.824219"/>
       <use xlink:href="#ArialMT-6e" x="517.041016"/>
       <use xlink:href="#ArialMT-65" x="572.65625"/>
       <use xlink:href="#ArialMT-2c" x="628.271484"/>
       <use xlink:href="#ArialMT-20" x="656.054688"/>
       <use xlink:href="#ArialMT-74" x="683.837891"/>
       <use xlink:href="#ArialMT-79" x="711.621094"/>
       <use xlink:href="#ArialMT-72" x="761.621094"/>
       <use xlink:href="#ArialMT-6f" x="794.921875"/>
       <use xlink:href="#ArialMT-73" x="850.537109"/>
       <use xlink:href="#ArialMT-69" x="900.537109"/>
       <use xlink:href="#ArialMT-6e" x="922.753906"/>
       <use xlink:href="#ArialMT-65" x="978.369141"/>
       <use xlink:href="#ArialMT-20" x="1033.984375"/>
       <use xlink:href="#ArialMT-61" x="1061.767578"/>
       <use xlink:href="#ArialMT-6e" x="1117.382812"/>
       <use xlink:href="#ArialMT-64" x="1172.998047"/>
       <use xlink:href="#ArialMT-20" x="1228.613281"/>
       <use xlink:href="#ArialMT-74" x="1256.396484"/>
       <use xlink:href="#ArialMT-72" x="1284.179688"/>
       <use xlink:href="#ArialMT-79" x="1317.480469"/>
       <use xlink:href="#ArialMT-70" x="1367.480469"/>
       <use xlink:href="#ArialMT-74" x="1423.095703"/>
       <use xlink:href="#ArialMT-6f" x="1450.878906"/>
       <use xlink:href="#ArialMT-70" x="1506.494141"/>
       <use xlink:href="#ArialMT-68" x="1562.109375"/>
       <use xlink:href="#ArialMT-61" x="1617.724609"/>
       <use xlink:href="#ArialMT-6e" x="1673.339844"/>
       <use xlink:href="#ArialMT-20" x="1728.955078"/>
       <use xlink:href="#ArialMT-62" x="1756.738281"/>
       <use xlink:href="#ArialMT-69" x="1812.353516"/>
       <use xlink:href="#ArialMT-6f" x="1834.570312"/>
       <use xlink:href="#ArialMT-73" x="1890.185547"/>
       <use xlink:href="#ArialMT-79" x="1940.185547"/>
       <use xlink:href="#ArialMT-6e" x="1990.185547"/>
       <use xlink:href="#ArialMT-74" x="2045.800781"/>
       <use xlink:href="#ArialMT-68" x="2073.583984"/>
       <use xlink:href="#ArialMT-65" x="2129.199219"/>
       <use xlink:href="#ArialMT-73" x="2184.814453"/>
       <use xlink:href="#ArialMT-69" x="2234.814453"/>
       <use xlink:href="#ArialMT-73" x="2257.03125"/>
      </g>
     </g>
    </g>
    <g id="ytick_5">
     <g id="line2d_8">
      <g>
       <use xlink:href="#mda7cca309e" x="383.3" y="52.74" style="stroke: #000000; stroke-width: 0.8"/>
      </g>
     </g>
     <g id="text_9">
      <!-- Sulfur metabolism -->
      <g transform="translate(248.26 58.46625) scale(0.16 -0.16)">
       <defs>
        <path id="ArialMT-53" d="M 288 1472 
L 859 1522 
Q 900 1178 1048 958 
Q 1197 738 1509 602 
Q 1822 466 2213 466 
Q 2559 466 2825 569 
Q 3091 672 3220 851 
Q 3350 1031 3350 1244 
Q 3350 1459 3225 1620 
Q 3100 1781 2813 1891 
Q 2628 1963 1997 2114 
Q 1366 2266 1113 2400 
Q 784 2572 623 2826 
Q 463 3081 463 3397 
Q 463 3744 659 4045 
Q 856 4347 1234 4503 
Q 1613 4659 2075 4659 
Q 2584 4659 2973 4495 
Q 3363 4331 3572 4012 
Q 3781 3694 3797 3291 
L 3216 3247 
Q 3169 3681 2898 3903 
Q 2628 4125 2100 4125 
Q 1550 4125 1298 3923 
Q 1047 3722 1047 3438 
Q 1047 3191 1225 3031 
Q 1400 2872 2139 2705 
Q 2878 2538 3153 2413 
Q 3553 2228 3743 1945 
Q 3934 1663 3934 1294 
Q 3934 928 3725 604 
Q 3516 281 3123 101 
Q 2731 -78 2241 -78 
Q 1619 -78 1198 103 
Q 778 284 539 648 
Q 300 1013 288 1472 
z
" transform="scale(0.015625)"/>
        <path id="ArialMT-75" d="M 2597 0 
L 2597 488 
Q 2209 -75 1544 -75 
Q 1250 -75 995 37 
Q 741 150 617 320 
Q 494 491 444 738 
Q 409 903 409 1263 
L 409 3319 
L 972 3319 
L 972 1478 
Q 972 1038 1006 884 
Q 1059 663 1231 536 
Q 1403 409 1656 409 
Q 1909 409 2131 539 
Q 2353 669 2445 892 
Q 2538 1116 2538 1541 
L 2538 3319 
L 3100 3319 
L 3100 0 
L 2597 0 
z
" transform="scale(0.015625)"/>
        <path id="ArialMT-66" d="M 556 0 
L 556 2881 
L 59 2881 
L 59 3319 
L 556 3319 
L 556 3672 
Q 556 4006 616 4169 
Q 697 4388 901 4523 
Q 1106 4659 1475 4659 
Q 1713 4659 2000 4603 
L 1916 4113 
Q 1741 4144 1584 4144 
Q 1328 4144 1222 4034 
Q 1116 3925 1116 3625 
L 1116 3319 
L 1763 3319 
L 1763 2881 
L 1116 2881 
L 1116 0 
L 556 0 
z
" transform="scale(0.015625)"/>
       </defs>
       <use xlink:href="#ArialMT-53"/>
       <use xlink:href="#ArialMT-75" x="66.699219"/>
       <use xlink:href="#ArialMT-6c" x="122.314453"/>
       <use xlink:href="#ArialMT-66" x="144.53125"/>
       <use xlink:href="#ArialMT-75" x="172.314453"/>
       <use xlink:href="#ArialMT-72" x="227.929688"/>
       <use xlink:href="#ArialMT-20" x="261.230469"/>
       <use xlink:href="#ArialMT-6d" x="289.013672"/>
       <use xlink:href="#ArialMT-65" x="372.314453"/>
       <use xlink:href="#ArialMT-74" x="427.929688"/>
       <use xlink:href="#ArialMT-61" x="455.712891"/>
       <use xlink:href="#ArialMT-62" x="511.328125"/>
       <use xlink:href="#ArialMT-6f" x="566.943359"/>
       <use xlink:href="#ArialMT-6c" x="622.558594"/>
       <use xlink:href="#ArialMT-69" x="644.775391"/>
       <use xlink:href="#ArialMT-73" x="666.992188"/>
       <use xlink:href="#ArialMT-6d" x="716.992188"/>
      </g>
     </g>
    </g>
    <g id="ytick_6">
     <g id="line2d_9">
      <g>
       <use xlink:href="#mda7cca309e" x="383.3" y="34.524" style="stroke: #000000; stroke-width: 0.8"/>
      </g>
     </g>
     <g id="text_10">
      <!-- Glycine, serine and threonine metabolism -->
      <g transform="translate(81.945 40.34775) scale(0.16 -0.16)">
       <defs>
        <path id="ArialMT-47" d="M 2638 1797 
L 2638 2334 
L 4578 2338 
L 4578 638 
Q 4131 281 3656 101 
Q 3181 -78 2681 -78 
Q 2006 -78 1454 211 
Q 903 500 622 1047 
Q 341 1594 341 2269 
Q 341 2938 620 3517 
Q 900 4097 1425 4378 
Q 1950 4659 2634 4659 
Q 3131 4659 3532 4498 
Q 3934 4338 4162 4050 
Q 4391 3763 4509 3300 
L 3963 3150 
Q 3859 3500 3706 3700 
Q 3553 3900 3268 4020 
Q 2984 4141 2638 4141 
Q 2222 4141 1919 4014 
Q 1616 3888 1430 3681 
Q 1244 3475 1141 3228 
Q 966 2803 966 2306 
Q 966 1694 1177 1281 
Q 1388 869 1791 669 
Q 2194 469 2647 469 
Q 3041 469 3416 620 
Q 3791 772 3984 944 
L 3984 1797 
L 2638 1797 
z
" transform="scale(0.015625)"/>
       </defs>
       <use xlink:href="#ArialMT-47"/>
       <use xlink:href="#ArialMT-6c" x="77.783203"/>
       <use xlink:href="#ArialMT-79" x="100"/>
       <use xlink:href="#ArialMT-63" x="150"/>
       <use xlink:href="#ArialMT-69" x="200"/>
       <use xlink:href="#ArialMT-6e" x="222.216797"/>
       <use xlink:href="#ArialMT-65" x="277.832031"/>
       <use xlink:href="#ArialMT-2c" x="333.447266"/>
       <use xlink:href="#ArialMT-20" x="361.230469"/>
       <use xlink:href="#ArialMT-73" x="389.013672"/>
       <use xlink:href="#ArialMT-65" x="439.013672"/>
       <use xlink:href="#ArialMT-72" x="494.628906"/>
       <use xlink:href="#ArialMT-69" x="527.929688"/>
       <use xlink:href="#ArialMT-6e" x="550.146484"/>
       <use xlink:href="#ArialMT-65" x="605.761719"/>
       <use xlink:href="#ArialMT-20" x="661.376953"/>
       <use xlink:href="#ArialMT-61" x="689.160156"/>
       <use xlink:href="#ArialMT-6e" x="744.775391"/>
       <use xlink:href="#ArialMT-64" x="800.390625"/>
       <use xlink:href="#ArialMT-20" x="856.005859"/>
       <use xlink:href="#ArialMT-74" x="883.789062"/>
       <use xlink:href="#ArialMT-68" x="911.572266"/>
       <use xlink:href="#ArialMT-72" x="967.1875"/>
       <use xlink:href="#ArialMT-65" x="1000.488281"/>
       <use xlink:href="#ArialMT-6f" x="1056.103516"/>
       <use xlink:href="#ArialMT-6e" x="1111.71875"/>
       <use xlink:href="#ArialMT-69" x="1167.333984"/>
       <use xlink:href="#ArialMT-6e" x="1189.550781"/>
       <use xlink:href="#ArialMT-65" x="1245.166016"/>
       <use xlink:href="#ArialMT-20" x="1300.78125"/>
       <use xlink:href="#ArialMT-6d" x="1328.564453"/>
       <use xlink:href="#ArialMT-65" x="1411.865234"/>
       <use xlink:href="#ArialMT-74" x="1467.480469"/>
       <use xlink:href="#ArialMT-61" x="1495.263672"/>
       <use xlink:href="#ArialMT-62" x="1550.878906"/>
       <use xlink:href="#ArialMT-6f" x="1606.494141"/>
       <use xlink:href="#ArialMT-6c" x="1662.109375"/>
       <use xlink:href="#ArialMT-69" x="1684.326172"/>
       <use xlink:href="#ArialMT-73" x="1706.542969"/>
       <use xlink:href="#ArialMT-6d" x="1756.542969"/>
      </g>
     </g>
    </g>
    <g id="ytick_7">
     <g id="line2d_10">
      <g>
       <use xlink:href="#mda7cca309e" x="383.3" y="16.308" style="stroke: #000000; stroke-width: 0.8"/>
      </g>
     </g>
     <g id="text_11">
      <!-- Glyoxylate and dicarboxylate metabolism -->
      <g transform="translate(85.5125 22.13175) scale(0.16 -0.16)">
       <defs>
        <path id="ArialMT-78" d="M 47 0 
L 1259 1725 
L 138 3319 
L 841 3319 
L 1350 2541 
Q 1494 2319 1581 2169 
Q 1719 2375 1834 2534 
L 2394 3319 
L 3066 3319 
L 1919 1756 
L 3153 0 
L 2463 0 
L 1781 1031 
L 1600 1309 
L 728 0 
L 47 0 
z
" transform="scale(0.015625)"/>
       </defs>
       <use xlink:href="#ArialMT-47"/>
       <use xlink:href="#ArialMT-6c" x="77.783203"/>
       <use xlink:href="#ArialMT-79" x="100"/>
       <use xlink:href="#ArialMT-6f" x="150"/>
       <use xlink:href="#ArialMT-78" x="205.615234"/>
       <use xlink:href="#ArialMT-79" x="255.615234"/>
       <use xlink:href="#ArialMT-6c" x="305.615234"/>
       <use xlink:href="#ArialMT-61" x="327.832031"/>
       <use xlink:href="#ArialMT-74" x="383.447266"/>
       <use xlink:href="#ArialMT-65" x="411.230469"/>
       <use xlink:href="#ArialMT-20" x="466.845703"/>
       <use xlink:href="#ArialMT-61" x="494.628906"/>
       <use xlink:href="#ArialMT-6e" x="550.244141"/>
       <use xlink:href="#ArialMT-64" x="605.859375"/>
       <use xlink:href="#ArialMT-20" x="661.474609"/>
       <use xlink:href="#ArialMT-64" x="689.257812"/>
       <use xlink:href="#ArialMT-69" x="744.873047"/>
       <use xlink:href="#ArialMT-63" x="767.089844"/>
       <use xlink:href="#ArialMT-61" x="817.089844"/>
       <use xlink:href="#ArialMT-72" x="872.705078"/>
       <use xlink:href="#ArialMT-62" x="906.005859"/>
       <use xlink:href="#ArialMT-6f" x="961.621094"/>
       <use xlink:href="#ArialMT-78" x="1017.236328"/>
       <use xlink:href="#ArialMT-79" x="1067.236328"/>
       <use xlink:href="#ArialMT-6c" x="1117.236328"/>
       <use xlink:href="#ArialMT-61" x="1139.453125"/>
       <use xlink:href="#ArialMT-74" x="1195.068359"/>
       <use xlink:href="#ArialMT-65" x="1222.851562"/>
       <use xlink:href="#ArialMT-20" x="1278.466797"/>
       <use xlink:href="#ArialMT-6d" x="1306.25"/>
       <use xlink:href="#ArialMT-65" x="1389.550781"/>
       <use xlink:href="#ArialMT-74" x="1445.166016"/>
       <use xlink:href="#ArialMT-61" x="1472.949219"/>
       <use xlink:href="#ArialMT-62" x="1528.564453"/>
       <use xlink:href="#ArialMT-6f" x="1584.179688"/>
       <use xlink:href="#ArialMT-6c" x="1639.794922"/>
       <use xlink:href="#ArialMT-69" x="1662.011719"/>
       <use xlink:href="#ArialMT-73" x="1684.228516"/>
       <use xlink:href="#ArialMT-6d" x="1734.228516"/>
      </g>
     </g>
    </g>
   </g>
   <g id="patch_10">
    <path d="M 383.3 134.712 
L 383.3 7.2 
" style="fill: none; stroke: #000000; stroke-linejoin: miter; stroke-linecap: square"/>
   </g>
   <g id="patch_11">
    <path d="M 383.3 134.712 
L 500.48 134.712 
" style="fill: none; stroke: #000000; stroke-linejoin: miter; stroke-linecap: square"/>
   </g>
  </g>
 </g>
 <defs>
  <clipPath id="p0877a79295">
   <rect x="383.3" y="7.2" width="117.18" height="127.512"/>
  </clipPath>
 </defs>
</svg>
