<?xml version="1.0" encoding="utf-8" standalone="no"?>
<!DOCTYPE svg PUBLIC "-//W3C//DTD SVG 1.1//EN"
  "http://www.w3.org/Graphics/SVG/1.1/DTD/svg11.dtd">
<svg xmlns:xlink="http://www.w3.org/1999/xlink" width="205.153125pt" height="228.24125pt" viewBox="0 0 205.153125 228.24125" xmlns="http://www.w3.org/2000/svg" version="1.1">
 <metadata>
  <rdf:RDF xmlns:dc="http://purl.org/dc/elements/1.1/" xmlns:cc="http://creativecommons.org/ns#" xmlns:rdf="http://www.w3.org/1999/02/22-rdf-syntax-ns#">
   <cc:Work>
    <dc:type rdf:resource="http://purl.org/dc/dcmitype/StillImage"/>
    <dc:date>2024-06-12T15:42:02.619291</dc:date>
    <dc:format>image/svg+xml</dc:format>
    <dc:creator>
     <cc:Agent>
      <dc:title>Matplotlib v3.8.4, https://matplotlib.org/</dc:title>
     </cc:Agent>
    </dc:creator>
   </cc:Work>
  </rdf:RDF>
 </metadata>
 <defs>
  <style type="text/css">*{stroke-linejoin: round; stroke-linecap: butt}</style>
 </defs>
 <g id="figure_1">
  <g id="patch_1">
   <path d="M 0 228.24125 
L 205.153125 228.24125 
L 205.153125 0 
L 0 0 
L 0 228.24125 
z
" style="fill: none"/>
  </g>
  <g id="axes_1">
   <g id="patch_2">
    <path d="M 18.876562 188.109375 
L 186.276563 188.109375 
L 186.276563 21.789375 
L 18.876562 21.789375 
L 18.876562 188.109375 
z
" style="fill: none"/>
   </g>
   <g id="PathCollection_1">
    <defs>
     <path id="m096bbd59c9" d="M 0 2.738613 
C 0.726289 2.738613 1.422928 2.450055 1.936492 1.936492 
C 2.450055 1.422928 2.738613 0.726289 2.738613 0 
C 2.738613 -0.726289 2.450055 -1.422928 1.936492 -1.936492 
C 1.422928 -2.450055 0.726289 -2.738613 0 -2.738613 
C -0.726289 -2.738613 -1.422928 -2.450055 -1.936492 -1.936492 
C -2.450055 -1.422928 -2.738613 -0.726289 -2.738613 0 
C -2.738613 0.726289 -2.450055 1.422928 -1.936492 1.936492 
C -1.422928 2.450055 -0.726289 2.738613 0 2.738613 
z
" style="stroke: #000000"/>
    </defs>
    <g clip-path="url(#p2a65014e65)">
     <use xlink:href="#m096bbd59c9" x="47.853282" y="180.189375" style="fill: #808080; stroke: #000000"/>
     <use xlink:href="#m096bbd59c9" x="49.412631" y="164.349375" style="fill: #808080; stroke: #000000"/>
     <use xlink:href="#m096bbd59c9" x="52.345932" y="148.509375" style="fill: #808080; stroke: #000000"/>
     <use xlink:href="#m096bbd59c9" x="55.27633" y="132.669375" style="fill: #808080; stroke: #000000"/>
     <use xlink:href="#m096bbd59c9" x="59.718321" y="116.829375" style="fill: #808080; stroke: #000000"/>
     <use xlink:href="#m096bbd59c9" x="66.551886" y="100.989375" style="fill: #808080; stroke: #000000"/>
     <use xlink:href="#m096bbd59c9" x="70.458072" y="85.149375" style="fill: #808080; stroke: #000000"/>
     <use xlink:href="#m096bbd59c9" x="74.103302" y="69.309375" style="fill: #808080; stroke: #000000"/>
     <use xlink:href="#m096bbd59c9" x="90.01901" y="53.469375" style="fill: #808080; stroke: #000000"/>
     <use xlink:href="#m096bbd59c9" x="140.191667" y="37.629375" style="fill: #808080; stroke: #000000"/>
    </g>
   </g>
   <g id="matplotlib.axis_1">
    <g id="xtick_1">
     <g id="line2d_1">
      <defs>
       <path id="m1d3340dcd1" d="M 0 0 
L 0 3.5 
" style="stroke: #000000; stroke-width: 0.8"/>
      </defs>
      <g>
       <use xlink:href="#m1d3340dcd1" x="18.876562" y="188.109375" style="stroke: #000000; stroke-width: 0.8"/>
      </g>
     </g>
     <g id="text_1">
      <!-- 0.00 -->
      <g transform="translate(7.2 203.69875) scale(0.12 -0.12)">
       <defs>
        <path id="ArialMT-30" d="M 266 2259 
Q 266 3072 433 3567 
Q 600 4063 929 4331 
Q 1259 4600 1759 4600 
Q 2128 4600 2406 4451 
Q 2684 4303 2865 4023 
Q 3047 3744 3150 3342 
Q 3253 2941 3253 2259 
Q 3253 1453 3087 958 
Q 2922 463 2592 192 
Q 2263 -78 1759 -78 
Q 1097 -78 719 397 
Q 266 969 266 2259 
z
M 844 2259 
Q 844 1131 1108 757 
Q 1372 384 1759 384 
Q 2147 384 2411 759 
Q 2675 1134 2675 2259 
Q 2675 3391 2411 3762 
Q 2147 4134 1753 4134 
Q 1366 4134 1134 3806 
Q 844 3388 844 2259 
z
" transform="scale(0.015625)"/>
        <path id="ArialMT-2e" d="M 581 0 
L 581 641 
L 1222 641 
L 1222 0 
L 581 0 
z
" transform="scale(0.015625)"/>
       </defs>
       <use xlink:href="#ArialMT-30"/>
       <use xlink:href="#ArialMT-2e" x="55.615234"/>
       <use xlink:href="#ArialMT-30" x="83.398438"/>
       <use xlink:href="#ArialMT-30" x="139.013672"/>
      </g>
     </g>
    </g>
    <g id="xtick_2">
     <g id="line2d_2">
      <g>
       <use xlink:href="#m1d3340dcd1" x="60.726562" y="188.109375" style="stroke: #000000; stroke-width: 0.8"/>
      </g>
     </g>
     <g id="text_2">
      <!-- 0.05 -->
      <g transform="translate(49.05 203.69875) scale(0.12 -0.12)">
       <defs>
        <path id="ArialMT-35" d="M 266 1200 
L 856 1250 
Q 922 819 1161 601 
Q 1400 384 1738 384 
Q 2144 384 2425 690 
Q 2706 997 2706 1503 
Q 2706 1984 2436 2262 
Q 2166 2541 1728 2541 
Q 1456 2541 1237 2417 
Q 1019 2294 894 2097 
L 366 2166 
L 809 4519 
L 3088 4519 
L 3088 3981 
L 1259 3981 
L 1013 2750 
Q 1425 3038 1878 3038 
Q 2478 3038 2890 2622 
Q 3303 2206 3303 1553 
Q 3303 931 2941 478 
Q 2500 -78 1738 -78 
Q 1113 -78 717 272 
Q 322 622 266 1200 
z
" transform="scale(0.015625)"/>
       </defs>
       <use xlink:href="#ArialMT-30"/>
       <use xlink:href="#ArialMT-2e" x="55.615234"/>
       <use xlink:href="#ArialMT-30" x="83.398438"/>
       <use xlink:href="#ArialMT-35" x="139.013672"/>
      </g>
     </g>
    </g>
    <g id="xtick_3">
     <g id="line2d_3">
      <g>
       <use xlink:href="#m1d3340dcd1" x="102.576562" y="188.109375" style="stroke: #000000; stroke-width: 0.8"/>
      </g>
     </g>
     <g id="text_3">
      <!-- 0.10 -->
      <g transform="translate(90.9 203.69875) scale(0.12 -0.12)">
       <defs>
        <path id="ArialMT-31" d="M 2384 0 
L 1822 0 
L 1822 3584 
Q 1619 3391 1289 3197 
Q 959 3003 697 2906 
L 697 3450 
Q 1169 3672 1522 3987 
Q 1875 4303 2022 4600 
L 2384 4600 
L 2384 0 
z
" transform="scale(0.015625)"/>
       </defs>
       <use xlink:href="#ArialMT-30"/>
       <use xlink:href="#ArialMT-2e" x="55.615234"/>
       <use xlink:href="#ArialMT-31" x="83.398438"/>
       <use xlink:href="#ArialMT-30" x="139.013672"/>
      </g>
     </g>
    </g>
    <g id="xtick_4">
     <g id="line2d_4">
      <g>
       <use xlink:href="#m1d3340dcd1" x="144.426563" y="188.109375" style="stroke: #000000; stroke-width: 0.8"/>
      </g>
     </g>
     <g id="text_4">
      <!-- 0.15 -->
      <g transform="translate(132.75 203.69875) scale(0.12 -0.12)">
       <use xlink:href="#ArialMT-30"/>
       <use xlink:href="#ArialMT-2e" x="55.615234"/>
       <use xlink:href="#ArialMT-31" x="83.398438"/>
       <use xlink:href="#ArialMT-35" x="139.013672"/>
      </g>
     </g>
    </g>
    <g id="xtick_5">
     <g id="line2d_5">
      <g>
       <use xlink:href="#m1d3340dcd1" x="186.276563" y="188.109375" style="stroke: #000000; stroke-width: 0.8"/>
      </g>
     </g>
     <g id="text_5">
      <!-- 0.20 -->
      <g transform="translate(174.6 203.69875) scale(0.12 -0.12)">
       <defs>
        <path id="ArialMT-32" d="M 3222 541 
L 3222 0 
L 194 0 
Q 188 203 259 391 
Q 375 700 629 1000 
Q 884 1300 1366 1694 
Q 2113 2306 2375 2664 
Q 2638 3022 2638 3341 
Q 2638 3675 2398 3904 
Q 2159 4134 1775 4134 
Q 1369 4134 1125 3890 
Q 881 3647 878 3216 
L 300 3275 
Q 359 3922 746 4261 
Q 1134 4600 1788 4600 
Q 2447 4600 2831 4234 
Q 3216 3869 3216 3328 
Q 3216 3053 3103 2787 
Q 2991 2522 2730 2228 
Q 2469 1934 1863 1422 
Q 1356 997 1212 845 
Q 1069 694 975 541 
L 3222 541 
z
" transform="scale(0.015625)"/>
       </defs>
       <use xlink:href="#ArialMT-30"/>
       <use xlink:href="#ArialMT-2e" x="55.615234"/>
       <use xlink:href="#ArialMT-32" x="83.398438"/>
       <use xlink:href="#ArialMT-30" x="139.013672"/>
      </g>
     </g>
    </g>
    <g id="text_6">
     <!-- Feature importance -->
     <g transform="translate(46.898437 218.673125) scale(0.12 -0.12)">
      <defs>
       <path id="Arial-BoldMT-46" d="M 472 0 
L 472 4581 
L 3613 4581 
L 3613 3806 
L 1397 3806 
L 1397 2722 
L 3309 2722 
L 3309 1947 
L 1397 1947 
L 1397 0 
L 472 0 
z
" transform="scale(0.015625)"/>
       <path id="Arial-BoldMT-65" d="M 2381 1056 
L 3256 909 
Q 3088 428 2723 176 
Q 2359 -75 1813 -75 
Q 947 -75 531 491 
Q 203 944 203 1634 
Q 203 2459 634 2926 
Q 1066 3394 1725 3394 
Q 2466 3394 2894 2905 
Q 3322 2416 3303 1406 
L 1103 1406 
Q 1113 1016 1316 798 
Q 1519 581 1822 581 
Q 2028 581 2168 693 
Q 2309 806 2381 1056 
z
M 2431 1944 
Q 2422 2325 2234 2523 
Q 2047 2722 1778 2722 
Q 1491 2722 1303 2513 
Q 1116 2303 1119 1944 
L 2431 1944 
z
" transform="scale(0.015625)"/>
       <path id="Arial-BoldMT-61" d="M 1116 2306 
L 319 2450 
Q 453 2931 781 3162 
Q 1109 3394 1756 3394 
Q 2344 3394 2631 3255 
Q 2919 3116 3036 2902 
Q 3153 2688 3153 2116 
L 3144 1091 
Q 3144 653 3186 445 
Q 3228 238 3344 0 
L 2475 0 
Q 2441 88 2391 259 
Q 2369 338 2359 363 
Q 2134 144 1878 34 
Q 1622 -75 1331 -75 
Q 819 -75 523 203 
Q 228 481 228 906 
Q 228 1188 362 1408 
Q 497 1628 739 1745 
Q 981 1863 1438 1950 
Q 2053 2066 2291 2166 
L 2291 2253 
Q 2291 2506 2166 2614 
Q 2041 2722 1694 2722 
Q 1459 2722 1328 2630 
Q 1197 2538 1116 2306 
z
M 2291 1594 
Q 2122 1538 1756 1459 
Q 1391 1381 1278 1306 
Q 1106 1184 1106 997 
Q 1106 813 1243 678 
Q 1381 544 1594 544 
Q 1831 544 2047 700 
Q 2206 819 2256 991 
Q 2291 1103 2291 1419 
L 2291 1594 
z
" transform="scale(0.015625)"/>
       <path id="Arial-BoldMT-74" d="M 1981 3319 
L 1981 2619 
L 1381 2619 
L 1381 1281 
Q 1381 875 1398 808 
Q 1416 741 1477 697 
Q 1538 653 1625 653 
Q 1747 653 1978 738 
L 2053 56 
Q 1747 -75 1359 -75 
Q 1122 -75 931 4 
Q 741 84 652 211 
Q 563 338 528 553 
Q 500 706 500 1172 
L 500 2619 
L 97 2619 
L 97 3319 
L 500 3319 
L 500 3978 
L 1381 4491 
L 1381 3319 
L 1981 3319 
z
" transform="scale(0.015625)"/>
       <path id="Arial-BoldMT-75" d="M 2644 0 
L 2644 497 
Q 2463 231 2167 78 
Q 1872 -75 1544 -75 
Q 1209 -75 943 72 
Q 678 219 559 484 
Q 441 750 441 1219 
L 441 3319 
L 1319 3319 
L 1319 1794 
Q 1319 1094 1367 936 
Q 1416 778 1544 686 
Q 1672 594 1869 594 
Q 2094 594 2272 717 
Q 2450 841 2515 1023 
Q 2581 1206 2581 1919 
L 2581 3319 
L 3459 3319 
L 3459 0 
L 2644 0 
z
" transform="scale(0.015625)"/>
       <path id="Arial-BoldMT-72" d="M 1300 0 
L 422 0 
L 422 3319 
L 1238 3319 
L 1238 2847 
Q 1447 3181 1614 3287 
Q 1781 3394 1994 3394 
Q 2294 3394 2572 3228 
L 2300 2463 
Q 2078 2606 1888 2606 
Q 1703 2606 1575 2504 
Q 1447 2403 1373 2137 
Q 1300 1872 1300 1025 
L 1300 0 
z
" transform="scale(0.015625)"/>
       <path id="Arial-BoldMT-20" transform="scale(0.015625)"/>
       <path id="Arial-BoldMT-69" d="M 459 3769 
L 459 4581 
L 1338 4581 
L 1338 3769 
L 459 3769 
z
M 459 0 
L 459 3319 
L 1338 3319 
L 1338 0 
L 459 0 
z
" transform="scale(0.015625)"/>
       <path id="Arial-BoldMT-6d" d="M 394 3319 
L 1203 3319 
L 1203 2866 
Q 1638 3394 2238 3394 
Q 2556 3394 2790 3262 
Q 3025 3131 3175 2866 
Q 3394 3131 3647 3262 
Q 3900 3394 4188 3394 
Q 4553 3394 4806 3245 
Q 5059 3097 5184 2809 
Q 5275 2597 5275 2122 
L 5275 0 
L 4397 0 
L 4397 1897 
Q 4397 2391 4306 2534 
Q 4184 2722 3931 2722 
Q 3747 2722 3584 2609 
Q 3422 2497 3350 2280 
Q 3278 2063 3278 1594 
L 3278 0 
L 2400 0 
L 2400 1819 
Q 2400 2303 2353 2443 
Q 2306 2584 2207 2653 
Q 2109 2722 1941 2722 
Q 1738 2722 1575 2612 
Q 1413 2503 1342 2297 
Q 1272 2091 1272 1613 
L 1272 0 
L 394 0 
L 394 3319 
z
" transform="scale(0.015625)"/>
       <path id="Arial-BoldMT-70" d="M 434 3319 
L 1253 3319 
L 1253 2831 
Q 1413 3081 1684 3237 
Q 1956 3394 2288 3394 
Q 2866 3394 3269 2941 
Q 3672 2488 3672 1678 
Q 3672 847 3265 386 
Q 2859 -75 2281 -75 
Q 2006 -75 1782 34 
Q 1559 144 1313 409 
L 1313 -1263 
L 434 -1263 
L 434 3319 
z
M 1303 1716 
Q 1303 1156 1525 889 
Q 1747 622 2066 622 
Q 2372 622 2575 867 
Q 2778 1113 2778 1672 
Q 2778 2194 2568 2447 
Q 2359 2700 2050 2700 
Q 1728 2700 1515 2451 
Q 1303 2203 1303 1716 
z
" transform="scale(0.015625)"/>
       <path id="Arial-BoldMT-6f" d="M 256 1706 
Q 256 2144 472 2553 
Q 688 2963 1083 3178 
Q 1478 3394 1966 3394 
Q 2719 3394 3200 2905 
Q 3681 2416 3681 1669 
Q 3681 916 3195 420 
Q 2709 -75 1972 -75 
Q 1516 -75 1102 131 
Q 688 338 472 736 
Q 256 1134 256 1706 
z
M 1156 1659 
Q 1156 1166 1390 903 
Q 1625 641 1969 641 
Q 2313 641 2545 903 
Q 2778 1166 2778 1666 
Q 2778 2153 2545 2415 
Q 2313 2678 1969 2678 
Q 1625 2678 1390 2415 
Q 1156 2153 1156 1659 
z
" transform="scale(0.015625)"/>
       <path id="Arial-BoldMT-6e" d="M 3478 0 
L 2600 0 
L 2600 1694 
Q 2600 2231 2544 2389 
Q 2488 2547 2361 2634 
Q 2234 2722 2056 2722 
Q 1828 2722 1647 2597 
Q 1466 2472 1398 2265 
Q 1331 2059 1331 1503 
L 1331 0 
L 453 0 
L 453 3319 
L 1269 3319 
L 1269 2831 
Q 1703 3394 2363 3394 
Q 2653 3394 2893 3289 
Q 3134 3184 3257 3021 
Q 3381 2859 3429 2653 
Q 3478 2447 3478 2063 
L 3478 0 
z
" transform="scale(0.015625)"/>
       <path id="Arial-BoldMT-63" d="M 3353 2338 
L 2488 2181 
Q 2444 2441 2289 2572 
Q 2134 2703 1888 2703 
Q 1559 2703 1364 2476 
Q 1169 2250 1169 1719 
Q 1169 1128 1367 884 
Q 1566 641 1900 641 
Q 2150 641 2309 783 
Q 2469 925 2534 1272 
L 3397 1125 
Q 3263 531 2881 228 
Q 2500 -75 1859 -75 
Q 1131 -75 698 384 
Q 266 844 266 1656 
Q 266 2478 700 2936 
Q 1134 3394 1875 3394 
Q 2481 3394 2839 3133 
Q 3197 2872 3353 2338 
z
" transform="scale(0.015625)"/>
      </defs>
      <use xlink:href="#Arial-BoldMT-46"/>
      <use xlink:href="#Arial-BoldMT-65" x="61.083984"/>
      <use xlink:href="#Arial-BoldMT-61" x="116.699219"/>
      <use xlink:href="#Arial-BoldMT-74" x="172.314453"/>
      <use xlink:href="#Arial-BoldMT-75" x="205.615234"/>
      <use xlink:href="#Arial-BoldMT-72" x="266.699219"/>
      <use xlink:href="#Arial-BoldMT-65" x="305.615234"/>
      <use xlink:href="#Arial-BoldMT-20" x="361.230469"/>
      <use xlink:href="#Arial-BoldMT-69" x="389.013672"/>
      <use xlink:href="#Arial-BoldMT-6d" x="416.796875"/>
      <use xlink:href="#Arial-BoldMT-70" x="505.712891"/>
      <use xlink:href="#Arial-BoldMT-6f" x="566.796875"/>
      <use xlink:href="#Arial-BoldMT-72" x="627.880859"/>
      <use xlink:href="#Arial-BoldMT-74" x="666.796875"/>
      <use xlink:href="#Arial-BoldMT-61" x="700.097656"/>
      <use xlink:href="#Arial-BoldMT-6e" x="755.712891"/>
      <use xlink:href="#Arial-BoldMT-63" x="816.796875"/>
      <use xlink:href="#Arial-BoldMT-65" x="872.412109"/>
     </g>
    </g>
   </g>
   <g id="matplotlib.axis_2"/>
   <g id="line2d_6">
    <path d="M 18.876562 180.189375 
L 206.153125 180.189375 
" clip-path="url(#p2a65014e65)" style="fill: none; stroke-dasharray: 3.7,1.6; stroke-dashoffset: 0; stroke: #808080; stroke-opacity: 0.5"/>
   </g>
   <g id="line2d_7">
    <path d="M 18.876562 164.349375 
L 206.153125 164.349375 
" clip-path="url(#p2a65014e65)" style="fill: none; stroke-dasharray: 3.7,1.6; stroke-dashoffset: 0; stroke: #808080; stroke-opacity: 0.5"/>
   </g>
   <g id="line2d_8">
    <path d="M 18.876562 148.509375 
L 206.153125 148.509375 
" clip-path="url(#p2a65014e65)" style="fill: none; stroke-dasharray: 3.7,1.6; stroke-dashoffset: 0; stroke: #808080; stroke-opacity: 0.5"/>
   </g>
   <g id="line2d_9">
    <path d="M 18.876562 132.669375 
L 206.153125 132.669375 
" clip-path="url(#p2a65014e65)" style="fill: none; stroke-dasharray: 3.7,1.6; stroke-dashoffset: 0; stroke: #808080; stroke-opacity: 0.5"/>
   </g>
   <g id="line2d_10">
    <path d="M 18.876562 116.829375 
L 206.153125 116.829375 
" clip-path="url(#p2a65014e65)" style="fill: none; stroke-dasharray: 3.7,1.6; stroke-dashoffset: 0; stroke: #808080; stroke-opacity: 0.5"/>
   </g>
   <g id="line2d_11">
    <path d="M 18.876562 100.989375 
L 206.153125 100.989375 
" clip-path="url(#p2a65014e65)" style="fill: none; stroke-dasharray: 3.7,1.6; stroke-dashoffset: 0; stroke: #808080; stroke-opacity: 0.5"/>
   </g>
   <g id="line2d_12">
    <path d="M 18.876562 85.149375 
L 206.153125 85.149375 
" clip-path="url(#p2a65014e65)" style="fill: none; stroke-dasharray: 3.7,1.6; stroke-dashoffset: 0; stroke: #808080; stroke-opacity: 0.5"/>
   </g>
   <g id="line2d_13">
    <path d="M 18.876562 69.309375 
L 206.153125 69.309375 
" clip-path="url(#p2a65014e65)" style="fill: none; stroke-dasharray: 3.7,1.6; stroke-dashoffset: 0; stroke: #808080; stroke-opacity: 0.5"/>
   </g>
   <g id="line2d_14">
    <path d="M 18.876562 53.469375 
L 206.153125 53.469375 
" clip-path="url(#p2a65014e65)" style="fill: none; stroke-dasharray: 3.7,1.6; stroke-dashoffset: 0; stroke: #808080; stroke-opacity: 0.5"/>
   </g>
   <g id="line2d_15">
    <path d="M 18.876562 37.629375 
L 206.153125 37.629375 
" clip-path="url(#p2a65014e65)" style="fill: none; stroke-dasharray: 3.7,1.6; stroke-dashoffset: 0; stroke: #808080; stroke-opacity: 0.5"/>
   </g>
   <g id="patch_3">
    <path d="M 18.876562 188.109375 
L 18.876562 21.789375 
" style="fill: none; stroke: #000000; stroke-linejoin: miter; stroke-linecap: square"/>
   </g>
   <g id="patch_4">
    <path d="M 186.276563 188.109375 
L 186.276563 21.789375 
" style="fill: none; stroke: #000000; stroke-linejoin: miter; stroke-linecap: square"/>
   </g>
   <g id="patch_5">
    <path d="M 18.876562 188.109375 
L 186.276563 188.109375 
" style="fill: none; stroke: #000000; stroke-linejoin: miter; stroke-linecap: square"/>
   </g>
   <g id="patch_6">
    <path d="M 18.876562 21.789375 
L 186.276563 21.789375 
" style="fill: none; stroke: #000000; stroke-linejoin: miter; stroke-linecap: square"/>
   </g>
   <g id="text_7">
    <!-- serine transport -->
    <g transform="translate(23.061563 176.229375) scale(0.08 -0.08)">
     <defs>
      <path id="ArialMT-73" d="M 197 991 
L 753 1078 
Q 800 744 1014 566 
Q 1228 388 1613 388 
Q 2000 388 2187 545 
Q 2375 703 2375 916 
Q 2375 1106 2209 1216 
Q 2094 1291 1634 1406 
Q 1016 1563 777 1677 
Q 538 1791 414 1992 
Q 291 2194 291 2438 
Q 291 2659 392 2848 
Q 494 3038 669 3163 
Q 800 3259 1026 3326 
Q 1253 3394 1513 3394 
Q 1903 3394 2198 3281 
Q 2494 3169 2634 2976 
Q 2775 2784 2828 2463 
L 2278 2388 
Q 2241 2644 2061 2787 
Q 1881 2931 1553 2931 
Q 1166 2931 1000 2803 
Q 834 2675 834 2503 
Q 834 2394 903 2306 
Q 972 2216 1119 2156 
Q 1203 2125 1616 2013 
Q 2213 1853 2448 1751 
Q 2684 1650 2818 1456 
Q 2953 1263 2953 975 
Q 2953 694 2789 445 
Q 2625 197 2315 61 
Q 2006 -75 1616 -75 
Q 969 -75 630 194 
Q 291 463 197 991 
z
" transform="scale(0.015625)"/>
      <path id="ArialMT-65" d="M 2694 1069 
L 3275 997 
Q 3138 488 2766 206 
Q 2394 -75 1816 -75 
Q 1088 -75 661 373 
Q 234 822 234 1631 
Q 234 2469 665 2931 
Q 1097 3394 1784 3394 
Q 2450 3394 2872 2941 
Q 3294 2488 3294 1666 
Q 3294 1616 3291 1516 
L 816 1516 
Q 847 969 1125 678 
Q 1403 388 1819 388 
Q 2128 388 2347 550 
Q 2566 713 2694 1069 
z
M 847 1978 
L 2700 1978 
Q 2663 2397 2488 2606 
Q 2219 2931 1791 2931 
Q 1403 2931 1139 2672 
Q 875 2413 847 1978 
z
" transform="scale(0.015625)"/>
      <path id="ArialMT-72" d="M 416 0 
L 416 3319 
L 922 3319 
L 922 2816 
Q 1116 3169 1280 3281 
Q 1444 3394 1641 3394 
Q 1925 3394 2219 3213 
L 2025 2691 
Q 1819 2813 1613 2813 
Q 1428 2813 1281 2702 
Q 1134 2591 1072 2394 
Q 978 2094 978 1738 
L 978 0 
L 416 0 
z
" transform="scale(0.015625)"/>
      <path id="ArialMT-69" d="M 425 3934 
L 425 4581 
L 988 4581 
L 988 3934 
L 425 3934 
z
M 425 0 
L 425 3319 
L 988 3319 
L 988 0 
L 425 0 
z
" transform="scale(0.015625)"/>
      <path id="ArialMT-6e" d="M 422 0 
L 422 3319 
L 928 3319 
L 928 2847 
Q 1294 3394 1984 3394 
Q 2284 3394 2536 3286 
Q 2788 3178 2913 3003 
Q 3038 2828 3088 2588 
Q 3119 2431 3119 2041 
L 3119 0 
L 2556 0 
L 2556 2019 
Q 2556 2363 2490 2533 
Q 2425 2703 2258 2804 
Q 2091 2906 1866 2906 
Q 1506 2906 1245 2678 
Q 984 2450 984 1813 
L 984 0 
L 422 0 
z
" transform="scale(0.015625)"/>
      <path id="ArialMT-20" transform="scale(0.015625)"/>
      <path id="ArialMT-74" d="M 1650 503 
L 1731 6 
Q 1494 -44 1306 -44 
Q 1000 -44 831 53 
Q 663 150 594 308 
Q 525 466 525 972 
L 525 2881 
L 113 2881 
L 113 3319 
L 525 3319 
L 525 4141 
L 1084 4478 
L 1084 3319 
L 1650 3319 
L 1650 2881 
L 1084 2881 
L 1084 941 
Q 1084 700 1114 631 
Q 1144 563 1211 522 
Q 1278 481 1403 481 
Q 1497 481 1650 503 
z
" transform="scale(0.015625)"/>
      <path id="ArialMT-61" d="M 2588 409 
Q 2275 144 1986 34 
Q 1697 -75 1366 -75 
Q 819 -75 525 192 
Q 231 459 231 875 
Q 231 1119 342 1320 
Q 453 1522 633 1644 
Q 813 1766 1038 1828 
Q 1203 1872 1538 1913 
Q 2219 1994 2541 2106 
Q 2544 2222 2544 2253 
Q 2544 2597 2384 2738 
Q 2169 2928 1744 2928 
Q 1347 2928 1158 2789 
Q 969 2650 878 2297 
L 328 2372 
Q 403 2725 575 2942 
Q 747 3159 1072 3276 
Q 1397 3394 1825 3394 
Q 2250 3394 2515 3294 
Q 2781 3194 2906 3042 
Q 3031 2891 3081 2659 
Q 3109 2516 3109 2141 
L 3109 1391 
Q 3109 606 3145 398 
Q 3181 191 3288 0 
L 2700 0 
Q 2613 175 2588 409 
z
M 2541 1666 
Q 2234 1541 1622 1453 
Q 1275 1403 1131 1340 
Q 988 1278 909 1158 
Q 831 1038 831 891 
Q 831 666 1001 516 
Q 1172 366 1500 366 
Q 1825 366 2078 508 
Q 2331 650 2450 897 
Q 2541 1088 2541 1459 
L 2541 1666 
z
" transform="scale(0.015625)"/>
      <path id="ArialMT-70" d="M 422 -1272 
L 422 3319 
L 934 3319 
L 934 2888 
Q 1116 3141 1344 3267 
Q 1572 3394 1897 3394 
Q 2322 3394 2647 3175 
Q 2972 2956 3137 2557 
Q 3303 2159 3303 1684 
Q 3303 1175 3120 767 
Q 2938 359 2589 142 
Q 2241 -75 1856 -75 
Q 1575 -75 1351 44 
Q 1128 163 984 344 
L 984 -1272 
L 422 -1272 
z
M 931 1641 
Q 931 1000 1190 694 
Q 1450 388 1819 388 
Q 2194 388 2461 705 
Q 2728 1022 2728 1688 
Q 2728 2322 2467 2637 
Q 2206 2953 1844 2953 
Q 1484 2953 1207 2617 
Q 931 2281 931 1641 
z
" transform="scale(0.015625)"/>
      <path id="ArialMT-6f" d="M 213 1659 
Q 213 2581 725 3025 
Q 1153 3394 1769 3394 
Q 2453 3394 2887 2945 
Q 3322 2497 3322 1706 
Q 3322 1066 3130 698 
Q 2938 331 2570 128 
Q 2203 -75 1769 -75 
Q 1072 -75 642 372 
Q 213 819 213 1659 
z
M 791 1659 
Q 791 1022 1069 705 
Q 1347 388 1769 388 
Q 2188 388 2466 706 
Q 2744 1025 2744 1678 
Q 2744 2294 2464 2611 
Q 2184 2928 1769 2928 
Q 1347 2928 1069 2612 
Q 791 2297 791 1659 
z
" transform="scale(0.015625)"/>
     </defs>
     <use xlink:href="#ArialMT-73"/>
     <use xlink:href="#ArialMT-65" x="50"/>
     <use xlink:href="#ArialMT-72" x="105.615234"/>
     <use xlink:href="#ArialMT-69" x="138.916016"/>
     <use xlink:href="#ArialMT-6e" x="161.132812"/>
     <use xlink:href="#ArialMT-65" x="216.748047"/>
     <use xlink:href="#ArialMT-20" x="272.363281"/>
     <use xlink:href="#ArialMT-74" x="300.146484"/>
     <use xlink:href="#ArialMT-72" x="327.929688"/>
     <use xlink:href="#ArialMT-61" x="361.230469"/>
     <use xlink:href="#ArialMT-6e" x="416.845703"/>
     <use xlink:href="#ArialMT-73" x="472.460938"/>
     <use xlink:href="#ArialMT-70" x="522.460938"/>
     <use xlink:href="#ArialMT-6f" x="578.076172"/>
     <use xlink:href="#ArialMT-72" x="633.691406"/>
     <use xlink:href="#ArialMT-74" x="666.992188"/>
    </g>
   </g>
   <g id="text_8">
    <!-- inorganic diphosphatase -->
    <g transform="translate(23.061563 160.389375) scale(0.08 -0.08)">
     <defs>
      <path id="ArialMT-67" d="M 319 -275 
L 866 -356 
Q 900 -609 1056 -725 
Q 1266 -881 1628 -881 
Q 2019 -881 2231 -725 
Q 2444 -569 2519 -288 
Q 2563 -116 2559 434 
Q 2191 0 1641 0 
Q 956 0 581 494 
Q 206 988 206 1678 
Q 206 2153 378 2554 
Q 550 2956 876 3175 
Q 1203 3394 1644 3394 
Q 2231 3394 2613 2919 
L 2613 3319 
L 3131 3319 
L 3131 450 
Q 3131 -325 2973 -648 
Q 2816 -972 2473 -1159 
Q 2131 -1347 1631 -1347 
Q 1038 -1347 672 -1080 
Q 306 -813 319 -275 
z
M 784 1719 
Q 784 1066 1043 766 
Q 1303 466 1694 466 
Q 2081 466 2343 764 
Q 2606 1063 2606 1700 
Q 2606 2309 2336 2618 
Q 2066 2928 1684 2928 
Q 1309 2928 1046 2623 
Q 784 2319 784 1719 
z
" transform="scale(0.015625)"/>
      <path id="ArialMT-63" d="M 2588 1216 
L 3141 1144 
Q 3050 572 2676 248 
Q 2303 -75 1759 -75 
Q 1078 -75 664 370 
Q 250 816 250 1647 
Q 250 2184 428 2587 
Q 606 2991 970 3192 
Q 1334 3394 1763 3394 
Q 2303 3394 2647 3120 
Q 2991 2847 3088 2344 
L 2541 2259 
Q 2463 2594 2264 2762 
Q 2066 2931 1784 2931 
Q 1359 2931 1093 2626 
Q 828 2322 828 1663 
Q 828 994 1084 691 
Q 1341 388 1753 388 
Q 2084 388 2306 591 
Q 2528 794 2588 1216 
z
" transform="scale(0.015625)"/>
      <path id="ArialMT-64" d="M 2575 0 
L 2575 419 
Q 2259 -75 1647 -75 
Q 1250 -75 917 144 
Q 584 363 401 755 
Q 219 1147 219 1656 
Q 219 2153 384 2558 
Q 550 2963 881 3178 
Q 1213 3394 1622 3394 
Q 1922 3394 2156 3267 
Q 2391 3141 2538 2938 
L 2538 4581 
L 3097 4581 
L 3097 0 
L 2575 0 
z
M 797 1656 
Q 797 1019 1065 703 
Q 1334 388 1700 388 
Q 2069 388 2326 689 
Q 2584 991 2584 1609 
Q 2584 2291 2321 2609 
Q 2059 2928 1675 2928 
Q 1300 2928 1048 2622 
Q 797 2316 797 1656 
z
" transform="scale(0.015625)"/>
      <path id="ArialMT-68" d="M 422 0 
L 422 4581 
L 984 4581 
L 984 2938 
Q 1378 3394 1978 3394 
Q 2347 3394 2619 3248 
Q 2891 3103 3008 2847 
Q 3125 2591 3125 2103 
L 3125 0 
L 2563 0 
L 2563 2103 
Q 2563 2525 2380 2717 
Q 2197 2909 1863 2909 
Q 1613 2909 1392 2779 
Q 1172 2650 1078 2428 
Q 984 2206 984 1816 
L 984 0 
L 422 0 
z
" transform="scale(0.015625)"/>
     </defs>
     <use xlink:href="#ArialMT-69"/>
     <use xlink:href="#ArialMT-6e" x="22.216797"/>
     <use xlink:href="#ArialMT-6f" x="77.832031"/>
     <use xlink:href="#ArialMT-72" x="133.447266"/>
     <use xlink:href="#ArialMT-67" x="166.748047"/>
     <use xlink:href="#ArialMT-61" x="222.363281"/>
     <use xlink:href="#ArialMT-6e" x="277.978516"/>
     <use xlink:href="#ArialMT-69" x="333.59375"/>
     <use xlink:href="#ArialMT-63" x="355.810547"/>
     <use xlink:href="#ArialMT-20" x="405.810547"/>
     <use xlink:href="#ArialMT-64" x="433.59375"/>
     <use xlink:href="#ArialMT-69" x="489.208984"/>
     <use xlink:href="#ArialMT-70" x="511.425781"/>
     <use xlink:href="#ArialMT-68" x="567.041016"/>
     <use xlink:href="#ArialMT-6f" x="622.65625"/>
     <use xlink:href="#ArialMT-73" x="678.271484"/>
     <use xlink:href="#ArialMT-70" x="728.271484"/>
     <use xlink:href="#ArialMT-68" x="783.886719"/>
     <use xlink:href="#ArialMT-61" x="839.501953"/>
     <use xlink:href="#ArialMT-74" x="895.117188"/>
     <use xlink:href="#ArialMT-61" x="922.900391"/>
     <use xlink:href="#ArialMT-73" x="978.515625"/>
     <use xlink:href="#ArialMT-65" x="1028.515625"/>
    </g>
   </g>
   <g id="text_9">
    <!-- 3-methyl-2-oxopentanoate transport -->
    <g transform="translate(23.061563 144.549375) scale(0.08 -0.08)">
     <defs>
      <path id="ArialMT-33" d="M 269 1209 
L 831 1284 
Q 928 806 1161 595 
Q 1394 384 1728 384 
Q 2125 384 2398 659 
Q 2672 934 2672 1341 
Q 2672 1728 2419 1979 
Q 2166 2231 1775 2231 
Q 1616 2231 1378 2169 
L 1441 2663 
Q 1497 2656 1531 2656 
Q 1891 2656 2178 2843 
Q 2466 3031 2466 3422 
Q 2466 3731 2256 3934 
Q 2047 4138 1716 4138 
Q 1388 4138 1169 3931 
Q 950 3725 888 3313 
L 325 3413 
Q 428 3978 793 4289 
Q 1159 4600 1703 4600 
Q 2078 4600 2393 4439 
Q 2709 4278 2876 4000 
Q 3044 3722 3044 3409 
Q 3044 3113 2884 2869 
Q 2725 2625 2413 2481 
Q 2819 2388 3044 2092 
Q 3269 1797 3269 1353 
Q 3269 753 2831 336 
Q 2394 -81 1725 -81 
Q 1122 -81 723 278 
Q 325 638 269 1209 
z
" transform="scale(0.015625)"/>
      <path id="ArialMT-2d" d="M 203 1375 
L 203 1941 
L 1931 1941 
L 1931 1375 
L 203 1375 
z
" transform="scale(0.015625)"/>
      <path id="ArialMT-6d" d="M 422 0 
L 422 3319 
L 925 3319 
L 925 2853 
Q 1081 3097 1340 3245 
Q 1600 3394 1931 3394 
Q 2300 3394 2536 3241 
Q 2772 3088 2869 2813 
Q 3263 3394 3894 3394 
Q 4388 3394 4653 3120 
Q 4919 2847 4919 2278 
L 4919 0 
L 4359 0 
L 4359 2091 
Q 4359 2428 4304 2576 
Q 4250 2725 4106 2815 
Q 3963 2906 3769 2906 
Q 3419 2906 3187 2673 
Q 2956 2441 2956 1928 
L 2956 0 
L 2394 0 
L 2394 2156 
Q 2394 2531 2256 2718 
Q 2119 2906 1806 2906 
Q 1569 2906 1367 2781 
Q 1166 2656 1075 2415 
Q 984 2175 984 1722 
L 984 0 
L 422 0 
z
" transform="scale(0.015625)"/>
      <path id="ArialMT-79" d="M 397 -1278 
L 334 -750 
Q 519 -800 656 -800 
Q 844 -800 956 -737 
Q 1069 -675 1141 -563 
Q 1194 -478 1313 -144 
Q 1328 -97 1363 -6 
L 103 3319 
L 709 3319 
L 1400 1397 
Q 1534 1031 1641 628 
Q 1738 1016 1872 1384 
L 2581 3319 
L 3144 3319 
L 1881 -56 
Q 1678 -603 1566 -809 
Q 1416 -1088 1222 -1217 
Q 1028 -1347 759 -1347 
Q 597 -1347 397 -1278 
z
" transform="scale(0.015625)"/>
      <path id="ArialMT-6c" d="M 409 0 
L 409 4581 
L 972 4581 
L 972 0 
L 409 0 
z
" transform="scale(0.015625)"/>
      <path id="ArialMT-78" d="M 47 0 
L 1259 1725 
L 138 3319 
L 841 3319 
L 1350 2541 
Q 1494 2319 1581 2169 
Q 1719 2375 1834 2534 
L 2394 3319 
L 3066 3319 
L 1919 1756 
L 3153 0 
L 2463 0 
L 1781 1031 
L 1600 1309 
L 728 0 
L 47 0 
z
" transform="scale(0.015625)"/>
     </defs>
     <use xlink:href="#ArialMT-33"/>
     <use xlink:href="#ArialMT-2d" x="55.615234"/>
     <use xlink:href="#ArialMT-6d" x="88.916016"/>
     <use xlink:href="#ArialMT-65" x="172.216797"/>
     <use xlink:href="#ArialMT-74" x="227.832031"/>
     <use xlink:href="#ArialMT-68" x="255.615234"/>
     <use xlink:href="#ArialMT-79" x="311.230469"/>
     <use xlink:href="#ArialMT-6c" x="361.230469"/>
     <use xlink:href="#ArialMT-2d" x="383.447266"/>
     <use xlink:href="#ArialMT-32" x="416.748047"/>
     <use xlink:href="#ArialMT-2d" x="472.363281"/>
     <use xlink:href="#ArialMT-6f" x="505.664062"/>
     <use xlink:href="#ArialMT-78" x="561.279297"/>
     <use xlink:href="#ArialMT-6f" x="611.279297"/>
     <use xlink:href="#ArialMT-70" x="666.894531"/>
     <use xlink:href="#ArialMT-65" x="722.509766"/>
     <use xlink:href="#ArialMT-6e" x="778.125"/>
     <use xlink:href="#ArialMT-74" x="833.740234"/>
     <use xlink:href="#ArialMT-61" x="861.523438"/>
     <use xlink:href="#ArialMT-6e" x="917.138672"/>
     <use xlink:href="#ArialMT-6f" x="972.753906"/>
     <use xlink:href="#ArialMT-61" x="1028.369141"/>
     <use xlink:href="#ArialMT-74" x="1083.984375"/>
     <use xlink:href="#ArialMT-65" x="1111.767578"/>
     <use xlink:href="#ArialMT-20" x="1167.382812"/>
     <use xlink:href="#ArialMT-74" x="1195.166016"/>
     <use xlink:href="#ArialMT-72" x="1222.949219"/>
     <use xlink:href="#ArialMT-61" x="1256.25"/>
     <use xlink:href="#ArialMT-6e" x="1311.865234"/>
     <use xlink:href="#ArialMT-73" x="1367.480469"/>
     <use xlink:href="#ArialMT-70" x="1417.480469"/>
     <use xlink:href="#ArialMT-6f" x="1473.095703"/>
     <use xlink:href="#ArialMT-72" x="1528.710938"/>
     <use xlink:href="#ArialMT-74" x="1562.011719"/>
    </g>
   </g>
   <g id="text_10">
    <!-- GMP synthase -->
    <g transform="translate(23.061563 128.709375) scale(0.08 -0.08)">
     <defs>
      <path id="ArialMT-47" d="M 2638 1797 
L 2638 2334 
L 4578 2338 
L 4578 638 
Q 4131 281 3656 101 
Q 3181 -78 2681 -78 
Q 2006 -78 1454 211 
Q 903 500 622 1047 
Q 341 1594 341 2269 
Q 341 2938 620 3517 
Q 900 4097 1425 4378 
Q 1950 4659 2634 4659 
Q 3131 4659 3532 4498 
Q 3934 4338 4162 4050 
Q 4391 3763 4509 3300 
L 3963 3150 
Q 3859 3500 3706 3700 
Q 3553 3900 3268 4020 
Q 2984 4141 2638 4141 
Q 2222 4141 1919 4014 
Q 1616 3888 1430 3681 
Q 1244 3475 1141 3228 
Q 966 2803 966 2306 
Q 966 1694 1177 1281 
Q 1388 869 1791 669 
Q 2194 469 2647 469 
Q 3041 469 3416 620 
Q 3791 772 3984 944 
L 3984 1797 
L 2638 1797 
z
" transform="scale(0.015625)"/>
      <path id="ArialMT-4d" d="M 475 0 
L 475 4581 
L 1388 4581 
L 2472 1338 
Q 2622 884 2691 659 
Q 2769 909 2934 1394 
L 4031 4581 
L 4847 4581 
L 4847 0 
L 4263 0 
L 4263 3834 
L 2931 0 
L 2384 0 
L 1059 3900 
L 1059 0 
L 475 0 
z
" transform="scale(0.015625)"/>
      <path id="ArialMT-50" d="M 494 0 
L 494 4581 
L 2222 4581 
Q 2678 4581 2919 4538 
Q 3256 4481 3484 4323 
Q 3713 4166 3852 3881 
Q 3991 3597 3991 3256 
Q 3991 2672 3619 2267 
Q 3247 1863 2275 1863 
L 1100 1863 
L 1100 0 
L 494 0 
z
M 1100 2403 
L 2284 2403 
Q 2872 2403 3119 2622 
Q 3366 2841 3366 3238 
Q 3366 3525 3220 3729 
Q 3075 3934 2838 4000 
Q 2684 4041 2272 4041 
L 1100 4041 
L 1100 2403 
z
" transform="scale(0.015625)"/>
     </defs>
     <use xlink:href="#ArialMT-47"/>
     <use xlink:href="#ArialMT-4d" x="77.783203"/>
     <use xlink:href="#ArialMT-50" x="161.083984"/>
     <use xlink:href="#ArialMT-20" x="226.033203"/>
     <use xlink:href="#ArialMT-73" x="253.816406"/>
     <use xlink:href="#ArialMT-79" x="303.816406"/>
     <use xlink:href="#ArialMT-6e" x="353.816406"/>
     <use xlink:href="#ArialMT-74" x="409.431641"/>
     <use xlink:href="#ArialMT-68" x="437.214844"/>
     <use xlink:href="#ArialMT-61" x="492.830078"/>
     <use xlink:href="#ArialMT-73" x="548.445312"/>
     <use xlink:href="#ArialMT-65" x="598.445312"/>
    </g>
   </g>
   <g id="text_11">
    <!-- CTP transport, cytoplasm-ER membrane -->
    <g transform="translate(23.061563 112.869375) scale(0.08 -0.08)">
     <defs>
      <path id="ArialMT-43" d="M 3763 1606 
L 4369 1453 
Q 4178 706 3683 314 
Q 3188 -78 2472 -78 
Q 1731 -78 1267 223 
Q 803 525 561 1097 
Q 319 1669 319 2325 
Q 319 3041 592 3573 
Q 866 4106 1370 4382 
Q 1875 4659 2481 4659 
Q 3169 4659 3637 4309 
Q 4106 3959 4291 3325 
L 3694 3184 
Q 3534 3684 3231 3912 
Q 2928 4141 2469 4141 
Q 1941 4141 1586 3887 
Q 1231 3634 1087 3207 
Q 944 2781 944 2328 
Q 944 1744 1114 1308 
Q 1284 872 1643 656 
Q 2003 441 2422 441 
Q 2931 441 3284 734 
Q 3638 1028 3763 1606 
z
" transform="scale(0.015625)"/>
      <path id="ArialMT-54" d="M 1659 0 
L 1659 4041 
L 150 4041 
L 150 4581 
L 3781 4581 
L 3781 4041 
L 2266 4041 
L 2266 0 
L 1659 0 
z
" transform="scale(0.015625)"/>
      <path id="ArialMT-2c" d="M 569 0 
L 569 641 
L 1209 641 
L 1209 0 
Q 1209 -353 1084 -570 
Q 959 -788 688 -906 
L 531 -666 
Q 709 -588 793 -436 
Q 878 -284 888 0 
L 569 0 
z
" transform="scale(0.015625)"/>
      <path id="ArialMT-45" d="M 506 0 
L 506 4581 
L 3819 4581 
L 3819 4041 
L 1113 4041 
L 1113 2638 
L 3647 2638 
L 3647 2100 
L 1113 2100 
L 1113 541 
L 3925 541 
L 3925 0 
L 506 0 
z
" transform="scale(0.015625)"/>
      <path id="ArialMT-52" d="M 503 0 
L 503 4581 
L 2534 4581 
Q 3147 4581 3465 4457 
Q 3784 4334 3975 4021 
Q 4166 3709 4166 3331 
Q 4166 2844 3850 2509 
Q 3534 2175 2875 2084 
Q 3116 1969 3241 1856 
Q 3506 1613 3744 1247 
L 4541 0 
L 3778 0 
L 3172 953 
Q 2906 1366 2734 1584 
Q 2563 1803 2427 1890 
Q 2291 1978 2150 2013 
Q 2047 2034 1813 2034 
L 1109 2034 
L 1109 0 
L 503 0 
z
M 1109 2559 
L 2413 2559 
Q 2828 2559 3062 2645 
Q 3297 2731 3419 2920 
Q 3541 3109 3541 3331 
Q 3541 3656 3305 3865 
Q 3069 4075 2559 4075 
L 1109 4075 
L 1109 2559 
z
" transform="scale(0.015625)"/>
      <path id="ArialMT-62" d="M 941 0 
L 419 0 
L 419 4581 
L 981 4581 
L 981 2947 
Q 1338 3394 1891 3394 
Q 2197 3394 2470 3270 
Q 2744 3147 2920 2923 
Q 3097 2700 3197 2384 
Q 3297 2069 3297 1709 
Q 3297 856 2875 390 
Q 2453 -75 1863 -75 
Q 1275 -75 941 416 
L 941 0 
z
M 934 1684 
Q 934 1088 1097 822 
Q 1363 388 1816 388 
Q 2184 388 2453 708 
Q 2722 1028 2722 1663 
Q 2722 2313 2464 2622 
Q 2206 2931 1841 2931 
Q 1472 2931 1203 2611 
Q 934 2291 934 1684 
z
" transform="scale(0.015625)"/>
     </defs>
     <use xlink:href="#ArialMT-43"/>
     <use xlink:href="#ArialMT-54" x="72.216797"/>
     <use xlink:href="#ArialMT-50" x="133.300781"/>
     <use xlink:href="#ArialMT-20" x="198.25"/>
     <use xlink:href="#ArialMT-74" x="226.033203"/>
     <use xlink:href="#ArialMT-72" x="253.816406"/>
     <use xlink:href="#ArialMT-61" x="287.117188"/>
     <use xlink:href="#ArialMT-6e" x="342.732422"/>
     <use xlink:href="#ArialMT-73" x="398.347656"/>
     <use xlink:href="#ArialMT-70" x="448.347656"/>
     <use xlink:href="#ArialMT-6f" x="503.962891"/>
     <use xlink:href="#ArialMT-72" x="559.578125"/>
     <use xlink:href="#ArialMT-74" x="592.878906"/>
     <use xlink:href="#ArialMT-2c" x="620.662109"/>
     <use xlink:href="#ArialMT-20" x="648.445312"/>
     <use xlink:href="#ArialMT-63" x="676.228516"/>
     <use xlink:href="#ArialMT-79" x="726.228516"/>
     <use xlink:href="#ArialMT-74" x="776.228516"/>
     <use xlink:href="#ArialMT-6f" x="804.011719"/>
     <use xlink:href="#ArialMT-70" x="859.626953"/>
     <use xlink:href="#ArialMT-6c" x="915.242188"/>
     <use xlink:href="#ArialMT-61" x="937.458984"/>
     <use xlink:href="#ArialMT-73" x="993.074219"/>
     <use xlink:href="#ArialMT-6d" x="1043.074219"/>
     <use xlink:href="#ArialMT-2d" x="1126.375"/>
     <use xlink:href="#ArialMT-45" x="1159.675781"/>
     <use xlink:href="#ArialMT-52" x="1226.375"/>
     <use xlink:href="#ArialMT-20" x="1298.591797"/>
     <use xlink:href="#ArialMT-6d" x="1326.375"/>
     <use xlink:href="#ArialMT-65" x="1409.675781"/>
     <use xlink:href="#ArialMT-6d" x="1465.291016"/>
     <use xlink:href="#ArialMT-62" x="1548.591797"/>
     <use xlink:href="#ArialMT-72" x="1604.207031"/>
     <use xlink:href="#ArialMT-61" x="1637.507812"/>
     <use xlink:href="#ArialMT-6e" x="1693.123047"/>
     <use xlink:href="#ArialMT-65" x="1748.738281"/>
    </g>
   </g>
   <g id="text_12">
    <!-- ADP transport -->
    <g transform="translate(23.061563 97.029375) scale(0.08 -0.08)">
     <defs>
      <path id="ArialMT-41" d="M -9 0 
L 1750 4581 
L 2403 4581 
L 4278 0 
L 3588 0 
L 3053 1388 
L 1138 1388 
L 634 0 
L -9 0 
z
M 1313 1881 
L 2866 1881 
L 2388 3150 
Q 2169 3728 2063 4100 
Q 1975 3659 1816 3225 
L 1313 1881 
z
" transform="scale(0.015625)"/>
      <path id="ArialMT-44" d="M 494 0 
L 494 4581 
L 2072 4581 
Q 2606 4581 2888 4516 
Q 3281 4425 3559 4188 
Q 3922 3881 4101 3404 
Q 4281 2928 4281 2316 
Q 4281 1794 4159 1391 
Q 4038 988 3847 723 
Q 3656 459 3429 307 
Q 3203 156 2883 78 
Q 2563 0 2147 0 
L 494 0 
z
M 1100 541 
L 2078 541 
Q 2531 541 2789 625 
Q 3047 709 3200 863 
Q 3416 1078 3536 1442 
Q 3656 1806 3656 2325 
Q 3656 3044 3420 3430 
Q 3184 3816 2847 3947 
Q 2603 4041 2063 4041 
L 1100 4041 
L 1100 541 
z
" transform="scale(0.015625)"/>
     </defs>
     <use xlink:href="#ArialMT-41"/>
     <use xlink:href="#ArialMT-44" x="66.699219"/>
     <use xlink:href="#ArialMT-50" x="138.916016"/>
     <use xlink:href="#ArialMT-20" x="203.865234"/>
     <use xlink:href="#ArialMT-74" x="231.648438"/>
     <use xlink:href="#ArialMT-72" x="259.431641"/>
     <use xlink:href="#ArialMT-61" x="292.732422"/>
     <use xlink:href="#ArialMT-6e" x="348.347656"/>
     <use xlink:href="#ArialMT-73" x="403.962891"/>
     <use xlink:href="#ArialMT-70" x="453.962891"/>
     <use xlink:href="#ArialMT-6f" x="509.578125"/>
     <use xlink:href="#ArialMT-72" x="565.193359"/>
     <use xlink:href="#ArialMT-74" x="598.494141"/>
    </g>
   </g>
   <g id="text_13">
    <!-- water diffusion -->
    <g transform="translate(23.061563 81.189375) scale(0.08 -0.08)">
     <defs>
      <path id="ArialMT-77" d="M 1034 0 
L 19 3319 
L 600 3319 
L 1128 1403 
L 1325 691 
Q 1338 744 1497 1375 
L 2025 3319 
L 2603 3319 
L 3100 1394 
L 3266 759 
L 3456 1400 
L 4025 3319 
L 4572 3319 
L 3534 0 
L 2950 0 
L 2422 1988 
L 2294 2553 
L 1622 0 
L 1034 0 
z
" transform="scale(0.015625)"/>
      <path id="ArialMT-66" d="M 556 0 
L 556 2881 
L 59 2881 
L 59 3319 
L 556 3319 
L 556 3672 
Q 556 4006 616 4169 
Q 697 4388 901 4523 
Q 1106 4659 1475 4659 
Q 1713 4659 2000 4603 
L 1916 4113 
Q 1741 4144 1584 4144 
Q 1328 4144 1222 4034 
Q 1116 3925 1116 3625 
L 1116 3319 
L 1763 3319 
L 1763 2881 
L 1116 2881 
L 1116 0 
L 556 0 
z
" transform="scale(0.015625)"/>
      <path id="ArialMT-75" d="M 2597 0 
L 2597 488 
Q 2209 -75 1544 -75 
Q 1250 -75 995 37 
Q 741 150 617 320 
Q 494 491 444 738 
Q 409 903 409 1263 
L 409 3319 
L 972 3319 
L 972 1478 
Q 972 1038 1006 884 
Q 1059 663 1231 536 
Q 1403 409 1656 409 
Q 1909 409 2131 539 
Q 2353 669 2445 892 
Q 2538 1116 2538 1541 
L 2538 3319 
L 3100 3319 
L 3100 0 
L 2597 0 
z
" transform="scale(0.015625)"/>
     </defs>
     <use xlink:href="#ArialMT-77"/>
     <use xlink:href="#ArialMT-61" x="72.216797"/>
     <use xlink:href="#ArialMT-74" x="127.832031"/>
     <use xlink:href="#ArialMT-65" x="155.615234"/>
     <use xlink:href="#ArialMT-72" x="211.230469"/>
     <use xlink:href="#ArialMT-20" x="244.53125"/>
     <use xlink:href="#ArialMT-64" x="272.314453"/>
     <use xlink:href="#ArialMT-69" x="327.929688"/>
     <use xlink:href="#ArialMT-66" x="350.146484"/>
     <use xlink:href="#ArialMT-66" x="376.179688"/>
     <use xlink:href="#ArialMT-75" x="403.962891"/>
     <use xlink:href="#ArialMT-73" x="459.578125"/>
     <use xlink:href="#ArialMT-69" x="509.578125"/>
     <use xlink:href="#ArialMT-6f" x="531.794922"/>
     <use xlink:href="#ArialMT-6e" x="587.410156"/>
    </g>
   </g>
   <g id="text_14">
    <!-- phosphate transport -->
    <g transform="translate(23.061563 65.349375) scale(0.08 -0.08)">
     <use xlink:href="#ArialMT-70"/>
     <use xlink:href="#ArialMT-68" x="55.615234"/>
     <use xlink:href="#ArialMT-6f" x="111.230469"/>
     <use xlink:href="#ArialMT-73" x="166.845703"/>
     <use xlink:href="#ArialMT-70" x="216.845703"/>
     <use xlink:href="#ArialMT-68" x="272.460938"/>
     <use xlink:href="#ArialMT-61" x="328.076172"/>
     <use xlink:href="#ArialMT-74" x="383.691406"/>
     <use xlink:href="#ArialMT-65" x="411.474609"/>
     <use xlink:href="#ArialMT-20" x="467.089844"/>
     <use xlink:href="#ArialMT-74" x="494.873047"/>
     <use xlink:href="#ArialMT-72" x="522.65625"/>
     <use xlink:href="#ArialMT-61" x="555.957031"/>
     <use xlink:href="#ArialMT-6e" x="611.572266"/>
     <use xlink:href="#ArialMT-73" x="667.1875"/>
     <use xlink:href="#ArialMT-70" x="717.1875"/>
     <use xlink:href="#ArialMT-6f" x="772.802734"/>
     <use xlink:href="#ArialMT-72" x="828.417969"/>
     <use xlink:href="#ArialMT-74" x="861.71875"/>
    </g>
   </g>
   <g id="text_15">
    <!-- 1-acyl-glycerol-3-phosphate acyltransferase -->
    <g transform="translate(23.061563 49.509375) scale(0.08 -0.08)">
     <use xlink:href="#ArialMT-31"/>
     <use xlink:href="#ArialMT-2d" x="55.615234"/>
     <use xlink:href="#ArialMT-61" x="88.916016"/>
     <use xlink:href="#ArialMT-63" x="144.53125"/>
     <use xlink:href="#ArialMT-79" x="194.53125"/>
     <use xlink:href="#ArialMT-6c" x="244.53125"/>
     <use xlink:href="#ArialMT-2d" x="266.748047"/>
     <use xlink:href="#ArialMT-67" x="300.048828"/>
     <use xlink:href="#ArialMT-6c" x="355.664062"/>
     <use xlink:href="#ArialMT-79" x="377.880859"/>
     <use xlink:href="#ArialMT-63" x="427.880859"/>
     <use xlink:href="#ArialMT-65" x="477.880859"/>
     <use xlink:href="#ArialMT-72" x="533.496094"/>
     <use xlink:href="#ArialMT-6f" x="566.796875"/>
     <use xlink:href="#ArialMT-6c" x="622.412109"/>
     <use xlink:href="#ArialMT-2d" x="644.628906"/>
     <use xlink:href="#ArialMT-33" x="677.929688"/>
     <use xlink:href="#ArialMT-2d" x="733.544922"/>
     <use xlink:href="#ArialMT-70" x="766.845703"/>
     <use xlink:href="#ArialMT-68" x="822.460938"/>
     <use xlink:href="#ArialMT-6f" x="878.076172"/>
     <use xlink:href="#ArialMT-73" x="933.691406"/>
     <use xlink:href="#ArialMT-70" x="983.691406"/>
     <use xlink:href="#ArialMT-68" x="1039.306641"/>
     <use xlink:href="#ArialMT-61" x="1094.921875"/>
     <use xlink:href="#ArialMT-74" x="1150.537109"/>
     <use xlink:href="#ArialMT-65" x="1178.320312"/>
     <use xlink:href="#ArialMT-20" x="1233.935547"/>
     <use xlink:href="#ArialMT-61" x="1261.71875"/>
     <use xlink:href="#ArialMT-63" x="1317.333984"/>
     <use xlink:href="#ArialMT-79" x="1367.333984"/>
     <use xlink:href="#ArialMT-6c" x="1417.333984"/>
     <use xlink:href="#ArialMT-74" x="1439.550781"/>
     <use xlink:href="#ArialMT-72" x="1467.333984"/>
     <use xlink:href="#ArialMT-61" x="1500.634766"/>
     <use xlink:href="#ArialMT-6e" x="1556.25"/>
     <use xlink:href="#ArialMT-73" x="1611.865234"/>
     <use xlink:href="#ArialMT-66" x="1661.865234"/>
     <use xlink:href="#ArialMT-65" x="1689.648438"/>
     <use xlink:href="#ArialMT-72" x="1745.263672"/>
     <use xlink:href="#ArialMT-61" x="1778.564453"/>
     <use xlink:href="#ArialMT-73" x="1834.179688"/>
     <use xlink:href="#ArialMT-65" x="1884.179688"/>
    </g>
   </g>
   <g id="text_16">
    <!-- dCMP deaminase -->
    <g transform="translate(23.061563 33.669375) scale(0.08 -0.08)">
     <use xlink:href="#ArialMT-64"/>
     <use xlink:href="#ArialMT-43" x="55.615234"/>
     <use xlink:href="#ArialMT-4d" x="127.832031"/>
     <use xlink:href="#ArialMT-50" x="211.132812"/>
     <use xlink:href="#ArialMT-20" x="276.082031"/>
     <use xlink:href="#ArialMT-64" x="303.865234"/>
     <use xlink:href="#ArialMT-65" x="359.480469"/>
     <use xlink:href="#ArialMT-61" x="415.095703"/>
     <use xlink:href="#ArialMT-6d" x="470.710938"/>
     <use xlink:href="#ArialMT-69" x="554.011719"/>
     <use xlink:href="#ArialMT-6e" x="576.228516"/>
     <use xlink:href="#ArialMT-61" x="631.84375"/>
     <use xlink:href="#ArialMT-73" x="687.458984"/>
     <use xlink:href="#ArialMT-65" x="737.458984"/>
    </g>
   </g>
   <g id="text_17">
    <!-- Human clade -->
    <g transform="translate(65.234062 15.789375) scale(0.12 -0.12)">
     <defs>
      <path id="Arial-BoldMT-48" d="M 469 0 
L 469 4581 
L 1394 4581 
L 1394 2778 
L 3206 2778 
L 3206 4581 
L 4131 4581 
L 4131 0 
L 3206 0 
L 3206 2003 
L 1394 2003 
L 1394 0 
L 469 0 
z
" transform="scale(0.015625)"/>
      <path id="Arial-BoldMT-6c" d="M 459 0 
L 459 4581 
L 1338 4581 
L 1338 0 
L 459 0 
z
" transform="scale(0.015625)"/>
      <path id="Arial-BoldMT-64" d="M 3503 0 
L 2688 0 
L 2688 488 
Q 2484 203 2207 64 
Q 1931 -75 1650 -75 
Q 1078 -75 670 386 
Q 263 847 263 1672 
Q 263 2516 659 2955 
Q 1056 3394 1663 3394 
Q 2219 3394 2625 2931 
L 2625 4581 
L 3503 4581 
L 3503 0 
z
M 1159 1731 
Q 1159 1200 1306 963 
Q 1519 619 1900 619 
Q 2203 619 2415 876 
Q 2628 1134 2628 1647 
Q 2628 2219 2422 2470 
Q 2216 2722 1894 2722 
Q 1581 2722 1370 2473 
Q 1159 2225 1159 1731 
z
" transform="scale(0.015625)"/>
     </defs>
     <use xlink:href="#Arial-BoldMT-48"/>
     <use xlink:href="#Arial-BoldMT-75" x="72.216797"/>
     <use xlink:href="#Arial-BoldMT-6d" x="133.300781"/>
     <use xlink:href="#Arial-BoldMT-61" x="222.216797"/>
     <use xlink:href="#Arial-BoldMT-6e" x="277.832031"/>
     <use xlink:href="#Arial-BoldMT-20" x="338.916016"/>
     <use xlink:href="#Arial-BoldMT-63" x="366.699219"/>
     <use xlink:href="#Arial-BoldMT-6c" x="422.314453"/>
     <use xlink:href="#Arial-BoldMT-61" x="450.097656"/>
     <use xlink:href="#Arial-BoldMT-64" x="505.712891"/>
     <use xlink:href="#Arial-BoldMT-65" x="566.796875"/>
    </g>
   </g>
  </g>
 </g>
 <defs>
  <clipPath id="p2a65014e65">
   <rect x="18.876562" y="21.789375" width="167.4" height="166.32"/>
  </clipPath>
 </defs>
</svg>
