<?xml version="1.0" encoding="utf-8" standalone="no"?>
<!DOCTYPE svg PUBLIC "-//W3C//DTD SVG 1.1//EN"
  "http://www.w3.org/Graphics/SVG/1.1/DTD/svg11.dtd">
<svg xmlns:xlink="http://www.w3.org/1999/xlink" width="172.35125pt" height="143.515625pt" viewBox="0 0 172.35125 143.515625" xmlns="http://www.w3.org/2000/svg" version="1.1">
 <metadata>
  <rdf:RDF xmlns:dc="http://purl.org/dc/elements/1.1/" xmlns:cc="http://creativecommons.org/ns#" xmlns:rdf="http://www.w3.org/1999/02/22-rdf-syntax-ns#">
   <cc:Work>
    <dc:type rdf:resource="http://purl.org/dc/dcmitype/StillImage"/>
    <dc:date>2024-04-28T09:40:14.315361</dc:date>
    <dc:format>image/svg+xml</dc:format>
    <dc:creator>
     <cc:Agent>
      <dc:title>Matplotlib v3.8.4, https://matplotlib.org/</dc:title>
     </cc:Agent>
    </dc:creator>
   </cc:Work>
  </rdf:RDF>
 </metadata>
 <defs>
  <style type="text/css">*{stroke-linejoin: round; stroke-linecap: butt}</style>
 </defs>
 <g id="figure_1">
  <g id="patch_1">
   <path d="M 0 143.515625 
L 172.35125 143.515625 
L 172.35125 0 
L 0 0 
L 0 143.515625 
z
" style="fill: none"/>
  </g>
  <g id="axes_1">
   <g id="patch_2">
    <path d="M 44.01125 132.815625 
L 155.61125 132.815625 
L 155.61125 21.935625 
L 44.01125 21.935625 
L 44.01125 132.815625 
z
" style="fill: none"/>
   </g>
   <g id="PolyCollection_1">
    <defs>
     <path id="m19344bfa70" d="M 73.168413 -15.74 
L 70.654087 -15.74 
L 70.437934 -16.758182 
L 70.189739 -17.776364 
L 69.886458 -18.794545 
L 69.52231 -19.812727 
L 69.11701 -20.830909 
L 68.709621 -21.849091 
L 68.340816 -22.867273 
L 68.033425 -23.885455 
L 67.781369 -24.903636 
L 67.551259 -25.921818 
L 67.293717 -26.94 
L 66.957618 -27.958182 
L 66.501249 -28.976364 
L 65.897939 -29.994545 
L 65.137175 -31.012727 
L 64.223964 -32.030909 
L 63.178675 -33.049091 
L 62.037661 -34.067273 
L 60.853119 -35.085455 
L 59.690139 -36.103636 
L 58.6197 -37.121818 
L 57.707698 -38.14 
L 57.00145 -39.158182 
L 56.516781 -40.176364 
L 56.230389 -41.194545 
L 56.081959 -42.212727 
L 55.987223 -43.230909 
L 55.85814 -44.249091 
L 55.622929 -45.267273 
L 55.239218 -46.285455 
L 54.697491 -47.303636 
L 54.016592 -48.321818 
L 53.235563 -49.34 
L 52.405963 -50.358182 
L 51.586665 -51.376364 
L 50.840327 -52.394545 
L 50.228579 -53.412727 
L 49.80305 -54.430909 
L 49.59252 -55.449091 
L 49.59125 -56.467273 
L 49.756083 -57.485455 
L 50.017213 -58.503636 
L 50.300673 -59.521818 
L 50.554451 -60.54 
L 50.768706 -61.558182 
L 50.983231 -62.576364 
L 51.278972 -63.594545 
L 51.753639 -64.612727 
L 52.486144 -65.630909 
L 53.50149 -66.649091 
L 54.752269 -67.667273 
L 56.128445 -68.685455 
L 57.492886 -69.703636 
L 58.724971 -70.721818 
L 59.75049 -71.74 
L 60.546664 -72.758182 
L 61.128088 -73.776364 
L 61.529432 -74.794545 
L 61.797041 -75.812727 
L 61.989378 -76.830909 
L 62.176864 -77.849091 
L 62.432736 -78.867273 
L 62.815638 -79.885455 
L 63.352991 -80.903636 
L 64.034757 -81.921818 
L 64.820666 -82.94 
L 65.656289 -83.958182 
L 66.489786 -84.976364 
L 67.282806 -85.994545 
L 68.013178 -87.012727 
L 68.671123 -88.030909 
L 69.252989 -89.049091 
L 69.756567 -90.067273 
L 70.179972 -91.085455 
L 70.523262 -92.103636 
L 70.790311 -93.121818 
L 70.988901 -94.14 
L 71.128945 -95.158182 
L 71.220291 -96.176364 
L 71.271773 -97.194545 
L 71.292001 -98.212727 
L 71.290994 -99.230909 
L 71.28108 -100.249091 
L 71.275904 -101.267273 
L 71.287591 -102.285455 
L 71.323383 -103.303636 
L 71.383544 -104.321818 
L 71.461687 -105.34 
L 71.547347 -106.358182 
L 71.629568 -107.376364 
L 71.699954 -108.394545 
L 71.754222 -109.412727 
L 71.792127 -110.430909 
L 71.81628 -111.449091 
L 71.830594 -112.467273 
L 71.839016 -113.485455 
L 71.844797 -114.503636 
L 71.850244 -115.521818 
L 71.856717 -116.54 
L 71.965783 -116.54 
L 71.965783 -116.54 
L 71.972256 -115.521818 
L 71.977703 -114.503636 
L 71.983484 -113.485455 
L 71.991906 -112.467273 
L 72.00622 -111.449091 
L 72.030373 -110.430909 
L 72.068278 -109.412727 
L 72.122546 -108.394545 
L 72.192932 -107.376364 
L 72.275153 -106.358182 
L 72.360813 -105.34 
L 72.438956 -104.321818 
L 72.499117 -103.303636 
L 72.534909 -102.285455 
L 72.546596 -101.267273 
L 72.54142 -100.249091 
L 72.531506 -99.230909 
L 72.530499 -98.212727 
L 72.550727 -97.194545 
L 72.602209 -96.176364 
L 72.693555 -95.158182 
L 72.833599 -94.14 
L 73.032189 -93.121818 
L 73.299238 -92.103636 
L 73.642528 -91.085455 
L 74.065933 -90.067273 
L 74.569511 -89.049091 
L 75.151377 -88.030909 
L 75.809322 -87.012727 
L 76.539694 -85.994545 
L 77.332714 -84.976364 
L 78.166211 -83.958182 
L 79.001834 -82.94 
L 79.787743 -81.921818 
L 80.469509 -80.903636 
L 81.006862 -79.885455 
L 81.389764 -78.867273 
L 81.645636 -77.849091 
L 81.833122 -76.830909 
L 82.025459 -75.812727 
L 82.293068 -74.794545 
L 82.694412 -73.776364 
L 83.275836 -72.758182 
L 84.07201 -71.74 
L 85.097529 -70.721818 
L 86.329614 -69.703636 
L 87.694055 -68.685455 
L 89.070231 -67.667273 
L 90.32101 -66.649091 
L 91.336356 -65.630909 
L 92.068861 -64.612727 
L 92.543528 -63.594545 
L 92.839269 -62.576364 
L 93.053794 -61.558182 
L 93.268049 -60.54 
L 93.521827 -59.521818 
L 93.805287 -58.503636 
L 94.066417 -57.485455 
L 94.23125 -56.467273 
L 94.22998 -55.449091 
L 94.01945 -54.430909 
L 93.593921 -53.412727 
L 92.982173 -52.394545 
L 92.235835 -51.376364 
L 91.416537 -50.358182 
L 90.586937 -49.34 
L 89.805908 -48.321818 
L 89.125009 -47.303636 
L 88.583282 -46.285455 
L 88.199571 -45.267273 
L 87.96436 -44.249091 
L 87.835277 -43.230909 
L 87.740541 -42.212727 
L 87.592111 -41.194545 
L 87.305719 -40.176364 
L 86.82105 -39.158182 
L 86.114802 -38.14 
L 85.2028 -37.121818 
L 84.132361 -36.103636 
L 82.969381 -35.085455 
L 81.784839 -34.067273 
L 80.643825 -33.049091 
L 79.598536 -32.030909 
L 78.685325 -31.012727 
L 77.924561 -29.994545 
L 77.321251 -28.976364 
L 76.864882 -27.958182 
L 76.528783 -26.94 
L 76.271241 -25.921818 
L 76.041131 -24.903636 
L 75.789075 -23.885455 
L 75.481684 -22.867273 
L 75.112879 -21.849091 
L 74.70549 -20.830909 
L 74.30019 -19.812727 
L 73.936042 -18.794545 
L 73.632761 -17.776364 
L 73.384566 -16.758182 
L 73.168413 -15.74 
z
" style="stroke: #3f3f3f; stroke-width: 1.25"/>
    </defs>
    <g clip-path="url(#p2be1a189e9)">
     <use xlink:href="#m19344bfa70" x="0" y="143.515625" style="fill: #407193; stroke: #3f3f3f; stroke-width: 1.25"/>
    </g>
   </g>
   <g id="PolyCollection_2">
    <defs>
     <path id="m032dcdad24" d="M 134.452656 -15.74 
L 120.969844 -15.74 
L 120.881267 -16.712023 
L 121.05268 -17.684046 
L 121.413602 -18.65607 
L 121.870557 -19.628093 
L 122.330815 -20.600116 
L 122.721829 -21.572139 
L 123.001097 -22.544162 
L 123.155497 -23.516186 
L 123.192989 -24.488209 
L 123.131279 -25.460232 
L 122.987683 -26.432255 
L 122.7727 -27.404278 
L 122.487884 -28.376302 
L 122.127247 -29.348325 
L 121.680832 -30.320348 
L 121.139185 -31.292371 
L 120.497728 -32.264395 
L 119.760358 -33.236418 
L 118.941681 -34.208441 
L 118.067331 -35.180464 
L 117.171937 -36.152487 
L 116.294661 -37.124511 
L 115.472863 -38.096534 
L 114.735116 -39.068557 
L 114.095218 -40.04058 
L 113.548819 -41.012603 
L 113.073706 -41.984627 
L 112.633855 -42.95665 
L 112.186413 -43.928673 
L 111.690116 -44.900696 
L 111.113417 -45.872719 
L 110.44088 -46.844743 
L 109.6769 -47.816766 
L 108.846421 -48.788789 
L 107.992693 -49.760812 
L 107.172399 -50.732835 
L 106.448515 -51.704859 
L 105.8815 -52.676882 
L 105.51981 -53.648905 
L 105.39125 -54.620928 
L 105.497147 -55.592951 
L 105.811143 -56.564975 
L 106.283553 -57.536998 
L 106.85077 -58.509021 
L 107.447697 -59.481044 
L 108.020323 -60.453067 
L 108.535549 -61.425091 
L 108.986182 -62.397114 
L 109.390182 -63.369137 
L 109.784396 -64.34116 
L 110.214098 -65.313184 
L 110.720525 -66.285207 
L 111.32926 -67.25723 
L 112.042419 -68.229253 
L 112.836819 -69.201276 
L 113.668772 -70.1733 
L 114.48424 -71.145323 
L 115.231531 -72.117346 
L 115.873131 -73.089369 
L 116.39367 -74.061392 
L 116.802325 -75.033416 
L 117.129484 -76.005439 
L 117.41896 -76.977462 
L 117.718028 -77.949485 
L 118.067907 -78.921508 
L 118.496901 -79.893532 
L 119.017458 -80.865555 
L 119.627088 -81.837578 
L 120.311949 -82.809601 
L 121.051386 -83.781624 
L 121.821872 -84.753648 
L 122.599539 -85.725671 
L 123.361364 -86.697694 
L 124.085629 -87.669717 
L 124.752432 -88.64174 
L 125.344662 -89.613764 
L 125.849423 -90.585787 
L 126.259519 -91.55781 
L 126.574448 -92.529833 
L 126.800527 -93.501856 
L 126.94999 -94.47388 
L 127.039204 -95.445903 
L 127.086374 -96.417926 
L 127.109157 -97.389949 
L 127.122614 -98.361973 
L 127.137782 -99.333996 
L 127.16101 -100.306019 
L 127.194067 -101.278042 
L 127.234894 -102.250065 
L 127.278855 -103.222089 
L 127.320238 -104.194112 
L 127.353808 -105.166135 
L 127.376128 -106.138158 
L 127.386433 -107.110181 
L 127.386857 -108.082205 
L 127.381941 -109.054228 
L 127.377521 -110.026251 
L 127.379264 -110.998274 
L 127.391262 -111.970297 
L 128.031238 -111.970297 
L 128.031238 -111.970297 
L 128.043236 -110.998274 
L 128.044979 -110.026251 
L 128.040559 -109.054228 
L 128.035643 -108.082205 
L 128.036067 -107.110181 
L 128.046372 -106.138158 
L 128.068692 -105.166135 
L 128.102262 -104.194112 
L 128.143645 -103.222089 
L 128.187606 -102.250065 
L 128.228433 -101.278042 
L 128.26149 -100.306019 
L 128.284718 -99.333996 
L 128.299886 -98.361973 
L 128.313343 -97.389949 
L 128.336126 -96.417926 
L 128.383296 -95.445903 
L 128.47251 -94.47388 
L 128.621973 -93.501856 
L 128.848052 -92.529833 
L 129.162981 -91.55781 
L 129.573077 -90.585787 
L 130.077838 -89.613764 
L 130.670068 -88.64174 
L 131.336871 -87.669717 
L 132.061136 -86.697694 
L 132.822961 -85.725671 
L 133.600628 -84.753648 
L 134.371114 -83.781624 
L 135.110551 -82.809601 
L 135.795412 -81.837578 
L 136.405042 -80.865555 
L 136.925599 -79.893532 
L 137.354593 -78.921508 
L 137.704472 -77.949485 
L 138.00354 -76.977462 
L 138.293016 -76.005439 
L 138.620175 -75.033416 
L 139.02883 -74.061392 
L 139.549369 -73.089369 
L 140.190969 -72.117346 
L 140.93826 -71.145323 
L 141.753728 -70.1733 
L 142.585681 -69.201276 
L 143.380081 -68.229253 
L 144.09324 -67.25723 
L 144.701975 -66.285207 
L 145.208402 -65.313184 
L 145.638104 -64.34116 
L 146.032318 -63.369137 
L 146.436318 -62.397114 
L 146.886951 -61.425091 
L 147.402177 -60.453067 
L 147.974803 -59.481044 
L 148.57173 -58.509021 
L 149.138947 -57.536998 
L 149.611357 -56.564975 
L 149.925353 -55.592951 
L 150.03125 -54.620928 
L 149.90269 -53.648905 
L 149.541 -52.676882 
L 148.973985 -51.704859 
L 148.250101 -50.732835 
L 147.429807 -49.760812 
L 146.576079 -48.788789 
L 145.7456 -47.816766 
L 144.98162 -46.844743 
L 144.309083 -45.872719 
L 143.732384 -44.900696 
L 143.236087 -43.928673 
L 142.788645 -42.95665 
L 142.348794 -41.984627 
L 141.873681 -41.012603 
L 141.327282 -40.04058 
L 140.687384 -39.068557 
L 139.949637 -38.096534 
L 139.127839 -37.124511 
L 138.250563 -36.152487 
L 137.355169 -35.180464 
L 136.480819 -34.208441 
L 135.662142 -33.236418 
L 134.924772 -32.264395 
L 134.283315 -31.292371 
L 133.741668 -30.320348 
L 133.295253 -29.348325 
L 132.934616 -28.376302 
L 132.6498 -27.404278 
L 132.434817 -26.432255 
L 132.291221 -25.460232 
L 132.229511 -24.488209 
L 132.267003 -23.516186 
L 132.421403 -22.544162 
L 132.700671 -21.572139 
L 133.091685 -20.600116 
L 133.551943 -19.628093 
L 134.008898 -18.65607 
L 134.36982 -17.684046 
L 134.541233 -16.712023 
L 134.452656 -15.74 
z
" style="stroke: #3f3f3f; stroke-width: 1.25"/>
    </defs>
    <g clip-path="url(#p2be1a189e9)">
     <use xlink:href="#m032dcdad24" x="0" y="143.515625" style="fill: #df6c20; stroke: #3f3f3f; stroke-width: 1.25"/>
    </g>
   </g>
   <g id="matplotlib.axis_1">
    <g id="xtick_1">
     <g id="line2d_1">
      <defs>
       <path id="m6b94bd5a6d" d="M 0 0 
L 0 3.5 
" style="stroke: #000000; stroke-width: 0.8"/>
      </defs>
      <g>
       <use xlink:href="#m6b94bd5a6d" x="71.91125" y="132.815625" style="stroke: #000000; stroke-width: 0.8"/>
      </g>
     </g>
    </g>
    <g id="xtick_2">
     <g id="line2d_2">
      <g>
       <use xlink:href="#m6b94bd5a6d" x="127.71125" y="132.815625" style="stroke: #000000; stroke-width: 0.8"/>
      </g>
     </g>
    </g>
   </g>
   <g id="matplotlib.axis_2">
    <g id="ytick_1">
     <g id="line2d_3">
      <defs>
       <path id="md34a0c1a62" d="M 0 0 
L -3.5 0 
" style="stroke: #000000; stroke-width: 0.8"/>
      </defs>
      <g>
       <use xlink:href="#md34a0c1a62" x="44.01125" y="127.775625" style="stroke: #000000; stroke-width: 0.8"/>
      </g>
     </g>
     <g id="text_1">
      <!-- 0.0 -->
      <g transform="translate(20.33125 132.070312) scale(0.12 -0.12)">
       <defs>
        <path id="ArialMT-30" d="M 266 2259 
Q 266 3072 433 3567 
Q 600 4063 929 4331 
Q 1259 4600 1759 4600 
Q 2128 4600 2406 4451 
Q 2684 4303 2865 4023 
Q 3047 3744 3150 3342 
Q 3253 2941 3253 2259 
Q 3253 1453 3087 958 
Q 2922 463 2592 192 
Q 2263 -78 1759 -78 
Q 1097 -78 719 397 
Q 266 969 266 2259 
z
M 844 2259 
Q 844 1131 1108 757 
Q 1372 384 1759 384 
Q 2147 384 2411 759 
Q 2675 1134 2675 2259 
Q 2675 3391 2411 3762 
Q 2147 4134 1753 4134 
Q 1366 4134 1134 3806 
Q 844 3388 844 2259 
z
" transform="scale(0.015625)"/>
        <path id="ArialMT-2e" d="M 581 0 
L 581 641 
L 1222 641 
L 1222 0 
L 581 0 
z
" transform="scale(0.015625)"/>
       </defs>
       <use xlink:href="#ArialMT-30"/>
       <use xlink:href="#ArialMT-2e" x="55.615234"/>
       <use xlink:href="#ArialMT-30" x="83.398438"/>
      </g>
     </g>
    </g>
    <g id="ytick_2">
     <g id="line2d_4">
      <g>
       <use xlink:href="#md34a0c1a62" x="44.01125" y="81.47379" style="stroke: #000000; stroke-width: 0.8"/>
      </g>
     </g>
     <g id="text_2">
      <!-- 0.2 -->
      <g transform="translate(20.33125 85.768478) scale(0.12 -0.12)">
       <defs>
        <path id="ArialMT-32" d="M 3222 541 
L 3222 0 
L 194 0 
Q 188 203 259 391 
Q 375 700 629 1000 
Q 884 1300 1366 1694 
Q 2113 2306 2375 2664 
Q 2638 3022 2638 3341 
Q 2638 3675 2398 3904 
Q 2159 4134 1775 4134 
Q 1369 4134 1125 3890 
Q 881 3647 878 3216 
L 300 3275 
Q 359 3922 746 4261 
Q 1134 4600 1788 4600 
Q 2447 4600 2831 4234 
Q 3216 3869 3216 3328 
Q 3216 3053 3103 2787 
Q 2991 2522 2730 2228 
Q 2469 1934 1863 1422 
Q 1356 997 1212 845 
Q 1069 694 975 541 
L 3222 541 
z
" transform="scale(0.015625)"/>
       </defs>
       <use xlink:href="#ArialMT-30"/>
       <use xlink:href="#ArialMT-2e" x="55.615234"/>
       <use xlink:href="#ArialMT-32" x="83.398438"/>
      </g>
     </g>
    </g>
    <g id="ytick_3">
     <g id="line2d_5">
      <g>
       <use xlink:href="#md34a0c1a62" x="44.01125" y="35.171955" style="stroke: #000000; stroke-width: 0.8"/>
      </g>
     </g>
     <g id="text_3">
      <!-- 0.4 -->
      <g transform="translate(20.33125 39.466643) scale(0.12 -0.12)">
       <defs>
        <path id="ArialMT-34" d="M 2069 0 
L 2069 1097 
L 81 1097 
L 81 1613 
L 2172 4581 
L 2631 4581 
L 2631 1613 
L 3250 1613 
L 3250 1097 
L 2631 1097 
L 2631 0 
L 2069 0 
z
M 2069 1613 
L 2069 3678 
L 634 1613 
L 2069 1613 
z
" transform="scale(0.015625)"/>
       </defs>
       <use xlink:href="#ArialMT-30"/>
       <use xlink:href="#ArialMT-2e" x="55.615234"/>
       <use xlink:href="#ArialMT-34" x="83.398438"/>
      </g>
     </g>
    </g>
    <g id="text_4">
     <!-- Coefficient of variation -->
     <g transform="translate(14.357813 131.543594) rotate(-90) scale(0.1 -0.1)">
      <defs>
       <path id="Arial-BoldMT-43" d="M 3397 1684 
L 4294 1400 
Q 4088 650 3608 286 
Q 3128 -78 2391 -78 
Q 1478 -78 890 545 
Q 303 1169 303 2250 
Q 303 3394 893 4026 
Q 1484 4659 2447 4659 
Q 3288 4659 3813 4163 
Q 4125 3869 4281 3319 
L 3366 3100 
Q 3284 3456 3026 3662 
Q 2769 3869 2400 3869 
Q 1891 3869 1573 3503 
Q 1256 3138 1256 2319 
Q 1256 1450 1568 1081 
Q 1881 713 2381 713 
Q 2750 713 3015 947 
Q 3281 1181 3397 1684 
z
" transform="scale(0.015625)"/>
       <path id="Arial-BoldMT-6f" d="M 256 1706 
Q 256 2144 472 2553 
Q 688 2963 1083 3178 
Q 1478 3394 1966 3394 
Q 2719 3394 3200 2905 
Q 3681 2416 3681 1669 
Q 3681 916 3195 420 
Q 2709 -75 1972 -75 
Q 1516 -75 1102 131 
Q 688 338 472 736 
Q 256 1134 256 1706 
z
M 1156 1659 
Q 1156 1166 1390 903 
Q 1625 641 1969 641 
Q 2313 641 2545 903 
Q 2778 1166 2778 1666 
Q 2778 2153 2545 2415 
Q 2313 2678 1969 2678 
Q 1625 2678 1390 2415 
Q 1156 2153 1156 1659 
z
" transform="scale(0.015625)"/>
       <path id="Arial-BoldMT-65" d="M 2381 1056 
L 3256 909 
Q 3088 428 2723 176 
Q 2359 -75 1813 -75 
Q 947 -75 531 491 
Q 203 944 203 1634 
Q 203 2459 634 2926 
Q 1066 3394 1725 3394 
Q 2466 3394 2894 2905 
Q 3322 2416 3303 1406 
L 1103 1406 
Q 1113 1016 1316 798 
Q 1519 581 1822 581 
Q 2028 581 2168 693 
Q 2309 806 2381 1056 
z
M 2431 1944 
Q 2422 2325 2234 2523 
Q 2047 2722 1778 2722 
Q 1491 2722 1303 2513 
Q 1116 2303 1119 1944 
L 2431 1944 
z
" transform="scale(0.015625)"/>
       <path id="Arial-BoldMT-66" d="M 75 3319 
L 563 3319 
L 563 3569 
Q 563 3988 652 4194 
Q 741 4400 980 4529 
Q 1219 4659 1584 4659 
Q 1959 4659 2319 4547 
L 2200 3934 
Q 1991 3984 1797 3984 
Q 1606 3984 1523 3895 
Q 1441 3806 1441 3553 
L 1441 3319 
L 2097 3319 
L 2097 2628 
L 1441 2628 
L 1441 0 
L 563 0 
L 563 2628 
L 75 2628 
L 75 3319 
z
" transform="scale(0.015625)"/>
       <path id="Arial-BoldMT-69" d="M 459 3769 
L 459 4581 
L 1338 4581 
L 1338 3769 
L 459 3769 
z
M 459 0 
L 459 3319 
L 1338 3319 
L 1338 0 
L 459 0 
z
" transform="scale(0.015625)"/>
       <path id="Arial-BoldMT-63" d="M 3353 2338 
L 2488 2181 
Q 2444 2441 2289 2572 
Q 2134 2703 1888 2703 
Q 1559 2703 1364 2476 
Q 1169 2250 1169 1719 
Q 1169 1128 1367 884 
Q 1566 641 1900 641 
Q 2150 641 2309 783 
Q 2469 925 2534 1272 
L 3397 1125 
Q 3263 531 2881 228 
Q 2500 -75 1859 -75 
Q 1131 -75 698 384 
Q 266 844 266 1656 
Q 266 2478 700 2936 
Q 1134 3394 1875 3394 
Q 2481 3394 2839 3133 
Q 3197 2872 3353 2338 
z
" transform="scale(0.015625)"/>
       <path id="Arial-BoldMT-6e" d="M 3478 0 
L 2600 0 
L 2600 1694 
Q 2600 2231 2544 2389 
Q 2488 2547 2361 2634 
Q 2234 2722 2056 2722 
Q 1828 2722 1647 2597 
Q 1466 2472 1398 2265 
Q 1331 2059 1331 1503 
L 1331 0 
L 453 0 
L 453 3319 
L 1269 3319 
L 1269 2831 
Q 1703 3394 2363 3394 
Q 2653 3394 2893 3289 
Q 3134 3184 3257 3021 
Q 3381 2859 3429 2653 
Q 3478 2447 3478 2063 
L 3478 0 
z
" transform="scale(0.015625)"/>
       <path id="Arial-BoldMT-74" d="M 1981 3319 
L 1981 2619 
L 1381 2619 
L 1381 1281 
Q 1381 875 1398 808 
Q 1416 741 1477 697 
Q 1538 653 1625 653 
Q 1747 653 1978 738 
L 2053 56 
Q 1747 -75 1359 -75 
Q 1122 -75 931 4 
Q 741 84 652 211 
Q 563 338 528 553 
Q 500 706 500 1172 
L 500 2619 
L 97 2619 
L 97 3319 
L 500 3319 
L 500 3978 
L 1381 4491 
L 1381 3319 
L 1981 3319 
z
" transform="scale(0.015625)"/>
       <path id="Arial-BoldMT-20" transform="scale(0.015625)"/>
       <path id="Arial-BoldMT-76" d="M 1372 0 
L 34 3319 
L 956 3319 
L 1581 1625 
L 1763 1059 
Q 1834 1275 1853 1344 
Q 1897 1484 1947 1625 
L 2578 3319 
L 3481 3319 
L 2163 0 
L 1372 0 
z
" transform="scale(0.015625)"/>
       <path id="Arial-BoldMT-61" d="M 1116 2306 
L 319 2450 
Q 453 2931 781 3162 
Q 1109 3394 1756 3394 
Q 2344 3394 2631 3255 
Q 2919 3116 3036 2902 
Q 3153 2688 3153 2116 
L 3144 1091 
Q 3144 653 3186 445 
Q 3228 238 3344 0 
L 2475 0 
Q 2441 88 2391 259 
Q 2369 338 2359 363 
Q 2134 144 1878 34 
Q 1622 -75 1331 -75 
Q 819 -75 523 203 
Q 228 481 228 906 
Q 228 1188 362 1408 
Q 497 1628 739 1745 
Q 981 1863 1438 1950 
Q 2053 2066 2291 2166 
L 2291 2253 
Q 2291 2506 2166 2614 
Q 2041 2722 1694 2722 
Q 1459 2722 1328 2630 
Q 1197 2538 1116 2306 
z
M 2291 1594 
Q 2122 1538 1756 1459 
Q 1391 1381 1278 1306 
Q 1106 1184 1106 997 
Q 1106 813 1243 678 
Q 1381 544 1594 544 
Q 1831 544 2047 700 
Q 2206 819 2256 991 
Q 2291 1103 2291 1419 
L 2291 1594 
z
" transform="scale(0.015625)"/>
       <path id="Arial-BoldMT-72" d="M 1300 0 
L 422 0 
L 422 3319 
L 1238 3319 
L 1238 2847 
Q 1447 3181 1614 3287 
Q 1781 3394 1994 3394 
Q 2294 3394 2572 3228 
L 2300 2463 
Q 2078 2606 1888 2606 
Q 1703 2606 1575 2504 
Q 1447 2403 1373 2137 
Q 1300 1872 1300 1025 
L 1300 0 
z
" transform="scale(0.015625)"/>
      </defs>
      <use xlink:href="#Arial-BoldMT-43"/>
      <use xlink:href="#Arial-BoldMT-6f" x="72.216797"/>
      <use xlink:href="#Arial-BoldMT-65" x="133.300781"/>
      <use xlink:href="#Arial-BoldMT-66" x="188.916016"/>
      <use xlink:href="#Arial-BoldMT-66" x="222.216797"/>
      <use xlink:href="#Arial-BoldMT-69" x="255.517578"/>
      <use xlink:href="#Arial-BoldMT-63" x="283.300781"/>
      <use xlink:href="#Arial-BoldMT-69" x="338.916016"/>
      <use xlink:href="#Arial-BoldMT-65" x="366.699219"/>
      <use xlink:href="#Arial-BoldMT-6e" x="422.314453"/>
      <use xlink:href="#Arial-BoldMT-74" x="483.398438"/>
      <use xlink:href="#Arial-BoldMT-20" x="516.699219"/>
      <use xlink:href="#Arial-BoldMT-6f" x="544.482422"/>
      <use xlink:href="#Arial-BoldMT-66" x="605.566406"/>
      <use xlink:href="#Arial-BoldMT-20" x="638.867188"/>
      <use xlink:href="#Arial-BoldMT-76" x="666.650391"/>
      <use xlink:href="#Arial-BoldMT-61" x="722.265625"/>
      <use xlink:href="#Arial-BoldMT-72" x="777.880859"/>
      <use xlink:href="#Arial-BoldMT-69" x="816.796875"/>
      <use xlink:href="#Arial-BoldMT-61" x="844.580078"/>
      <use xlink:href="#Arial-BoldMT-74" x="900.195312"/>
      <use xlink:href="#Arial-BoldMT-69" x="933.496094"/>
      <use xlink:href="#Arial-BoldMT-6f" x="961.279297"/>
      <use xlink:href="#Arial-BoldMT-6e" x="1022.363281"/>
     </g>
    </g>
   </g>
   <g id="line2d_6">
    <path d="M 55.888507 99.506068 
L 87.933993 99.506068 
" clip-path="url(#p2be1a189e9)" style="fill: none; stroke-dasharray: 1.5625,0.9375; stroke-dashoffset: 0; stroke: #3f3f3f; stroke-width: 1.25"/>
   </g>
   <g id="line2d_7">
    <path d="M 49.591838 87.51978 
L 94.230662 87.51978 
" clip-path="url(#p2be1a189e9)" style="fill: none; stroke-dasharray: 3.125,1.25; stroke-dashoffset: 0; stroke: #3f3f3f; stroke-width: 1.25"/>
   </g>
   <g id="line2d_8">
    <path d="M 53.359946 77.008474 
L 90.462554 77.008474 
" clip-path="url(#p2be1a189e9)" style="fill: none; stroke-dasharray: 1.5625,0.9375; stroke-dashoffset: 0; stroke: #3f3f3f; stroke-width: 1.25"/>
   </g>
   <g id="line2d_9">
    <path d="M 112.988191 101.34202 
L 142.434309 101.34202 
" clip-path="url(#p2be1a189e9)" style="fill: none; stroke-dasharray: 1.5625,0.9375; stroke-dashoffset: 0; stroke: #3f3f3f; stroke-width: 1.25"/>
   </g>
   <g id="line2d_10">
    <path d="M 105.397361 88.838609 
L 150.025139 88.838609 
" clip-path="url(#p2be1a189e9)" style="fill: none; stroke-dasharray: 3.125,1.25; stroke-dashoffset: 0; stroke: #3f3f3f; stroke-width: 1.25"/>
   </g>
   <g id="line2d_11">
    <path d="M 110.954137 76.857388 
L 144.468363 76.857388 
" clip-path="url(#p2be1a189e9)" style="fill: none; stroke-dasharray: 1.5625,0.9375; stroke-dashoffset: 0; stroke: #3f3f3f; stroke-width: 1.25"/>
   </g>
   <g id="patch_3">
    <path d="M 44.01125 132.815625 
L 44.01125 21.935625 
" style="fill: none; stroke: #000000; stroke-linejoin: miter; stroke-linecap: square"/>
   </g>
   <g id="patch_4">
    <path d="M 155.61125 132.815625 
L 155.61125 21.935625 
" style="fill: none; stroke: #000000; stroke-linejoin: miter; stroke-linecap: square"/>
   </g>
   <g id="patch_5">
    <path d="M 44.01125 132.815625 
L 155.61125 132.815625 
" style="fill: none; stroke: #000000; stroke-linejoin: miter; stroke-linecap: square"/>
   </g>
   <g id="patch_6">
    <path d="M 44.01125 21.935625 
L 155.61125 21.935625 
" style="fill: none; stroke: #000000; stroke-linejoin: miter; stroke-linecap: square"/>
   </g>
   <g id="text_5">
    <!-- p=7.4e-05 -->
    <g style="fill: #ff0000" transform="translate(77.49125 44.111625) scale(0.1 -0.1)">
     <defs>
      <path id="ArialMT-70" d="M 422 -1272 
L 422 3319 
L 934 3319 
L 934 2888 
Q 1116 3141 1344 3267 
Q 1572 3394 1897 3394 
Q 2322 3394 2647 3175 
Q 2972 2956 3137 2557 
Q 3303 2159 3303 1684 
Q 3303 1175 3120 767 
Q 2938 359 2589 142 
Q 2241 -75 1856 -75 
Q 1575 -75 1351 44 
Q 1128 163 984 344 
L 984 -1272 
L 422 -1272 
z
M 931 1641 
Q 931 1000 1190 694 
Q 1450 388 1819 388 
Q 2194 388 2461 705 
Q 2728 1022 2728 1688 
Q 2728 2322 2467 2637 
Q 2206 2953 1844 2953 
Q 1484 2953 1207 2617 
Q 931 2281 931 1641 
z
" transform="scale(0.015625)"/>
      <path id="ArialMT-3d" d="M 3381 2694 
L 356 2694 
L 356 3219 
L 3381 3219 
L 3381 2694 
z
M 3381 1303 
L 356 1303 
L 356 1828 
L 3381 1828 
L 3381 1303 
z
" transform="scale(0.015625)"/>
      <path id="ArialMT-37" d="M 303 3981 
L 303 4522 
L 3269 4522 
L 3269 4084 
Q 2831 3619 2401 2847 
Q 1972 2075 1738 1259 
Q 1569 684 1522 0 
L 944 0 
Q 953 541 1156 1306 
Q 1359 2072 1739 2783 
Q 2119 3494 2547 3981 
L 303 3981 
z
" transform="scale(0.015625)"/>
      <path id="ArialMT-65" d="M 2694 1069 
L 3275 997 
Q 3138 488 2766 206 
Q 2394 -75 1816 -75 
Q 1088 -75 661 373 
Q 234 822 234 1631 
Q 234 2469 665 2931 
Q 1097 3394 1784 3394 
Q 2450 3394 2872 2941 
Q 3294 2488 3294 1666 
Q 3294 1616 3291 1516 
L 816 1516 
Q 847 969 1125 678 
Q 1403 388 1819 388 
Q 2128 388 2347 550 
Q 2566 713 2694 1069 
z
M 847 1978 
L 2700 1978 
Q 2663 2397 2488 2606 
Q 2219 2931 1791 2931 
Q 1403 2931 1139 2672 
Q 875 2413 847 1978 
z
" transform="scale(0.015625)"/>
      <path id="ArialMT-2d" d="M 203 1375 
L 203 1941 
L 1931 1941 
L 1931 1375 
L 203 1375 
z
" transform="scale(0.015625)"/>
      <path id="ArialMT-35" d="M 266 1200 
L 856 1250 
Q 922 819 1161 601 
Q 1400 384 1738 384 
Q 2144 384 2425 690 
Q 2706 997 2706 1503 
Q 2706 1984 2436 2262 
Q 2166 2541 1728 2541 
Q 1456 2541 1237 2417 
Q 1019 2294 894 2097 
L 366 2166 
L 809 4519 
L 3088 4519 
L 3088 3981 
L 1259 3981 
L 1013 2750 
Q 1425 3038 1878 3038 
Q 2478 3038 2890 2622 
Q 3303 2206 3303 1553 
Q 3303 931 2941 478 
Q 2500 -78 1738 -78 
Q 1113 -78 717 272 
Q 322 622 266 1200 
z
" transform="scale(0.015625)"/>
     </defs>
     <use xlink:href="#ArialMT-70"/>
     <use xlink:href="#ArialMT-3d" x="55.615234"/>
     <use xlink:href="#ArialMT-37" x="114.013672"/>
     <use xlink:href="#ArialMT-2e" x="169.628906"/>
     <use xlink:href="#ArialMT-34" x="197.412109"/>
     <use xlink:href="#ArialMT-65" x="253.027344"/>
     <use xlink:href="#ArialMT-2d" x="308.642578"/>
     <use xlink:href="#ArialMT-30" x="341.943359"/>
     <use xlink:href="#ArialMT-35" x="397.558594"/>
    </g>
   </g>
   <g id="text_6">
    <!-- Copy number variation -->
    <g transform="translate(34.47125 15.935625) scale(0.12 -0.12)">
     <defs>
      <path id="Arial-BoldMT-70" d="M 434 3319 
L 1253 3319 
L 1253 2831 
Q 1413 3081 1684 3237 
Q 1956 3394 2288 3394 
Q 2866 3394 3269 2941 
Q 3672 2488 3672 1678 
Q 3672 847 3265 386 
Q 2859 -75 2281 -75 
Q 2006 -75 1782 34 
Q 1559 144 1313 409 
L 1313 -1263 
L 434 -1263 
L 434 3319 
z
M 1303 1716 
Q 1303 1156 1525 889 
Q 1747 622 2066 622 
Q 2372 622 2575 867 
Q 2778 1113 2778 1672 
Q 2778 2194 2568 2447 
Q 2359 2700 2050 2700 
Q 1728 2700 1515 2451 
Q 1303 2203 1303 1716 
z
" transform="scale(0.015625)"/>
      <path id="Arial-BoldMT-79" d="M 44 3319 
L 978 3319 
L 1772 963 
L 2547 3319 
L 3456 3319 
L 2284 125 
L 2075 -453 
Q 1959 -744 1854 -897 
Q 1750 -1050 1614 -1145 
Q 1478 -1241 1279 -1294 
Q 1081 -1347 831 -1347 
Q 578 -1347 334 -1294 
L 256 -606 
Q 463 -647 628 -647 
Q 934 -647 1081 -467 
Q 1228 -288 1306 -9 
L 44 3319 
z
" transform="scale(0.015625)"/>
      <path id="Arial-BoldMT-75" d="M 2644 0 
L 2644 497 
Q 2463 231 2167 78 
Q 1872 -75 1544 -75 
Q 1209 -75 943 72 
Q 678 219 559 484 
Q 441 750 441 1219 
L 441 3319 
L 1319 3319 
L 1319 1794 
Q 1319 1094 1367 936 
Q 1416 778 1544 686 
Q 1672 594 1869 594 
Q 2094 594 2272 717 
Q 2450 841 2515 1023 
Q 2581 1206 2581 1919 
L 2581 3319 
L 3459 3319 
L 3459 0 
L 2644 0 
z
" transform="scale(0.015625)"/>
      <path id="Arial-BoldMT-6d" d="M 394 3319 
L 1203 3319 
L 1203 2866 
Q 1638 3394 2238 3394 
Q 2556 3394 2790 3262 
Q 3025 3131 3175 2866 
Q 3394 3131 3647 3262 
Q 3900 3394 4188 3394 
Q 4553 3394 4806 3245 
Q 5059 3097 5184 2809 
Q 5275 2597 5275 2122 
L 5275 0 
L 4397 0 
L 4397 1897 
Q 4397 2391 4306 2534 
Q 4184 2722 3931 2722 
Q 3747 2722 3584 2609 
Q 3422 2497 3350 2280 
Q 3278 2063 3278 1594 
L 3278 0 
L 2400 0 
L 2400 1819 
Q 2400 2303 2353 2443 
Q 2306 2584 2207 2653 
Q 2109 2722 1941 2722 
Q 1738 2722 1575 2612 
Q 1413 2503 1342 2297 
Q 1272 2091 1272 1613 
L 1272 0 
L 394 0 
L 394 3319 
z
" transform="scale(0.015625)"/>
      <path id="Arial-BoldMT-62" d="M 422 0 
L 422 4581 
L 1300 4581 
L 1300 2931 
Q 1706 3394 2263 3394 
Q 2869 3394 3266 2955 
Q 3663 2516 3663 1694 
Q 3663 844 3258 384 
Q 2853 -75 2275 -75 
Q 1991 -75 1714 67 
Q 1438 209 1238 488 
L 1238 0 
L 422 0 
z
M 1294 1731 
Q 1294 1216 1456 969 
Q 1684 619 2063 619 
Q 2353 619 2558 867 
Q 2763 1116 2763 1650 
Q 2763 2219 2556 2470 
Q 2350 2722 2028 2722 
Q 1713 2722 1503 2476 
Q 1294 2231 1294 1731 
z
" transform="scale(0.015625)"/>
     </defs>
     <use xlink:href="#Arial-BoldMT-43"/>
     <use xlink:href="#Arial-BoldMT-6f" x="72.216797"/>
     <use xlink:href="#Arial-BoldMT-70" x="133.300781"/>
     <use xlink:href="#Arial-BoldMT-79" x="194.384766"/>
     <use xlink:href="#Arial-BoldMT-20" x="250"/>
     <use xlink:href="#Arial-BoldMT-6e" x="277.783203"/>
     <use xlink:href="#Arial-BoldMT-75" x="338.867188"/>
     <use xlink:href="#Arial-BoldMT-6d" x="399.951172"/>
     <use xlink:href="#Arial-BoldMT-62" x="488.867188"/>
     <use xlink:href="#Arial-BoldMT-65" x="549.951172"/>
     <use xlink:href="#Arial-BoldMT-72" x="605.566406"/>
     <use xlink:href="#Arial-BoldMT-20" x="644.482422"/>
     <use xlink:href="#Arial-BoldMT-76" x="672.265625"/>
     <use xlink:href="#Arial-BoldMT-61" x="727.880859"/>
     <use xlink:href="#Arial-BoldMT-72" x="783.496094"/>
     <use xlink:href="#Arial-BoldMT-69" x="822.412109"/>
     <use xlink:href="#Arial-BoldMT-61" x="850.195312"/>
     <use xlink:href="#Arial-BoldMT-74" x="905.810547"/>
     <use xlink:href="#Arial-BoldMT-69" x="939.111328"/>
     <use xlink:href="#Arial-BoldMT-6f" x="966.894531"/>
     <use xlink:href="#Arial-BoldMT-6e" x="1027.978516"/>
    </g>
   </g>
  </g>
 </g>
 <defs>
  <clipPath id="p2be1a189e9">
   <rect x="44.01125" y="21.935625" width="111.6" height="110.88"/>
  </clipPath>
 </defs>
</svg>
