<?xml version="1.0" encoding="utf-8" standalone="no"?>
<!DOCTYPE svg PUBLIC "-//W3C//DTD SVG 1.1//EN"
  "http://www.w3.org/Graphics/SVG/1.1/DTD/svg11.dtd">
<svg xmlns:xlink="http://www.w3.org/1999/xlink" width="183.702393pt" height="155.25182pt" viewBox="0 0 183.702393 155.25182" xmlns="http://www.w3.org/2000/svg" version="1.1">
 <metadata>
  <rdf:RDF xmlns:dc="http://purl.org/dc/elements/1.1/" xmlns:cc="http://creativecommons.org/ns#" xmlns:rdf="http://www.w3.org/1999/02/22-rdf-syntax-ns#">
   <cc:Work>
    <dc:type rdf:resource="http://purl.org/dc/dcmitype/StillImage"/>
    <dc:date>2024-05-28T18:36:58.796080</dc:date>
    <dc:format>image/svg+xml</dc:format>
    <dc:creator>
     <cc:Agent>
      <dc:title>Matplotlib v3.8.4, https://matplotlib.org/</dc:title>
     </cc:Agent>
    </dc:creator>
   </cc:Work>
  </rdf:RDF>
 </metadata>
 <defs>
  <style type="text/css">*{stroke-linejoin: round; stroke-linecap: butt}</style>
 </defs>
 <g id="figure_1">
  <g id="patch_1">
   <path d="M 0 155.25182 
L 183.702393 155.25182 
L 183.702393 0 
L 0 0 
L 0 155.25182 
z
" style="fill: none"/>
  </g>
  <g id="axes_1">
   <g id="patch_2">
    <path d="M 44.01125 104.949375 
L 155.61125 104.949375 
L 155.61125 21.789375 
L 44.01125 21.789375 
L 44.01125 104.949375 
z
" style="fill: none"/>
   </g>
   <g id="PolyCollection_1">
    <defs>
     <path id="me670ed9d93" d="M 74.64155 -64.017806 
L 69.18095 -64.017806 
L 65.871883 -65.358016 
L 61.16284 -66.698226 
L 56.014243 -68.038436 
L 51.804445 -69.378646 
L 49.59125 -70.718856 
L 49.679128 -72.059066 
L 51.691728 -73.399276 
L 54.79529 -74.739486 
L 58.022706 -76.079696 
L 60.770552 -77.419906 
L 62.98517 -78.760116 
L 64.819666 -80.100326 
L 66.328401 -81.440536 
L 67.50444 -82.780746 
L 68.378833 -84.120956 
L 69.024039 -85.461166 
L 69.535943 -86.801376 
L 69.988977 -88.141586 
L 70.373702 -89.481796 
L 70.640193 -90.822006 
L 70.800618 -92.162216 
L 70.918948 -93.502426 
L 71.031966 -94.842636 
L 71.145081 -96.182846 
L 71.259763 -97.523056 
L 71.357889 -98.863266 
L 71.419449 -100.203476 
L 71.464519 -101.543686 
L 71.518543 -102.883896 
L 71.56893 -104.224106 
L 71.601256 -105.564316 
L 71.632389 -106.904526 
L 71.675502 -108.244736 
L 71.713085 -109.584946 
L 71.727847 -110.925156 
L 71.724959 -112.265366 
L 71.708916 -113.605576 
L 71.677761 -114.945786 
L 71.646751 -116.285996 
L 71.641464 -117.626206 
L 71.666011 -118.966416 
L 71.699199 -120.306626 
L 71.721873 -121.646836 
L 71.736047 -122.987046 
L 71.75462 -124.327256 
L 71.783735 -125.667466 
L 71.81839 -127.007676 
L 71.8466 -128.347886 
L 71.86019 -129.688096 
L 71.861595 -131.028306 
L 71.857818 -132.368516 
L 71.854216 -133.708726 
L 71.852478 -135.048936 
L 71.850978 -136.389146 
L 71.850736 -137.729356 
L 71.856515 -139.069566 
L 71.868037 -140.409776 
L 71.878445 -141.749986 
L 71.883916 -143.090196 
L 71.887646 -144.430406 
L 71.891201 -145.770616 
L 71.890658 -147.110826 
L 71.884949 -148.451036 
L 71.877818 -149.791246 
L 71.871831 -151.131456 
L 71.869119 -152.471666 
L 71.8711 -153.811876 
L 71.871682 -155.152086 
L 71.863252 -156.492296 
L 71.852937 -157.832506 
L 71.856707 -159.172716 
L 71.875614 -160.512926 
L 71.895364 -161.853136 
L 71.906446 -163.193346 
L 71.910266 -164.533556 
L 71.911106 -165.873766 
L 71.911148 -167.213976 
L 71.91064 -168.554186 
L 71.908532 -169.894396 
L 71.903261 -171.234606 
L 71.895786 -172.574816 
L 71.891537 -173.915026 
L 71.894699 -175.255236 
L 71.902098 -176.595446 
L 71.907917 -177.935656 
L 71.910451 -179.275866 
L 71.911124 -180.616076 
L 71.911237 -181.956286 
L 71.911249 -183.296496 
L 71.91125 -184.636706 
L 71.91125 -185.976916 
L 71.911249 -187.317126 
L 71.911239 -188.657336 
L 71.911143 -189.997546 
L 71.910551 -191.337756 
L 71.908236 -192.677966 
L 71.902687 -194.018176 
L 71.89523 -195.358386 
L 71.891509 -196.698596 
L 71.930991 -196.698596 
L 71.930991 -196.698596 
L 71.92727 -195.358386 
L 71.919813 -194.018176 
L 71.914264 -192.677966 
L 71.911949 -191.337756 
L 71.911357 -189.997546 
L 71.911261 -188.657336 
L 71.911251 -187.317126 
L 71.91125 -185.976916 
L 71.91125 -184.636706 
L 71.911251 -183.296496 
L 71.911263 -181.956286 
L 71.911376 -180.616076 
L 71.912049 -179.275866 
L 71.914583 -177.935656 
L 71.920402 -176.595446 
L 71.927801 -175.255236 
L 71.930963 -173.915026 
L 71.926714 -172.574816 
L 71.919239 -171.234606 
L 71.913968 -169.894396 
L 71.91186 -168.554186 
L 71.911352 -167.213976 
L 71.911394 -165.873766 
L 71.912234 -164.533556 
L 71.916054 -163.193346 
L 71.927136 -161.853136 
L 71.946886 -160.512926 
L 71.965793 -159.172716 
L 71.969563 -157.832506 
L 71.959248 -156.492296 
L 71.950818 -155.152086 
L 71.9514 -153.811876 
L 71.953381 -152.471666 
L 71.950669 -151.131456 
L 71.944682 -149.791246 
L 71.937551 -148.451036 
L 71.931842 -147.110826 
L 71.931299 -145.770616 
L 71.934854 -144.430406 
L 71.938584 -143.090196 
L 71.944055 -141.749986 
L 71.954463 -140.409776 
L 71.965985 -139.069566 
L 71.971764 -137.729356 
L 71.971522 -136.389146 
L 71.970022 -135.048936 
L 71.968284 -133.708726 
L 71.964682 -132.368516 
L 71.960905 -131.028306 
L 71.96231 -129.688096 
L 71.9759 -128.347886 
L 72.00411 -127.007676 
L 72.038765 -125.667466 
L 72.06788 -124.327256 
L 72.086453 -122.987046 
L 72.100627 -121.646836 
L 72.123301 -120.306626 
L 72.156489 -118.966416 
L 72.181036 -117.626206 
L 72.175749 -116.285996 
L 72.144739 -114.945786 
L 72.113584 -113.605576 
L 72.097541 -112.265366 
L 72.094653 -110.925156 
L 72.109415 -109.584946 
L 72.146998 -108.244736 
L 72.190111 -106.904526 
L 72.221244 -105.564316 
L 72.25357 -104.224106 
L 72.303957 -102.883896 
L 72.357981 -101.543686 
L 72.403051 -100.203476 
L 72.464611 -98.863266 
L 72.562737 -97.523056 
L 72.677419 -96.182846 
L 72.790534 -94.842636 
L 72.903552 -93.502426 
L 73.021882 -92.162216 
L 73.182307 -90.822006 
L 73.448798 -89.481796 
L 73.833523 -88.141586 
L 74.286557 -86.801376 
L 74.798461 -85.461166 
L 75.443667 -84.120956 
L 76.31806 -82.780746 
L 77.494099 -81.440536 
L 79.002834 -80.100326 
L 80.83733 -78.760116 
L 83.051948 -77.419906 
L 85.799794 -76.079696 
L 89.02721 -74.739486 
L 92.130772 -73.399276 
L 94.143372 -72.059066 
L 94.23125 -70.718856 
L 92.018055 -69.378646 
L 87.808257 -68.038436 
L 82.65966 -66.698226 
L 77.950617 -65.358016 
L 74.64155 -64.017806 
z
" style="stroke: #3f3f3f; stroke-width: 1.25"/>
    </defs>
    <g clip-path="url(#p22ee3ff372)">
     <use xlink:href="#me670ed9d93" x="0" y="155.25182" style="fill: #407193; stroke: #3f3f3f; stroke-width: 1.25"/>
    </g>
   </g>
   <g id="PolyCollection_2">
    <defs>
     <path id="m31bb4a2a69" d="M 131.800984 -63.698823 
L 123.621516 -63.698823 
L 120.808216 -64.953318 
L 117.257662 -66.207812 
L 113.386125 -67.462307 
L 109.785199 -68.716802 
L 107.036409 -69.971297 
L 105.533509 -71.225791 
L 105.39125 -72.480286 
L 106.458837 -73.734781 
L 108.406576 -74.989276 
L 110.83862 -76.24377 
L 113.392004 -77.498265 
L 115.799026 -78.75276 
L 117.909011 -80.007255 
L 119.676818 -81.26175 
L 121.127748 -82.516244 
L 122.313044 -83.770739 
L 123.277222 -85.025234 
L 124.050967 -86.279729 
L 124.661082 -87.534223 
L 125.138036 -88.788718 
L 125.513504 -90.043213 
L 125.814395 -91.297708 
L 126.05953 -92.552202 
L 126.259496 -93.806697 
L 126.419629 -95.061192 
L 126.545506 -96.315687 
L 126.646205 -97.570181 
L 126.730981 -98.824676 
L 126.803286 -100.079171 
L 126.860871 -101.333666 
L 126.90287 -102.58816 
L 126.934242 -103.842655 
L 126.960749 -105.09715 
L 126.981117 -106.351645 
L 126.988008 -107.606139 
L 126.978254 -108.860634 
L 126.960721 -110.115129 
L 126.952751 -111.369624 
L 126.968628 -112.624119 
L 127.010458 -113.878613 
L 127.067839 -115.133108 
L 127.12475 -116.387603 
L 127.167926 -117.642098 
L 127.191975 -118.896592 
L 127.19983 -120.151087 
L 127.199596 -121.405582 
L 127.199956 -122.660077 
L 127.206543 -123.914571 
L 127.220964 -125.169066 
L 127.242085 -126.423561 
L 127.267819 -127.678056 
L 127.296652 -128.93255 
L 127.328763 -130.187045 
L 127.365477 -131.44154 
L 127.406222 -132.696035 
L 127.445907 -133.950529 
L 127.476982 -135.205024 
L 127.495603 -136.459519 
L 127.505658 -137.714014 
L 127.515795 -138.968508 
L 127.531743 -140.223003 
L 127.551219 -141.477498 
L 127.566077 -142.731993 
L 127.569254 -143.986488 
L 127.560109 -145.240982 
L 127.544597 -146.495477 
L 127.531801 -147.749972 
L 127.529791 -149.004467 
L 127.542311 -150.258961 
L 127.567253 -151.513456 
L 127.598086 -152.767951 
L 127.627776 -154.022446 
L 127.652279 -155.27694 
L 127.671061 -156.531435 
L 127.685157 -157.78593 
L 127.695295 -159.040425 
L 127.701486 -160.294919 
L 127.703562 -161.549414 
L 127.701726 -162.803909 
L 127.696934 -164.058404 
L 127.691124 -165.312898 
L 127.686886 -166.567393 
L 127.686306 -167.821888 
L 127.689731 -169.076383 
L 127.695618 -170.330877 
L 127.70169 -171.585372 
L 127.706327 -172.839867 
L 127.709115 -174.094362 
L 127.710467 -175.348857 
L 127.710987 -176.603351 
L 127.711086 -177.857846 
L 127.710865 -179.112341 
L 127.710109 -180.366836 
L 127.708317 -181.62133 
L 127.704887 -182.875825 
L 127.699629 -184.13032 
L 127.693381 -185.384815 
L 127.688117 -186.639309 
L 127.686038 -187.893804 
L 127.736462 -187.893804 
L 127.736462 -187.893804 
L 127.734383 -186.639309 
L 127.729119 -185.384815 
L 127.722871 -184.13032 
L 127.717613 -182.875825 
L 127.714183 -181.62133 
L 127.712391 -180.366836 
L 127.711635 -179.112341 
L 127.711414 -177.857846 
L 127.711513 -176.603351 
L 127.712033 -175.348857 
L 127.713385 -174.094362 
L 127.716173 -172.839867 
L 127.72081 -171.585372 
L 127.726882 -170.330877 
L 127.732769 -169.076383 
L 127.736194 -167.821888 
L 127.735614 -166.567393 
L 127.731376 -165.312898 
L 127.725566 -164.058404 
L 127.720774 -162.803909 
L 127.718938 -161.549414 
L 127.721014 -160.294919 
L 127.727205 -159.040425 
L 127.737343 -157.78593 
L 127.751439 -156.531435 
L 127.770221 -155.27694 
L 127.794724 -154.022446 
L 127.824414 -152.767951 
L 127.855247 -151.513456 
L 127.880189 -150.258961 
L 127.892709 -149.004467 
L 127.890699 -147.749972 
L 127.877903 -146.495477 
L 127.862391 -145.240982 
L 127.853246 -143.986488 
L 127.856423 -142.731993 
L 127.871281 -141.477498 
L 127.890757 -140.223003 
L 127.906705 -138.968508 
L 127.916842 -137.714014 
L 127.926897 -136.459519 
L 127.945518 -135.205024 
L 127.976593 -133.950529 
L 128.016278 -132.696035 
L 128.057023 -131.44154 
L 128.093737 -130.187045 
L 128.125848 -128.93255 
L 128.154681 -127.678056 
L 128.180415 -126.423561 
L 128.201536 -125.169066 
L 128.215957 -123.914571 
L 128.222544 -122.660077 
L 128.222904 -121.405582 
L 128.22267 -120.151087 
L 128.230525 -118.896592 
L 128.254574 -117.642098 
L 128.29775 -116.387603 
L 128.354661 -115.133108 
L 128.412042 -113.878613 
L 128.453872 -112.624119 
L 128.469749 -111.369624 
L 128.461779 -110.115129 
L 128.444246 -108.860634 
L 128.434492 -107.606139 
L 128.441383 -106.351645 
L 128.461751 -105.09715 
L 128.488258 -103.842655 
L 128.51963 -102.58816 
L 128.561629 -101.333666 
L 128.619214 -100.079171 
L 128.691519 -98.824676 
L 128.776295 -97.570181 
L 128.876994 -96.315687 
L 129.002871 -95.061192 
L 129.163004 -93.806697 
L 129.36297 -92.552202 
L 129.608105 -91.297708 
L 129.908996 -90.043213 
L 130.284464 -88.788718 
L 130.761418 -87.534223 
L 131.371533 -86.279729 
L 132.145278 -85.025234 
L 133.109456 -83.770739 
L 134.294752 -82.516244 
L 135.745682 -81.26175 
L 137.513489 -80.007255 
L 139.623474 -78.75276 
L 142.030496 -77.498265 
L 144.58388 -76.24377 
L 147.015924 -74.989276 
L 148.963663 -73.734781 
L 150.03125 -72.480286 
L 149.888991 -71.225791 
L 148.386091 -69.971297 
L 145.637301 -68.716802 
L 142.036375 -67.462307 
L 138.164838 -66.207812 
L 134.614284 -64.953318 
L 131.800984 -63.698823 
z
" style="stroke: #3f3f3f; stroke-width: 1.25"/>
    </defs>
    <g clip-path="url(#p22ee3ff372)">
     <use xlink:href="#m31bb4a2a69" x="0" y="155.25182" style="fill: #df6c20; stroke: #3f3f3f; stroke-width: 1.25"/>
    </g>
   </g>
   <g id="matplotlib.axis_1">
    <g id="xtick_1">
     <g id="line2d_1">
      <defs>
       <path id="m2c38081812" d="M 0 0 
L 0 3.5 
" style="stroke: #000000; stroke-width: 0.8"/>
      </defs>
      <g>
       <use xlink:href="#m2c38081812" x="71.91125" y="104.949375" style="stroke: #000000; stroke-width: 0.8"/>
      </g>
     </g>
     <g id="text_1">
      <!-- Yeast core -->
      <g transform="translate(43.719548 135.785408) rotate(-15) scale(0.12 -0.12)">
       <defs>
        <path id="Arial-BoldMT-59" d="M 1669 0 
L 1669 1928 
L -9 4581 
L 1075 4581 
L 2153 2769 
L 3209 4581 
L 4275 4581 
L 2591 1922 
L 2591 0 
L 1669 0 
z
" transform="scale(0.015625)"/>
        <path id="Arial-BoldMT-65" d="M 2381 1056 
L 3256 909 
Q 3088 428 2723 176 
Q 2359 -75 1813 -75 
Q 947 -75 531 491 
Q 203 944 203 1634 
Q 203 2459 634 2926 
Q 1066 3394 1725 3394 
Q 2466 3394 2894 2905 
Q 3322 2416 3303 1406 
L 1103 1406 
Q 1113 1016 1316 798 
Q 1519 581 1822 581 
Q 2028 581 2168 693 
Q 2309 806 2381 1056 
z
M 2431 1944 
Q 2422 2325 2234 2523 
Q 2047 2722 1778 2722 
Q 1491 2722 1303 2513 
Q 1116 2303 1119 1944 
L 2431 1944 
z
" transform="scale(0.015625)"/>
        <path id="Arial-BoldMT-61" d="M 1116 2306 
L 319 2450 
Q 453 2931 781 3162 
Q 1109 3394 1756 3394 
Q 2344 3394 2631 3255 
Q 2919 3116 3036 2902 
Q 3153 2688 3153 2116 
L 3144 1091 
Q 3144 653 3186 445 
Q 3228 238 3344 0 
L 2475 0 
Q 2441 88 2391 259 
Q 2369 338 2359 363 
Q 2134 144 1878 34 
Q 1622 -75 1331 -75 
Q 819 -75 523 203 
Q 228 481 228 906 
Q 228 1188 362 1408 
Q 497 1628 739 1745 
Q 981 1863 1438 1950 
Q 2053 2066 2291 2166 
L 2291 2253 
Q 2291 2506 2166 2614 
Q 2041 2722 1694 2722 
Q 1459 2722 1328 2630 
Q 1197 2538 1116 2306 
z
M 2291 1594 
Q 2122 1538 1756 1459 
Q 1391 1381 1278 1306 
Q 1106 1184 1106 997 
Q 1106 813 1243 678 
Q 1381 544 1594 544 
Q 1831 544 2047 700 
Q 2206 819 2256 991 
Q 2291 1103 2291 1419 
L 2291 1594 
z
" transform="scale(0.015625)"/>
        <path id="Arial-BoldMT-73" d="M 150 947 
L 1031 1081 
Q 1088 825 1259 692 
Q 1431 559 1741 559 
Q 2081 559 2253 684 
Q 2369 772 2369 919 
Q 2369 1019 2306 1084 
Q 2241 1147 2013 1200 
Q 950 1434 666 1628 
Q 272 1897 272 2375 
Q 272 2806 612 3100 
Q 953 3394 1669 3394 
Q 2350 3394 2681 3172 
Q 3013 2950 3138 2516 
L 2309 2363 
Q 2256 2556 2107 2659 
Q 1959 2763 1684 2763 
Q 1338 2763 1188 2666 
Q 1088 2597 1088 2488 
Q 1088 2394 1175 2328 
Q 1294 2241 1995 2081 
Q 2697 1922 2975 1691 
Q 3250 1456 3250 1038 
Q 3250 581 2869 253 
Q 2488 -75 1741 -75 
Q 1063 -75 667 200 
Q 272 475 150 947 
z
" transform="scale(0.015625)"/>
        <path id="Arial-BoldMT-74" d="M 1981 3319 
L 1981 2619 
L 1381 2619 
L 1381 1281 
Q 1381 875 1398 808 
Q 1416 741 1477 697 
Q 1538 653 1625 653 
Q 1747 653 1978 738 
L 2053 56 
Q 1747 -75 1359 -75 
Q 1122 -75 931 4 
Q 741 84 652 211 
Q 563 338 528 553 
Q 500 706 500 1172 
L 500 2619 
L 97 2619 
L 97 3319 
L 500 3319 
L 500 3978 
L 1381 4491 
L 1381 3319 
L 1981 3319 
z
" transform="scale(0.015625)"/>
        <path id="Arial-BoldMT-20" transform="scale(0.015625)"/>
        <path id="Arial-BoldMT-63" d="M 3353 2338 
L 2488 2181 
Q 2444 2441 2289 2572 
Q 2134 2703 1888 2703 
Q 1559 2703 1364 2476 
Q 1169 2250 1169 1719 
Q 1169 1128 1367 884 
Q 1566 641 1900 641 
Q 2150 641 2309 783 
Q 2469 925 2534 1272 
L 3397 1125 
Q 3263 531 2881 228 
Q 2500 -75 1859 -75 
Q 1131 -75 698 384 
Q 266 844 266 1656 
Q 266 2478 700 2936 
Q 1134 3394 1875 3394 
Q 2481 3394 2839 3133 
Q 3197 2872 3353 2338 
z
" transform="scale(0.015625)"/>
        <path id="Arial-BoldMT-6f" d="M 256 1706 
Q 256 2144 472 2553 
Q 688 2963 1083 3178 
Q 1478 3394 1966 3394 
Q 2719 3394 3200 2905 
Q 3681 2416 3681 1669 
Q 3681 916 3195 420 
Q 2709 -75 1972 -75 
Q 1516 -75 1102 131 
Q 688 338 472 736 
Q 256 1134 256 1706 
z
M 1156 1659 
Q 1156 1166 1390 903 
Q 1625 641 1969 641 
Q 2313 641 2545 903 
Q 2778 1166 2778 1666 
Q 2778 2153 2545 2415 
Q 2313 2678 1969 2678 
Q 1625 2678 1390 2415 
Q 1156 2153 1156 1659 
z
" transform="scale(0.015625)"/>
        <path id="Arial-BoldMT-72" d="M 1300 0 
L 422 0 
L 422 3319 
L 1238 3319 
L 1238 2847 
Q 1447 3181 1614 3287 
Q 1781 3394 1994 3394 
Q 2294 3394 2572 3228 
L 2300 2463 
Q 2078 2606 1888 2606 
Q 1703 2606 1575 2504 
Q 1447 2403 1373 2137 
Q 1300 1872 1300 1025 
L 1300 0 
z
" transform="scale(0.015625)"/>
       </defs>
       <use xlink:href="#Arial-BoldMT-59"/>
       <use xlink:href="#Arial-BoldMT-65" x="61.199219"/>
       <use xlink:href="#Arial-BoldMT-61" x="116.814453"/>
       <use xlink:href="#Arial-BoldMT-73" x="172.429688"/>
       <use xlink:href="#Arial-BoldMT-74" x="228.044922"/>
       <use xlink:href="#Arial-BoldMT-20" x="261.345703"/>
       <use xlink:href="#Arial-BoldMT-63" x="289.128906"/>
       <use xlink:href="#Arial-BoldMT-6f" x="344.744141"/>
       <use xlink:href="#Arial-BoldMT-72" x="405.828125"/>
       <use xlink:href="#Arial-BoldMT-65" x="444.744141"/>
      </g>
     </g>
    </g>
    <g id="xtick_2">
     <g id="line2d_2">
      <g>
       <use xlink:href="#m2c38081812" x="127.71125" y="104.949375" style="stroke: #000000; stroke-width: 0.8"/>
      </g>
     </g>
     <g id="text_2">
      <!-- Sce specific core -->
      <g transform="translate(81.181053 145.764386) rotate(-15) scale(0.12 -0.12)">
       <defs>
        <path id="Arial-BoldMT-53" d="M 231 1491 
L 1131 1578 
Q 1213 1125 1461 912 
Q 1709 700 2131 700 
Q 2578 700 2804 889 
Q 3031 1078 3031 1331 
Q 3031 1494 2936 1608 
Q 2841 1722 2603 1806 
Q 2441 1863 1863 2006 
Q 1119 2191 819 2459 
Q 397 2838 397 3381 
Q 397 3731 595 4036 
Q 794 4341 1167 4500 
Q 1541 4659 2069 4659 
Q 2931 4659 3367 4281 
Q 3803 3903 3825 3272 
L 2900 3231 
Q 2841 3584 2645 3739 
Q 2450 3894 2059 3894 
Q 1656 3894 1428 3728 
Q 1281 3622 1281 3444 
Q 1281 3281 1419 3166 
Q 1594 3019 2269 2859 
Q 2944 2700 3267 2529 
Q 3591 2359 3773 2064 
Q 3956 1769 3956 1334 
Q 3956 941 3737 597 
Q 3519 253 3119 86 
Q 2719 -81 2122 -81 
Q 1253 -81 787 320 
Q 322 722 231 1491 
z
" transform="scale(0.015625)"/>
        <path id="Arial-BoldMT-70" d="M 434 3319 
L 1253 3319 
L 1253 2831 
Q 1413 3081 1684 3237 
Q 1956 3394 2288 3394 
Q 2866 3394 3269 2941 
Q 3672 2488 3672 1678 
Q 3672 847 3265 386 
Q 2859 -75 2281 -75 
Q 2006 -75 1782 34 
Q 1559 144 1313 409 
L 1313 -1263 
L 434 -1263 
L 434 3319 
z
M 1303 1716 
Q 1303 1156 1525 889 
Q 1747 622 2066 622 
Q 2372 622 2575 867 
Q 2778 1113 2778 1672 
Q 2778 2194 2568 2447 
Q 2359 2700 2050 2700 
Q 1728 2700 1515 2451 
Q 1303 2203 1303 1716 
z
" transform="scale(0.015625)"/>
        <path id="Arial-BoldMT-69" d="M 459 3769 
L 459 4581 
L 1338 4581 
L 1338 3769 
L 459 3769 
z
M 459 0 
L 459 3319 
L 1338 3319 
L 1338 0 
L 459 0 
z
" transform="scale(0.015625)"/>
        <path id="Arial-BoldMT-66" d="M 75 3319 
L 563 3319 
L 563 3569 
Q 563 3988 652 4194 
Q 741 4400 980 4529 
Q 1219 4659 1584 4659 
Q 1959 4659 2319 4547 
L 2200 3934 
Q 1991 3984 1797 3984 
Q 1606 3984 1523 3895 
Q 1441 3806 1441 3553 
L 1441 3319 
L 2097 3319 
L 2097 2628 
L 1441 2628 
L 1441 0 
L 563 0 
L 563 2628 
L 75 2628 
L 75 3319 
z
" transform="scale(0.015625)"/>
       </defs>
       <use xlink:href="#Arial-BoldMT-53"/>
       <use xlink:href="#Arial-BoldMT-63" x="66.699219"/>
       <use xlink:href="#Arial-BoldMT-65" x="122.314453"/>
       <use xlink:href="#Arial-BoldMT-20" x="177.929688"/>
       <use xlink:href="#Arial-BoldMT-73" x="205.712891"/>
       <use xlink:href="#Arial-BoldMT-70" x="261.328125"/>
       <use xlink:href="#Arial-BoldMT-65" x="322.412109"/>
       <use xlink:href="#Arial-BoldMT-63" x="378.027344"/>
       <use xlink:href="#Arial-BoldMT-69" x="433.642578"/>
       <use xlink:href="#Arial-BoldMT-66" x="461.425781"/>
       <use xlink:href="#Arial-BoldMT-69" x="494.726562"/>
       <use xlink:href="#Arial-BoldMT-63" x="522.509766"/>
       <use xlink:href="#Arial-BoldMT-20" x="578.125"/>
       <use xlink:href="#Arial-BoldMT-63" x="605.908203"/>
       <use xlink:href="#Arial-BoldMT-6f" x="661.523438"/>
       <use xlink:href="#Arial-BoldMT-72" x="722.607422"/>
       <use xlink:href="#Arial-BoldMT-65" x="761.523438"/>
      </g>
     </g>
    </g>
   </g>
   <g id="matplotlib.axis_2">
    <g id="ytick_1">
     <g id="line2d_3">
      <defs>
       <path id="m6bd541c5a4" d="M 0 0 
L -3.5 0 
" style="stroke: #000000; stroke-width: 0.8"/>
      </defs>
      <g>
       <use xlink:href="#m6bd541c5a4" x="44.01125" y="95.709375" style="stroke: #000000; stroke-width: 0.8"/>
      </g>
     </g>
     <g id="text_3">
      <!-- 0.0 -->
      <g transform="translate(20.33125 100.004063) scale(0.12 -0.12)">
       <defs>
        <path id="ArialMT-30" d="M 266 2259 
Q 266 3072 433 3567 
Q 600 4063 929 4331 
Q 1259 4600 1759 4600 
Q 2128 4600 2406 4451 
Q 2684 4303 2865 4023 
Q 3047 3744 3150 3342 
Q 3253 2941 3253 2259 
Q 3253 1453 3087 958 
Q 2922 463 2592 192 
Q 2263 -78 1759 -78 
Q 1097 -78 719 397 
Q 266 969 266 2259 
z
M 844 2259 
Q 844 1131 1108 757 
Q 1372 384 1759 384 
Q 2147 384 2411 759 
Q 2675 1134 2675 2259 
Q 2675 3391 2411 3762 
Q 2147 4134 1753 4134 
Q 1366 4134 1134 3806 
Q 844 3388 844 2259 
z
" transform="scale(0.015625)"/>
        <path id="ArialMT-2e" d="M 581 0 
L 581 641 
L 1222 641 
L 1222 0 
L 581 0 
z
" transform="scale(0.015625)"/>
       </defs>
       <use xlink:href="#ArialMT-30"/>
       <use xlink:href="#ArialMT-2e" x="55.615234"/>
       <use xlink:href="#ArialMT-30" x="83.398438"/>
      </g>
     </g>
    </g>
    <g id="ytick_2">
     <g id="line2d_4">
      <g>
       <use xlink:href="#m6bd541c5a4" x="44.01125" y="77.229375" style="stroke: #000000; stroke-width: 0.8"/>
      </g>
     </g>
     <g id="text_4">
      <!-- 0.1 -->
      <g transform="translate(20.33125 81.524062) scale(0.12 -0.12)">
       <defs>
        <path id="ArialMT-31" d="M 2384 0 
L 1822 0 
L 1822 3584 
Q 1619 3391 1289 3197 
Q 959 3003 697 2906 
L 697 3450 
Q 1169 3672 1522 3987 
Q 1875 4303 2022 4600 
L 2384 4600 
L 2384 0 
z
" transform="scale(0.015625)"/>
       </defs>
       <use xlink:href="#ArialMT-30"/>
       <use xlink:href="#ArialMT-2e" x="55.615234"/>
       <use xlink:href="#ArialMT-31" x="83.398438"/>
      </g>
     </g>
    </g>
    <g id="ytick_3">
     <g id="line2d_5">
      <g>
       <use xlink:href="#m6bd541c5a4" x="44.01125" y="58.749375" style="stroke: #000000; stroke-width: 0.8"/>
      </g>
     </g>
     <g id="text_5">
      <!-- 0.2 -->
      <g transform="translate(20.33125 63.044062) scale(0.12 -0.12)">
       <defs>
        <path id="ArialMT-32" d="M 3222 541 
L 3222 0 
L 194 0 
Q 188 203 259 391 
Q 375 700 629 1000 
Q 884 1300 1366 1694 
Q 2113 2306 2375 2664 
Q 2638 3022 2638 3341 
Q 2638 3675 2398 3904 
Q 2159 4134 1775 4134 
Q 1369 4134 1125 3890 
Q 881 3647 878 3216 
L 300 3275 
Q 359 3922 746 4261 
Q 1134 4600 1788 4600 
Q 2447 4600 2831 4234 
Q 3216 3869 3216 3328 
Q 3216 3053 3103 2787 
Q 2991 2522 2730 2228 
Q 2469 1934 1863 1422 
Q 1356 997 1212 845 
Q 1069 694 975 541 
L 3222 541 
z
" transform="scale(0.015625)"/>
       </defs>
       <use xlink:href="#ArialMT-30"/>
       <use xlink:href="#ArialMT-2e" x="55.615234"/>
       <use xlink:href="#ArialMT-32" x="83.398438"/>
      </g>
     </g>
    </g>
    <g id="ytick_4">
     <g id="line2d_6">
      <g>
       <use xlink:href="#m6bd541c5a4" x="44.01125" y="40.269375" style="stroke: #000000; stroke-width: 0.8"/>
      </g>
     </g>
     <g id="text_6">
      <!-- 0.3 -->
      <g transform="translate(20.33125 44.564062) scale(0.12 -0.12)">
       <defs>
        <path id="ArialMT-33" d="M 269 1209 
L 831 1284 
Q 928 806 1161 595 
Q 1394 384 1728 384 
Q 2125 384 2398 659 
Q 2672 934 2672 1341 
Q 2672 1728 2419 1979 
Q 2166 2231 1775 2231 
Q 1616 2231 1378 2169 
L 1441 2663 
Q 1497 2656 1531 2656 
Q 1891 2656 2178 2843 
Q 2466 3031 2466 3422 
Q 2466 3731 2256 3934 
Q 2047 4138 1716 4138 
Q 1388 4138 1169 3931 
Q 950 3725 888 3313 
L 325 3413 
Q 428 3978 793 4289 
Q 1159 4600 1703 4600 
Q 2078 4600 2393 4439 
Q 2709 4278 2876 4000 
Q 3044 3722 3044 3409 
Q 3044 3113 2884 2869 
Q 2725 2625 2413 2481 
Q 2819 2388 3044 2092 
Q 3269 1797 3269 1353 
Q 3269 753 2831 336 
Q 2394 -81 1725 -81 
Q 1122 -81 723 278 
Q 325 638 269 1209 
z
" transform="scale(0.015625)"/>
       </defs>
       <use xlink:href="#ArialMT-30"/>
       <use xlink:href="#ArialMT-2e" x="55.615234"/>
       <use xlink:href="#ArialMT-33" x="83.398438"/>
      </g>
     </g>
    </g>
    <g id="text_7">
     <!-- Coefficient of variation -->
     <g transform="translate(14.357813 117.537344) rotate(-90) scale(0.1 -0.1)">
      <defs>
       <path id="Arial-BoldMT-43" d="M 3397 1684 
L 4294 1400 
Q 4088 650 3608 286 
Q 3128 -78 2391 -78 
Q 1478 -78 890 545 
Q 303 1169 303 2250 
Q 303 3394 893 4026 
Q 1484 4659 2447 4659 
Q 3288 4659 3813 4163 
Q 4125 3869 4281 3319 
L 3366 3100 
Q 3284 3456 3026 3662 
Q 2769 3869 2400 3869 
Q 1891 3869 1573 3503 
Q 1256 3138 1256 2319 
Q 1256 1450 1568 1081 
Q 1881 713 2381 713 
Q 2750 713 3015 947 
Q 3281 1181 3397 1684 
z
" transform="scale(0.015625)"/>
       <path id="Arial-BoldMT-6e" d="M 3478 0 
L 2600 0 
L 2600 1694 
Q 2600 2231 2544 2389 
Q 2488 2547 2361 2634 
Q 2234 2722 2056 2722 
Q 1828 2722 1647 2597 
Q 1466 2472 1398 2265 
Q 1331 2059 1331 1503 
L 1331 0 
L 453 0 
L 453 3319 
L 1269 3319 
L 1269 2831 
Q 1703 3394 2363 3394 
Q 2653 3394 2893 3289 
Q 3134 3184 3257 3021 
Q 3381 2859 3429 2653 
Q 3478 2447 3478 2063 
L 3478 0 
z
" transform="scale(0.015625)"/>
       <path id="Arial-BoldMT-76" d="M 1372 0 
L 34 3319 
L 956 3319 
L 1581 1625 
L 1763 1059 
Q 1834 1275 1853 1344 
Q 1897 1484 1947 1625 
L 2578 3319 
L 3481 3319 
L 2163 0 
L 1372 0 
z
" transform="scale(0.015625)"/>
      </defs>
      <use xlink:href="#Arial-BoldMT-43"/>
      <use xlink:href="#Arial-BoldMT-6f" x="72.216797"/>
      <use xlink:href="#Arial-BoldMT-65" x="133.300781"/>
      <use xlink:href="#Arial-BoldMT-66" x="188.916016"/>
      <use xlink:href="#Arial-BoldMT-66" x="222.216797"/>
      <use xlink:href="#Arial-BoldMT-69" x="255.517578"/>
      <use xlink:href="#Arial-BoldMT-63" x="283.300781"/>
      <use xlink:href="#Arial-BoldMT-69" x="338.916016"/>
      <use xlink:href="#Arial-BoldMT-65" x="366.699219"/>
      <use xlink:href="#Arial-BoldMT-6e" x="422.314453"/>
      <use xlink:href="#Arial-BoldMT-74" x="483.398438"/>
      <use xlink:href="#Arial-BoldMT-20" x="516.699219"/>
      <use xlink:href="#Arial-BoldMT-6f" x="544.482422"/>
      <use xlink:href="#Arial-BoldMT-66" x="605.566406"/>
      <use xlink:href="#Arial-BoldMT-20" x="638.867188"/>
      <use xlink:href="#Arial-BoldMT-76" x="666.650391"/>
      <use xlink:href="#Arial-BoldMT-61" x="722.265625"/>
      <use xlink:href="#Arial-BoldMT-72" x="777.880859"/>
      <use xlink:href="#Arial-BoldMT-69" x="816.796875"/>
      <use xlink:href="#Arial-BoldMT-61" x="844.580078"/>
      <use xlink:href="#Arial-BoldMT-74" x="900.195312"/>
      <use xlink:href="#Arial-BoldMT-69" x="933.496094"/>
      <use xlink:href="#Arial-BoldMT-6f" x="961.279297"/>
      <use xlink:href="#Arial-BoldMT-6e" x="1022.363281"/>
     </g>
    </g>
   </g>
   <g id="line2d_7">
    <path d="M 50.765067 85.243773 
L 93.057433 85.243773 
" clip-path="url(#p22ee3ff372)" style="fill: none; stroke-dasharray: 1.5625,0.9375; stroke-dashoffset: 0; stroke: #3f3f3f; stroke-width: 1.25"/>
   </g>
   <g id="line2d_8">
    <path d="M 50.885609 82.389346 
L 92.936891 82.389346 
" clip-path="url(#p22ee3ff372)" style="fill: none; stroke-dasharray: 3.125,1.25; stroke-dashoffset: 0; stroke: #3f3f3f; stroke-width: 1.25"/>
   </g>
   <g id="line2d_9">
    <path d="M 60.789065 77.82071 
L 83.033435 77.82071 
" clip-path="url(#p22ee3ff372)" style="fill: none; stroke-dasharray: 1.5625,0.9375; stroke-dashoffset: 0; stroke: #3f3f3f; stroke-width: 1.25"/>
   </g>
   <g id="line2d_10">
    <path d="M 106.541573 84.867475 
L 148.880927 84.867475 
" clip-path="url(#p22ee3ff372)" style="fill: none; stroke-dasharray: 1.5625,0.9375; stroke-dashoffset: 0; stroke: #3f3f3f; stroke-width: 1.25"/>
   </g>
   <g id="line2d_11">
    <path d="M 106.457815 81.518239 
L 148.964685 81.518239 
" clip-path="url(#p22ee3ff372)" style="fill: none; stroke-dasharray: 3.125,1.25; stroke-dashoffset: 0; stroke: #3f3f3f; stroke-width: 1.25"/>
   </g>
   <g id="line2d_12">
    <path d="M 116.524381 76.067799 
L 138.898119 76.067799 
" clip-path="url(#p22ee3ff372)" style="fill: none; stroke-dasharray: 1.5625,0.9375; stroke-dashoffset: 0; stroke: #3f3f3f; stroke-width: 1.25"/>
   </g>
   <g id="patch_3">
    <path d="M 44.01125 104.949375 
L 44.01125 21.789375 
" style="fill: none; stroke: #000000; stroke-linejoin: miter; stroke-linecap: square"/>
   </g>
   <g id="patch_4">
    <path d="M 155.61125 104.949375 
L 155.61125 21.789375 
" style="fill: none; stroke: #000000; stroke-linejoin: miter; stroke-linecap: square"/>
   </g>
   <g id="patch_5">
    <path d="M 44.01125 104.949375 
L 155.61125 104.949375 
" style="fill: none; stroke: #000000; stroke-linejoin: miter; stroke-linecap: square"/>
   </g>
   <g id="patch_6">
    <path d="M 44.01125 21.789375 
L 155.61125 21.789375 
" style="fill: none; stroke: #000000; stroke-linejoin: miter; stroke-linecap: square"/>
   </g>
   <g id="text_8">
    <!-- p=1.7e-10 -->
    <g style="fill: #ff0000" transform="translate(77.49125 38.421375) scale(0.1 -0.1)">
     <defs>
      <path id="ArialMT-70" d="M 422 -1272 
L 422 3319 
L 934 3319 
L 934 2888 
Q 1116 3141 1344 3267 
Q 1572 3394 1897 3394 
Q 2322 3394 2647 3175 
Q 2972 2956 3137 2557 
Q 3303 2159 3303 1684 
Q 3303 1175 3120 767 
Q 2938 359 2589 142 
Q 2241 -75 1856 -75 
Q 1575 -75 1351 44 
Q 1128 163 984 344 
L 984 -1272 
L 422 -1272 
z
M 931 1641 
Q 931 1000 1190 694 
Q 1450 388 1819 388 
Q 2194 388 2461 705 
Q 2728 1022 2728 1688 
Q 2728 2322 2467 2637 
Q 2206 2953 1844 2953 
Q 1484 2953 1207 2617 
Q 931 2281 931 1641 
z
" transform="scale(0.015625)"/>
      <path id="ArialMT-3d" d="M 3381 2694 
L 356 2694 
L 356 3219 
L 3381 3219 
L 3381 2694 
z
M 3381 1303 
L 356 1303 
L 356 1828 
L 3381 1828 
L 3381 1303 
z
" transform="scale(0.015625)"/>
      <path id="ArialMT-37" d="M 303 3981 
L 303 4522 
L 3269 4522 
L 3269 4084 
Q 2831 3619 2401 2847 
Q 1972 2075 1738 1259 
Q 1569 684 1522 0 
L 944 0 
Q 953 541 1156 1306 
Q 1359 2072 1739 2783 
Q 2119 3494 2547 3981 
L 303 3981 
z
" transform="scale(0.015625)"/>
      <path id="ArialMT-65" d="M 2694 1069 
L 3275 997 
Q 3138 488 2766 206 
Q 2394 -75 1816 -75 
Q 1088 -75 661 373 
Q 234 822 234 1631 
Q 234 2469 665 2931 
Q 1097 3394 1784 3394 
Q 2450 3394 2872 2941 
Q 3294 2488 3294 1666 
Q 3294 1616 3291 1516 
L 816 1516 
Q 847 969 1125 678 
Q 1403 388 1819 388 
Q 2128 388 2347 550 
Q 2566 713 2694 1069 
z
M 847 1978 
L 2700 1978 
Q 2663 2397 2488 2606 
Q 2219 2931 1791 2931 
Q 1403 2931 1139 2672 
Q 875 2413 847 1978 
z
" transform="scale(0.015625)"/>
      <path id="ArialMT-2d" d="M 203 1375 
L 203 1941 
L 1931 1941 
L 1931 1375 
L 203 1375 
z
" transform="scale(0.015625)"/>
     </defs>
     <use xlink:href="#ArialMT-70"/>
     <use xlink:href="#ArialMT-3d" x="55.615234"/>
     <use xlink:href="#ArialMT-31" x="114.013672"/>
     <use xlink:href="#ArialMT-2e" x="169.628906"/>
     <use xlink:href="#ArialMT-37" x="197.412109"/>
     <use xlink:href="#ArialMT-65" x="253.027344"/>
     <use xlink:href="#ArialMT-2d" x="308.642578"/>
     <use xlink:href="#ArialMT-31" x="341.943359"/>
     <use xlink:href="#ArialMT-30" x="397.558594"/>
    </g>
   </g>
   <g id="text_9">
    <!-- Transcription variation -->
    <g transform="translate(35.133125 15.789375) scale(0.12 -0.12)">
     <defs>
      <path id="Arial-BoldMT-54" d="M 1497 0 
L 1497 3806 
L 138 3806 
L 138 4581 
L 3778 4581 
L 3778 3806 
L 2422 3806 
L 2422 0 
L 1497 0 
z
" transform="scale(0.015625)"/>
     </defs>
     <use xlink:href="#Arial-BoldMT-54"/>
     <use xlink:href="#Arial-BoldMT-72" x="55.583984"/>
     <use xlink:href="#Arial-BoldMT-61" x="94.5"/>
     <use xlink:href="#Arial-BoldMT-6e" x="150.115234"/>
     <use xlink:href="#Arial-BoldMT-73" x="211.199219"/>
     <use xlink:href="#Arial-BoldMT-63" x="266.814453"/>
     <use xlink:href="#Arial-BoldMT-72" x="322.429688"/>
     <use xlink:href="#Arial-BoldMT-69" x="361.345703"/>
     <use xlink:href="#Arial-BoldMT-70" x="389.128906"/>
     <use xlink:href="#Arial-BoldMT-74" x="450.212891"/>
     <use xlink:href="#Arial-BoldMT-69" x="483.513672"/>
     <use xlink:href="#Arial-BoldMT-6f" x="511.296875"/>
     <use xlink:href="#Arial-BoldMT-6e" x="572.380859"/>
     <use xlink:href="#Arial-BoldMT-20" x="633.464844"/>
     <use xlink:href="#Arial-BoldMT-76" x="661.248047"/>
     <use xlink:href="#Arial-BoldMT-61" x="716.863281"/>
     <use xlink:href="#Arial-BoldMT-72" x="772.478516"/>
     <use xlink:href="#Arial-BoldMT-69" x="811.394531"/>
     <use xlink:href="#Arial-BoldMT-61" x="839.177734"/>
     <use xlink:href="#Arial-BoldMT-74" x="894.792969"/>
     <use xlink:href="#Arial-BoldMT-69" x="928.09375"/>
     <use xlink:href="#Arial-BoldMT-6f" x="955.876953"/>
     <use xlink:href="#Arial-BoldMT-6e" x="1016.960938"/>
    </g>
   </g>
  </g>
 </g>
 <defs>
  <clipPath id="p22ee3ff372">
   <rect x="44.01125" y="21.789375" width="111.6" height="83.16"/>
  </clipPath>
 </defs>
</svg>
