<?xml version="1.0" encoding="utf-8" standalone="no"?>
<!DOCTYPE svg PUBLIC "-//W3C//DTD SVG 1.1//EN"
  "http://www.w3.org/Graphics/SVG/1.1/DTD/svg11.dtd">
<svg xmlns:xlink="http://www.w3.org/1999/xlink" width="168.599375pt" height="118.829063pt" viewBox="0 0 168.599375 118.829063" xmlns="http://www.w3.org/2000/svg" version="1.1">
 <metadata>
  <rdf:RDF xmlns:dc="http://purl.org/dc/elements/1.1/" xmlns:cc="http://creativecommons.org/ns#" xmlns:rdf="http://www.w3.org/1999/02/22-rdf-syntax-ns#">
   <cc:Work>
    <dc:type rdf:resource="http://purl.org/dc/dcmitype/StillImage"/>
    <dc:date>2024-04-28T09:41:51.176805</dc:date>
    <dc:format>image/svg+xml</dc:format>
    <dc:creator>
     <cc:Agent>
      <dc:title>Matplotlib v3.8.4, https://matplotlib.org/</dc:title>
     </cc:Agent>
    </dc:creator>
   </cc:Work>
  </rdf:RDF>
 </metadata>
 <defs>
  <style type="text/css">*{stroke-linejoin: round; stroke-linecap: butt}</style>
 </defs>
 <g id="figure_1">
  <g id="patch_1">
   <path d="M 0 118.829063 
L 168.599375 118.829063 
L 168.599375 0 
L 0 0 
L 0 118.829063 
z
" style="fill: none"/>
  </g>
  <g id="axes_1">
   <g id="patch_2">
    <path d="M 34.2575 104.949375 
L 145.8575 104.949375 
L 145.8575 21.789375 
L 34.2575 21.789375 
L 34.2575 104.949375 
z
" style="fill: none"/>
   </g>
   <g id="PolyCollection_1">
    <defs>
     <path id="m60c71d6bc3" d="M 62.175302 -21.241006 
L 62.139698 -21.241006 
L 62.115591 -22.12694 
L 62.072736 -23.012874 
L 62.009459 -23.898808 
L 61.932196 -24.784742 
L 61.853888 -25.670676 
L 61.785642 -26.55661 
L 61.728026 -27.442544 
L 61.670884 -28.328478 
L 61.602303 -29.214412 
L 61.517072 -30.100346 
L 61.415884 -30.98628 
L 61.29763 -31.872214 
L 61.154706 -32.758148 
L 60.976244 -33.644082 
L 60.754018 -34.530016 
L 60.483163 -35.41595 
L 60.15707 -36.301884 
L 59.762173 -37.187818 
L 59.276486 -38.073752 
L 58.670429 -38.959686 
L 57.907507 -39.84562 
L 56.94527 -40.731554 
L 55.739106 -41.617488 
L 54.252402 -42.503422 
L 52.476859 -43.389356 
L 50.460411 -44.27529 
L 48.324979 -45.161224 
L 46.248717 -46.047158 
L 44.407684 -46.933092 
L 42.909136 -47.819026 
L 41.763745 -48.70496 
L 40.916875 -49.590894 
L 40.313001 -50.476828 
L 39.942532 -51.362762 
L 39.8375 -52.248696 
L 40.028389 -53.13463 
L 40.507338 -54.020564 
L 41.229138 -54.906498 
L 42.137302 -55.792432 
L 43.180691 -56.678366 
L 44.307794 -57.5643 
L 45.456124 -58.450234 
L 46.557149 -59.336168 
L 47.55791 -60.222102 
L 48.443872 -61.108035 
L 49.245426 -61.993969 
L 50.021247 -62.879903 
L 50.827871 -63.765837 
L 51.693108 -64.651771 
L 52.604516 -65.537705 
L 53.513962 -66.423639 
L 54.356953 -67.309573 
L 55.083841 -68.195507 
L 55.689059 -69.081441 
L 56.216014 -69.967375 
L 56.728972 -70.853309 
L 57.271086 -71.739243 
L 57.839237 -72.625177 
L 58.390192 -73.511111 
L 58.868718 -74.397045 
L 59.237701 -75.282979 
L 59.494679 -76.168913 
L 59.669225 -77.054847 
L 59.805014 -77.940781 
L 59.937487 -78.826715 
L 60.080312 -79.712649 
L 60.22796 -80.598583 
L 60.369323 -81.484517 
L 60.499481 -82.370451 
L 60.621798 -83.256385 
L 60.743395 -84.142319 
L 60.870159 -85.028253 
L 61.003062 -85.914187 
L 61.136224 -86.800121 
L 61.259461 -87.686055 
L 61.36527 -88.571989 
L 61.453593 -89.457923 
L 61.528767 -90.343857 
L 61.592966 -91.229791 
L 61.645331 -92.115725 
L 61.688214 -93.001659 
L 61.73153 -93.887593 
L 61.787528 -94.773527 
L 61.860104 -95.659461 
L 61.940023 -96.545395 
L 62.011246 -97.431329 
L 62.061917 -98.317263 
L 62.090128 -99.203197 
L 62.10135 -100.089131 
L 62.102342 -100.975065 
L 62.097752 -101.860999 
L 62.090999 -102.746933 
L 62.086189 -103.632867 
L 62.087599 -104.518801 
L 62.097016 -105.404735 
L 62.1122 -106.290668 
L 62.128426 -107.176602 
L 62.141586 -108.062536 
L 62.150087 -108.94847 
L 62.164913 -108.94847 
L 62.164913 -108.94847 
L 62.173414 -108.062536 
L 62.186574 -107.176602 
L 62.2028 -106.290668 
L 62.217984 -105.404735 
L 62.227401 -104.518801 
L 62.228811 -103.632867 
L 62.224001 -102.746933 
L 62.217248 -101.860999 
L 62.212658 -100.975065 
L 62.21365 -100.089131 
L 62.224872 -99.203197 
L 62.253083 -98.317263 
L 62.303754 -97.431329 
L 62.374977 -96.545395 
L 62.454896 -95.659461 
L 62.527472 -94.773527 
L 62.58347 -93.887593 
L 62.626786 -93.001659 
L 62.669669 -92.115725 
L 62.722034 -91.229791 
L 62.786233 -90.343857 
L 62.861407 -89.457923 
L 62.94973 -88.571989 
L 63.055539 -87.686055 
L 63.178776 -86.800121 
L 63.311938 -85.914187 
L 63.444841 -85.028253 
L 63.571605 -84.142319 
L 63.693202 -83.256385 
L 63.815519 -82.370451 
L 63.945677 -81.484517 
L 64.08704 -80.598583 
L 64.234688 -79.712649 
L 64.377513 -78.826715 
L 64.509986 -77.940781 
L 64.645775 -77.054847 
L 64.820321 -76.168913 
L 65.077299 -75.282979 
L 65.446282 -74.397045 
L 65.924808 -73.511111 
L 66.475763 -72.625177 
L 67.043914 -71.739243 
L 67.586028 -70.853309 
L 68.098986 -69.967375 
L 68.625941 -69.081441 
L 69.231159 -68.195507 
L 69.958047 -67.309573 
L 70.801038 -66.423639 
L 71.710484 -65.537705 
L 72.621892 -64.651771 
L 73.487129 -63.765837 
L 74.293753 -62.879903 
L 75.069574 -61.993969 
L 75.871128 -61.108035 
L 76.75709 -60.222102 
L 77.757851 -59.336168 
L 78.858876 -58.450234 
L 80.007206 -57.5643 
L 81.134309 -56.678366 
L 82.177698 -55.792432 
L 83.085862 -54.906498 
L 83.807662 -54.020564 
L 84.286611 -53.13463 
L 84.4775 -52.248696 
L 84.372468 -51.362762 
L 84.001999 -50.476828 
L 83.398125 -49.590894 
L 82.551255 -48.70496 
L 81.405864 -47.819026 
L 79.907316 -46.933092 
L 78.066283 -46.047158 
L 75.990021 -45.161224 
L 73.854589 -44.27529 
L 71.838141 -43.389356 
L 70.062598 -42.503422 
L 68.575894 -41.617488 
L 67.36973 -40.731554 
L 66.407493 -39.84562 
L 65.644571 -38.959686 
L 65.038514 -38.073752 
L 64.552827 -37.187818 
L 64.15793 -36.301884 
L 63.831837 -35.41595 
L 63.560982 -34.530016 
L 63.338756 -33.644082 
L 63.160294 -32.758148 
L 63.01737 -31.872214 
L 62.899116 -30.98628 
L 62.797928 -30.100346 
L 62.712697 -29.214412 
L 62.644116 -28.328478 
L 62.586974 -27.442544 
L 62.529358 -26.55661 
L 62.461112 -25.670676 
L 62.382804 -24.784742 
L 62.305541 -23.898808 
L 62.242264 -23.012874 
L 62.199409 -22.12694 
L 62.175302 -21.241006 
z
" style="stroke: #3f3f3f; stroke-width: 1.25"/>
    </defs>
    <g clip-path="url(#p8a78f284d5)">
     <use xlink:href="#m60c71d6bc3" x="0" y="118.829063" style="fill: #407193; stroke: #3f3f3f; stroke-width: 1.25"/>
    </g>
   </g>
   <g id="PolyCollection_2">
    <defs>
     <path id="m2f320375ae" d="M 117.977597 -18.124441 
L 117.937403 -18.124441 
L 117.904925 -19.13207 
L 117.834719 -20.139698 
L 117.701278 -21.147326 
L 117.479282 -22.154954 
L 117.157944 -23.162582 
L 116.756112 -24.17021 
L 116.325362 -25.177838 
L 115.932101 -26.185467 
L 115.625978 -27.193095 
L 115.417158 -28.200723 
L 115.280298 -29.208351 
L 115.179053 -30.215979 
L 115.086736 -31.223607 
L 114.986752 -32.231235 
L 114.859418 -33.238863 
L 114.671807 -34.246492 
L 114.376588 -35.25412 
L 113.9138 -36.261748 
L 113.213155 -37.269376 
L 112.20508 -38.277004 
L 110.84583 -39.284632 
L 109.145685 -40.29226 
L 107.180768 -41.299888 
L 105.08023 -42.307517 
L 102.996691 -43.315145 
L 101.0729 -44.322773 
L 99.414558 -45.330401 
L 98.076413 -46.338029 
L 97.064214 -47.345657 
L 96.34915 -48.353285 
L 95.889771 -49.360914 
L 95.655355 -50.368542 
L 95.6375 -51.37617 
L 95.836909 -52.383798 
L 96.235254 -53.391426 
L 96.785503 -54.399054 
L 97.438995 -55.406682 
L 98.181811 -56.41431 
L 99.033763 -57.421939 
L 100.002242 -58.429567 
L 101.038372 -59.437195 
L 102.047681 -60.444823 
L 102.95278 -61.452451 
L 103.75182 -62.460079 
L 104.519763 -63.467707 
L 105.35138 -64.475336 
L 106.293273 -65.482964 
L 107.31758 -66.490592 
L 108.351994 -67.49822 
L 109.333051 -68.505848 
L 110.23552 -69.513476 
L 111.061848 -70.521104 
L 111.816006 -71.528732 
L 112.493034 -72.536361 
L 113.089476 -73.543989 
L 113.616217 -74.551617 
L 114.09726 -75.559245 
L 114.55547 -76.566873 
L 114.998261 -77.574501 
L 115.414393 -78.582129 
L 115.783376 -79.589757 
L 116.090284 -80.597386 
L 116.336308 -81.605014 
L 116.538813 -82.612642 
L 116.720989 -83.62027 
L 116.897935 -84.627898 
L 117.069532 -85.635526 
L 117.225692 -86.643154 
L 117.358463 -87.650783 
L 117.469181 -88.658411 
L 117.565156 -89.666039 
L 117.651591 -90.673667 
L 117.727861 -91.681295 
L 117.790584 -92.688923 
L 117.838513 -93.696551 
L 117.873911 -94.704179 
L 117.900145 -95.711808 
L 117.918906 -96.719436 
L 117.929575 -97.727064 
L 117.930484 -98.734692 
L 117.920786 -99.74232 
L 117.90221 -100.749948 
L 117.880096 -101.757576 
L 117.862482 -102.765204 
L 117.856689 -103.772833 
L 117.865209 -104.780461 
L 117.884109 -105.788089 
L 117.905371 -106.795717 
L 117.921264 -107.803345 
L 117.927639 -108.810973 
L 117.924836 -109.818601 
L 117.916774 -110.82623 
L 117.909064 -111.833858 
L 117.906566 -112.841486 
L 117.911197 -113.849114 
L 117.921327 -114.856742 
L 117.933253 -115.86437 
L 117.94356 -116.871998 
L 117.950627 -117.879626 
L 117.964373 -117.879626 
L 117.964373 -117.879626 
L 117.97144 -116.871998 
L 117.981747 -115.86437 
L 117.993673 -114.856742 
L 118.003803 -113.849114 
L 118.008434 -112.841486 
L 118.005936 -111.833858 
L 117.998226 -110.82623 
L 117.990164 -109.818601 
L 117.987361 -108.810973 
L 117.993736 -107.803345 
L 118.009629 -106.795717 
L 118.030891 -105.788089 
L 118.049791 -104.780461 
L 118.058311 -103.772833 
L 118.052518 -102.765204 
L 118.034904 -101.757576 
L 118.01279 -100.749948 
L 117.994214 -99.74232 
L 117.984516 -98.734692 
L 117.985425 -97.727064 
L 117.996094 -96.719436 
L 118.014855 -95.711808 
L 118.041089 -94.704179 
L 118.076487 -93.696551 
L 118.124416 -92.688923 
L 118.187139 -91.681295 
L 118.263409 -90.673667 
L 118.349844 -89.666039 
L 118.445819 -88.658411 
L 118.556537 -87.650783 
L 118.689308 -86.643154 
L 118.845468 -85.635526 
L 119.017065 -84.627898 
L 119.194011 -83.62027 
L 119.376187 -82.612642 
L 119.578692 -81.605014 
L 119.824716 -80.597386 
L 120.131624 -79.589757 
L 120.500607 -78.582129 
L 120.916739 -77.574501 
L 121.35953 -76.566873 
L 121.81774 -75.559245 
L 122.298783 -74.551617 
L 122.825524 -73.543989 
L 123.421966 -72.536361 
L 124.098994 -71.528732 
L 124.853152 -70.521104 
L 125.67948 -69.513476 
L 126.581949 -68.505848 
L 127.563006 -67.49822 
L 128.59742 -66.490592 
L 129.621727 -65.482964 
L 130.56362 -64.475336 
L 131.395237 -63.467707 
L 132.16318 -62.460079 
L 132.96222 -61.452451 
L 133.867319 -60.444823 
L 134.876628 -59.437195 
L 135.912758 -58.429567 
L 136.881237 -57.421939 
L 137.733189 -56.41431 
L 138.476005 -55.406682 
L 139.129497 -54.399054 
L 139.679746 -53.391426 
L 140.078091 -52.383798 
L 140.2775 -51.37617 
L 140.259645 -50.368542 
L 140.025229 -49.360914 
L 139.56585 -48.353285 
L 138.850786 -47.345657 
L 137.838587 -46.338029 
L 136.500442 -45.330401 
L 134.8421 -44.322773 
L 132.918309 -43.315145 
L 130.83477 -42.307517 
L 128.734232 -41.299888 
L 126.769315 -40.29226 
L 125.06917 -39.284632 
L 123.70992 -38.277004 
L 122.701845 -37.269376 
L 122.0012 -36.261748 
L 121.538412 -35.25412 
L 121.243193 -34.246492 
L 121.055582 -33.238863 
L 120.928248 -32.231235 
L 120.828264 -31.223607 
L 120.735947 -30.215979 
L 120.634702 -29.208351 
L 120.497842 -28.200723 
L 120.289022 -27.193095 
L 119.982899 -26.185467 
L 119.589638 -25.177838 
L 119.158888 -24.17021 
L 118.757056 -23.162582 
L 118.435718 -22.154954 
L 118.213722 -21.147326 
L 118.080281 -20.139698 
L 118.010075 -19.13207 
L 117.977597 -18.124441 
z
" style="stroke: #3f3f3f; stroke-width: 1.25"/>
    </defs>
    <g clip-path="url(#p8a78f284d5)">
     <use xlink:href="#m2f320375ae" x="0" y="118.829063" style="fill: #df6c20; stroke: #3f3f3f; stroke-width: 1.25"/>
    </g>
   </g>
   <g id="matplotlib.axis_1">
    <g id="xtick_1">
     <g id="line2d_1">
      <defs>
       <path id="mb953f0e1e1" d="M 0 0 
L 0 3.5 
" style="stroke: #000000; stroke-width: 0.8"/>
      </defs>
      <g>
       <use xlink:href="#mb953f0e1e1" x="62.1575" y="104.949375" style="stroke: #000000; stroke-width: 0.8"/>
      </g>
     </g>
    </g>
    <g id="xtick_2">
     <g id="line2d_2">
      <g>
       <use xlink:href="#mb953f0e1e1" x="117.9575" y="104.949375" style="stroke: #000000; stroke-width: 0.8"/>
      </g>
     </g>
    </g>
   </g>
   <g id="matplotlib.axis_2">
    <g id="ytick_1">
     <g id="line2d_3">
      <defs>
       <path id="m1b1b8d2a20" d="M 0 0 
L -3.5 0 
" style="stroke: #000000; stroke-width: 0.8"/>
      </defs>
      <g>
       <use xlink:href="#m1b1b8d2a20" x="34.2575" y="104.949375" style="stroke: #000000; stroke-width: 0.8"/>
      </g>
     </g>
     <g id="text_1">
      <!-- 0 -->
      <g transform="translate(20.584375 109.244063) scale(0.12 -0.12)">
       <defs>
        <path id="ArialMT-30" d="M 266 2259 
Q 266 3072 433 3567 
Q 600 4063 929 4331 
Q 1259 4600 1759 4600 
Q 2128 4600 2406 4451 
Q 2684 4303 2865 4023 
Q 3047 3744 3150 3342 
Q 3253 2941 3253 2259 
Q 3253 1453 3087 958 
Q 2922 463 2592 192 
Q 2263 -78 1759 -78 
Q 1097 -78 719 397 
Q 266 969 266 2259 
z
M 844 2259 
Q 844 1131 1108 757 
Q 1372 384 1759 384 
Q 2147 384 2411 759 
Q 2675 1134 2675 2259 
Q 2675 3391 2411 3762 
Q 2147 4134 1753 4134 
Q 1366 4134 1134 3806 
Q 844 3388 844 2259 
z
" transform="scale(0.015625)"/>
       </defs>
       <use xlink:href="#ArialMT-30"/>
      </g>
     </g>
    </g>
    <g id="ytick_2">
     <g id="line2d_4">
      <g>
       <use xlink:href="#m1b1b8d2a20" x="34.2575" y="84.159375" style="stroke: #000000; stroke-width: 0.8"/>
      </g>
     </g>
     <g id="text_2">
      <!-- 3 -->
      <g transform="translate(20.584375 88.454063) scale(0.12 -0.12)">
       <defs>
        <path id="ArialMT-33" d="M 269 1209 
L 831 1284 
Q 928 806 1161 595 
Q 1394 384 1728 384 
Q 2125 384 2398 659 
Q 2672 934 2672 1341 
Q 2672 1728 2419 1979 
Q 2166 2231 1775 2231 
Q 1616 2231 1378 2169 
L 1441 2663 
Q 1497 2656 1531 2656 
Q 1891 2656 2178 2843 
Q 2466 3031 2466 3422 
Q 2466 3731 2256 3934 
Q 2047 4138 1716 4138 
Q 1388 4138 1169 3931 
Q 950 3725 888 3313 
L 325 3413 
Q 428 3978 793 4289 
Q 1159 4600 1703 4600 
Q 2078 4600 2393 4439 
Q 2709 4278 2876 4000 
Q 3044 3722 3044 3409 
Q 3044 3113 2884 2869 
Q 2725 2625 2413 2481 
Q 2819 2388 3044 2092 
Q 3269 1797 3269 1353 
Q 3269 753 2831 336 
Q 2394 -81 1725 -81 
Q 1122 -81 723 278 
Q 325 638 269 1209 
z
" transform="scale(0.015625)"/>
       </defs>
       <use xlink:href="#ArialMT-33"/>
      </g>
     </g>
    </g>
    <g id="ytick_3">
     <g id="line2d_5">
      <g>
       <use xlink:href="#m1b1b8d2a20" x="34.2575" y="63.369375" style="stroke: #000000; stroke-width: 0.8"/>
      </g>
     </g>
     <g id="text_3">
      <!-- 6 -->
      <g transform="translate(20.584375 67.664063) scale(0.12 -0.12)">
       <defs>
        <path id="ArialMT-36" d="M 3184 3459 
L 2625 3416 
Q 2550 3747 2413 3897 
Q 2184 4138 1850 4138 
Q 1581 4138 1378 3988 
Q 1113 3794 959 3422 
Q 806 3050 800 2363 
Q 1003 2672 1297 2822 
Q 1591 2972 1913 2972 
Q 2475 2972 2870 2558 
Q 3266 2144 3266 1488 
Q 3266 1056 3080 686 
Q 2894 316 2569 119 
Q 2244 -78 1831 -78 
Q 1128 -78 684 439 
Q 241 956 241 2144 
Q 241 3472 731 4075 
Q 1159 4600 1884 4600 
Q 2425 4600 2770 4297 
Q 3116 3994 3184 3459 
z
M 888 1484 
Q 888 1194 1011 928 
Q 1134 663 1356 523 
Q 1578 384 1822 384 
Q 2178 384 2434 671 
Q 2691 959 2691 1453 
Q 2691 1928 2437 2201 
Q 2184 2475 1800 2475 
Q 1419 2475 1153 2201 
Q 888 1928 888 1484 
z
" transform="scale(0.015625)"/>
       </defs>
       <use xlink:href="#ArialMT-36"/>
      </g>
     </g>
    </g>
    <g id="ytick_4">
     <g id="line2d_6">
      <g>
       <use xlink:href="#m1b1b8d2a20" x="34.2575" y="42.579375" style="stroke: #000000; stroke-width: 0.8"/>
      </g>
     </g>
     <g id="text_4">
      <!-- 9 -->
      <g transform="translate(20.584375 46.874063) scale(0.12 -0.12)">
       <defs>
        <path id="ArialMT-39" d="M 350 1059 
L 891 1109 
Q 959 728 1153 556 
Q 1347 384 1650 384 
Q 1909 384 2104 503 
Q 2300 622 2425 820 
Q 2550 1019 2634 1356 
Q 2719 1694 2719 2044 
Q 2719 2081 2716 2156 
Q 2547 1888 2255 1720 
Q 1963 1553 1622 1553 
Q 1053 1553 659 1965 
Q 266 2378 266 3053 
Q 266 3750 677 4175 
Q 1088 4600 1706 4600 
Q 2153 4600 2523 4359 
Q 2894 4119 3086 3673 
Q 3278 3228 3278 2384 
Q 3278 1506 3087 986 
Q 2897 466 2520 194 
Q 2144 -78 1638 -78 
Q 1100 -78 759 220 
Q 419 519 350 1059 
z
M 2653 3081 
Q 2653 3566 2395 3850 
Q 2138 4134 1775 4134 
Q 1400 4134 1122 3828 
Q 844 3522 844 3034 
Q 844 2597 1108 2323 
Q 1372 2050 1759 2050 
Q 2150 2050 2401 2323 
Q 2653 2597 2653 3081 
z
" transform="scale(0.015625)"/>
       </defs>
       <use xlink:href="#ArialMT-39"/>
      </g>
     </g>
    </g>
    <g id="text_5">
     <!-- mean log2(TPM+1) -->
     <g transform="translate(14.479688 107.681094) rotate(-90) scale(0.1 -0.1)">
      <defs>
       <path id="Arial-BoldMT-6d" d="M 394 3319 
L 1203 3319 
L 1203 2866 
Q 1638 3394 2238 3394 
Q 2556 3394 2790 3262 
Q 3025 3131 3175 2866 
Q 3394 3131 3647 3262 
Q 3900 3394 4188 3394 
Q 4553 3394 4806 3245 
Q 5059 3097 5184 2809 
Q 5275 2597 5275 2122 
L 5275 0 
L 4397 0 
L 4397 1897 
Q 4397 2391 4306 2534 
Q 4184 2722 3931 2722 
Q 3747 2722 3584 2609 
Q 3422 2497 3350 2280 
Q 3278 2063 3278 1594 
L 3278 0 
L 2400 0 
L 2400 1819 
Q 2400 2303 2353 2443 
Q 2306 2584 2207 2653 
Q 2109 2722 1941 2722 
Q 1738 2722 1575 2612 
Q 1413 2503 1342 2297 
Q 1272 2091 1272 1613 
L 1272 0 
L 394 0 
L 394 3319 
z
" transform="scale(0.015625)"/>
       <path id="Arial-BoldMT-65" d="M 2381 1056 
L 3256 909 
Q 3088 428 2723 176 
Q 2359 -75 1813 -75 
Q 947 -75 531 491 
Q 203 944 203 1634 
Q 203 2459 634 2926 
Q 1066 3394 1725 3394 
Q 2466 3394 2894 2905 
Q 3322 2416 3303 1406 
L 1103 1406 
Q 1113 1016 1316 798 
Q 1519 581 1822 581 
Q 2028 581 2168 693 
Q 2309 806 2381 1056 
z
M 2431 1944 
Q 2422 2325 2234 2523 
Q 2047 2722 1778 2722 
Q 1491 2722 1303 2513 
Q 1116 2303 1119 1944 
L 2431 1944 
z
" transform="scale(0.015625)"/>
       <path id="Arial-BoldMT-61" d="M 1116 2306 
L 319 2450 
Q 453 2931 781 3162 
Q 1109 3394 1756 3394 
Q 2344 3394 2631 3255 
Q 2919 3116 3036 2902 
Q 3153 2688 3153 2116 
L 3144 1091 
Q 3144 653 3186 445 
Q 3228 238 3344 0 
L 2475 0 
Q 2441 88 2391 259 
Q 2369 338 2359 363 
Q 2134 144 1878 34 
Q 1622 -75 1331 -75 
Q 819 -75 523 203 
Q 228 481 228 906 
Q 228 1188 362 1408 
Q 497 1628 739 1745 
Q 981 1863 1438 1950 
Q 2053 2066 2291 2166 
L 2291 2253 
Q 2291 2506 2166 2614 
Q 2041 2722 1694 2722 
Q 1459 2722 1328 2630 
Q 1197 2538 1116 2306 
z
M 2291 1594 
Q 2122 1538 1756 1459 
Q 1391 1381 1278 1306 
Q 1106 1184 1106 997 
Q 1106 813 1243 678 
Q 1381 544 1594 544 
Q 1831 544 2047 700 
Q 2206 819 2256 991 
Q 2291 1103 2291 1419 
L 2291 1594 
z
" transform="scale(0.015625)"/>
       <path id="Arial-BoldMT-6e" d="M 3478 0 
L 2600 0 
L 2600 1694 
Q 2600 2231 2544 2389 
Q 2488 2547 2361 2634 
Q 2234 2722 2056 2722 
Q 1828 2722 1647 2597 
Q 1466 2472 1398 2265 
Q 1331 2059 1331 1503 
L 1331 0 
L 453 0 
L 453 3319 
L 1269 3319 
L 1269 2831 
Q 1703 3394 2363 3394 
Q 2653 3394 2893 3289 
Q 3134 3184 3257 3021 
Q 3381 2859 3429 2653 
Q 3478 2447 3478 2063 
L 3478 0 
z
" transform="scale(0.015625)"/>
       <path id="Arial-BoldMT-20" transform="scale(0.015625)"/>
       <path id="Arial-BoldMT-6c" d="M 459 0 
L 459 4581 
L 1338 4581 
L 1338 0 
L 459 0 
z
" transform="scale(0.015625)"/>
       <path id="Arial-BoldMT-6f" d="M 256 1706 
Q 256 2144 472 2553 
Q 688 2963 1083 3178 
Q 1478 3394 1966 3394 
Q 2719 3394 3200 2905 
Q 3681 2416 3681 1669 
Q 3681 916 3195 420 
Q 2709 -75 1972 -75 
Q 1516 -75 1102 131 
Q 688 338 472 736 
Q 256 1134 256 1706 
z
M 1156 1659 
Q 1156 1166 1390 903 
Q 1625 641 1969 641 
Q 2313 641 2545 903 
Q 2778 1166 2778 1666 
Q 2778 2153 2545 2415 
Q 2313 2678 1969 2678 
Q 1625 2678 1390 2415 
Q 1156 2153 1156 1659 
z
" transform="scale(0.015625)"/>
       <path id="Arial-BoldMT-67" d="M 378 -219 
L 1381 -341 
Q 1406 -516 1497 -581 
Q 1622 -675 1891 -675 
Q 2234 -675 2406 -572 
Q 2522 -503 2581 -350 
Q 2622 -241 2622 53 
L 2622 538 
Q 2228 0 1628 0 
Q 959 0 569 566 
Q 263 1013 263 1678 
Q 263 2513 664 2953 
Q 1066 3394 1663 3394 
Q 2278 3394 2678 2853 
L 2678 3319 
L 3500 3319 
L 3500 341 
Q 3500 -247 3403 -537 
Q 3306 -828 3131 -993 
Q 2956 -1159 2664 -1253 
Q 2372 -1347 1925 -1347 
Q 1081 -1347 728 -1058 
Q 375 -769 375 -325 
Q 375 -281 378 -219 
z
M 1163 1728 
Q 1163 1200 1367 954 
Q 1572 709 1872 709 
Q 2194 709 2416 961 
Q 2638 1213 2638 1706 
Q 2638 2222 2425 2472 
Q 2213 2722 1888 2722 
Q 1572 2722 1367 2476 
Q 1163 2231 1163 1728 
z
" transform="scale(0.015625)"/>
       <path id="Arial-BoldMT-32" d="M 3238 816 
L 3238 0 
L 159 0 
Q 209 463 459 877 
Q 709 1291 1447 1975 
Q 2041 2528 2175 2725 
Q 2356 2997 2356 3263 
Q 2356 3556 2198 3714 
Q 2041 3872 1763 3872 
Q 1488 3872 1325 3706 
Q 1163 3541 1138 3156 
L 263 3244 
Q 341 3969 753 4284 
Q 1166 4600 1784 4600 
Q 2463 4600 2850 4234 
Q 3238 3869 3238 3325 
Q 3238 3016 3127 2736 
Q 3016 2456 2775 2150 
Q 2616 1947 2200 1565 
Q 1784 1184 1673 1059 
Q 1563 934 1494 816 
L 3238 816 
z
" transform="scale(0.015625)"/>
       <path id="Arial-BoldMT-28" d="M 1916 -1347 
L 1313 -1347 
Q 834 -625 584 153 
Q 334 931 334 1659 
Q 334 2563 644 3369 
Q 913 4069 1325 4659 
L 1925 4659 
Q 1497 3713 1336 3048 
Q 1175 2384 1175 1641 
Q 1175 1128 1270 590 
Q 1366 53 1531 -431 
Q 1641 -750 1916 -1347 
z
" transform="scale(0.015625)"/>
       <path id="Arial-BoldMT-54" d="M 1497 0 
L 1497 3806 
L 138 3806 
L 138 4581 
L 3778 4581 
L 3778 3806 
L 2422 3806 
L 2422 0 
L 1497 0 
z
" transform="scale(0.015625)"/>
       <path id="Arial-BoldMT-50" d="M 466 0 
L 466 4581 
L 1950 4581 
Q 2794 4581 3050 4513 
Q 3444 4409 3709 4064 
Q 3975 3719 3975 3172 
Q 3975 2750 3822 2462 
Q 3669 2175 3433 2011 
Q 3197 1847 2953 1794 
Q 2622 1728 1994 1728 
L 1391 1728 
L 1391 0 
L 466 0 
z
M 1391 3806 
L 1391 2506 
L 1897 2506 
Q 2444 2506 2628 2578 
Q 2813 2650 2917 2803 
Q 3022 2956 3022 3159 
Q 3022 3409 2875 3571 
Q 2728 3734 2503 3775 
Q 2338 3806 1838 3806 
L 1391 3806 
z
" transform="scale(0.015625)"/>
       <path id="Arial-BoldMT-4d" d="M 453 0 
L 453 4581 
L 1838 4581 
L 2669 1456 
L 3491 4581 
L 4878 4581 
L 4878 0 
L 4019 0 
L 4019 3606 
L 3109 0 
L 2219 0 
L 1313 3606 
L 1313 0 
L 453 0 
z
" transform="scale(0.015625)"/>
       <path id="Arial-BoldMT-2b" d="M 1466 659 
L 1466 1850 
L 266 1850 
L 266 2672 
L 1466 2672 
L 1466 3863 
L 2266 3863 
L 2266 2672 
L 3469 2672 
L 3469 1850 
L 2266 1850 
L 2266 659 
L 1466 659 
z
" transform="scale(0.015625)"/>
       <path id="Arial-BoldMT-31" d="M 2519 0 
L 1641 0 
L 1641 3309 
Q 1159 2859 506 2644 
L 506 3441 
Q 850 3553 1253 3867 
Q 1656 4181 1806 4600 
L 2519 4600 
L 2519 0 
z
" transform="scale(0.015625)"/>
       <path id="Arial-BoldMT-29" d="M 216 -1347 
Q 475 -791 581 -494 
Q 688 -197 778 190 
Q 869 578 912 926 
Q 956 1275 956 1641 
Q 956 2384 797 3048 
Q 638 3713 209 4659 
L 806 4659 
Q 1278 3988 1539 3234 
Q 1800 2481 1800 1706 
Q 1800 1053 1594 306 
Q 1359 -531 822 -1347 
L 216 -1347 
z
" transform="scale(0.015625)"/>
      </defs>
      <use xlink:href="#Arial-BoldMT-6d"/>
      <use xlink:href="#Arial-BoldMT-65" x="88.916016"/>
      <use xlink:href="#Arial-BoldMT-61" x="144.53125"/>
      <use xlink:href="#Arial-BoldMT-6e" x="200.146484"/>
      <use xlink:href="#Arial-BoldMT-20" x="261.230469"/>
      <use xlink:href="#Arial-BoldMT-6c" x="289.013672"/>
      <use xlink:href="#Arial-BoldMT-6f" x="316.796875"/>
      <use xlink:href="#Arial-BoldMT-67" x="377.880859"/>
      <use xlink:href="#Arial-BoldMT-32" x="438.964844"/>
      <use xlink:href="#Arial-BoldMT-28" x="494.580078"/>
      <use xlink:href="#Arial-BoldMT-54" x="527.880859"/>
      <use xlink:href="#Arial-BoldMT-50" x="588.964844"/>
      <use xlink:href="#Arial-BoldMT-4d" x="655.664062"/>
      <use xlink:href="#Arial-BoldMT-2b" x="738.964844"/>
      <use xlink:href="#Arial-BoldMT-31" x="797.363281"/>
      <use xlink:href="#Arial-BoldMT-29" x="852.978516"/>
     </g>
    </g>
   </g>
   <g id="line2d_7">
    <path d="M 41.688014 70.044879 
L 82.626986 70.044879 
" clip-path="url(#p8a78f284d5)" style="fill: none; stroke-dasharray: 1.5625,0.9375; stroke-dashoffset: 0; stroke: #3f3f3f; stroke-width: 1.25"/>
   </g>
   <g id="line2d_8">
    <path d="M 40.77362 64.481665 
L 83.54138 64.481665 
" clip-path="url(#p8a78f284d5)" style="fill: none; stroke-dasharray: 3.125,1.25; stroke-dashoffset: 0; stroke: #3f3f3f; stroke-width: 1.25"/>
   </g>
   <g id="line2d_9">
    <path d="M 48.993516 57.113521 
L 75.321484 57.113521 
" clip-path="url(#p8a78f284d5)" style="fill: none; stroke-dasharray: 1.5625,0.9375; stroke-dashoffset: 0; stroke: #3f3f3f; stroke-width: 1.25"/>
   </g>
   <g id="line2d_10">
    <path d="M 97.777809 72.193778 
L 138.137191 72.193778 
" clip-path="url(#p8a78f284d5)" style="fill: none; stroke-dasharray: 1.5625,0.9375; stroke-dashoffset: 0; stroke: #3f3f3f; stroke-width: 1.25"/>
   </g>
   <g id="line2d_11">
    <path d="M 96.178416 65.58141 
L 139.736584 65.58141 
" clip-path="url(#p8a78f284d5)" style="fill: none; stroke-dasharray: 3.125,1.25; stroke-dashoffset: 0; stroke: #3f3f3f; stroke-width: 1.25"/>
   </g>
   <g id="line2d_12">
    <path d="M 102.960318 57.367105 
L 132.954682 57.367105 
" clip-path="url(#p8a78f284d5)" style="fill: none; stroke-dasharray: 1.5625,0.9375; stroke-dashoffset: 0; stroke: #3f3f3f; stroke-width: 1.25"/>
   </g>
   <g id="patch_3">
    <path d="M 34.2575 104.949375 
L 34.2575 21.789375 
" style="fill: none; stroke: #000000; stroke-linejoin: miter; stroke-linecap: square"/>
   </g>
   <g id="patch_4">
    <path d="M 145.8575 104.949375 
L 145.8575 21.789375 
" style="fill: none; stroke: #000000; stroke-linejoin: miter; stroke-linecap: square"/>
   </g>
   <g id="patch_5">
    <path d="M 34.2575 104.949375 
L 145.8575 104.949375 
" style="fill: none; stroke: #000000; stroke-linejoin: miter; stroke-linecap: square"/>
   </g>
   <g id="patch_6">
    <path d="M 34.2575 21.789375 
L 145.8575 21.789375 
" style="fill: none; stroke: #000000; stroke-linejoin: miter; stroke-linecap: square"/>
   </g>
   <g id="text_6">
    <!-- p=1.1e-7 -->
    <g style="fill: #ff0000" transform="translate(67.7375 38.421375) scale(0.1 -0.1)">
     <defs>
      <path id="ArialMT-70" d="M 422 -1272 
L 422 3319 
L 934 3319 
L 934 2888 
Q 1116 3141 1344 3267 
Q 1572 3394 1897 3394 
Q 2322 3394 2647 3175 
Q 2972 2956 3137 2557 
Q 3303 2159 3303 1684 
Q 3303 1175 3120 767 
Q 2938 359 2589 142 
Q 2241 -75 1856 -75 
Q 1575 -75 1351 44 
Q 1128 163 984 344 
L 984 -1272 
L 422 -1272 
z
M 931 1641 
Q 931 1000 1190 694 
Q 1450 388 1819 388 
Q 2194 388 2461 705 
Q 2728 1022 2728 1688 
Q 2728 2322 2467 2637 
Q 2206 2953 1844 2953 
Q 1484 2953 1207 2617 
Q 931 2281 931 1641 
z
" transform="scale(0.015625)"/>
      <path id="ArialMT-3d" d="M 3381 2694 
L 356 2694 
L 356 3219 
L 3381 3219 
L 3381 2694 
z
M 3381 1303 
L 356 1303 
L 356 1828 
L 3381 1828 
L 3381 1303 
z
" transform="scale(0.015625)"/>
      <path id="ArialMT-31" d="M 2384 0 
L 1822 0 
L 1822 3584 
Q 1619 3391 1289 3197 
Q 959 3003 697 2906 
L 697 3450 
Q 1169 3672 1522 3987 
Q 1875 4303 2022 4600 
L 2384 4600 
L 2384 0 
z
" transform="scale(0.015625)"/>
      <path id="ArialMT-2e" d="M 581 0 
L 581 641 
L 1222 641 
L 1222 0 
L 581 0 
z
" transform="scale(0.015625)"/>
      <path id="ArialMT-65" d="M 2694 1069 
L 3275 997 
Q 3138 488 2766 206 
Q 2394 -75 1816 -75 
Q 1088 -75 661 373 
Q 234 822 234 1631 
Q 234 2469 665 2931 
Q 1097 3394 1784 3394 
Q 2450 3394 2872 2941 
Q 3294 2488 3294 1666 
Q 3294 1616 3291 1516 
L 816 1516 
Q 847 969 1125 678 
Q 1403 388 1819 388 
Q 2128 388 2347 550 
Q 2566 713 2694 1069 
z
M 847 1978 
L 2700 1978 
Q 2663 2397 2488 2606 
Q 2219 2931 1791 2931 
Q 1403 2931 1139 2672 
Q 875 2413 847 1978 
z
" transform="scale(0.015625)"/>
      <path id="ArialMT-2d" d="M 203 1375 
L 203 1941 
L 1931 1941 
L 1931 1375 
L 203 1375 
z
" transform="scale(0.015625)"/>
      <path id="ArialMT-37" d="M 303 3981 
L 303 4522 
L 3269 4522 
L 3269 4084 
Q 2831 3619 2401 2847 
Q 1972 2075 1738 1259 
Q 1569 684 1522 0 
L 944 0 
Q 953 541 1156 1306 
Q 1359 2072 1739 2783 
Q 2119 3494 2547 3981 
L 303 3981 
z
" transform="scale(0.015625)"/>
     </defs>
     <use xlink:href="#ArialMT-70"/>
     <use xlink:href="#ArialMT-3d" x="55.615234"/>
     <use xlink:href="#ArialMT-31" x="114.013672"/>
     <use xlink:href="#ArialMT-2e" x="169.628906"/>
     <use xlink:href="#ArialMT-31" x="197.412109"/>
     <use xlink:href="#ArialMT-65" x="253.027344"/>
     <use xlink:href="#ArialMT-2d" x="308.642578"/>
     <use xlink:href="#ArialMT-37" x="341.943359"/>
    </g>
   </g>
   <g id="text_7">
    <!-- Transcription abundance -->
    <g transform="translate(18.715625 15.789375) scale(0.12 -0.12)">
     <defs>
      <path id="Arial-BoldMT-72" d="M 1300 0 
L 422 0 
L 422 3319 
L 1238 3319 
L 1238 2847 
Q 1447 3181 1614 3287 
Q 1781 3394 1994 3394 
Q 2294 3394 2572 3228 
L 2300 2463 
Q 2078 2606 1888 2606 
Q 1703 2606 1575 2504 
Q 1447 2403 1373 2137 
Q 1300 1872 1300 1025 
L 1300 0 
z
" transform="scale(0.015625)"/>
      <path id="Arial-BoldMT-73" d="M 150 947 
L 1031 1081 
Q 1088 825 1259 692 
Q 1431 559 1741 559 
Q 2081 559 2253 684 
Q 2369 772 2369 919 
Q 2369 1019 2306 1084 
Q 2241 1147 2013 1200 
Q 950 1434 666 1628 
Q 272 1897 272 2375 
Q 272 2806 612 3100 
Q 953 3394 1669 3394 
Q 2350 3394 2681 3172 
Q 3013 2950 3138 2516 
L 2309 2363 
Q 2256 2556 2107 2659 
Q 1959 2763 1684 2763 
Q 1338 2763 1188 2666 
Q 1088 2597 1088 2488 
Q 1088 2394 1175 2328 
Q 1294 2241 1995 2081 
Q 2697 1922 2975 1691 
Q 3250 1456 3250 1038 
Q 3250 581 2869 253 
Q 2488 -75 1741 -75 
Q 1063 -75 667 200 
Q 272 475 150 947 
z
" transform="scale(0.015625)"/>
      <path id="Arial-BoldMT-63" d="M 3353 2338 
L 2488 2181 
Q 2444 2441 2289 2572 
Q 2134 2703 1888 2703 
Q 1559 2703 1364 2476 
Q 1169 2250 1169 1719 
Q 1169 1128 1367 884 
Q 1566 641 1900 641 
Q 2150 641 2309 783 
Q 2469 925 2534 1272 
L 3397 1125 
Q 3263 531 2881 228 
Q 2500 -75 1859 -75 
Q 1131 -75 698 384 
Q 266 844 266 1656 
Q 266 2478 700 2936 
Q 1134 3394 1875 3394 
Q 2481 3394 2839 3133 
Q 3197 2872 3353 2338 
z
" transform="scale(0.015625)"/>
      <path id="Arial-BoldMT-69" d="M 459 3769 
L 459 4581 
L 1338 4581 
L 1338 3769 
L 459 3769 
z
M 459 0 
L 459 3319 
L 1338 3319 
L 1338 0 
L 459 0 
z
" transform="scale(0.015625)"/>
      <path id="Arial-BoldMT-70" d="M 434 3319 
L 1253 3319 
L 1253 2831 
Q 1413 3081 1684 3237 
Q 1956 3394 2288 3394 
Q 2866 3394 3269 2941 
Q 3672 2488 3672 1678 
Q 3672 847 3265 386 
Q 2859 -75 2281 -75 
Q 2006 -75 1782 34 
Q 1559 144 1313 409 
L 1313 -1263 
L 434 -1263 
L 434 3319 
z
M 1303 1716 
Q 1303 1156 1525 889 
Q 1747 622 2066 622 
Q 2372 622 2575 867 
Q 2778 1113 2778 1672 
Q 2778 2194 2568 2447 
Q 2359 2700 2050 2700 
Q 1728 2700 1515 2451 
Q 1303 2203 1303 1716 
z
" transform="scale(0.015625)"/>
      <path id="Arial-BoldMT-74" d="M 1981 3319 
L 1981 2619 
L 1381 2619 
L 1381 1281 
Q 1381 875 1398 808 
Q 1416 741 1477 697 
Q 1538 653 1625 653 
Q 1747 653 1978 738 
L 2053 56 
Q 1747 -75 1359 -75 
Q 1122 -75 931 4 
Q 741 84 652 211 
Q 563 338 528 553 
Q 500 706 500 1172 
L 500 2619 
L 97 2619 
L 97 3319 
L 500 3319 
L 500 3978 
L 1381 4491 
L 1381 3319 
L 1981 3319 
z
" transform="scale(0.015625)"/>
      <path id="Arial-BoldMT-62" d="M 422 0 
L 422 4581 
L 1300 4581 
L 1300 2931 
Q 1706 3394 2263 3394 
Q 2869 3394 3266 2955 
Q 3663 2516 3663 1694 
Q 3663 844 3258 384 
Q 2853 -75 2275 -75 
Q 1991 -75 1714 67 
Q 1438 209 1238 488 
L 1238 0 
L 422 0 
z
M 1294 1731 
Q 1294 1216 1456 969 
Q 1684 619 2063 619 
Q 2353 619 2558 867 
Q 2763 1116 2763 1650 
Q 2763 2219 2556 2470 
Q 2350 2722 2028 2722 
Q 1713 2722 1503 2476 
Q 1294 2231 1294 1731 
z
" transform="scale(0.015625)"/>
      <path id="Arial-BoldMT-75" d="M 2644 0 
L 2644 497 
Q 2463 231 2167 78 
Q 1872 -75 1544 -75 
Q 1209 -75 943 72 
Q 678 219 559 484 
Q 441 750 441 1219 
L 441 3319 
L 1319 3319 
L 1319 1794 
Q 1319 1094 1367 936 
Q 1416 778 1544 686 
Q 1672 594 1869 594 
Q 2094 594 2272 717 
Q 2450 841 2515 1023 
Q 2581 1206 2581 1919 
L 2581 3319 
L 3459 3319 
L 3459 0 
L 2644 0 
z
" transform="scale(0.015625)"/>
      <path id="Arial-BoldMT-64" d="M 3503 0 
L 2688 0 
L 2688 488 
Q 2484 203 2207 64 
Q 1931 -75 1650 -75 
Q 1078 -75 670 386 
Q 263 847 263 1672 
Q 263 2516 659 2955 
Q 1056 3394 1663 3394 
Q 2219 3394 2625 2931 
L 2625 4581 
L 3503 4581 
L 3503 0 
z
M 1159 1731 
Q 1159 1200 1306 963 
Q 1519 619 1900 619 
Q 2203 619 2415 876 
Q 2628 1134 2628 1647 
Q 2628 2219 2422 2470 
Q 2216 2722 1894 2722 
Q 1581 2722 1370 2473 
Q 1159 2225 1159 1731 
z
" transform="scale(0.015625)"/>
     </defs>
     <use xlink:href="#Arial-BoldMT-54"/>
     <use xlink:href="#Arial-BoldMT-72" x="55.583984"/>
     <use xlink:href="#Arial-BoldMT-61" x="94.5"/>
     <use xlink:href="#Arial-BoldMT-6e" x="150.115234"/>
     <use xlink:href="#Arial-BoldMT-73" x="211.199219"/>
     <use xlink:href="#Arial-BoldMT-63" x="266.814453"/>
     <use xlink:href="#Arial-BoldMT-72" x="322.429688"/>
     <use xlink:href="#Arial-BoldMT-69" x="361.345703"/>
     <use xlink:href="#Arial-BoldMT-70" x="389.128906"/>
     <use xlink:href="#Arial-BoldMT-74" x="450.212891"/>
     <use xlink:href="#Arial-BoldMT-69" x="483.513672"/>
     <use xlink:href="#Arial-BoldMT-6f" x="511.296875"/>
     <use xlink:href="#Arial-BoldMT-6e" x="572.380859"/>
     <use xlink:href="#Arial-BoldMT-20" x="633.464844"/>
     <use xlink:href="#Arial-BoldMT-61" x="661.248047"/>
     <use xlink:href="#Arial-BoldMT-62" x="716.863281"/>
     <use xlink:href="#Arial-BoldMT-75" x="777.947266"/>
     <use xlink:href="#Arial-BoldMT-6e" x="839.03125"/>
     <use xlink:href="#Arial-BoldMT-64" x="900.115234"/>
     <use xlink:href="#Arial-BoldMT-61" x="961.199219"/>
     <use xlink:href="#Arial-BoldMT-6e" x="1016.814453"/>
     <use xlink:href="#Arial-BoldMT-63" x="1077.898438"/>
     <use xlink:href="#Arial-BoldMT-65" x="1133.513672"/>
    </g>
   </g>
  </g>
 </g>
 <defs>
  <clipPath id="p8a78f284d5">
   <rect x="34.2575" y="21.789375" width="111.6" height="83.16"/>
  </clipPath>
 </defs>
</svg>
