<?xml version="1.0" encoding="utf-8" standalone="no"?>
<!DOCTYPE svg PUBLIC "-//W3C//DTD SVG 1.1//EN"
  "http://www.w3.org/Graphics/SVG/1.1/DTD/svg11.dtd">
<svg xmlns:xlink="http://www.w3.org/1999/xlink" width="323.142187pt" height="281.762813pt" viewBox="0 0 323.142187 281.762813" xmlns="http://www.w3.org/2000/svg" version="1.1">
 <metadata>
  <rdf:RDF xmlns:dc="http://purl.org/dc/elements/1.1/" xmlns:cc="http://creativecommons.org/ns#" xmlns:rdf="http://www.w3.org/1999/02/22-rdf-syntax-ns#">
   <cc:Work>
    <dc:type rdf:resource="http://purl.org/dc/dcmitype/StillImage"/>
    <dc:date>2024-04-07T20:36:13.143650</dc:date>
    <dc:format>image/svg+xml</dc:format>
    <dc:creator>
     <cc:Agent>
      <dc:title>Matplotlib v3.8.0, https://matplotlib.org/</dc:title>
     </cc:Agent>
    </dc:creator>
   </cc:Work>
  </rdf:RDF>
 </metadata>
 <defs>
  <style type="text/css">*{stroke-linejoin: round; stroke-linecap: butt}</style>
 </defs>
 <g id="figure_1">
  <g id="patch_1">
   <path d="M 0 281.762813 
L 323.142187 281.762813 
L 323.142187 0 
L 0 0 
L 0 281.762813 
z
" style="fill: none"/>
  </g>
  <g id="axes_1">
   <g id="patch_2">
    <path d="M 215.1125 245.033125 
L 273.4525 245.033125 
L 273.4525 21.935625 
L 215.1125 21.935625 
L 215.1125 245.033125 
z
" style="fill: none"/>
   </g>
   <g id="patch_3">
    <path d="M 215.1125 234.89233 
L 222.935718 234.89233 
L 222.935718 222.216335 
L 215.1125 222.216335 
z
" clip-path="url(#p916702c84d)" style="fill: #ff0000"/>
   </g>
   <g id="patch_4">
    <path d="M 215.1125 203.202344 
L 224.324733 203.202344 
L 224.324733 190.526349 
L 215.1125 190.526349 
z
" clip-path="url(#p916702c84d)" style="fill: #ff0000"/>
   </g>
   <g id="patch_5">
    <path d="M 215.1125 171.512358 
L 237.991894 171.512358 
L 237.991894 158.836364 
L 215.1125 158.836364 
z
" clip-path="url(#p916702c84d)" style="fill: #ff0000"/>
   </g>
   <g id="patch_6">
    <path d="M 215.1125 139.822372 
L 238.290591 139.822372 
L 238.290591 127.146378 
L 215.1125 127.146378 
z
" clip-path="url(#p916702c84d)" style="fill: #ff0000"/>
   </g>
   <g id="patch_7">
    <path d="M 215.1125 108.132386 
L 249.276875 108.132386 
L 249.276875 95.456392 
L 215.1125 95.456392 
z
" clip-path="url(#p916702c84d)" style="fill: #ff0000"/>
   </g>
   <g id="patch_8">
    <path d="M 215.1125 76.442401 
L 256.559951 76.442401 
L 256.559951 63.766406 
L 215.1125 63.766406 
z
" clip-path="url(#p916702c84d)" style="fill: #ff0000"/>
   </g>
   <g id="patch_9">
    <path d="M 215.1125 44.752415 
L 270.674405 44.752415 
L 270.674405 32.07642 
L 215.1125 32.07642 
z
" clip-path="url(#p916702c84d)" style="fill: #ff0000"/>
   </g>
   <g id="matplotlib.axis_1">
    <g id="xtick_1">
     <g id="line2d_1">
      <defs>
       <path id="m43b664b4cc" d="M 0 0 
L 0 3.5 
" style="stroke: #000000; stroke-width: 0.8"/>
      </defs>
      <g>
       <use xlink:href="#m43b664b4cc" x="215.1125" y="245.033125" style="stroke: #000000; stroke-width: 0.8"/>
      </g>
     </g>
     <g id="text_1">
      <!-- 0 -->
      <g transform="translate(212.332031 259.190938) scale(0.1 -0.1)">
       <defs>
        <path id="ArialMT-30" d="M 266 2259 
Q 266 3072 433 3567 
Q 600 4063 929 4331 
Q 1259 4600 1759 4600 
Q 2128 4600 2406 4451 
Q 2684 4303 2865 4023 
Q 3047 3744 3150 3342 
Q 3253 2941 3253 2259 
Q 3253 1453 3087 958 
Q 2922 463 2592 192 
Q 2263 -78 1759 -78 
Q 1097 -78 719 397 
Q 266 969 266 2259 
z
M 844 2259 
Q 844 1131 1108 757 
Q 1372 384 1759 384 
Q 2147 384 2411 759 
Q 2675 1134 2675 2259 
Q 2675 3391 2411 3762 
Q 2147 4134 1753 4134 
Q 1366 4134 1134 3806 
Q 844 3388 844 2259 
z
" transform="scale(0.015625)"/>
       </defs>
       <use xlink:href="#ArialMT-30"/>
      </g>
     </g>
    </g>
    <g id="xtick_2">
     <g id="line2d_2">
      <g>
       <use xlink:href="#m43b664b4cc" x="270.519832" y="245.033125" style="stroke: #000000; stroke-width: 0.8"/>
      </g>
     </g>
     <g id="text_2">
      <!-- 10 -->
      <g transform="translate(264.958895 259.190938) scale(0.1 -0.1)">
       <defs>
        <path id="ArialMT-31" d="M 2384 0 
L 1822 0 
L 1822 3584 
Q 1619 3391 1289 3197 
Q 959 3003 697 2906 
L 697 3450 
Q 1169 3672 1522 3987 
Q 1875 4303 2022 4600 
L 2384 4600 
L 2384 0 
z
" transform="scale(0.015625)"/>
       </defs>
       <use xlink:href="#ArialMT-31"/>
       <use xlink:href="#ArialMT-30" x="55.615234"/>
      </g>
     </g>
    </g>
    <g id="text_3">
     <!-- -log10(Adjusted P-value) -->
     <g transform="translate(185.669219 272.458125) scale(0.1 -0.1)">
      <defs>
       <path id="Arial-BoldMT-2d" d="M 359 1222 
L 359 2100 
L 2084 2100 
L 2084 1222 
L 359 1222 
z
" transform="scale(0.015625)"/>
       <path id="Arial-BoldMT-6c" d="M 459 0 
L 459 4581 
L 1338 4581 
L 1338 0 
L 459 0 
z
" transform="scale(0.015625)"/>
       <path id="Arial-BoldMT-6f" d="M 256 1706 
Q 256 2144 472 2553 
Q 688 2963 1083 3178 
Q 1478 3394 1966 3394 
Q 2719 3394 3200 2905 
Q 3681 2416 3681 1669 
Q 3681 916 3195 420 
Q 2709 -75 1972 -75 
Q 1516 -75 1102 131 
Q 688 338 472 736 
Q 256 1134 256 1706 
z
M 1156 1659 
Q 1156 1166 1390 903 
Q 1625 641 1969 641 
Q 2313 641 2545 903 
Q 2778 1166 2778 1666 
Q 2778 2153 2545 2415 
Q 2313 2678 1969 2678 
Q 1625 2678 1390 2415 
Q 1156 2153 1156 1659 
z
" transform="scale(0.015625)"/>
       <path id="Arial-BoldMT-67" d="M 378 -219 
L 1381 -341 
Q 1406 -516 1497 -581 
Q 1622 -675 1891 -675 
Q 2234 -675 2406 -572 
Q 2522 -503 2581 -350 
Q 2622 -241 2622 53 
L 2622 538 
Q 2228 0 1628 0 
Q 959 0 569 566 
Q 263 1013 263 1678 
Q 263 2513 664 2953 
Q 1066 3394 1663 3394 
Q 2278 3394 2678 2853 
L 2678 3319 
L 3500 3319 
L 3500 341 
Q 3500 -247 3403 -537 
Q 3306 -828 3131 -993 
Q 2956 -1159 2664 -1253 
Q 2372 -1347 1925 -1347 
Q 1081 -1347 728 -1058 
Q 375 -769 375 -325 
Q 375 -281 378 -219 
z
M 1163 1728 
Q 1163 1200 1367 954 
Q 1572 709 1872 709 
Q 2194 709 2416 961 
Q 2638 1213 2638 1706 
Q 2638 2222 2425 2472 
Q 2213 2722 1888 2722 
Q 1572 2722 1367 2476 
Q 1163 2231 1163 1728 
z
" transform="scale(0.015625)"/>
       <path id="Arial-BoldMT-31" d="M 2519 0 
L 1641 0 
L 1641 3309 
Q 1159 2859 506 2644 
L 506 3441 
Q 850 3553 1253 3867 
Q 1656 4181 1806 4600 
L 2519 4600 
L 2519 0 
z
" transform="scale(0.015625)"/>
       <path id="Arial-BoldMT-30" d="M 1756 4600 
Q 2422 4600 2797 4125 
Q 3244 3563 3244 2259 
Q 3244 959 2794 391 
Q 2422 -78 1756 -78 
Q 1088 -78 678 436 
Q 269 950 269 2269 
Q 269 3563 719 4131 
Q 1091 4600 1756 4600 
z
M 1756 3872 
Q 1597 3872 1472 3770 
Q 1347 3669 1278 3406 
Q 1188 3066 1188 2259 
Q 1188 1453 1269 1151 
Q 1350 850 1473 750 
Q 1597 650 1756 650 
Q 1916 650 2041 751 
Q 2166 853 2234 1116 
Q 2325 1453 2325 2259 
Q 2325 3066 2244 3367 
Q 2163 3669 2039 3770 
Q 1916 3872 1756 3872 
z
" transform="scale(0.015625)"/>
       <path id="Arial-BoldMT-28" d="M 1916 -1347 
L 1313 -1347 
Q 834 -625 584 153 
Q 334 931 334 1659 
Q 334 2563 644 3369 
Q 913 4069 1325 4659 
L 1925 4659 
Q 1497 3713 1336 3048 
Q 1175 2384 1175 1641 
Q 1175 1128 1270 590 
Q 1366 53 1531 -431 
Q 1641 -750 1916 -1347 
z
" transform="scale(0.015625)"/>
       <path id="Arial-BoldMT-41" d="M 4597 0 
L 3591 0 
L 3191 1041 
L 1359 1041 
L 981 0 
L 0 0 
L 1784 4581 
L 2763 4581 
L 4597 0 
z
M 2894 1813 
L 2263 3513 
L 1644 1813 
L 2894 1813 
z
" transform="scale(0.015625)"/>
       <path id="Arial-BoldMT-64" d="M 3503 0 
L 2688 0 
L 2688 488 
Q 2484 203 2207 64 
Q 1931 -75 1650 -75 
Q 1078 -75 670 386 
Q 263 847 263 1672 
Q 263 2516 659 2955 
Q 1056 3394 1663 3394 
Q 2219 3394 2625 2931 
L 2625 4581 
L 3503 4581 
L 3503 0 
z
M 1159 1731 
Q 1159 1200 1306 963 
Q 1519 619 1900 619 
Q 2203 619 2415 876 
Q 2628 1134 2628 1647 
Q 2628 2219 2422 2470 
Q 2216 2722 1894 2722 
Q 1581 2722 1370 2473 
Q 1159 2225 1159 1731 
z
" transform="scale(0.015625)"/>
       <path id="Arial-BoldMT-6a" d="M 441 3769 
L 441 4581 
L 1319 4581 
L 1319 3769 
L 441 3769 
z
M 1319 3319 
L 1319 103 
Q 1319 -531 1236 -792 
Q 1153 -1053 917 -1200 
Q 681 -1347 316 -1347 
Q 184 -1347 32 -1323 
Q -119 -1300 -294 -1253 
L -141 -503 
Q -78 -516 -23 -523 
Q 31 -531 78 -531 
Q 213 -531 298 -473 
Q 384 -416 412 -334 
Q 441 -253 441 153 
L 441 3319 
L 1319 3319 
z
" transform="scale(0.015625)"/>
       <path id="Arial-BoldMT-75" d="M 2644 0 
L 2644 497 
Q 2463 231 2167 78 
Q 1872 -75 1544 -75 
Q 1209 -75 943 72 
Q 678 219 559 484 
Q 441 750 441 1219 
L 441 3319 
L 1319 3319 
L 1319 1794 
Q 1319 1094 1367 936 
Q 1416 778 1544 686 
Q 1672 594 1869 594 
Q 2094 594 2272 717 
Q 2450 841 2515 1023 
Q 2581 1206 2581 1919 
L 2581 3319 
L 3459 3319 
L 3459 0 
L 2644 0 
z
" transform="scale(0.015625)"/>
       <path id="Arial-BoldMT-73" d="M 150 947 
L 1031 1081 
Q 1088 825 1259 692 
Q 1431 559 1741 559 
Q 2081 559 2253 684 
Q 2369 772 2369 919 
Q 2369 1019 2306 1084 
Q 2241 1147 2013 1200 
Q 950 1434 666 1628 
Q 272 1897 272 2375 
Q 272 2806 612 3100 
Q 953 3394 1669 3394 
Q 2350 3394 2681 3172 
Q 3013 2950 3138 2516 
L 2309 2363 
Q 2256 2556 2107 2659 
Q 1959 2763 1684 2763 
Q 1338 2763 1188 2666 
Q 1088 2597 1088 2488 
Q 1088 2394 1175 2328 
Q 1294 2241 1995 2081 
Q 2697 1922 2975 1691 
Q 3250 1456 3250 1038 
Q 3250 581 2869 253 
Q 2488 -75 1741 -75 
Q 1063 -75 667 200 
Q 272 475 150 947 
z
" transform="scale(0.015625)"/>
       <path id="Arial-BoldMT-74" d="M 1981 3319 
L 1981 2619 
L 1381 2619 
L 1381 1281 
Q 1381 875 1398 808 
Q 1416 741 1477 697 
Q 1538 653 1625 653 
Q 1747 653 1978 738 
L 2053 56 
Q 1747 -75 1359 -75 
Q 1122 -75 931 4 
Q 741 84 652 211 
Q 563 338 528 553 
Q 500 706 500 1172 
L 500 2619 
L 97 2619 
L 97 3319 
L 500 3319 
L 500 3978 
L 1381 4491 
L 1381 3319 
L 1981 3319 
z
" transform="scale(0.015625)"/>
       <path id="Arial-BoldMT-65" d="M 2381 1056 
L 3256 909 
Q 3088 428 2723 176 
Q 2359 -75 1813 -75 
Q 947 -75 531 491 
Q 203 944 203 1634 
Q 203 2459 634 2926 
Q 1066 3394 1725 3394 
Q 2466 3394 2894 2905 
Q 3322 2416 3303 1406 
L 1103 1406 
Q 1113 1016 1316 798 
Q 1519 581 1822 581 
Q 2028 581 2168 693 
Q 2309 806 2381 1056 
z
M 2431 1944 
Q 2422 2325 2234 2523 
Q 2047 2722 1778 2722 
Q 1491 2722 1303 2513 
Q 1116 2303 1119 1944 
L 2431 1944 
z
" transform="scale(0.015625)"/>
       <path id="Arial-BoldMT-20" transform="scale(0.015625)"/>
       <path id="Arial-BoldMT-50" d="M 466 0 
L 466 4581 
L 1950 4581 
Q 2794 4581 3050 4513 
Q 3444 4409 3709 4064 
Q 3975 3719 3975 3172 
Q 3975 2750 3822 2462 
Q 3669 2175 3433 2011 
Q 3197 1847 2953 1794 
Q 2622 1728 1994 1728 
L 1391 1728 
L 1391 0 
L 466 0 
z
M 1391 3806 
L 1391 2506 
L 1897 2506 
Q 2444 2506 2628 2578 
Q 2813 2650 2917 2803 
Q 3022 2956 3022 3159 
Q 3022 3409 2875 3571 
Q 2728 3734 2503 3775 
Q 2338 3806 1838 3806 
L 1391 3806 
z
" transform="scale(0.015625)"/>
       <path id="Arial-BoldMT-76" d="M 1372 0 
L 34 3319 
L 956 3319 
L 1581 1625 
L 1763 1059 
Q 1834 1275 1853 1344 
Q 1897 1484 1947 1625 
L 2578 3319 
L 3481 3319 
L 2163 0 
L 1372 0 
z
" transform="scale(0.015625)"/>
       <path id="Arial-BoldMT-61" d="M 1116 2306 
L 319 2450 
Q 453 2931 781 3162 
Q 1109 3394 1756 3394 
Q 2344 3394 2631 3255 
Q 2919 3116 3036 2902 
Q 3153 2688 3153 2116 
L 3144 1091 
Q 3144 653 3186 445 
Q 3228 238 3344 0 
L 2475 0 
Q 2441 88 2391 259 
Q 2369 338 2359 363 
Q 2134 144 1878 34 
Q 1622 -75 1331 -75 
Q 819 -75 523 203 
Q 228 481 228 906 
Q 228 1188 362 1408 
Q 497 1628 739 1745 
Q 981 1863 1438 1950 
Q 2053 2066 2291 2166 
L 2291 2253 
Q 2291 2506 2166 2614 
Q 2041 2722 1694 2722 
Q 1459 2722 1328 2630 
Q 1197 2538 1116 2306 
z
M 2291 1594 
Q 2122 1538 1756 1459 
Q 1391 1381 1278 1306 
Q 1106 1184 1106 997 
Q 1106 813 1243 678 
Q 1381 544 1594 544 
Q 1831 544 2047 700 
Q 2206 819 2256 991 
Q 2291 1103 2291 1419 
L 2291 1594 
z
" transform="scale(0.015625)"/>
       <path id="Arial-BoldMT-29" d="M 216 -1347 
Q 475 -791 581 -494 
Q 688 -197 778 190 
Q 869 578 912 926 
Q 956 1275 956 1641 
Q 956 2384 797 3048 
Q 638 3713 209 4659 
L 806 4659 
Q 1278 3988 1539 3234 
Q 1800 2481 1800 1706 
Q 1800 1053 1594 306 
Q 1359 -531 822 -1347 
L 216 -1347 
z
" transform="scale(0.015625)"/>
      </defs>
      <use xlink:href="#Arial-BoldMT-2d"/>
      <use xlink:href="#Arial-BoldMT-6c" x="33.300781"/>
      <use xlink:href="#Arial-BoldMT-6f" x="61.083984"/>
      <use xlink:href="#Arial-BoldMT-67" x="122.167969"/>
      <use xlink:href="#Arial-BoldMT-31" x="183.251953"/>
      <use xlink:href="#Arial-BoldMT-30" x="238.867188"/>
      <use xlink:href="#Arial-BoldMT-28" x="294.482422"/>
      <use xlink:href="#Arial-BoldMT-41" x="327.783203"/>
      <use xlink:href="#Arial-BoldMT-64" x="400"/>
      <use xlink:href="#Arial-BoldMT-6a" x="461.083984"/>
      <use xlink:href="#Arial-BoldMT-75" x="488.867188"/>
      <use xlink:href="#Arial-BoldMT-73" x="549.951172"/>
      <use xlink:href="#Arial-BoldMT-74" x="605.566406"/>
      <use xlink:href="#Arial-BoldMT-65" x="638.867188"/>
      <use xlink:href="#Arial-BoldMT-64" x="694.482422"/>
      <use xlink:href="#Arial-BoldMT-20" x="755.566406"/>
      <use xlink:href="#Arial-BoldMT-50" x="783.349609"/>
      <use xlink:href="#Arial-BoldMT-2d" x="850.048828"/>
      <use xlink:href="#Arial-BoldMT-76" x="883.349609"/>
      <use xlink:href="#Arial-BoldMT-61" x="938.964844"/>
      <use xlink:href="#Arial-BoldMT-6c" x="994.580078"/>
      <use xlink:href="#Arial-BoldMT-75" x="1022.363281"/>
      <use xlink:href="#Arial-BoldMT-65" x="1083.447266"/>
      <use xlink:href="#Arial-BoldMT-29" x="1139.0625"/>
     </g>
    </g>
   </g>
   <g id="matplotlib.axis_2">
    <g id="ytick_1">
     <g id="line2d_3">
      <defs>
       <path id="mb27e9245d6" d="M 0 0 
L -3.5 0 
" style="stroke: #000000; stroke-width: 0.8"/>
      </defs>
      <g>
       <use xlink:href="#mb27e9245d6" x="215.1125" y="228.554332" style="stroke: #000000; stroke-width: 0.8"/>
      </g>
     </g>
     <g id="text_4">
      <!-- Alanine, aspartate and glutamate metabolism -->
      <g transform="translate(36.0775 231.417457) scale(0.08 -0.08)">
       <defs>
        <path id="Arial-BoldMT-6e" d="M 3478 0 
L 2600 0 
L 2600 1694 
Q 2600 2231 2544 2389 
Q 2488 2547 2361 2634 
Q 2234 2722 2056 2722 
Q 1828 2722 1647 2597 
Q 1466 2472 1398 2265 
Q 1331 2059 1331 1503 
L 1331 0 
L 453 0 
L 453 3319 
L 1269 3319 
L 1269 2831 
Q 1703 3394 2363 3394 
Q 2653 3394 2893 3289 
Q 3134 3184 3257 3021 
Q 3381 2859 3429 2653 
Q 3478 2447 3478 2063 
L 3478 0 
z
" transform="scale(0.015625)"/>
        <path id="Arial-BoldMT-69" d="M 459 3769 
L 459 4581 
L 1338 4581 
L 1338 3769 
L 459 3769 
z
M 459 0 
L 459 3319 
L 1338 3319 
L 1338 0 
L 459 0 
z
" transform="scale(0.015625)"/>
        <path id="Arial-BoldMT-2c" d="M 438 878 
L 1316 878 
L 1316 250 
Q 1316 -131 1250 -351 
Q 1184 -572 1001 -747 
Q 819 -922 538 -1022 
L 366 -659 
Q 631 -572 743 -419 
Q 856 -266 863 0 
L 438 0 
L 438 878 
z
" transform="scale(0.015625)"/>
        <path id="Arial-BoldMT-70" d="M 434 3319 
L 1253 3319 
L 1253 2831 
Q 1413 3081 1684 3237 
Q 1956 3394 2288 3394 
Q 2866 3394 3269 2941 
Q 3672 2488 3672 1678 
Q 3672 847 3265 386 
Q 2859 -75 2281 -75 
Q 2006 -75 1782 34 
Q 1559 144 1313 409 
L 1313 -1263 
L 434 -1263 
L 434 3319 
z
M 1303 1716 
Q 1303 1156 1525 889 
Q 1747 622 2066 622 
Q 2372 622 2575 867 
Q 2778 1113 2778 1672 
Q 2778 2194 2568 2447 
Q 2359 2700 2050 2700 
Q 1728 2700 1515 2451 
Q 1303 2203 1303 1716 
z
" transform="scale(0.015625)"/>
        <path id="Arial-BoldMT-72" d="M 1300 0 
L 422 0 
L 422 3319 
L 1238 3319 
L 1238 2847 
Q 1447 3181 1614 3287 
Q 1781 3394 1994 3394 
Q 2294 3394 2572 3228 
L 2300 2463 
Q 2078 2606 1888 2606 
Q 1703 2606 1575 2504 
Q 1447 2403 1373 2137 
Q 1300 1872 1300 1025 
L 1300 0 
z
" transform="scale(0.015625)"/>
        <path id="Arial-BoldMT-6d" d="M 394 3319 
L 1203 3319 
L 1203 2866 
Q 1638 3394 2238 3394 
Q 2556 3394 2790 3262 
Q 3025 3131 3175 2866 
Q 3394 3131 3647 3262 
Q 3900 3394 4188 3394 
Q 4553 3394 4806 3245 
Q 5059 3097 5184 2809 
Q 5275 2597 5275 2122 
L 5275 0 
L 4397 0 
L 4397 1897 
Q 4397 2391 4306 2534 
Q 4184 2722 3931 2722 
Q 3747 2722 3584 2609 
Q 3422 2497 3350 2280 
Q 3278 2063 3278 1594 
L 3278 0 
L 2400 0 
L 2400 1819 
Q 2400 2303 2353 2443 
Q 2306 2584 2207 2653 
Q 2109 2722 1941 2722 
Q 1738 2722 1575 2612 
Q 1413 2503 1342 2297 
Q 1272 2091 1272 1613 
L 1272 0 
L 394 0 
L 394 3319 
z
" transform="scale(0.015625)"/>
        <path id="Arial-BoldMT-62" d="M 422 0 
L 422 4581 
L 1300 4581 
L 1300 2931 
Q 1706 3394 2263 3394 
Q 2869 3394 3266 2955 
Q 3663 2516 3663 1694 
Q 3663 844 3258 384 
Q 2853 -75 2275 -75 
Q 1991 -75 1714 67 
Q 1438 209 1238 488 
L 1238 0 
L 422 0 
z
M 1294 1731 
Q 1294 1216 1456 969 
Q 1684 619 2063 619 
Q 2353 619 2558 867 
Q 2763 1116 2763 1650 
Q 2763 2219 2556 2470 
Q 2350 2722 2028 2722 
Q 1713 2722 1503 2476 
Q 1294 2231 1294 1731 
z
" transform="scale(0.015625)"/>
       </defs>
       <use xlink:href="#Arial-BoldMT-41"/>
       <use xlink:href="#Arial-BoldMT-6c" x="72.216797"/>
       <use xlink:href="#Arial-BoldMT-61" x="100"/>
       <use xlink:href="#Arial-BoldMT-6e" x="155.615234"/>
       <use xlink:href="#Arial-BoldMT-69" x="216.699219"/>
       <use xlink:href="#Arial-BoldMT-6e" x="244.482422"/>
       <use xlink:href="#Arial-BoldMT-65" x="305.566406"/>
       <use xlink:href="#Arial-BoldMT-2c" x="361.181641"/>
       <use xlink:href="#Arial-BoldMT-20" x="388.964844"/>
       <use xlink:href="#Arial-BoldMT-61" x="416.748047"/>
       <use xlink:href="#Arial-BoldMT-73" x="472.363281"/>
       <use xlink:href="#Arial-BoldMT-70" x="527.978516"/>
       <use xlink:href="#Arial-BoldMT-61" x="589.0625"/>
       <use xlink:href="#Arial-BoldMT-72" x="644.677734"/>
       <use xlink:href="#Arial-BoldMT-74" x="683.59375"/>
       <use xlink:href="#Arial-BoldMT-61" x="716.894531"/>
       <use xlink:href="#Arial-BoldMT-74" x="772.509766"/>
       <use xlink:href="#Arial-BoldMT-65" x="805.810547"/>
       <use xlink:href="#Arial-BoldMT-20" x="861.425781"/>
       <use xlink:href="#Arial-BoldMT-61" x="889.208984"/>
       <use xlink:href="#Arial-BoldMT-6e" x="944.824219"/>
       <use xlink:href="#Arial-BoldMT-64" x="1005.908203"/>
       <use xlink:href="#Arial-BoldMT-20" x="1066.992188"/>
       <use xlink:href="#Arial-BoldMT-67" x="1094.775391"/>
       <use xlink:href="#Arial-BoldMT-6c" x="1155.859375"/>
       <use xlink:href="#Arial-BoldMT-75" x="1183.642578"/>
       <use xlink:href="#Arial-BoldMT-74" x="1244.726562"/>
       <use xlink:href="#Arial-BoldMT-61" x="1278.027344"/>
       <use xlink:href="#Arial-BoldMT-6d" x="1333.642578"/>
       <use xlink:href="#Arial-BoldMT-61" x="1422.558594"/>
       <use xlink:href="#Arial-BoldMT-74" x="1478.173828"/>
       <use xlink:href="#Arial-BoldMT-65" x="1511.474609"/>
       <use xlink:href="#Arial-BoldMT-20" x="1567.089844"/>
       <use xlink:href="#Arial-BoldMT-6d" x="1594.873047"/>
       <use xlink:href="#Arial-BoldMT-65" x="1683.789062"/>
       <use xlink:href="#Arial-BoldMT-74" x="1739.404297"/>
       <use xlink:href="#Arial-BoldMT-61" x="1772.705078"/>
       <use xlink:href="#Arial-BoldMT-62" x="1828.320312"/>
       <use xlink:href="#Arial-BoldMT-6f" x="1889.404297"/>
       <use xlink:href="#Arial-BoldMT-6c" x="1950.488281"/>
       <use xlink:href="#Arial-BoldMT-69" x="1978.271484"/>
       <use xlink:href="#Arial-BoldMT-73" x="2006.054688"/>
       <use xlink:href="#Arial-BoldMT-6d" x="2061.669922"/>
      </g>
     </g>
    </g>
    <g id="ytick_2">
     <g id="line2d_4">
      <g>
       <use xlink:href="#mb27e9245d6" x="215.1125" y="196.864347" style="stroke: #000000; stroke-width: 0.8"/>
      </g>
     </g>
     <g id="text_5">
      <!-- Arginine and proline metabolism -->
      <g transform="translate(83.65875 199.727472) scale(0.08 -0.08)">
       <use xlink:href="#Arial-BoldMT-41"/>
       <use xlink:href="#Arial-BoldMT-72" x="72.216797"/>
       <use xlink:href="#Arial-BoldMT-67" x="111.132812"/>
       <use xlink:href="#Arial-BoldMT-69" x="172.216797"/>
       <use xlink:href="#Arial-BoldMT-6e" x="200"/>
       <use xlink:href="#Arial-BoldMT-69" x="261.083984"/>
       <use xlink:href="#Arial-BoldMT-6e" x="288.867188"/>
       <use xlink:href="#Arial-BoldMT-65" x="349.951172"/>
       <use xlink:href="#Arial-BoldMT-20" x="405.566406"/>
       <use xlink:href="#Arial-BoldMT-61" x="433.349609"/>
       <use xlink:href="#Arial-BoldMT-6e" x="488.964844"/>
       <use xlink:href="#Arial-BoldMT-64" x="550.048828"/>
       <use xlink:href="#Arial-BoldMT-20" x="611.132812"/>
       <use xlink:href="#Arial-BoldMT-70" x="638.916016"/>
       <use xlink:href="#Arial-BoldMT-72" x="700"/>
       <use xlink:href="#Arial-BoldMT-6f" x="738.916016"/>
       <use xlink:href="#Arial-BoldMT-6c" x="800"/>
       <use xlink:href="#Arial-BoldMT-69" x="827.783203"/>
       <use xlink:href="#Arial-BoldMT-6e" x="855.566406"/>
       <use xlink:href="#Arial-BoldMT-65" x="916.650391"/>
       <use xlink:href="#Arial-BoldMT-20" x="972.265625"/>
       <use xlink:href="#Arial-BoldMT-6d" x="1000.048828"/>
       <use xlink:href="#Arial-BoldMT-65" x="1088.964844"/>
       <use xlink:href="#Arial-BoldMT-74" x="1144.580078"/>
       <use xlink:href="#Arial-BoldMT-61" x="1177.880859"/>
       <use xlink:href="#Arial-BoldMT-62" x="1233.496094"/>
       <use xlink:href="#Arial-BoldMT-6f" x="1294.580078"/>
       <use xlink:href="#Arial-BoldMT-6c" x="1355.664062"/>
       <use xlink:href="#Arial-BoldMT-69" x="1383.447266"/>
       <use xlink:href="#Arial-BoldMT-73" x="1411.230469"/>
       <use xlink:href="#Arial-BoldMT-6d" x="1466.845703"/>
      </g>
     </g>
    </g>
    <g id="ytick_3">
     <g id="line2d_5">
      <g>
       <use xlink:href="#mb27e9245d6" x="215.1125" y="165.174361" style="stroke: #000000; stroke-width: 0.8"/>
      </g>
     </g>
     <g id="text_6">
      <!-- Glycine, serine and threonine metabolism -->
      <g transform="translate(49.4125 168.086236) scale(0.08 -0.08)">
       <defs>
        <path id="Arial-BoldMT-47" d="M 2597 1684 
L 2597 2456 
L 4591 2456 
L 4591 631 
Q 4300 350 3748 136 
Q 3197 -78 2631 -78 
Q 1913 -78 1378 223 
Q 844 525 575 1086 
Q 306 1647 306 2306 
Q 306 3022 606 3578 
Q 906 4134 1484 4431 
Q 1925 4659 2581 4659 
Q 3434 4659 3914 4301 
Q 4394 3944 4531 3313 
L 3613 3141 
Q 3516 3478 3248 3673 
Q 2981 3869 2581 3869 
Q 1975 3869 1617 3484 
Q 1259 3100 1259 2344 
Q 1259 1528 1621 1120 
Q 1984 713 2572 713 
Q 2863 713 3155 827 
Q 3447 941 3656 1103 
L 3656 1684 
L 2597 1684 
z
" transform="scale(0.015625)"/>
        <path id="Arial-BoldMT-79" d="M 44 3319 
L 978 3319 
L 1772 963 
L 2547 3319 
L 3456 3319 
L 2284 125 
L 2075 -453 
Q 1959 -744 1854 -897 
Q 1750 -1050 1614 -1145 
Q 1478 -1241 1279 -1294 
Q 1081 -1347 831 -1347 
Q 578 -1347 334 -1294 
L 256 -606 
Q 463 -647 628 -647 
Q 934 -647 1081 -467 
Q 1228 -288 1306 -9 
L 44 3319 
z
" transform="scale(0.015625)"/>
        <path id="Arial-BoldMT-63" d="M 3353 2338 
L 2488 2181 
Q 2444 2441 2289 2572 
Q 2134 2703 1888 2703 
Q 1559 2703 1364 2476 
Q 1169 2250 1169 1719 
Q 1169 1128 1367 884 
Q 1566 641 1900 641 
Q 2150 641 2309 783 
Q 2469 925 2534 1272 
L 3397 1125 
Q 3263 531 2881 228 
Q 2500 -75 1859 -75 
Q 1131 -75 698 384 
Q 266 844 266 1656 
Q 266 2478 700 2936 
Q 1134 3394 1875 3394 
Q 2481 3394 2839 3133 
Q 3197 2872 3353 2338 
z
" transform="scale(0.015625)"/>
        <path id="Arial-BoldMT-68" d="M 1334 4581 
L 1334 2897 
Q 1759 3394 2350 3394 
Q 2653 3394 2897 3281 
Q 3141 3169 3264 2994 
Q 3388 2819 3433 2606 
Q 3478 2394 3478 1947 
L 3478 0 
L 2600 0 
L 2600 1753 
Q 2600 2275 2550 2415 
Q 2500 2556 2373 2639 
Q 2247 2722 2056 2722 
Q 1838 2722 1666 2615 
Q 1494 2509 1414 2295 
Q 1334 2081 1334 1663 
L 1334 0 
L 456 0 
L 456 4581 
L 1334 4581 
z
" transform="scale(0.015625)"/>
       </defs>
       <use xlink:href="#Arial-BoldMT-47"/>
       <use xlink:href="#Arial-BoldMT-6c" x="77.783203"/>
       <use xlink:href="#Arial-BoldMT-79" x="105.566406"/>
       <use xlink:href="#Arial-BoldMT-63" x="161.181641"/>
       <use xlink:href="#Arial-BoldMT-69" x="216.796875"/>
       <use xlink:href="#Arial-BoldMT-6e" x="244.580078"/>
       <use xlink:href="#Arial-BoldMT-65" x="305.664062"/>
       <use xlink:href="#Arial-BoldMT-2c" x="361.279297"/>
       <use xlink:href="#Arial-BoldMT-20" x="389.0625"/>
       <use xlink:href="#Arial-BoldMT-73" x="416.845703"/>
       <use xlink:href="#Arial-BoldMT-65" x="472.460938"/>
       <use xlink:href="#Arial-BoldMT-72" x="528.076172"/>
       <use xlink:href="#Arial-BoldMT-69" x="566.992188"/>
       <use xlink:href="#Arial-BoldMT-6e" x="594.775391"/>
       <use xlink:href="#Arial-BoldMT-65" x="655.859375"/>
       <use xlink:href="#Arial-BoldMT-20" x="711.474609"/>
       <use xlink:href="#Arial-BoldMT-61" x="739.257812"/>
       <use xlink:href="#Arial-BoldMT-6e" x="794.873047"/>
       <use xlink:href="#Arial-BoldMT-64" x="855.957031"/>
       <use xlink:href="#Arial-BoldMT-20" x="917.041016"/>
       <use xlink:href="#Arial-BoldMT-74" x="944.824219"/>
       <use xlink:href="#Arial-BoldMT-68" x="978.125"/>
       <use xlink:href="#Arial-BoldMT-72" x="1039.208984"/>
       <use xlink:href="#Arial-BoldMT-65" x="1078.125"/>
       <use xlink:href="#Arial-BoldMT-6f" x="1133.740234"/>
       <use xlink:href="#Arial-BoldMT-6e" x="1194.824219"/>
       <use xlink:href="#Arial-BoldMT-69" x="1255.908203"/>
       <use xlink:href="#Arial-BoldMT-6e" x="1283.691406"/>
       <use xlink:href="#Arial-BoldMT-65" x="1344.775391"/>
       <use xlink:href="#Arial-BoldMT-20" x="1400.390625"/>
       <use xlink:href="#Arial-BoldMT-6d" x="1428.173828"/>
       <use xlink:href="#Arial-BoldMT-65" x="1517.089844"/>
       <use xlink:href="#Arial-BoldMT-74" x="1572.705078"/>
       <use xlink:href="#Arial-BoldMT-61" x="1606.005859"/>
       <use xlink:href="#Arial-BoldMT-62" x="1661.621094"/>
       <use xlink:href="#Arial-BoldMT-6f" x="1722.705078"/>
       <use xlink:href="#Arial-BoldMT-6c" x="1783.789062"/>
       <use xlink:href="#Arial-BoldMT-69" x="1811.572266"/>
       <use xlink:href="#Arial-BoldMT-73" x="1839.355469"/>
       <use xlink:href="#Arial-BoldMT-6d" x="1894.970703"/>
      </g>
     </g>
    </g>
    <g id="ytick_4">
     <g id="line2d_6">
      <g>
       <use xlink:href="#mb27e9245d6" x="215.1125" y="133.484375" style="stroke: #000000; stroke-width: 0.8"/>
      </g>
     </g>
     <g id="text_7">
      <!-- Phenylalanine, tyrosine and tryptophan biosynthesis -->
      <g transform="translate(7.2 136.3475) scale(0.08 -0.08)">
       <use xlink:href="#Arial-BoldMT-50"/>
       <use xlink:href="#Arial-BoldMT-68" x="66.699219"/>
       <use xlink:href="#Arial-BoldMT-65" x="127.783203"/>
       <use xlink:href="#Arial-BoldMT-6e" x="183.398438"/>
       <use xlink:href="#Arial-BoldMT-79" x="244.482422"/>
       <use xlink:href="#Arial-BoldMT-6c" x="300.097656"/>
       <use xlink:href="#Arial-BoldMT-61" x="327.880859"/>
       <use xlink:href="#Arial-BoldMT-6c" x="383.496094"/>
       <use xlink:href="#Arial-BoldMT-61" x="411.279297"/>
       <use xlink:href="#Arial-BoldMT-6e" x="466.894531"/>
       <use xlink:href="#Arial-BoldMT-69" x="527.978516"/>
       <use xlink:href="#Arial-BoldMT-6e" x="555.761719"/>
       <use xlink:href="#Arial-BoldMT-65" x="616.845703"/>
       <use xlink:href="#Arial-BoldMT-2c" x="672.460938"/>
       <use xlink:href="#Arial-BoldMT-20" x="700.244141"/>
       <use xlink:href="#Arial-BoldMT-74" x="728.027344"/>
       <use xlink:href="#Arial-BoldMT-79" x="761.328125"/>
       <use xlink:href="#Arial-BoldMT-72" x="816.943359"/>
       <use xlink:href="#Arial-BoldMT-6f" x="855.859375"/>
       <use xlink:href="#Arial-BoldMT-73" x="916.943359"/>
       <use xlink:href="#Arial-BoldMT-69" x="972.558594"/>
       <use xlink:href="#Arial-BoldMT-6e" x="1000.341797"/>
       <use xlink:href="#Arial-BoldMT-65" x="1061.425781"/>
       <use xlink:href="#Arial-BoldMT-20" x="1117.041016"/>
       <use xlink:href="#Arial-BoldMT-61" x="1144.824219"/>
       <use xlink:href="#Arial-BoldMT-6e" x="1200.439453"/>
       <use xlink:href="#Arial-BoldMT-64" x="1261.523438"/>
       <use xlink:href="#Arial-BoldMT-20" x="1322.607422"/>
       <use xlink:href="#Arial-BoldMT-74" x="1350.390625"/>
       <use xlink:href="#Arial-BoldMT-72" x="1383.691406"/>
       <use xlink:href="#Arial-BoldMT-79" x="1422.607422"/>
       <use xlink:href="#Arial-BoldMT-70" x="1478.222656"/>
       <use xlink:href="#Arial-BoldMT-74" x="1539.306641"/>
       <use xlink:href="#Arial-BoldMT-6f" x="1572.607422"/>
       <use xlink:href="#Arial-BoldMT-70" x="1633.691406"/>
       <use xlink:href="#Arial-BoldMT-68" x="1694.775391"/>
       <use xlink:href="#Arial-BoldMT-61" x="1755.859375"/>
       <use xlink:href="#Arial-BoldMT-6e" x="1811.474609"/>
       <use xlink:href="#Arial-BoldMT-20" x="1872.558594"/>
       <use xlink:href="#Arial-BoldMT-62" x="1900.341797"/>
       <use xlink:href="#Arial-BoldMT-69" x="1961.425781"/>
       <use xlink:href="#Arial-BoldMT-6f" x="1989.208984"/>
       <use xlink:href="#Arial-BoldMT-73" x="2050.292969"/>
       <use xlink:href="#Arial-BoldMT-79" x="2105.908203"/>
       <use xlink:href="#Arial-BoldMT-6e" x="2161.523438"/>
       <use xlink:href="#Arial-BoldMT-74" x="2222.607422"/>
       <use xlink:href="#Arial-BoldMT-68" x="2255.908203"/>
       <use xlink:href="#Arial-BoldMT-65" x="2316.992188"/>
       <use xlink:href="#Arial-BoldMT-73" x="2372.607422"/>
       <use xlink:href="#Arial-BoldMT-69" x="2428.222656"/>
       <use xlink:href="#Arial-BoldMT-73" x="2456.005859"/>
      </g>
     </g>
    </g>
    <g id="ytick_5">
     <g id="line2d_7">
      <g>
       <use xlink:href="#mb27e9245d6" x="215.1125" y="101.794389" style="stroke: #000000; stroke-width: 0.8"/>
      </g>
     </g>
     <g id="text_8">
      <!-- Pentose phosphate pathway -->
      <g transform="translate(100.1025 104.657514) scale(0.08 -0.08)">
       <defs>
        <path id="Arial-BoldMT-77" d="M 1078 0 
L 28 3319 
L 881 3319 
L 1503 1144 
L 2075 3319 
L 2922 3319 
L 3475 1144 
L 4109 3319 
L 4975 3319 
L 3909 0 
L 3066 0 
L 2494 2134 
L 1931 0 
L 1078 0 
z
" transform="scale(0.015625)"/>
       </defs>
       <use xlink:href="#Arial-BoldMT-50"/>
       <use xlink:href="#Arial-BoldMT-65" x="66.699219"/>
       <use xlink:href="#Arial-BoldMT-6e" x="122.314453"/>
       <use xlink:href="#Arial-BoldMT-74" x="183.398438"/>
       <use xlink:href="#Arial-BoldMT-6f" x="216.699219"/>
       <use xlink:href="#Arial-BoldMT-73" x="277.783203"/>
       <use xlink:href="#Arial-BoldMT-65" x="333.398438"/>
       <use xlink:href="#Arial-BoldMT-20" x="389.013672"/>
       <use xlink:href="#Arial-BoldMT-70" x="416.796875"/>
       <use xlink:href="#Arial-BoldMT-68" x="477.880859"/>
       <use xlink:href="#Arial-BoldMT-6f" x="538.964844"/>
       <use xlink:href="#Arial-BoldMT-73" x="600.048828"/>
       <use xlink:href="#Arial-BoldMT-70" x="655.664062"/>
       <use xlink:href="#Arial-BoldMT-68" x="716.748047"/>
       <use xlink:href="#Arial-BoldMT-61" x="777.832031"/>
       <use xlink:href="#Arial-BoldMT-74" x="833.447266"/>
       <use xlink:href="#Arial-BoldMT-65" x="866.748047"/>
       <use xlink:href="#Arial-BoldMT-20" x="922.363281"/>
       <use xlink:href="#Arial-BoldMT-70" x="950.146484"/>
       <use xlink:href="#Arial-BoldMT-61" x="1011.230469"/>
       <use xlink:href="#Arial-BoldMT-74" x="1066.845703"/>
       <use xlink:href="#Arial-BoldMT-68" x="1100.146484"/>
       <use xlink:href="#Arial-BoldMT-77" x="1161.230469"/>
       <use xlink:href="#Arial-BoldMT-61" x="1239.013672"/>
       <use xlink:href="#Arial-BoldMT-79" x="1294.628906"/>
      </g>
     </g>
    </g>
    <g id="ytick_6">
     <g id="line2d_8">
      <g>
       <use xlink:href="#mb27e9245d6" x="215.1125" y="70.104403" style="stroke: #000000; stroke-width: 0.8"/>
      </g>
     </g>
     <g id="text_9">
      <!-- Arginine biosynthesis -->
      <g transform="translate(124.54875 72.967528) scale(0.08 -0.08)">
       <use xlink:href="#Arial-BoldMT-41"/>
       <use xlink:href="#Arial-BoldMT-72" x="72.216797"/>
       <use xlink:href="#Arial-BoldMT-67" x="111.132812"/>
       <use xlink:href="#Arial-BoldMT-69" x="172.216797"/>
       <use xlink:href="#Arial-BoldMT-6e" x="200"/>
       <use xlink:href="#Arial-BoldMT-69" x="261.083984"/>
       <use xlink:href="#Arial-BoldMT-6e" x="288.867188"/>
       <use xlink:href="#Arial-BoldMT-65" x="349.951172"/>
       <use xlink:href="#Arial-BoldMT-20" x="405.566406"/>
       <use xlink:href="#Arial-BoldMT-62" x="433.349609"/>
       <use xlink:href="#Arial-BoldMT-69" x="494.433594"/>
       <use xlink:href="#Arial-BoldMT-6f" x="522.216797"/>
       <use xlink:href="#Arial-BoldMT-73" x="583.300781"/>
       <use xlink:href="#Arial-BoldMT-79" x="638.916016"/>
       <use xlink:href="#Arial-BoldMT-6e" x="694.53125"/>
       <use xlink:href="#Arial-BoldMT-74" x="755.615234"/>
       <use xlink:href="#Arial-BoldMT-68" x="788.916016"/>
       <use xlink:href="#Arial-BoldMT-65" x="850"/>
       <use xlink:href="#Arial-BoldMT-73" x="905.615234"/>
       <use xlink:href="#Arial-BoldMT-69" x="961.230469"/>
       <use xlink:href="#Arial-BoldMT-73" x="989.013672"/>
      </g>
     </g>
    </g>
    <g id="ytick_7">
     <g id="line2d_9">
      <g>
       <use xlink:href="#mb27e9245d6" x="215.1125" y="38.414418" style="stroke: #000000; stroke-width: 0.8"/>
      </g>
     </g>
     <g id="text_10">
      <!-- Histidine metabolism -->
      <g transform="translate(127.65625 41.277543) scale(0.08 -0.08)">
       <defs>
        <path id="Arial-BoldMT-48" d="M 469 0 
L 469 4581 
L 1394 4581 
L 1394 2778 
L 3206 2778 
L 3206 4581 
L 4131 4581 
L 4131 0 
L 3206 0 
L 3206 2003 
L 1394 2003 
L 1394 0 
L 469 0 
z
" transform="scale(0.015625)"/>
       </defs>
       <use xlink:href="#Arial-BoldMT-48"/>
       <use xlink:href="#Arial-BoldMT-69" x="72.216797"/>
       <use xlink:href="#Arial-BoldMT-73" x="100"/>
       <use xlink:href="#Arial-BoldMT-74" x="155.615234"/>
       <use xlink:href="#Arial-BoldMT-69" x="188.916016"/>
       <use xlink:href="#Arial-BoldMT-64" x="216.699219"/>
       <use xlink:href="#Arial-BoldMT-69" x="277.783203"/>
       <use xlink:href="#Arial-BoldMT-6e" x="305.566406"/>
       <use xlink:href="#Arial-BoldMT-65" x="366.650391"/>
       <use xlink:href="#Arial-BoldMT-20" x="422.265625"/>
       <use xlink:href="#Arial-BoldMT-6d" x="450.048828"/>
       <use xlink:href="#Arial-BoldMT-65" x="538.964844"/>
       <use xlink:href="#Arial-BoldMT-74" x="594.580078"/>
       <use xlink:href="#Arial-BoldMT-61" x="627.880859"/>
       <use xlink:href="#Arial-BoldMT-62" x="683.496094"/>
       <use xlink:href="#Arial-BoldMT-6f" x="744.580078"/>
       <use xlink:href="#Arial-BoldMT-6c" x="805.664062"/>
       <use xlink:href="#Arial-BoldMT-69" x="833.447266"/>
       <use xlink:href="#Arial-BoldMT-73" x="861.230469"/>
       <use xlink:href="#Arial-BoldMT-6d" x="916.845703"/>
      </g>
     </g>
    </g>
   </g>
   <g id="patch_10">
    <path d="M 215.1125 245.033125 
L 215.1125 21.935625 
" style="fill: none; stroke: #000000; stroke-linejoin: miter; stroke-linecap: square"/>
   </g>
   <g id="patch_11">
    <path d="M 273.4525 245.033125 
L 273.4525 21.935625 
" style="fill: none; stroke: #000000; stroke-linejoin: miter; stroke-linecap: square"/>
   </g>
   <g id="patch_12">
    <path d="M 215.1125 245.033125 
L 273.4525 245.033125 
" style="fill: none; stroke: #000000; stroke-linejoin: miter; stroke-linecap: square"/>
   </g>
   <g id="patch_13">
    <path d="M 215.1125 21.935625 
L 273.4525 21.935625 
" style="fill: none; stroke: #000000; stroke-linejoin: miter; stroke-linecap: square"/>
   </g>
   <g id="text_11">
    <!-- Bioethanol significant up -->
    <g transform="translate(172.622812 15.935625) scale(0.12 -0.12)">
     <defs>
      <path id="Arial-BoldMT-42" d="M 469 4581 
L 2300 4581 
Q 2844 4581 3111 4536 
Q 3378 4491 3589 4347 
Q 3800 4203 3940 3964 
Q 4081 3725 4081 3428 
Q 4081 3106 3907 2837 
Q 3734 2569 3438 2434 
Q 3856 2313 4081 2019 
Q 4306 1725 4306 1328 
Q 4306 1016 4161 720 
Q 4016 425 3764 248 
Q 3513 72 3144 31 
Q 2913 6 2028 0 
L 469 0 
L 469 4581 
z
M 1394 3819 
L 1394 2759 
L 2000 2759 
Q 2541 2759 2672 2775 
Q 2909 2803 3045 2939 
Q 3181 3075 3181 3297 
Q 3181 3509 3064 3642 
Q 2947 3775 2716 3803 
Q 2578 3819 1925 3819 
L 1394 3819 
z
M 1394 1997 
L 1394 772 
L 2250 772 
Q 2750 772 2884 800 
Q 3091 838 3220 983 
Q 3350 1128 3350 1372 
Q 3350 1578 3250 1722 
Q 3150 1866 2961 1931 
Q 2772 1997 2141 1997 
L 1394 1997 
z
" transform="scale(0.015625)"/>
      <path id="Arial-BoldMT-66" d="M 75 3319 
L 563 3319 
L 563 3569 
Q 563 3988 652 4194 
Q 741 4400 980 4529 
Q 1219 4659 1584 4659 
Q 1959 4659 2319 4547 
L 2200 3934 
Q 1991 3984 1797 3984 
Q 1606 3984 1523 3895 
Q 1441 3806 1441 3553 
L 1441 3319 
L 2097 3319 
L 2097 2628 
L 1441 2628 
L 1441 0 
L 563 0 
L 563 2628 
L 75 2628 
L 75 3319 
z
" transform="scale(0.015625)"/>
     </defs>
     <use xlink:href="#Arial-BoldMT-42"/>
     <use xlink:href="#Arial-BoldMT-69" x="72.216797"/>
     <use xlink:href="#Arial-BoldMT-6f" x="100"/>
     <use xlink:href="#Arial-BoldMT-65" x="161.083984"/>
     <use xlink:href="#Arial-BoldMT-74" x="216.699219"/>
     <use xlink:href="#Arial-BoldMT-68" x="250"/>
     <use xlink:href="#Arial-BoldMT-61" x="311.083984"/>
     <use xlink:href="#Arial-BoldMT-6e" x="366.699219"/>
     <use xlink:href="#Arial-BoldMT-6f" x="427.783203"/>
     <use xlink:href="#Arial-BoldMT-6c" x="488.867188"/>
     <use xlink:href="#Arial-BoldMT-20" x="516.650391"/>
     <use xlink:href="#Arial-BoldMT-73" x="544.433594"/>
     <use xlink:href="#Arial-BoldMT-69" x="600.048828"/>
     <use xlink:href="#Arial-BoldMT-67" x="627.832031"/>
     <use xlink:href="#Arial-BoldMT-6e" x="688.916016"/>
     <use xlink:href="#Arial-BoldMT-69" x="750"/>
     <use xlink:href="#Arial-BoldMT-66" x="777.783203"/>
     <use xlink:href="#Arial-BoldMT-69" x="811.083984"/>
     <use xlink:href="#Arial-BoldMT-63" x="838.867188"/>
     <use xlink:href="#Arial-BoldMT-61" x="894.482422"/>
     <use xlink:href="#Arial-BoldMT-6e" x="950.097656"/>
     <use xlink:href="#Arial-BoldMT-74" x="1011.181641"/>
     <use xlink:href="#Arial-BoldMT-20" x="1044.482422"/>
     <use xlink:href="#Arial-BoldMT-75" x="1072.265625"/>
     <use xlink:href="#Arial-BoldMT-70" x="1133.349609"/>
    </g>
   </g>
  </g>
 </g>
 <defs>
  <clipPath id="p916702c84d">
   <rect x="215.1125" y="21.935625" width="58.34" height="223.0975"/>
  </clipPath>
 </defs>
</svg>
