<?xml version="1.0" encoding="utf-8" standalone="no"?>
<!DOCTYPE svg PUBLIC "-//W3C//DTD SVG 1.1//EN"
  "http://www.w3.org/Graphics/SVG/1.1/DTD/svg11.dtd">
<svg xmlns:xlink="http://www.w3.org/1999/xlink" width="171.689375pt" height="145.597251pt" viewBox="0 0 171.689375 145.597251" xmlns="http://www.w3.org/2000/svg" version="1.1">
 <metadata>
  <rdf:RDF xmlns:dc="http://purl.org/dc/elements/1.1/" xmlns:cc="http://creativecommons.org/ns#" xmlns:rdf="http://www.w3.org/1999/02/22-rdf-syntax-ns#">
   <cc:Work>
    <dc:type rdf:resource="http://purl.org/dc/dcmitype/StillImage"/>
    <dc:date>2024-04-28T09:41:05.033229</dc:date>
    <dc:format>image/svg+xml</dc:format>
    <dc:creator>
     <cc:Agent>
      <dc:title>Matplotlib v3.8.4, https://matplotlib.org/</dc:title>
     </cc:Agent>
    </dc:creator>
   </cc:Work>
  </rdf:RDF>
 </metadata>
 <defs>
  <style type="text/css">*{stroke-linejoin: round; stroke-linecap: butt}</style>
 </defs>
 <g id="figure_1">
  <g id="patch_1">
   <path d="M 0 145.597251 
L 171.689375 145.597251 
L 171.689375 0 
L 0 0 
L 0 145.597251 
z
" style="fill: none"/>
  </g>
  <g id="axes_1">
   <g id="patch_2">
    <path d="M 44.01125 104.949375 
L 155.61125 104.949375 
L 155.61125 21.789375 
L 44.01125 21.789375 
L 44.01125 104.949375 
z
" style="fill: none"/>
   </g>
   <g id="PolyCollection_1">
    <defs>
     <path id="mb207bb4da6" d="M 74.224373 -47.740076 
L 69.598127 -47.740076 
L 66.6662 -48.451305 
L 62.316506 -49.162533 
L 57.317221 -49.873762 
L 52.915987 -50.584991 
L 50.191213 -51.29622 
L 49.59125 -52.007448 
L 50.920884 -52.718677 
L 53.539608 -53.429906 
L 56.619273 -54.141135 
L 59.511138 -54.852363 
L 61.964971 -55.563592 
L 63.98052 -56.274821 
L 65.594926 -56.98605 
L 66.862686 -57.697278 
L 67.862443 -58.408507 
L 68.642899 -59.119736 
L 69.240162 -59.830965 
L 69.717125 -60.542193 
L 70.110738 -61.253422 
L 70.407672 -61.964651 
L 70.612827 -62.675879 
L 70.770768 -63.387108 
L 70.910014 -64.098337 
L 71.027221 -64.809566 
L 71.124638 -65.520794 
L 71.213939 -66.232023 
L 71.293143 -66.943252 
L 71.352559 -67.654481 
L 71.391658 -68.365709 
L 71.42212 -69.076938 
L 71.458386 -69.788167 
L 71.500098 -70.499396 
L 71.529798 -71.210624 
L 71.534468 -71.921853 
L 71.523358 -72.633082 
L 71.518231 -73.34431 
L 71.527583 -74.055539 
L 71.542242 -74.766768 
L 71.555156 -75.477997 
L 71.569911 -76.189225 
L 71.589044 -76.900454 
L 71.605545 -77.611683 
L 71.613947 -78.322912 
L 71.621463 -79.03414 
L 71.637225 -79.745369 
L 71.661605 -80.456598 
L 71.691595 -81.167827 
L 71.721647 -81.879055 
L 71.742114 -82.590284 
L 71.752163 -83.301513 
L 71.764358 -84.012741 
L 71.785289 -84.72397 
L 71.804315 -85.435199 
L 71.808862 -86.146428 
L 71.802349 -86.857656 
L 71.801549 -87.568885 
L 71.817264 -88.280114 
L 71.841097 -88.991343 
L 71.855802 -89.702571 
L 71.855685 -90.4138 
L 71.847326 -91.125029 
L 71.835889 -91.836258 
L 71.824589 -92.547486 
L 71.820659 -93.258715 
L 71.828893 -93.969944 
L 71.844902 -94.681172 
L 71.859945 -95.392401 
L 71.867914 -96.10363 
L 71.868588 -96.814859 
L 71.868161 -97.526087 
L 71.8742 -98.237316 
L 71.886983 -98.948545 
L 71.899416 -99.659774 
L 71.905731 -100.371002 
L 71.905562 -101.082231 
L 71.901945 -101.79346 
L 71.899294 -102.504689 
L 71.900347 -103.215917 
L 71.903175 -103.927146 
L 71.903702 -104.638375 
L 71.901188 -105.349604 
L 71.899219 -106.060832 
L 71.900951 -106.772061 
L 71.905211 -107.48329 
L 71.90884 -108.194518 
L 71.910593 -108.905747 
L 71.911091 -109.616976 
L 71.910973 -110.328205 
L 71.910045 -111.039433 
L 71.907492 -111.750662 
L 71.903282 -112.461891 
L 71.899766 -113.17312 
L 71.899992 -113.884348 
L 71.903669 -114.595577 
L 71.907322 -115.306806 
L 71.908111 -116.018035 
L 71.905522 -116.729263 
L 71.901382 -117.440492 
L 71.899314 -118.151721 
L 71.923186 -118.151721 
L 71.923186 -118.151721 
L 71.921118 -117.440492 
L 71.916978 -116.729263 
L 71.914389 -116.018035 
L 71.915178 -115.306806 
L 71.918831 -114.595577 
L 71.922508 -113.884348 
L 71.922734 -113.17312 
L 71.919218 -112.461891 
L 71.915008 -111.750662 
L 71.912455 -111.039433 
L 71.911527 -110.328205 
L 71.911409 -109.616976 
L 71.911907 -108.905747 
L 71.91366 -108.194518 
L 71.917289 -107.48329 
L 71.921549 -106.772061 
L 71.923281 -106.060832 
L 71.921312 -105.349604 
L 71.918798 -104.638375 
L 71.919325 -103.927146 
L 71.922153 -103.215917 
L 71.923206 -102.504689 
L 71.920555 -101.79346 
L 71.916938 -101.082231 
L 71.916769 -100.371002 
L 71.923084 -99.659774 
L 71.935517 -98.948545 
L 71.9483 -98.237316 
L 71.954339 -97.526087 
L 71.953912 -96.814859 
L 71.954586 -96.10363 
L 71.962555 -95.392401 
L 71.977598 -94.681172 
L 71.993607 -93.969944 
L 72.001841 -93.258715 
L 71.997911 -92.547486 
L 71.986611 -91.836258 
L 71.975174 -91.125029 
L 71.966815 -90.4138 
L 71.966698 -89.702571 
L 71.981403 -88.991343 
L 72.005236 -88.280114 
L 72.020951 -87.568885 
L 72.020151 -86.857656 
L 72.013638 -86.146428 
L 72.018185 -85.435199 
L 72.037211 -84.72397 
L 72.058142 -84.012741 
L 72.070337 -83.301513 
L 72.080386 -82.590284 
L 72.100853 -81.879055 
L 72.130905 -81.167827 
L 72.160895 -80.456598 
L 72.185275 -79.745369 
L 72.201037 -79.03414 
L 72.208553 -78.322912 
L 72.216955 -77.611683 
L 72.233456 -76.900454 
L 72.252589 -76.189225 
L 72.267344 -75.477997 
L 72.280258 -74.766768 
L 72.294917 -74.055539 
L 72.304269 -73.34431 
L 72.299142 -72.633082 
L 72.288032 -71.921853 
L 72.292702 -71.210624 
L 72.322402 -70.499396 
L 72.364114 -69.788167 
L 72.40038 -69.076938 
L 72.430842 -68.365709 
L 72.469941 -67.654481 
L 72.529357 -66.943252 
L 72.608561 -66.232023 
L 72.697862 -65.520794 
L 72.795279 -64.809566 
L 72.912486 -64.098337 
L 73.051732 -63.387108 
L 73.209673 -62.675879 
L 73.414828 -61.964651 
L 73.711762 -61.253422 
L 74.105375 -60.542193 
L 74.582338 -59.830965 
L 75.179601 -59.119736 
L 75.960057 -58.408507 
L 76.959814 -57.697278 
L 78.227574 -56.98605 
L 79.84198 -56.274821 
L 81.857529 -55.563592 
L 84.311362 -54.852363 
L 87.203227 -54.141135 
L 90.282892 -53.429906 
L 92.901616 -52.718677 
L 94.23125 -52.007448 
L 93.631287 -51.29622 
L 90.906513 -50.584991 
L 86.505279 -49.873762 
L 81.505994 -49.162533 
L 77.1563 -48.451305 
L 74.224373 -47.740076 
z
" style="stroke: #474747; stroke-width: 1.25"/>
    </defs>
    <g clip-path="url(#pd0c683a835)">
     <use xlink:href="#mb207bb4da6" x="0" y="145.597251" style="fill: #af4d3d; stroke: #474747; stroke-width: 1.25"/>
    </g>
   </g>
   <g id="PolyCollection_2">
    <defs>
     <path id="ma14a6fc980" d="M 132.076485 -46.470929 
L 123.346015 -46.470929 
L 120.082553 -47.821109 
L 116.031347 -49.171289 
L 111.884687 -50.52147 
L 108.453394 -51.87165 
L 106.266824 -53.22183 
L 105.39125 -54.572011 
L 105.580397 -55.922191 
L 106.533935 -57.272371 
L 108.001133 -58.622551 
L 109.737726 -59.972732 
L 111.494005 -61.322912 
L 113.084502 -62.673092 
L 114.432982 -64.023272 
L 115.535907 -65.373453 
L 116.407537 -66.723633 
L 117.068166 -68.073813 
L 117.559079 -69.423993 
L 117.94361 -70.774174 
L 118.288589 -72.124354 
L 118.643193 -73.474534 
L 119.023649 -74.824714 
L 119.407848 -76.174895 
L 119.75194 -77.525075 
L 120.031697 -78.875255 
L 120.281474 -80.225436 
L 120.590864 -81.575616 
L 121.049679 -82.925796 
L 121.682423 -84.275976 
L 122.429575 -85.626157 
L 123.189144 -86.976337 
L 123.876018 -88.326517 
L 124.452437 -89.676697 
L 124.921939 -91.026878 
L 125.306647 -92.377058 
L 125.626795 -93.727238 
L 125.892444 -95.077418 
L 126.108725 -96.427599 
L 126.285517 -97.777779 
L 126.439015 -99.127959 
L 126.583066 -100.478139 
L 126.720875 -101.82832 
L 126.846993 -103.1785 
L 126.95614 -104.52868 
L 127.047319 -105.87886 
L 127.120313 -107.229041 
L 127.173666 -108.579221 
L 127.209776 -109.929401 
L 127.239525 -111.279582 
L 127.2772 -112.629762 
L 127.328694 -113.979942 
L 127.385035 -115.330122 
L 127.428806 -116.680303 
L 127.448922 -118.030483 
L 127.450743 -119.380663 
L 127.451788 -120.730843 
L 127.467041 -122.081024 
L 127.498474 -123.431204 
L 127.537838 -124.781384 
L 127.576681 -126.131564 
L 127.611763 -127.481745 
L 127.642822 -128.831925 
L 127.66894 -130.182105 
L 127.688419 -131.532285 
L 127.70071 -132.882466 
L 127.707136 -134.232646 
L 127.709901 -135.582826 
L 127.71088 -136.933006 
L 127.711165 -138.283187 
L 127.711234 -139.633367 
L 127.711247 -140.983547 
L 127.71125 -142.333728 
L 127.71125 -143.683908 
L 127.71125 -145.034088 
L 127.71125 -146.384268 
L 127.71125 -147.734449 
L 127.71125 -149.084629 
L 127.71125 -150.434809 
L 127.71125 -151.784989 
L 127.71125 -153.13517 
L 127.71125 -154.48535 
L 127.71125 -155.83553 
L 127.71125 -157.18571 
L 127.71125 -158.535891 
L 127.71125 -159.886071 
L 127.71125 -161.236251 
L 127.71125 -162.586431 
L 127.71125 -163.936612 
L 127.71125 -165.286792 
L 127.711247 -166.636972 
L 127.711231 -167.987152 
L 127.711157 -169.337333 
L 127.710867 -170.687513 
L 127.709947 -172.037693 
L 127.707574 -173.387874 
L 127.702663 -174.738054 
L 127.694638 -176.088234 
L 127.684635 -177.438414 
L 127.675936 -178.788595 
L 127.672445 -180.138775 
L 127.750055 -180.138775 
L 127.750055 -180.138775 
L 127.746564 -178.788595 
L 127.737865 -177.438414 
L 127.727862 -176.088234 
L 127.719837 -174.738054 
L 127.714926 -173.387874 
L 127.712553 -172.037693 
L 127.711633 -170.687513 
L 127.711343 -169.337333 
L 127.711269 -167.987152 
L 127.711253 -166.636972 
L 127.71125 -165.286792 
L 127.71125 -163.936612 
L 127.71125 -162.586431 
L 127.71125 -161.236251 
L 127.71125 -159.886071 
L 127.71125 -158.535891 
L 127.71125 -157.18571 
L 127.71125 -155.83553 
L 127.71125 -154.48535 
L 127.71125 -153.13517 
L 127.71125 -151.784989 
L 127.71125 -150.434809 
L 127.71125 -149.084629 
L 127.71125 -147.734449 
L 127.71125 -146.384268 
L 127.71125 -145.034088 
L 127.71125 -143.683908 
L 127.71125 -142.333728 
L 127.711253 -140.983547 
L 127.711266 -139.633367 
L 127.711335 -138.283187 
L 127.71162 -136.933006 
L 127.712599 -135.582826 
L 127.715364 -134.232646 
L 127.72179 -132.882466 
L 127.734081 -131.532285 
L 127.75356 -130.182105 
L 127.779678 -128.831925 
L 127.810737 -127.481745 
L 127.845819 -126.131564 
L 127.884662 -124.781384 
L 127.924026 -123.431204 
L 127.955459 -122.081024 
L 127.970712 -120.730843 
L 127.971757 -119.380663 
L 127.973578 -118.030483 
L 127.993694 -116.680303 
L 128.037465 -115.330122 
L 128.093806 -113.979942 
L 128.1453 -112.629762 
L 128.182975 -111.279582 
L 128.212724 -109.929401 
L 128.248834 -108.579221 
L 128.302187 -107.229041 
L 128.375181 -105.87886 
L 128.46636 -104.52868 
L 128.575507 -103.1785 
L 128.701625 -101.82832 
L 128.839434 -100.478139 
L 128.983485 -99.127959 
L 129.136983 -97.777779 
L 129.313775 -96.427599 
L 129.530056 -95.077418 
L 129.795705 -93.727238 
L 130.115853 -92.377058 
L 130.500561 -91.026878 
L 130.970063 -89.676697 
L 131.546482 -88.326517 
L 132.233356 -86.976337 
L 132.992925 -85.626157 
L 133.740077 -84.275976 
L 134.372821 -82.925796 
L 134.831636 -81.575616 
L 135.141026 -80.225436 
L 135.390803 -78.875255 
L 135.67056 -77.525075 
L 136.014652 -76.174895 
L 136.398851 -74.824714 
L 136.779307 -73.474534 
L 137.133911 -72.124354 
L 137.47889 -70.774174 
L 137.863421 -69.423993 
L 138.354334 -68.073813 
L 139.014963 -66.723633 
L 139.886593 -65.373453 
L 140.989518 -64.023272 
L 142.337998 -62.673092 
L 143.928495 -61.322912 
L 145.684774 -59.972732 
L 147.421367 -58.622551 
L 148.888565 -57.272371 
L 149.842103 -55.922191 
L 150.03125 -54.572011 
L 149.155676 -53.22183 
L 146.969106 -51.87165 
L 143.537813 -50.52147 
L 139.391153 -49.171289 
L 135.339947 -47.821109 
L 132.076485 -46.470929 
z
" style="stroke: #474747; stroke-width: 1.25"/>
    </defs>
    <g clip-path="url(#pd0c683a835)">
     <use xlink:href="#ma14a6fc980" x="0" y="145.597251" style="fill: #b7b7b7; stroke: #474747; stroke-width: 1.25"/>
    </g>
   </g>
   <g id="matplotlib.axis_1">
    <g id="xtick_1">
     <g id="line2d_1">
      <defs>
       <path id="m475810de91" d="M 0 0 
L 0 3.5 
" style="stroke: #000000; stroke-width: 0.8"/>
      </defs>
      <g>
       <use xlink:href="#m475810de91" x="71.91125" y="104.949375" style="stroke: #000000; stroke-width: 0.8"/>
      </g>
     </g>
     <g id="text_1">
      <!-- Core -->
      <g transform="translate(59.512435 127.322025) rotate(-15) scale(0.12 -0.12)">
       <defs>
        <path id="Arial-BoldMT-43" d="M 3397 1684 
L 4294 1400 
Q 4088 650 3608 286 
Q 3128 -78 2391 -78 
Q 1478 -78 890 545 
Q 303 1169 303 2250 
Q 303 3394 893 4026 
Q 1484 4659 2447 4659 
Q 3288 4659 3813 4163 
Q 4125 3869 4281 3319 
L 3366 3100 
Q 3284 3456 3026 3662 
Q 2769 3869 2400 3869 
Q 1891 3869 1573 3503 
Q 1256 3138 1256 2319 
Q 1256 1450 1568 1081 
Q 1881 713 2381 713 
Q 2750 713 3015 947 
Q 3281 1181 3397 1684 
z
" transform="scale(0.015625)"/>
        <path id="Arial-BoldMT-6f" d="M 256 1706 
Q 256 2144 472 2553 
Q 688 2963 1083 3178 
Q 1478 3394 1966 3394 
Q 2719 3394 3200 2905 
Q 3681 2416 3681 1669 
Q 3681 916 3195 420 
Q 2709 -75 1972 -75 
Q 1516 -75 1102 131 
Q 688 338 472 736 
Q 256 1134 256 1706 
z
M 1156 1659 
Q 1156 1166 1390 903 
Q 1625 641 1969 641 
Q 2313 641 2545 903 
Q 2778 1166 2778 1666 
Q 2778 2153 2545 2415 
Q 2313 2678 1969 2678 
Q 1625 2678 1390 2415 
Q 1156 2153 1156 1659 
z
" transform="scale(0.015625)"/>
        <path id="Arial-BoldMT-72" d="M 1300 0 
L 422 0 
L 422 3319 
L 1238 3319 
L 1238 2847 
Q 1447 3181 1614 3287 
Q 1781 3394 1994 3394 
Q 2294 3394 2572 3228 
L 2300 2463 
Q 2078 2606 1888 2606 
Q 1703 2606 1575 2504 
Q 1447 2403 1373 2137 
Q 1300 1872 1300 1025 
L 1300 0 
z
" transform="scale(0.015625)"/>
        <path id="Arial-BoldMT-65" d="M 2381 1056 
L 3256 909 
Q 3088 428 2723 176 
Q 2359 -75 1813 -75 
Q 947 -75 531 491 
Q 203 944 203 1634 
Q 203 2459 634 2926 
Q 1066 3394 1725 3394 
Q 2466 3394 2894 2905 
Q 3322 2416 3303 1406 
L 1103 1406 
Q 1113 1016 1316 798 
Q 1519 581 1822 581 
Q 2028 581 2168 693 
Q 2309 806 2381 1056 
z
M 2431 1944 
Q 2422 2325 2234 2523 
Q 2047 2722 1778 2722 
Q 1491 2722 1303 2513 
Q 1116 2303 1119 1944 
L 2431 1944 
z
" transform="scale(0.015625)"/>
       </defs>
       <use xlink:href="#Arial-BoldMT-43"/>
       <use xlink:href="#Arial-BoldMT-6f" x="72.216797"/>
       <use xlink:href="#Arial-BoldMT-72" x="133.300781"/>
       <use xlink:href="#Arial-BoldMT-65" x="172.216797"/>
      </g>
     </g>
    </g>
    <g id="xtick_2">
     <g id="line2d_2">
      <g>
       <use xlink:href="#m475810de91" x="127.71125" y="104.949375" style="stroke: #000000; stroke-width: 0.8"/>
      </g>
     </g>
     <g id="text_2">
      <!-- Accessory -->
      <g transform="translate(99.177693 135.957684) rotate(-15) scale(0.12 -0.12)">
       <defs>
        <path id="Arial-BoldMT-41" d="M 4597 0 
L 3591 0 
L 3191 1041 
L 1359 1041 
L 981 0 
L 0 0 
L 1784 4581 
L 2763 4581 
L 4597 0 
z
M 2894 1813 
L 2263 3513 
L 1644 1813 
L 2894 1813 
z
" transform="scale(0.015625)"/>
        <path id="Arial-BoldMT-63" d="M 3353 2338 
L 2488 2181 
Q 2444 2441 2289 2572 
Q 2134 2703 1888 2703 
Q 1559 2703 1364 2476 
Q 1169 2250 1169 1719 
Q 1169 1128 1367 884 
Q 1566 641 1900 641 
Q 2150 641 2309 783 
Q 2469 925 2534 1272 
L 3397 1125 
Q 3263 531 2881 228 
Q 2500 -75 1859 -75 
Q 1131 -75 698 384 
Q 266 844 266 1656 
Q 266 2478 700 2936 
Q 1134 3394 1875 3394 
Q 2481 3394 2839 3133 
Q 3197 2872 3353 2338 
z
" transform="scale(0.015625)"/>
        <path id="Arial-BoldMT-73" d="M 150 947 
L 1031 1081 
Q 1088 825 1259 692 
Q 1431 559 1741 559 
Q 2081 559 2253 684 
Q 2369 772 2369 919 
Q 2369 1019 2306 1084 
Q 2241 1147 2013 1200 
Q 950 1434 666 1628 
Q 272 1897 272 2375 
Q 272 2806 612 3100 
Q 953 3394 1669 3394 
Q 2350 3394 2681 3172 
Q 3013 2950 3138 2516 
L 2309 2363 
Q 2256 2556 2107 2659 
Q 1959 2763 1684 2763 
Q 1338 2763 1188 2666 
Q 1088 2597 1088 2488 
Q 1088 2394 1175 2328 
Q 1294 2241 1995 2081 
Q 2697 1922 2975 1691 
Q 3250 1456 3250 1038 
Q 3250 581 2869 253 
Q 2488 -75 1741 -75 
Q 1063 -75 667 200 
Q 272 475 150 947 
z
" transform="scale(0.015625)"/>
        <path id="Arial-BoldMT-79" d="M 44 3319 
L 978 3319 
L 1772 963 
L 2547 3319 
L 3456 3319 
L 2284 125 
L 2075 -453 
Q 1959 -744 1854 -897 
Q 1750 -1050 1614 -1145 
Q 1478 -1241 1279 -1294 
Q 1081 -1347 831 -1347 
Q 578 -1347 334 -1294 
L 256 -606 
Q 463 -647 628 -647 
Q 934 -647 1081 -467 
Q 1228 -288 1306 -9 
L 44 3319 
z
" transform="scale(0.015625)"/>
       </defs>
       <use xlink:href="#Arial-BoldMT-41"/>
       <use xlink:href="#Arial-BoldMT-63" x="72.216797"/>
       <use xlink:href="#Arial-BoldMT-63" x="127.832031"/>
       <use xlink:href="#Arial-BoldMT-65" x="183.447266"/>
       <use xlink:href="#Arial-BoldMT-73" x="239.0625"/>
       <use xlink:href="#Arial-BoldMT-73" x="294.677734"/>
       <use xlink:href="#Arial-BoldMT-6f" x="350.292969"/>
       <use xlink:href="#Arial-BoldMT-72" x="411.376953"/>
       <use xlink:href="#Arial-BoldMT-79" x="450.292969"/>
      </g>
     </g>
    </g>
   </g>
   <g id="matplotlib.axis_2">
    <g id="ytick_1">
     <g id="line2d_3">
      <defs>
       <path id="m16c31f5564" d="M 0 0 
L -3.5 0 
" style="stroke: #000000; stroke-width: 0.8"/>
      </defs>
      <g>
       <use xlink:href="#m16c31f5564" x="44.01125" y="100.05761" style="stroke: #000000; stroke-width: 0.8"/>
      </g>
     </g>
     <g id="text_3">
      <!-- 0.0 -->
      <g transform="translate(20.33125 104.352298) scale(0.12 -0.12)">
       <defs>
        <path id="ArialMT-30" d="M 266 2259 
Q 266 3072 433 3567 
Q 600 4063 929 4331 
Q 1259 4600 1759 4600 
Q 2128 4600 2406 4451 
Q 2684 4303 2865 4023 
Q 3047 3744 3150 3342 
Q 3253 2941 3253 2259 
Q 3253 1453 3087 958 
Q 2922 463 2592 192 
Q 2263 -78 1759 -78 
Q 1097 -78 719 397 
Q 266 969 266 2259 
z
M 844 2259 
Q 844 1131 1108 757 
Q 1372 384 1759 384 
Q 2147 384 2411 759 
Q 2675 1134 2675 2259 
Q 2675 3391 2411 3762 
Q 2147 4134 1753 4134 
Q 1366 4134 1134 3806 
Q 844 3388 844 2259 
z
" transform="scale(0.015625)"/>
        <path id="ArialMT-2e" d="M 581 0 
L 581 641 
L 1222 641 
L 1222 0 
L 581 0 
z
" transform="scale(0.015625)"/>
       </defs>
       <use xlink:href="#ArialMT-30"/>
       <use xlink:href="#ArialMT-2e" x="55.615234"/>
       <use xlink:href="#ArialMT-30" x="83.398438"/>
      </g>
     </g>
    </g>
    <g id="ytick_2">
     <g id="line2d_4">
      <g>
       <use xlink:href="#m16c31f5564" x="44.01125" y="80.490551" style="stroke: #000000; stroke-width: 0.8"/>
      </g>
     </g>
     <g id="text_4">
      <!-- 0.2 -->
      <g transform="translate(20.33125 84.785239) scale(0.12 -0.12)">
       <defs>
        <path id="ArialMT-32" d="M 3222 541 
L 3222 0 
L 194 0 
Q 188 203 259 391 
Q 375 700 629 1000 
Q 884 1300 1366 1694 
Q 2113 2306 2375 2664 
Q 2638 3022 2638 3341 
Q 2638 3675 2398 3904 
Q 2159 4134 1775 4134 
Q 1369 4134 1125 3890 
Q 881 3647 878 3216 
L 300 3275 
Q 359 3922 746 4261 
Q 1134 4600 1788 4600 
Q 2447 4600 2831 4234 
Q 3216 3869 3216 3328 
Q 3216 3053 3103 2787 
Q 2991 2522 2730 2228 
Q 2469 1934 1863 1422 
Q 1356 997 1212 845 
Q 1069 694 975 541 
L 3222 541 
z
" transform="scale(0.015625)"/>
       </defs>
       <use xlink:href="#ArialMT-30"/>
       <use xlink:href="#ArialMT-2e" x="55.615234"/>
       <use xlink:href="#ArialMT-32" x="83.398438"/>
      </g>
     </g>
    </g>
    <g id="ytick_3">
     <g id="line2d_5">
      <g>
       <use xlink:href="#m16c31f5564" x="44.01125" y="60.923493" style="stroke: #000000; stroke-width: 0.8"/>
      </g>
     </g>
     <g id="text_5">
      <!-- 0.4 -->
      <g transform="translate(20.33125 65.21818) scale(0.12 -0.12)">
       <defs>
        <path id="ArialMT-34" d="M 2069 0 
L 2069 1097 
L 81 1097 
L 81 1613 
L 2172 4581 
L 2631 4581 
L 2631 1613 
L 3250 1613 
L 3250 1097 
L 2631 1097 
L 2631 0 
L 2069 0 
z
M 2069 1613 
L 2069 3678 
L 634 1613 
L 2069 1613 
z
" transform="scale(0.015625)"/>
       </defs>
       <use xlink:href="#ArialMT-30"/>
       <use xlink:href="#ArialMT-2e" x="55.615234"/>
       <use xlink:href="#ArialMT-34" x="83.398438"/>
      </g>
     </g>
    </g>
    <g id="ytick_4">
     <g id="line2d_6">
      <g>
       <use xlink:href="#m16c31f5564" x="44.01125" y="41.356434" style="stroke: #000000; stroke-width: 0.8"/>
      </g>
     </g>
     <g id="text_6">
      <!-- 0.6 -->
      <g transform="translate(20.33125 45.651121) scale(0.12 -0.12)">
       <defs>
        <path id="ArialMT-36" d="M 3184 3459 
L 2625 3416 
Q 2550 3747 2413 3897 
Q 2184 4138 1850 4138 
Q 1581 4138 1378 3988 
Q 1113 3794 959 3422 
Q 806 3050 800 2363 
Q 1003 2672 1297 2822 
Q 1591 2972 1913 2972 
Q 2475 2972 2870 2558 
Q 3266 2144 3266 1488 
Q 3266 1056 3080 686 
Q 2894 316 2569 119 
Q 2244 -78 1831 -78 
Q 1128 -78 684 439 
Q 241 956 241 2144 
Q 241 3472 731 4075 
Q 1159 4600 1884 4600 
Q 2425 4600 2770 4297 
Q 3116 3994 3184 3459 
z
M 888 1484 
Q 888 1194 1011 928 
Q 1134 663 1356 523 
Q 1578 384 1822 384 
Q 2178 384 2434 671 
Q 2691 959 2691 1453 
Q 2691 1928 2437 2201 
Q 2184 2475 1800 2475 
Q 1419 2475 1153 2201 
Q 888 1928 888 1484 
z
" transform="scale(0.015625)"/>
       </defs>
       <use xlink:href="#ArialMT-30"/>
       <use xlink:href="#ArialMT-2e" x="55.615234"/>
       <use xlink:href="#ArialMT-36" x="83.398438"/>
      </g>
     </g>
    </g>
    <g id="text_7">
     <!-- Coefficient of variation -->
     <g transform="translate(14.357813 117.537344) rotate(-90) scale(0.1 -0.1)">
      <defs>
       <path id="Arial-BoldMT-66" d="M 75 3319 
L 563 3319 
L 563 3569 
Q 563 3988 652 4194 
Q 741 4400 980 4529 
Q 1219 4659 1584 4659 
Q 1959 4659 2319 4547 
L 2200 3934 
Q 1991 3984 1797 3984 
Q 1606 3984 1523 3895 
Q 1441 3806 1441 3553 
L 1441 3319 
L 2097 3319 
L 2097 2628 
L 1441 2628 
L 1441 0 
L 563 0 
L 563 2628 
L 75 2628 
L 75 3319 
z
" transform="scale(0.015625)"/>
       <path id="Arial-BoldMT-69" d="M 459 3769 
L 459 4581 
L 1338 4581 
L 1338 3769 
L 459 3769 
z
M 459 0 
L 459 3319 
L 1338 3319 
L 1338 0 
L 459 0 
z
" transform="scale(0.015625)"/>
       <path id="Arial-BoldMT-6e" d="M 3478 0 
L 2600 0 
L 2600 1694 
Q 2600 2231 2544 2389 
Q 2488 2547 2361 2634 
Q 2234 2722 2056 2722 
Q 1828 2722 1647 2597 
Q 1466 2472 1398 2265 
Q 1331 2059 1331 1503 
L 1331 0 
L 453 0 
L 453 3319 
L 1269 3319 
L 1269 2831 
Q 1703 3394 2363 3394 
Q 2653 3394 2893 3289 
Q 3134 3184 3257 3021 
Q 3381 2859 3429 2653 
Q 3478 2447 3478 2063 
L 3478 0 
z
" transform="scale(0.015625)"/>
       <path id="Arial-BoldMT-74" d="M 1981 3319 
L 1981 2619 
L 1381 2619 
L 1381 1281 
Q 1381 875 1398 808 
Q 1416 741 1477 697 
Q 1538 653 1625 653 
Q 1747 653 1978 738 
L 2053 56 
Q 1747 -75 1359 -75 
Q 1122 -75 931 4 
Q 741 84 652 211 
Q 563 338 528 553 
Q 500 706 500 1172 
L 500 2619 
L 97 2619 
L 97 3319 
L 500 3319 
L 500 3978 
L 1381 4491 
L 1381 3319 
L 1981 3319 
z
" transform="scale(0.015625)"/>
       <path id="Arial-BoldMT-20" transform="scale(0.015625)"/>
       <path id="Arial-BoldMT-76" d="M 1372 0 
L 34 3319 
L 956 3319 
L 1581 1625 
L 1763 1059 
Q 1834 1275 1853 1344 
Q 1897 1484 1947 1625 
L 2578 3319 
L 3481 3319 
L 2163 0 
L 1372 0 
z
" transform="scale(0.015625)"/>
       <path id="Arial-BoldMT-61" d="M 1116 2306 
L 319 2450 
Q 453 2931 781 3162 
Q 1109 3394 1756 3394 
Q 2344 3394 2631 3255 
Q 2919 3116 3036 2902 
Q 3153 2688 3153 2116 
L 3144 1091 
Q 3144 653 3186 445 
Q 3228 238 3344 0 
L 2475 0 
Q 2441 88 2391 259 
Q 2369 338 2359 363 
Q 2134 144 1878 34 
Q 1622 -75 1331 -75 
Q 819 -75 523 203 
Q 228 481 228 906 
Q 228 1188 362 1408 
Q 497 1628 739 1745 
Q 981 1863 1438 1950 
Q 2053 2066 2291 2166 
L 2291 2253 
Q 2291 2506 2166 2614 
Q 2041 2722 1694 2722 
Q 1459 2722 1328 2630 
Q 1197 2538 1116 2306 
z
M 2291 1594 
Q 2122 1538 1756 1459 
Q 1391 1381 1278 1306 
Q 1106 1184 1106 997 
Q 1106 813 1243 678 
Q 1381 544 1594 544 
Q 1831 544 2047 700 
Q 2206 819 2256 991 
Q 2291 1103 2291 1419 
L 2291 1594 
z
" transform="scale(0.015625)"/>
      </defs>
      <use xlink:href="#Arial-BoldMT-43"/>
      <use xlink:href="#Arial-BoldMT-6f" x="72.216797"/>
      <use xlink:href="#Arial-BoldMT-65" x="133.300781"/>
      <use xlink:href="#Arial-BoldMT-66" x="188.916016"/>
      <use xlink:href="#Arial-BoldMT-66" x="222.216797"/>
      <use xlink:href="#Arial-BoldMT-69" x="255.517578"/>
      <use xlink:href="#Arial-BoldMT-63" x="283.300781"/>
      <use xlink:href="#Arial-BoldMT-69" x="338.916016"/>
      <use xlink:href="#Arial-BoldMT-65" x="366.699219"/>
      <use xlink:href="#Arial-BoldMT-6e" x="422.314453"/>
      <use xlink:href="#Arial-BoldMT-74" x="483.398438"/>
      <use xlink:href="#Arial-BoldMT-20" x="516.699219"/>
      <use xlink:href="#Arial-BoldMT-6f" x="544.482422"/>
      <use xlink:href="#Arial-BoldMT-66" x="605.566406"/>
      <use xlink:href="#Arial-BoldMT-20" x="638.867188"/>
      <use xlink:href="#Arial-BoldMT-76" x="666.650391"/>
      <use xlink:href="#Arial-BoldMT-61" x="722.265625"/>
      <use xlink:href="#Arial-BoldMT-72" x="777.880859"/>
      <use xlink:href="#Arial-BoldMT-69" x="816.796875"/>
      <use xlink:href="#Arial-BoldMT-61" x="844.580078"/>
      <use xlink:href="#Arial-BoldMT-74" x="900.195312"/>
      <use xlink:href="#Arial-BoldMT-69" x="933.496094"/>
      <use xlink:href="#Arial-BoldMT-6f" x="961.279297"/>
      <use xlink:href="#Arial-BoldMT-6e" x="1022.363281"/>
     </g>
    </g>
   </g>
   <g id="line2d_7">
    <path d="M 50.697509 94.433186 
L 93.124991 94.433186 
" clip-path="url(#pd0c683a835)" style="fill: none; stroke-dasharray: 1.5625,0.9375; stroke-dashoffset: 0; stroke: #474747; stroke-width: 1.25"/>
   </g>
   <g id="line2d_8">
    <path d="M 51.149976 92.816354 
L 92.672524 92.816354 
" clip-path="url(#pd0c683a835)" style="fill: none; stroke-dasharray: 3.125,1.25; stroke-dashoffset: 0; stroke: #474747; stroke-width: 1.25"/>
   </g>
   <g id="line2d_9">
    <path d="M 61.196933 90.25627 
L 82.625567 90.25627 
" clip-path="url(#pd0c683a835)" style="fill: none; stroke-dasharray: 1.5625,0.9375; stroke-dashoffset: 0; stroke: #474747; stroke-width: 1.25"/>
   </g>
   <g id="line2d_10">
    <path d="M 105.41314 90.868984 
L 150.00936 90.868984 
" clip-path="url(#pd0c683a835)" style="fill: none; stroke-dasharray: 1.5625,0.9375; stroke-dashoffset: 0; stroke: #474747; stroke-width: 1.25"/>
   </g>
   <g id="line2d_11">
    <path d="M 111.818525 83.998853 
L 143.603975 83.998853 
" clip-path="url(#pd0c683a835)" style="fill: none; stroke-dasharray: 3.125,1.25; stroke-dashoffset: 0; stroke: #474747; stroke-width: 1.25"/>
   </g>
   <g id="line2d_12">
    <path d="M 118.784137 71.622528 
L 136.638363 71.622528 
" clip-path="url(#pd0c683a835)" style="fill: none; stroke-dasharray: 1.5625,0.9375; stroke-dashoffset: 0; stroke: #474747; stroke-width: 1.25"/>
   </g>
   <g id="patch_3">
    <path d="M 44.01125 104.949375 
L 44.01125 21.789375 
" style="fill: none; stroke: #000000; stroke-linejoin: miter; stroke-linecap: square"/>
   </g>
   <g id="patch_4">
    <path d="M 155.61125 104.949375 
L 155.61125 21.789375 
" style="fill: none; stroke: #000000; stroke-linejoin: miter; stroke-linecap: square"/>
   </g>
   <g id="patch_5">
    <path d="M 44.01125 104.949375 
L 155.61125 104.949375 
" style="fill: none; stroke: #000000; stroke-linejoin: miter; stroke-linecap: square"/>
   </g>
   <g id="patch_6">
    <path d="M 44.01125 21.789375 
L 155.61125 21.789375 
" style="fill: none; stroke: #000000; stroke-linejoin: miter; stroke-linecap: square"/>
   </g>
   <g id="text_8">
    <!-- p=2.1e-10 -->
    <g style="fill: #ff0000" transform="translate(77.49125 38.421375) scale(0.1 -0.1)">
     <defs>
      <path id="ArialMT-70" d="M 422 -1272 
L 422 3319 
L 934 3319 
L 934 2888 
Q 1116 3141 1344 3267 
Q 1572 3394 1897 3394 
Q 2322 3394 2647 3175 
Q 2972 2956 3137 2557 
Q 3303 2159 3303 1684 
Q 3303 1175 3120 767 
Q 2938 359 2589 142 
Q 2241 -75 1856 -75 
Q 1575 -75 1351 44 
Q 1128 163 984 344 
L 984 -1272 
L 422 -1272 
z
M 931 1641 
Q 931 1000 1190 694 
Q 1450 388 1819 388 
Q 2194 388 2461 705 
Q 2728 1022 2728 1688 
Q 2728 2322 2467 2637 
Q 2206 2953 1844 2953 
Q 1484 2953 1207 2617 
Q 931 2281 931 1641 
z
" transform="scale(0.015625)"/>
      <path id="ArialMT-3d" d="M 3381 2694 
L 356 2694 
L 356 3219 
L 3381 3219 
L 3381 2694 
z
M 3381 1303 
L 356 1303 
L 356 1828 
L 3381 1828 
L 3381 1303 
z
" transform="scale(0.015625)"/>
      <path id="ArialMT-31" d="M 2384 0 
L 1822 0 
L 1822 3584 
Q 1619 3391 1289 3197 
Q 959 3003 697 2906 
L 697 3450 
Q 1169 3672 1522 3987 
Q 1875 4303 2022 4600 
L 2384 4600 
L 2384 0 
z
" transform="scale(0.015625)"/>
      <path id="ArialMT-65" d="M 2694 1069 
L 3275 997 
Q 3138 488 2766 206 
Q 2394 -75 1816 -75 
Q 1088 -75 661 373 
Q 234 822 234 1631 
Q 234 2469 665 2931 
Q 1097 3394 1784 3394 
Q 2450 3394 2872 2941 
Q 3294 2488 3294 1666 
Q 3294 1616 3291 1516 
L 816 1516 
Q 847 969 1125 678 
Q 1403 388 1819 388 
Q 2128 388 2347 550 
Q 2566 713 2694 1069 
z
M 847 1978 
L 2700 1978 
Q 2663 2397 2488 2606 
Q 2219 2931 1791 2931 
Q 1403 2931 1139 2672 
Q 875 2413 847 1978 
z
" transform="scale(0.015625)"/>
      <path id="ArialMT-2d" d="M 203 1375 
L 203 1941 
L 1931 1941 
L 1931 1375 
L 203 1375 
z
" transform="scale(0.015625)"/>
     </defs>
     <use xlink:href="#ArialMT-70"/>
     <use xlink:href="#ArialMT-3d" x="55.615234"/>
     <use xlink:href="#ArialMT-32" x="114.013672"/>
     <use xlink:href="#ArialMT-2e" x="169.628906"/>
     <use xlink:href="#ArialMT-31" x="197.412109"/>
     <use xlink:href="#ArialMT-65" x="253.027344"/>
     <use xlink:href="#ArialMT-2d" x="308.642578"/>
     <use xlink:href="#ArialMT-31" x="341.943359"/>
     <use xlink:href="#ArialMT-30" x="397.558594"/>
    </g>
   </g>
   <g id="text_9">
    <!-- Transcription variation -->
    <g transform="translate(35.133125 15.789375) scale(0.12 -0.12)">
     <defs>
      <path id="Arial-BoldMT-54" d="M 1497 0 
L 1497 3806 
L 138 3806 
L 138 4581 
L 3778 4581 
L 3778 3806 
L 2422 3806 
L 2422 0 
L 1497 0 
z
" transform="scale(0.015625)"/>
      <path id="Arial-BoldMT-70" d="M 434 3319 
L 1253 3319 
L 1253 2831 
Q 1413 3081 1684 3237 
Q 1956 3394 2288 3394 
Q 2866 3394 3269 2941 
Q 3672 2488 3672 1678 
Q 3672 847 3265 386 
Q 2859 -75 2281 -75 
Q 2006 -75 1782 34 
Q 1559 144 1313 409 
L 1313 -1263 
L 434 -1263 
L 434 3319 
z
M 1303 1716 
Q 1303 1156 1525 889 
Q 1747 622 2066 622 
Q 2372 622 2575 867 
Q 2778 1113 2778 1672 
Q 2778 2194 2568 2447 
Q 2359 2700 2050 2700 
Q 1728 2700 1515 2451 
Q 1303 2203 1303 1716 
z
" transform="scale(0.015625)"/>
     </defs>
     <use xlink:href="#Arial-BoldMT-54"/>
     <use xlink:href="#Arial-BoldMT-72" x="55.583984"/>
     <use xlink:href="#Arial-BoldMT-61" x="94.5"/>
     <use xlink:href="#Arial-BoldMT-6e" x="150.115234"/>
     <use xlink:href="#Arial-BoldMT-73" x="211.199219"/>
     <use xlink:href="#Arial-BoldMT-63" x="266.814453"/>
     <use xlink:href="#Arial-BoldMT-72" x="322.429688"/>
     <use xlink:href="#Arial-BoldMT-69" x="361.345703"/>
     <use xlink:href="#Arial-BoldMT-70" x="389.128906"/>
     <use xlink:href="#Arial-BoldMT-74" x="450.212891"/>
     <use xlink:href="#Arial-BoldMT-69" x="483.513672"/>
     <use xlink:href="#Arial-BoldMT-6f" x="511.296875"/>
     <use xlink:href="#Arial-BoldMT-6e" x="572.380859"/>
     <use xlink:href="#Arial-BoldMT-20" x="633.464844"/>
     <use xlink:href="#Arial-BoldMT-76" x="661.248047"/>
     <use xlink:href="#Arial-BoldMT-61" x="716.863281"/>
     <use xlink:href="#Arial-BoldMT-72" x="772.478516"/>
     <use xlink:href="#Arial-BoldMT-69" x="811.394531"/>
     <use xlink:href="#Arial-BoldMT-61" x="839.177734"/>
     <use xlink:href="#Arial-BoldMT-74" x="894.792969"/>
     <use xlink:href="#Arial-BoldMT-69" x="928.09375"/>
     <use xlink:href="#Arial-BoldMT-6f" x="955.876953"/>
     <use xlink:href="#Arial-BoldMT-6e" x="1016.960938"/>
    </g>
   </g>
  </g>
 </g>
 <defs>
  <clipPath id="pd0c683a835">
   <rect x="44.01125" y="21.789375" width="111.6" height="83.16"/>
  </clipPath>
 </defs>
</svg>
