<?xml version="1.0" encoding="utf-8" standalone="no"?>
<!DOCTYPE svg PUBLIC "-//W3C//DTD SVG 1.1//EN"
  "http://www.w3.org/Graphics/SVG/1.1/DTD/svg11.dtd">
<svg xmlns:xlink="http://www.w3.org/1999/xlink" width="209.496875pt" height="210.7275pt" viewBox="0 0 209.496875 210.7275" xmlns="http://www.w3.org/2000/svg" version="1.1">
 <metadata>
  <rdf:RDF xmlns:dc="http://purl.org/dc/elements/1.1/" xmlns:cc="http://creativecommons.org/ns#" xmlns:rdf="http://www.w3.org/1999/02/22-rdf-syntax-ns#">
   <cc:Work>
    <dc:type rdf:resource="http://purl.org/dc/dcmitype/StillImage"/>
    <dc:date>2024-12-12T19:57:49.997113</dc:date>
    <dc:format>image/svg+xml</dc:format>
    <dc:creator>
     <cc:Agent>
      <dc:title>Matplotlib v3.9.2, https://matplotlib.org/</dc:title>
     </cc:Agent>
    </dc:creator>
   </cc:Work>
  </rdf:RDF>
 </metadata>
 <defs>
  <style type="text/css">*{stroke-linejoin: round; stroke-linecap: butt}</style>
 </defs>
 <g id="figure_1">
  <g id="patch_1">
   <path d="M 0 210.7275 
L 209.496875 210.7275 
L 209.496875 0 
L 0 0 
L 0 210.7275 
z
" style="fill: none"/>
  </g>
  <g id="axes_1">
   <g id="patch_2">
    <path d="M 44.546875 173.997812 
L 202.296875 173.997812 
L 202.296875 20.357812 
L 44.546875 20.357812 
L 44.546875 173.997812 
z
" style="fill: none"/>
   </g>
   <g id="PathCollection_1">
    <defs>
     <path id="C0_0_72edbcf2b4" d="M 0 3 
C 0.795609 3 1.55874 2.683901 2.12132 2.12132 
C 2.683901 1.55874 3 0.795609 3 -0 
C 3 -0.795609 2.683901 -1.55874 2.12132 -2.12132 
C 1.55874 -2.683901 0.795609 -3 0 -3 
C -0.795609 -3 -1.55874 -2.683901 -2.12132 -2.12132 
C -2.683901 -1.55874 -3 -0.795609 -3 0 
C -3 0.795609 -2.683901 1.55874 -2.12132 2.12132 
C -1.55874 2.683901 -0.795609 3 0 3 
z
"/>
    </defs>
    <g clip-path="url(#p9aefbd52a2)">
     <use xlink:href="#C0_0_72edbcf2b4" x="54.976233" y="63.567201" style="fill: #1b9e77; stroke: #ffffff; stroke-width: 0.48"/>
    </g>
    <g clip-path="url(#p9aefbd52a2)">
     <use xlink:href="#C0_0_72edbcf2b4" x="54.965407" y="63.575763" style="fill: #1b9e77; stroke: #ffffff; stroke-width: 0.48"/>
    </g>
    <g clip-path="url(#p9aefbd52a2)">
     <use xlink:href="#C0_0_72edbcf2b4" x="56.342187" y="35.009654" style="fill: #1b9e77; stroke: #ffffff; stroke-width: 0.48"/>
    </g>
    <g clip-path="url(#p9aefbd52a2)">
     <use xlink:href="#C0_0_72edbcf2b4" x="56.318553" y="34.507942" style="fill: #1b9e77; stroke: #ffffff; stroke-width: 0.48"/>
    </g>
    <g clip-path="url(#p9aefbd52a2)">
     <use xlink:href="#C0_0_72edbcf2b4" x="58.744056" y="35.111402" style="fill: #1b9e77; stroke: #ffffff; stroke-width: 0.48"/>
    </g>
    <g clip-path="url(#p9aefbd52a2)">
     <use xlink:href="#C0_0_72edbcf2b4" x="58.737708" y="35.105831" style="fill: #1b9e77; stroke: #ffffff; stroke-width: 0.48"/>
    </g>
    <g clip-path="url(#p9aefbd52a2)">
     <use xlink:href="#C0_0_72edbcf2b4" x="58.752562" y="35.20081" style="fill: #1b9e77; stroke: #ffffff; stroke-width: 0.48"/>
    </g>
    <g clip-path="url(#p9aefbd52a2)">
     <use xlink:href="#C0_0_72edbcf2b4" x="54.897107" y="58.532861" style="fill: #1b9e77; stroke: #ffffff; stroke-width: 0.48"/>
    </g>
    <g clip-path="url(#p9aefbd52a2)">
     <use xlink:href="#C0_0_72edbcf2b4" x="53.127298" y="42.644305" style="fill: #1b9e77; stroke: #ffffff; stroke-width: 0.48"/>
    </g>
    <g clip-path="url(#p9aefbd52a2)">
     <use xlink:href="#C0_0_72edbcf2b4" x="52.24301" y="33.092576" style="fill: #1b9e77; stroke: #ffffff; stroke-width: 0.48"/>
    </g>
    <g clip-path="url(#p9aefbd52a2)">
     <use xlink:href="#C0_0_72edbcf2b4" x="52.892942" y="32.592201" style="fill: #1b9e77; stroke: #ffffff; stroke-width: 0.48"/>
    </g>
    <g clip-path="url(#p9aefbd52a2)">
     <use xlink:href="#C0_0_72edbcf2b4" x="52.599797" y="30.320833" style="fill: #1b9e77; stroke: #ffffff; stroke-width: 0.48"/>
    </g>
    <g clip-path="url(#p9aefbd52a2)">
     <use xlink:href="#C0_0_72edbcf2b4" x="52.343568" y="27.464025" style="fill: #1b9e77; stroke: #ffffff; stroke-width: 0.48"/>
    </g>
    <g clip-path="url(#p9aefbd52a2)">
     <use xlink:href="#C0_0_72edbcf2b4" x="52.457949" y="27.341449" style="fill: #1b9e77; stroke: #ffffff; stroke-width: 0.48"/>
    </g>
    <g clip-path="url(#p9aefbd52a2)">
     <use xlink:href="#C0_0_72edbcf2b4" x="52.463188" y="27.880316" style="fill: #1b9e77; stroke: #ffffff; stroke-width: 0.48"/>
    </g>
    <g clip-path="url(#p9aefbd52a2)">
     <use xlink:href="#C0_0_72edbcf2b4" x="51.728215" y="42.143078" style="fill: #1b9e77; stroke: #ffffff; stroke-width: 0.48"/>
    </g>
    <g clip-path="url(#p9aefbd52a2)">
     <use xlink:href="#C0_0_72edbcf2b4" x="51.721053" y="42.131381" style="fill: #1b9e77; stroke: #ffffff; stroke-width: 0.48"/>
    </g>
    <g clip-path="url(#p9aefbd52a2)">
     <use xlink:href="#C0_0_72edbcf2b4" x="51.733731" y="42.115649" style="fill: #1b9e77; stroke: #ffffff; stroke-width: 0.48"/>
    </g>
    <g clip-path="url(#p9aefbd52a2)">
     <use xlink:href="#C0_0_72edbcf2b4" x="51.737062" y="42.117013" style="fill: #1b9e77; stroke: #ffffff; stroke-width: 0.48"/>
    </g>
    <g clip-path="url(#p9aefbd52a2)">
     <use xlink:href="#C0_0_72edbcf2b4" x="51.717936" y="42.229948" style="fill: #1b9e77; stroke: #ffffff; stroke-width: 0.48"/>
    </g>
    <g clip-path="url(#p9aefbd52a2)">
     <use xlink:href="#C0_0_72edbcf2b4" x="51.71733" y="42.200123" style="fill: #1b9e77; stroke: #ffffff; stroke-width: 0.48"/>
    </g>
    <g clip-path="url(#p9aefbd52a2)">
     <use xlink:href="#C0_0_72edbcf2b4" x="53.748047" y="56.645386" style="fill: #1b9e77; stroke: #ffffff; stroke-width: 0.48"/>
    </g>
    <g clip-path="url(#p9aefbd52a2)">
     <use xlink:href="#C0_0_72edbcf2b4" x="53.694326" y="55.893862" style="fill: #1b9e77; stroke: #ffffff; stroke-width: 0.48"/>
    </g>
    <g clip-path="url(#p9aefbd52a2)">
     <use xlink:href="#C0_0_72edbcf2b4" x="53.30384" y="64.747885" style="fill: #1b9e77; stroke: #ffffff; stroke-width: 0.48"/>
    </g>
    <g clip-path="url(#p9aefbd52a2)">
     <use xlink:href="#C0_0_72edbcf2b4" x="53.314024" y="64.72629" style="fill: #1b9e77; stroke: #ffffff; stroke-width: 0.48"/>
    </g>
    <g clip-path="url(#p9aefbd52a2)">
     <use xlink:href="#C0_0_72edbcf2b4" x="53.301947" y="64.773269" style="fill: #1b9e77; stroke: #ffffff; stroke-width: 0.48"/>
    </g>
    <g clip-path="url(#p9aefbd52a2)">
     <use xlink:href="#C0_0_72edbcf2b4" x="53.18373" y="63.432076" style="fill: #1b9e77; stroke: #ffffff; stroke-width: 0.48"/>
    </g>
    <g clip-path="url(#p9aefbd52a2)">
     <use xlink:href="#C0_0_72edbcf2b4" x="53.136943" y="63.092784" style="fill: #1b9e77; stroke: #ffffff; stroke-width: 0.48"/>
    </g>
    <g clip-path="url(#p9aefbd52a2)">
     <use xlink:href="#C0_0_72edbcf2b4" x="53.053015" y="61.75699" style="fill: #1b9e77; stroke: #ffffff; stroke-width: 0.48"/>
    </g>
    <g clip-path="url(#p9aefbd52a2)">
     <use xlink:href="#C0_0_72edbcf2b4" x="53.06439" y="62.039051" style="fill: #1b9e77; stroke: #ffffff; stroke-width: 0.48"/>
    </g>
    <g clip-path="url(#p9aefbd52a2)">
     <use xlink:href="#C0_0_72edbcf2b4" x="53.085228" y="62.237242" style="fill: #1b9e77; stroke: #ffffff; stroke-width: 0.48"/>
    </g>
    <g clip-path="url(#p9aefbd52a2)">
     <use xlink:href="#C0_0_72edbcf2b4" x="53.260806" y="62.222244" style="fill: #1b9e77; stroke: #ffffff; stroke-width: 0.48"/>
    </g>
    <g clip-path="url(#p9aefbd52a2)">
     <use xlink:href="#C0_0_72edbcf2b4" x="57.47237" y="147.258578" style="fill: #d95f02; stroke: #ffffff; stroke-width: 0.48"/>
    </g>
    <g clip-path="url(#p9aefbd52a2)">
     <use xlink:href="#C0_0_72edbcf2b4" x="56.33866" y="155.882718" style="fill: #d95f02; stroke: #ffffff; stroke-width: 0.48"/>
    </g>
    <g clip-path="url(#p9aefbd52a2)">
     <use xlink:href="#C0_0_72edbcf2b4" x="57.465897" y="148.114063" style="fill: #d95f02; stroke: #ffffff; stroke-width: 0.48"/>
    </g>
    <g clip-path="url(#p9aefbd52a2)">
     <use xlink:href="#C0_0_72edbcf2b4" x="57.609444" y="142.556259" style="fill: #d95f02; stroke: #ffffff; stroke-width: 0.48"/>
    </g>
    <g clip-path="url(#p9aefbd52a2)">
     <use xlink:href="#C0_0_72edbcf2b4" x="56.134386" y="156.845184" style="fill: #d95f02; stroke: #ffffff; stroke-width: 0.48"/>
    </g>
    <g clip-path="url(#p9aefbd52a2)">
     <use xlink:href="#C0_0_72edbcf2b4" x="56.862198" y="157.156932" style="fill: #d95f02; stroke: #ffffff; stroke-width: 0.48"/>
    </g>
    <g clip-path="url(#p9aefbd52a2)">
     <use xlink:href="#C0_0_72edbcf2b4" x="56.40978" y="156.929998" style="fill: #d95f02; stroke: #ffffff; stroke-width: 0.48"/>
    </g>
    <g clip-path="url(#p9aefbd52a2)">
     <use xlink:href="#C0_0_72edbcf2b4" x="56.451917" y="156.993395" style="fill: #d95f02; stroke: #ffffff; stroke-width: 0.48"/>
    </g>
    <g clip-path="url(#p9aefbd52a2)">
     <use xlink:href="#C0_0_72edbcf2b4" x="55.905074" y="157.530576" style="fill: #d95f02; stroke: #ffffff; stroke-width: 0.48"/>
    </g>
    <g clip-path="url(#p9aefbd52a2)">
     <use xlink:href="#C0_0_72edbcf2b4" x="56.036209" y="157.724488" style="fill: #d95f02; stroke: #ffffff; stroke-width: 0.48"/>
    </g>
    <g clip-path="url(#p9aefbd52a2)">
     <use xlink:href="#C0_0_72edbcf2b4" x="56.037194" y="157.737065" style="fill: #d95f02; stroke: #ffffff; stroke-width: 0.48"/>
    </g>
    <g clip-path="url(#p9aefbd52a2)">
     <use xlink:href="#C0_0_72edbcf2b4" x="56.065955" y="157.323362" style="fill: #d95f02; stroke: #ffffff; stroke-width: 0.48"/>
    </g>
    <g clip-path="url(#p9aefbd52a2)">
     <use xlink:href="#C0_0_72edbcf2b4" x="56.384163" y="156.738372" style="fill: #d95f02; stroke: #ffffff; stroke-width: 0.48"/>
    </g>
    <g clip-path="url(#p9aefbd52a2)">
     <use xlink:href="#C0_0_72edbcf2b4" x="55.981933" y="157.684915" style="fill: #d95f02; stroke: #ffffff; stroke-width: 0.48"/>
    </g>
    <g clip-path="url(#p9aefbd52a2)">
     <use xlink:href="#C0_0_72edbcf2b4" x="55.982885" y="157.685023" style="fill: #d95f02; stroke: #ffffff; stroke-width: 0.48"/>
    </g>
    <g clip-path="url(#p9aefbd52a2)">
     <use xlink:href="#C0_0_72edbcf2b4" x="56.047748" y="157.730698" style="fill: #d95f02; stroke: #ffffff; stroke-width: 0.48"/>
    </g>
    <g clip-path="url(#p9aefbd52a2)">
     <use xlink:href="#C0_0_72edbcf2b4" x="56.168796" y="157.479292" style="fill: #d95f02; stroke: #ffffff; stroke-width: 0.48"/>
    </g>
    <g clip-path="url(#p9aefbd52a2)">
     <use xlink:href="#C0_0_72edbcf2b4" x="56.078872" y="157.721707" style="fill: #d95f02; stroke: #ffffff; stroke-width: 0.48"/>
    </g>
    <g clip-path="url(#p9aefbd52a2)">
     <use xlink:href="#C0_0_72edbcf2b4" x="55.923409" y="157.692028" style="fill: #d95f02; stroke: #ffffff; stroke-width: 0.48"/>
    </g>
    <g clip-path="url(#p9aefbd52a2)">
     <use xlink:href="#C0_0_72edbcf2b4" x="55.940865" y="157.652962" style="fill: #d95f02; stroke: #ffffff; stroke-width: 0.48"/>
    </g>
    <g clip-path="url(#p9aefbd52a2)">
     <use xlink:href="#C0_0_72edbcf2b4" x="55.937256" y="157.663419" style="fill: #d95f02; stroke: #ffffff; stroke-width: 0.48"/>
    </g>
    <g clip-path="url(#p9aefbd52a2)">
     <use xlink:href="#C0_0_72edbcf2b4" x="55.942931" y="157.66395" style="fill: #d95f02; stroke: #ffffff; stroke-width: 0.48"/>
    </g>
    <g clip-path="url(#p9aefbd52a2)">
     <use xlink:href="#C0_0_72edbcf2b4" x="55.936603" y="157.667317" style="fill: #d95f02; stroke: #ffffff; stroke-width: 0.48"/>
    </g>
    <g clip-path="url(#p9aefbd52a2)">
     <use xlink:href="#C0_0_72edbcf2b4" x="55.940277" y="157.664526" style="fill: #d95f02; stroke: #ffffff; stroke-width: 0.48"/>
    </g>
    <g clip-path="url(#p9aefbd52a2)">
     <use xlink:href="#C0_0_72edbcf2b4" x="55.936603" y="157.667317" style="fill: #d95f02; stroke: #ffffff; stroke-width: 0.48"/>
    </g>
    <g clip-path="url(#p9aefbd52a2)">
     <use xlink:href="#C0_0_72edbcf2b4" x="55.94151" y="157.653239" style="fill: #d95f02; stroke: #ffffff; stroke-width: 0.48"/>
    </g>
    <g clip-path="url(#p9aefbd52a2)">
     <use xlink:href="#C0_0_72edbcf2b4" x="55.947924" y="157.635501" style="fill: #d95f02; stroke: #ffffff; stroke-width: 0.48"/>
    </g>
    <g clip-path="url(#p9aefbd52a2)">
     <use xlink:href="#C0_0_72edbcf2b4" x="55.936015" y="157.611635" style="fill: #d95f02; stroke: #ffffff; stroke-width: 0.48"/>
    </g>
    <g clip-path="url(#p9aefbd52a2)">
     <use xlink:href="#C0_0_72edbcf2b4" x="55.943875" y="157.600669" style="fill: #d95f02; stroke: #ffffff; stroke-width: 0.48"/>
    </g>
    <g clip-path="url(#p9aefbd52a2)">
     <use xlink:href="#C0_0_72edbcf2b4" x="55.938594" y="157.584736" style="fill: #d95f02; stroke: #ffffff; stroke-width: 0.48"/>
    </g>
    <g clip-path="url(#p9aefbd52a2)">
     <use xlink:href="#C0_0_72edbcf2b4" x="55.966735" y="157.644792" style="fill: #d95f02; stroke: #ffffff; stroke-width: 0.48"/>
    </g>
    <g clip-path="url(#p9aefbd52a2)">
     <use xlink:href="#C0_0_72edbcf2b4" x="55.974393" y="157.616809" style="fill: #d95f02; stroke: #ffffff; stroke-width: 0.48"/>
    </g>
    <g clip-path="url(#p9aefbd52a2)">
     <use xlink:href="#C0_0_72edbcf2b4" x="194.896368" y="119.282947" style="fill: #7570b3; stroke: #ffffff; stroke-width: 0.48"/>
    </g>
    <g clip-path="url(#p9aefbd52a2)">
     <use xlink:href="#C0_0_72edbcf2b4" x="195.030456" y="119.30103" style="fill: #7570b3; stroke: #ffffff; stroke-width: 0.48"/>
    </g>
    <g clip-path="url(#p9aefbd52a2)">
     <use xlink:href="#C0_0_72edbcf2b4" x="194.848886" y="119.289351" style="fill: #7570b3; stroke: #ffffff; stroke-width: 0.48"/>
    </g>
    <g clip-path="url(#p9aefbd52a2)">
     <use xlink:href="#C0_0_72edbcf2b4" x="194.987501" y="119.31022" style="fill: #7570b3; stroke: #ffffff; stroke-width: 0.48"/>
    </g>
    <g clip-path="url(#p9aefbd52a2)">
     <use xlink:href="#C0_0_72edbcf2b4" x="194.941609" y="119.305189" style="fill: #7570b3; stroke: #ffffff; stroke-width: 0.48"/>
    </g>
    <g clip-path="url(#p9aefbd52a2)">
     <use xlink:href="#C0_0_72edbcf2b4" x="195.004931" y="119.333384" style="fill: #7570b3; stroke: #ffffff; stroke-width: 0.48"/>
    </g>
    <g clip-path="url(#p9aefbd52a2)">
     <use xlink:href="#C0_0_72edbcf2b4" x="195.12642" y="119.300127" style="fill: #7570b3; stroke: #ffffff; stroke-width: 0.48"/>
    </g>
    <g clip-path="url(#p9aefbd52a2)">
     <use xlink:href="#C0_0_72edbcf2b4" x="195.09697" y="119.314323" style="fill: #7570b3; stroke: #ffffff; stroke-width: 0.48"/>
    </g>
    <g clip-path="url(#p9aefbd52a2)">
     <use xlink:href="#C0_0_72edbcf2b4" x="195.026576" y="119.301101" style="fill: #7570b3; stroke: #ffffff; stroke-width: 0.48"/>
    </g>
    <g clip-path="url(#p9aefbd52a2)">
     <use xlink:href="#C0_0_72edbcf2b4" x="195.089779" y="119.304128" style="fill: #7570b3; stroke: #ffffff; stroke-width: 0.48"/>
    </g>
    <g clip-path="url(#p9aefbd52a2)">
     <use xlink:href="#C0_0_72edbcf2b4" x="195.083302" y="119.338864" style="fill: #7570b3; stroke: #ffffff; stroke-width: 0.48"/>
    </g>
    <g clip-path="url(#p9aefbd52a2)">
     <use xlink:href="#C0_0_72edbcf2b4" x="195.061223" y="119.271976" style="fill: #7570b3; stroke: #ffffff; stroke-width: 0.48"/>
    </g>
    <g clip-path="url(#p9aefbd52a2)">
     <use xlink:href="#C0_0_72edbcf2b4" x="195.091804" y="119.291547" style="fill: #7570b3; stroke: #ffffff; stroke-width: 0.48"/>
    </g>
    <g clip-path="url(#p9aefbd52a2)">
     <use xlink:href="#C0_0_72edbcf2b4" x="194.985083" y="119.319294" style="fill: #7570b3; stroke: #ffffff; stroke-width: 0.48"/>
    </g>
    <g clip-path="url(#p9aefbd52a2)">
     <use xlink:href="#C0_0_72edbcf2b4" x="194.865253" y="119.309569" style="fill: #7570b3; stroke: #ffffff; stroke-width: 0.48"/>
    </g>
    <g clip-path="url(#p9aefbd52a2)">
     <use xlink:href="#C0_0_72edbcf2b4" x="194.890103" y="119.322728" style="fill: #7570b3; stroke: #ffffff; stroke-width: 0.48"/>
    </g>
    <g clip-path="url(#p9aefbd52a2)">
     <use xlink:href="#C0_0_72edbcf2b4" x="195.025358" y="119.345639" style="fill: #7570b3; stroke: #ffffff; stroke-width: 0.48"/>
    </g>
    <g clip-path="url(#p9aefbd52a2)">
     <use xlink:href="#C0_0_72edbcf2b4" x="195.067704" y="119.27631" style="fill: #7570b3; stroke: #ffffff; stroke-width: 0.48"/>
    </g>
    <g clip-path="url(#p9aefbd52a2)">
     <use xlink:href="#C0_0_72edbcf2b4" x="195.054858" y="119.289574" style="fill: #7570b3; stroke: #ffffff; stroke-width: 0.48"/>
    </g>
    <g clip-path="url(#p9aefbd52a2)">
     <use xlink:href="#C0_0_72edbcf2b4" x="195.091169" y="119.311127" style="fill: #7570b3; stroke: #ffffff; stroke-width: 0.48"/>
    </g>
    <g clip-path="url(#p9aefbd52a2)">
     <use xlink:href="#C0_0_72edbcf2b4" x="195.112114" y="119.269079" style="fill: #7570b3; stroke: #ffffff; stroke-width: 0.48"/>
    </g>
    <g clip-path="url(#p9aefbd52a2)">
     <use xlink:href="#C0_0_72edbcf2b4" x="194.934991" y="119.25482" style="fill: #7570b3; stroke: #ffffff; stroke-width: 0.48"/>
    </g>
    <g clip-path="url(#p9aefbd52a2)">
     <use xlink:href="#C0_0_72edbcf2b4" x="194.734123" y="119.286933" style="fill: #7570b3; stroke: #ffffff; stroke-width: 0.48"/>
    </g>
    <g clip-path="url(#p9aefbd52a2)">
     <use xlink:href="#C0_0_72edbcf2b4" x="194.931604" y="119.372574" style="fill: #7570b3; stroke: #ffffff; stroke-width: 0.48"/>
    </g>
    <g clip-path="url(#p9aefbd52a2)">
     <use xlink:href="#C0_0_72edbcf2b4" x="194.95951" y="119.358662" style="fill: #7570b3; stroke: #ffffff; stroke-width: 0.48"/>
    </g>
    <g clip-path="url(#p9aefbd52a2)">
     <use xlink:href="#C0_0_72edbcf2b4" x="55.048847" y="161.359877" style="fill: #e7298a; stroke: #ffffff; stroke-width: 0.48"/>
    </g>
    <g clip-path="url(#p9aefbd52a2)">
     <use xlink:href="#C0_0_72edbcf2b4" x="54.439602" y="166.007823" style="fill: #e7298a; stroke: #ffffff; stroke-width: 0.48"/>
    </g>
    <g clip-path="url(#p9aefbd52a2)">
     <use xlink:href="#C0_0_72edbcf2b4" x="54.434034" y="166.052023" style="fill: #e7298a; stroke: #ffffff; stroke-width: 0.48"/>
    </g>
    <g clip-path="url(#p9aefbd52a2)">
     <use xlink:href="#C0_0_72edbcf2b4" x="54.329278" y="165.983896" style="fill: #e7298a; stroke: #ffffff; stroke-width: 0.48"/>
    </g>
    <g clip-path="url(#p9aefbd52a2)">
     <use xlink:href="#C0_0_72edbcf2b4" x="54.268769" y="166.724561" style="fill: #e7298a; stroke: #ffffff; stroke-width: 0.48"/>
    </g>
    <g clip-path="url(#p9aefbd52a2)">
     <use xlink:href="#C0_0_72edbcf2b4" x="54.28729" y="166.95472" style="fill: #e7298a; stroke: #ffffff; stroke-width: 0.48"/>
    </g>
    <g clip-path="url(#p9aefbd52a2)">
     <use xlink:href="#C0_0_72edbcf2b4" x="54.28145" y="166.970278" style="fill: #e7298a; stroke: #ffffff; stroke-width: 0.48"/>
    </g>
    <g clip-path="url(#p9aefbd52a2)">
     <use xlink:href="#C0_0_72edbcf2b4" x="54.284898" y="166.973148" style="fill: #e7298a; stroke: #ffffff; stroke-width: 0.48"/>
    </g>
    <g clip-path="url(#p9aefbd52a2)">
     <use xlink:href="#C0_0_72edbcf2b4" x="54.333964" y="166.639213" style="fill: #e7298a; stroke: #ffffff; stroke-width: 0.48"/>
    </g>
    <g clip-path="url(#p9aefbd52a2)">
     <use xlink:href="#C0_0_72edbcf2b4" x="54.36267" y="166.354861" style="fill: #e7298a; stroke: #ffffff; stroke-width: 0.48"/>
    </g>
    <g clip-path="url(#p9aefbd52a2)">
     <use xlink:href="#C0_0_72edbcf2b4" x="54.274659" y="166.948867" style="fill: #e7298a; stroke: #ffffff; stroke-width: 0.48"/>
    </g>
    <g clip-path="url(#p9aefbd52a2)">
     <use xlink:href="#C0_0_72edbcf2b4" x="54.283103" y="166.989544" style="fill: #e7298a; stroke: #ffffff; stroke-width: 0.48"/>
    </g>
    <g clip-path="url(#p9aefbd52a2)">
     <use xlink:href="#C0_0_72edbcf2b4" x="54.274475" y="166.98591" style="fill: #e7298a; stroke: #ffffff; stroke-width: 0.48"/>
    </g>
    <g clip-path="url(#p9aefbd52a2)">
     <use xlink:href="#C0_0_72edbcf2b4" x="54.275322" y="166.991158" style="fill: #e7298a; stroke: #ffffff; stroke-width: 0.48"/>
    </g>
    <g clip-path="url(#p9aefbd52a2)">
     <use xlink:href="#C0_0_72edbcf2b4" x="54.282873" y="166.98523" style="fill: #e7298a; stroke: #ffffff; stroke-width: 0.48"/>
    </g>
    <g clip-path="url(#p9aefbd52a2)">
     <use xlink:href="#C0_0_72edbcf2b4" x="54.278646" y="166.897388" style="fill: #e7298a; stroke: #ffffff; stroke-width: 0.48"/>
    </g>
    <g clip-path="url(#p9aefbd52a2)">
     <use xlink:href="#C0_0_72edbcf2b4" x="54.277093" y="166.933886" style="fill: #e7298a; stroke: #ffffff; stroke-width: 0.48"/>
    </g>
    <g clip-path="url(#p9aefbd52a2)">
     <use xlink:href="#C0_0_72edbcf2b4" x="54.274475" y="166.98591" style="fill: #e7298a; stroke: #ffffff; stroke-width: 0.48"/>
    </g>
    <g clip-path="url(#p9aefbd52a2)">
     <use xlink:href="#C0_0_72edbcf2b4" x="54.282556" y="166.980726" style="fill: #e7298a; stroke: #ffffff; stroke-width: 0.48"/>
    </g>
    <g clip-path="url(#p9aefbd52a2)">
     <use xlink:href="#C0_0_72edbcf2b4" x="54.27788" y="166.995355" style="fill: #e7298a; stroke: #ffffff; stroke-width: 0.48"/>
    </g>
    <g clip-path="url(#p9aefbd52a2)">
     <use xlink:href="#C0_0_72edbcf2b4" x="54.276285" y="167.006846" style="fill: #e7298a; stroke: #ffffff; stroke-width: 0.48"/>
    </g>
    <g clip-path="url(#p9aefbd52a2)">
     <use xlink:href="#C0_0_72edbcf2b4" x="54.279958" y="167.004055" style="fill: #e7298a; stroke: #ffffff; stroke-width: 0.48"/>
    </g>
    <g clip-path="url(#p9aefbd52a2)">
     <use xlink:href="#C0_0_72edbcf2b4" x="54.269931" y="167.009131" style="fill: #e7298a; stroke: #ffffff; stroke-width: 0.48"/>
    </g>
    <g clip-path="url(#p9aefbd52a2)">
     <use xlink:href="#C0_0_72edbcf2b4" x="54.276285" y="167.006846" style="fill: #e7298a; stroke: #ffffff; stroke-width: 0.48"/>
    </g>
    <g clip-path="url(#p9aefbd52a2)">
     <use xlink:href="#C0_0_72edbcf2b4" x="54.278914" y="167.014176" style="fill: #e7298a; stroke: #ffffff; stroke-width: 0.48"/>
    </g>
    <g clip-path="url(#p9aefbd52a2)">
     <use xlink:href="#C0_0_72edbcf2b4" x="54.279601" y="167.004072" style="fill: #e7298a; stroke: #ffffff; stroke-width: 0.48"/>
    </g>
   </g>
   <g id="matplotlib.axis_1">
    <g id="xtick_1">
     <g id="line2d_1">
      <defs>
       <path id="m10d4894deb" d="M 0 0 
L 0 3.5 
" style="stroke: #000000; stroke-width: 0.8"/>
      </defs>
      <g>
       <use xlink:href="#m10d4894deb" x="85.256124" y="173.997812" style="stroke: #000000; stroke-width: 0.8"/>
      </g>
     </g>
     <g id="text_1">
      <!-- 0 -->
      <g transform="translate(82.475655 188.155625) scale(0.1 -0.1)">
       <defs>
        <path id="ArialMT-30" d="M 266 2259 
Q 266 3072 433 3567 
Q 600 4063 929 4331 
Q 1259 4600 1759 4600 
Q 2128 4600 2406 4451 
Q 2684 4303 2865 4023 
Q 3047 3744 3150 3342 
Q 3253 2941 3253 2259 
Q 3253 1453 3087 958 
Q 2922 463 2592 192 
Q 2263 -78 1759 -78 
Q 1097 -78 719 397 
Q 266 969 266 2259 
z
M 844 2259 
Q 844 1131 1108 757 
Q 1372 384 1759 384 
Q 2147 384 2411 759 
Q 2675 1134 2675 2259 
Q 2675 3391 2411 3762 
Q 2147 4134 1753 4134 
Q 1366 4134 1134 3806 
Q 844 3388 844 2259 
z
" transform="scale(0.015625)"/>
       </defs>
       <use xlink:href="#ArialMT-30"/>
      </g>
     </g>
    </g>
    <g id="xtick_2">
     <g id="line2d_2">
      <g>
       <use xlink:href="#m10d4894deb" x="128.309579" y="173.997812" style="stroke: #000000; stroke-width: 0.8"/>
      </g>
     </g>
     <g id="text_2">
      <!-- 100 -->
      <g transform="translate(119.968172 188.155625) scale(0.1 -0.1)">
       <defs>
        <path id="ArialMT-31" d="M 2384 0 
L 1822 0 
L 1822 3584 
Q 1619 3391 1289 3197 
Q 959 3003 697 2906 
L 697 3450 
Q 1169 3672 1522 3987 
Q 1875 4303 2022 4600 
L 2384 4600 
L 2384 0 
z
" transform="scale(0.015625)"/>
       </defs>
       <use xlink:href="#ArialMT-31"/>
       <use xlink:href="#ArialMT-30" x="55.615234"/>
       <use xlink:href="#ArialMT-30" x="111.230469"/>
      </g>
     </g>
    </g>
    <g id="xtick_3">
     <g id="line2d_3">
      <g>
       <use xlink:href="#m10d4894deb" x="171.363034" y="173.997812" style="stroke: #000000; stroke-width: 0.8"/>
      </g>
     </g>
     <g id="text_3">
      <!-- 200 -->
      <g transform="translate(163.021628 188.155625) scale(0.1 -0.1)">
       <defs>
        <path id="ArialMT-32" d="M 3222 541 
L 3222 0 
L 194 0 
Q 188 203 259 391 
Q 375 700 629 1000 
Q 884 1300 1366 1694 
Q 2113 2306 2375 2664 
Q 2638 3022 2638 3341 
Q 2638 3675 2398 3904 
Q 2159 4134 1775 4134 
Q 1369 4134 1125 3890 
Q 881 3647 878 3216 
L 300 3275 
Q 359 3922 746 4261 
Q 1134 4600 1788 4600 
Q 2447 4600 2831 4234 
Q 3216 3869 3216 3328 
Q 3216 3053 3103 2787 
Q 2991 2522 2730 2228 
Q 2469 1934 1863 1422 
Q 1356 997 1212 845 
Q 1069 694 975 541 
L 3222 541 
z
" transform="scale(0.015625)"/>
       </defs>
       <use xlink:href="#ArialMT-32"/>
       <use xlink:href="#ArialMT-30" x="55.615234"/>
       <use xlink:href="#ArialMT-30" x="111.230469"/>
      </g>
     </g>
    </g>
    <g id="text_4">
     <!-- PC1 (62.7%) -->
     <g transform="translate(94.8 201.422812) scale(0.1 -0.1)">
      <defs>
       <path id="Arial-BoldMT-50" d="M 466 0 
L 466 4581 
L 1950 4581 
Q 2794 4581 3050 4513 
Q 3444 4409 3709 4064 
Q 3975 3719 3975 3172 
Q 3975 2750 3822 2462 
Q 3669 2175 3433 2011 
Q 3197 1847 2953 1794 
Q 2622 1728 1994 1728 
L 1391 1728 
L 1391 0 
L 466 0 
z
M 1391 3806 
L 1391 2506 
L 1897 2506 
Q 2444 2506 2628 2578 
Q 2813 2650 2917 2803 
Q 3022 2956 3022 3159 
Q 3022 3409 2875 3571 
Q 2728 3734 2503 3775 
Q 2338 3806 1838 3806 
L 1391 3806 
z
" transform="scale(0.015625)"/>
       <path id="Arial-BoldMT-43" d="M 3397 1684 
L 4294 1400 
Q 4088 650 3608 286 
Q 3128 -78 2391 -78 
Q 1478 -78 890 545 
Q 303 1169 303 2250 
Q 303 3394 893 4026 
Q 1484 4659 2447 4659 
Q 3288 4659 3813 4163 
Q 4125 3869 4281 3319 
L 3366 3100 
Q 3284 3456 3026 3662 
Q 2769 3869 2400 3869 
Q 1891 3869 1573 3503 
Q 1256 3138 1256 2319 
Q 1256 1450 1568 1081 
Q 1881 713 2381 713 
Q 2750 713 3015 947 
Q 3281 1181 3397 1684 
z
" transform="scale(0.015625)"/>
       <path id="Arial-BoldMT-31" d="M 2519 0 
L 1641 0 
L 1641 3309 
Q 1159 2859 506 2644 
L 506 3441 
Q 850 3553 1253 3867 
Q 1656 4181 1806 4600 
L 2519 4600 
L 2519 0 
z
" transform="scale(0.015625)"/>
       <path id="Arial-BoldMT-20" transform="scale(0.015625)"/>
       <path id="Arial-BoldMT-28" d="M 1916 -1347 
L 1313 -1347 
Q 834 -625 584 153 
Q 334 931 334 1659 
Q 334 2563 644 3369 
Q 913 4069 1325 4659 
L 1925 4659 
Q 1497 3713 1336 3048 
Q 1175 2384 1175 1641 
Q 1175 1128 1270 590 
Q 1366 53 1531 -431 
Q 1641 -750 1916 -1347 
z
" transform="scale(0.015625)"/>
       <path id="Arial-BoldMT-36" d="M 3247 3459 
L 2397 3366 
Q 2366 3628 2234 3753 
Q 2103 3878 1894 3878 
Q 1616 3878 1423 3628 
Q 1231 3378 1181 2588 
Q 1509 2975 1997 2975 
Q 2547 2975 2939 2556 
Q 3331 2138 3331 1475 
Q 3331 772 2918 347 
Q 2506 -78 1859 -78 
Q 1166 -78 719 461 
Q 272 1000 272 2228 
Q 272 3488 737 4044 
Q 1203 4600 1947 4600 
Q 2469 4600 2811 4308 
Q 3153 4016 3247 3459 
z
M 1256 1544 
Q 1256 1116 1453 883 
Q 1650 650 1903 650 
Q 2147 650 2309 840 
Q 2472 1031 2472 1466 
Q 2472 1913 2297 2120 
Q 2122 2328 1859 2328 
Q 1606 2328 1431 2129 
Q 1256 1931 1256 1544 
z
" transform="scale(0.015625)"/>
       <path id="Arial-BoldMT-32" d="M 3238 816 
L 3238 0 
L 159 0 
Q 209 463 459 877 
Q 709 1291 1447 1975 
Q 2041 2528 2175 2725 
Q 2356 2997 2356 3263 
Q 2356 3556 2198 3714 
Q 2041 3872 1763 3872 
Q 1488 3872 1325 3706 
Q 1163 3541 1138 3156 
L 263 3244 
Q 341 3969 753 4284 
Q 1166 4600 1784 4600 
Q 2463 4600 2850 4234 
Q 3238 3869 3238 3325 
Q 3238 3016 3127 2736 
Q 3016 2456 2775 2150 
Q 2616 1947 2200 1565 
Q 1784 1184 1673 1059 
Q 1563 934 1494 816 
L 3238 816 
z
" transform="scale(0.015625)"/>
       <path id="Arial-BoldMT-2e" d="M 459 0 
L 459 878 
L 1338 878 
L 1338 0 
L 459 0 
z
" transform="scale(0.015625)"/>
       <path id="Arial-BoldMT-37" d="M 272 3703 
L 272 4519 
L 3275 4519 
L 3275 3881 
Q 2903 3516 2518 2831 
Q 2134 2147 1932 1376 
Q 1731 606 1734 0 
L 888 0 
Q 909 950 1279 1937 
Q 1650 2925 2269 3703 
L 272 3703 
z
" transform="scale(0.015625)"/>
       <path id="Arial-BoldMT-25" d="M 278 3450 
Q 278 4066 548 4362 
Q 819 4659 1281 4659 
Q 1759 4659 2029 4364 
Q 2300 4069 2300 3450 
Q 2300 2834 2029 2537 
Q 1759 2241 1297 2241 
Q 819 2241 548 2536 
Q 278 2831 278 3450 
z
M 963 3456 
Q 963 3009 1066 2856 
Q 1144 2744 1281 2744 
Q 1422 2744 1500 2856 
Q 1600 3009 1600 3456 
Q 1600 3903 1500 4053 
Q 1422 4169 1281 4169 
Q 1144 4169 1066 4056 
Q 963 3903 963 3456 
z
M 1950 -175 
L 1300 -175 
L 3741 4659 
L 4372 4659 
L 1950 -175 
z
M 3369 1028 
Q 3369 1644 3639 1941 
Q 3909 2238 4378 2238 
Q 4850 2238 5120 1941 
Q 5391 1644 5391 1028 
Q 5391 409 5120 112 
Q 4850 -184 4388 -184 
Q 3909 -184 3639 112 
Q 3369 409 3369 1028 
z
M 4053 1031 
Q 4053 584 4156 434 
Q 4234 319 4372 319 
Q 4513 319 4588 431 
Q 4691 584 4691 1031 
Q 4691 1478 4591 1631 
Q 4513 1744 4372 1744 
Q 4231 1744 4156 1631 
Q 4053 1478 4053 1031 
z
" transform="scale(0.015625)"/>
       <path id="Arial-BoldMT-29" d="M 216 -1347 
Q 475 -791 581 -494 
Q 688 -197 778 190 
Q 869 578 912 926 
Q 956 1275 956 1641 
Q 956 2384 797 3048 
Q 638 3713 209 4659 
L 806 4659 
Q 1278 3988 1539 3234 
Q 1800 2481 1800 1706 
Q 1800 1053 1594 306 
Q 1359 -531 822 -1347 
L 216 -1347 
z
" transform="scale(0.015625)"/>
      </defs>
      <use xlink:href="#Arial-BoldMT-50"/>
      <use xlink:href="#Arial-BoldMT-43" x="66.699219"/>
      <use xlink:href="#Arial-BoldMT-31" x="138.916016"/>
      <use xlink:href="#Arial-BoldMT-20" x="194.53125"/>
      <use xlink:href="#Arial-BoldMT-28" x="222.314453"/>
      <use xlink:href="#Arial-BoldMT-36" x="255.615234"/>
      <use xlink:href="#Arial-BoldMT-32" x="311.230469"/>
      <use xlink:href="#Arial-BoldMT-2e" x="366.845703"/>
      <use xlink:href="#Arial-BoldMT-37" x="394.628906"/>
      <use xlink:href="#Arial-BoldMT-25" x="450.244141"/>
      <use xlink:href="#Arial-BoldMT-29" x="539.160156"/>
     </g>
    </g>
   </g>
   <g id="matplotlib.axis_2">
    <g id="ytick_1">
     <g id="line2d_4">
      <defs>
       <path id="m92a87419ea" d="M 0 0 
L -3.5 0 
" style="stroke: #000000; stroke-width: 0.8"/>
      </defs>
      <g>
       <use xlink:href="#m92a87419ea" x="44.546875" y="156.267416" style="stroke: #000000; stroke-width: 0.8"/>
      </g>
     </g>
     <g id="text_5">
      <!-- −50 -->
      <g transform="translate(20.584375 159.846322) scale(0.1 -0.1)">
       <defs>
        <path id="ArialMT-2212" d="M 3381 1997 
L 356 1997 
L 356 2522 
L 3381 2522 
L 3381 1997 
z
" transform="scale(0.015625)"/>
        <path id="ArialMT-35" d="M 266 1200 
L 856 1250 
Q 922 819 1161 601 
Q 1400 384 1738 384 
Q 2144 384 2425 690 
Q 2706 997 2706 1503 
Q 2706 1984 2436 2262 
Q 2166 2541 1728 2541 
Q 1456 2541 1237 2417 
Q 1019 2294 894 2097 
L 366 2166 
L 809 4519 
L 3088 4519 
L 3088 3981 
L 1259 3981 
L 1013 2750 
Q 1425 3038 1878 3038 
Q 2478 3038 2890 2622 
Q 3303 2206 3303 1553 
Q 3303 931 2941 478 
Q 2500 -78 1738 -78 
Q 1113 -78 717 272 
Q 322 622 266 1200 
z
" transform="scale(0.015625)"/>
       </defs>
       <use xlink:href="#ArialMT-2212"/>
       <use xlink:href="#ArialMT-35" x="58.398438"/>
       <use xlink:href="#ArialMT-30" x="114.013672"/>
      </g>
     </g>
    </g>
    <g id="ytick_2">
     <g id="line2d_5">
      <g>
       <use xlink:href="#m92a87419ea" x="44.546875" y="120.3042" style="stroke: #000000; stroke-width: 0.8"/>
      </g>
     </g>
     <g id="text_6">
      <!-- 0 -->
      <g transform="translate(31.985938 123.883106) scale(0.1 -0.1)">
       <use xlink:href="#ArialMT-30"/>
      </g>
     </g>
    </g>
    <g id="ytick_3">
     <g id="line2d_6">
      <g>
       <use xlink:href="#m92a87419ea" x="44.546875" y="84.340983" style="stroke: #000000; stroke-width: 0.8"/>
      </g>
     </g>
     <g id="text_7">
      <!-- 50 -->
      <g transform="translate(26.425 87.919889) scale(0.1 -0.1)">
       <use xlink:href="#ArialMT-35"/>
       <use xlink:href="#ArialMT-30" x="55.615234"/>
      </g>
     </g>
    </g>
    <g id="ytick_4">
     <g id="line2d_7">
      <g>
       <use xlink:href="#m92a87419ea" x="44.546875" y="48.377767" style="stroke: #000000; stroke-width: 0.8"/>
      </g>
     </g>
     <g id="text_8">
      <!-- 100 -->
      <g transform="translate(20.864063 51.956673) scale(0.1 -0.1)">
       <use xlink:href="#ArialMT-31"/>
       <use xlink:href="#ArialMT-30" x="55.615234"/>
       <use xlink:href="#ArialMT-30" x="111.230469"/>
      </g>
     </g>
    </g>
    <g id="text_9">
     <!-- PC2 (16.0%) -->
     <g transform="translate(14.479688 125.799687) rotate(-90) scale(0.1 -0.1)">
      <defs>
       <path id="Arial-BoldMT-30" d="M 1756 4600 
Q 2422 4600 2797 4125 
Q 3244 3563 3244 2259 
Q 3244 959 2794 391 
Q 2422 -78 1756 -78 
Q 1088 -78 678 436 
Q 269 950 269 2269 
Q 269 3563 719 4131 
Q 1091 4600 1756 4600 
z
M 1756 3872 
Q 1597 3872 1472 3770 
Q 1347 3669 1278 3406 
Q 1188 3066 1188 2259 
Q 1188 1453 1269 1151 
Q 1350 850 1473 750 
Q 1597 650 1756 650 
Q 1916 650 2041 751 
Q 2166 853 2234 1116 
Q 2325 1453 2325 2259 
Q 2325 3066 2244 3367 
Q 2163 3669 2039 3770 
Q 1916 3872 1756 3872 
z
" transform="scale(0.015625)"/>
      </defs>
      <use xlink:href="#Arial-BoldMT-50"/>
      <use xlink:href="#Arial-BoldMT-43" x="66.699219"/>
      <use xlink:href="#Arial-BoldMT-32" x="138.916016"/>
      <use xlink:href="#Arial-BoldMT-20" x="194.53125"/>
      <use xlink:href="#Arial-BoldMT-28" x="222.314453"/>
      <use xlink:href="#Arial-BoldMT-31" x="255.615234"/>
      <use xlink:href="#Arial-BoldMT-36" x="311.230469"/>
      <use xlink:href="#Arial-BoldMT-2e" x="366.845703"/>
      <use xlink:href="#Arial-BoldMT-30" x="394.628906"/>
      <use xlink:href="#Arial-BoldMT-25" x="450.244141"/>
      <use xlink:href="#Arial-BoldMT-29" x="539.160156"/>
     </g>
    </g>
   </g>
   <g id="line2d_8"/>
   <g id="line2d_9"/>
   <g id="line2d_10"/>
   <g id="line2d_11"/>
   <g id="patch_3">
    <path d="M 44.546875 173.997812 
L 44.546875 20.357813 
" style="fill: none; stroke: #000000; stroke-linejoin: miter; stroke-linecap: square"/>
   </g>
   <g id="patch_4">
    <path d="M 202.296875 173.997812 
L 202.296875 20.357813 
" style="fill: none; stroke: #000000; stroke-linejoin: miter; stroke-linecap: square"/>
   </g>
   <g id="patch_5">
    <path d="M 44.546875 173.997812 
L 202.296875 173.997812 
" style="fill: none; stroke: #000000; stroke-linejoin: miter; stroke-linecap: square"/>
   </g>
   <g id="patch_6">
    <path d="M 44.546875 20.357812 
L 202.296875 20.357812 
" style="fill: none; stroke: #000000; stroke-linejoin: miter; stroke-linecap: square"/>
   </g>
   <g id="text_10">
    <!-- SNPs -->
    <g transform="translate(110.360156 14.357812) scale(0.1 -0.1)">
     <defs>
      <path id="Arial-BoldMT-53" d="M 231 1491 
L 1131 1578 
Q 1213 1125 1461 912 
Q 1709 700 2131 700 
Q 2578 700 2804 889 
Q 3031 1078 3031 1331 
Q 3031 1494 2936 1608 
Q 2841 1722 2603 1806 
Q 2441 1863 1863 2006 
Q 1119 2191 819 2459 
Q 397 2838 397 3381 
Q 397 3731 595 4036 
Q 794 4341 1167 4500 
Q 1541 4659 2069 4659 
Q 2931 4659 3367 4281 
Q 3803 3903 3825 3272 
L 2900 3231 
Q 2841 3584 2645 3739 
Q 2450 3894 2059 3894 
Q 1656 3894 1428 3728 
Q 1281 3622 1281 3444 
Q 1281 3281 1419 3166 
Q 1594 3019 2269 2859 
Q 2944 2700 3267 2529 
Q 3591 2359 3773 2064 
Q 3956 1769 3956 1334 
Q 3956 941 3737 597 
Q 3519 253 3119 86 
Q 2719 -81 2122 -81 
Q 1253 -81 787 320 
Q 322 722 231 1491 
z
" transform="scale(0.015625)"/>
      <path id="Arial-BoldMT-4e" d="M 475 0 
L 475 4581 
L 1375 4581 
L 3250 1522 
L 3250 4581 
L 4109 4581 
L 4109 0 
L 3181 0 
L 1334 2988 
L 1334 0 
L 475 0 
z
" transform="scale(0.015625)"/>
      <path id="Arial-BoldMT-73" d="M 150 947 
L 1031 1081 
Q 1088 825 1259 692 
Q 1431 559 1741 559 
Q 2081 559 2253 684 
Q 2369 772 2369 919 
Q 2369 1019 2306 1084 
Q 2241 1147 2013 1200 
Q 950 1434 666 1628 
Q 272 1897 272 2375 
Q 272 2806 612 3100 
Q 953 3394 1669 3394 
Q 2350 3394 2681 3172 
Q 3013 2950 3138 2516 
L 2309 2363 
Q 2256 2556 2107 2659 
Q 1959 2763 1684 2763 
Q 1338 2763 1188 2666 
Q 1088 2597 1088 2488 
Q 1088 2394 1175 2328 
Q 1294 2241 1995 2081 
Q 2697 1922 2975 1691 
Q 3250 1456 3250 1038 
Q 3250 581 2869 253 
Q 2488 -75 1741 -75 
Q 1063 -75 667 200 
Q 272 475 150 947 
z
" transform="scale(0.015625)"/>
     </defs>
     <use xlink:href="#Arial-BoldMT-53"/>
     <use xlink:href="#Arial-BoldMT-4e" x="66.699219"/>
     <use xlink:href="#Arial-BoldMT-50" x="138.916016"/>
     <use xlink:href="#Arial-BoldMT-73" x="205.615234"/>
    </g>
   </g>
   <g id="legend_1">
    <g id="patch_7">
     <path d="M 133.290625 72.210313 
L 196.696875 72.210313 
Q 198.296875 72.210313 198.296875 70.610313 
L 198.296875 25.957812 
Q 198.296875 24.357812 196.696875 24.357812 
L 133.290625 24.357812 
Q 131.690625 24.357812 131.690625 25.957812 
L 131.690625 70.610313 
Q 131.690625 72.210313 133.290625 72.210313 
z
" style="fill: #ffffff; opacity: 0.8; stroke: #cccccc; stroke-linejoin: miter"/>
    </g>
    <g id="line2d_12">
     <defs>
      <path id="m75e2901646" d="M 0 3 
C 0.795609 3 1.55874 2.683901 2.12132 2.12132 
C 2.683901 1.55874 3 0.795609 3 0 
C 3 -0.795609 2.683901 -1.55874 2.12132 -2.12132 
C 1.55874 -2.683901 0.795609 -3 0 -3 
C -0.795609 -3 -1.55874 -2.683901 -2.12132 -2.12132 
C -2.683901 -1.55874 -3 -0.795609 -3 0 
C -3 0.795609 -2.683901 1.55874 -2.12132 2.12132 
C -1.55874 2.683901 -0.795609 3 0 3 
z
" style="stroke: #ffffff; stroke-width: 0.48"/>
     </defs>
     <g>
      <use xlink:href="#m75e2901646" x="142.890625" y="30.484063" style="fill: #1b9e77; stroke: #ffffff; stroke-width: 0.48"/>
     </g>
    </g>
    <g id="text_11">
     <!-- Wild-type -->
     <g transform="translate(157.290625 33.284063) scale(0.08 -0.08)">
      <defs>
       <path id="ArialMT-57" d="M 1294 0 
L 78 4581 
L 700 4581 
L 1397 1578 
Q 1509 1106 1591 641 
Q 1766 1375 1797 1488 
L 2669 4581 
L 3400 4581 
L 4056 2263 
Q 4303 1400 4413 641 
Q 4500 1075 4641 1638 
L 5359 4581 
L 5969 4581 
L 4713 0 
L 4128 0 
L 3163 3491 
Q 3041 3928 3019 4028 
Q 2947 3713 2884 3491 
L 1913 0 
L 1294 0 
z
" transform="scale(0.015625)"/>
       <path id="ArialMT-69" d="M 425 3934 
L 425 4581 
L 988 4581 
L 988 3934 
L 425 3934 
z
M 425 0 
L 425 3319 
L 988 3319 
L 988 0 
L 425 0 
z
" transform="scale(0.015625)"/>
       <path id="ArialMT-6c" d="M 409 0 
L 409 4581 
L 972 4581 
L 972 0 
L 409 0 
z
" transform="scale(0.015625)"/>
       <path id="ArialMT-64" d="M 2575 0 
L 2575 419 
Q 2259 -75 1647 -75 
Q 1250 -75 917 144 
Q 584 363 401 755 
Q 219 1147 219 1656 
Q 219 2153 384 2558 
Q 550 2963 881 3178 
Q 1213 3394 1622 3394 
Q 1922 3394 2156 3267 
Q 2391 3141 2538 2938 
L 2538 4581 
L 3097 4581 
L 3097 0 
L 2575 0 
z
M 797 1656 
Q 797 1019 1065 703 
Q 1334 388 1700 388 
Q 2069 388 2326 689 
Q 2584 991 2584 1609 
Q 2584 2291 2321 2609 
Q 2059 2928 1675 2928 
Q 1300 2928 1048 2622 
Q 797 2316 797 1656 
z
" transform="scale(0.015625)"/>
       <path id="ArialMT-2d" d="M 203 1375 
L 203 1941 
L 1931 1941 
L 1931 1375 
L 203 1375 
z
" transform="scale(0.015625)"/>
       <path id="ArialMT-74" d="M 1650 503 
L 1731 6 
Q 1494 -44 1306 -44 
Q 1000 -44 831 53 
Q 663 150 594 308 
Q 525 466 525 972 
L 525 2881 
L 113 2881 
L 113 3319 
L 525 3319 
L 525 4141 
L 1084 4478 
L 1084 3319 
L 1650 3319 
L 1650 2881 
L 1084 2881 
L 1084 941 
Q 1084 700 1114 631 
Q 1144 563 1211 522 
Q 1278 481 1403 481 
Q 1497 481 1650 503 
z
" transform="scale(0.015625)"/>
       <path id="ArialMT-79" d="M 397 -1278 
L 334 -750 
Q 519 -800 656 -800 
Q 844 -800 956 -737 
Q 1069 -675 1141 -563 
Q 1194 -478 1313 -144 
Q 1328 -97 1363 -6 
L 103 3319 
L 709 3319 
L 1400 1397 
Q 1534 1031 1641 628 
Q 1738 1016 1872 1384 
L 2581 3319 
L 3144 3319 
L 1881 -56 
Q 1678 -603 1566 -809 
Q 1416 -1088 1222 -1217 
Q 1028 -1347 759 -1347 
Q 597 -1347 397 -1278 
z
" transform="scale(0.015625)"/>
       <path id="ArialMT-70" d="M 422 -1272 
L 422 3319 
L 934 3319 
L 934 2888 
Q 1116 3141 1344 3267 
Q 1572 3394 1897 3394 
Q 2322 3394 2647 3175 
Q 2972 2956 3137 2557 
Q 3303 2159 3303 1684 
Q 3303 1175 3120 767 
Q 2938 359 2589 142 
Q 2241 -75 1856 -75 
Q 1575 -75 1351 44 
Q 1128 163 984 344 
L 984 -1272 
L 422 -1272 
z
M 931 1641 
Q 931 1000 1190 694 
Q 1450 388 1819 388 
Q 2194 388 2461 705 
Q 2728 1022 2728 1688 
Q 2728 2322 2467 2637 
Q 2206 2953 1844 2953 
Q 1484 2953 1207 2617 
Q 931 2281 931 1641 
z
" transform="scale(0.015625)"/>
       <path id="ArialMT-65" d="M 2694 1069 
L 3275 997 
Q 3138 488 2766 206 
Q 2394 -75 1816 -75 
Q 1088 -75 661 373 
Q 234 822 234 1631 
Q 234 2469 665 2931 
Q 1097 3394 1784 3394 
Q 2450 3394 2872 2941 
Q 3294 2488 3294 1666 
Q 3294 1616 3291 1516 
L 816 1516 
Q 847 969 1125 678 
Q 1403 388 1819 388 
Q 2128 388 2347 550 
Q 2566 713 2694 1069 
z
M 847 1978 
L 2700 1978 
Q 2663 2397 2488 2606 
Q 2219 2931 1791 2931 
Q 1403 2931 1139 2672 
Q 875 2413 847 1978 
z
" transform="scale(0.015625)"/>
      </defs>
      <use xlink:href="#ArialMT-57"/>
      <use xlink:href="#ArialMT-69" x="94.384766"/>
      <use xlink:href="#ArialMT-6c" x="116.601562"/>
      <use xlink:href="#ArialMT-64" x="138.818359"/>
      <use xlink:href="#ArialMT-2d" x="194.433594"/>
      <use xlink:href="#ArialMT-74" x="227.734375"/>
      <use xlink:href="#ArialMT-79" x="255.517578"/>
      <use xlink:href="#ArialMT-70" x="305.517578"/>
      <use xlink:href="#ArialMT-65" x="361.132812"/>
     </g>
    </g>
    <g id="line2d_13">
     <defs>
      <path id="m59396366d0" d="M 0 3 
C 0.795609 3 1.55874 2.683901 2.12132 2.12132 
C 2.683901 1.55874 3 0.795609 3 0 
C 3 -0.795609 2.683901 -1.55874 2.12132 -2.12132 
C 1.55874 -2.683901 0.795609 -3 0 -3 
C -0.795609 -3 -1.55874 -2.683901 -2.12132 -2.12132 
C -2.683901 -1.55874 -3 -0.795609 -3 0 
C -3 0.795609 -2.683901 1.55874 -2.12132 2.12132 
C -1.55874 2.683901 -0.795609 3 0 3 
z
" style="stroke: #ffffff; stroke-width: 0.48"/>
     </defs>
     <g>
      <use xlink:href="#m59396366d0" x="142.890625" y="41.894063" style="fill: #d95f02; stroke: #ffffff; stroke-width: 0.48"/>
     </g>
    </g>
    <g id="text_12">
     <!-- Bioethanol -->
     <g transform="translate(157.290625 44.694063) scale(0.08 -0.08)">
      <defs>
       <path id="ArialMT-42" d="M 469 0 
L 469 4581 
L 2188 4581 
Q 2713 4581 3030 4442 
Q 3347 4303 3526 4014 
Q 3706 3725 3706 3409 
Q 3706 3116 3547 2856 
Q 3388 2597 3066 2438 
Q 3481 2316 3704 2022 
Q 3928 1728 3928 1328 
Q 3928 1006 3792 729 
Q 3656 453 3456 303 
Q 3256 153 2954 76 
Q 2653 0 2216 0 
L 469 0 
z
M 1075 2656 
L 2066 2656 
Q 2469 2656 2644 2709 
Q 2875 2778 2992 2937 
Q 3109 3097 3109 3338 
Q 3109 3566 3000 3739 
Q 2891 3913 2687 3977 
Q 2484 4041 1991 4041 
L 1075 4041 
L 1075 2656 
z
M 1075 541 
L 2216 541 
Q 2509 541 2628 563 
Q 2838 600 2978 687 
Q 3119 775 3209 942 
Q 3300 1109 3300 1328 
Q 3300 1584 3169 1773 
Q 3038 1963 2805 2039 
Q 2572 2116 2134 2116 
L 1075 2116 
L 1075 541 
z
" transform="scale(0.015625)"/>
       <path id="ArialMT-6f" d="M 213 1659 
Q 213 2581 725 3025 
Q 1153 3394 1769 3394 
Q 2453 3394 2887 2945 
Q 3322 2497 3322 1706 
Q 3322 1066 3130 698 
Q 2938 331 2570 128 
Q 2203 -75 1769 -75 
Q 1072 -75 642 372 
Q 213 819 213 1659 
z
M 791 1659 
Q 791 1022 1069 705 
Q 1347 388 1769 388 
Q 2188 388 2466 706 
Q 2744 1025 2744 1678 
Q 2744 2294 2464 2611 
Q 2184 2928 1769 2928 
Q 1347 2928 1069 2612 
Q 791 2297 791 1659 
z
" transform="scale(0.015625)"/>
       <path id="ArialMT-68" d="M 422 0 
L 422 4581 
L 984 4581 
L 984 2938 
Q 1378 3394 1978 3394 
Q 2347 3394 2619 3248 
Q 2891 3103 3008 2847 
Q 3125 2591 3125 2103 
L 3125 0 
L 2563 0 
L 2563 2103 
Q 2563 2525 2380 2717 
Q 2197 2909 1863 2909 
Q 1613 2909 1392 2779 
Q 1172 2650 1078 2428 
Q 984 2206 984 1816 
L 984 0 
L 422 0 
z
" transform="scale(0.015625)"/>
       <path id="ArialMT-61" d="M 2588 409 
Q 2275 144 1986 34 
Q 1697 -75 1366 -75 
Q 819 -75 525 192 
Q 231 459 231 875 
Q 231 1119 342 1320 
Q 453 1522 633 1644 
Q 813 1766 1038 1828 
Q 1203 1872 1538 1913 
Q 2219 1994 2541 2106 
Q 2544 2222 2544 2253 
Q 2544 2597 2384 2738 
Q 2169 2928 1744 2928 
Q 1347 2928 1158 2789 
Q 969 2650 878 2297 
L 328 2372 
Q 403 2725 575 2942 
Q 747 3159 1072 3276 
Q 1397 3394 1825 3394 
Q 2250 3394 2515 3294 
Q 2781 3194 2906 3042 
Q 3031 2891 3081 2659 
Q 3109 2516 3109 2141 
L 3109 1391 
Q 3109 606 3145 398 
Q 3181 191 3288 0 
L 2700 0 
Q 2613 175 2588 409 
z
M 2541 1666 
Q 2234 1541 1622 1453 
Q 1275 1403 1131 1340 
Q 988 1278 909 1158 
Q 831 1038 831 891 
Q 831 666 1001 516 
Q 1172 366 1500 366 
Q 1825 366 2078 508 
Q 2331 650 2450 897 
Q 2541 1088 2541 1459 
L 2541 1666 
z
" transform="scale(0.015625)"/>
       <path id="ArialMT-6e" d="M 422 0 
L 422 3319 
L 928 3319 
L 928 2847 
Q 1294 3394 1984 3394 
Q 2284 3394 2536 3286 
Q 2788 3178 2913 3003 
Q 3038 2828 3088 2588 
Q 3119 2431 3119 2041 
L 3119 0 
L 2556 0 
L 2556 2019 
Q 2556 2363 2490 2533 
Q 2425 2703 2258 2804 
Q 2091 2906 1866 2906 
Q 1506 2906 1245 2678 
Q 984 2450 984 1813 
L 984 0 
L 422 0 
z
" transform="scale(0.015625)"/>
      </defs>
      <use xlink:href="#ArialMT-42"/>
      <use xlink:href="#ArialMT-69" x="66.699219"/>
      <use xlink:href="#ArialMT-6f" x="88.916016"/>
      <use xlink:href="#ArialMT-65" x="144.53125"/>
      <use xlink:href="#ArialMT-74" x="200.146484"/>
      <use xlink:href="#ArialMT-68" x="227.929688"/>
      <use xlink:href="#ArialMT-61" x="283.544922"/>
      <use xlink:href="#ArialMT-6e" x="339.160156"/>
      <use xlink:href="#ArialMT-6f" x="394.775391"/>
      <use xlink:href="#ArialMT-6c" x="450.390625"/>
     </g>
    </g>
    <g id="line2d_14">
     <defs>
      <path id="m581fbd1d62" d="M 0 3 
C 0.795609 3 1.55874 2.683901 2.12132 2.12132 
C 2.683901 1.55874 3 0.795609 3 0 
C 3 -0.795609 2.683901 -1.55874 2.12132 -2.12132 
C 1.55874 -2.683901 0.795609 -3 0 -3 
C -0.795609 -3 -1.55874 -2.683901 -2.12132 -2.12132 
C -2.683901 -1.55874 -3 -0.795609 -3 0 
C -3 0.795609 -2.683901 1.55874 -2.12132 2.12132 
C -1.55874 2.683901 -0.795609 3 0 3 
z
" style="stroke: #ffffff; stroke-width: 0.48"/>
     </defs>
     <g>
      <use xlink:href="#m581fbd1d62" x="142.890625" y="53.210313" style="fill: #7570b3; stroke: #ffffff; stroke-width: 0.48"/>
     </g>
    </g>
    <g id="text_13">
     <!-- Human -->
     <g transform="translate(157.290625 56.010312) scale(0.08 -0.08)">
      <defs>
       <path id="ArialMT-48" d="M 513 0 
L 513 4581 
L 1119 4581 
L 1119 2700 
L 3500 2700 
L 3500 4581 
L 4106 4581 
L 4106 0 
L 3500 0 
L 3500 2159 
L 1119 2159 
L 1119 0 
L 513 0 
z
" transform="scale(0.015625)"/>
       <path id="ArialMT-75" d="M 2597 0 
L 2597 488 
Q 2209 -75 1544 -75 
Q 1250 -75 995 37 
Q 741 150 617 320 
Q 494 491 444 738 
Q 409 903 409 1263 
L 409 3319 
L 972 3319 
L 972 1478 
Q 972 1038 1006 884 
Q 1059 663 1231 536 
Q 1403 409 1656 409 
Q 1909 409 2131 539 
Q 2353 669 2445 892 
Q 2538 1116 2538 1541 
L 2538 3319 
L 3100 3319 
L 3100 0 
L 2597 0 
z
" transform="scale(0.015625)"/>
       <path id="ArialMT-6d" d="M 422 0 
L 422 3319 
L 925 3319 
L 925 2853 
Q 1081 3097 1340 3245 
Q 1600 3394 1931 3394 
Q 2300 3394 2536 3241 
Q 2772 3088 2869 2813 
Q 3263 3394 3894 3394 
Q 4388 3394 4653 3120 
Q 4919 2847 4919 2278 
L 4919 0 
L 4359 0 
L 4359 2091 
Q 4359 2428 4304 2576 
Q 4250 2725 4106 2815 
Q 3963 2906 3769 2906 
Q 3419 2906 3187 2673 
Q 2956 2441 2956 1928 
L 2956 0 
L 2394 0 
L 2394 2156 
Q 2394 2531 2256 2718 
Q 2119 2906 1806 2906 
Q 1569 2906 1367 2781 
Q 1166 2656 1075 2415 
Q 984 2175 984 1722 
L 984 0 
L 422 0 
z
" transform="scale(0.015625)"/>
      </defs>
      <use xlink:href="#ArialMT-48"/>
      <use xlink:href="#ArialMT-75" x="72.216797"/>
      <use xlink:href="#ArialMT-6d" x="127.832031"/>
      <use xlink:href="#ArialMT-61" x="211.132812"/>
      <use xlink:href="#ArialMT-6e" x="266.748047"/>
     </g>
    </g>
    <g id="line2d_15">
     <defs>
      <path id="m3bbf1104fc" d="M 0 3 
C 0.795609 3 1.55874 2.683901 2.12132 2.12132 
C 2.683901 1.55874 3 0.795609 3 0 
C 3 -0.795609 2.683901 -1.55874 2.12132 -2.12132 
C 1.55874 -2.683901 0.795609 -3 0 -3 
C -0.795609 -3 -1.55874 -2.683901 -2.12132 -2.12132 
C -2.683901 -1.55874 -3 -0.795609 -3 0 
C -3 0.795609 -2.683901 1.55874 -2.12132 2.12132 
C -1.55874 2.683901 -0.795609 3 0 3 
z
" style="stroke: #ffffff; stroke-width: 0.48"/>
     </defs>
     <g>
      <use xlink:href="#m3bbf1104fc" x="142.890625" y="64.526563" style="fill: #e7298a; stroke: #ffffff; stroke-width: 0.48"/>
     </g>
    </g>
    <g id="text_14">
     <!-- Dairy -->
     <g transform="translate(157.290625 67.326563) scale(0.08 -0.08)">
      <defs>
       <path id="ArialMT-44" d="M 494 0 
L 494 4581 
L 2072 4581 
Q 2606 4581 2888 4516 
Q 3281 4425 3559 4188 
Q 3922 3881 4101 3404 
Q 4281 2928 4281 2316 
Q 4281 1794 4159 1391 
Q 4038 988 3847 723 
Q 3656 459 3429 307 
Q 3203 156 2883 78 
Q 2563 0 2147 0 
L 494 0 
z
M 1100 541 
L 2078 541 
Q 2531 541 2789 625 
Q 3047 709 3200 863 
Q 3416 1078 3536 1442 
Q 3656 1806 3656 2325 
Q 3656 3044 3420 3430 
Q 3184 3816 2847 3947 
Q 2603 4041 2063 4041 
L 1100 4041 
L 1100 541 
z
" transform="scale(0.015625)"/>
       <path id="ArialMT-72" d="M 416 0 
L 416 3319 
L 922 3319 
L 922 2816 
Q 1116 3169 1280 3281 
Q 1444 3394 1641 3394 
Q 1925 3394 2219 3213 
L 2025 2691 
Q 1819 2813 1613 2813 
Q 1428 2813 1281 2702 
Q 1134 2591 1072 2394 
Q 978 2094 978 1738 
L 978 0 
L 416 0 
z
" transform="scale(0.015625)"/>
      </defs>
      <use xlink:href="#ArialMT-44"/>
      <use xlink:href="#ArialMT-61" x="72.216797"/>
      <use xlink:href="#ArialMT-69" x="127.832031"/>
      <use xlink:href="#ArialMT-72" x="150.048828"/>
      <use xlink:href="#ArialMT-79" x="183.349609"/>
     </g>
    </g>
   </g>
  </g>
 </g>
 <defs>
  <clipPath id="p9aefbd52a2">
   <rect x="44.546875" y="20.357812" width="157.75" height="153.64"/>
  </clipPath>
 </defs>
</svg>
