<?xml version="1.0" encoding="utf-8" standalone="no"?>
<!DOCTYPE svg PUBLIC "-//W3C//DTD SVG 1.1//EN"
  "http://www.w3.org/Graphics/SVG/1.1/DTD/svg11.dtd">
<svg xmlns:xlink="http://www.w3.org/1999/xlink" width="334.947812pt" height="224.863438pt" viewBox="0 0 334.947812 224.863438" xmlns="http://www.w3.org/2000/svg" version="1.1">
 <metadata>
  <rdf:RDF xmlns:dc="http://purl.org/dc/elements/1.1/" xmlns:cc="http://creativecommons.org/ns#" xmlns:rdf="http://www.w3.org/1999/02/22-rdf-syntax-ns#">
   <cc:Work>
    <dc:type rdf:resource="http://purl.org/dc/dcmitype/StillImage"/>
    <dc:date>2024-10-15T20:54:51.685188</dc:date>
    <dc:format>image/svg+xml</dc:format>
    <dc:creator>
     <cc:Agent>
      <dc:title>Matplotlib v3.8.4, https://matplotlib.org/</dc:title>
     </cc:Agent>
    </dc:creator>
   </cc:Work>
  </rdf:RDF>
 </metadata>
 <defs>
  <style type="text/css">*{stroke-linejoin: round; stroke-linecap: butt}</style>
 </defs>
 <g id="figure_1">
  <g id="patch_1">
   <path d="M 0 224.863438 
L 334.947812 224.863438 
L 334.947812 0 
L 0 0 
L 0 224.863438 
z
" style="fill: none"/>
  </g>
  <g id="axes_1">
   <g id="patch_2">
    <path d="M 38.584375 188.255625 
L 317.584375 188.255625 
L 317.584375 21.935625 
L 38.584375 21.935625 
L 38.584375 188.255625 
z
" style="fill: none"/>
   </g>
   <g id="PolyCollection_1">
    <defs>
     <path id="mf2f0ac8099" d="M 93.526066 -36.786287 
L 93.526066 -36.607813 
L 93.822698 -36.607813 
L 94.119329 -36.607813 
L 94.415961 -36.607813 
L 94.712593 -36.607813 
L 95.009225 -36.607813 
L 95.305857 -36.607813 
L 95.602489 -36.607813 
L 95.89912 -36.607813 
L 96.195752 -36.607813 
L 96.492384 -36.607813 
L 96.789016 -36.607813 
L 97.085648 -36.607813 
L 97.38228 -36.607813 
L 97.678911 -36.607813 
L 97.975543 -36.607813 
L 98.272175 -36.607813 
L 98.568807 -36.607813 
L 98.865439 -36.607813 
L 99.162071 -36.607813 
L 99.458702 -36.607813 
L 99.755334 -36.607813 
L 100.051966 -36.607813 
L 100.348598 -36.607813 
L 100.64523 -36.607813 
L 100.941862 -36.607813 
L 101.238493 -36.607813 
L 101.535125 -36.607813 
L 101.831757 -36.607813 
L 102.128389 -36.607813 
L 102.425021 -36.607813 
L 102.721653 -36.607813 
L 103.018284 -36.607813 
L 103.314916 -36.607813 
L 103.611548 -36.607813 
L 103.90818 -36.607813 
L 104.204812 -36.607813 
L 104.501443 -36.607813 
L 104.798075 -36.607813 
L 105.094707 -36.607813 
L 105.391339 -36.607813 
L 105.687971 -36.607813 
L 105.984603 -36.607813 
L 106.281234 -36.607813 
L 106.577866 -36.607813 
L 106.874498 -36.607813 
L 107.17113 -36.607813 
L 107.467762 -36.607813 
L 107.764394 -36.607813 
L 108.061025 -36.607813 
L 108.357657 -36.607813 
L 108.654289 -36.607813 
L 108.950921 -36.607813 
L 109.247553 -36.607813 
L 109.544185 -36.607813 
L 109.840816 -36.607813 
L 110.137448 -36.607813 
L 110.43408 -36.607813 
L 110.730712 -36.607813 
L 111.027344 -36.607813 
L 111.323976 -36.607813 
L 111.620607 -36.607813 
L 111.917239 -36.607813 
L 112.213871 -36.607813 
L 112.510503 -36.607813 
L 112.807135 -36.607813 
L 113.103767 -36.607813 
L 113.400398 -36.607813 
L 113.69703 -36.607813 
L 113.993662 -36.607813 
L 114.290294 -36.607813 
L 114.586926 -36.607813 
L 114.883558 -36.607813 
L 115.180189 -36.607813 
L 115.476821 -36.607813 
L 115.773453 -36.607813 
L 116.070085 -36.607813 
L 116.366717 -36.607813 
L 116.663348 -36.607813 
L 116.95998 -36.607813 
L 117.256612 -36.607813 
L 117.553244 -36.607813 
L 117.849876 -36.607813 
L 118.146508 -36.607813 
L 118.443139 -36.607813 
L 118.739771 -36.607813 
L 119.036403 -36.607813 
L 119.333035 -36.607813 
L 119.629667 -36.607813 
L 119.926299 -36.607813 
L 120.22293 -36.607813 
L 120.519562 -36.607813 
L 120.816194 -36.607813 
L 121.112826 -36.607813 
L 121.409458 -36.607813 
L 121.70609 -36.607813 
L 122.002721 -36.607813 
L 122.299353 -36.607813 
L 122.595985 -36.607813 
L 122.892617 -36.607813 
L 123.189249 -36.607813 
L 123.485881 -36.607813 
L 123.782512 -36.607813 
L 124.079144 -36.607813 
L 124.375776 -36.607813 
L 124.672408 -36.607813 
L 124.96904 -36.607813 
L 125.265672 -36.607813 
L 125.562303 -36.607813 
L 125.858935 -36.607813 
L 126.155567 -36.607813 
L 126.452199 -36.607813 
L 126.748831 -36.607813 
L 127.045463 -36.607813 
L 127.342094 -36.607813 
L 127.638726 -36.607813 
L 127.935358 -36.607813 
L 128.23199 -36.607813 
L 128.528622 -36.607813 
L 128.825254 -36.607813 
L 129.121885 -36.607813 
L 129.418517 -36.607813 
L 129.715149 -36.607813 
L 130.011781 -36.607813 
L 130.308413 -36.607813 
L 130.605044 -36.607813 
L 130.901676 -36.607813 
L 131.198308 -36.607813 
L 131.49494 -36.607813 
L 131.791572 -36.607813 
L 132.088204 -36.607813 
L 132.384835 -36.607813 
L 132.681467 -36.607813 
L 132.978099 -36.607813 
L 133.274731 -36.607813 
L 133.571363 -36.607813 
L 133.867995 -36.607813 
L 134.164626 -36.607813 
L 134.461258 -36.607813 
L 134.75789 -36.607813 
L 135.054522 -36.607813 
L 135.351154 -36.607813 
L 135.647786 -36.607813 
L 135.944417 -36.607813 
L 136.241049 -36.607813 
L 136.537681 -36.607813 
L 136.834313 -36.607813 
L 137.130945 -36.607813 
L 137.427577 -36.607813 
L 137.724208 -36.607813 
L 138.02084 -36.607813 
L 138.317472 -36.607813 
L 138.614104 -36.607813 
L 138.910736 -36.607813 
L 139.207368 -36.607813 
L 139.503999 -36.607813 
L 139.800631 -36.607813 
L 140.097263 -36.607813 
L 140.393895 -36.607813 
L 140.690527 -36.607813 
L 140.987159 -36.607813 
L 141.28379 -36.607813 
L 141.580422 -36.607813 
L 141.877054 -36.607813 
L 142.173686 -36.607813 
L 142.470318 -36.607813 
L 142.766949 -36.607813 
L 143.063581 -36.607813 
L 143.360213 -36.607813 
L 143.656845 -36.607813 
L 143.953477 -36.607813 
L 144.250109 -36.607813 
L 144.54674 -36.607813 
L 144.843372 -36.607813 
L 145.140004 -36.607813 
L 145.436636 -36.607813 
L 145.733268 -36.607813 
L 146.0299 -36.607813 
L 146.326531 -36.607813 
L 146.623163 -36.607813 
L 146.919795 -36.607813 
L 147.216427 -36.607813 
L 147.513059 -36.607813 
L 147.809691 -36.607813 
L 148.106322 -36.607813 
L 148.402954 -36.607813 
L 148.699586 -36.607813 
L 148.996218 -36.607813 
L 149.29285 -36.607813 
L 149.589482 -36.607813 
L 149.886113 -36.607813 
L 150.182745 -36.607813 
L 150.479377 -36.607813 
L 150.776009 -36.607813 
L 151.072641 -36.607813 
L 151.369273 -36.607813 
L 151.665904 -36.607813 
L 151.962536 -36.607813 
L 152.259168 -36.607813 
L 152.5558 -36.607813 
L 152.5558 -36.609703 
L 152.5558 -36.609703 
L 152.259168 -36.632582 
L 151.962536 -36.718597 
L 151.665904 -36.776931 
L 151.369273 -36.695929 
L 151.072641 -36.623483 
L 150.776009 -36.608764 
L 150.479377 -36.607832 
L 150.182745 -36.607813 
L 149.886113 -36.607813 
L 149.589482 -36.607813 
L 149.29285 -36.607813 
L 148.996218 -36.607813 
L 148.699586 -36.607813 
L 148.402954 -36.607813 
L 148.106322 -36.607813 
L 147.809691 -36.607813 
L 147.513059 -36.607813 
L 147.216427 -36.607813 
L 146.919795 -36.607813 
L 146.623163 -36.607813 
L 146.326531 -36.607813 
L 146.0299 -36.607813 
L 145.733268 -36.607813 
L 145.436636 -36.607813 
L 145.140004 -36.607813 
L 144.843372 -36.607813 
L 144.54674 -36.607813 
L 144.250109 -36.607813 
L 143.953477 -36.607813 
L 143.656845 -36.607813 
L 143.360213 -36.607813 
L 143.063581 -36.607813 
L 142.766949 -36.607813 
L 142.470318 -36.607813 
L 142.173686 -36.607813 
L 141.877054 -36.607813 
L 141.580422 -36.607813 
L 141.28379 -36.607813 
L 140.987159 -36.607813 
L 140.690527 -36.607813 
L 140.393895 -36.607813 
L 140.097263 -36.607813 
L 139.800631 -36.607813 
L 139.503999 -36.607813 
L 139.207368 -36.607813 
L 138.910736 -36.607813 
L 138.614104 -36.607813 
L 138.317472 -36.607813 
L 138.02084 -36.607813 
L 137.724208 -36.607813 
L 137.427577 -36.607813 
L 137.130945 -36.607813 
L 136.834313 -36.607813 
L 136.537681 -36.607813 
L 136.241049 -36.607813 
L 135.944417 -36.607813 
L 135.647786 -36.607813 
L 135.351154 -36.607813 
L 135.054522 -36.607813 
L 134.75789 -36.607813 
L 134.461258 -36.607813 
L 134.164626 -36.607813 
L 133.867995 -36.607813 
L 133.571363 -36.607813 
L 133.274731 -36.607813 
L 132.978099 -36.607813 
L 132.681467 -36.607813 
L 132.384835 -36.607813 
L 132.088204 -36.607813 
L 131.791572 -36.607813 
L 131.49494 -36.607813 
L 131.198308 -36.607813 
L 130.901676 -36.607813 
L 130.605044 -36.607813 
L 130.308413 -36.607813 
L 130.011781 -36.607813 
L 129.715149 -36.607813 
L 129.418517 -36.607813 
L 129.121885 -36.607813 
L 128.825254 -36.607813 
L 128.528622 -36.607813 
L 128.23199 -36.607813 
L 127.935358 -36.607813 
L 127.638726 -36.607813 
L 127.342094 -36.607813 
L 127.045463 -36.607813 
L 126.748831 -36.607813 
L 126.452199 -36.607813 
L 126.155567 -36.607813 
L 125.858935 -36.607813 
L 125.562303 -36.607813 
L 125.265672 -36.607813 
L 124.96904 -36.607813 
L 124.672408 -36.607813 
L 124.375776 -36.607813 
L 124.079144 -36.607813 
L 123.782512 -36.607813 
L 123.485881 -36.607813 
L 123.189249 -36.607813 
L 122.892617 -36.607813 
L 122.595985 -36.607813 
L 122.299353 -36.607813 
L 122.002721 -36.607813 
L 121.70609 -36.607813 
L 121.409458 -36.607813 
L 121.112826 -36.607813 
L 120.816194 -36.607813 
L 120.519562 -36.607813 
L 120.22293 -36.607813 
L 119.926299 -36.607813 
L 119.629667 -36.607813 
L 119.333035 -36.607813 
L 119.036403 -36.607813 
L 118.739771 -36.607813 
L 118.443139 -36.607813 
L 118.146508 -36.607813 
L 117.849876 -36.607813 
L 117.553244 -36.607813 
L 117.256612 -36.607813 
L 116.95998 -36.607813 
L 116.663348 -36.607813 
L 116.366717 -36.607813 
L 116.070085 -36.607813 
L 115.773453 -36.607813 
L 115.476821 -36.607813 
L 115.180189 -36.607813 
L 114.883558 -36.607813 
L 114.586926 -36.607813 
L 114.290294 -36.607813 
L 113.993662 -36.607813 
L 113.69703 -36.607813 
L 113.400398 -36.607813 
L 113.103767 -36.607813 
L 112.807135 -36.607813 
L 112.510503 -36.607813 
L 112.213871 -36.607813 
L 111.917239 -36.607813 
L 111.620607 -36.607813 
L 111.323976 -36.607813 
L 111.027344 -36.607813 
L 110.730712 -36.607813 
L 110.43408 -36.607813 
L 110.137448 -36.607813 
L 109.840816 -36.607813 
L 109.544185 -36.607813 
L 109.247553 -36.607813 
L 108.950921 -36.607813 
L 108.654289 -36.607813 
L 108.357657 -36.607813 
L 108.061025 -36.607813 
L 107.764394 -36.607813 
L 107.467762 -36.607813 
L 107.17113 -36.607813 
L 106.874498 -36.607813 
L 106.577866 -36.607813 
L 106.281234 -36.607813 
L 105.984603 -36.607813 
L 105.687971 -36.607813 
L 105.391339 -36.607813 
L 105.094707 -36.607813 
L 104.798075 -36.607813 
L 104.501443 -36.607813 
L 104.204812 -36.607813 
L 103.90818 -36.607813 
L 103.611548 -36.607813 
L 103.314916 -36.607813 
L 103.018284 -36.607813 
L 102.721653 -36.607817 
L 102.425021 -36.608097 
L 102.128389 -36.614583 
L 101.831757 -36.662844 
L 101.535125 -36.760478 
L 101.238493 -36.752405 
L 100.941862 -36.656324 
L 100.64523 -36.640978 
L 100.348598 -36.77655 
L 100.051966 -37.023899 
L 99.755334 -37.066607 
L 99.458702 -37.165876 
L 99.162071 -38.250979 
L 98.865439 -39.660806 
L 98.568807 -40.624974 
L 98.272175 -42.817182 
L 97.975543 -47.021719 
L 97.678911 -53.931422 
L 97.38228 -63.917557 
L 97.085648 -74.197052 
L 96.789016 -85.853518 
L 96.492384 -103.379764 
L 96.195752 -127.619882 
L 95.89912 -154.148697 
L 95.602489 -177.281075 
L 95.305857 -193.221956 
L 95.009225 -195.007813 
L 94.712593 -170.353881 
L 94.415961 -112.909781 
L 94.119329 -60.025641 
L 93.822698 -39.84186 
L 93.526066 -36.786287 
z
" style="stroke: #1b9e77; stroke-width: 1.5"/>
    </defs>
    <g clip-path="url(#pdd830dfddc)">
     <use xlink:href="#mf2f0ac8099" x="0" y="224.863438" style="fill: #1b9e77; fill-opacity: 0.25; stroke: #1b9e77; stroke-width: 1.5"/>
    </g>
   </g>
   <g id="PolyCollection_2">
    <path d="M 82.449245 188.087909 
L 82.449245 188.255625 
L 85.207347 188.255625 
L 87.965448 188.255625 
L 90.72355 188.255625 
L 93.481652 188.255625 
L 96.239753 188.255625 
L 98.997855 188.255625 
L 101.755957 188.255625 
L 104.514059 188.255625 
L 107.27216 188.255625 
L 110.030262 188.255625 
L 112.788364 188.255625 
L 115.546466 188.255625 
L 118.304567 188.255625 
L 121.062669 188.255625 
L 123.820771 188.255625 
L 126.578873 188.255625 
L 129.336974 188.255625 
L 132.095076 188.255625 
L 134.853178 188.255625 
L 137.61128 188.255625 
L 140.369381 188.255625 
L 143.127483 188.255625 
L 145.885585 188.255625 
L 148.643687 188.255625 
L 151.401788 188.255625 
L 154.15989 188.255625 
L 156.917992 188.255625 
L 159.676094 188.255625 
L 162.434195 188.255625 
L 165.192297 188.255625 
L 167.950399 188.255625 
L 170.708501 188.255625 
L 173.466602 188.255625 
L 176.224704 188.255625 
L 178.982806 188.255625 
L 181.740908 188.255625 
L 184.499009 188.255625 
L 187.257111 188.255625 
L 190.015213 188.255625 
L 192.773315 188.255625 
L 195.531416 188.255625 
L 198.289518 188.255625 
L 201.04762 188.255625 
L 203.805722 188.255625 
L 206.563823 188.255625 
L 209.321925 188.255625 
L 212.080027 188.255625 
L 214.838128 188.255625 
L 217.59623 188.255625 
L 220.354332 188.255625 
L 223.112434 188.255625 
L 225.870535 188.255625 
L 228.628637 188.255625 
L 231.386739 188.255625 
L 234.144841 188.255625 
L 236.902942 188.255625 
L 239.661044 188.255625 
L 242.419146 188.255625 
L 245.177248 188.255625 
L 247.935349 188.255625 
L 250.693451 188.255625 
L 253.451553 188.255625 
L 256.209655 188.255625 
L 258.967756 188.255625 
L 261.725858 188.255625 
L 264.48396 188.255625 
L 267.242062 188.255625 
L 270.000163 188.255625 
L 272.758265 188.255625 
L 275.516367 188.255625 
L 278.274469 188.255625 
L 281.03257 188.255625 
L 283.790672 188.255625 
L 286.548774 188.255625 
L 289.306876 188.255625 
L 292.064977 188.255625 
L 294.823079 188.255625 
L 297.581181 188.255625 
L 300.339283 188.255625 
L 303.097384 188.255625 
L 305.855486 188.255625 
L 308.613588 188.255625 
L 311.37169 188.255625 
L 314.129791 188.255625 
L 316.887893 188.255625 
L 319.645995 188.255625 
L 322.404097 188.255625 
L 325.162198 188.255625 
L 327.9203 188.255625 
L 330.678402 188.255625 
L 333.436503 188.255625 
L 336.194605 188.255625 
L 338.952707 188.255625 
L 341.710809 188.255625 
L 344.46891 188.255625 
L 347.227012 188.255625 
L 349.985114 188.255625 
L 352.743216 188.255625 
L 355.501317 188.255625 
L 358.259419 188.255625 
L 361.017521 188.255625 
L 363.775623 188.255625 
L 366.533724 188.255625 
L 369.291826 188.255625 
L 372.049928 188.255625 
L 374.80803 188.255625 
L 377.566131 188.255625 
L 380.324233 188.255625 
L 383.082335 188.255625 
L 385.840437 188.255625 
L 388.598538 188.255625 
L 391.35664 188.255625 
L 394.114742 188.255625 
L 396.872844 188.255625 
L 399.630945 188.255625 
L 402.389047 188.255625 
L 405.147149 188.255625 
L 407.905251 188.255625 
L 410.663352 188.255625 
L 413.421454 188.255625 
L 416.179556 188.255625 
L 418.937658 188.255625 
L 421.695759 188.255625 
L 424.453861 188.255625 
L 427.211963 188.255625 
L 429.970065 188.255625 
L 432.728166 188.255625 
L 435.486268 188.255625 
L 438.24437 188.255625 
L 441.002472 188.255625 
L 443.760573 188.255625 
L 446.518675 188.255625 
L 449.276777 188.255625 
L 452.034878 188.255625 
L 454.79298 188.255625 
L 457.551082 188.255625 
L 460.309184 188.255625 
L 463.067285 188.255625 
L 465.825387 188.255625 
L 468.583489 188.255625 
L 471.341591 188.255625 
L 474.099692 188.255625 
L 476.857794 188.255625 
L 479.615896 188.255625 
L 482.373998 188.255625 
L 485.132099 188.255625 
L 487.890201 188.255625 
L 490.648303 188.255625 
L 493.406405 188.255625 
L 496.164506 188.255625 
L 498.922608 188.255625 
L 501.68071 188.255625 
L 504.438812 188.255625 
L 507.196913 188.255625 
L 509.955015 188.255625 
L 512.713117 188.255625 
L 515.471219 188.255625 
L 518.22932 188.255625 
L 520.987422 188.255625 
L 523.745524 188.255625 
L 526.503626 188.255625 
L 529.261727 188.255625 
L 532.019829 188.255625 
L 534.777931 188.255625 
L 537.536033 188.255625 
L 540.294134 188.255625 
L 543.052236 188.255625 
L 545.810338 188.255625 
L 548.56844 188.255625 
L 551.326541 188.255625 
L 554.084643 188.255625 
L 556.842745 188.255625 
L 559.600847 188.255625 
L 562.358948 188.255625 
L 565.11705 188.255625 
L 567.875152 188.255625 
L 570.633253 188.255625 
L 573.391355 188.255625 
L 576.149457 188.255625 
L 578.907559 188.255625 
L 581.66566 188.255625 
L 584.423762 188.255625 
L 587.181864 188.255625 
L 589.939966 188.255625 
L 592.698067 188.255625 
L 595.456169 188.255625 
L 598.214271 188.255625 
L 600.972373 188.255625 
L 603.730474 188.255625 
L 606.488576 188.255625 
L 609.246678 188.255625 
L 612.00478 188.255625 
L 614.762881 188.255625 
L 617.520983 188.255625 
L 620.279085 188.255625 
L 623.037187 188.255625 
L 625.795288 188.255625 
L 628.55339 188.255625 
L 631.311492 188.255625 
L 631.311492 188.255441 
L 631.311492 188.255441 
L 628.55339 188.254468 
L 625.795288 188.251122 
L 623.037187 188.244788 
L 620.279085 188.239497 
L 617.520983 188.240781 
L 614.762881 188.247177 
L 612.00478 188.252652 
L 609.246678 188.254978 
L 606.488576 188.255538 
L 603.730474 188.255618 
L 600.972373 188.255625 
L 598.214271 188.255625 
L 595.456169 188.255625 
L 592.698067 188.255625 
L 589.939966 188.255625 
L 587.181864 188.255625 
L 584.423762 188.255625 
L 581.66566 188.255625 
L 578.907559 188.255625 
L 576.149457 188.255625 
L 573.391355 188.255625 
L 570.633253 188.255625 
L 567.875152 188.255625 
L 565.11705 188.255625 
L 562.358948 188.255625 
L 559.600847 188.255625 
L 556.842745 188.255625 
L 554.084643 188.255625 
L 551.326541 188.255625 
L 548.56844 188.255625 
L 545.810338 188.255625 
L 543.052236 188.255625 
L 540.294134 188.255625 
L 537.536033 188.255625 
L 534.777931 188.255625 
L 532.019829 188.255625 
L 529.261727 188.255625 
L 526.503626 188.255625 
L 523.745524 188.255625 
L 520.987422 188.255625 
L 518.22932 188.255625 
L 515.471219 188.255625 
L 512.713117 188.255625 
L 509.955015 188.255625 
L 507.196913 188.255625 
L 504.438812 188.255625 
L 501.68071 188.255625 
L 498.922608 188.255625 
L 496.164506 188.255625 
L 493.406405 188.255625 
L 490.648303 188.255625 
L 487.890201 188.255625 
L 485.132099 188.255625 
L 482.373998 188.255625 
L 479.615896 188.255625 
L 476.857794 188.255625 
L 474.099692 188.255625 
L 471.341591 188.255625 
L 468.583489 188.255625 
L 465.825387 188.255625 
L 463.067285 188.255625 
L 460.309184 188.255625 
L 457.551082 188.255625 
L 454.79298 188.255625 
L 452.034878 188.255625 
L 449.276777 188.255625 
L 446.518675 188.255625 
L 443.760573 188.255625 
L 441.002472 188.255625 
L 438.24437 188.255625 
L 435.486268 188.255625 
L 432.728166 188.255625 
L 429.970065 188.255625 
L 427.211963 188.255625 
L 424.453861 188.255625 
L 421.695759 188.255625 
L 418.937658 188.255625 
L 416.179556 188.255625 
L 413.421454 188.255625 
L 410.663352 188.255625 
L 407.905251 188.255625 
L 405.147149 188.255625 
L 402.389047 188.255625 
L 399.630945 188.255625 
L 396.872844 188.255625 
L 394.114742 188.255625 
L 391.35664 188.255625 
L 388.598538 188.255625 
L 385.840437 188.255625 
L 383.082335 188.255625 
L 380.324233 188.255625 
L 377.566131 188.255625 
L 374.80803 188.255625 
L 372.049928 188.255625 
L 369.291826 188.255625 
L 366.533724 188.255625 
L 363.775623 188.255625 
L 361.017521 188.255625 
L 358.259419 188.255625 
L 355.501317 188.255625 
L 352.743216 188.255625 
L 349.985114 188.255625 
L 347.227012 188.255625 
L 344.46891 188.255625 
L 341.710809 188.255625 
L 338.952707 188.255625 
L 336.194605 188.255625 
L 333.436503 188.255625 
L 330.678402 188.255625 
L 327.9203 188.255625 
L 325.162198 188.255625 
L 322.404097 188.255625 
L 319.645995 188.255625 
L 316.887893 188.255625 
L 314.129791 188.255625 
L 311.37169 188.255625 
L 308.613588 188.255625 
L 305.855486 188.255625 
L 303.097384 188.255625 
L 300.339283 188.255625 
L 297.581181 188.255625 
L 294.823079 188.255625 
L 292.064977 188.255625 
L 289.306876 188.255625 
L 286.548774 188.255625 
L 283.790672 188.255624 
L 281.03257 188.255605 
L 278.274469 188.255426 
L 275.516367 188.254394 
L 272.758265 188.250923 
L 270.000163 188.244518 
L 267.242062 188.239403 
L 264.48396 188.240973 
L 261.725858 188.247442 
L 258.967756 188.252798 
L 256.209655 188.255021 
L 253.451553 188.255545 
L 250.693451 188.255618 
L 247.935349 188.255625 
L 245.177248 188.255625 
L 242.419146 188.255625 
L 239.661044 188.255625 
L 236.902942 188.255625 
L 234.144841 188.255625 
L 231.386739 188.255625 
L 228.628637 188.255624 
L 225.870535 188.255614 
L 223.112434 188.255485 
L 220.354332 188.254485 
L 217.59623 188.249771 
L 214.838128 188.236661 
L 212.080027 188.216575 
L 209.321925 188.203251 
L 206.563823 188.206373 
L 203.805722 188.216908 
L 201.04762 188.224032 
L 198.289518 188.228567 
L 195.531416 188.234385 
L 192.773315 188.239486 
L 190.015213 188.239692 
L 187.257111 188.238262 
L 184.499009 188.241593 
L 181.740908 188.248355 
L 178.982806 188.25328 
L 176.224704 188.255157 
L 173.466602 188.255564 
L 170.708501 188.255547 
L 167.950399 188.254536 
L 165.192297 188.245133 
L 162.434195 188.189407 
L 159.676094 187.981209 
L 156.917992 187.507842 
L 154.15989 186.915386 
L 151.401788 186.677213 
L 148.643687 187.035934 
L 145.885585 187.635946 
L 143.127483 188.042225 
L 140.369381 188.196242 
L 137.61128 188.23508 
L 134.853178 188.245999 
L 132.095076 188.248238 
L 129.336974 188.243729 
L 126.578873 188.237729 
L 123.820771 188.235248 
L 121.062669 188.235076 
L 118.304567 188.236249 
L 115.546466 188.24093 
L 112.788364 188.242192 
L 110.030262 188.182355 
L 107.27216 187.702388 
L 104.514059 185.370157 
L 101.755957 178.404865 
L 98.997855 166.596674 
L 96.239753 157.866154 
L 93.481652 161.202745 
L 90.72355 173.037577 
L 87.965448 182.862694 
L 85.207347 187.054659 
L 82.449245 188.087909 
z
" clip-path="url(#pdd830dfddc)" style="fill: #d95f02; fill-opacity: 0.25; stroke: #d95f02; stroke-width: 1.5"/>
   </g>
   <g id="PolyCollection_3">
    <path d="M 78.754993 188.057698 
L 78.754993 188.255625 
L 83.024728 188.255625 
L 87.294463 188.255625 
L 91.564197 188.255625 
L 95.833932 188.255625 
L 100.103667 188.255625 
L 104.373402 188.255625 
L 108.643137 188.255625 
L 112.912872 188.255625 
L 117.182607 188.255625 
L 121.452342 188.255625 
L 125.722077 188.255625 
L 129.991812 188.255625 
L 134.261547 188.255625 
L 138.531282 188.255625 
L 142.801017 188.255625 
L 147.070752 188.255625 
L 151.340487 188.255625 
L 155.610222 188.255625 
L 159.879957 188.255625 
L 164.149691 188.255625 
L 168.419426 188.255625 
L 172.689161 188.255625 
L 176.958896 188.255625 
L 181.228631 188.255625 
L 185.498366 188.255625 
L 189.768101 188.255625 
L 194.037836 188.255625 
L 198.307571 188.255625 
L 202.577306 188.255625 
L 206.847041 188.255625 
L 211.116776 188.255625 
L 215.386511 188.255625 
L 219.656246 188.255625 
L 223.925981 188.255625 
L 228.195716 188.255625 
L 232.465451 188.255625 
L 236.735186 188.255625 
L 241.00492 188.255625 
L 245.274655 188.255625 
L 249.54439 188.255625 
L 253.814125 188.255625 
L 258.08386 188.255625 
L 262.353595 188.255625 
L 266.62333 188.255625 
L 270.893065 188.255625 
L 275.1628 188.255625 
L 279.432535 188.255625 
L 283.70227 188.255625 
L 287.972005 188.255625 
L 292.24174 188.255625 
L 296.511475 188.255625 
L 300.78121 188.255625 
L 305.050945 188.255625 
L 309.32068 188.255625 
L 313.590415 188.255625 
L 317.860149 188.255625 
L 322.129884 188.255625 
L 326.399619 188.255625 
L 330.669354 188.255625 
L 334.939089 188.255625 
L 339.208824 188.255625 
L 343.478559 188.255625 
L 347.748294 188.255625 
L 352.018029 188.255625 
L 356.287764 188.255625 
L 360.557499 188.255625 
L 364.827234 188.255625 
L 369.096969 188.255625 
L 373.366704 188.255625 
L 377.636439 188.255625 
L 381.906174 188.255625 
L 386.175909 188.255625 
L 390.445644 188.255625 
L 394.715378 188.255625 
L 398.985113 188.255625 
L 403.254848 188.255625 
L 407.524583 188.255625 
L 411.794318 188.255625 
L 416.064053 188.255625 
L 420.333788 188.255625 
L 424.603523 188.255625 
L 428.873258 188.255625 
L 433.142993 188.255625 
L 437.412728 188.255625 
L 441.682463 188.255625 
L 445.952198 188.255625 
L 450.221933 188.255625 
L 454.491668 188.255625 
L 458.761403 188.255625 
L 463.031138 188.255625 
L 467.300873 188.255625 
L 471.570607 188.255625 
L 475.840342 188.255625 
L 480.110077 188.255625 
L 484.379812 188.255625 
L 488.649547 188.255625 
L 492.919282 188.255625 
L 497.189017 188.255625 
L 501.458752 188.255625 
L 505.728487 188.255625 
L 509.998222 188.255625 
L 514.267957 188.255625 
L 518.537692 188.255625 
L 522.807427 188.255625 
L 527.077162 188.255625 
L 531.346897 188.255625 
L 535.616632 188.255625 
L 539.886367 188.255625 
L 544.156101 188.255625 
L 548.425836 188.255625 
L 552.695571 188.255625 
L 556.965306 188.255625 
L 561.235041 188.255625 
L 565.504776 188.255625 
L 569.774511 188.255625 
L 574.044246 188.255625 
L 578.313981 188.255625 
L 582.583716 188.255625 
L 586.853451 188.255625 
L 591.123186 188.255625 
L 595.392921 188.255625 
L 599.662656 188.255625 
L 603.932391 188.255625 
L 608.202126 188.255625 
L 612.471861 188.255625 
L 616.741596 188.255625 
L 621.01133 188.255625 
L 625.281065 188.255625 
L 629.5508 188.255625 
L 633.820535 188.255625 
L 638.09027 188.255625 
L 642.360005 188.255625 
L 646.62974 188.255625 
L 650.899475 188.255625 
L 655.16921 188.255625 
L 659.438945 188.255625 
L 663.70868 188.255625 
L 667.978415 188.255625 
L 672.24815 188.255625 
L 676.517885 188.255625 
L 680.78762 188.255625 
L 685.057355 188.255625 
L 689.32709 188.255625 
L 693.596825 188.255625 
L 697.866559 188.255625 
L 702.136294 188.255625 
L 706.406029 188.255625 
L 710.675764 188.255625 
L 714.945499 188.255625 
L 719.215234 188.255625 
L 723.484969 188.255625 
L 727.754704 188.255625 
L 732.024439 188.255625 
L 736.294174 188.255625 
L 740.563909 188.255625 
L 744.833644 188.255625 
L 749.103379 188.255625 
L 753.373114 188.255625 
L 757.642849 188.255625 
L 761.912584 188.255625 
L 766.182319 188.255625 
L 770.452054 188.255625 
L 774.721788 188.255625 
L 778.991523 188.255625 
L 783.261258 188.255625 
L 787.530993 188.255625 
L 791.800728 188.255625 
L 796.070463 188.255625 
L 800.340198 188.255625 
L 804.609933 188.255625 
L 808.879668 188.255625 
L 813.149403 188.255625 
L 817.419138 188.255625 
L 821.688873 188.255625 
L 825.958608 188.255625 
L 830.228343 188.255625 
L 834.498078 188.255625 
L 838.767813 188.255625 
L 843.037548 188.255625 
L 847.307283 188.255625 
L 851.577017 188.255625 
L 855.846752 188.255625 
L 860.116487 188.255625 
L 864.386222 188.255625 
L 868.655957 188.255625 
L 872.925692 188.255625 
L 877.195427 188.255625 
L 881.465162 188.255625 
L 885.734897 188.255625 
L 890.004632 188.255625 
L 894.274367 188.255625 
L 898.544102 188.255625 
L 902.813837 188.255625 
L 907.083572 188.255625 
L 911.353307 188.255625 
L 915.623042 188.255625 
L 919.892777 188.255625 
L 924.162512 188.255625 
L 928.432246 188.255625 
L 928.432246 188.255521 
L 928.432246 188.255521 
L 924.162512 188.25476 
L 919.892777 188.251934 
L 915.623042 188.247578 
L 911.353307 188.246662 
L 907.083572 188.250525 
L 902.813837 188.254143 
L 898.544102 188.255405 
L 894.274367 188.255608 
L 890.004632 188.255624 
L 885.734897 188.255625 
L 881.465162 188.255625 
L 877.195427 188.255625 
L 872.925692 188.255625 
L 868.655957 188.255625 
L 864.386222 188.255625 
L 860.116487 188.255625 
L 855.846752 188.255625 
L 851.577017 188.255625 
L 847.307283 188.255625 
L 843.037548 188.255625 
L 838.767813 188.255625 
L 834.498078 188.255625 
L 830.228343 188.255625 
L 825.958608 188.255625 
L 821.688873 188.255625 
L 817.419138 188.255625 
L 813.149403 188.255625 
L 808.879668 188.255625 
L 804.609933 188.255625 
L 800.340198 188.255625 
L 796.070463 188.255625 
L 791.800728 188.255625 
L 787.530993 188.255625 
L 783.261258 188.255625 
L 778.991523 188.255625 
L 774.721788 188.255625 
L 770.452054 188.255625 
L 766.182319 188.255625 
L 761.912584 188.255625 
L 757.642849 188.255625 
L 753.373114 188.255625 
L 749.103379 188.255625 
L 744.833644 188.255625 
L 740.563909 188.255625 
L 736.294174 188.255625 
L 732.024439 188.255625 
L 727.754704 188.255625 
L 723.484969 188.255625 
L 719.215234 188.255625 
L 714.945499 188.255625 
L 710.675764 188.255625 
L 706.406029 188.255625 
L 702.136294 188.255625 
L 697.866559 188.255625 
L 693.596825 188.255625 
L 689.32709 188.255625 
L 685.057355 188.255625 
L 680.78762 188.255625 
L 676.517885 188.255625 
L 672.24815 188.255625 
L 667.978415 188.255625 
L 663.70868 188.255625 
L 659.438945 188.255625 
L 655.16921 188.255625 
L 650.899475 188.255625 
L 646.62974 188.255625 
L 642.360005 188.255625 
L 638.09027 188.255625 
L 633.820535 188.255625 
L 629.5508 188.255625 
L 625.281065 188.255625 
L 621.01133 188.255625 
L 616.741596 188.255625 
L 612.471861 188.255625 
L 608.202126 188.255625 
L 603.932391 188.255625 
L 599.662656 188.255625 
L 595.392921 188.255625 
L 591.123186 188.255625 
L 586.853451 188.255618 
L 582.583716 188.255515 
L 578.313981 188.25472 
L 574.044246 188.251827 
L 569.774511 188.247487 
L 565.504776 188.246716 
L 561.235041 188.250643 
L 556.965306 188.254202 
L 552.695571 188.255417 
L 548.425836 188.25561 
L 544.156101 188.255624 
L 539.886367 188.255625 
L 535.616632 188.255625 
L 531.346897 188.255625 
L 527.077162 188.255625 
L 522.807427 188.255625 
L 518.537692 188.255625 
L 514.267957 188.255625 
L 509.998222 188.255625 
L 505.728487 188.255625 
L 501.458752 188.255624 
L 497.189017 188.255611 
L 492.919282 188.255428 
L 488.649547 188.254253 
L 484.379812 188.250749 
L 480.110077 188.246768 
L 475.840342 188.247408 
L 471.570607 188.25173 
L 467.300873 188.254682 
L 463.031138 188.255508 
L 458.761403 188.255618 
L 454.491668 188.255625 
L 450.221933 188.255625 
L 445.952198 188.255625 
L 441.682463 188.255625 
L 437.412728 188.255625 
L 433.142993 188.255625 
L 428.873258 188.255625 
L 424.603523 188.255625 
L 420.333788 188.255625 
L 416.064053 188.255625 
L 411.794318 188.255625 
L 407.524583 188.255625 
L 403.254848 188.255625 
L 398.985113 188.255625 
L 394.715378 188.255625 
L 390.445644 188.255625 
L 386.175909 188.255625 
L 381.906174 188.255625 
L 377.636439 188.255625 
L 373.366704 188.255614 
L 369.096969 188.255467 
L 364.827234 188.254452 
L 360.557499 188.251178 
L 356.287764 188.247013 
L 352.018029 188.247098 
L 347.748294 188.251215 
L 343.478559 188.253647 
L 339.208824 188.251783 
L 334.939089 188.247564 
L 330.669354 188.246664 
L 326.399619 188.25053 
L 322.129884 188.254145 
L 317.860149 188.255405 
L 313.590415 188.255608 
L 309.32068 188.255616 
L 305.050945 188.255494 
L 300.78121 188.254601 
L 296.511475 188.251529 
L 292.24174 188.247253 
L 287.972005 188.246884 
L 283.70227 188.250962 
L 279.432535 188.254353 
L 275.1628 188.255415 
L 270.893065 188.25522 
L 266.62333 188.253156 
L 262.353595 188.247256 
L 258.08386 188.239955 
L 253.814125 188.239144 
L 249.54439 188.245857 
L 245.274655 188.252213 
L 241.00492 188.253498 
L 236.735186 188.249212 
L 232.465451 188.239669 
L 228.195716 188.228549 
L 223.925981 188.224661 
L 219.656246 188.233112 
L 215.386511 188.241036 
L 211.116776 188.232211 
L 206.847041 188.208811 
L 202.577306 188.187168 
L 198.307571 188.180362 
L 194.037836 188.183092 
L 189.768101 188.17811 
L 185.498366 188.169988 
L 181.228631 188.169199 
L 176.958896 188.169601 
L 172.689161 188.161802 
L 168.419426 188.142038 
L 164.149691 188.120101 
L 159.879957 188.096355 
L 155.610222 188.040059 
L 151.340487 187.955215 
L 147.070752 187.911037 
L 142.801017 187.913016 
L 138.531282 187.91329 
L 134.261547 187.919865 
L 129.991812 187.94437 
L 125.722077 187.9464 
L 121.452342 187.906527 
L 117.182607 187.830656 
L 112.912872 187.606013 
L 108.643137 186.583545 
L 104.373402 182.491858 
L 100.103667 173.309639 
L 95.833932 165.738393 
L 91.564197 169.977486 
L 87.294463 180.460615 
L 83.024728 186.527858 
L 78.754993 188.057698 
z
" clip-path="url(#pdd830dfddc)" style="fill: #7570b3; fill-opacity: 0.25; stroke: #7570b3; stroke-width: 1.5"/>
   </g>
   <g id="matplotlib.axis_1">
    <g id="xtick_1">
     <g id="line2d_1">
      <defs>
       <path id="m359ede2af3" d="M 0 0 
L 0 3.5 
" style="stroke: #000000; stroke-width: 0.8"/>
      </defs>
      <g>
       <use xlink:href="#m359ede2af3" x="38.584375" y="188.255625" style="stroke: #000000; stroke-width: 0.8"/>
      </g>
     </g>
     <g id="text_1">
      <!-- 0 -->
      <g transform="translate(35.803906 202.413438) scale(0.1 -0.1)">
       <defs>
        <path id="ArialMT-30" d="M 266 2259 
Q 266 3072 433 3567 
Q 600 4063 929 4331 
Q 1259 4600 1759 4600 
Q 2128 4600 2406 4451 
Q 2684 4303 2865 4023 
Q 3047 3744 3150 3342 
Q 3253 2941 3253 2259 
Q 3253 1453 3087 958 
Q 2922 463 2592 192 
Q 2263 -78 1759 -78 
Q 1097 -78 719 397 
Q 266 969 266 2259 
z
M 844 2259 
Q 844 1131 1108 757 
Q 1372 384 1759 384 
Q 2147 384 2411 759 
Q 2675 1134 2675 2259 
Q 2675 3391 2411 3762 
Q 2147 4134 1753 4134 
Q 1366 4134 1134 3806 
Q 844 3388 844 2259 
z
" transform="scale(0.015625)"/>
       </defs>
       <use xlink:href="#ArialMT-30"/>
      </g>
     </g>
    </g>
    <g id="xtick_2">
     <g id="line2d_2">
      <g>
       <use xlink:href="#m359ede2af3" x="94.384375" y="188.255625" style="stroke: #000000; stroke-width: 0.8"/>
      </g>
     </g>
     <g id="text_2">
      <!-- 1 -->
      <g transform="translate(91.603906 202.413438) scale(0.1 -0.1)">
       <defs>
        <path id="ArialMT-31" d="M 2384 0 
L 1822 0 
L 1822 3584 
Q 1619 3391 1289 3197 
Q 959 3003 697 2906 
L 697 3450 
Q 1169 3672 1522 3987 
Q 1875 4303 2022 4600 
L 2384 4600 
L 2384 0 
z
" transform="scale(0.015625)"/>
       </defs>
       <use xlink:href="#ArialMT-31"/>
      </g>
     </g>
    </g>
    <g id="xtick_3">
     <g id="line2d_3">
      <g>
       <use xlink:href="#m359ede2af3" x="150.184375" y="188.255625" style="stroke: #000000; stroke-width: 0.8"/>
      </g>
     </g>
     <g id="text_3">
      <!-- 2 -->
      <g transform="translate(147.403906 202.413438) scale(0.1 -0.1)">
       <defs>
        <path id="ArialMT-32" d="M 3222 541 
L 3222 0 
L 194 0 
Q 188 203 259 391 
Q 375 700 629 1000 
Q 884 1300 1366 1694 
Q 2113 2306 2375 2664 
Q 2638 3022 2638 3341 
Q 2638 3675 2398 3904 
Q 2159 4134 1775 4134 
Q 1369 4134 1125 3890 
Q 881 3647 878 3216 
L 300 3275 
Q 359 3922 746 4261 
Q 1134 4600 1788 4600 
Q 2447 4600 2831 4234 
Q 3216 3869 3216 3328 
Q 3216 3053 3103 2787 
Q 2991 2522 2730 2228 
Q 2469 1934 1863 1422 
Q 1356 997 1212 845 
Q 1069 694 975 541 
L 3222 541 
z
" transform="scale(0.015625)"/>
       </defs>
       <use xlink:href="#ArialMT-32"/>
      </g>
     </g>
    </g>
    <g id="xtick_4">
     <g id="line2d_4">
      <g>
       <use xlink:href="#m359ede2af3" x="205.984375" y="188.255625" style="stroke: #000000; stroke-width: 0.8"/>
      </g>
     </g>
     <g id="text_4">
      <!-- 3 -->
      <g transform="translate(203.203906 202.413438) scale(0.1 -0.1)">
       <defs>
        <path id="ArialMT-33" d="M 269 1209 
L 831 1284 
Q 928 806 1161 595 
Q 1394 384 1728 384 
Q 2125 384 2398 659 
Q 2672 934 2672 1341 
Q 2672 1728 2419 1979 
Q 2166 2231 1775 2231 
Q 1616 2231 1378 2169 
L 1441 2663 
Q 1497 2656 1531 2656 
Q 1891 2656 2178 2843 
Q 2466 3031 2466 3422 
Q 2466 3731 2256 3934 
Q 2047 4138 1716 4138 
Q 1388 4138 1169 3931 
Q 950 3725 888 3313 
L 325 3413 
Q 428 3978 793 4289 
Q 1159 4600 1703 4600 
Q 2078 4600 2393 4439 
Q 2709 4278 2876 4000 
Q 3044 3722 3044 3409 
Q 3044 3113 2884 2869 
Q 2725 2625 2413 2481 
Q 2819 2388 3044 2092 
Q 3269 1797 3269 1353 
Q 3269 753 2831 336 
Q 2394 -81 1725 -81 
Q 1122 -81 723 278 
Q 325 638 269 1209 
z
" transform="scale(0.015625)"/>
       </defs>
       <use xlink:href="#ArialMT-33"/>
      </g>
     </g>
    </g>
    <g id="xtick_5">
     <g id="line2d_5">
      <g>
       <use xlink:href="#m359ede2af3" x="261.784375" y="188.255625" style="stroke: #000000; stroke-width: 0.8"/>
      </g>
     </g>
     <g id="text_5">
      <!-- 4 -->
      <g transform="translate(259.003906 202.413438) scale(0.1 -0.1)">
       <defs>
        <path id="ArialMT-34" d="M 2069 0 
L 2069 1097 
L 81 1097 
L 81 1613 
L 2172 4581 
L 2631 4581 
L 2631 1613 
L 3250 1613 
L 3250 1097 
L 2631 1097 
L 2631 0 
L 2069 0 
z
M 2069 1613 
L 2069 3678 
L 634 1613 
L 2069 1613 
z
" transform="scale(0.015625)"/>
       </defs>
       <use xlink:href="#ArialMT-34"/>
      </g>
     </g>
    </g>
    <g id="xtick_6">
     <g id="line2d_6">
      <g>
       <use xlink:href="#m359ede2af3" x="317.584375" y="188.255625" style="stroke: #000000; stroke-width: 0.8"/>
      </g>
     </g>
     <g id="text_6">
      <!-- 5 -->
      <g transform="translate(314.803906 202.413438) scale(0.1 -0.1)">
       <defs>
        <path id="ArialMT-35" d="M 266 1200 
L 856 1250 
Q 922 819 1161 601 
Q 1400 384 1738 384 
Q 2144 384 2425 690 
Q 2706 997 2706 1503 
Q 2706 1984 2436 2262 
Q 2166 2541 1728 2541 
Q 1456 2541 1237 2417 
Q 1019 2294 894 2097 
L 366 2166 
L 809 4519 
L 3088 4519 
L 3088 3981 
L 1259 3981 
L 1013 2750 
Q 1425 3038 1878 3038 
Q 2478 3038 2890 2622 
Q 3303 2206 3303 1553 
Q 3303 931 2941 478 
Q 2500 -78 1738 -78 
Q 1113 -78 717 272 
Q 322 622 266 1200 
z
" transform="scale(0.015625)"/>
       </defs>
       <use xlink:href="#ArialMT-35"/>
      </g>
     </g>
    </g>
    <g id="text_7">
     <!-- Mean gene copy number -->
     <g transform="translate(119.465625 215.55875) scale(0.1 -0.1)">
      <defs>
       <path id="Arial-BoldMT-4d" d="M 453 0 
L 453 4581 
L 1838 4581 
L 2669 1456 
L 3491 4581 
L 4878 4581 
L 4878 0 
L 4019 0 
L 4019 3606 
L 3109 0 
L 2219 0 
L 1313 3606 
L 1313 0 
L 453 0 
z
" transform="scale(0.015625)"/>
       <path id="Arial-BoldMT-65" d="M 2381 1056 
L 3256 909 
Q 3088 428 2723 176 
Q 2359 -75 1813 -75 
Q 947 -75 531 491 
Q 203 944 203 1634 
Q 203 2459 634 2926 
Q 1066 3394 1725 3394 
Q 2466 3394 2894 2905 
Q 3322 2416 3303 1406 
L 1103 1406 
Q 1113 1016 1316 798 
Q 1519 581 1822 581 
Q 2028 581 2168 693 
Q 2309 806 2381 1056 
z
M 2431 1944 
Q 2422 2325 2234 2523 
Q 2047 2722 1778 2722 
Q 1491 2722 1303 2513 
Q 1116 2303 1119 1944 
L 2431 1944 
z
" transform="scale(0.015625)"/>
       <path id="Arial-BoldMT-61" d="M 1116 2306 
L 319 2450 
Q 453 2931 781 3162 
Q 1109 3394 1756 3394 
Q 2344 3394 2631 3255 
Q 2919 3116 3036 2902 
Q 3153 2688 3153 2116 
L 3144 1091 
Q 3144 653 3186 445 
Q 3228 238 3344 0 
L 2475 0 
Q 2441 88 2391 259 
Q 2369 338 2359 363 
Q 2134 144 1878 34 
Q 1622 -75 1331 -75 
Q 819 -75 523 203 
Q 228 481 228 906 
Q 228 1188 362 1408 
Q 497 1628 739 1745 
Q 981 1863 1438 1950 
Q 2053 2066 2291 2166 
L 2291 2253 
Q 2291 2506 2166 2614 
Q 2041 2722 1694 2722 
Q 1459 2722 1328 2630 
Q 1197 2538 1116 2306 
z
M 2291 1594 
Q 2122 1538 1756 1459 
Q 1391 1381 1278 1306 
Q 1106 1184 1106 997 
Q 1106 813 1243 678 
Q 1381 544 1594 544 
Q 1831 544 2047 700 
Q 2206 819 2256 991 
Q 2291 1103 2291 1419 
L 2291 1594 
z
" transform="scale(0.015625)"/>
       <path id="Arial-BoldMT-6e" d="M 3478 0 
L 2600 0 
L 2600 1694 
Q 2600 2231 2544 2389 
Q 2488 2547 2361 2634 
Q 2234 2722 2056 2722 
Q 1828 2722 1647 2597 
Q 1466 2472 1398 2265 
Q 1331 2059 1331 1503 
L 1331 0 
L 453 0 
L 453 3319 
L 1269 3319 
L 1269 2831 
Q 1703 3394 2363 3394 
Q 2653 3394 2893 3289 
Q 3134 3184 3257 3021 
Q 3381 2859 3429 2653 
Q 3478 2447 3478 2063 
L 3478 0 
z
" transform="scale(0.015625)"/>
       <path id="Arial-BoldMT-20" transform="scale(0.015625)"/>
       <path id="Arial-BoldMT-67" d="M 378 -219 
L 1381 -341 
Q 1406 -516 1497 -581 
Q 1622 -675 1891 -675 
Q 2234 -675 2406 -572 
Q 2522 -503 2581 -350 
Q 2622 -241 2622 53 
L 2622 538 
Q 2228 0 1628 0 
Q 959 0 569 566 
Q 263 1013 263 1678 
Q 263 2513 664 2953 
Q 1066 3394 1663 3394 
Q 2278 3394 2678 2853 
L 2678 3319 
L 3500 3319 
L 3500 341 
Q 3500 -247 3403 -537 
Q 3306 -828 3131 -993 
Q 2956 -1159 2664 -1253 
Q 2372 -1347 1925 -1347 
Q 1081 -1347 728 -1058 
Q 375 -769 375 -325 
Q 375 -281 378 -219 
z
M 1163 1728 
Q 1163 1200 1367 954 
Q 1572 709 1872 709 
Q 2194 709 2416 961 
Q 2638 1213 2638 1706 
Q 2638 2222 2425 2472 
Q 2213 2722 1888 2722 
Q 1572 2722 1367 2476 
Q 1163 2231 1163 1728 
z
" transform="scale(0.015625)"/>
       <path id="Arial-BoldMT-63" d="M 3353 2338 
L 2488 2181 
Q 2444 2441 2289 2572 
Q 2134 2703 1888 2703 
Q 1559 2703 1364 2476 
Q 1169 2250 1169 1719 
Q 1169 1128 1367 884 
Q 1566 641 1900 641 
Q 2150 641 2309 783 
Q 2469 925 2534 1272 
L 3397 1125 
Q 3263 531 2881 228 
Q 2500 -75 1859 -75 
Q 1131 -75 698 384 
Q 266 844 266 1656 
Q 266 2478 700 2936 
Q 1134 3394 1875 3394 
Q 2481 3394 2839 3133 
Q 3197 2872 3353 2338 
z
" transform="scale(0.015625)"/>
       <path id="Arial-BoldMT-6f" d="M 256 1706 
Q 256 2144 472 2553 
Q 688 2963 1083 3178 
Q 1478 3394 1966 3394 
Q 2719 3394 3200 2905 
Q 3681 2416 3681 1669 
Q 3681 916 3195 420 
Q 2709 -75 1972 -75 
Q 1516 -75 1102 131 
Q 688 338 472 736 
Q 256 1134 256 1706 
z
M 1156 1659 
Q 1156 1166 1390 903 
Q 1625 641 1969 641 
Q 2313 641 2545 903 
Q 2778 1166 2778 1666 
Q 2778 2153 2545 2415 
Q 2313 2678 1969 2678 
Q 1625 2678 1390 2415 
Q 1156 2153 1156 1659 
z
" transform="scale(0.015625)"/>
       <path id="Arial-BoldMT-70" d="M 434 3319 
L 1253 3319 
L 1253 2831 
Q 1413 3081 1684 3237 
Q 1956 3394 2288 3394 
Q 2866 3394 3269 2941 
Q 3672 2488 3672 1678 
Q 3672 847 3265 386 
Q 2859 -75 2281 -75 
Q 2006 -75 1782 34 
Q 1559 144 1313 409 
L 1313 -1263 
L 434 -1263 
L 434 3319 
z
M 1303 1716 
Q 1303 1156 1525 889 
Q 1747 622 2066 622 
Q 2372 622 2575 867 
Q 2778 1113 2778 1672 
Q 2778 2194 2568 2447 
Q 2359 2700 2050 2700 
Q 1728 2700 1515 2451 
Q 1303 2203 1303 1716 
z
" transform="scale(0.015625)"/>
       <path id="Arial-BoldMT-79" d="M 44 3319 
L 978 3319 
L 1772 963 
L 2547 3319 
L 3456 3319 
L 2284 125 
L 2075 -453 
Q 1959 -744 1854 -897 
Q 1750 -1050 1614 -1145 
Q 1478 -1241 1279 -1294 
Q 1081 -1347 831 -1347 
Q 578 -1347 334 -1294 
L 256 -606 
Q 463 -647 628 -647 
Q 934 -647 1081 -467 
Q 1228 -288 1306 -9 
L 44 3319 
z
" transform="scale(0.015625)"/>
       <path id="Arial-BoldMT-75" d="M 2644 0 
L 2644 497 
Q 2463 231 2167 78 
Q 1872 -75 1544 -75 
Q 1209 -75 943 72 
Q 678 219 559 484 
Q 441 750 441 1219 
L 441 3319 
L 1319 3319 
L 1319 1794 
Q 1319 1094 1367 936 
Q 1416 778 1544 686 
Q 1672 594 1869 594 
Q 2094 594 2272 717 
Q 2450 841 2515 1023 
Q 2581 1206 2581 1919 
L 2581 3319 
L 3459 3319 
L 3459 0 
L 2644 0 
z
" transform="scale(0.015625)"/>
       <path id="Arial-BoldMT-6d" d="M 394 3319 
L 1203 3319 
L 1203 2866 
Q 1638 3394 2238 3394 
Q 2556 3394 2790 3262 
Q 3025 3131 3175 2866 
Q 3394 3131 3647 3262 
Q 3900 3394 4188 3394 
Q 4553 3394 4806 3245 
Q 5059 3097 5184 2809 
Q 5275 2597 5275 2122 
L 5275 0 
L 4397 0 
L 4397 1897 
Q 4397 2391 4306 2534 
Q 4184 2722 3931 2722 
Q 3747 2722 3584 2609 
Q 3422 2497 3350 2280 
Q 3278 2063 3278 1594 
L 3278 0 
L 2400 0 
L 2400 1819 
Q 2400 2303 2353 2443 
Q 2306 2584 2207 2653 
Q 2109 2722 1941 2722 
Q 1738 2722 1575 2612 
Q 1413 2503 1342 2297 
Q 1272 2091 1272 1613 
L 1272 0 
L 394 0 
L 394 3319 
z
" transform="scale(0.015625)"/>
       <path id="Arial-BoldMT-62" d="M 422 0 
L 422 4581 
L 1300 4581 
L 1300 2931 
Q 1706 3394 2263 3394 
Q 2869 3394 3266 2955 
Q 3663 2516 3663 1694 
Q 3663 844 3258 384 
Q 2853 -75 2275 -75 
Q 1991 -75 1714 67 
Q 1438 209 1238 488 
L 1238 0 
L 422 0 
z
M 1294 1731 
Q 1294 1216 1456 969 
Q 1684 619 2063 619 
Q 2353 619 2558 867 
Q 2763 1116 2763 1650 
Q 2763 2219 2556 2470 
Q 2350 2722 2028 2722 
Q 1713 2722 1503 2476 
Q 1294 2231 1294 1731 
z
" transform="scale(0.015625)"/>
       <path id="Arial-BoldMT-72" d="M 1300 0 
L 422 0 
L 422 3319 
L 1238 3319 
L 1238 2847 
Q 1447 3181 1614 3287 
Q 1781 3394 1994 3394 
Q 2294 3394 2572 3228 
L 2300 2463 
Q 2078 2606 1888 2606 
Q 1703 2606 1575 2504 
Q 1447 2403 1373 2137 
Q 1300 1872 1300 1025 
L 1300 0 
z
" transform="scale(0.015625)"/>
      </defs>
      <use xlink:href="#Arial-BoldMT-4d"/>
      <use xlink:href="#Arial-BoldMT-65" x="83.300781"/>
      <use xlink:href="#Arial-BoldMT-61" x="138.916016"/>
      <use xlink:href="#Arial-BoldMT-6e" x="194.53125"/>
      <use xlink:href="#Arial-BoldMT-20" x="255.615234"/>
      <use xlink:href="#Arial-BoldMT-67" x="283.398438"/>
      <use xlink:href="#Arial-BoldMT-65" x="344.482422"/>
      <use xlink:href="#Arial-BoldMT-6e" x="400.097656"/>
      <use xlink:href="#Arial-BoldMT-65" x="461.181641"/>
      <use xlink:href="#Arial-BoldMT-20" x="516.796875"/>
      <use xlink:href="#Arial-BoldMT-63" x="544.580078"/>
      <use xlink:href="#Arial-BoldMT-6f" x="600.195312"/>
      <use xlink:href="#Arial-BoldMT-70" x="661.279297"/>
      <use xlink:href="#Arial-BoldMT-79" x="722.363281"/>
      <use xlink:href="#Arial-BoldMT-20" x="777.978516"/>
      <use xlink:href="#Arial-BoldMT-6e" x="805.761719"/>
      <use xlink:href="#Arial-BoldMT-75" x="866.845703"/>
      <use xlink:href="#Arial-BoldMT-6d" x="927.929688"/>
      <use xlink:href="#Arial-BoldMT-62" x="1016.845703"/>
      <use xlink:href="#Arial-BoldMT-65" x="1077.929688"/>
      <use xlink:href="#Arial-BoldMT-72" x="1133.544922"/>
     </g>
    </g>
   </g>
   <g id="matplotlib.axis_2">
    <g id="ytick_1">
     <g id="line2d_7">
      <defs>
       <path id="mab9b9822b4" d="M 0 0 
L -3.5 0 
" style="stroke: #000000; stroke-width: 0.8"/>
      </defs>
      <g>
       <use xlink:href="#mab9b9822b4" x="38.584375" y="188.255625" style="stroke: #000000; stroke-width: 0.8"/>
      </g>
     </g>
     <g id="text_8">
      <!-- 0 -->
      <g transform="translate(26.023438 191.834531) scale(0.1 -0.1)">
       <use xlink:href="#ArialMT-30"/>
      </g>
     </g>
    </g>
    <g id="ytick_2">
     <g id="line2d_8">
      <g>
       <use xlink:href="#mab9b9822b4" x="38.584375" y="158.295986" style="stroke: #000000; stroke-width: 0.8"/>
      </g>
     </g>
     <g id="text_9">
      <!-- 5 -->
      <g transform="translate(26.023438 161.874892) scale(0.1 -0.1)">
       <use xlink:href="#ArialMT-35"/>
      </g>
     </g>
    </g>
    <g id="ytick_3">
     <g id="line2d_9">
      <g>
       <use xlink:href="#mab9b9822b4" x="38.584375" y="128.336347" style="stroke: #000000; stroke-width: 0.8"/>
      </g>
     </g>
     <g id="text_10">
      <!-- 10 -->
      <g transform="translate(20.4625 131.915254) scale(0.1 -0.1)">
       <use xlink:href="#ArialMT-31"/>
       <use xlink:href="#ArialMT-30" x="55.615234"/>
      </g>
     </g>
    </g>
    <g id="ytick_4">
     <g id="line2d_10">
      <g>
       <use xlink:href="#mab9b9822b4" x="38.584375" y="98.376709" style="stroke: #000000; stroke-width: 0.8"/>
      </g>
     </g>
     <g id="text_11">
      <!-- 15 -->
      <g transform="translate(20.4625 101.955615) scale(0.1 -0.1)">
       <use xlink:href="#ArialMT-31"/>
       <use xlink:href="#ArialMT-35" x="55.615234"/>
      </g>
     </g>
    </g>
    <g id="ytick_5">
     <g id="line2d_11">
      <g>
       <use xlink:href="#mab9b9822b4" x="38.584375" y="68.41707" style="stroke: #000000; stroke-width: 0.8"/>
      </g>
     </g>
     <g id="text_12">
      <!-- 20 -->
      <g transform="translate(20.4625 71.995976) scale(0.1 -0.1)">
       <use xlink:href="#ArialMT-32"/>
       <use xlink:href="#ArialMT-30" x="55.615234"/>
      </g>
     </g>
    </g>
    <g id="ytick_6">
     <g id="line2d_12">
      <g>
       <use xlink:href="#mab9b9822b4" x="38.584375" y="38.457431" style="stroke: #000000; stroke-width: 0.8"/>
      </g>
     </g>
     <g id="text_13">
      <!-- 25 -->
      <g transform="translate(20.4625 42.036337) scale(0.1 -0.1)">
       <use xlink:href="#ArialMT-32"/>
       <use xlink:href="#ArialMT-35" x="55.615234"/>
      </g>
     </g>
    </g>
    <g id="text_14">
     <!-- Density -->
     <g transform="translate(14.357813 123.155781) rotate(-90) scale(0.1 -0.1)">
      <defs>
       <path id="Arial-BoldMT-44" d="M 463 4581 
L 2153 4581 
Q 2725 4581 3025 4494 
Q 3428 4375 3715 4072 
Q 4003 3769 4153 3330 
Q 4303 2891 4303 2247 
Q 4303 1681 4163 1272 
Q 3991 772 3672 463 
Q 3431 228 3022 97 
Q 2716 0 2203 0 
L 463 0 
L 463 4581 
z
M 1388 3806 
L 1388 772 
L 2078 772 
Q 2466 772 2638 816 
Q 2863 872 3011 1006 
Q 3159 1141 3253 1448 
Q 3347 1756 3347 2288 
Q 3347 2819 3253 3103 
Q 3159 3388 2990 3547 
Q 2822 3706 2563 3763 
Q 2369 3806 1803 3806 
L 1388 3806 
z
" transform="scale(0.015625)"/>
       <path id="Arial-BoldMT-73" d="M 150 947 
L 1031 1081 
Q 1088 825 1259 692 
Q 1431 559 1741 559 
Q 2081 559 2253 684 
Q 2369 772 2369 919 
Q 2369 1019 2306 1084 
Q 2241 1147 2013 1200 
Q 950 1434 666 1628 
Q 272 1897 272 2375 
Q 272 2806 612 3100 
Q 953 3394 1669 3394 
Q 2350 3394 2681 3172 
Q 3013 2950 3138 2516 
L 2309 2363 
Q 2256 2556 2107 2659 
Q 1959 2763 1684 2763 
Q 1338 2763 1188 2666 
Q 1088 2597 1088 2488 
Q 1088 2394 1175 2328 
Q 1294 2241 1995 2081 
Q 2697 1922 2975 1691 
Q 3250 1456 3250 1038 
Q 3250 581 2869 253 
Q 2488 -75 1741 -75 
Q 1063 -75 667 200 
Q 272 475 150 947 
z
" transform="scale(0.015625)"/>
       <path id="Arial-BoldMT-69" d="M 459 3769 
L 459 4581 
L 1338 4581 
L 1338 3769 
L 459 3769 
z
M 459 0 
L 459 3319 
L 1338 3319 
L 1338 0 
L 459 0 
z
" transform="scale(0.015625)"/>
       <path id="Arial-BoldMT-74" d="M 1981 3319 
L 1981 2619 
L 1381 2619 
L 1381 1281 
Q 1381 875 1398 808 
Q 1416 741 1477 697 
Q 1538 653 1625 653 
Q 1747 653 1978 738 
L 2053 56 
Q 1747 -75 1359 -75 
Q 1122 -75 931 4 
Q 741 84 652 211 
Q 563 338 528 553 
Q 500 706 500 1172 
L 500 2619 
L 97 2619 
L 97 3319 
L 500 3319 
L 500 3978 
L 1381 4491 
L 1381 3319 
L 1981 3319 
z
" transform="scale(0.015625)"/>
      </defs>
      <use xlink:href="#Arial-BoldMT-44"/>
      <use xlink:href="#Arial-BoldMT-65" x="72.216797"/>
      <use xlink:href="#Arial-BoldMT-6e" x="127.832031"/>
      <use xlink:href="#Arial-BoldMT-73" x="188.916016"/>
      <use xlink:href="#Arial-BoldMT-69" x="244.53125"/>
      <use xlink:href="#Arial-BoldMT-74" x="272.314453"/>
      <use xlink:href="#Arial-BoldMT-79" x="305.615234"/>
     </g>
    </g>
   </g>
   <g id="patch_3">
    <path d="M 38.584375 188.255625 
L 38.584375 21.935625 
" style="fill: none; stroke: #000000; stroke-linejoin: miter; stroke-linecap: square"/>
   </g>
   <g id="patch_4">
    <path d="M 317.584375 188.255625 
L 317.584375 21.935625 
" style="fill: none; stroke: #000000; stroke-linejoin: miter; stroke-linecap: square"/>
   </g>
   <g id="patch_5">
    <path d="M 38.584375 188.255625 
L 317.584375 188.255625 
" style="fill: none; stroke: #000000; stroke-linejoin: miter; stroke-linecap: square"/>
   </g>
   <g id="patch_6">
    <path d="M 38.584375 21.935625 
L 317.584375 21.935625 
" style="fill: none; stroke: #000000; stroke-linejoin: miter; stroke-linecap: square"/>
   </g>
   <g id="text_15">
    <!-- P_value(yeast core vs sce specific core):0.0 -->
    <g style="fill: #ff0000" transform="translate(147.394375 88.463625) scale(0.08 -0.08)">
     <defs>
      <path id="ArialMT-50" d="M 494 0 
L 494 4581 
L 2222 4581 
Q 2678 4581 2919 4538 
Q 3256 4481 3484 4323 
Q 3713 4166 3852 3881 
Q 3991 3597 3991 3256 
Q 3991 2672 3619 2267 
Q 3247 1863 2275 1863 
L 1100 1863 
L 1100 0 
L 494 0 
z
M 1100 2403 
L 2284 2403 
Q 2872 2403 3119 2622 
Q 3366 2841 3366 3238 
Q 3366 3525 3220 3729 
Q 3075 3934 2838 4000 
Q 2684 4041 2272 4041 
L 1100 4041 
L 1100 2403 
z
" transform="scale(0.015625)"/>
      <path id="ArialMT-5f" d="M -97 -1272 
L -97 -866 
L 3631 -866 
L 3631 -1272 
L -97 -1272 
z
" transform="scale(0.015625)"/>
      <path id="ArialMT-76" d="M 1344 0 
L 81 3319 
L 675 3319 
L 1388 1331 
Q 1503 1009 1600 663 
Q 1675 925 1809 1294 
L 2547 3319 
L 3125 3319 
L 1869 0 
L 1344 0 
z
" transform="scale(0.015625)"/>
      <path id="ArialMT-61" d="M 2588 409 
Q 2275 144 1986 34 
Q 1697 -75 1366 -75 
Q 819 -75 525 192 
Q 231 459 231 875 
Q 231 1119 342 1320 
Q 453 1522 633 1644 
Q 813 1766 1038 1828 
Q 1203 1872 1538 1913 
Q 2219 1994 2541 2106 
Q 2544 2222 2544 2253 
Q 2544 2597 2384 2738 
Q 2169 2928 1744 2928 
Q 1347 2928 1158 2789 
Q 969 2650 878 2297 
L 328 2372 
Q 403 2725 575 2942 
Q 747 3159 1072 3276 
Q 1397 3394 1825 3394 
Q 2250 3394 2515 3294 
Q 2781 3194 2906 3042 
Q 3031 2891 3081 2659 
Q 3109 2516 3109 2141 
L 3109 1391 
Q 3109 606 3145 398 
Q 3181 191 3288 0 
L 2700 0 
Q 2613 175 2588 409 
z
M 2541 1666 
Q 2234 1541 1622 1453 
Q 1275 1403 1131 1340 
Q 988 1278 909 1158 
Q 831 1038 831 891 
Q 831 666 1001 516 
Q 1172 366 1500 366 
Q 1825 366 2078 508 
Q 2331 650 2450 897 
Q 2541 1088 2541 1459 
L 2541 1666 
z
" transform="scale(0.015625)"/>
      <path id="ArialMT-6c" d="M 409 0 
L 409 4581 
L 972 4581 
L 972 0 
L 409 0 
z
" transform="scale(0.015625)"/>
      <path id="ArialMT-75" d="M 2597 0 
L 2597 488 
Q 2209 -75 1544 -75 
Q 1250 -75 995 37 
Q 741 150 617 320 
Q 494 491 444 738 
Q 409 903 409 1263 
L 409 3319 
L 972 3319 
L 972 1478 
Q 972 1038 1006 884 
Q 1059 663 1231 536 
Q 1403 409 1656 409 
Q 1909 409 2131 539 
Q 2353 669 2445 892 
Q 2538 1116 2538 1541 
L 2538 3319 
L 3100 3319 
L 3100 0 
L 2597 0 
z
" transform="scale(0.015625)"/>
      <path id="ArialMT-65" d="M 2694 1069 
L 3275 997 
Q 3138 488 2766 206 
Q 2394 -75 1816 -75 
Q 1088 -75 661 373 
Q 234 822 234 1631 
Q 234 2469 665 2931 
Q 1097 3394 1784 3394 
Q 2450 3394 2872 2941 
Q 3294 2488 3294 1666 
Q 3294 1616 3291 1516 
L 816 1516 
Q 847 969 1125 678 
Q 1403 388 1819 388 
Q 2128 388 2347 550 
Q 2566 713 2694 1069 
z
M 847 1978 
L 2700 1978 
Q 2663 2397 2488 2606 
Q 2219 2931 1791 2931 
Q 1403 2931 1139 2672 
Q 875 2413 847 1978 
z
" transform="scale(0.015625)"/>
      <path id="ArialMT-28" d="M 1497 -1347 
Q 1031 -759 709 28 
Q 388 816 388 1659 
Q 388 2403 628 3084 
Q 909 3875 1497 4659 
L 1900 4659 
Q 1522 4009 1400 3731 
Q 1209 3300 1100 2831 
Q 966 2247 966 1656 
Q 966 153 1900 -1347 
L 1497 -1347 
z
" transform="scale(0.015625)"/>
      <path id="ArialMT-79" d="M 397 -1278 
L 334 -750 
Q 519 -800 656 -800 
Q 844 -800 956 -737 
Q 1069 -675 1141 -563 
Q 1194 -478 1313 -144 
Q 1328 -97 1363 -6 
L 103 3319 
L 709 3319 
L 1400 1397 
Q 1534 1031 1641 628 
Q 1738 1016 1872 1384 
L 2581 3319 
L 3144 3319 
L 1881 -56 
Q 1678 -603 1566 -809 
Q 1416 -1088 1222 -1217 
Q 1028 -1347 759 -1347 
Q 597 -1347 397 -1278 
z
" transform="scale(0.015625)"/>
      <path id="ArialMT-73" d="M 197 991 
L 753 1078 
Q 800 744 1014 566 
Q 1228 388 1613 388 
Q 2000 388 2187 545 
Q 2375 703 2375 916 
Q 2375 1106 2209 1216 
Q 2094 1291 1634 1406 
Q 1016 1563 777 1677 
Q 538 1791 414 1992 
Q 291 2194 291 2438 
Q 291 2659 392 2848 
Q 494 3038 669 3163 
Q 800 3259 1026 3326 
Q 1253 3394 1513 3394 
Q 1903 3394 2198 3281 
Q 2494 3169 2634 2976 
Q 2775 2784 2828 2463 
L 2278 2388 
Q 2241 2644 2061 2787 
Q 1881 2931 1553 2931 
Q 1166 2931 1000 2803 
Q 834 2675 834 2503 
Q 834 2394 903 2306 
Q 972 2216 1119 2156 
Q 1203 2125 1616 2013 
Q 2213 1853 2448 1751 
Q 2684 1650 2818 1456 
Q 2953 1263 2953 975 
Q 2953 694 2789 445 
Q 2625 197 2315 61 
Q 2006 -75 1616 -75 
Q 969 -75 630 194 
Q 291 463 197 991 
z
" transform="scale(0.015625)"/>
      <path id="ArialMT-74" d="M 1650 503 
L 1731 6 
Q 1494 -44 1306 -44 
Q 1000 -44 831 53 
Q 663 150 594 308 
Q 525 466 525 972 
L 525 2881 
L 113 2881 
L 113 3319 
L 525 3319 
L 525 4141 
L 1084 4478 
L 1084 3319 
L 1650 3319 
L 1650 2881 
L 1084 2881 
L 1084 941 
Q 1084 700 1114 631 
Q 1144 563 1211 522 
Q 1278 481 1403 481 
Q 1497 481 1650 503 
z
" transform="scale(0.015625)"/>
      <path id="ArialMT-20" transform="scale(0.015625)"/>
      <path id="ArialMT-63" d="M 2588 1216 
L 3141 1144 
Q 3050 572 2676 248 
Q 2303 -75 1759 -75 
Q 1078 -75 664 370 
Q 250 816 250 1647 
Q 250 2184 428 2587 
Q 606 2991 970 3192 
Q 1334 3394 1763 3394 
Q 2303 3394 2647 3120 
Q 2991 2847 3088 2344 
L 2541 2259 
Q 2463 2594 2264 2762 
Q 2066 2931 1784 2931 
Q 1359 2931 1093 2626 
Q 828 2322 828 1663 
Q 828 994 1084 691 
Q 1341 388 1753 388 
Q 2084 388 2306 591 
Q 2528 794 2588 1216 
z
" transform="scale(0.015625)"/>
      <path id="ArialMT-6f" d="M 213 1659 
Q 213 2581 725 3025 
Q 1153 3394 1769 3394 
Q 2453 3394 2887 2945 
Q 3322 2497 3322 1706 
Q 3322 1066 3130 698 
Q 2938 331 2570 128 
Q 2203 -75 1769 -75 
Q 1072 -75 642 372 
Q 213 819 213 1659 
z
M 791 1659 
Q 791 1022 1069 705 
Q 1347 388 1769 388 
Q 2188 388 2466 706 
Q 2744 1025 2744 1678 
Q 2744 2294 2464 2611 
Q 2184 2928 1769 2928 
Q 1347 2928 1069 2612 
Q 791 2297 791 1659 
z
" transform="scale(0.015625)"/>
      <path id="ArialMT-72" d="M 416 0 
L 416 3319 
L 922 3319 
L 922 2816 
Q 1116 3169 1280 3281 
Q 1444 3394 1641 3394 
Q 1925 3394 2219 3213 
L 2025 2691 
Q 1819 2813 1613 2813 
Q 1428 2813 1281 2702 
Q 1134 2591 1072 2394 
Q 978 2094 978 1738 
L 978 0 
L 416 0 
z
" transform="scale(0.015625)"/>
      <path id="ArialMT-70" d="M 422 -1272 
L 422 3319 
L 934 3319 
L 934 2888 
Q 1116 3141 1344 3267 
Q 1572 3394 1897 3394 
Q 2322 3394 2647 3175 
Q 2972 2956 3137 2557 
Q 3303 2159 3303 1684 
Q 3303 1175 3120 767 
Q 2938 359 2589 142 
Q 2241 -75 1856 -75 
Q 1575 -75 1351 44 
Q 1128 163 984 344 
L 984 -1272 
L 422 -1272 
z
M 931 1641 
Q 931 1000 1190 694 
Q 1450 388 1819 388 
Q 2194 388 2461 705 
Q 2728 1022 2728 1688 
Q 2728 2322 2467 2637 
Q 2206 2953 1844 2953 
Q 1484 2953 1207 2617 
Q 931 2281 931 1641 
z
" transform="scale(0.015625)"/>
      <path id="ArialMT-69" d="M 425 3934 
L 425 4581 
L 988 4581 
L 988 3934 
L 425 3934 
z
M 425 0 
L 425 3319 
L 988 3319 
L 988 0 
L 425 0 
z
" transform="scale(0.015625)"/>
      <path id="ArialMT-66" d="M 556 0 
L 556 2881 
L 59 2881 
L 59 3319 
L 556 3319 
L 556 3672 
Q 556 4006 616 4169 
Q 697 4388 901 4523 
Q 1106 4659 1475 4659 
Q 1713 4659 2000 4603 
L 1916 4113 
Q 1741 4144 1584 4144 
Q 1328 4144 1222 4034 
Q 1116 3925 1116 3625 
L 1116 3319 
L 1763 3319 
L 1763 2881 
L 1116 2881 
L 1116 0 
L 556 0 
z
" transform="scale(0.015625)"/>
      <path id="ArialMT-29" d="M 791 -1347 
L 388 -1347 
Q 1322 153 1322 1656 
Q 1322 2244 1188 2822 
Q 1081 3291 891 3722 
Q 769 4003 388 4659 
L 791 4659 
Q 1378 3875 1659 3084 
Q 1900 2403 1900 1659 
Q 1900 816 1576 28 
Q 1253 -759 791 -1347 
z
" transform="scale(0.015625)"/>
      <path id="ArialMT-3a" d="M 578 2678 
L 578 3319 
L 1219 3319 
L 1219 2678 
L 578 2678 
z
M 578 0 
L 578 641 
L 1219 641 
L 1219 0 
L 578 0 
z
" transform="scale(0.015625)"/>
      <path id="ArialMT-2e" d="M 581 0 
L 581 641 
L 1222 641 
L 1222 0 
L 581 0 
z
" transform="scale(0.015625)"/>
     </defs>
     <use xlink:href="#ArialMT-50"/>
     <use xlink:href="#ArialMT-5f" x="66.699219"/>
     <use xlink:href="#ArialMT-76" x="122.314453"/>
     <use xlink:href="#ArialMT-61" x="172.314453"/>
     <use xlink:href="#ArialMT-6c" x="227.929688"/>
     <use xlink:href="#ArialMT-75" x="250.146484"/>
     <use xlink:href="#ArialMT-65" x="305.761719"/>
     <use xlink:href="#ArialMT-28" x="361.376953"/>
     <use xlink:href="#ArialMT-79" x="394.677734"/>
     <use xlink:href="#ArialMT-65" x="444.677734"/>
     <use xlink:href="#ArialMT-61" x="500.292969"/>
     <use xlink:href="#ArialMT-73" x="555.908203"/>
     <use xlink:href="#ArialMT-74" x="605.908203"/>
     <use xlink:href="#ArialMT-20" x="633.691406"/>
     <use xlink:href="#ArialMT-63" x="661.474609"/>
     <use xlink:href="#ArialMT-6f" x="711.474609"/>
     <use xlink:href="#ArialMT-72" x="767.089844"/>
     <use xlink:href="#ArialMT-65" x="800.390625"/>
     <use xlink:href="#ArialMT-20" x="856.005859"/>
     <use xlink:href="#ArialMT-76" x="883.789062"/>
     <use xlink:href="#ArialMT-73" x="933.789062"/>
     <use xlink:href="#ArialMT-20" x="983.789062"/>
     <use xlink:href="#ArialMT-73" x="1011.572266"/>
     <use xlink:href="#ArialMT-63" x="1061.572266"/>
     <use xlink:href="#ArialMT-65" x="1111.572266"/>
     <use xlink:href="#ArialMT-20" x="1167.1875"/>
     <use xlink:href="#ArialMT-73" x="1194.970703"/>
     <use xlink:href="#ArialMT-70" x="1244.970703"/>
     <use xlink:href="#ArialMT-65" x="1300.585938"/>
     <use xlink:href="#ArialMT-63" x="1356.201172"/>
     <use xlink:href="#ArialMT-69" x="1406.201172"/>
     <use xlink:href="#ArialMT-66" x="1428.417969"/>
     <use xlink:href="#ArialMT-69" x="1456.201172"/>
     <use xlink:href="#ArialMT-63" x="1478.417969"/>
     <use xlink:href="#ArialMT-20" x="1528.417969"/>
     <use xlink:href="#ArialMT-63" x="1556.201172"/>
     <use xlink:href="#ArialMT-6f" x="1606.201172"/>
     <use xlink:href="#ArialMT-72" x="1661.816406"/>
     <use xlink:href="#ArialMT-65" x="1695.117188"/>
     <use xlink:href="#ArialMT-29" x="1750.732422"/>
     <use xlink:href="#ArialMT-3a" x="1784.033203"/>
     <use xlink:href="#ArialMT-30" x="1811.816406"/>
     <use xlink:href="#ArialMT-2e" x="1867.431641"/>
     <use xlink:href="#ArialMT-30" x="1895.214844"/>
    </g>
   </g>
   <g id="text_16">
    <!-- P_value(core vs accessory):3.1e-06 -->
    <g style="fill: #ff0000" transform="translate(147.394375 100.106025) scale(0.08 -0.08)">
     <defs>
      <path id="ArialMT-2d" d="M 203 1375 
L 203 1941 
L 1931 1941 
L 1931 1375 
L 203 1375 
z
" transform="scale(0.015625)"/>
      <path id="ArialMT-36" d="M 3184 3459 
L 2625 3416 
Q 2550 3747 2413 3897 
Q 2184 4138 1850 4138 
Q 1581 4138 1378 3988 
Q 1113 3794 959 3422 
Q 806 3050 800 2363 
Q 1003 2672 1297 2822 
Q 1591 2972 1913 2972 
Q 2475 2972 2870 2558 
Q 3266 2144 3266 1488 
Q 3266 1056 3080 686 
Q 2894 316 2569 119 
Q 2244 -78 1831 -78 
Q 1128 -78 684 439 
Q 241 956 241 2144 
Q 241 3472 731 4075 
Q 1159 4600 1884 4600 
Q 2425 4600 2770 4297 
Q 3116 3994 3184 3459 
z
M 888 1484 
Q 888 1194 1011 928 
Q 1134 663 1356 523 
Q 1578 384 1822 384 
Q 2178 384 2434 671 
Q 2691 959 2691 1453 
Q 2691 1928 2437 2201 
Q 2184 2475 1800 2475 
Q 1419 2475 1153 2201 
Q 888 1928 888 1484 
z
" transform="scale(0.015625)"/>
     </defs>
     <use xlink:href="#ArialMT-50"/>
     <use xlink:href="#ArialMT-5f" x="66.699219"/>
     <use xlink:href="#ArialMT-76" x="122.314453"/>
     <use xlink:href="#ArialMT-61" x="172.314453"/>
     <use xlink:href="#ArialMT-6c" x="227.929688"/>
     <use xlink:href="#ArialMT-75" x="250.146484"/>
     <use xlink:href="#ArialMT-65" x="305.761719"/>
     <use xlink:href="#ArialMT-28" x="361.376953"/>
     <use xlink:href="#ArialMT-63" x="394.677734"/>
     <use xlink:href="#ArialMT-6f" x="444.677734"/>
     <use xlink:href="#ArialMT-72" x="500.292969"/>
     <use xlink:href="#ArialMT-65" x="533.59375"/>
     <use xlink:href="#ArialMT-20" x="589.208984"/>
     <use xlink:href="#ArialMT-76" x="616.992188"/>
     <use xlink:href="#ArialMT-73" x="666.992188"/>
     <use xlink:href="#ArialMT-20" x="716.992188"/>
     <use xlink:href="#ArialMT-61" x="744.775391"/>
     <use xlink:href="#ArialMT-63" x="800.390625"/>
     <use xlink:href="#ArialMT-63" x="850.390625"/>
     <use xlink:href="#ArialMT-65" x="900.390625"/>
     <use xlink:href="#ArialMT-73" x="956.005859"/>
     <use xlink:href="#ArialMT-73" x="1006.005859"/>
     <use xlink:href="#ArialMT-6f" x="1056.005859"/>
     <use xlink:href="#ArialMT-72" x="1111.621094"/>
     <use xlink:href="#ArialMT-79" x="1144.921875"/>
     <use xlink:href="#ArialMT-29" x="1194.921875"/>
     <use xlink:href="#ArialMT-3a" x="1228.222656"/>
     <use xlink:href="#ArialMT-33" x="1256.005859"/>
     <use xlink:href="#ArialMT-2e" x="1311.621094"/>
     <use xlink:href="#ArialMT-31" x="1339.404297"/>
     <use xlink:href="#ArialMT-65" x="1395.019531"/>
     <use xlink:href="#ArialMT-2d" x="1450.634766"/>
     <use xlink:href="#ArialMT-30" x="1483.935547"/>
     <use xlink:href="#ArialMT-36" x="1539.550781"/>
    </g>
   </g>
   <g id="text_17">
    <!-- Mean gene copy number distribution of pan-genome -->
    <g transform="translate(28.420938 15.935625) scale(0.12 -0.12)">
     <defs>
      <path id="Arial-BoldMT-64" d="M 3503 0 
L 2688 0 
L 2688 488 
Q 2484 203 2207 64 
Q 1931 -75 1650 -75 
Q 1078 -75 670 386 
Q 263 847 263 1672 
Q 263 2516 659 2955 
Q 1056 3394 1663 3394 
Q 2219 3394 2625 2931 
L 2625 4581 
L 3503 4581 
L 3503 0 
z
M 1159 1731 
Q 1159 1200 1306 963 
Q 1519 619 1900 619 
Q 2203 619 2415 876 
Q 2628 1134 2628 1647 
Q 2628 2219 2422 2470 
Q 2216 2722 1894 2722 
Q 1581 2722 1370 2473 
Q 1159 2225 1159 1731 
z
" transform="scale(0.015625)"/>
      <path id="Arial-BoldMT-66" d="M 75 3319 
L 563 3319 
L 563 3569 
Q 563 3988 652 4194 
Q 741 4400 980 4529 
Q 1219 4659 1584 4659 
Q 1959 4659 2319 4547 
L 2200 3934 
Q 1991 3984 1797 3984 
Q 1606 3984 1523 3895 
Q 1441 3806 1441 3553 
L 1441 3319 
L 2097 3319 
L 2097 2628 
L 1441 2628 
L 1441 0 
L 563 0 
L 563 2628 
L 75 2628 
L 75 3319 
z
" transform="scale(0.015625)"/>
      <path id="Arial-BoldMT-2d" d="M 359 1222 
L 359 2100 
L 2084 2100 
L 2084 1222 
L 359 1222 
z
" transform="scale(0.015625)"/>
     </defs>
     <use xlink:href="#Arial-BoldMT-4d"/>
     <use xlink:href="#Arial-BoldMT-65" x="83.300781"/>
     <use xlink:href="#Arial-BoldMT-61" x="138.916016"/>
     <use xlink:href="#Arial-BoldMT-6e" x="194.53125"/>
     <use xlink:href="#Arial-BoldMT-20" x="255.615234"/>
     <use xlink:href="#Arial-BoldMT-67" x="283.398438"/>
     <use xlink:href="#Arial-BoldMT-65" x="344.482422"/>
     <use xlink:href="#Arial-BoldMT-6e" x="400.097656"/>
     <use xlink:href="#Arial-BoldMT-65" x="461.181641"/>
     <use xlink:href="#Arial-BoldMT-20" x="516.796875"/>
     <use xlink:href="#Arial-BoldMT-63" x="544.580078"/>
     <use xlink:href="#Arial-BoldMT-6f" x="600.195312"/>
     <use xlink:href="#Arial-BoldMT-70" x="661.279297"/>
     <use xlink:href="#Arial-BoldMT-79" x="722.363281"/>
     <use xlink:href="#Arial-BoldMT-20" x="777.978516"/>
     <use xlink:href="#Arial-BoldMT-6e" x="805.761719"/>
     <use xlink:href="#Arial-BoldMT-75" x="866.845703"/>
     <use xlink:href="#Arial-BoldMT-6d" x="927.929688"/>
     <use xlink:href="#Arial-BoldMT-62" x="1016.845703"/>
     <use xlink:href="#Arial-BoldMT-65" x="1077.929688"/>
     <use xlink:href="#Arial-BoldMT-72" x="1133.544922"/>
     <use xlink:href="#Arial-BoldMT-20" x="1172.460938"/>
     <use xlink:href="#Arial-BoldMT-64" x="1200.244141"/>
     <use xlink:href="#Arial-BoldMT-69" x="1261.328125"/>
     <use xlink:href="#Arial-BoldMT-73" x="1289.111328"/>
     <use xlink:href="#Arial-BoldMT-74" x="1344.726562"/>
     <use xlink:href="#Arial-BoldMT-72" x="1378.027344"/>
     <use xlink:href="#Arial-BoldMT-69" x="1416.943359"/>
     <use xlink:href="#Arial-BoldMT-62" x="1444.726562"/>
     <use xlink:href="#Arial-BoldMT-75" x="1505.810547"/>
     <use xlink:href="#Arial-BoldMT-74" x="1566.894531"/>
     <use xlink:href="#Arial-BoldMT-69" x="1600.195312"/>
     <use xlink:href="#Arial-BoldMT-6f" x="1627.978516"/>
     <use xlink:href="#Arial-BoldMT-6e" x="1689.0625"/>
     <use xlink:href="#Arial-BoldMT-20" x="1750.146484"/>
     <use xlink:href="#Arial-BoldMT-6f" x="1777.929688"/>
     <use xlink:href="#Arial-BoldMT-66" x="1839.013672"/>
     <use xlink:href="#Arial-BoldMT-20" x="1872.314453"/>
     <use xlink:href="#Arial-BoldMT-70" x="1900.097656"/>
     <use xlink:href="#Arial-BoldMT-61" x="1961.181641"/>
     <use xlink:href="#Arial-BoldMT-6e" x="2016.796875"/>
     <use xlink:href="#Arial-BoldMT-2d" x="2077.880859"/>
     <use xlink:href="#Arial-BoldMT-67" x="2111.181641"/>
     <use xlink:href="#Arial-BoldMT-65" x="2172.265625"/>
     <use xlink:href="#Arial-BoldMT-6e" x="2227.880859"/>
     <use xlink:href="#Arial-BoldMT-6f" x="2288.964844"/>
     <use xlink:href="#Arial-BoldMT-6d" x="2350.048828"/>
     <use xlink:href="#Arial-BoldMT-65" x="2438.964844"/>
    </g>
   </g>
   <g id="legend_1">
    <g id="patch_7">
     <path d="M 225.918125 62.475625 
L 311.984375 62.475625 
Q 313.584375 62.475625 313.584375 60.875625 
L 313.584375 27.535625 
Q 313.584375 25.935625 311.984375 25.935625 
L 225.918125 25.935625 
Q 224.318125 25.935625 224.318125 27.535625 
L 224.318125 60.875625 
Q 224.318125 62.475625 225.918125 62.475625 
z
" style="fill: #ffffff; opacity: 0.8; stroke: #cccccc; stroke-linejoin: miter"/>
    </g>
    <g id="patch_8">
     <path d="M 227.518125 34.861875 
L 243.518125 34.861875 
L 243.518125 29.261875 
L 227.518125 29.261875 
z
" style="fill: #1b9e77; fill-opacity: 0.25; stroke: #1b9e77; stroke-width: 1.5; stroke-linejoin: miter"/>
    </g>
    <g id="text_18">
     <!-- Yeast core -->
     <g transform="translate(249.918125 34.861875) scale(0.08 -0.08)">
      <defs>
       <path id="ArialMT-59" d="M 1784 0 
L 1784 1941 
L 19 4581 
L 756 4581 
L 1659 3200 
Q 1909 2813 2125 2425 
Q 2331 2784 2625 3234 
L 3513 4581 
L 4219 4581 
L 2391 1941 
L 2391 0 
L 1784 0 
z
" transform="scale(0.015625)"/>
      </defs>
      <use xlink:href="#ArialMT-59"/>
      <use xlink:href="#ArialMT-65" x="57.574219"/>
      <use xlink:href="#ArialMT-61" x="113.189453"/>
      <use xlink:href="#ArialMT-73" x="168.804688"/>
      <use xlink:href="#ArialMT-74" x="218.804688"/>
      <use xlink:href="#ArialMT-20" x="246.587891"/>
      <use xlink:href="#ArialMT-63" x="274.371094"/>
      <use xlink:href="#ArialMT-6f" x="324.371094"/>
      <use xlink:href="#ArialMT-72" x="379.986328"/>
      <use xlink:href="#ArialMT-65" x="413.287109"/>
     </g>
    </g>
    <g id="patch_9">
     <path d="M 227.518125 46.275625 
L 243.518125 46.275625 
L 243.518125 40.675625 
L 227.518125 40.675625 
z
" style="fill: #d95f02; fill-opacity: 0.25; stroke: #d95f02; stroke-width: 1.5; stroke-linejoin: miter"/>
    </g>
    <g id="text_19">
     <!-- Sce specific core -->
     <g transform="translate(249.918125 46.275625) scale(0.08 -0.08)">
      <defs>
       <path id="ArialMT-53" d="M 288 1472 
L 859 1522 
Q 900 1178 1048 958 
Q 1197 738 1509 602 
Q 1822 466 2213 466 
Q 2559 466 2825 569 
Q 3091 672 3220 851 
Q 3350 1031 3350 1244 
Q 3350 1459 3225 1620 
Q 3100 1781 2813 1891 
Q 2628 1963 1997 2114 
Q 1366 2266 1113 2400 
Q 784 2572 623 2826 
Q 463 3081 463 3397 
Q 463 3744 659 4045 
Q 856 4347 1234 4503 
Q 1613 4659 2075 4659 
Q 2584 4659 2973 4495 
Q 3363 4331 3572 4012 
Q 3781 3694 3797 3291 
L 3216 3247 
Q 3169 3681 2898 3903 
Q 2628 4125 2100 4125 
Q 1550 4125 1298 3923 
Q 1047 3722 1047 3438 
Q 1047 3191 1225 3031 
Q 1400 2872 2139 2705 
Q 2878 2538 3153 2413 
Q 3553 2228 3743 1945 
Q 3934 1663 3934 1294 
Q 3934 928 3725 604 
Q 3516 281 3123 101 
Q 2731 -78 2241 -78 
Q 1619 -78 1198 103 
Q 778 284 539 648 
Q 300 1013 288 1472 
z
" transform="scale(0.015625)"/>
      </defs>
      <use xlink:href="#ArialMT-53"/>
      <use xlink:href="#ArialMT-63" x="66.699219"/>
      <use xlink:href="#ArialMT-65" x="116.699219"/>
      <use xlink:href="#ArialMT-20" x="172.314453"/>
      <use xlink:href="#ArialMT-73" x="200.097656"/>
      <use xlink:href="#ArialMT-70" x="250.097656"/>
      <use xlink:href="#ArialMT-65" x="305.712891"/>
      <use xlink:href="#ArialMT-63" x="361.328125"/>
      <use xlink:href="#ArialMT-69" x="411.328125"/>
      <use xlink:href="#ArialMT-66" x="433.544922"/>
      <use xlink:href="#ArialMT-69" x="461.328125"/>
      <use xlink:href="#ArialMT-63" x="483.544922"/>
      <use xlink:href="#ArialMT-20" x="533.544922"/>
      <use xlink:href="#ArialMT-63" x="561.328125"/>
      <use xlink:href="#ArialMT-6f" x="611.328125"/>
      <use xlink:href="#ArialMT-72" x="666.943359"/>
      <use xlink:href="#ArialMT-65" x="700.244141"/>
     </g>
    </g>
    <g id="patch_10">
     <path d="M 227.518125 57.591875 
L 243.518125 57.591875 
L 243.518125 51.991875 
L 227.518125 51.991875 
z
" style="fill: #7570b3; fill-opacity: 0.25; stroke: #7570b3; stroke-width: 1.5; stroke-linejoin: miter"/>
    </g>
    <g id="text_20">
     <!-- Accessory -->
     <g transform="translate(249.918125 57.591875) scale(0.08 -0.08)">
      <defs>
       <path id="ArialMT-41" d="M -9 0 
L 1750 4581 
L 2403 4581 
L 4278 0 
L 3588 0 
L 3053 1388 
L 1138 1388 
L 634 0 
L -9 0 
z
M 1313 1881 
L 2866 1881 
L 2388 3150 
Q 2169 3728 2063 4100 
Q 1975 3659 1816 3225 
L 1313 1881 
z
" transform="scale(0.015625)"/>
      </defs>
      <use xlink:href="#ArialMT-41"/>
      <use xlink:href="#ArialMT-63" x="66.699219"/>
      <use xlink:href="#ArialMT-63" x="116.699219"/>
      <use xlink:href="#ArialMT-65" x="166.699219"/>
      <use xlink:href="#ArialMT-73" x="222.314453"/>
      <use xlink:href="#ArialMT-73" x="272.314453"/>
      <use xlink:href="#ArialMT-6f" x="322.314453"/>
      <use xlink:href="#ArialMT-72" x="377.929688"/>
      <use xlink:href="#ArialMT-79" x="411.230469"/>
     </g>
    </g>
   </g>
  </g>
 </g>
 <defs>
  <clipPath id="pdd830dfddc">
   <rect x="38.584375" y="21.935625" width="279" height="166.32"/>
  </clipPath>
 </defs>
</svg>
