<?xml version="1.0" encoding="utf-8" standalone="no"?>
<!DOCTYPE svg PUBLIC "-//W3C//DTD SVG 1.1//EN"
  "http://www.w3.org/Graphics/SVG/1.1/DTD/svg11.dtd">
<svg xmlns:xlink="http://www.w3.org/1999/xlink" width="329.386875pt" height="224.863438pt" viewBox="0 0 329.386875 224.863438" xmlns="http://www.w3.org/2000/svg" version="1.1">
 <metadata>
  <rdf:RDF xmlns:dc="http://purl.org/dc/elements/1.1/" xmlns:cc="http://creativecommons.org/ns#" xmlns:rdf="http://www.w3.org/1999/02/22-rdf-syntax-ns#">
   <cc:Work>
    <dc:type rdf:resource="http://purl.org/dc/dcmitype/StillImage"/>
    <dc:date>2024-05-28T18:35:18.760125</dc:date>
    <dc:format>image/svg+xml</dc:format>
    <dc:creator>
     <cc:Agent>
      <dc:title>Matplotlib v3.8.4, https://matplotlib.org/</dc:title>
     </cc:Agent>
    </dc:creator>
   </cc:Work>
  </rdf:RDF>
 </metadata>
 <defs>
  <style type="text/css">*{stroke-linejoin: round; stroke-linecap: butt}</style>
 </defs>
 <g id="figure_1">
  <g id="patch_1">
   <path d="M 0 224.863438 
L 329.386875 224.863438 
L 329.386875 0 
L 0 0 
L 0 224.863438 
z
" style="fill: none"/>
  </g>
  <g id="axes_1">
   <g id="patch_2">
    <path d="M 33.023438 188.255625 
L 312.023438 188.255625 
L 312.023438 21.935625 
L 33.023438 21.935625 
L 33.023438 188.255625 
z
" style="fill: none"/>
   </g>
   <g id="PolyCollection_1">
    <path d="M 81.448777 187.661267 
L 81.448777 188.255625 
L 84.161045 188.255625 
L 86.873312 188.255625 
L 89.58558 188.255625 
L 92.297848 188.255625 
L 95.010116 188.255625 
L 97.722384 188.255625 
L 100.434652 188.255625 
L 103.14692 188.255625 
L 105.859188 188.255625 
L 108.571456 188.255625 
L 111.283723 188.255625 
L 113.995991 188.255625 
L 116.708259 188.255625 
L 119.420527 188.255625 
L 122.132795 188.255625 
L 124.845063 188.255625 
L 127.557331 188.255625 
L 130.269599 188.255625 
L 132.981866 188.255625 
L 135.694134 188.255625 
L 138.406402 188.255625 
L 141.11867 188.255625 
L 143.830938 188.255625 
L 146.543206 188.255625 
L 149.255474 188.255625 
L 151.967742 188.255625 
L 154.68001 188.255625 
L 157.392277 188.255625 
L 160.104545 188.255625 
L 162.816813 188.255625 
L 165.529081 188.255625 
L 168.241349 188.255625 
L 170.953617 188.255625 
L 173.665885 188.255625 
L 176.378153 188.255625 
L 179.09042 188.255625 
L 181.802688 188.255625 
L 184.514956 188.255625 
L 187.227224 188.255625 
L 189.939492 188.255625 
L 192.65176 188.255625 
L 195.364028 188.255625 
L 198.076296 188.255625 
L 200.788563 188.255625 
L 203.500831 188.255625 
L 206.213099 188.255625 
L 208.925367 188.255625 
L 211.637635 188.255625 
L 214.349903 188.255625 
L 217.062171 188.255625 
L 219.774439 188.255625 
L 222.486707 188.255625 
L 225.198974 188.255625 
L 227.911242 188.255625 
L 230.62351 188.255625 
L 233.335778 188.255625 
L 236.048046 188.255625 
L 238.760314 188.255625 
L 241.472582 188.255625 
L 244.18485 188.255625 
L 246.897117 188.255625 
L 249.609385 188.255625 
L 252.321653 188.255625 
L 255.033921 188.255625 
L 257.746189 188.255625 
L 260.458457 188.255625 
L 263.170725 188.255625 
L 265.882993 188.255625 
L 268.59526 188.255625 
L 271.307528 188.255625 
L 274.019796 188.255625 
L 276.732064 188.255625 
L 279.444332 188.255625 
L 282.1566 188.255625 
L 284.868868 188.255625 
L 287.581136 188.255625 
L 290.293404 188.255625 
L 293.005671 188.255625 
L 295.717939 188.255625 
L 298.430207 188.255625 
L 301.142475 188.255625 
L 303.854743 188.255625 
L 306.567011 188.255625 
L 309.279279 188.255625 
L 311.991547 188.255625 
L 314.703814 188.255625 
L 317.416082 188.255625 
L 320.12835 188.255625 
L 322.840618 188.255625 
L 325.552886 188.255625 
L 328.265154 188.255625 
L 330.977422 188.255625 
L 333.68969 188.255625 
L 336.401957 188.255625 
L 339.114225 188.255625 
L 341.826493 188.255625 
L 344.538761 188.255625 
L 347.251029 188.255625 
L 349.963297 188.255625 
L 352.675565 188.255625 
L 355.387833 188.255625 
L 358.100101 188.255625 
L 360.812368 188.255625 
L 363.524636 188.255625 
L 366.236904 188.255625 
L 368.949172 188.255625 
L 371.66144 188.255625 
L 374.373708 188.255625 
L 377.085976 188.255625 
L 379.798244 188.255625 
L 382.510511 188.255625 
L 385.222779 188.255625 
L 387.935047 188.255625 
L 390.647315 188.255625 
L 393.359583 188.255625 
L 396.071851 188.255625 
L 398.784119 188.255625 
L 401.496387 188.255625 
L 404.208654 188.255625 
L 406.920922 188.255625 
L 409.63319 188.255625 
L 412.345458 188.255625 
L 415.057726 188.255625 
L 417.769994 188.255625 
L 420.482262 188.255625 
L 423.19453 188.255625 
L 425.906798 188.255625 
L 428.619065 188.255625 
L 431.331333 188.255625 
L 434.043601 188.255625 
L 436.755869 188.255625 
L 439.468137 188.255625 
L 442.180405 188.255625 
L 444.892673 188.255625 
L 447.604941 188.255625 
L 450.317208 188.255625 
L 453.029476 188.255625 
L 455.741744 188.255625 
L 458.454012 188.255625 
L 461.16628 188.255625 
L 463.878548 188.255625 
L 466.590816 188.255625 
L 469.303084 188.255625 
L 472.015351 188.255625 
L 474.727619 188.255625 
L 477.439887 188.255625 
L 480.152155 188.255625 
L 482.864423 188.255625 
L 485.576691 188.255625 
L 488.288959 188.255625 
L 491.001227 188.255625 
L 493.713495 188.255625 
L 496.425762 188.255625 
L 499.13803 188.255625 
L 501.850298 188.255625 
L 504.562566 188.255625 
L 507.274834 188.255625 
L 509.987102 188.255625 
L 512.69937 188.255625 
L 515.411638 188.255625 
L 518.123905 188.255625 
L 520.836173 188.255625 
L 523.548441 188.255625 
L 526.260709 188.255625 
L 528.972977 188.255625 
L 531.685245 188.255625 
L 534.397513 188.255625 
L 537.109781 188.255625 
L 539.822048 188.255625 
L 542.534316 188.255625 
L 545.246584 188.255625 
L 547.958852 188.255625 
L 550.67112 188.255625 
L 553.383388 188.255625 
L 556.095656 188.255625 
L 558.807924 188.255625 
L 561.520192 188.255625 
L 564.232459 188.255625 
L 566.944727 188.255625 
L 569.656995 188.255625 
L 572.369263 188.255625 
L 575.081531 188.255625 
L 577.793799 188.255625 
L 580.506067 188.255625 
L 583.218335 188.255625 
L 585.930602 188.255625 
L 588.64287 188.255625 
L 591.355138 188.255625 
L 594.067406 188.255625 
L 596.779674 188.255625 
L 599.491942 188.255625 
L 602.20421 188.255625 
L 604.916478 188.255625 
L 607.628746 188.255625 
L 610.341013 188.255625 
L 613.053281 188.255625 
L 615.765549 188.255625 
L 618.477817 188.255625 
L 621.190085 188.255625 
L 621.190085 188.254943 
L 621.190085 188.254943 
L 618.477817 188.245461 
L 615.765549 188.210795 
L 613.053281 188.197099 
L 610.341013 188.233008 
L 607.628746 188.253038 
L 604.916478 188.255537 
L 602.20421 188.255624 
L 599.491942 188.255625 
L 596.779674 188.255625 
L 594.067406 188.255625 
L 591.355138 188.255625 
L 588.64287 188.255625 
L 585.930602 188.255625 
L 583.218335 188.255625 
L 580.506067 188.255625 
L 577.793799 188.255625 
L 575.081531 188.255625 
L 572.369263 188.255625 
L 569.656995 188.255625 
L 566.944727 188.255625 
L 564.232459 188.255625 
L 561.520192 188.255625 
L 558.807924 188.255625 
L 556.095656 188.255625 
L 553.383388 188.255625 
L 550.67112 188.255625 
L 547.958852 188.255625 
L 545.246584 188.255625 
L 542.534316 188.255625 
L 539.822048 188.255625 
L 537.109781 188.255625 
L 534.397513 188.255625 
L 531.685245 188.255625 
L 528.972977 188.255625 
L 526.260709 188.255625 
L 523.548441 188.255625 
L 520.836173 188.255625 
L 518.123905 188.255625 
L 515.411638 188.255625 
L 512.69937 188.255625 
L 509.987102 188.255625 
L 507.274834 188.255625 
L 504.562566 188.255625 
L 501.850298 188.255625 
L 499.13803 188.255625 
L 496.425762 188.255625 
L 493.713495 188.255625 
L 491.001227 188.255625 
L 488.288959 188.255625 
L 485.576691 188.255625 
L 482.864423 188.255625 
L 480.152155 188.255625 
L 477.439887 188.255625 
L 474.727619 188.255625 
L 472.015351 188.255625 
L 469.303084 188.255625 
L 466.590816 188.255625 
L 463.878548 188.255625 
L 461.16628 188.255625 
L 458.454012 188.255625 
L 455.741744 188.255625 
L 453.029476 188.255625 
L 450.317208 188.255625 
L 447.604941 188.255625 
L 444.892673 188.255625 
L 442.180405 188.255625 
L 439.468137 188.255625 
L 436.755869 188.255625 
L 434.043601 188.255625 
L 431.331333 188.255625 
L 428.619065 188.255625 
L 425.906798 188.255625 
L 423.19453 188.255625 
L 420.482262 188.255625 
L 417.769994 188.255625 
L 415.057726 188.255625 
L 412.345458 188.255625 
L 409.63319 188.255625 
L 406.920922 188.255625 
L 404.208654 188.255625 
L 401.496387 188.255625 
L 398.784119 188.255625 
L 396.071851 188.255625 
L 393.359583 188.255625 
L 390.647315 188.255625 
L 387.935047 188.255625 
L 385.222779 188.255625 
L 382.510511 188.255625 
L 379.798244 188.255625 
L 377.085976 188.255625 
L 374.373708 188.255625 
L 371.66144 188.255625 
L 368.949172 188.255625 
L 366.236904 188.255625 
L 363.524636 188.255625 
L 360.812368 188.255625 
L 358.100101 188.255625 
L 355.387833 188.255625 
L 352.675565 188.255625 
L 349.963297 188.255625 
L 347.251029 188.255625 
L 344.538761 188.255625 
L 341.826493 188.255625 
L 339.114225 188.255625 
L 336.401957 188.255625 
L 333.68969 188.255625 
L 330.977422 188.255625 
L 328.265154 188.255625 
L 325.552886 188.255625 
L 322.840618 188.255625 
L 320.12835 188.255625 
L 317.416082 188.255625 
L 314.703814 188.255625 
L 311.991547 188.255625 
L 309.279279 188.255625 
L 306.567011 188.255625 
L 303.854743 188.255625 
L 301.142475 188.255625 
L 298.430207 188.255625 
L 295.717939 188.255625 
L 293.005671 188.255625 
L 290.293404 188.255625 
L 287.581136 188.255625 
L 284.868868 188.255625 
L 282.1566 188.255625 
L 279.444332 188.255625 
L 276.732064 188.255625 
L 274.019796 188.255625 
L 271.307528 188.255625 
L 268.59526 188.255625 
L 265.882993 188.255625 
L 263.170725 188.255625 
L 260.458457 188.255625 
L 257.746189 188.255625 
L 255.033921 188.255625 
L 252.321653 188.255625 
L 249.609385 188.255625 
L 246.897117 188.255625 
L 244.18485 188.255625 
L 241.472582 188.255625 
L 238.760314 188.255625 
L 236.048046 188.255625 
L 233.335778 188.255625 
L 230.62351 188.255625 
L 227.911242 188.255625 
L 225.198974 188.255625 
L 222.486707 188.255625 
L 219.774439 188.255625 
L 217.062171 188.255625 
L 214.349903 188.255622 
L 211.637635 188.255375 
L 208.925367 188.250342 
L 206.213099 188.222519 
L 203.500831 188.194219 
L 200.788563 188.221911 
L 198.076296 188.250146 
L 195.364028 188.255361 
L 192.65176 188.255621 
L 189.939492 188.255625 
L 187.227224 188.255625 
L 184.514956 188.255625 
L 181.802688 188.255625 
L 179.09042 188.255625 
L 176.378153 188.255625 
L 173.665885 188.255625 
L 170.953617 188.255625 
L 168.241349 188.255625 
L 165.529081 188.255625 
L 162.816813 188.255625 
L 160.104545 188.25562 
L 157.392277 188.255135 
L 154.68001 188.239226 
L 151.967742 188.051858 
L 149.255474 187.248848 
L 146.543206 186.23252 
L 143.830938 186.629987 
L 141.11867 187.751123 
L 138.406402 188.197829 
L 135.694134 188.253295 
L 132.981866 188.255593 
L 130.269599 188.255625 
L 127.557331 188.255625 
L 124.845063 188.255625 
L 122.132795 188.255599 
L 119.420527 188.254533 
L 116.708259 188.242007 
L 113.995991 188.205341 
L 111.283723 188.200667 
L 108.571456 188.237845 
L 105.859188 188.253898 
L 103.14692 188.253328 
L 100.434652 188.149756 
L 97.722384 185.694354 
L 95.010116 161.15962 
L 92.297848 78.183404 
L 89.58558 29.855625 
L 86.873312 111.678116 
L 84.161045 176.258517 
L 81.448777 187.661267 
z
" clip-path="url(#pf12dd160bf)" style="fill: #1b9e77; fill-opacity: 0.25; stroke: #1b9e77; stroke-width: 1.5"/>
   </g>
   <g id="PolyCollection_2">
    <defs>
     <path id="m4420119cc4" d="M 80.870515 -37.239329 
L 80.870515 -36.607813 
L 81.815082 -36.607813 
L 82.759648 -36.607813 
L 83.704214 -36.607813 
L 84.648781 -36.607813 
L 85.593347 -36.607813 
L 86.537914 -36.607813 
L 87.48248 -36.607813 
L 88.427046 -36.607813 
L 89.371613 -36.607813 
L 90.316179 -36.607813 
L 91.260746 -36.607813 
L 92.205312 -36.607813 
L 93.149878 -36.607813 
L 94.094445 -36.607813 
L 95.039011 -36.607813 
L 95.983578 -36.607813 
L 96.928144 -36.607813 
L 97.87271 -36.607813 
L 98.817277 -36.607813 
L 99.761843 -36.607813 
L 100.706409 -36.607813 
L 101.650976 -36.607813 
L 102.595542 -36.607813 
L 103.540109 -36.607813 
L 104.484675 -36.607813 
L 105.429241 -36.607813 
L 106.373808 -36.607813 
L 107.318374 -36.607813 
L 108.262941 -36.607813 
L 109.207507 -36.607813 
L 110.152073 -36.607813 
L 111.09664 -36.607813 
L 112.041206 -36.607813 
L 112.985772 -36.607813 
L 113.930339 -36.607813 
L 114.874905 -36.607813 
L 115.819472 -36.607813 
L 116.764038 -36.607813 
L 117.708604 -36.607813 
L 118.653171 -36.607813 
L 119.597737 -36.607813 
L 120.542304 -36.607813 
L 121.48687 -36.607813 
L 122.431436 -36.607813 
L 123.376003 -36.607813 
L 124.320569 -36.607813 
L 125.265136 -36.607813 
L 126.209702 -36.607813 
L 127.154268 -36.607813 
L 128.098835 -36.607813 
L 129.043401 -36.607813 
L 129.987967 -36.607813 
L 130.932534 -36.607813 
L 131.8771 -36.607813 
L 132.821667 -36.607813 
L 133.766233 -36.607813 
L 134.710799 -36.607813 
L 135.655366 -36.607813 
L 136.599932 -36.607813 
L 137.544499 -36.607813 
L 138.489065 -36.607813 
L 139.433631 -36.607813 
L 140.378198 -36.607813 
L 141.322764 -36.607813 
L 142.26733 -36.607813 
L 143.211897 -36.607813 
L 144.156463 -36.607813 
L 145.10103 -36.607813 
L 146.045596 -36.607813 
L 146.990162 -36.607813 
L 147.934729 -36.607813 
L 148.879295 -36.607813 
L 149.823862 -36.607813 
L 150.768428 -36.607813 
L 151.712994 -36.607813 
L 152.657561 -36.607813 
L 153.602127 -36.607813 
L 154.546693 -36.607813 
L 155.49126 -36.607813 
L 156.435826 -36.607813 
L 157.380393 -36.607813 
L 158.324959 -36.607813 
L 159.269525 -36.607813 
L 160.214092 -36.607813 
L 161.158658 -36.607813 
L 162.103225 -36.607813 
L 163.047791 -36.607813 
L 163.992357 -36.607813 
L 164.936924 -36.607813 
L 165.88149 -36.607813 
L 166.826057 -36.607813 
L 167.770623 -36.607813 
L 168.715189 -36.607813 
L 169.659756 -36.607813 
L 170.604322 -36.607813 
L 171.548888 -36.607813 
L 172.493455 -36.607813 
L 173.438021 -36.607813 
L 174.382588 -36.607813 
L 175.327154 -36.607813 
L 176.27172 -36.607813 
L 177.216287 -36.607813 
L 178.160853 -36.607813 
L 179.10542 -36.607813 
L 180.049986 -36.607813 
L 180.994552 -36.607813 
L 181.939119 -36.607813 
L 182.883685 -36.607813 
L 183.828251 -36.607813 
L 184.772818 -36.607813 
L 185.717384 -36.607813 
L 186.661951 -36.607813 
L 187.606517 -36.607813 
L 188.551083 -36.607813 
L 189.49565 -36.607813 
L 190.440216 -36.607813 
L 191.384783 -36.607813 
L 192.329349 -36.607813 
L 193.273915 -36.607813 
L 194.218482 -36.607813 
L 195.163048 -36.607813 
L 196.107615 -36.607813 
L 197.052181 -36.607813 
L 197.996747 -36.607813 
L 198.941314 -36.607813 
L 199.88588 -36.607813 
L 200.830446 -36.607813 
L 201.775013 -36.607813 
L 202.719579 -36.607813 
L 203.664146 -36.607813 
L 204.608712 -36.607813 
L 205.553278 -36.607813 
L 206.497845 -36.607813 
L 207.442411 -36.607813 
L 208.386978 -36.607813 
L 209.331544 -36.607813 
L 210.27611 -36.607813 
L 211.220677 -36.607813 
L 212.165243 -36.607813 
L 213.109809 -36.607813 
L 214.054376 -36.607813 
L 214.998942 -36.607813 
L 215.943509 -36.607813 
L 216.888075 -36.607813 
L 217.832641 -36.607813 
L 218.777208 -36.607813 
L 219.721774 -36.607813 
L 220.666341 -36.607813 
L 221.610907 -36.607813 
L 222.555473 -36.607813 
L 223.50004 -36.607813 
L 224.444606 -36.607813 
L 225.389173 -36.607813 
L 226.333739 -36.607813 
L 227.278305 -36.607813 
L 228.222872 -36.607813 
L 229.167438 -36.607813 
L 230.112004 -36.607813 
L 231.056571 -36.607813 
L 232.001137 -36.607813 
L 232.945704 -36.607813 
L 233.89027 -36.607813 
L 234.834836 -36.607813 
L 235.779403 -36.607813 
L 236.723969 -36.607813 
L 237.668536 -36.607813 
L 238.613102 -36.607813 
L 239.557668 -36.607813 
L 240.502235 -36.607813 
L 241.446801 -36.607813 
L 242.391367 -36.607813 
L 243.335934 -36.607813 
L 244.2805 -36.607813 
L 245.225067 -36.607813 
L 246.169633 -36.607813 
L 247.114199 -36.607813 
L 248.058766 -36.607813 
L 249.003332 -36.607813 
L 249.947899 -36.607813 
L 250.892465 -36.607813 
L 251.837031 -36.607813 
L 252.781598 -36.607813 
L 253.726164 -36.607813 
L 254.67073 -36.607813 
L 255.615297 -36.607813 
L 256.559863 -36.607813 
L 257.50443 -36.607813 
L 258.448996 -36.607813 
L 259.393562 -36.607813 
L 260.338129 -36.607813 
L 261.282695 -36.607813 
L 262.227262 -36.607813 
L 263.171828 -36.607813 
L 264.116394 -36.607813 
L 265.060961 -36.607813 
L 266.005527 -36.607813 
L 266.950094 -36.607813 
L 267.89466 -36.607813 
L 268.839226 -36.607813 
L 268.839226 -36.608728 
L 268.839226 -36.608728 
L 267.89466 -36.610316 
L 266.950094 -36.613838 
L 266.005527 -36.620589 
L 265.060961 -36.631672 
L 264.116394 -36.647058 
L 263.171828 -36.664667 
L 262.227262 -36.680357 
L 261.282695 -36.689342 
L 260.338129 -36.688514 
L 259.393562 -36.678171 
L 258.448996 -36.66184 
L 257.50443 -36.644353 
L 256.559863 -36.62958 
L 255.615297 -36.619233 
L 254.67073 -36.61309 
L 253.726164 -36.609961 
L 252.781598 -36.608583 
L 251.837031 -36.608056 
L 250.892465 -36.60788 
L 249.947899 -36.607829 
L 249.003332 -36.607816 
L 248.058766 -36.607813 
L 247.114199 -36.607813 
L 246.169633 -36.607813 
L 245.225067 -36.607813 
L 244.2805 -36.607813 
L 243.335934 -36.607813 
L 242.391367 -36.607813 
L 241.446801 -36.607813 
L 240.502235 -36.607813 
L 239.557668 -36.607813 
L 238.613102 -36.607813 
L 237.668536 -36.607813 
L 236.723969 -36.607813 
L 235.779403 -36.607813 
L 234.834836 -36.607813 
L 233.89027 -36.607813 
L 232.945704 -36.607813 
L 232.001137 -36.607813 
L 231.056571 -36.607813 
L 230.112004 -36.607813 
L 229.167438 -36.607813 
L 228.222872 -36.607813 
L 227.278305 -36.607813 
L 226.333739 -36.607813 
L 225.389173 -36.607813 
L 224.444606 -36.607813 
L 223.50004 -36.607813 
L 222.555473 -36.607813 
L 221.610907 -36.607813 
L 220.666341 -36.607813 
L 219.721774 -36.607813 
L 218.777208 -36.607813 
L 217.832641 -36.607813 
L 216.888075 -36.607815 
L 215.943509 -36.607823 
L 214.998942 -36.607858 
L 214.054376 -36.607985 
L 213.109809 -36.608392 
L 212.165243 -36.609541 
L 211.220677 -36.612376 
L 210.27611 -36.618493 
L 209.331544 -36.630001 
L 208.386978 -36.64878 
L 207.442411 -36.675131 
L 206.497845 -36.706398 
L 205.553278 -36.736697 
L 204.608712 -36.758584 
L 203.664146 -36.766321 
L 202.719579 -36.758989 
L 201.775013 -36.741355 
L 200.830446 -36.72163 
L 199.88588 -36.707309 
L 198.941314 -36.701604 
L 197.996747 -36.702671 
L 197.052181 -36.705941 
L 196.107615 -36.707728 
L 195.163048 -36.70738 
L 194.218482 -36.706504 
L 193.273915 -36.706287 
L 192.329349 -36.705531 
L 191.384783 -36.70123 
L 190.440216 -36.691072 
L 189.49565 -36.67559 
L 188.551083 -36.658255 
L 187.606517 -36.643767 
L 186.661951 -36.63605 
L 185.717384 -36.637077 
L 184.772818 -36.646464 
L 183.828251 -36.66142 
L 182.883685 -36.677113 
L 181.939119 -36.687963 
L 180.994552 -36.689798 
L 180.049986 -36.681756 
L 179.10542 -36.666568 
L 178.160853 -36.648936 
L 177.216287 -36.633164 
L 176.27172 -36.621578 
L 175.327154 -36.614396 
L 174.382588 -36.610585 
L 173.438021 -36.608841 
L 172.493455 -36.608149 
L 171.548888 -36.607909 
L 170.604322 -36.607837 
L 169.659756 -36.607818 
L 168.715189 -36.607814 
L 167.770623 -36.607813 
L 166.826057 -36.607813 
L 165.88149 -36.607813 
L 164.936924 -36.607813 
L 163.992357 -36.607813 
L 163.047791 -36.607814 
L 162.103225 -36.607819 
L 161.158658 -36.607843 
L 160.214092 -36.60795 
L 159.269525 -36.608365 
L 158.324959 -36.609814 
L 157.380393 -36.61435 
L 156.435826 -36.627098 
L 155.49126 -36.659269 
L 154.546693 -36.732154 
L 153.602127 -36.880205 
L 152.657561 -37.149248 
L 151.712994 -37.585032 
L 150.768428 -38.210344 
L 149.823862 -38.996845 
L 148.879295 -39.846781 
L 147.934729 -40.602132 
L 146.990162 -41.088088 
L 146.045596 -41.177118 
L 145.10103 -40.842562 
L 144.156463 -40.171508 
L 143.211897 -39.328554 
L 142.26733 -38.490775 
L 141.322764 -37.788913 
L 140.378198 -37.280951 
L 139.433631 -36.960984 
L 138.489065 -36.787275 
L 137.544499 -36.709768 
L 136.599932 -36.686089 
L 135.655366 -36.686142 
L 134.710799 -36.690885 
L 133.766233 -36.690141 
L 132.821667 -36.680868 
L 131.8771 -36.665168 
L 130.932534 -36.647537 
L 129.987967 -36.632118 
L 129.043401 -36.621139 
L 128.098835 -36.614944 
L 127.154268 -36.613023 
L 126.209702 -36.615074 
L 125.265136 -36.621417 
L 124.320569 -36.632552 
L 123.376003 -36.648082 
L 122.431436 -36.665692 
L 121.48687 -36.681113 
L 120.542304 -36.689579 
L 119.597737 -36.688149 
L 118.653171 -36.677333 
L 117.708604 -36.660801 
L 116.764038 -36.643385 
L 115.819472 -36.628846 
L 114.874905 -36.618766 
L 113.930339 -36.612837 
L 112.985772 -36.609842 
L 112.041206 -36.608535 
L 111.09664 -36.608039 
L 110.152073 -36.607875 
L 109.207507 -36.607829 
L 108.262941 -36.607823 
L 107.318374 -36.607852 
L 106.373808 -36.60799 
L 105.429241 -36.608531 
L 104.484675 -36.610433 
L 103.540109 -36.6165 
L 102.595542 -36.6344 
L 101.650976 -36.684272 
L 100.706409 -36.817738 
L 99.761843 -37.162573 
L 98.817277 -38.014508 
L 97.87271 -39.989269 
L 96.928144 -44.196658 
L 95.983578 -52.291141 
L 95.039011 -66.14652 
L 94.094445 -86.951474 
L 93.149878 -113.882422 
L 92.205312 -143.08687 
L 91.260746 -168.013933 
L 90.316179 -181.58761 
L 89.371613 -179.395792 
L 88.427046 -161.981503 
L 87.48248 -134.63629 
L 86.537914 -104.791393 
L 85.593347 -78.756453 
L 84.648781 -59.744336 
L 83.704214 -47.877059 
L 82.759648 -41.475014 
L 81.815082 -38.470705 
L 80.870515 -37.239329 
z
" style="stroke: #d95f02; stroke-width: 1.5"/>
    </defs>
    <g clip-path="url(#pf12dd160bf)">
     <use xlink:href="#m4420119cc4" x="0" y="224.863438" style="fill: #d95f02; fill-opacity: 0.25; stroke: #d95f02; stroke-width: 1.5"/>
    </g>
   </g>
   <g id="PolyCollection_3">
    <path d="M 73.194055 187.624184 
L 73.194055 188.255625 
L 77.46379 188.255625 
L 81.733525 188.255625 
L 86.00326 188.255625 
L 90.272995 188.255625 
L 94.54273 188.255625 
L 98.812465 188.255625 
L 103.0822 188.255625 
L 107.351935 188.255625 
L 111.62167 188.255625 
L 115.891405 188.255625 
L 120.16114 188.255625 
L 124.430874 188.255625 
L 128.700609 188.255625 
L 132.970344 188.255625 
L 137.240079 188.255625 
L 141.509814 188.255625 
L 145.779549 188.255625 
L 150.049284 188.255625 
L 154.319019 188.255625 
L 158.588754 188.255625 
L 162.858489 188.255625 
L 167.128224 188.255625 
L 171.397959 188.255625 
L 175.667694 188.255625 
L 179.937429 188.255625 
L 184.207164 188.255625 
L 188.476899 188.255625 
L 192.746634 188.255625 
L 197.016368 188.255625 
L 201.286103 188.255625 
L 205.555838 188.255625 
L 209.825573 188.255625 
L 214.095308 188.255625 
L 218.365043 188.255625 
L 222.634778 188.255625 
L 226.904513 188.255625 
L 231.174248 188.255625 
L 235.443983 188.255625 
L 239.713718 188.255625 
L 243.983453 188.255625 
L 248.253188 188.255625 
L 252.522923 188.255625 
L 256.792658 188.255625 
L 261.062393 188.255625 
L 265.332128 188.255625 
L 269.601863 188.255625 
L 273.871597 188.255625 
L 278.141332 188.255625 
L 282.411067 188.255625 
L 286.680802 188.255625 
L 290.950537 188.255625 
L 295.220272 188.255625 
L 299.490007 188.255625 
L 303.759742 188.255625 
L 308.029477 188.255625 
L 312.299212 188.255625 
L 316.568947 188.255625 
L 320.838682 188.255625 
L 325.108417 188.255625 
L 329.378152 188.255625 
L 333.647887 188.255625 
L 337.917622 188.255625 
L 342.187357 188.255625 
L 346.457092 188.255625 
L 350.726826 188.255625 
L 354.996561 188.255625 
L 359.266296 188.255625 
L 363.536031 188.255625 
L 367.805766 188.255625 
L 372.075501 188.255625 
L 376.345236 188.255625 
L 380.614971 188.255625 
L 384.884706 188.255625 
L 389.154441 188.255625 
L 393.424176 188.255625 
L 397.693911 188.255625 
L 401.963646 188.255625 
L 406.233381 188.255625 
L 410.503116 188.255625 
L 414.772851 188.255625 
L 419.042586 188.255625 
L 423.312321 188.255625 
L 427.582055 188.255625 
L 431.85179 188.255625 
L 436.121525 188.255625 
L 440.39126 188.255625 
L 444.660995 188.255625 
L 448.93073 188.255625 
L 453.200465 188.255625 
L 457.4702 188.255625 
L 461.739935 188.255625 
L 466.00967 188.255625 
L 470.279405 188.255625 
L 474.54914 188.255625 
L 478.818875 188.255625 
L 483.08861 188.255625 
L 487.358345 188.255625 
L 491.62808 188.255625 
L 495.897815 188.255625 
L 500.16755 188.255625 
L 504.437284 188.255625 
L 508.707019 188.255625 
L 512.976754 188.255625 
L 517.246489 188.255625 
L 521.516224 188.255625 
L 525.785959 188.255625 
L 530.055694 188.255625 
L 534.325429 188.255625 
L 538.595164 188.255625 
L 542.864899 188.255625 
L 547.134634 188.255625 
L 551.404369 188.255625 
L 555.674104 188.255625 
L 559.943839 188.255625 
L 564.213574 188.255625 
L 568.483309 188.255625 
L 572.753044 188.255625 
L 577.022778 188.255625 
L 581.292513 188.255625 
L 585.562248 188.255625 
L 589.831983 188.255625 
L 594.101718 188.255625 
L 598.371453 188.255625 
L 602.641188 188.255625 
L 606.910923 188.255625 
L 611.180658 188.255625 
L 615.450393 188.255625 
L 619.720128 188.255625 
L 623.989863 188.255625 
L 628.259598 188.255625 
L 632.529333 188.255625 
L 636.799068 188.255625 
L 641.068803 188.255625 
L 645.338538 188.255625 
L 649.608273 188.255625 
L 653.878007 188.255625 
L 658.147742 188.255625 
L 662.417477 188.255625 
L 666.687212 188.255625 
L 670.956947 188.255625 
L 675.226682 188.255625 
L 679.496417 188.255625 
L 683.766152 188.255625 
L 688.035887 188.255625 
L 692.305622 188.255625 
L 696.575357 188.255625 
L 700.845092 188.255625 
L 705.114827 188.255625 
L 709.384562 188.255625 
L 713.654297 188.255625 
L 717.924032 188.255625 
L 722.193767 188.255625 
L 726.463502 188.255625 
L 730.733236 188.255625 
L 735.002971 188.255625 
L 739.272706 188.255625 
L 743.542441 188.255625 
L 747.812176 188.255625 
L 752.081911 188.255625 
L 756.351646 188.255625 
L 760.621381 188.255625 
L 764.891116 188.255625 
L 769.160851 188.255625 
L 773.430586 188.255625 
L 777.700321 188.255625 
L 781.970056 188.255625 
L 786.239791 188.255625 
L 790.509526 188.255625 
L 794.779261 188.255625 
L 799.048996 188.255625 
L 803.318731 188.255625 
L 807.588465 188.255625 
L 811.8582 188.255625 
L 816.127935 188.255625 
L 820.39767 188.255625 
L 824.667405 188.255625 
L 828.93714 188.255625 
L 833.206875 188.255625 
L 837.47661 188.255625 
L 841.746345 188.255625 
L 846.01608 188.255625 
L 850.285815 188.255625 
L 854.55555 188.255625 
L 858.825285 188.255625 
L 863.09502 188.255625 
L 867.364755 188.255625 
L 871.63449 188.255625 
L 875.904225 188.255625 
L 880.17396 188.255625 
L 884.443694 188.255625 
L 888.713429 188.255625 
L 892.983164 188.255625 
L 897.252899 188.255625 
L 901.522634 188.255625 
L 905.792369 188.255625 
L 910.062104 188.255625 
L 914.331839 188.255625 
L 918.601574 188.255625 
L 922.871309 188.255625 
L 922.871309 188.255295 
L 922.871309 188.255295 
L 918.601574 188.252866 
L 914.331839 188.24385 
L 910.062104 188.229952 
L 905.792369 188.22703 
L 901.522634 188.239354 
L 897.252899 188.250896 
L 892.983164 188.254923 
L 888.713429 188.255572 
L 884.443694 188.255623 
L 880.17396 188.255625 
L 875.904225 188.255625 
L 871.63449 188.255625 
L 867.364755 188.255625 
L 863.09502 188.255625 
L 858.825285 188.255625 
L 854.55555 188.255625 
L 850.285815 188.255625 
L 846.01608 188.255625 
L 841.746345 188.255625 
L 837.47661 188.255625 
L 833.206875 188.255625 
L 828.93714 188.255625 
L 824.667405 188.255625 
L 820.39767 188.255625 
L 816.127935 188.255625 
L 811.8582 188.255625 
L 807.588465 188.255625 
L 803.318731 188.255625 
L 799.048996 188.255625 
L 794.779261 188.255625 
L 790.509526 188.255625 
L 786.239791 188.255625 
L 781.970056 188.255625 
L 777.700321 188.255625 
L 773.430586 188.255625 
L 769.160851 188.255625 
L 764.891116 188.255625 
L 760.621381 188.255625 
L 756.351646 188.255625 
L 752.081911 188.255625 
L 747.812176 188.255625 
L 743.542441 188.255625 
L 739.272706 188.255625 
L 735.002971 188.255625 
L 730.733236 188.255625 
L 726.463502 188.255625 
L 722.193767 188.255625 
L 717.924032 188.255625 
L 713.654297 188.255625 
L 709.384562 188.255625 
L 705.114827 188.255625 
L 700.845092 188.255625 
L 696.575357 188.255625 
L 692.305622 188.255625 
L 688.035887 188.255625 
L 683.766152 188.255625 
L 679.496417 188.255625 
L 675.226682 188.255625 
L 670.956947 188.255625 
L 666.687212 188.255625 
L 662.417477 188.255625 
L 658.147742 188.255625 
L 653.878007 188.255625 
L 649.608273 188.255625 
L 645.338538 188.255625 
L 641.068803 188.255625 
L 636.799068 188.255625 
L 632.529333 188.255625 
L 628.259598 188.255625 
L 623.989863 188.255625 
L 619.720128 188.255625 
L 615.450393 188.255625 
L 611.180658 188.255625 
L 606.910923 188.255625 
L 602.641188 188.255625 
L 598.371453 188.255625 
L 594.101718 188.255625 
L 589.831983 188.255625 
L 585.562248 188.255624 
L 581.292513 188.255603 
L 577.022778 188.255273 
L 572.753044 188.252737 
L 568.483309 188.24351 
L 564.213574 188.229663 
L 559.943839 188.227204 
L 555.674104 188.239731 
L 551.404369 188.251084 
L 547.134634 188.254962 
L 542.864899 188.255576 
L 538.595164 188.255623 
L 534.325429 188.255625 
L 530.055694 188.255625 
L 525.785959 188.255625 
L 521.516224 188.255625 
L 517.246489 188.255625 
L 512.976754 188.255625 
L 508.707019 188.255625 
L 504.437284 188.255625 
L 500.16755 188.255625 
L 495.897815 188.255623 
L 491.62808 188.255579 
L 487.358345 188.254996 
L 483.08861 188.251249 
L 478.818875 188.240068 
L 474.54914 188.22737 
L 470.279405 188.22941 
L 466.00967 188.243199 
L 461.739935 188.252616 
L 457.4702 188.255253 
L 453.200465 188.255601 
L 448.93073 188.255624 
L 444.660995 188.255625 
L 440.39126 188.255625 
L 436.121525 188.255625 
L 431.85179 188.255625 
L 427.582055 188.255625 
L 423.312321 188.255625 
L 419.042586 188.255625 
L 414.772851 188.255625 
L 410.503116 188.255625 
L 406.233381 188.255625 
L 401.963646 188.255625 
L 397.693911 188.255625 
L 393.424176 188.255625 
L 389.154441 188.255625 
L 384.884706 188.255625 
L 380.614971 188.255625 
L 376.345236 188.255625 
L 372.075501 188.255624 
L 367.805766 188.25559 
L 363.536031 188.255121 
L 359.266296 188.251883 
L 354.996561 188.241439 
L 350.726826 188.228151 
L 346.457092 188.228423 
L 342.187357 188.241555 
L 337.917622 188.249313 
L 333.647887 188.243367 
L 329.378152 188.229908 
L 325.108417 188.227036 
L 320.838682 188.239371 
L 316.568947 188.250904 
L 312.299212 188.254925 
L 308.029477 188.255571 
L 303.759742 188.255596 
L 299.490007 188.255208 
L 295.220272 188.252359 
L 290.950537 188.242557 
L 286.680802 188.228916 
L 282.411067 188.227737 
L 278.141332 188.24075 
L 273.871597 188.251567 
L 269.601863 188.254955 
L 265.332128 188.254332 
L 261.062393 188.247749 
L 256.792658 188.228926 
L 252.522923 188.205635 
L 248.253188 188.203045 
L 243.983453 188.224461 
L 239.713718 188.244739 
L 235.443983 188.24884 
L 231.174248 188.235167 
L 226.904513 188.204722 
L 222.634778 188.169245 
L 218.365043 188.156843 
L 214.095308 188.183801 
L 209.825573 188.209082 
L 205.555838 188.180928 
L 201.286103 188.106275 
L 197.016368 188.037228 
L 192.746634 188.015516 
L 188.476899 188.024226 
L 184.207164 188.00833 
L 179.937429 187.982421 
L 175.667694 187.979903 
L 171.397959 187.981184 
L 167.128224 187.956302 
L 162.858489 187.893253 
L 158.588754 187.823265 
L 154.319019 187.74751 
L 150.049284 187.56791 
L 145.779549 187.297234 
L 141.509814 187.156295 
L 137.240079 187.162608 
L 132.970344 187.163482 
L 128.700609 187.184459 
L 124.430874 187.262635 
L 120.16114 187.269111 
L 115.891405 187.141907 
L 111.62167 186.899858 
L 107.351935 186.183181 
L 103.0822 182.921227 
L 98.812465 169.867615 
L 94.54273 140.573796 
L 90.272995 116.419429 
L 86.00326 129.943307 
L 81.733525 163.387389 
L 77.46379 182.743571 
L 73.194055 187.624184 
z
" clip-path="url(#pf12dd160bf)" style="fill: #7570b3; fill-opacity: 0.25; stroke: #7570b3; stroke-width: 1.5"/>
   </g>
   <g id="matplotlib.axis_1">
    <g id="xtick_1">
     <g id="line2d_1">
      <defs>
       <path id="m7d6865a47c" d="M 0 0 
L 0 3.5 
" style="stroke: #000000; stroke-width: 0.8"/>
      </defs>
      <g>
       <use xlink:href="#m7d6865a47c" x="33.023438" y="188.255625" style="stroke: #000000; stroke-width: 0.8"/>
      </g>
     </g>
     <g id="text_1">
      <!-- 0 -->
      <g transform="translate(30.242969 202.413438) scale(0.1 -0.1)">
       <defs>
        <path id="ArialMT-30" d="M 266 2259 
Q 266 3072 433 3567 
Q 600 4063 929 4331 
Q 1259 4600 1759 4600 
Q 2128 4600 2406 4451 
Q 2684 4303 2865 4023 
Q 3047 3744 3150 3342 
Q 3253 2941 3253 2259 
Q 3253 1453 3087 958 
Q 2922 463 2592 192 
Q 2263 -78 1759 -78 
Q 1097 -78 719 397 
Q 266 969 266 2259 
z
M 844 2259 
Q 844 1131 1108 757 
Q 1372 384 1759 384 
Q 2147 384 2411 759 
Q 2675 1134 2675 2259 
Q 2675 3391 2411 3762 
Q 2147 4134 1753 4134 
Q 1366 4134 1134 3806 
Q 844 3388 844 2259 
z
" transform="scale(0.015625)"/>
       </defs>
       <use xlink:href="#ArialMT-30"/>
      </g>
     </g>
    </g>
    <g id="xtick_2">
     <g id="line2d_2">
      <g>
       <use xlink:href="#m7d6865a47c" x="88.823438" y="188.255625" style="stroke: #000000; stroke-width: 0.8"/>
      </g>
     </g>
     <g id="text_2">
      <!-- 1 -->
      <g transform="translate(86.042969 202.413438) scale(0.1 -0.1)">
       <defs>
        <path id="ArialMT-31" d="M 2384 0 
L 1822 0 
L 1822 3584 
Q 1619 3391 1289 3197 
Q 959 3003 697 2906 
L 697 3450 
Q 1169 3672 1522 3987 
Q 1875 4303 2022 4600 
L 2384 4600 
L 2384 0 
z
" transform="scale(0.015625)"/>
       </defs>
       <use xlink:href="#ArialMT-31"/>
      </g>
     </g>
    </g>
    <g id="xtick_3">
     <g id="line2d_3">
      <g>
       <use xlink:href="#m7d6865a47c" x="144.623438" y="188.255625" style="stroke: #000000; stroke-width: 0.8"/>
      </g>
     </g>
     <g id="text_3">
      <!-- 2 -->
      <g transform="translate(141.842969 202.413438) scale(0.1 -0.1)">
       <defs>
        <path id="ArialMT-32" d="M 3222 541 
L 3222 0 
L 194 0 
Q 188 203 259 391 
Q 375 700 629 1000 
Q 884 1300 1366 1694 
Q 2113 2306 2375 2664 
Q 2638 3022 2638 3341 
Q 2638 3675 2398 3904 
Q 2159 4134 1775 4134 
Q 1369 4134 1125 3890 
Q 881 3647 878 3216 
L 300 3275 
Q 359 3922 746 4261 
Q 1134 4600 1788 4600 
Q 2447 4600 2831 4234 
Q 3216 3869 3216 3328 
Q 3216 3053 3103 2787 
Q 2991 2522 2730 2228 
Q 2469 1934 1863 1422 
Q 1356 997 1212 845 
Q 1069 694 975 541 
L 3222 541 
z
" transform="scale(0.015625)"/>
       </defs>
       <use xlink:href="#ArialMT-32"/>
      </g>
     </g>
    </g>
    <g id="xtick_4">
     <g id="line2d_4">
      <g>
       <use xlink:href="#m7d6865a47c" x="200.423438" y="188.255625" style="stroke: #000000; stroke-width: 0.8"/>
      </g>
     </g>
     <g id="text_4">
      <!-- 3 -->
      <g transform="translate(197.642969 202.413438) scale(0.1 -0.1)">
       <defs>
        <path id="ArialMT-33" d="M 269 1209 
L 831 1284 
Q 928 806 1161 595 
Q 1394 384 1728 384 
Q 2125 384 2398 659 
Q 2672 934 2672 1341 
Q 2672 1728 2419 1979 
Q 2166 2231 1775 2231 
Q 1616 2231 1378 2169 
L 1441 2663 
Q 1497 2656 1531 2656 
Q 1891 2656 2178 2843 
Q 2466 3031 2466 3422 
Q 2466 3731 2256 3934 
Q 2047 4138 1716 4138 
Q 1388 4138 1169 3931 
Q 950 3725 888 3313 
L 325 3413 
Q 428 3978 793 4289 
Q 1159 4600 1703 4600 
Q 2078 4600 2393 4439 
Q 2709 4278 2876 4000 
Q 3044 3722 3044 3409 
Q 3044 3113 2884 2869 
Q 2725 2625 2413 2481 
Q 2819 2388 3044 2092 
Q 3269 1797 3269 1353 
Q 3269 753 2831 336 
Q 2394 -81 1725 -81 
Q 1122 -81 723 278 
Q 325 638 269 1209 
z
" transform="scale(0.015625)"/>
       </defs>
       <use xlink:href="#ArialMT-33"/>
      </g>
     </g>
    </g>
    <g id="xtick_5">
     <g id="line2d_5">
      <g>
       <use xlink:href="#m7d6865a47c" x="256.223438" y="188.255625" style="stroke: #000000; stroke-width: 0.8"/>
      </g>
     </g>
     <g id="text_5">
      <!-- 4 -->
      <g transform="translate(253.442969 202.413438) scale(0.1 -0.1)">
       <defs>
        <path id="ArialMT-34" d="M 2069 0 
L 2069 1097 
L 81 1097 
L 81 1613 
L 2172 4581 
L 2631 4581 
L 2631 1613 
L 3250 1613 
L 3250 1097 
L 2631 1097 
L 2631 0 
L 2069 0 
z
M 2069 1613 
L 2069 3678 
L 634 1613 
L 2069 1613 
z
" transform="scale(0.015625)"/>
       </defs>
       <use xlink:href="#ArialMT-34"/>
      </g>
     </g>
    </g>
    <g id="xtick_6">
     <g id="line2d_6">
      <g>
       <use xlink:href="#m7d6865a47c" x="312.023438" y="188.255625" style="stroke: #000000; stroke-width: 0.8"/>
      </g>
     </g>
     <g id="text_6">
      <!-- 5 -->
      <g transform="translate(309.242969 202.413438) scale(0.1 -0.1)">
       <defs>
        <path id="ArialMT-35" d="M 266 1200 
L 856 1250 
Q 922 819 1161 601 
Q 1400 384 1738 384 
Q 2144 384 2425 690 
Q 2706 997 2706 1503 
Q 2706 1984 2436 2262 
Q 2166 2541 1728 2541 
Q 1456 2541 1237 2417 
Q 1019 2294 894 2097 
L 366 2166 
L 809 4519 
L 3088 4519 
L 3088 3981 
L 1259 3981 
L 1013 2750 
Q 1425 3038 1878 3038 
Q 2478 3038 2890 2622 
Q 3303 2206 3303 1553 
Q 3303 931 2941 478 
Q 2500 -78 1738 -78 
Q 1113 -78 717 272 
Q 322 622 266 1200 
z
" transform="scale(0.015625)"/>
       </defs>
       <use xlink:href="#ArialMT-35"/>
      </g>
     </g>
    </g>
    <g id="text_7">
     <!-- Mean gene copy number -->
     <g transform="translate(113.904687 215.55875) scale(0.1 -0.1)">
      <defs>
       <path id="Arial-BoldMT-4d" d="M 453 0 
L 453 4581 
L 1838 4581 
L 2669 1456 
L 3491 4581 
L 4878 4581 
L 4878 0 
L 4019 0 
L 4019 3606 
L 3109 0 
L 2219 0 
L 1313 3606 
L 1313 0 
L 453 0 
z
" transform="scale(0.015625)"/>
       <path id="Arial-BoldMT-65" d="M 2381 1056 
L 3256 909 
Q 3088 428 2723 176 
Q 2359 -75 1813 -75 
Q 947 -75 531 491 
Q 203 944 203 1634 
Q 203 2459 634 2926 
Q 1066 3394 1725 3394 
Q 2466 3394 2894 2905 
Q 3322 2416 3303 1406 
L 1103 1406 
Q 1113 1016 1316 798 
Q 1519 581 1822 581 
Q 2028 581 2168 693 
Q 2309 806 2381 1056 
z
M 2431 1944 
Q 2422 2325 2234 2523 
Q 2047 2722 1778 2722 
Q 1491 2722 1303 2513 
Q 1116 2303 1119 1944 
L 2431 1944 
z
" transform="scale(0.015625)"/>
       <path id="Arial-BoldMT-61" d="M 1116 2306 
L 319 2450 
Q 453 2931 781 3162 
Q 1109 3394 1756 3394 
Q 2344 3394 2631 3255 
Q 2919 3116 3036 2902 
Q 3153 2688 3153 2116 
L 3144 1091 
Q 3144 653 3186 445 
Q 3228 238 3344 0 
L 2475 0 
Q 2441 88 2391 259 
Q 2369 338 2359 363 
Q 2134 144 1878 34 
Q 1622 -75 1331 -75 
Q 819 -75 523 203 
Q 228 481 228 906 
Q 228 1188 362 1408 
Q 497 1628 739 1745 
Q 981 1863 1438 1950 
Q 2053 2066 2291 2166 
L 2291 2253 
Q 2291 2506 2166 2614 
Q 2041 2722 1694 2722 
Q 1459 2722 1328 2630 
Q 1197 2538 1116 2306 
z
M 2291 1594 
Q 2122 1538 1756 1459 
Q 1391 1381 1278 1306 
Q 1106 1184 1106 997 
Q 1106 813 1243 678 
Q 1381 544 1594 544 
Q 1831 544 2047 700 
Q 2206 819 2256 991 
Q 2291 1103 2291 1419 
L 2291 1594 
z
" transform="scale(0.015625)"/>
       <path id="Arial-BoldMT-6e" d="M 3478 0 
L 2600 0 
L 2600 1694 
Q 2600 2231 2544 2389 
Q 2488 2547 2361 2634 
Q 2234 2722 2056 2722 
Q 1828 2722 1647 2597 
Q 1466 2472 1398 2265 
Q 1331 2059 1331 1503 
L 1331 0 
L 453 0 
L 453 3319 
L 1269 3319 
L 1269 2831 
Q 1703 3394 2363 3394 
Q 2653 3394 2893 3289 
Q 3134 3184 3257 3021 
Q 3381 2859 3429 2653 
Q 3478 2447 3478 2063 
L 3478 0 
z
" transform="scale(0.015625)"/>
       <path id="Arial-BoldMT-20" transform="scale(0.015625)"/>
       <path id="Arial-BoldMT-67" d="M 378 -219 
L 1381 -341 
Q 1406 -516 1497 -581 
Q 1622 -675 1891 -675 
Q 2234 -675 2406 -572 
Q 2522 -503 2581 -350 
Q 2622 -241 2622 53 
L 2622 538 
Q 2228 0 1628 0 
Q 959 0 569 566 
Q 263 1013 263 1678 
Q 263 2513 664 2953 
Q 1066 3394 1663 3394 
Q 2278 3394 2678 2853 
L 2678 3319 
L 3500 3319 
L 3500 341 
Q 3500 -247 3403 -537 
Q 3306 -828 3131 -993 
Q 2956 -1159 2664 -1253 
Q 2372 -1347 1925 -1347 
Q 1081 -1347 728 -1058 
Q 375 -769 375 -325 
Q 375 -281 378 -219 
z
M 1163 1728 
Q 1163 1200 1367 954 
Q 1572 709 1872 709 
Q 2194 709 2416 961 
Q 2638 1213 2638 1706 
Q 2638 2222 2425 2472 
Q 2213 2722 1888 2722 
Q 1572 2722 1367 2476 
Q 1163 2231 1163 1728 
z
" transform="scale(0.015625)"/>
       <path id="Arial-BoldMT-63" d="M 3353 2338 
L 2488 2181 
Q 2444 2441 2289 2572 
Q 2134 2703 1888 2703 
Q 1559 2703 1364 2476 
Q 1169 2250 1169 1719 
Q 1169 1128 1367 884 
Q 1566 641 1900 641 
Q 2150 641 2309 783 
Q 2469 925 2534 1272 
L 3397 1125 
Q 3263 531 2881 228 
Q 2500 -75 1859 -75 
Q 1131 -75 698 384 
Q 266 844 266 1656 
Q 266 2478 700 2936 
Q 1134 3394 1875 3394 
Q 2481 3394 2839 3133 
Q 3197 2872 3353 2338 
z
" transform="scale(0.015625)"/>
       <path id="Arial-BoldMT-6f" d="M 256 1706 
Q 256 2144 472 2553 
Q 688 2963 1083 3178 
Q 1478 3394 1966 3394 
Q 2719 3394 3200 2905 
Q 3681 2416 3681 1669 
Q 3681 916 3195 420 
Q 2709 -75 1972 -75 
Q 1516 -75 1102 131 
Q 688 338 472 736 
Q 256 1134 256 1706 
z
M 1156 1659 
Q 1156 1166 1390 903 
Q 1625 641 1969 641 
Q 2313 641 2545 903 
Q 2778 1166 2778 1666 
Q 2778 2153 2545 2415 
Q 2313 2678 1969 2678 
Q 1625 2678 1390 2415 
Q 1156 2153 1156 1659 
z
" transform="scale(0.015625)"/>
       <path id="Arial-BoldMT-70" d="M 434 3319 
L 1253 3319 
L 1253 2831 
Q 1413 3081 1684 3237 
Q 1956 3394 2288 3394 
Q 2866 3394 3269 2941 
Q 3672 2488 3672 1678 
Q 3672 847 3265 386 
Q 2859 -75 2281 -75 
Q 2006 -75 1782 34 
Q 1559 144 1313 409 
L 1313 -1263 
L 434 -1263 
L 434 3319 
z
M 1303 1716 
Q 1303 1156 1525 889 
Q 1747 622 2066 622 
Q 2372 622 2575 867 
Q 2778 1113 2778 1672 
Q 2778 2194 2568 2447 
Q 2359 2700 2050 2700 
Q 1728 2700 1515 2451 
Q 1303 2203 1303 1716 
z
" transform="scale(0.015625)"/>
       <path id="Arial-BoldMT-79" d="M 44 3319 
L 978 3319 
L 1772 963 
L 2547 3319 
L 3456 3319 
L 2284 125 
L 2075 -453 
Q 1959 -744 1854 -897 
Q 1750 -1050 1614 -1145 
Q 1478 -1241 1279 -1294 
Q 1081 -1347 831 -1347 
Q 578 -1347 334 -1294 
L 256 -606 
Q 463 -647 628 -647 
Q 934 -647 1081 -467 
Q 1228 -288 1306 -9 
L 44 3319 
z
" transform="scale(0.015625)"/>
       <path id="Arial-BoldMT-75" d="M 2644 0 
L 2644 497 
Q 2463 231 2167 78 
Q 1872 -75 1544 -75 
Q 1209 -75 943 72 
Q 678 219 559 484 
Q 441 750 441 1219 
L 441 3319 
L 1319 3319 
L 1319 1794 
Q 1319 1094 1367 936 
Q 1416 778 1544 686 
Q 1672 594 1869 594 
Q 2094 594 2272 717 
Q 2450 841 2515 1023 
Q 2581 1206 2581 1919 
L 2581 3319 
L 3459 3319 
L 3459 0 
L 2644 0 
z
" transform="scale(0.015625)"/>
       <path id="Arial-BoldMT-6d" d="M 394 3319 
L 1203 3319 
L 1203 2866 
Q 1638 3394 2238 3394 
Q 2556 3394 2790 3262 
Q 3025 3131 3175 2866 
Q 3394 3131 3647 3262 
Q 3900 3394 4188 3394 
Q 4553 3394 4806 3245 
Q 5059 3097 5184 2809 
Q 5275 2597 5275 2122 
L 5275 0 
L 4397 0 
L 4397 1897 
Q 4397 2391 4306 2534 
Q 4184 2722 3931 2722 
Q 3747 2722 3584 2609 
Q 3422 2497 3350 2280 
Q 3278 2063 3278 1594 
L 3278 0 
L 2400 0 
L 2400 1819 
Q 2400 2303 2353 2443 
Q 2306 2584 2207 2653 
Q 2109 2722 1941 2722 
Q 1738 2722 1575 2612 
Q 1413 2503 1342 2297 
Q 1272 2091 1272 1613 
L 1272 0 
L 394 0 
L 394 3319 
z
" transform="scale(0.015625)"/>
       <path id="Arial-BoldMT-62" d="M 422 0 
L 422 4581 
L 1300 4581 
L 1300 2931 
Q 1706 3394 2263 3394 
Q 2869 3394 3266 2955 
Q 3663 2516 3663 1694 
Q 3663 844 3258 384 
Q 2853 -75 2275 -75 
Q 1991 -75 1714 67 
Q 1438 209 1238 488 
L 1238 0 
L 422 0 
z
M 1294 1731 
Q 1294 1216 1456 969 
Q 1684 619 2063 619 
Q 2353 619 2558 867 
Q 2763 1116 2763 1650 
Q 2763 2219 2556 2470 
Q 2350 2722 2028 2722 
Q 1713 2722 1503 2476 
Q 1294 2231 1294 1731 
z
" transform="scale(0.015625)"/>
       <path id="Arial-BoldMT-72" d="M 1300 0 
L 422 0 
L 422 3319 
L 1238 3319 
L 1238 2847 
Q 1447 3181 1614 3287 
Q 1781 3394 1994 3394 
Q 2294 3394 2572 3228 
L 2300 2463 
Q 2078 2606 1888 2606 
Q 1703 2606 1575 2504 
Q 1447 2403 1373 2137 
Q 1300 1872 1300 1025 
L 1300 0 
z
" transform="scale(0.015625)"/>
      </defs>
      <use xlink:href="#Arial-BoldMT-4d"/>
      <use xlink:href="#Arial-BoldMT-65" x="83.300781"/>
      <use xlink:href="#Arial-BoldMT-61" x="138.916016"/>
      <use xlink:href="#Arial-BoldMT-6e" x="194.53125"/>
      <use xlink:href="#Arial-BoldMT-20" x="255.615234"/>
      <use xlink:href="#Arial-BoldMT-67" x="283.398438"/>
      <use xlink:href="#Arial-BoldMT-65" x="344.482422"/>
      <use xlink:href="#Arial-BoldMT-6e" x="400.097656"/>
      <use xlink:href="#Arial-BoldMT-65" x="461.181641"/>
      <use xlink:href="#Arial-BoldMT-20" x="516.796875"/>
      <use xlink:href="#Arial-BoldMT-63" x="544.580078"/>
      <use xlink:href="#Arial-BoldMT-6f" x="600.195312"/>
      <use xlink:href="#Arial-BoldMT-70" x="661.279297"/>
      <use xlink:href="#Arial-BoldMT-79" x="722.363281"/>
      <use xlink:href="#Arial-BoldMT-20" x="777.978516"/>
      <use xlink:href="#Arial-BoldMT-6e" x="805.761719"/>
      <use xlink:href="#Arial-BoldMT-75" x="866.845703"/>
      <use xlink:href="#Arial-BoldMT-6d" x="927.929688"/>
      <use xlink:href="#Arial-BoldMT-62" x="1016.845703"/>
      <use xlink:href="#Arial-BoldMT-65" x="1077.929688"/>
      <use xlink:href="#Arial-BoldMT-72" x="1133.544922"/>
     </g>
    </g>
   </g>
   <g id="matplotlib.axis_2">
    <g id="ytick_1">
     <g id="line2d_7">
      <defs>
       <path id="md8424dd13a" d="M 0 0 
L -3.5 0 
" style="stroke: #000000; stroke-width: 0.8"/>
      </defs>
      <g>
       <use xlink:href="#md8424dd13a" x="33.023438" y="188.255625" style="stroke: #000000; stroke-width: 0.8"/>
      </g>
     </g>
     <g id="text_8">
      <!-- 0 -->
      <g transform="translate(20.4625 191.834531) scale(0.1 -0.1)">
       <use xlink:href="#ArialMT-30"/>
      </g>
     </g>
    </g>
    <g id="ytick_2">
     <g id="line2d_8">
      <g>
       <use xlink:href="#md8424dd13a" x="33.023438" y="150.023812" style="stroke: #000000; stroke-width: 0.8"/>
      </g>
     </g>
     <g id="text_9">
      <!-- 2 -->
      <g transform="translate(20.4625 153.602718) scale(0.1 -0.1)">
       <use xlink:href="#ArialMT-32"/>
      </g>
     </g>
    </g>
    <g id="ytick_3">
     <g id="line2d_9">
      <g>
       <use xlink:href="#md8424dd13a" x="33.023438" y="111.791998" style="stroke: #000000; stroke-width: 0.8"/>
      </g>
     </g>
     <g id="text_10">
      <!-- 4 -->
      <g transform="translate(20.4625 115.370905) scale(0.1 -0.1)">
       <use xlink:href="#ArialMT-34"/>
      </g>
     </g>
    </g>
    <g id="ytick_4">
     <g id="line2d_10">
      <g>
       <use xlink:href="#md8424dd13a" x="33.023438" y="73.560185" style="stroke: #000000; stroke-width: 0.8"/>
      </g>
     </g>
     <g id="text_11">
      <!-- 6 -->
      <g transform="translate(20.4625 77.139091) scale(0.1 -0.1)">
       <defs>
        <path id="ArialMT-36" d="M 3184 3459 
L 2625 3416 
Q 2550 3747 2413 3897 
Q 2184 4138 1850 4138 
Q 1581 4138 1378 3988 
Q 1113 3794 959 3422 
Q 806 3050 800 2363 
Q 1003 2672 1297 2822 
Q 1591 2972 1913 2972 
Q 2475 2972 2870 2558 
Q 3266 2144 3266 1488 
Q 3266 1056 3080 686 
Q 2894 316 2569 119 
Q 2244 -78 1831 -78 
Q 1128 -78 684 439 
Q 241 956 241 2144 
Q 241 3472 731 4075 
Q 1159 4600 1884 4600 
Q 2425 4600 2770 4297 
Q 3116 3994 3184 3459 
z
M 888 1484 
Q 888 1194 1011 928 
Q 1134 663 1356 523 
Q 1578 384 1822 384 
Q 2178 384 2434 671 
Q 2691 959 2691 1453 
Q 2691 1928 2437 2201 
Q 2184 2475 1800 2475 
Q 1419 2475 1153 2201 
Q 888 1928 888 1484 
z
" transform="scale(0.015625)"/>
       </defs>
       <use xlink:href="#ArialMT-36"/>
      </g>
     </g>
    </g>
    <g id="ytick_5">
     <g id="line2d_11">
      <g>
       <use xlink:href="#md8424dd13a" x="33.023438" y="35.328372" style="stroke: #000000; stroke-width: 0.8"/>
      </g>
     </g>
     <g id="text_12">
      <!-- 8 -->
      <g transform="translate(20.4625 38.907278) scale(0.1 -0.1)">
       <defs>
        <path id="ArialMT-38" d="M 1131 2484 
Q 781 2613 612 2850 
Q 444 3088 444 3419 
Q 444 3919 803 4259 
Q 1163 4600 1759 4600 
Q 2359 4600 2725 4251 
Q 3091 3903 3091 3403 
Q 3091 3084 2923 2848 
Q 2756 2613 2416 2484 
Q 2838 2347 3058 2040 
Q 3278 1734 3278 1309 
Q 3278 722 2862 322 
Q 2447 -78 1769 -78 
Q 1091 -78 675 323 
Q 259 725 259 1325 
Q 259 1772 486 2073 
Q 713 2375 1131 2484 
z
M 1019 3438 
Q 1019 3113 1228 2906 
Q 1438 2700 1772 2700 
Q 2097 2700 2305 2904 
Q 2513 3109 2513 3406 
Q 2513 3716 2298 3927 
Q 2084 4138 1766 4138 
Q 1444 4138 1231 3931 
Q 1019 3725 1019 3438 
z
M 838 1322 
Q 838 1081 952 856 
Q 1066 631 1291 507 
Q 1516 384 1775 384 
Q 2178 384 2440 643 
Q 2703 903 2703 1303 
Q 2703 1709 2433 1975 
Q 2163 2241 1756 2241 
Q 1359 2241 1098 1978 
Q 838 1716 838 1322 
z
" transform="scale(0.015625)"/>
       </defs>
       <use xlink:href="#ArialMT-38"/>
      </g>
     </g>
    </g>
    <g id="text_13">
     <!-- Density -->
     <g transform="translate(14.357813 123.155781) rotate(-90) scale(0.1 -0.1)">
      <defs>
       <path id="Arial-BoldMT-44" d="M 463 4581 
L 2153 4581 
Q 2725 4581 3025 4494 
Q 3428 4375 3715 4072 
Q 4003 3769 4153 3330 
Q 4303 2891 4303 2247 
Q 4303 1681 4163 1272 
Q 3991 772 3672 463 
Q 3431 228 3022 97 
Q 2716 0 2203 0 
L 463 0 
L 463 4581 
z
M 1388 3806 
L 1388 772 
L 2078 772 
Q 2466 772 2638 816 
Q 2863 872 3011 1006 
Q 3159 1141 3253 1448 
Q 3347 1756 3347 2288 
Q 3347 2819 3253 3103 
Q 3159 3388 2990 3547 
Q 2822 3706 2563 3763 
Q 2369 3806 1803 3806 
L 1388 3806 
z
" transform="scale(0.015625)"/>
       <path id="Arial-BoldMT-73" d="M 150 947 
L 1031 1081 
Q 1088 825 1259 692 
Q 1431 559 1741 559 
Q 2081 559 2253 684 
Q 2369 772 2369 919 
Q 2369 1019 2306 1084 
Q 2241 1147 2013 1200 
Q 950 1434 666 1628 
Q 272 1897 272 2375 
Q 272 2806 612 3100 
Q 953 3394 1669 3394 
Q 2350 3394 2681 3172 
Q 3013 2950 3138 2516 
L 2309 2363 
Q 2256 2556 2107 2659 
Q 1959 2763 1684 2763 
Q 1338 2763 1188 2666 
Q 1088 2597 1088 2488 
Q 1088 2394 1175 2328 
Q 1294 2241 1995 2081 
Q 2697 1922 2975 1691 
Q 3250 1456 3250 1038 
Q 3250 581 2869 253 
Q 2488 -75 1741 -75 
Q 1063 -75 667 200 
Q 272 475 150 947 
z
" transform="scale(0.015625)"/>
       <path id="Arial-BoldMT-69" d="M 459 3769 
L 459 4581 
L 1338 4581 
L 1338 3769 
L 459 3769 
z
M 459 0 
L 459 3319 
L 1338 3319 
L 1338 0 
L 459 0 
z
" transform="scale(0.015625)"/>
       <path id="Arial-BoldMT-74" d="M 1981 3319 
L 1981 2619 
L 1381 2619 
L 1381 1281 
Q 1381 875 1398 808 
Q 1416 741 1477 697 
Q 1538 653 1625 653 
Q 1747 653 1978 738 
L 2053 56 
Q 1747 -75 1359 -75 
Q 1122 -75 931 4 
Q 741 84 652 211 
Q 563 338 528 553 
Q 500 706 500 1172 
L 500 2619 
L 97 2619 
L 97 3319 
L 500 3319 
L 500 3978 
L 1381 4491 
L 1381 3319 
L 1981 3319 
z
" transform="scale(0.015625)"/>
      </defs>
      <use xlink:href="#Arial-BoldMT-44"/>
      <use xlink:href="#Arial-BoldMT-65" x="72.216797"/>
      <use xlink:href="#Arial-BoldMT-6e" x="127.832031"/>
      <use xlink:href="#Arial-BoldMT-73" x="188.916016"/>
      <use xlink:href="#Arial-BoldMT-69" x="244.53125"/>
      <use xlink:href="#Arial-BoldMT-74" x="272.314453"/>
      <use xlink:href="#Arial-BoldMT-79" x="305.615234"/>
     </g>
    </g>
   </g>
   <g id="patch_3">
    <path d="M 33.023438 188.255625 
L 33.023438 21.935625 
" style="fill: none; stroke: #000000; stroke-linejoin: miter; stroke-linecap: square"/>
   </g>
   <g id="patch_4">
    <path d="M 312.023438 188.255625 
L 312.023438 21.935625 
" style="fill: none; stroke: #000000; stroke-linejoin: miter; stroke-linecap: square"/>
   </g>
   <g id="patch_5">
    <path d="M 33.023438 188.255625 
L 312.023438 188.255625 
" style="fill: none; stroke: #000000; stroke-linejoin: miter; stroke-linecap: square"/>
   </g>
   <g id="patch_6">
    <path d="M 33.023438 21.935625 
L 312.023438 21.935625 
" style="fill: none; stroke: #000000; stroke-linejoin: miter; stroke-linecap: square"/>
   </g>
   <g id="text_14">
    <!-- P_value(yeast core vs sce specific core):0.0008 -->
    <g style="fill: #ff0000" transform="translate(141.833438 88.463625) scale(0.08 -0.08)">
     <defs>
      <path id="ArialMT-50" d="M 494 0 
L 494 4581 
L 2222 4581 
Q 2678 4581 2919 4538 
Q 3256 4481 3484 4323 
Q 3713 4166 3852 3881 
Q 3991 3597 3991 3256 
Q 3991 2672 3619 2267 
Q 3247 1863 2275 1863 
L 1100 1863 
L 1100 0 
L 494 0 
z
M 1100 2403 
L 2284 2403 
Q 2872 2403 3119 2622 
Q 3366 2841 3366 3238 
Q 3366 3525 3220 3729 
Q 3075 3934 2838 4000 
Q 2684 4041 2272 4041 
L 1100 4041 
L 1100 2403 
z
" transform="scale(0.015625)"/>
      <path id="ArialMT-5f" d="M -97 -1272 
L -97 -866 
L 3631 -866 
L 3631 -1272 
L -97 -1272 
z
" transform="scale(0.015625)"/>
      <path id="ArialMT-76" d="M 1344 0 
L 81 3319 
L 675 3319 
L 1388 1331 
Q 1503 1009 1600 663 
Q 1675 925 1809 1294 
L 2547 3319 
L 3125 3319 
L 1869 0 
L 1344 0 
z
" transform="scale(0.015625)"/>
      <path id="ArialMT-61" d="M 2588 409 
Q 2275 144 1986 34 
Q 1697 -75 1366 -75 
Q 819 -75 525 192 
Q 231 459 231 875 
Q 231 1119 342 1320 
Q 453 1522 633 1644 
Q 813 1766 1038 1828 
Q 1203 1872 1538 1913 
Q 2219 1994 2541 2106 
Q 2544 2222 2544 2253 
Q 2544 2597 2384 2738 
Q 2169 2928 1744 2928 
Q 1347 2928 1158 2789 
Q 969 2650 878 2297 
L 328 2372 
Q 403 2725 575 2942 
Q 747 3159 1072 3276 
Q 1397 3394 1825 3394 
Q 2250 3394 2515 3294 
Q 2781 3194 2906 3042 
Q 3031 2891 3081 2659 
Q 3109 2516 3109 2141 
L 3109 1391 
Q 3109 606 3145 398 
Q 3181 191 3288 0 
L 2700 0 
Q 2613 175 2588 409 
z
M 2541 1666 
Q 2234 1541 1622 1453 
Q 1275 1403 1131 1340 
Q 988 1278 909 1158 
Q 831 1038 831 891 
Q 831 666 1001 516 
Q 1172 366 1500 366 
Q 1825 366 2078 508 
Q 2331 650 2450 897 
Q 2541 1088 2541 1459 
L 2541 1666 
z
" transform="scale(0.015625)"/>
      <path id="ArialMT-6c" d="M 409 0 
L 409 4581 
L 972 4581 
L 972 0 
L 409 0 
z
" transform="scale(0.015625)"/>
      <path id="ArialMT-75" d="M 2597 0 
L 2597 488 
Q 2209 -75 1544 -75 
Q 1250 -75 995 37 
Q 741 150 617 320 
Q 494 491 444 738 
Q 409 903 409 1263 
L 409 3319 
L 972 3319 
L 972 1478 
Q 972 1038 1006 884 
Q 1059 663 1231 536 
Q 1403 409 1656 409 
Q 1909 409 2131 539 
Q 2353 669 2445 892 
Q 2538 1116 2538 1541 
L 2538 3319 
L 3100 3319 
L 3100 0 
L 2597 0 
z
" transform="scale(0.015625)"/>
      <path id="ArialMT-65" d="M 2694 1069 
L 3275 997 
Q 3138 488 2766 206 
Q 2394 -75 1816 -75 
Q 1088 -75 661 373 
Q 234 822 234 1631 
Q 234 2469 665 2931 
Q 1097 3394 1784 3394 
Q 2450 3394 2872 2941 
Q 3294 2488 3294 1666 
Q 3294 1616 3291 1516 
L 816 1516 
Q 847 969 1125 678 
Q 1403 388 1819 388 
Q 2128 388 2347 550 
Q 2566 713 2694 1069 
z
M 847 1978 
L 2700 1978 
Q 2663 2397 2488 2606 
Q 2219 2931 1791 2931 
Q 1403 2931 1139 2672 
Q 875 2413 847 1978 
z
" transform="scale(0.015625)"/>
      <path id="ArialMT-28" d="M 1497 -1347 
Q 1031 -759 709 28 
Q 388 816 388 1659 
Q 388 2403 628 3084 
Q 909 3875 1497 4659 
L 1900 4659 
Q 1522 4009 1400 3731 
Q 1209 3300 1100 2831 
Q 966 2247 966 1656 
Q 966 153 1900 -1347 
L 1497 -1347 
z
" transform="scale(0.015625)"/>
      <path id="ArialMT-79" d="M 397 -1278 
L 334 -750 
Q 519 -800 656 -800 
Q 844 -800 956 -737 
Q 1069 -675 1141 -563 
Q 1194 -478 1313 -144 
Q 1328 -97 1363 -6 
L 103 3319 
L 709 3319 
L 1400 1397 
Q 1534 1031 1641 628 
Q 1738 1016 1872 1384 
L 2581 3319 
L 3144 3319 
L 1881 -56 
Q 1678 -603 1566 -809 
Q 1416 -1088 1222 -1217 
Q 1028 -1347 759 -1347 
Q 597 -1347 397 -1278 
z
" transform="scale(0.015625)"/>
      <path id="ArialMT-73" d="M 197 991 
L 753 1078 
Q 800 744 1014 566 
Q 1228 388 1613 388 
Q 2000 388 2187 545 
Q 2375 703 2375 916 
Q 2375 1106 2209 1216 
Q 2094 1291 1634 1406 
Q 1016 1563 777 1677 
Q 538 1791 414 1992 
Q 291 2194 291 2438 
Q 291 2659 392 2848 
Q 494 3038 669 3163 
Q 800 3259 1026 3326 
Q 1253 3394 1513 3394 
Q 1903 3394 2198 3281 
Q 2494 3169 2634 2976 
Q 2775 2784 2828 2463 
L 2278 2388 
Q 2241 2644 2061 2787 
Q 1881 2931 1553 2931 
Q 1166 2931 1000 2803 
Q 834 2675 834 2503 
Q 834 2394 903 2306 
Q 972 2216 1119 2156 
Q 1203 2125 1616 2013 
Q 2213 1853 2448 1751 
Q 2684 1650 2818 1456 
Q 2953 1263 2953 975 
Q 2953 694 2789 445 
Q 2625 197 2315 61 
Q 2006 -75 1616 -75 
Q 969 -75 630 194 
Q 291 463 197 991 
z
" transform="scale(0.015625)"/>
      <path id="ArialMT-74" d="M 1650 503 
L 1731 6 
Q 1494 -44 1306 -44 
Q 1000 -44 831 53 
Q 663 150 594 308 
Q 525 466 525 972 
L 525 2881 
L 113 2881 
L 113 3319 
L 525 3319 
L 525 4141 
L 1084 4478 
L 1084 3319 
L 1650 3319 
L 1650 2881 
L 1084 2881 
L 1084 941 
Q 1084 700 1114 631 
Q 1144 563 1211 522 
Q 1278 481 1403 481 
Q 1497 481 1650 503 
z
" transform="scale(0.015625)"/>
      <path id="ArialMT-20" transform="scale(0.015625)"/>
      <path id="ArialMT-63" d="M 2588 1216 
L 3141 1144 
Q 3050 572 2676 248 
Q 2303 -75 1759 -75 
Q 1078 -75 664 370 
Q 250 816 250 1647 
Q 250 2184 428 2587 
Q 606 2991 970 3192 
Q 1334 3394 1763 3394 
Q 2303 3394 2647 3120 
Q 2991 2847 3088 2344 
L 2541 2259 
Q 2463 2594 2264 2762 
Q 2066 2931 1784 2931 
Q 1359 2931 1093 2626 
Q 828 2322 828 1663 
Q 828 994 1084 691 
Q 1341 388 1753 388 
Q 2084 388 2306 591 
Q 2528 794 2588 1216 
z
" transform="scale(0.015625)"/>
      <path id="ArialMT-6f" d="M 213 1659 
Q 213 2581 725 3025 
Q 1153 3394 1769 3394 
Q 2453 3394 2887 2945 
Q 3322 2497 3322 1706 
Q 3322 1066 3130 698 
Q 2938 331 2570 128 
Q 2203 -75 1769 -75 
Q 1072 -75 642 372 
Q 213 819 213 1659 
z
M 791 1659 
Q 791 1022 1069 705 
Q 1347 388 1769 388 
Q 2188 388 2466 706 
Q 2744 1025 2744 1678 
Q 2744 2294 2464 2611 
Q 2184 2928 1769 2928 
Q 1347 2928 1069 2612 
Q 791 2297 791 1659 
z
" transform="scale(0.015625)"/>
      <path id="ArialMT-72" d="M 416 0 
L 416 3319 
L 922 3319 
L 922 2816 
Q 1116 3169 1280 3281 
Q 1444 3394 1641 3394 
Q 1925 3394 2219 3213 
L 2025 2691 
Q 1819 2813 1613 2813 
Q 1428 2813 1281 2702 
Q 1134 2591 1072 2394 
Q 978 2094 978 1738 
L 978 0 
L 416 0 
z
" transform="scale(0.015625)"/>
      <path id="ArialMT-70" d="M 422 -1272 
L 422 3319 
L 934 3319 
L 934 2888 
Q 1116 3141 1344 3267 
Q 1572 3394 1897 3394 
Q 2322 3394 2647 3175 
Q 2972 2956 3137 2557 
Q 3303 2159 3303 1684 
Q 3303 1175 3120 767 
Q 2938 359 2589 142 
Q 2241 -75 1856 -75 
Q 1575 -75 1351 44 
Q 1128 163 984 344 
L 984 -1272 
L 422 -1272 
z
M 931 1641 
Q 931 1000 1190 694 
Q 1450 388 1819 388 
Q 2194 388 2461 705 
Q 2728 1022 2728 1688 
Q 2728 2322 2467 2637 
Q 2206 2953 1844 2953 
Q 1484 2953 1207 2617 
Q 931 2281 931 1641 
z
" transform="scale(0.015625)"/>
      <path id="ArialMT-69" d="M 425 3934 
L 425 4581 
L 988 4581 
L 988 3934 
L 425 3934 
z
M 425 0 
L 425 3319 
L 988 3319 
L 988 0 
L 425 0 
z
" transform="scale(0.015625)"/>
      <path id="ArialMT-66" d="M 556 0 
L 556 2881 
L 59 2881 
L 59 3319 
L 556 3319 
L 556 3672 
Q 556 4006 616 4169 
Q 697 4388 901 4523 
Q 1106 4659 1475 4659 
Q 1713 4659 2000 4603 
L 1916 4113 
Q 1741 4144 1584 4144 
Q 1328 4144 1222 4034 
Q 1116 3925 1116 3625 
L 1116 3319 
L 1763 3319 
L 1763 2881 
L 1116 2881 
L 1116 0 
L 556 0 
z
" transform="scale(0.015625)"/>
      <path id="ArialMT-29" d="M 791 -1347 
L 388 -1347 
Q 1322 153 1322 1656 
Q 1322 2244 1188 2822 
Q 1081 3291 891 3722 
Q 769 4003 388 4659 
L 791 4659 
Q 1378 3875 1659 3084 
Q 1900 2403 1900 1659 
Q 1900 816 1576 28 
Q 1253 -759 791 -1347 
z
" transform="scale(0.015625)"/>
      <path id="ArialMT-3a" d="M 578 2678 
L 578 3319 
L 1219 3319 
L 1219 2678 
L 578 2678 
z
M 578 0 
L 578 641 
L 1219 641 
L 1219 0 
L 578 0 
z
" transform="scale(0.015625)"/>
      <path id="ArialMT-2e" d="M 581 0 
L 581 641 
L 1222 641 
L 1222 0 
L 581 0 
z
" transform="scale(0.015625)"/>
     </defs>
     <use xlink:href="#ArialMT-50"/>
     <use xlink:href="#ArialMT-5f" x="66.699219"/>
     <use xlink:href="#ArialMT-76" x="122.314453"/>
     <use xlink:href="#ArialMT-61" x="172.314453"/>
     <use xlink:href="#ArialMT-6c" x="227.929688"/>
     <use xlink:href="#ArialMT-75" x="250.146484"/>
     <use xlink:href="#ArialMT-65" x="305.761719"/>
     <use xlink:href="#ArialMT-28" x="361.376953"/>
     <use xlink:href="#ArialMT-79" x="394.677734"/>
     <use xlink:href="#ArialMT-65" x="444.677734"/>
     <use xlink:href="#ArialMT-61" x="500.292969"/>
     <use xlink:href="#ArialMT-73" x="555.908203"/>
     <use xlink:href="#ArialMT-74" x="605.908203"/>
     <use xlink:href="#ArialMT-20" x="633.691406"/>
     <use xlink:href="#ArialMT-63" x="661.474609"/>
     <use xlink:href="#ArialMT-6f" x="711.474609"/>
     <use xlink:href="#ArialMT-72" x="767.089844"/>
     <use xlink:href="#ArialMT-65" x="800.390625"/>
     <use xlink:href="#ArialMT-20" x="856.005859"/>
     <use xlink:href="#ArialMT-76" x="883.789062"/>
     <use xlink:href="#ArialMT-73" x="933.789062"/>
     <use xlink:href="#ArialMT-20" x="983.789062"/>
     <use xlink:href="#ArialMT-73" x="1011.572266"/>
     <use xlink:href="#ArialMT-63" x="1061.572266"/>
     <use xlink:href="#ArialMT-65" x="1111.572266"/>
     <use xlink:href="#ArialMT-20" x="1167.1875"/>
     <use xlink:href="#ArialMT-73" x="1194.970703"/>
     <use xlink:href="#ArialMT-70" x="1244.970703"/>
     <use xlink:href="#ArialMT-65" x="1300.585938"/>
     <use xlink:href="#ArialMT-63" x="1356.201172"/>
     <use xlink:href="#ArialMT-69" x="1406.201172"/>
     <use xlink:href="#ArialMT-66" x="1428.417969"/>
     <use xlink:href="#ArialMT-69" x="1456.201172"/>
     <use xlink:href="#ArialMT-63" x="1478.417969"/>
     <use xlink:href="#ArialMT-20" x="1528.417969"/>
     <use xlink:href="#ArialMT-63" x="1556.201172"/>
     <use xlink:href="#ArialMT-6f" x="1606.201172"/>
     <use xlink:href="#ArialMT-72" x="1661.816406"/>
     <use xlink:href="#ArialMT-65" x="1695.117188"/>
     <use xlink:href="#ArialMT-29" x="1750.732422"/>
     <use xlink:href="#ArialMT-3a" x="1784.033203"/>
     <use xlink:href="#ArialMT-30" x="1811.816406"/>
     <use xlink:href="#ArialMT-2e" x="1867.431641"/>
     <use xlink:href="#ArialMT-30" x="1895.214844"/>
     <use xlink:href="#ArialMT-30" x="1950.830078"/>
     <use xlink:href="#ArialMT-30" x="2006.445312"/>
     <use xlink:href="#ArialMT-38" x="2062.060547"/>
    </g>
   </g>
   <g id="text_15">
    <!-- P_value(core vs accessory):3.1e-06 -->
    <g style="fill: #ff0000" transform="translate(141.833438 100.106025) scale(0.08 -0.08)">
     <defs>
      <path id="ArialMT-2d" d="M 203 1375 
L 203 1941 
L 1931 1941 
L 1931 1375 
L 203 1375 
z
" transform="scale(0.015625)"/>
     </defs>
     <use xlink:href="#ArialMT-50"/>
     <use xlink:href="#ArialMT-5f" x="66.699219"/>
     <use xlink:href="#ArialMT-76" x="122.314453"/>
     <use xlink:href="#ArialMT-61" x="172.314453"/>
     <use xlink:href="#ArialMT-6c" x="227.929688"/>
     <use xlink:href="#ArialMT-75" x="250.146484"/>
     <use xlink:href="#ArialMT-65" x="305.761719"/>
     <use xlink:href="#ArialMT-28" x="361.376953"/>
     <use xlink:href="#ArialMT-63" x="394.677734"/>
     <use xlink:href="#ArialMT-6f" x="444.677734"/>
     <use xlink:href="#ArialMT-72" x="500.292969"/>
     <use xlink:href="#ArialMT-65" x="533.59375"/>
     <use xlink:href="#ArialMT-20" x="589.208984"/>
     <use xlink:href="#ArialMT-76" x="616.992188"/>
     <use xlink:href="#ArialMT-73" x="666.992188"/>
     <use xlink:href="#ArialMT-20" x="716.992188"/>
     <use xlink:href="#ArialMT-61" x="744.775391"/>
     <use xlink:href="#ArialMT-63" x="800.390625"/>
     <use xlink:href="#ArialMT-63" x="850.390625"/>
     <use xlink:href="#ArialMT-65" x="900.390625"/>
     <use xlink:href="#ArialMT-73" x="956.005859"/>
     <use xlink:href="#ArialMT-73" x="1006.005859"/>
     <use xlink:href="#ArialMT-6f" x="1056.005859"/>
     <use xlink:href="#ArialMT-72" x="1111.621094"/>
     <use xlink:href="#ArialMT-79" x="1144.921875"/>
     <use xlink:href="#ArialMT-29" x="1194.921875"/>
     <use xlink:href="#ArialMT-3a" x="1228.222656"/>
     <use xlink:href="#ArialMT-33" x="1256.005859"/>
     <use xlink:href="#ArialMT-2e" x="1311.621094"/>
     <use xlink:href="#ArialMT-31" x="1339.404297"/>
     <use xlink:href="#ArialMT-65" x="1395.019531"/>
     <use xlink:href="#ArialMT-2d" x="1450.634766"/>
     <use xlink:href="#ArialMT-30" x="1483.935547"/>
     <use xlink:href="#ArialMT-36" x="1539.550781"/>
    </g>
   </g>
   <g id="text_16">
    <!-- Mean gene copy number distribution of pan-genome -->
    <g transform="translate(22.86 15.935625) scale(0.12 -0.12)">
     <defs>
      <path id="Arial-BoldMT-64" d="M 3503 0 
L 2688 0 
L 2688 488 
Q 2484 203 2207 64 
Q 1931 -75 1650 -75 
Q 1078 -75 670 386 
Q 263 847 263 1672 
Q 263 2516 659 2955 
Q 1056 3394 1663 3394 
Q 2219 3394 2625 2931 
L 2625 4581 
L 3503 4581 
L 3503 0 
z
M 1159 1731 
Q 1159 1200 1306 963 
Q 1519 619 1900 619 
Q 2203 619 2415 876 
Q 2628 1134 2628 1647 
Q 2628 2219 2422 2470 
Q 2216 2722 1894 2722 
Q 1581 2722 1370 2473 
Q 1159 2225 1159 1731 
z
" transform="scale(0.015625)"/>
      <path id="Arial-BoldMT-66" d="M 75 3319 
L 563 3319 
L 563 3569 
Q 563 3988 652 4194 
Q 741 4400 980 4529 
Q 1219 4659 1584 4659 
Q 1959 4659 2319 4547 
L 2200 3934 
Q 1991 3984 1797 3984 
Q 1606 3984 1523 3895 
Q 1441 3806 1441 3553 
L 1441 3319 
L 2097 3319 
L 2097 2628 
L 1441 2628 
L 1441 0 
L 563 0 
L 563 2628 
L 75 2628 
L 75 3319 
z
" transform="scale(0.015625)"/>
      <path id="Arial-BoldMT-2d" d="M 359 1222 
L 359 2100 
L 2084 2100 
L 2084 1222 
L 359 1222 
z
" transform="scale(0.015625)"/>
     </defs>
     <use xlink:href="#Arial-BoldMT-4d"/>
     <use xlink:href="#Arial-BoldMT-65" x="83.300781"/>
     <use xlink:href="#Arial-BoldMT-61" x="138.916016"/>
     <use xlink:href="#Arial-BoldMT-6e" x="194.53125"/>
     <use xlink:href="#Arial-BoldMT-20" x="255.615234"/>
     <use xlink:href="#Arial-BoldMT-67" x="283.398438"/>
     <use xlink:href="#Arial-BoldMT-65" x="344.482422"/>
     <use xlink:href="#Arial-BoldMT-6e" x="400.097656"/>
     <use xlink:href="#Arial-BoldMT-65" x="461.181641"/>
     <use xlink:href="#Arial-BoldMT-20" x="516.796875"/>
     <use xlink:href="#Arial-BoldMT-63" x="544.580078"/>
     <use xlink:href="#Arial-BoldMT-6f" x="600.195312"/>
     <use xlink:href="#Arial-BoldMT-70" x="661.279297"/>
     <use xlink:href="#Arial-BoldMT-79" x="722.363281"/>
     <use xlink:href="#Arial-BoldMT-20" x="777.978516"/>
     <use xlink:href="#Arial-BoldMT-6e" x="805.761719"/>
     <use xlink:href="#Arial-BoldMT-75" x="866.845703"/>
     <use xlink:href="#Arial-BoldMT-6d" x="927.929688"/>
     <use xlink:href="#Arial-BoldMT-62" x="1016.845703"/>
     <use xlink:href="#Arial-BoldMT-65" x="1077.929688"/>
     <use xlink:href="#Arial-BoldMT-72" x="1133.544922"/>
     <use xlink:href="#Arial-BoldMT-20" x="1172.460938"/>
     <use xlink:href="#Arial-BoldMT-64" x="1200.244141"/>
     <use xlink:href="#Arial-BoldMT-69" x="1261.328125"/>
     <use xlink:href="#Arial-BoldMT-73" x="1289.111328"/>
     <use xlink:href="#Arial-BoldMT-74" x="1344.726562"/>
     <use xlink:href="#Arial-BoldMT-72" x="1378.027344"/>
     <use xlink:href="#Arial-BoldMT-69" x="1416.943359"/>
     <use xlink:href="#Arial-BoldMT-62" x="1444.726562"/>
     <use xlink:href="#Arial-BoldMT-75" x="1505.810547"/>
     <use xlink:href="#Arial-BoldMT-74" x="1566.894531"/>
     <use xlink:href="#Arial-BoldMT-69" x="1600.195312"/>
     <use xlink:href="#Arial-BoldMT-6f" x="1627.978516"/>
     <use xlink:href="#Arial-BoldMT-6e" x="1689.0625"/>
     <use xlink:href="#Arial-BoldMT-20" x="1750.146484"/>
     <use xlink:href="#Arial-BoldMT-6f" x="1777.929688"/>
     <use xlink:href="#Arial-BoldMT-66" x="1839.013672"/>
     <use xlink:href="#Arial-BoldMT-20" x="1872.314453"/>
     <use xlink:href="#Arial-BoldMT-70" x="1900.097656"/>
     <use xlink:href="#Arial-BoldMT-61" x="1961.181641"/>
     <use xlink:href="#Arial-BoldMT-6e" x="2016.796875"/>
     <use xlink:href="#Arial-BoldMT-2d" x="2077.880859"/>
     <use xlink:href="#Arial-BoldMT-67" x="2111.181641"/>
     <use xlink:href="#Arial-BoldMT-65" x="2172.265625"/>
     <use xlink:href="#Arial-BoldMT-6e" x="2227.880859"/>
     <use xlink:href="#Arial-BoldMT-6f" x="2288.964844"/>
     <use xlink:href="#Arial-BoldMT-6d" x="2350.048828"/>
     <use xlink:href="#Arial-BoldMT-65" x="2438.964844"/>
    </g>
   </g>
   <g id="legend_1">
    <g id="patch_7">
     <path d="M 220.357187 62.475625 
L 306.423437 62.475625 
Q 308.023438 62.475625 308.023438 60.875625 
L 308.023438 27.535625 
Q 308.023438 25.935625 306.423437 25.935625 
L 220.357187 25.935625 
Q 218.757187 25.935625 218.757187 27.535625 
L 218.757187 60.875625 
Q 218.757187 62.475625 220.357187 62.475625 
z
" style="fill: #ffffff; opacity: 0.8; stroke: #cccccc; stroke-linejoin: miter"/>
    </g>
    <g id="patch_8">
     <path d="M 221.957187 34.861875 
L 237.957187 34.861875 
L 237.957187 29.261875 
L 221.957187 29.261875 
z
" style="fill: #1b9e77; fill-opacity: 0.25; stroke: #1b9e77; stroke-width: 1.5; stroke-linejoin: miter"/>
    </g>
    <g id="text_17">
     <!-- Yeast core -->
     <g transform="translate(244.357187 34.861875) scale(0.08 -0.08)">
      <defs>
       <path id="ArialMT-59" d="M 1784 0 
L 1784 1941 
L 19 4581 
L 756 4581 
L 1659 3200 
Q 1909 2813 2125 2425 
Q 2331 2784 2625 3234 
L 3513 4581 
L 4219 4581 
L 2391 1941 
L 2391 0 
L 1784 0 
z
" transform="scale(0.015625)"/>
      </defs>
      <use xlink:href="#ArialMT-59"/>
      <use xlink:href="#ArialMT-65" x="57.574219"/>
      <use xlink:href="#ArialMT-61" x="113.189453"/>
      <use xlink:href="#ArialMT-73" x="168.804688"/>
      <use xlink:href="#ArialMT-74" x="218.804688"/>
      <use xlink:href="#ArialMT-20" x="246.587891"/>
      <use xlink:href="#ArialMT-63" x="274.371094"/>
      <use xlink:href="#ArialMT-6f" x="324.371094"/>
      <use xlink:href="#ArialMT-72" x="379.986328"/>
      <use xlink:href="#ArialMT-65" x="413.287109"/>
     </g>
    </g>
    <g id="patch_9">
     <path d="M 221.957187 46.275625 
L 237.957187 46.275625 
L 237.957187 40.675625 
L 221.957187 40.675625 
z
" style="fill: #d95f02; fill-opacity: 0.25; stroke: #d95f02; stroke-width: 1.5; stroke-linejoin: miter"/>
    </g>
    <g id="text_18">
     <!-- Sce specific core -->
     <g transform="translate(244.357187 46.275625) scale(0.08 -0.08)">
      <defs>
       <path id="ArialMT-53" d="M 288 1472 
L 859 1522 
Q 900 1178 1048 958 
Q 1197 738 1509 602 
Q 1822 466 2213 466 
Q 2559 466 2825 569 
Q 3091 672 3220 851 
Q 3350 1031 3350 1244 
Q 3350 1459 3225 1620 
Q 3100 1781 2813 1891 
Q 2628 1963 1997 2114 
Q 1366 2266 1113 2400 
Q 784 2572 623 2826 
Q 463 3081 463 3397 
Q 463 3744 659 4045 
Q 856 4347 1234 4503 
Q 1613 4659 2075 4659 
Q 2584 4659 2973 4495 
Q 3363 4331 3572 4012 
Q 3781 3694 3797 3291 
L 3216 3247 
Q 3169 3681 2898 3903 
Q 2628 4125 2100 4125 
Q 1550 4125 1298 3923 
Q 1047 3722 1047 3438 
Q 1047 3191 1225 3031 
Q 1400 2872 2139 2705 
Q 2878 2538 3153 2413 
Q 3553 2228 3743 1945 
Q 3934 1663 3934 1294 
Q 3934 928 3725 604 
Q 3516 281 3123 101 
Q 2731 -78 2241 -78 
Q 1619 -78 1198 103 
Q 778 284 539 648 
Q 300 1013 288 1472 
z
" transform="scale(0.015625)"/>
      </defs>
      <use xlink:href="#ArialMT-53"/>
      <use xlink:href="#ArialMT-63" x="66.699219"/>
      <use xlink:href="#ArialMT-65" x="116.699219"/>
      <use xlink:href="#ArialMT-20" x="172.314453"/>
      <use xlink:href="#ArialMT-73" x="200.097656"/>
      <use xlink:href="#ArialMT-70" x="250.097656"/>
      <use xlink:href="#ArialMT-65" x="305.712891"/>
      <use xlink:href="#ArialMT-63" x="361.328125"/>
      <use xlink:href="#ArialMT-69" x="411.328125"/>
      <use xlink:href="#ArialMT-66" x="433.544922"/>
      <use xlink:href="#ArialMT-69" x="461.328125"/>
      <use xlink:href="#ArialMT-63" x="483.544922"/>
      <use xlink:href="#ArialMT-20" x="533.544922"/>
      <use xlink:href="#ArialMT-63" x="561.328125"/>
      <use xlink:href="#ArialMT-6f" x="611.328125"/>
      <use xlink:href="#ArialMT-72" x="666.943359"/>
      <use xlink:href="#ArialMT-65" x="700.244141"/>
     </g>
    </g>
    <g id="patch_10">
     <path d="M 221.957187 57.591875 
L 237.957187 57.591875 
L 237.957187 51.991875 
L 221.957187 51.991875 
z
" style="fill: #7570b3; fill-opacity: 0.25; stroke: #7570b3; stroke-width: 1.5; stroke-linejoin: miter"/>
    </g>
    <g id="text_19">
     <!-- Accessory -->
     <g transform="translate(244.357187 57.591875) scale(0.08 -0.08)">
      <defs>
       <path id="ArialMT-41" d="M -9 0 
L 1750 4581 
L 2403 4581 
L 4278 0 
L 3588 0 
L 3053 1388 
L 1138 1388 
L 634 0 
L -9 0 
z
M 1313 1881 
L 2866 1881 
L 2388 3150 
Q 2169 3728 2063 4100 
Q 1975 3659 1816 3225 
L 1313 1881 
z
" transform="scale(0.015625)"/>
      </defs>
      <use xlink:href="#ArialMT-41"/>
      <use xlink:href="#ArialMT-63" x="66.699219"/>
      <use xlink:href="#ArialMT-63" x="116.699219"/>
      <use xlink:href="#ArialMT-65" x="166.699219"/>
      <use xlink:href="#ArialMT-73" x="222.314453"/>
      <use xlink:href="#ArialMT-73" x="272.314453"/>
      <use xlink:href="#ArialMT-6f" x="322.314453"/>
      <use xlink:href="#ArialMT-72" x="377.929688"/>
      <use xlink:href="#ArialMT-79" x="411.230469"/>
     </g>
    </g>
   </g>
  </g>
 </g>
 <defs>
  <clipPath id="pf12dd160bf">
   <rect x="33.023438" y="21.935625" width="279" height="166.32"/>
  </clipPath>
 </defs>
</svg>
